<svg xmlns:xlink="http://www.w3.org/1999/xlink" version="1.1" xmlns="http://www.w3.org/2000/svg" width="128" height="224"><defs/><g><g transform="translate(2,2)"><path fill="rgb(0,0,0)" stroke="none" paint-order="stroke fill markers" d=" M 64 168.96 L 111.36 192.64 L 64 216.32 L 16.64 192.64 Z" fill-opacity="0.20"/></g><path fill="#aebccb" stroke="rgb(0,0,0)" paint-order="fill stroke markers" d=" M 111.36 192.64 L 85.12 205.76 L 85.12 109.75999999999999 L 111.36 96.63999999999999 Z" stroke-opacity="0.30" stroke-miterlimit="10"/><path fill="#7c8a9a" stroke="rgb(0,0,0)" paint-order="fill stroke markers" d=" M 37.76 182.08 L 85.12 205.76 L 85.12 109.75999999999999 L 37.76 86.08000000000001 Z" stroke-opacity="0.30" stroke-miterlimit="10"/><path fill="#dde6ee" stroke="rgb(0,0,0)" paint-order="fill stroke markers" d=" M 64 72.96000000000001 L 111.36 96.63999999999999 L 85.12 109.75999999999999 L 37.76 86.08000000000001 Z" stroke-opacity="0.30" stroke-miterlimit="10"/><path fill="#bfe6f5" stroke="none" paint-order="stroke fill markers" d=" M 109.61066666666666 107.11466666666665 L 104.36266666666667 109.73866666666666 L 104.36266666666667 138.53866666666664 L 109.61066666666666 135.91466666666665 Z"/><path fill="#bfe6f5" stroke="none" paint-order="stroke fill markers" d=" M 100.864 111.48799999999999 L 95.616 114.112 L 95.616 142.91199999999998 L 100.864 140.28799999999998 Z"/><path fill="#bfe6f5" stroke="none" paint-order="stroke fill markers" d=" M 92.11733333333333 115.86133333333332 L 86.86933333333334 118.48533333333333 L 86.86933333333334 147.2853333333333 L 92.11733333333333 144.66133333333332 Z"/><path fill="#bfe6f5" stroke="none" paint-order="stroke fill markers" d=" M 109.61066666666666 155.11466666666664 L 104.36266666666667 157.73866666666666 L 104.36266666666667 186.53866666666667 L 109.61066666666666 183.91466666666665 Z"/><path fill="#bfe6f5" stroke="none" paint-order="stroke fill markers" d=" M 100.864 159.48799999999997 L 95.616 162.112 L 95.616 190.912 L 100.864 188.28799999999998 Z"/><path fill="#bfe6f5" stroke="none" paint-order="stroke fill markers" d=" M 92.11733333333333 163.8613333333333 L 86.86933333333334 166.48533333333333 L 86.86933333333334 195.28533333333334 L 92.11733333333333 192.66133333333332 Z"/><path fill="#bfe6f5" stroke="none" paint-order="stroke fill markers" d=" M 40.91733333333333 97.25866666666667 L 50.38933333333333 101.99466666666666 L 50.38933333333333 130.79466666666667 L 40.91733333333333 126.05866666666668 Z"/><path fill="#bfe6f5" stroke="none" paint-order="stroke fill markers" d=" M 56.704 105.152 L 66.176 109.888 L 66.176 138.688 L 56.704 133.952 Z"/><path fill="#bfe6f5" stroke="none" paint-order="stroke fill markers" d=" M 72.49066666666667 113.04533333333333 L 81.96266666666666 117.78133333333332 L 81.96266666666666 146.58133333333333 L 72.49066666666667 141.84533333333334 Z"/><path fill="#bfe6f5" stroke="none" paint-order="stroke fill markers" d=" M 40.91733333333333 145.25866666666667 L 50.38933333333333 149.99466666666666 L 50.38933333333333 178.79466666666667 L 40.91733333333333 174.05866666666668 Z"/><path fill="#bfe6f5" stroke="none" paint-order="stroke fill markers" d=" M 56.704 153.152 L 66.176 157.888 L 66.176 186.68800000000002 L 56.704 181.952 Z"/><path fill="#bfe6f5" stroke="none" paint-order="stroke fill markers" d=" M 72.49066666666667 161.04533333333333 L 81.96266666666666 165.78133333333332 L 81.96266666666666 194.58133333333333 L 72.49066666666667 189.84533333333334 Z"/><path fill="#aebccb" stroke="rgb(0,0,0)" paint-order="fill stroke markers" d=" M 62.08 194.24 L 40.96 204.8 L 40.96 108.80000000000001 L 62.08 98.24000000000001 Z" stroke-opacity="0.30" stroke-miterlimit="10"/><path fill="#7c8a9a" stroke="rgb(0,0,0)" paint-order="fill stroke markers" d=" M 16.64 192.64 L 40.96 204.8 L 40.96 108.80000000000001 L 16.64 96.63999999999999 Z" stroke-opacity="0.30" stroke-miterlimit="10"/><path fill="#dde6ee" stroke="rgb(0,0,0)" paint-order="fill stroke markers" d=" M 37.76 86.08000000000001 L 62.08 98.24000000000001 L 40.96 108.80000000000001 L 16.64 96.63999999999999 Z" stroke-opacity="0.30" stroke-miterlimit="10"/><path fill="#bfe6f5" stroke="none" paint-order="stroke fill markers" d=" M 59.967999999999996 108.89600000000002 L 53.632 112.06400000000001 L 53.632 140.864 L 59.967999999999996 137.69600000000003 Z"/><path fill="#bfe6f5" stroke="none" paint-order="stroke fill markers" d=" M 49.408 114.17600000000002 L 43.072 117.34400000000001 L 43.072 146.144 L 49.408 142.976 Z"/><path fill="#bfe6f5" stroke="none" paint-order="stroke fill markers" d=" M 59.967999999999996 156.89600000000002 L 53.632 160.064 L 53.632 188.864 L 59.967999999999996 185.69600000000003 Z"/><path fill="#bfe6f5" stroke="none" paint-order="stroke fill markers" d=" M 49.408 162.17600000000002 L 43.072 165.344 L 43.072 194.144 L 49.408 190.97600000000003 Z"/><path fill="#bfe6f5" stroke="none" paint-order="stroke fill markers" d=" M 19.072000000000003 107.45599999999999 L 26.368000000000002 111.10399999999998 L 26.368000000000002 139.904 L 19.072000000000003 136.256 Z"/><path fill="#bfe6f5" stroke="none" paint-order="stroke fill markers" d=" M 31.232 113.536 L 38.528000000000006 117.184 L 38.528000000000006 145.984 L 31.232 142.336 Z"/><path fill="#bfe6f5" stroke="none" paint-order="stroke fill markers" d=" M 19.072000000000003 155.456 L 26.368000000000002 159.10399999999998 L 26.368000000000002 187.904 L 19.072000000000003 184.256 Z"/><path fill="#bfe6f5" stroke="none" paint-order="stroke fill markers" d=" M 31.232 161.536 L 38.528000000000006 165.184 L 38.528000000000006 193.984 L 31.232 190.336 Z"/></g></svg>