<svg xmlns="http://www.w3.org/2000/svg" xmlns:xlink="http://www.w3.org/1999/xlink" version="1.1" width="128" height="128"><defs/><g><path d="M60.88,81.36 L101.84,101.84 L71.12,117.2 L30.16,96.72 Z" fill="rgb(0,0,0)" fill-opacity="0.2"/><path d="M99.84,99.84 L69.12,115.2 L69.12,71.2 L99.84,55.84 Z" fill="#9d8de0"/><path d="M99.84,99.84 L69.12,115.2 L69.12,71.2 L99.84,55.84 Z" fill="none" stroke="rgb(12,0,40)" stroke-opacity="0.32" stroke-width="1"/><path d="M28.16,94.72 L69.12,115.2 L69.12,71.2 L28.16,50.72 Z" fill="#5c4d99"/><path d="M28.16,94.72 L69.12,115.2 L69.12,71.2 L28.16,50.72 Z" fill="none" stroke="rgb(12,0,40)" stroke-opacity="0.32" stroke-width="1"/><path d="M58.88,35.36 L99.84,55.84 L69.12,71.2 L28.16,50.72 Z" fill="#d8d2f7"/><path d="M58.88,35.36 L99.84,55.84 L69.12,71.2 L28.16,50.72 Z" fill="none" stroke="rgb(12,0,40)" stroke-opacity="0.32" stroke-width="1"/><path d="M98.41,62.72 L91.03,66.4 L91.03,98.08 L98.41,94.4 Z" fill="#8a5cf6"/><path d="M88.17,67.84 L80.79,71.52 L80.79,103.2 L88.17,99.52 Z" fill="#8a5cf6"/><path d="M77.93,72.96 L70.55,76.64 L70.55,108.32 L77.93,104.64 Z" fill="#8a5cf6"/></g></svg>