<svg xmlns="http://www.w3.org/2000/svg" xmlns:xlink="http://www.w3.org/1999/xlink" version="1.1" width="128" height="128"><defs/><g><path d="M66,81.36 L101.84,99.28 L66,117.2 L30.16,99.28 Z" fill="rgb(0,0,0)" fill-opacity="0.2"/><path d="M99.84,97.28 L64,115.2 L64,55.2 L99.84,37.28 Z" fill="#9d8de0"/><path d="M99.84,97.28 L64,115.2 L64,55.2 L99.84,37.28 Z" fill="none" stroke="rgb(12,0,40)" stroke-opacity="0.32" stroke-width="1"/><path d="M28.16,97.28 L64,115.2 L64,55.2 L28.16,37.28 Z" fill="#5c4d99"/><path d="M28.16,97.28 L64,115.2 L64,55.2 L28.16,37.28 Z" fill="none" stroke="rgb(12,0,40)" stroke-opacity="0.32" stroke-width="1"/><path d="M64,19.36 L99.84,37.28 L64,55.2 L28.16,37.28 Z" fill="#d8d2f7"/><path d="M64,19.36 L99.84,37.28 L64,55.2 L28.16,37.28 Z" fill="none" stroke="rgb(12,0,40)" stroke-opacity="0.32" stroke-width="1"/><path d="M96.26,45.07 L85.5,50.45 L85.5,68.45 L96.26,63.07 Z" fill="#c9a8ff"/><path d="M78.34,54.03 L67.58,59.41 L67.58,77.41 L78.34,72.03 Z" fill="#c9a8ff"/><path d="M96.26,75.07 L85.5,80.45 L85.5,98.45 L96.26,93.07 Z" fill="#c9a8ff"/><path d="M78.34,84.03 L67.58,89.41 L67.58,107.41 L78.34,102.03 Z" fill="#c9a8ff"/><path d="M31.74,45.07 L42.5,50.45 L42.5,68.45 L31.74,63.07 Z" fill="#c9a8ff"/><path d="M49.66,54.03 L60.42,59.41 L60.42,77.41 L49.66,72.03 Z" fill="#c9a8ff"/><path d="M31.74,75.07 L42.5,80.45 L42.5,98.45 L31.74,93.07 Z" fill="#c9a8ff"/><path d="M49.66,84.03 L60.42,89.41 L60.42,107.41 L49.66,102.03 Z" fill="#c9a8ff"/><path d="M28.16,73.28 L64,91.2 L52.48,106.96 L16.64,89.04 Z" fill="#5a4d99"/><path d="M37.12,77.76 L25.6,93.52" fill="none" stroke="#fff" stroke-width="2"/><path d="M46.08,82.24 L34.56,98" fill="none" stroke="#fff" stroke-width="2"/><path d="M55.04,86.72 L43.52,102.48" fill="none" stroke="#fff" stroke-width="2"/></g></svg>