<svg xmlns="http://www.w3.org/2000/svg" xmlns:xlink="http://www.w3.org/1999/xlink" version="1.1" width="128" height="224"><defs/><g><path d="M66,170.96 L113.36,194.64 L66,218.32 L18.64,194.64 Z" fill="rgb(0,0,0)" fill-opacity="0.2"/><path d="M111.36,192.64 L85.12,205.76 L85.12,109.76 L111.36,96.64 Z" fill="#2f2956"/><path d="M111.36,192.64 L85.12,205.76 L85.12,109.76 L111.36,96.64 Z" fill="none" stroke="rgb(12,0,40)" stroke-opacity="0.42" stroke-width="1"/><path d="M37.76,182.08 L85.12,205.76 L85.12,109.76 L37.76,86.08 Z" fill="#191430"/><path d="M37.76,182.08 L85.12,205.76 L85.12,109.76 L37.76,86.08 Z" fill="none" stroke="rgb(12,0,40)" stroke-opacity="0.42" stroke-width="1"/><path d="M64,72.96 L111.36,96.64 L85.12,109.76 L37.76,86.08 Z" fill="#453f6b"/><path d="M64,72.96 L111.36,96.64 L85.12,109.76 L37.76,86.08 Z" fill="none" stroke="rgb(12,0,40)" stroke-opacity="0.42" stroke-width="1"/><path d="M103.84,100.4 L103.84,196.4" fill="none" stroke="rgb(191,167,255)" stroke-width="1.89" stroke-dasharray="8.97,5.32"/><path d="M98.24,103.2 L98.24,199.2" fill="none" stroke="rgb(190,176,255)" stroke-width="2.16" stroke-dasharray="6.23,4.45"/><path d="M92.64,106 L92.64,202" fill="none" stroke="rgb(199,154,255)" stroke-width="2.65" stroke-dasharray="9.39,3.57"/><path d="M51.34,92.87 L51.34,188.87" fill="none" stroke="rgb(220,166,255)" stroke-width="3.38" stroke-dasharray="7.37,3.52"/><path d="M61.44,97.92 L61.44,193.92" fill="none" stroke="rgb(223,184,255)" stroke-width="4.74" stroke-dasharray="7.79,2.07"/><path d="M71.54,102.97 L71.54,198.97" fill="none" stroke="rgb(223,168,255)" stroke-width="4.08" stroke-dasharray="5.82,4.38"/><path d="M62.08,194.24 L40.96,204.8 L40.96,108.8 L62.08,98.24 Z" fill="#2f2956"/><path d="M62.08,194.24 L40.96,204.8 L40.96,108.8 L62.08,98.24 Z" fill="none" stroke="rgb(12,0,40)" stroke-opacity="0.42" stroke-width="1"/><path d="M16.64,192.64 L40.96,204.8 L40.96,108.8 L16.64,96.64 Z" fill="#191430"/><path d="M16.64,192.64 L40.96,204.8 L40.96,108.8 L16.64,96.64 Z" fill="none" stroke="rgb(12,0,40)" stroke-opacity="0.42" stroke-width="1"/><path d="M37.76,86.08 L62.08,98.24 L40.96,108.8 L16.64,96.64 Z" fill="#453f6b"/><path d="M37.76,86.08 L62.08,98.24 L40.96,108.8 L16.64,96.64 Z" fill="none" stroke="rgb(12,0,40)" stroke-opacity="0.42" stroke-width="1"/><path d="M54.9,101.83 L54.9,197.83" fill="none" stroke="rgb(191,167,255)" stroke-width="1.89" stroke-dasharray="8.97,5.32"/><path d="M48.14,105.21 L48.14,201.21" fill="none" stroke="rgb(190,176,255)" stroke-width="2.16" stroke-dasharray="6.23,4.45"/><path d="M24.91,100.77 L24.91,196.77" fill="none" stroke="rgb(220,166,255)" stroke-width="3.38" stroke-dasharray="7.37,3.52"/><path d="M32.69,104.67 L32.69,200.67" fill="none" stroke="rgb(223,184,255)" stroke-width="4.74" stroke-dasharray="7.79,2.07"/></g></svg>