<svg xmlns="http://www.w3.org/2000/svg" xmlns:xlink="http://www.w3.org/1999/xlink" version="1.1" width="128" height="288"><defs/><g><path d="M66,233.68 L115.92,258.64 L66,283.6 L16.08,258.64 Z" fill="rgb(0,0,0)" fill-opacity="0.2"/><path d="M87.04,245.76 L42.24,268.16 L42.24,84.16 L87.04,61.76 Z" fill="#2f2956"/><path d="M87.04,245.76 L42.24,268.16 L42.24,84.16 L87.04,61.76 Z" fill="none" stroke="rgb(12,0,40)" stroke-opacity="0.42" stroke-width="1"/><path d="M16.64,255.36 L42.24,268.16 L42.24,84.16 L16.64,71.36 Z" fill="#191430"/><path d="M16.64,255.36 L42.24,268.16 L42.24,84.16 L16.64,71.36 Z" fill="none" stroke="rgb(12,0,40)" stroke-opacity="0.42" stroke-width="1"/><path d="M61.44,48.96 L87.04,61.76 L42.24,84.16 L16.64,71.36 Z" fill="#453f6b"/><path d="M61.44,48.96 L87.04,61.76 L42.24,84.16 L16.64,71.36 Z" fill="none" stroke="rgb(12,0,40)" stroke-opacity="0.42" stroke-width="1"/><path d="M71.81,69.38 L71.81,253.38" fill="none" stroke="rgb(211,183,255)" stroke-width="2.06" stroke-dasharray="9.32,4.92"/><path d="M57.47,76.54 L57.47,260.54" fill="none" stroke="rgb(197,155,255)" stroke-width="3.9" stroke-dasharray="7.92,6.91"/><path d="M25.34,75.71 L25.34,259.71" fill="none" stroke="rgb(230,174,255)" stroke-width="3.03" stroke-dasharray="7.49,6.34"/><path d="M33.54,79.81 L33.54,263.81" fill="none" stroke="rgb(203,151,255)" stroke-width="4.66" stroke-dasharray="3.95,4.53"/><path d="M111.36,257.92 L66.56,280.32 L66.56,129.44 L111.36,107.04 Z" fill="#2f2956"/><path d="M111.36,257.92 L66.56,280.32 L66.56,129.44 L111.36,107.04 Z" fill="none" stroke="rgb(12,0,40)" stroke-opacity="0.42" stroke-width="1"/><path d="M43.52,268.8 L66.56,280.32 L66.56,129.44 L43.52,117.92 Z" fill="#191430"/><path d="M43.52,268.8 L66.56,280.32 L66.56,129.44 L43.52,117.92 Z" fill="none" stroke="rgb(12,0,40)" stroke-opacity="0.42" stroke-width="1"/><path d="M88.32,95.52 L111.36,107.04 L66.56,129.44 L43.52,117.92 Z" fill="#453f6b"/><path d="M88.32,95.52 L111.36,107.04 L66.56,129.44 L43.52,117.92 Z" fill="none" stroke="rgb(12,0,40)" stroke-opacity="0.42" stroke-width="1"/><path d="M96.13,114.66 L96.13,265.54" fill="none" stroke="rgb(211,183,255)" stroke-width="2.06" stroke-dasharray="9.32,4.92"/><path d="M81.79,121.82 L81.79,272.7" fill="none" stroke="rgb(197,155,255)" stroke-width="3.9" stroke-dasharray="7.92,6.91"/><path d="M51.35,121.84 L51.35,272.72" fill="none" stroke="rgb(230,174,255)" stroke-width="3.03" stroke-dasharray="7.49,6.34"/><path d="M58.73,125.52 L58.73,276.4" fill="none" stroke="rgb(203,151,255)" stroke-width="4.66" stroke-dasharray="3.95,4.53"/></g></svg>