<svg xmlns="http://www.w3.org/2000/svg" xmlns:xlink="http://www.w3.org/1999/xlink" version="1.1" width="128" height="288"><defs/><g><path d="M66,231.12 L121.04,258.64 L66,286.16 L10.96,258.64 Z" fill="rgb(0,0,0)" fill-opacity="0.2"/><path d="M119.04,256.64 L64,284.16 L64,140.64 L119.04,113.12 Z" fill="#9d8de0"/><path d="M119.04,256.64 L64,284.16 L64,140.64 L119.04,113.12 Z" fill="none" stroke="rgb(12,0,40)" stroke-opacity="0.32" stroke-width="1"/><path d="M8.96,256.64 L64,284.16 L64,140.64 L8.96,113.12 Z" fill="#5c4d99"/><path d="M8.96,256.64 L64,284.16 L64,140.64 L8.96,113.12 Z" fill="none" stroke="rgb(12,0,40)" stroke-opacity="0.32" stroke-width="1"/><path d="M64,85.6 L119.04,113.12 L64,140.64 L8.96,113.12 Z" fill="#d8d2f7"/><path d="M64,85.6 L119.04,113.12 L64,140.64 L8.96,113.12 Z" fill="none" stroke="rgb(12,0,40)" stroke-opacity="0.32" stroke-width="1"/><path d="M116.29,121.67 L108.03,125.8 L108.03,147.33 L116.29,143.2 Z" fill="#c9a8ff"/><path d="M102.53,128.55 L94.27,132.68 L94.27,154.21 L102.53,150.08 Z" fill="#c9a8ff"/><path d="M88.77,135.43 L80.51,139.56 L80.51,161.09 L88.77,156.96 Z" fill="#c9a8ff"/><path d="M75.01,142.31 L66.75,146.44 L66.75,167.97 L75.01,163.84 Z" fill="#c9a8ff"/><path d="M116.29,157.55 L108.03,161.68 L108.03,183.21 L116.29,179.08 Z" fill="#c9a8ff"/><path d="M102.53,164.43 L94.27,168.56 L94.27,190.09 L102.53,185.96 Z" fill="#c9a8ff"/><path d="M88.77,171.31 L80.51,175.44 L80.51,196.97 L88.77,192.84 Z" fill="#c9a8ff"/><path d="M75.01,178.19 L66.75,182.32 L66.75,203.85 L75.01,199.72 Z" fill="#c9a8ff"/><path d="M116.29,193.43 L108.03,197.56 L108.03,219.09 L116.29,214.96 Z" fill="#c9a8ff"/><path d="M102.53,200.31 L94.27,204.44 L94.27,225.97 L102.53,221.84 Z" fill="#c9a8ff"/><path d="M88.77,207.19 L80.51,211.32 L80.51,232.85 L88.77,228.72 Z" fill="#c9a8ff"/><path d="M75.01,214.07 L66.75,218.2 L66.75,239.73 L75.01,235.6 Z" fill="#c9a8ff"/><path d="M116.29,229.31 L108.03,233.44 L108.03,254.97 L116.29,250.84 Z" fill="#c9a8ff"/><path d="M102.53,236.19 L94.27,240.32 L94.27,261.85 L102.53,257.72 Z" fill="#c9a8ff"/><path d="M88.77,243.07 L80.51,247.2 L80.51,268.73 L88.77,264.6 Z" fill="#c9a8ff"/><path d="M75.01,249.95 L66.75,254.08 L66.75,275.61 L75.01,271.48 Z" fill="#c9a8ff"/><path d="M11.71,121.67 L19.97,125.8 L19.97,147.33 L11.71,143.2 Z" fill="#c9a8ff"/><path d="M25.47,128.55 L33.73,132.68 L33.73,154.21 L25.47,150.08 Z" fill="#c9a8ff"/><path d="M39.23,135.43 L47.49,139.56 L47.49,161.09 L39.23,156.96 Z" fill="#c9a8ff"/><path d="M52.99,142.31 L61.25,146.44 L61.25,167.97 L52.99,163.84 Z" fill="#c9a8ff"/><path d="M11.71,157.55 L19.97,161.68 L19.97,183.21 L11.71,179.08 Z" fill="#c9a8ff"/><path d="M25.47,164.43 L33.73,168.56 L33.73,190.09 L25.47,185.96 Z" fill="#c9a8ff"/><path d="M39.23,171.31 L47.49,175.44 L47.49,196.97 L39.23,192.84 Z" fill="#c9a8ff"/><path d="M52.99,178.19 L61.25,182.32 L61.25,203.85 L52.99,199.72 Z" fill="#c9a8ff"/><path d="M11.71,193.43 L19.97,197.56 L19.97,219.09 L11.71,214.96 Z" fill="#c9a8ff"/><path d="M25.47,200.31 L33.73,204.44 L33.73,225.97 L25.47,221.84 Z" fill="#c9a8ff"/><path d="M39.23,207.19 L47.49,211.32 L47.49,232.85 L39.23,228.72 Z" fill="#c9a8ff"/><path d="M52.99,214.07 L61.25,218.2 L61.25,239.73 L52.99,235.6 Z" fill="#c9a8ff"/><path d="M11.71,229.31 L19.97,233.44 L19.97,254.97 L11.71,250.84 Z" fill="#c9a8ff"/><path d="M25.47,236.19 L33.73,240.32 L33.73,261.85 L25.47,257.72 Z" fill="#c9a8ff"/><path d="M39.23,243.07 L47.49,247.2 L47.49,268.73 L39.23,264.6 Z" fill="#c9a8ff"/><path d="M52.99,249.95 L61.25,254.08 L61.25,275.61 L52.99,271.48 Z" fill="#c9a8ff"/></g></svg>