<svg xmlns:xlink="http://www.w3.org/1999/xlink" version="1.1" xmlns="http://www.w3.org/2000/svg" width="128" height="288"><defs/><g><g transform="translate(2,2)"><path fill="rgb(0,0,0)" stroke="none" paint-order="stroke fill markers" d=" M 64 232.96 L 112.64 257.28 L 64 281.6 L 15.36 257.28 Z" fill-opacity="0.20"/></g><path fill="#aebccb" stroke="rgb(0,0,0)" paint-order="fill stroke markers" d=" M 112.64 257.28 L 64 281.6 L 64 152.80000000000004 L 112.64 128.48 Z" stroke-opacity="0.30" stroke-miterlimit="10"/><path fill="#7c8a9a" stroke="rgb(0,0,0)" paint-order="fill stroke markers" d=" M 15.36 257.28 L 64 281.6 L 64 152.80000000000004 L 15.36 128.48 Z" stroke-opacity="0.30" stroke-miterlimit="10"/><path fill="#dde6ee" stroke="rgb(0,0,0)" paint-order="fill stroke markers" d=" M 64 104.16000000000003 L 112.64 128.48 L 64 152.80000000000004 L 15.36 128.48 Z" stroke-opacity="0.30" stroke-miterlimit="10"/><path fill="#bfe6f5" stroke="none" paint-order="stroke fill markers" d=" M 109.39733333333334 135.2533333333333 L 99.66933333333333 140.11733333333333 L 99.66933333333333 155.57333333333335 L 109.39733333333334 150.70933333333332 Z"/><path fill="#bfe6f5" stroke="none" paint-order="stroke fill markers" d=" M 93.184 143.35999999999999 L 83.456 148.22400000000002 L 83.456 163.68000000000004 L 93.184 158.816 Z"/><path fill="#bfe6f5" stroke="none" paint-order="stroke fill markers" d=" M 76.97066666666666 151.4666666666667 L 67.24266666666668 156.33066666666667 L 67.24266666666668 171.7866666666667 L 76.97066666666666 166.92266666666671 Z"/><path fill="#bfe6f5" stroke="none" paint-order="stroke fill markers" d=" M 109.39733333333334 161.01333333333332 L 99.66933333333333 165.87733333333335 L 99.66933333333333 181.33333333333334 L 109.39733333333334 176.4693333333333 Z"/><path fill="#bfe6f5" stroke="none" paint-order="stroke fill markers" d=" M 93.184 169.12 L 83.456 173.98400000000004 L 83.456 189.44000000000003 L 93.184 184.576 Z"/><path fill="#bfe6f5" stroke="none" paint-order="stroke fill markers" d=" M 76.97066666666666 177.2266666666667 L 67.24266666666668 182.0906666666667 L 67.24266666666668 197.54666666666668 L 76.97066666666666 192.6826666666667 Z"/><path fill="#bfe6f5" stroke="none" paint-order="stroke fill markers" d=" M 109.39733333333334 186.7733333333333 L 99.66933333333333 191.63733333333334 L 99.66933333333333 207.09333333333333 L 109.39733333333334 202.2293333333333 Z"/><path fill="#bfe6f5" stroke="none" paint-order="stroke fill markers" d=" M 93.184 194.88 L 83.456 199.74400000000003 L 83.456 215.20000000000002 L 93.184 210.33599999999998 Z"/><path fill="#bfe6f5" stroke="none" paint-order="stroke fill markers" d=" M 76.97066666666666 202.9866666666667 L 67.24266666666668 207.8506666666667 L 67.24266666666668 223.30666666666667 L 76.97066666666666 218.4426666666667 Z"/><path fill="#bfe6f5" stroke="none" paint-order="stroke fill markers" d=" M 109.39733333333334 212.5333333333333 L 99.66933333333333 217.39733333333334 L 99.66933333333333 232.85333333333335 L 109.39733333333334 227.98933333333332 Z"/><path fill="#bfe6f5" stroke="none" paint-order="stroke fill markers" d=" M 93.184 220.64 L 83.456 225.50400000000002 L 83.456 240.96000000000004 L 93.184 236.096 Z"/><path fill="#bfe6f5" stroke="none" paint-order="stroke fill markers" d=" M 76.97066666666666 228.74666666666667 L 67.24266666666668 233.6106666666667 L 67.24266666666668 249.0666666666667 L 76.97066666666666 244.2026666666667 Z"/><path fill="#bfe6f5" stroke="none" paint-order="stroke fill markers" d=" M 109.39733333333334 238.2933333333333 L 99.66933333333333 243.15733333333333 L 99.66933333333333 258.61333333333334 L 109.39733333333334 253.7493333333333 Z"/><path fill="#bfe6f5" stroke="none" paint-order="stroke fill markers" d=" M 93.184 246.39999999999998 L 83.456 251.264 L 83.456 266.72 L 93.184 261.856 Z"/><path fill="#bfe6f5" stroke="none" paint-order="stroke fill markers" d=" M 76.97066666666666 254.5066666666667 L 67.24266666666668 259.3706666666667 L 67.24266666666668 274.8266666666667 L 76.97066666666666 269.9626666666667 Z"/><path fill="#bfe6f5" stroke="none" paint-order="stroke fill markers" d=" M 18.602666666666664 135.2533333333333 L 28.330666666666666 140.11733333333333 L 28.330666666666666 155.57333333333335 L 18.602666666666664 150.70933333333332 Z"/><path fill="#bfe6f5" stroke="none" paint-order="stroke fill markers" d=" M 34.816 143.35999999999999 L 44.544 148.22400000000002 L 44.544 163.68000000000004 L 34.816 158.816 Z"/><path fill="#bfe6f5" stroke="none" paint-order="stroke fill markers" d=" M 51.029333333333334 151.4666666666667 L 60.75733333333333 156.33066666666667 L 60.75733333333333 171.7866666666667 L 51.029333333333334 166.92266666666671 Z"/><path fill="#bfe6f5" stroke="none" paint-order="stroke fill markers" d=" M 18.602666666666664 161.01333333333332 L 28.330666666666666 165.87733333333335 L 28.330666666666666 181.33333333333334 L 18.602666666666664 176.4693333333333 Z"/><path fill="#bfe6f5" stroke="none" paint-order="stroke fill markers" d=" M 34.816 169.12 L 44.544 173.98400000000004 L 44.544 189.44000000000003 L 34.816 184.576 Z"/><path fill="#bfe6f5" stroke="none" paint-order="stroke fill markers" d=" M 51.029333333333334 177.2266666666667 L 60.75733333333333 182.0906666666667 L 60.75733333333333 197.54666666666668 L 51.029333333333334 192.6826666666667 Z"/><path fill="#bfe6f5" stroke="none" paint-order="stroke fill markers" d=" M 18.602666666666664 186.7733333333333 L 28.330666666666666 191.63733333333334 L 28.330666666666666 207.09333333333333 L 18.602666666666664 202.2293333333333 Z"/><path fill="#bfe6f5" stroke="none" paint-order="stroke fill markers" d=" M 34.816 194.88 L 44.544 199.74400000000003 L 44.544 215.20000000000002 L 34.816 210.33599999999998 Z"/><path fill="#bfe6f5" stroke="none" paint-order="stroke fill markers" d=" M 51.029333333333334 202.9866666666667 L 60.75733333333333 207.8506666666667 L 60.75733333333333 223.30666666666667 L 51.029333333333334 218.4426666666667 Z"/><path fill="#bfe6f5" stroke="none" paint-order="stroke fill markers" d=" M 18.602666666666664 212.5333333333333 L 28.330666666666666 217.39733333333334 L 28.330666666666666 232.85333333333335 L 18.602666666666664 227.98933333333332 Z"/><path fill="#bfe6f5" stroke="none" paint-order="stroke fill markers" d=" M 34.816 220.64 L 44.544 225.50400000000002 L 44.544 240.96000000000004 L 34.816 236.096 Z"/><path fill="#bfe6f5" stroke="none" paint-order="stroke fill markers" d=" M 51.029333333333334 228.74666666666667 L 60.75733333333333 233.6106666666667 L 60.75733333333333 249.0666666666667 L 51.029333333333334 244.2026666666667 Z"/><path fill="#bfe6f5" stroke="none" paint-order="stroke fill markers" d=" M 18.602666666666664 238.2933333333333 L 28.330666666666666 243.15733333333333 L 28.330666666666666 258.61333333333334 L 18.602666666666664 253.7493333333333 Z"/><path fill="#bfe6f5" stroke="none" paint-order="stroke fill markers" d=" M 34.816 246.39999999999998 L 44.544 251.264 L 44.544 266.72 L 34.816 261.856 Z"/><path fill="#bfe6f5" stroke="none" paint-order="stroke fill markers" d=" M 51.029333333333334 254.5066666666667 L 60.75733333333333 259.3706666666667 L 60.75733333333333 274.8266666666667 L 51.029333333333334 269.9626666666667 Z"/><path fill="#aebccb" stroke="rgb(0,0,0)" paint-order="fill stroke markers" d=" M 99.84 128.48 L 64 146.4 L 64 113.28 L 99.84 95.35999999999999 Z" stroke-opacity="0.30" stroke-miterlimit="10"/><path fill="#7c8a9a" stroke="rgb(0,0,0)" paint-order="fill stroke markers" d=" M 28.159999999999997 128.48 L 64 146.4 L 64 113.28 L 28.159999999999997 95.35999999999999 Z" stroke-opacity="0.30" stroke-miterlimit="10"/><path fill="#dde6ee" stroke="rgb(0,0,0)" paint-order="fill stroke markers" d=" M 64 77.44000000000003 L 99.84 95.35999999999999 L 64 113.28 L 28.159999999999997 95.35999999999999 Z" stroke-opacity="0.30" stroke-miterlimit="10"/><path fill="#bfe6f5" stroke="none" paint-order="stroke fill markers" d=" M 96.256 103.77599999999998 L 85.504 109.15199999999999 L 85.504 129.024 L 96.256 123.648 Z"/><path fill="#bfe6f5" stroke="none" paint-order="stroke fill markers" d=" M 78.336 112.73599999999999 L 67.584 118.112 L 67.584 137.984 L 78.336 132.608 Z"/><path fill="#bfe6f5" stroke="none" paint-order="stroke fill markers" d=" M 31.743999999999996 103.77599999999998 L 42.495999999999995 109.15199999999999 L 42.495999999999995 129.024 L 31.743999999999996 123.648 Z"/><path fill="#bfe6f5" stroke="none" paint-order="stroke fill markers" d=" M 49.664 112.73599999999999 L 60.416000000000004 118.112 L 60.416000000000004 137.984 L 49.664 132.608 Z"/><path fill="#aebccb" stroke="rgb(0,0,0)" paint-order="fill stroke markers" d=" M 87.03999999999999 95.35999999999999 L 64 106.88000000000002 L 64 84.80000000000001 L 87.03999999999999 73.27999999999997 Z" stroke-opacity="0.30" stroke-miterlimit="10"/><path fill="#7c8a9a" stroke="rgb(0,0,0)" paint-order="fill stroke markers" d=" M 40.96000000000001 95.35999999999999 L 64 106.88000000000002 L 64 84.80000000000001 L 40.96000000000001 73.27999999999997 Z" stroke-opacity="0.30" stroke-miterlimit="10"/><path fill="#dde6ee" stroke="rgb(0,0,0)" paint-order="fill stroke markers" d=" M 64 61.75999999999999 L 87.03999999999999 73.27999999999997 L 64 84.80000000000001 L 40.96000000000001 73.27999999999997 Z" stroke-opacity="0.30" stroke-miterlimit="10"/><path fill="none" stroke="#bbb" paint-order="fill stroke markers" d=" M 64 72 L 64 48" stroke-miterlimit="10" stroke-width="2"/><path fill="#ff5b3b" stroke="none" paint-order="stroke fill markers" d=" M 67.2 48 A 3.2 3.2 0 1 1 67.19999840000014 47.996800000533334"/></g></svg>