<svg xmlns="http://www.w3.org/2000/svg" xmlns:xlink="http://www.w3.org/1999/xlink" version="1.1" width="128" height="224"><defs/><g><path d="M66,170.96 L113.36,194.64 L66,218.32 L18.64,194.64 Z" fill="rgb(0,0,0)" fill-opacity="0.2"/><path d="M111.36,192.64 L85.12,205.76 L85.12,109.76 L111.36,96.64 Z" fill="#9d8de0"/><path d="M111.36,192.64 L85.12,205.76 L85.12,109.76 L111.36,96.64 Z" fill="none" stroke="rgb(12,0,40)" stroke-opacity="0.32" stroke-width="1"/><path d="M37.76,182.08 L85.12,205.76 L85.12,109.76 L37.76,86.08 Z" fill="#5c4d99"/><path d="M37.76,182.08 L85.12,205.76 L85.12,109.76 L37.76,86.08 Z" fill="none" stroke="rgb(12,0,40)" stroke-opacity="0.32" stroke-width="1"/><path d="M64,72.96 L111.36,96.64 L85.12,109.76 L37.76,86.08 Z" fill="#d8d2f7"/><path d="M64,72.96 L111.36,96.64 L85.12,109.76 L37.76,86.08 Z" fill="none" stroke="rgb(12,0,40)" stroke-opacity="0.32" stroke-width="1"/><path d="M109.61,107.11 L104.36,109.74 L104.36,138.54 L109.61,135.91 Z" fill="#c9a8ff"/><path d="M100.86,111.49 L95.62,114.11 L95.62,142.91 L100.86,140.29 Z" fill="#c9a8ff"/><path d="M92.12,115.86 L86.87,118.49 L86.87,147.29 L92.12,144.66 Z" fill="#c9a8ff"/><path d="M109.61,155.11 L104.36,157.74 L104.36,186.54 L109.61,183.91 Z" fill="#c9a8ff"/><path d="M100.86,159.49 L95.62,162.11 L95.62,190.91 L100.86,188.29 Z" fill="#c9a8ff"/><path d="M92.12,163.86 L86.87,166.49 L86.87,195.29 L92.12,192.66 Z" fill="#c9a8ff"/><path d="M40.92,97.26 L50.39,101.99 L50.39,130.79 L40.92,126.06 Z" fill="#c9a8ff"/><path d="M56.7,105.15 L66.18,109.89 L66.18,138.69 L56.7,133.95 Z" fill="#c9a8ff"/><path d="M72.49,113.05 L81.96,117.78 L81.96,146.58 L72.49,141.85 Z" fill="#c9a8ff"/><path d="M40.92,145.26 L50.39,149.99 L50.39,178.79 L40.92,174.06 Z" fill="#c9a8ff"/><path d="M56.7,153.15 L66.18,157.89 L66.18,186.69 L56.7,181.95 Z" fill="#c9a8ff"/><path d="M72.49,161.05 L81.96,165.78 L81.96,194.58 L72.49,189.85 Z" fill="#c9a8ff"/><path d="M62.08,194.24 L40.96,204.8 L40.96,108.8 L62.08,98.24 Z" fill="#9d8de0"/><path d="M62.08,194.24 L40.96,204.8 L40.96,108.8 L62.08,98.24 Z" fill="none" stroke="rgb(12,0,40)" stroke-opacity="0.32" stroke-width="1"/><path d="M16.64,192.64 L40.96,204.8 L40.96,108.8 L16.64,96.64 Z" fill="#5c4d99"/><path d="M16.64,192.64 L40.96,204.8 L40.96,108.8 L16.64,96.64 Z" fill="none" stroke="rgb(12,0,40)" stroke-opacity="0.32" stroke-width="1"/><path d="M37.76,86.08 L62.08,98.24 L40.96,108.8 L16.64,96.64 Z" fill="#d8d2f7"/><path d="M37.76,86.08 L62.08,98.24 L40.96,108.8 L16.64,96.64 Z" fill="none" stroke="rgb(12,0,40)" stroke-opacity="0.32" stroke-width="1"/><path d="M59.97,108.9 L53.63,112.06 L53.63,140.86 L59.97,137.7 Z" fill="#c9a8ff"/><path d="M49.41,114.18 L43.07,117.34 L43.07,146.14 L49.41,142.98 Z" fill="#c9a8ff"/><path d="M59.97,156.9 L53.63,160.06 L53.63,188.86 L59.97,185.7 Z" fill="#c9a8ff"/><path d="M49.41,162.18 L43.07,165.34 L43.07,194.14 L49.41,190.98 Z" fill="#c9a8ff"/><path d="M19.07,107.46 L26.37,111.1 L26.37,139.9 L19.07,136.26 Z" fill="#c9a8ff"/><path d="M31.23,113.54 L38.53,117.18 L38.53,145.98 L31.23,142.34 Z" fill="#c9a8ff"/><path d="M19.07,155.46 L26.37,159.1 L26.37,187.9 L19.07,184.26 Z" fill="#c9a8ff"/><path d="M31.23,161.54 L38.53,165.18 L38.53,193.98 L31.23,190.34 Z" fill="#c9a8ff"/></g></svg>