<svg xmlns:xlink="http://www.w3.org/1999/xlink" version="1.1" xmlns="http://www.w3.org/2000/svg" width="128" height="288"><defs/><g><g transform="translate(2,2)"><path fill="rgb(0,0,0)" stroke="none" paint-order="stroke fill markers" d=" M 64 231.68 L 113.92 256.64 L 64 281.6 L 14.079999999999998 256.64 Z" fill-opacity="0.20"/></g><path fill="#aebccb" stroke="rgb(0,0,0)" paint-order="fill stroke markers" d=" M 87.03999999999999 245.76 L 42.24 268.15999999999997 L 42.24 84.15999999999997 L 87.03999999999999 61.75999999999999 Z" stroke-opacity="0.30" stroke-miterlimit="10"/><path fill="#7c8a9a" stroke="rgb(0,0,0)" paint-order="fill stroke markers" d=" M 16.64 255.36 L 42.24 268.15999999999997 L 42.24 84.15999999999997 L 16.64 71.36000000000001 Z" stroke-opacity="0.30" stroke-miterlimit="10"/><path fill="#dde6ee" stroke="rgb(0,0,0)" paint-order="fill stroke markers" d=" M 61.44 48.96000000000001 L 87.03999999999999 61.75999999999999 L 42.24 84.15999999999997 L 16.64 71.36000000000001 Z" stroke-opacity="0.30" stroke-miterlimit="10"/><path fill="#bfe6f5" stroke="none" paint-order="stroke fill markers" d=" M 82.55999999999999 71.35999999999999 L 69.11999999999999 78.07999999999998 L 69.11999999999999 100.15999999999998 L 82.55999999999999 93.43999999999998 Z"/><path fill="#bfe6f5" stroke="none" paint-order="stroke fill markers" d=" M 60.16 82.55999999999997 L 46.72 89.27999999999997 L 46.72 111.35999999999997 L 60.16 104.63999999999997 Z"/><path fill="#bfe6f5" stroke="none" paint-order="stroke fill markers" d=" M 82.55999999999999 108.15999999999998 L 69.11999999999999 114.87999999999998 L 69.11999999999999 136.95999999999998 L 82.55999999999999 130.23999999999998 Z"/><path fill="#bfe6f5" stroke="none" paint-order="stroke fill markers" d=" M 60.16 119.35999999999997 L 46.72 126.07999999999997 L 46.72 148.15999999999997 L 60.16 141.43999999999997 Z"/><path fill="#bfe6f5" stroke="none" paint-order="stroke fill markers" d=" M 82.55999999999999 144.95999999999998 L 69.11999999999999 151.68 L 69.11999999999999 173.76 L 82.55999999999999 167.03999999999996 Z"/><path fill="#bfe6f5" stroke="none" paint-order="stroke fill markers" d=" M 60.16 156.15999999999997 L 46.72 162.88 L 46.72 184.95999999999998 L 60.16 178.23999999999995 Z"/><path fill="#bfe6f5" stroke="none" paint-order="stroke fill markers" d=" M 82.55999999999999 181.76 L 69.11999999999999 188.48 L 69.11999999999999 210.56 L 82.55999999999999 203.83999999999997 Z"/><path fill="#bfe6f5" stroke="none" paint-order="stroke fill markers" d=" M 60.16 192.95999999999998 L 46.72 199.67999999999998 L 46.72 221.76 L 60.16 215.03999999999996 Z"/><path fill="#bfe6f5" stroke="none" paint-order="stroke fill markers" d=" M 82.55999999999999 218.56 L 69.11999999999999 225.27999999999997 L 69.11999999999999 247.35999999999996 L 82.55999999999999 240.64 Z"/><path fill="#bfe6f5" stroke="none" paint-order="stroke fill markers" d=" M 60.16 229.76 L 46.72 236.47999999999996 L 46.72 258.55999999999995 L 60.16 251.83999999999997 Z"/><path fill="#bfe6f5" stroke="none" paint-order="stroke fill markers" d=" M 19.200000000000003 80.00000000000001 L 26.880000000000003 83.83999999999999 L 26.880000000000003 105.91999999999999 L 19.200000000000003 102.08000000000001 Z"/><path fill="#bfe6f5" stroke="none" paint-order="stroke fill markers" d=" M 32 86.39999999999999 L 39.68000000000001 90.23999999999997 L 39.68000000000001 112.31999999999996 L 32 108.47999999999999 Z"/><path fill="#bfe6f5" stroke="none" paint-order="stroke fill markers" d=" M 19.200000000000003 116.80000000000001 L 26.880000000000003 120.63999999999999 L 26.880000000000003 142.72 L 19.200000000000003 138.88 Z"/><path fill="#bfe6f5" stroke="none" paint-order="stroke fill markers" d=" M 32 123.19999999999999 L 39.68000000000001 127.03999999999996 L 39.68000000000001 149.11999999999998 L 32 145.27999999999997 Z"/><path fill="#bfe6f5" stroke="none" paint-order="stroke fill markers" d=" M 19.200000000000003 153.60000000000002 L 26.880000000000003 157.44 L 26.880000000000003 179.51999999999998 L 19.200000000000003 175.68 Z"/><path fill="#bfe6f5" stroke="none" paint-order="stroke fill markers" d=" M 32 160 L 39.68000000000001 163.83999999999997 L 39.68000000000001 185.91999999999996 L 32 182.07999999999998 Z"/><path fill="#bfe6f5" stroke="none" paint-order="stroke fill markers" d=" M 19.200000000000003 190.4 L 26.880000000000003 194.24 L 26.880000000000003 216.32000000000002 L 19.200000000000003 212.48 Z"/><path fill="#bfe6f5" stroke="none" paint-order="stroke fill markers" d=" M 32 196.79999999999998 L 39.68000000000001 200.64 L 39.68000000000001 222.72 L 32 218.87999999999997 Z"/><path fill="#bfe6f5" stroke="none" paint-order="stroke fill markers" d=" M 19.200000000000003 227.20000000000002 L 26.880000000000003 231.04000000000002 L 26.880000000000003 253.12 L 19.200000000000003 249.27999999999997 Z"/><path fill="#bfe6f5" stroke="none" paint-order="stroke fill markers" d=" M 32 233.6 L 39.68000000000001 237.44 L 39.68000000000001 259.52 L 32 255.67999999999995 Z"/><path fill="#aebccb" stroke="rgb(0,0,0)" paint-order="fill stroke markers" d=" M 111.36 257.92 L 66.56 280.32 L 66.56 129.44 L 111.36 107.04000000000002 Z" stroke-opacity="0.30" stroke-miterlimit="10"/><path fill="#7c8a9a" stroke="rgb(0,0,0)" paint-order="fill stroke markers" d=" M 43.52 268.8 L 66.56 280.32 L 66.56 129.44 L 43.52 117.92000000000002 Z" stroke-opacity="0.30" stroke-miterlimit="10"/><path fill="#dde6ee" stroke="rgb(0,0,0)" paint-order="fill stroke markers" d=" M 88.32 95.52000000000001 L 111.36 107.04000000000002 L 66.56 129.44 L 43.52 117.92000000000002 Z" stroke-opacity="0.30" stroke-miterlimit="10"/><path fill="#bfe6f5" stroke="none" paint-order="stroke fill markers" d=" M 106.88 116.82400000000001 L 93.44 123.54400000000001 L 93.44 146.17600000000002 L 106.88 139.45600000000002 Z"/><path fill="#bfe6f5" stroke="none" paint-order="stroke fill markers" d=" M 84.48 128.024 L 71.03999999999999 134.744 L 71.03999999999999 157.376 L 84.48 150.656 Z"/><path fill="#bfe6f5" stroke="none" paint-order="stroke fill markers" d=" M 106.88 154.544 L 93.44 161.264 L 93.44 183.89600000000002 L 106.88 177.17600000000002 Z"/><path fill="#bfe6f5" stroke="none" paint-order="stroke fill markers" d=" M 84.48 165.744 L 71.03999999999999 172.464 L 71.03999999999999 195.096 L 84.48 188.376 Z"/><path fill="#bfe6f5" stroke="none" paint-order="stroke fill markers" d=" M 106.88 192.264 L 93.44 198.98400000000004 L 93.44 221.61599999999999 L 106.88 214.89600000000002 Z"/><path fill="#bfe6f5" stroke="none" paint-order="stroke fill markers" d=" M 84.48 203.464 L 71.03999999999999 210.18400000000003 L 71.03999999999999 232.81599999999997 L 84.48 226.096 Z"/><path fill="#bfe6f5" stroke="none" paint-order="stroke fill markers" d=" M 106.88 229.98400000000004 L 93.44 236.704 L 93.44 259.336 L 106.88 252.61599999999999 Z"/><path fill="#bfe6f5" stroke="none" paint-order="stroke fill markers" d=" M 84.48 241.18400000000003 L 71.03999999999999 247.904 L 71.03999999999999 270.536 L 84.48 263.816 Z"/><path fill="#bfe6f5" stroke="none" paint-order="stroke fill markers" d=" M 45.824000000000005 126.61600000000001 L 52.736000000000004 130.072 L 52.736000000000004 152.704 L 45.824000000000005 149.24800000000002 Z"/><path fill="#bfe6f5" stroke="none" paint-order="stroke fill markers" d=" M 57.344 132.376 L 64.256 135.83200000000002 L 64.256 158.464 L 57.344 155.008 Z"/><path fill="#bfe6f5" stroke="none" paint-order="stroke fill markers" d=" M 45.824000000000005 164.336 L 52.736000000000004 167.792 L 52.736000000000004 190.424 L 45.824000000000005 186.96800000000002 Z"/><path fill="#bfe6f5" stroke="none" paint-order="stroke fill markers" d=" M 57.344 170.096 L 64.256 173.55200000000002 L 64.256 196.18400000000003 L 57.344 192.728 Z"/><path fill="#bfe6f5" stroke="none" paint-order="stroke fill markers" d=" M 45.824000000000005 202.05600000000004 L 52.736000000000004 205.512 L 52.736000000000004 228.144 L 45.824000000000005 224.688 Z"/><path fill="#bfe6f5" stroke="none" paint-order="stroke fill markers" d=" M 57.344 207.81600000000003 L 64.256 211.27200000000002 L 64.256 233.904 L 57.344 230.44799999999998 Z"/><path fill="#bfe6f5" stroke="none" paint-order="stroke fill markers" d=" M 45.824000000000005 239.776 L 52.736000000000004 243.23200000000003 L 52.736000000000004 265.864 L 45.824000000000005 262.408 Z"/><path fill="#bfe6f5" stroke="none" paint-order="stroke fill markers" d=" M 57.344 245.536 L 64.256 248.99200000000002 L 64.256 271.624 L 57.344 268.168 Z"/></g></svg>