<svg xmlns="http://www.w3.org/2000/svg" xmlns:xlink="http://www.w3.org/1999/xlink" version="1.1" width="128" height="224"><defs/><g><path d="M55.76,173.52 L106.96,199.12 L76.24,214.48 L25.04,188.88 Z" fill="rgb(0,0,0)" fill-opacity="0.2"/><path d="M104.96,197.12 L74.24,212.48 L74.24,140.48 L104.96,125.12 Z" fill="#9c7d1e"/><path d="M104.96,197.12 L74.24,212.48 L74.24,140.48 L104.96,125.12 Z" fill="none" stroke="rgb(0,0,0)" stroke-opacity="0.4" stroke-width="1"/><path d="M23.04,186.88 L74.24,212.48 L74.24,140.48 L23.04,114.88 Z" fill="#5e4912"/><path d="M23.04,186.88 L74.24,212.48 L74.24,140.48 L23.04,114.88 Z" fill="none" stroke="rgb(0,0,0)" stroke-opacity="0.4" stroke-width="1"/><path d="M53.76,99.52 L104.96,125.12 L74.24,140.48 L23.04,114.88 Z" fill="#c9a227"/><path d="M53.76,99.52 L104.96,125.12 L74.24,140.48 L23.04,114.88 Z" fill="none" stroke="rgb(0,0,0)" stroke-opacity="0.4" stroke-width="1"/><path d="M25.09,127.42 L33.79,131.78 L33.79,180.74 L25.09,176.38 Z" fill="#6b6e68"/><path d="M37.89,133.82 L46.59,138.18 L46.59,187.14 L37.89,182.78 Z" fill="#6b6e68"/><path d="M50.69,140.22 L59.39,144.58 L59.39,193.54 L50.69,189.18 Z" fill="#6b6e68"/><path d="M63.49,146.62 L72.19,150.98 L72.19,199.94 L63.49,195.58 Z" fill="#6b6e68"/></g></svg>