<svg xmlns="http://www.w3.org/2000/svg" xmlns:xlink="http://www.w3.org/1999/xlink" version="1.1" width="128" height="128"><defs/><g><path d="M60.88,77.52 L108.24,101.2 L72.4,119.12 L25.04,95.44 Z" fill="rgb(0,0,0)" fill-opacity="0.2"/><path d="M106.24,99.2 L70.4,117.12 L70.4,69.12 L106.24,51.2 Z" fill="#403510"/><path d="M106.24,99.2 L70.4,117.12 L70.4,69.12 L106.24,51.2 Z" fill="none" stroke="rgb(0,0,0)" stroke-opacity="0.5" stroke-width="1"/><path d="M23.04,93.44 L70.4,117.12 L70.4,69.12 L23.04,45.44 Z" fill="#261f0a"/><path d="M23.04,93.44 L70.4,117.12 L70.4,69.12 L23.04,45.44 Z" fill="none" stroke="rgb(0,0,0)" stroke-opacity="0.5" stroke-width="1"/><path d="M58.88,27.52 L106.24,51.2 L70.4,69.12 L23.04,45.44 Z" fill="#5a4a16"/><path d="M58.88,27.52 L106.24,51.2 L70.4,69.12 L23.04,45.44 Z" fill="none" stroke="rgb(0,0,0)" stroke-opacity="0.5" stroke-width="1"/><path d="M23.04,69.44 L70.4,93.12" fill="none" stroke="rgb(55,56,51)" stroke-width="4.48" stroke-dasharray="6.54,5.02"/><path d="M23.04,45.44 L70.4,69.12 L88.32,42.16 L40.96,18.48 Z" fill="#272927"/><path d="M23.04,45.44 L70.4,69.12 L88.32,42.16 L40.96,18.48 Z" fill="none" stroke="rgb(0,0,0)" stroke-opacity="0.3" stroke-width="4.48"/><path d="M106.24,51.2 L70.4,69.12 L88.32,42.16 Z" fill="#313431"/><path d="M106.24,51.2 L70.4,69.12 L88.32,42.16 Z" fill="none" stroke="rgb(0,0,0)" stroke-opacity="0.3" stroke-width="4.48"/></g></svg>