<svg xmlns:xlink="http://www.w3.org/1999/xlink" version="1.1" xmlns="http://www.w3.org/2000/svg" width="128" height="288"><defs/><g><g transform="translate(2,2)"><path fill="rgb(0,0,0)" stroke="none" paint-order="stroke fill markers" d=" M 62.72 231.04 L 115.2 257.28 L 65.28 282.24 L 12.799999999999997 256 Z" fill-opacity="0.20"/></g><path fill="#9a9a92" stroke="rgb(0,0,0)" paint-order="fill stroke markers" d=" M 115.2 257.28 L 65.28 282.24 L 65.28 223.36 L 115.2 198.39999999999998 Z" stroke-opacity="0.35" stroke-miterlimit="10"/><path fill="#69695f" stroke="rgb(0,0,0)" paint-order="fill stroke markers" d=" M 12.799999999999997 256 L 65.28 282.24 L 65.28 223.36 L 12.799999999999997 197.12 Z" stroke-opacity="0.35" stroke-miterlimit="10"/><path fill="#bdbdb4" stroke="rgb(0,0,0)" paint-order="fill stroke markers" d=" M 62.72 172.16 L 115.2 198.39999999999998 L 65.28 223.36 L 12.799999999999997 197.12 Z" stroke-opacity="0.35" stroke-miterlimit="10"/><path fill="rgb(110,110,101)" stroke="rgb(0,0,0)" paint-order="fill stroke markers" d=" M 72.96000000000001 186.24 L 60.160000000000004 192.64000000000001 L 60.160000000000004 91.44 L 72.96000000000001 85.03999999999999 Z" stroke-opacity="0.4" stroke-miterlimit="10"/><path fill="rgb(90,90,81)" stroke="rgb(0,0,0)" paint-order="fill stroke markers" d=" M 47.36 186.24 L 60.160000000000004 192.64000000000001 L 60.160000000000004 91.44 L 47.36 85.03999999999999 Z" stroke-opacity="0.4" stroke-miterlimit="10"/><path fill="#7d7d74" stroke="rgb(0,0,0)" paint-order="fill stroke markers" d=" M 60.16 78.63999999999999 L 72.96000000000001 85.03999999999999 L 60.160000000000004 91.44 L 47.36 85.03999999999999 Z" stroke-opacity="0.4" stroke-miterlimit="10"/><path fill="rgb(110,110,101)" stroke="rgb(0,0,0)" paint-order="fill stroke markers" d=" M 88.32 193.92000000000002 L 75.52000000000001 200.32 L 75.52000000000001 99.11999999999998 L 88.32 92.72 Z" stroke-opacity="0.4" stroke-miterlimit="10"/><path fill="rgb(90,90,81)" stroke="rgb(0,0,0)" paint-order="fill stroke markers" d=" M 62.720000000000006 193.92000000000002 L 75.52000000000001 200.32 L 75.52000000000001 99.11999999999998 L 62.720000000000006 92.72 Z" stroke-opacity="0.4" stroke-miterlimit="10"/><path fill="#7d7d74" stroke="rgb(0,0,0)" paint-order="fill stroke markers" d=" M 75.52000000000001 86.32 L 88.32 92.72 L 75.52000000000001 99.11999999999998 L 62.720000000000006 92.72 Z" stroke-opacity="0.4" stroke-miterlimit="10"/><path fill="rgb(141,75,35)" stroke="rgb(0,0,0)" paint-order="fill stroke markers" d=" M 99.84 199.04000000000002 L 93.44 202.24 L 93.44 45.84 L 99.84 42.640000000000015 Z" stroke-opacity="0.4" stroke-miterlimit="10"/><path fill="rgb(121,55,15)" stroke="rgb(0,0,0)" paint-order="fill stroke markers" d=" M 87.03999999999999 199.04000000000002 L 93.44 202.24 L 93.44 45.84 L 87.03999999999999 42.640000000000015 Z" stroke-opacity="0.4" stroke-miterlimit="10"/><path fill="#9c5a32" stroke="rgb(0,0,0)" paint-order="fill stroke markers" d=" M 93.44 39.44 L 99.84 42.640000000000015 L 93.44 45.84 L 87.03999999999999 42.640000000000015 Z" stroke-opacity="0.4" stroke-miterlimit="10"/></g></svg>