<svg xmlns="http://www.w3.org/2000/svg" xmlns:xlink="http://www.w3.org/1999/xlink" version="1.1" width="128" height="288"><defs/><g><path d="M62.16,234.32 L114.64,260.56 L69.84,282.96 L17.36,256.72 Z" fill="rgb(0,0,0)" fill-opacity="0.2"/><path d="M112.64,258.56 L67.84,280.96 L67.84,188.96 L112.64,166.56 Z" fill="#403510"/><path d="M112.64,258.56 L67.84,280.96 L67.84,188.96 L112.64,166.56 Z" fill="none" stroke="rgb(0,0,0)" stroke-opacity="0.5" stroke-width="1"/><path d="M15.36,254.72 L67.84,280.96 L67.84,188.96 L15.36,162.72 Z" fill="#261f0a"/><path d="M15.36,254.72 L67.84,280.96 L67.84,188.96 L15.36,162.72 Z" fill="none" stroke="rgb(0,0,0)" stroke-opacity="0.5" stroke-width="1"/><path d="M60.16,140.32 L112.64,166.56 L67.84,188.96 L15.36,162.72 Z" fill="#5a4a16"/><path d="M60.16,140.32 L112.64,166.56 L67.84,188.96 L15.36,162.72 Z" fill="none" stroke="rgb(0,0,0)" stroke-opacity="0.5" stroke-width="1"/><path d="M28.17,169.12 L28.17,261.12" fill="none" stroke="rgb(255,184,85)" stroke-width="2.06" stroke-dasharray="9.32,4.92"/><path d="M34.88,172.48 L34.88,264.48" fill="none" stroke="rgb(255,179,63)" stroke-width="3.9" stroke-dasharray="7.92,6.91"/><path d="M41.6,175.84 L41.6,267.84" fill="none" stroke="rgb(255,167,58)" stroke-width="4.36" stroke-dasharray="6.23,5.94"/><path d="M48.32,179.2 L48.32,271.2" fill="none" stroke="rgb(255,199,60)" stroke-width="3.84" stroke-dasharray="7.69,5.97"/><path d="M55.03,182.56 L55.03,274.56" fill="none" stroke="rgb(255,237,75)" stroke-width="3.9" stroke-dasharray="7.61,6.77"/><path d="M74.24,152.48 L57.6,160.8 L57.6,87.2 L74.24,78.88 Z" fill="#403510"/><path d="M74.24,152.48 L57.6,160.8 L57.6,87.2 L74.24,78.88 Z" fill="none" stroke="rgb(0,0,0)" stroke-opacity="0.5" stroke-width="1"/><path d="M43.52,153.76 L57.6,160.8 L57.6,87.2 L43.52,80.16 Z" fill="#261f0a"/><path d="M43.52,153.76 L57.6,160.8 L57.6,87.2 L43.52,80.16 Z" fill="none" stroke="rgb(0,0,0)" stroke-opacity="0.5" stroke-width="1"/><path d="M60.16,71.84 L74.24,78.88 L57.6,87.2 L43.52,80.16 Z" fill="#5a4a16"/><path d="M60.16,71.84 L74.24,78.88 L57.6,87.2 L43.52,80.16 Z" fill="none" stroke="rgb(0,0,0)" stroke-opacity="0.5" stroke-width="1"/><path d="M65.92,83.04 L65.92,156.64" fill="none" stroke="rgb(255,184,85)" stroke-width="2.06" stroke-dasharray="9.32,4.92"/><path d="M50.56,83.68 L50.56,157.28" fill="none" stroke="rgb(255,234,78)" stroke-width="3.03" stroke-dasharray="7.49,6.34"/><path d="M98.56,166.56 L89.6,171.04 L89.6,79.04 L98.56,74.56 Z" fill="rgb(67,33,13)"/><path d="M98.56,166.56 L89.6,171.04 L89.6,79.04 L98.56,74.56 Z" fill="none" stroke="rgb(0,0,0)" stroke-opacity="0.4" stroke-width="1"/><path d="M80.64,166.56 L89.6,171.04 L89.6,79.04 L80.64,74.56 Z" fill="rgb(47,13,0)"/><path d="M80.64,166.56 L89.6,171.04 L89.6,79.04 L80.64,74.56 Z" fill="none" stroke="rgb(0,0,0)" stroke-opacity="0.4" stroke-width="1"/><path d="M89.6,70.08 L98.56,74.56 L89.6,79.04 L80.64,74.56 Z" fill="#52301c"/><path d="M89.6,70.08 L98.56,74.56 L89.6,79.04 L80.64,74.56 Z" fill="none" stroke="rgb(0,0,0)" stroke-opacity="0.4" stroke-width="1"/></g></svg>