<svg xmlns:xlink="http://www.w3.org/1999/xlink" version="1.1" xmlns="http://www.w3.org/2000/svg" width="128" height="128"><defs/><g><g transform="translate(2,2)"><path fill="rgb(0,0,0)" stroke="none" paint-order="stroke fill markers" d=" M 61.44 75.52 L 106.24 97.92 L 67.84 117.12 L 23.04 94.72 Z" fill-opacity="0.20"/></g><path fill="#9a9a92" stroke="rgb(0,0,0)" paint-order="fill stroke markers" d=" M 106.24 97.92 L 67.84 117.12 L 67.84 73.12 L 106.24 53.92 Z" stroke-opacity="0.35" stroke-miterlimit="10"/><path fill="#69695f" stroke="rgb(0,0,0)" paint-order="fill stroke markers" d=" M 23.04 94.72 L 67.84 117.12 L 67.84 73.12 L 23.04 50.72 Z" stroke-opacity="0.35" stroke-miterlimit="10"/><path fill="#bdbdb4" stroke="rgb(0,0,0)" paint-order="fill stroke markers" d=" M 61.44 31.519999999999996 L 106.24 53.92 L 67.84 73.12 L 23.04 50.72 Z" stroke-opacity="0.35" stroke-miterlimit="10"/><path fill="rgb(110,110,101)" stroke="rgb(0,0,0)" paint-order="fill stroke markers" d=" M 70.4 41.760000000000005 L 64 44.96000000000001 L 64 30.960000000000008 L 70.4 27.760000000000005 Z" stroke-opacity="0.4" stroke-miterlimit="10"/><path fill="rgb(90,90,81)" stroke="rgb(0,0,0)" paint-order="fill stroke markers" d=" M 57.6 41.760000000000005 L 64 44.96000000000001 L 64 30.960000000000008 L 57.6 27.760000000000005 Z" stroke-opacity="0.4" stroke-miterlimit="10"/><path fill="#7d7d74" stroke="rgb(0,0,0)" paint-order="fill stroke markers" d=" M 64 24.560000000000002 L 70.4 27.760000000000005 L 64 30.960000000000008 L 57.6 27.760000000000005 Z" stroke-opacity="0.4" stroke-miterlimit="10"/><path fill="rgb(110,110,101)" stroke="rgb(0,0,0)" paint-order="fill stroke markers" d=" M 87.03999999999999 50.08 L 80.64 53.28 L 80.64 39.28 L 87.03999999999999 36.08 Z" stroke-opacity="0.4" stroke-miterlimit="10"/><path fill="rgb(90,90,81)" stroke="rgb(0,0,0)" paint-order="fill stroke markers" d=" M 74.24 50.08 L 80.64 53.28 L 80.64 39.28 L 74.24 36.08 Z" stroke-opacity="0.4" stroke-miterlimit="10"/><path fill="#7d7d74" stroke="rgb(0,0,0)" paint-order="fill stroke markers" d=" M 80.63999999999999 32.879999999999995 L 87.03999999999999 36.08 L 80.64 39.28 L 74.24 36.08 Z" stroke-opacity="0.4" stroke-miterlimit="10"/></g></svg>