<svg xmlns="http://www.w3.org/2000/svg" xmlns:xlink="http://www.w3.org/1999/xlink" version="1.1" width="128" height="224"><defs/><g><path d="M62.16,172.88 L108.24,195.92 L69.84,215.12 L23.76,192.08 Z" fill="rgb(0,0,0)" fill-opacity="0.2"/><path d="M106.24,193.92 L67.84,213.12 L67.84,147.12 L106.24,127.92 Z" fill="#9c7d1e"/><path d="M106.24,193.92 L67.84,213.12 L67.84,147.12 L106.24,127.92 Z" fill="none" stroke="rgb(0,0,0)" stroke-opacity="0.4" stroke-width="1"/><path d="M21.76,190.08 L67.84,213.12 L67.84,147.12 L21.76,124.08 Z" fill="#5e4912"/><path d="M21.76,190.08 L67.84,213.12 L67.84,147.12 L21.76,124.08 Z" fill="none" stroke="rgb(0,0,0)" stroke-opacity="0.4" stroke-width="1"/><path d="M60.16,104.88 L106.24,127.92 L67.84,147.12 L21.76,124.08 Z" fill="#c9a227"/><path d="M60.16,104.88 L106.24,127.92 L67.84,147.12 L21.76,124.08 Z" fill="none" stroke="rgb(0,0,0)" stroke-opacity="0.4" stroke-width="1"/><path d="M103.68,135.8 L96,139.64 L96,159.44 L103.68,155.6 Z" fill="#ffb238"/><path d="M90.88,142.2 L83.2,146.04 L83.2,165.84 L90.88,162 Z" fill="#ffb238"/><path d="M78.08,148.6 L70.4,152.44 L70.4,172.24 L78.08,168.4 Z" fill="#ffb238"/><path d="M103.68,168.8 L96,172.64 L96,192.44 L103.68,188.6 Z" fill="#ffb238"/><path d="M90.88,175.2 L83.2,179.04 L83.2,198.84 L90.88,195 Z" fill="#ffb238"/><path d="M78.08,181.6 L70.4,185.44 L70.4,205.24 L78.08,201.4 Z" fill="#ffb238"/><path d="M24.83,132.22 L34.05,136.82 L34.05,156.62 L24.83,152.02 Z" fill="#ffb238"/><path d="M40.19,139.9 L49.41,144.5 L49.41,164.3 L40.19,159.7 Z" fill="#ffb238"/><path d="M55.55,147.58 L64.77,152.18 L64.77,171.98 L55.55,167.38 Z" fill="#ffb238"/><path d="M24.83,165.22 L34.05,169.82 L34.05,189.62 L24.83,185.02 Z" fill="#ffb238"/><path d="M40.19,172.9 L49.41,177.5 L49.41,197.3 L40.19,192.7 Z" fill="#ffb238"/><path d="M55.55,180.58 L64.77,185.18 L64.77,204.98 L55.55,200.38 Z" fill="#ffb238"/><path d="M21.76,124.08 L44.8,135.6 L64,106 L40.96,94.48 Z" fill="#4a4d4a"/><path d="M21.76,124.08 L44.8,135.6 L64,106 L40.96,94.48 Z" fill="none" stroke="rgb(0,0,0)" stroke-opacity="0.3" stroke-width="1"/><path d="M83.2,116.4 L44.8,135.6 L64,106 Z" fill="#5e6260"/><path d="M83.2,116.4 L44.8,135.6 L64,106 Z" fill="none" stroke="rgb(0,0,0)" stroke-opacity="0.3" stroke-width="1"/><path d="M44.8,135.6 L67.84,147.12 L87.04,117.52 L64,106 Z" fill="#4a4d4a"/><path d="M44.8,135.6 L67.84,147.12 L87.04,117.52 L64,106 Z" fill="none" stroke="rgb(0,0,0)" stroke-opacity="0.3" stroke-width="1"/><path d="M106.24,127.92 L67.84,147.12 L87.04,117.52 Z" fill="#5e6260"/><path d="M106.24,127.92 L67.84,147.12 L87.04,117.52 Z" fill="none" stroke="rgb(0,0,0)" stroke-opacity="0.3" stroke-width="1"/></g></svg>