<svg xmlns:xlink="http://www.w3.org/1999/xlink" version="1.1" xmlns="http://www.w3.org/2000/svg" width="128" height="224"><defs/><g><g transform="translate(2,2)"><path fill="rgb(0,0,0)" stroke="none" paint-order="stroke fill markers" d=" M 60.16 170.88 L 106.24 193.92000000000002 L 67.84 213.12 L 21.759999999999998 190.08 Z" fill-opacity="0.20"/></g><path fill="#9a9a92" stroke="rgb(0,0,0)" paint-order="fill stroke markers" d=" M 106.24 193.92000000000002 L 67.84 213.12 L 67.84 147.12 L 106.24 127.92000000000002 Z" stroke-opacity="0.35" stroke-miterlimit="10"/><path fill="#69695f" stroke="rgb(0,0,0)" paint-order="fill stroke markers" d=" M 21.759999999999998 190.08 L 67.84 213.12 L 67.84 147.12 L 21.759999999999998 124.08000000000001 Z" stroke-opacity="0.35" stroke-miterlimit="10"/><path fill="#bdbdb4" stroke="rgb(0,0,0)" paint-order="fill stroke markers" d=" M 60.16 104.88 L 106.24 127.92000000000002 L 67.84 147.12 L 21.759999999999998 124.08000000000001 Z" stroke-opacity="0.35" stroke-miterlimit="10"/><path fill="#cdd2c8" stroke="none" paint-order="stroke fill markers" d=" M 103.67999999999999 135.8 L 96 139.64000000000001 L 96 159.44000000000003 L 103.67999999999999 155.60000000000002 Z"/><path fill="#cdd2c8" stroke="none" paint-order="stroke fill markers" d=" M 90.88 142.20000000000002 L 83.2 146.04 L 83.2 165.84 L 90.88 162.00000000000003 Z"/><path fill="#cdd2c8" stroke="none" paint-order="stroke fill markers" d=" M 78.08 148.6 L 70.4 152.44 L 70.4 172.24 L 78.08 168.4 Z"/><path fill="#cdd2c8" stroke="none" paint-order="stroke fill markers" d=" M 103.67999999999999 168.8 L 96 172.64000000000001 L 96 192.44000000000003 L 103.67999999999999 188.60000000000002 Z"/><path fill="#cdd2c8" stroke="none" paint-order="stroke fill markers" d=" M 90.88 175.20000000000002 L 83.2 179.04 L 83.2 198.84 L 90.88 195.00000000000003 Z"/><path fill="#cdd2c8" stroke="none" paint-order="stroke fill markers" d=" M 78.08 181.6 L 70.4 185.44 L 70.4 205.24 L 78.08 201.4 Z"/><path fill="#cdd2c8" stroke="none" paint-order="stroke fill markers" d=" M 24.831999999999997 132.216 L 34.048 136.824 L 34.048 156.62400000000002 L 24.831999999999997 152.01600000000002 Z"/><path fill="#cdd2c8" stroke="none" paint-order="stroke fill markers" d=" M 40.192 139.89600000000002 L 49.408 144.504 L 49.408 164.304 L 40.192 159.69600000000003 Z"/><path fill="#cdd2c8" stroke="none" paint-order="stroke fill markers" d=" M 55.55200000000001 147.576 L 64.768 152.184 L 64.768 171.984 L 55.55200000000001 167.376 Z"/><path fill="#cdd2c8" stroke="none" paint-order="stroke fill markers" d=" M 24.831999999999997 165.216 L 34.048 169.824 L 34.048 189.62400000000002 L 24.831999999999997 185.01600000000002 Z"/><path fill="#cdd2c8" stroke="none" paint-order="stroke fill markers" d=" M 40.192 172.89600000000002 L 49.408 177.504 L 49.408 197.304 L 40.192 192.69600000000003 Z"/><path fill="#cdd2c8" stroke="none" paint-order="stroke fill markers" d=" M 55.55200000000001 180.576 L 64.768 185.184 L 64.768 204.984 L 55.55200000000001 200.376 Z"/><path fill="#a8a8a0" stroke="rgb(0,0,0)" paint-order="fill stroke markers" d=" M 21.759999999999998 124.08000000000001 L 44.8 135.6 L 64 106 L 40.96 94.47999999999999 Z" stroke-opacity="0.3" stroke-miterlimit="10"/><path fill="#8a8a82" stroke="rgb(0,0,0)" paint-order="fill stroke markers" d=" M 83.2 116.4 L 44.8 135.6 L 64 106 Z" stroke-opacity="0.3" stroke-miterlimit="10"/><path fill="#a8a8a0" stroke="rgb(0,0,0)" paint-order="fill stroke markers" d=" M 44.8 135.6 L 67.84 147.12 L 87.03999999999999 117.51999999999998 L 64 106 Z" stroke-opacity="0.3" stroke-miterlimit="10"/><path fill="#8a8a82" stroke="rgb(0,0,0)" paint-order="fill stroke markers" d=" M 106.24 127.92000000000002 L 67.84 147.12 L 87.03999999999999 117.51999999999998 Z" stroke-opacity="0.3" stroke-miterlimit="10"/></g></svg>