<svg xmlns="http://www.w3.org/2000/svg" xmlns:xlink="http://www.w3.org/1999/xlink" version="1.1" width="128" height="288"><defs/><g><path d="M64.72,233.04 L117.2,259.28 L67.28,284.24 L14.8,258 Z" fill="rgb(0,0,0)" fill-opacity="0.2"/><path d="M115.2,257.28 L65.28,282.24 L65.28,190.24 L115.2,165.28 Z" fill="#9c7d1e"/><path d="M115.2,257.28 L65.28,282.24 L65.28,190.24 L115.2,165.28 Z" fill="none" stroke="rgb(0,0,0)" stroke-opacity="0.4" stroke-width="1"/><path d="M12.8,256 L65.28,282.24 L65.28,190.24 L12.8,164 Z" fill="#5e4912"/><path d="M12.8,256 L65.28,282.24 L65.28,190.24 L12.8,164 Z" fill="none" stroke="rgb(0,0,0)" stroke-opacity="0.4" stroke-width="1"/><path d="M62.72,139.04 L115.2,165.28 L65.28,190.24 L12.8,164 Z" fill="#c9a227"/><path d="M62.72,139.04 L115.2,165.28 L65.28,190.24 L12.8,164 Z" fill="none" stroke="rgb(0,0,0)" stroke-opacity="0.4" stroke-width="1"/><path d="M113.2,175.48 L107.21,178.47 L107.21,206.07 L113.2,203.08 Z" fill="#ffb238"/><path d="M103.22,180.47 L97.23,183.47 L97.23,211.07 L103.22,208.07 Z" fill="#ffb238"/><path d="M93.24,185.46 L87.24,188.46 L87.24,216.06 L93.24,213.06 Z" fill="#ffb238"/><path d="M83.25,190.45 L77.26,193.45 L77.26,221.05 L83.25,218.05 Z" fill="#ffb238"/><path d="M73.27,195.45 L67.28,198.44 L67.28,226.04 L73.27,223.05 Z" fill="#ffb238"/><path d="M113.2,221.48 L107.21,224.47 L107.21,252.07 L113.2,249.08 Z" fill="#ffb238"/><path d="M103.22,226.47 L97.23,229.47 L97.23,257.07 L103.22,254.07 Z" fill="#ffb238"/><path d="M93.24,231.46 L87.24,234.46 L87.24,262.06 L93.24,259.06 Z" fill="#ffb238"/><path d="M83.25,236.45 L77.26,239.45 L77.26,267.05 L83.25,264.05 Z" fill="#ffb238"/><path d="M73.27,241.45 L67.28,244.44 L67.28,272.04 L73.27,269.05 Z" fill="#ffb238"/><path d="M72.96,151.2 L64,155.68 L64,63.68 L72.96,59.2 Z" fill="rgb(141,75,35)"/><path d="M72.96,151.2 L64,155.68 L64,63.68 L72.96,59.2 Z" fill="none" stroke="rgb(0,0,0)" stroke-opacity="0.4" stroke-width="1"/><path d="M55.04,151.2 L64,155.68 L64,63.68 L55.04,59.2 Z" fill="rgb(121,55,15)"/><path d="M55.04,151.2 L64,155.68 L64,63.68 L55.04,59.2 Z" fill="none" stroke="rgb(0,0,0)" stroke-opacity="0.4" stroke-width="1"/><path d="M64,54.72 L72.96,59.2 L64,63.68 L55.04,59.2 Z" fill="#9c5a32"/><path d="M64,54.72 L72.96,59.2 L64,63.68 L55.04,59.2 Z" fill="none" stroke="rgb(0,0,0)" stroke-opacity="0.4" stroke-width="1"/><path d="M85.76,158.24 L78.08,162.08 L78.08,48 L85.76,44.16 Z" fill="rgb(92,95,89)"/><path d="M85.76,158.24 L78.08,162.08 L78.08,48 L85.76,44.16 Z" fill="none" stroke="rgb(0,0,0)" stroke-opacity="0.4" stroke-width="1"/><path d="M70.4,158.24 L78.08,162.08 L78.08,48 L70.4,44.16 Z" fill="rgb(72,75,69)"/><path d="M70.4,158.24 L78.08,162.08 L78.08,48 L70.4,44.16 Z" fill="none" stroke="rgb(0,0,0)" stroke-opacity="0.4" stroke-width="1"/><path d="M78.08,40.32 L85.76,44.16 L78.08,48 L70.4,44.16 Z" fill="#6b6e68"/><path d="M78.08,40.32 L85.76,44.16 L78.08,48 L70.4,44.16 Z" fill="none" stroke="rgb(0,0,0)" stroke-opacity="0.4" stroke-width="1"/><path d="M96,165.92 L88.32,169.76 L88.32,92.48 L96,88.64 Z" fill="rgb(166,91,43)"/><path d="M96,165.92 L88.32,169.76 L88.32,92.48 L96,88.64 Z" fill="none" stroke="rgb(0,0,0)" stroke-opacity="0.4" stroke-width="1"/><path d="M80.64,165.92 L88.32,169.76 L88.32,92.48 L80.64,88.64 Z" fill="rgb(146,71,23)"/><path d="M80.64,165.92 L88.32,169.76 L88.32,92.48 L80.64,88.64 Z" fill="none" stroke="rgb(0,0,0)" stroke-opacity="0.4" stroke-width="1"/><path d="M88.32,84.8 L96,88.64 L88.32,92.48 L80.64,88.64 Z" fill="#b56a3a"/><path d="M88.32,84.8 L96,88.64 L88.32,92.48 L80.64,88.64 Z" fill="none" stroke="rgb(0,0,0)" stroke-opacity="0.4" stroke-width="1"/></g></svg>