<svg xmlns="http://www.w3.org/2000/svg" xmlns:xlink="http://www.w3.org/1999/xlink" version="1.1" width="128" height="128"><defs/><g><path d="M63.44,80.08 L103.12,99.92 L67.28,117.84 L27.6,98 Z" fill="rgb(0,0,0)" fill-opacity="0.2"/><path d="M101.12,97.92 L65.28,115.84 L65.28,59.84 L101.12,41.92 Z" fill="#403510"/><path d="M101.12,97.92 L65.28,115.84 L65.28,59.84 L101.12,41.92 Z" fill="none" stroke="rgb(0,0,0)" stroke-opacity="0.5" stroke-width="1"/><path d="M25.6,96 L65.28,115.84 L65.28,59.84 L25.6,40 Z" fill="#261f0a"/><path d="M25.6,96 L65.28,115.84 L65.28,59.84 L25.6,40 Z" fill="none" stroke="rgb(0,0,0)" stroke-opacity="0.5" stroke-width="1"/><path d="M61.44,22.08 L101.12,41.92 L65.28,59.84 L25.6,40 Z" fill="#5a4a16"/><path d="M61.44,22.08 L101.12,41.92 L65.28,59.84 L25.6,40 Z" fill="none" stroke="rgb(0,0,0)" stroke-opacity="0.5" stroke-width="1"/><path d="M90.85,47.06 L90.85,103.06" fill="none" stroke="rgb(255,158,72)" stroke-width="1.89" stroke-dasharray="8.97,5.32"/><path d="M83.2,50.88 L83.2,106.88" fill="none" stroke="rgb(255,143,79)" stroke-width="2.16" stroke-dasharray="6.23,4.45"/><path d="M75.55,54.7 L75.55,110.7" fill="none" stroke="rgb(255,185,62)" stroke-width="2.65" stroke-dasharray="9.39,3.57"/><path d="M96,41.92 L88.32,45.76 L88.32,13.76 L96,9.92 Z" fill="rgb(67,33,13)"/><path d="M96,41.92 L88.32,45.76 L88.32,13.76 L96,9.92 Z" fill="none" stroke="rgb(0,0,0)" stroke-opacity="0.4" stroke-width="1"/><path d="M80.64,41.92 L88.32,45.76 L88.32,13.76 L80.64,9.92 Z" fill="rgb(47,13,0)"/><path d="M80.64,41.92 L88.32,45.76 L88.32,13.76 L80.64,9.92 Z" fill="none" stroke="rgb(0,0,0)" stroke-opacity="0.4" stroke-width="1"/><path d="M88.32,6.08 L96,9.92 L88.32,13.76 L80.64,9.92 Z" fill="#52301c"/><path d="M88.32,6.08 L96,9.92 L88.32,13.76 L80.64,9.92 Z" fill="none" stroke="rgb(0,0,0)" stroke-opacity="0.4" stroke-width="1"/></g></svg>