<svg xmlns:xlink="http://www.w3.org/1999/xlink" version="1.1" xmlns="http://www.w3.org/2000/svg" width="128" height="128"><defs/><g><g transform="translate(2,2)"><path fill="rgb(0,0,0)" stroke="none" paint-order="stroke fill markers" d=" M 61.44 78.08 L 101.12 97.92 L 65.28 115.84 L 25.599999999999994 96 Z" fill-opacity="0.20"/></g><path fill="#9a9a92" stroke="rgb(0,0,0)" paint-order="fill stroke markers" d=" M 101.12 97.92 L 65.28 115.84 L 65.28 59.84 L 101.12 41.92 Z" stroke-opacity="0.35" stroke-miterlimit="10"/><path fill="#69695f" stroke="rgb(0,0,0)" paint-order="fill stroke markers" d=" M 25.599999999999994 96 L 65.28 115.84 L 65.28 59.84 L 25.599999999999994 40 Z" stroke-opacity="0.35" stroke-miterlimit="10"/><path fill="#bdbdb4" stroke="rgb(0,0,0)" paint-order="fill stroke markers" d=" M 61.44 22.08 L 101.12 41.92 L 65.28 59.84 L 25.599999999999994 40 Z" stroke-opacity="0.35" stroke-miterlimit="10"/><path fill="#cdd2c8" stroke="none" paint-order="stroke fill markers" d=" M 98.73066666666666 54.31466666666667 L 91.56266666666667 57.89866666666667 L 91.56266666666667 91.49866666666668 L 98.73066666666666 87.91466666666668 Z"/><path fill="#cdd2c8" stroke="none" paint-order="stroke fill markers" d=" M 86.784 60.288000000000004 L 79.616 63.872 L 79.616 97.47200000000001 L 86.784 93.888 Z"/><path fill="#cdd2c8" stroke="none" paint-order="stroke fill markers" d=" M 74.83733333333333 66.26133333333334 L 67.66933333333334 69.84533333333333 L 67.66933333333334 103.44533333333334 L 74.83733333333333 99.86133333333333 Z"/><path fill="rgb(141,75,35)" stroke="rgb(0,0,0)" paint-order="fill stroke markers" d=" M 96 41.92 L 88.32 45.760000000000005 L 88.32 13.760000000000005 L 96 9.920000000000002 Z" stroke-opacity="0.4" stroke-miterlimit="10"/><path fill="rgb(121,55,15)" stroke="rgb(0,0,0)" paint-order="fill stroke markers" d=" M 80.63999999999999 41.92 L 88.32 45.760000000000005 L 88.32 13.760000000000005 L 80.63999999999999 9.920000000000002 Z" stroke-opacity="0.4" stroke-miterlimit="10"/><path fill="#9c5a32" stroke="rgb(0,0,0)" paint-order="fill stroke markers" d=" M 88.32 6.079999999999998 L 96 9.920000000000002 L 88.32 13.760000000000005 L 80.63999999999999 9.920000000000002 Z" stroke-opacity="0.4" stroke-miterlimit="10"/></g></svg>