<svg xmlns:xlink="http://www.w3.org/1999/xlink" version="1.1" xmlns="http://www.w3.org/2000/svg" width="128" height="224"><defs/><g><g transform="translate(2,2)"><path fill="rgb(0,0,0)" stroke="none" paint-order="stroke fill markers" d=" M 62.72 170.88 L 106.24 192.64 L 65.28 213.12 L 21.760000000000005 191.36 Z" fill-opacity="0.20"/></g><path fill="#9a9a92" stroke="rgb(0,0,0)" paint-order="fill stroke markers" d=" M 106.24 192.64 L 65.28 213.12 L 65.28 129.12 L 106.24 108.63999999999999 Z" stroke-opacity="0.35" stroke-miterlimit="10"/><path fill="#69695f" stroke="rgb(0,0,0)" paint-order="fill stroke markers" d=" M 21.760000000000005 191.36 L 65.28 213.12 L 65.28 129.12 L 21.760000000000005 107.36000000000001 Z" stroke-opacity="0.35" stroke-miterlimit="10"/><path fill="#bdbdb4" stroke="rgb(0,0,0)" paint-order="fill stroke markers" d=" M 62.72 86.88 L 106.24 108.63999999999999 L 65.28 129.12 L 21.760000000000005 107.36000000000001 Z" stroke-opacity="0.35" stroke-miterlimit="10"/><path fill="#cdd2c8" stroke="none" paint-order="stroke fill markers" d=" M 104.192 118.064 L 98.048 121.136 L 98.048 146.33599999999998 L 104.192 143.26399999999998 Z"/><path fill="#cdd2c8" stroke="none" paint-order="stroke fill markers" d=" M 93.952 123.184 L 87.80799999999999 126.256 L 87.80799999999999 151.456 L 93.952 148.384 Z"/><path fill="#cdd2c8" stroke="none" paint-order="stroke fill markers" d=" M 83.71199999999999 128.304 L 77.568 131.376 L 77.568 156.576 L 83.71199999999999 153.504 Z"/><path fill="#cdd2c8" stroke="none" paint-order="stroke fill markers" d=" M 73.47200000000001 133.424 L 67.328 136.496 L 67.328 161.696 L 73.47200000000001 158.624 Z"/><path fill="#cdd2c8" stroke="none" paint-order="stroke fill markers" d=" M 104.192 160.064 L 98.048 163.136 L 98.048 188.336 L 104.192 185.264 Z"/><path fill="#cdd2c8" stroke="none" paint-order="stroke fill markers" d=" M 93.952 165.184 L 87.80799999999999 168.256 L 87.80799999999999 193.45600000000002 L 93.952 190.38400000000001 Z"/><path fill="#cdd2c8" stroke="none" paint-order="stroke fill markers" d=" M 83.71199999999999 170.304 L 77.568 173.376 L 77.568 198.57600000000002 L 83.71199999999999 195.50400000000002 Z"/><path fill="#cdd2c8" stroke="none" paint-order="stroke fill markers" d=" M 73.47200000000001 175.424 L 67.328 178.496 L 67.328 203.69600000000003 L 73.47200000000001 200.62400000000002 Z"/><path fill="rgb(141,75,35)" stroke="rgb(0,0,0)" paint-order="fill stroke markers" d=" M 101.12 109.28 L 92.16 113.75999999999999 L 92.16 29.75999999999999 L 101.12 25.28 Z" stroke-opacity="0.4" stroke-miterlimit="10"/><path fill="rgb(121,55,15)" stroke="rgb(0,0,0)" paint-order="fill stroke markers" d=" M 83.19999999999999 109.28 L 92.16 113.75999999999999 L 92.16 29.75999999999999 L 83.19999999999999 25.28 Z" stroke-opacity="0.4" stroke-miterlimit="10"/><path fill="#9c5a32" stroke="rgb(0,0,0)" paint-order="fill stroke markers" d=" M 92.16 20.80000000000001 L 101.12 25.28 L 92.16 29.75999999999999 L 83.19999999999999 25.28 Z" stroke-opacity="0.4" stroke-miterlimit="10"/><path fill="rgb(166,91,43)" stroke="rgb(0,0,0)" paint-order="fill stroke markers" d=" M 101.75999999999999 67.28 L 92.16 72.07999999999998 L 92.16 68.07999999999998 L 101.75999999999999 63.28 Z" stroke-opacity="0.4" stroke-miterlimit="10"/><path fill="rgb(146,71,23)" stroke="rgb(0,0,0)" paint-order="fill stroke markers" d=" M 82.56 67.28 L 92.16 72.07999999999998 L 92.16 68.07999999999998 L 82.56 63.28 Z" stroke-opacity="0.4" stroke-miterlimit="10"/><path fill="#b56a3a" stroke="rgb(0,0,0)" paint-order="fill stroke markers" d=" M 92.16 58.47999999999999 L 101.75999999999999 63.28 L 92.16 68.07999999999998 L 82.56 63.28 Z" stroke-opacity="0.4" stroke-miterlimit="10"/></g></svg>