<svg xmlns:xlink="http://www.w3.org/1999/xlink" version="1.1" xmlns="http://www.w3.org/2000/svg" width="128" height="288"><defs/><g><g transform="translate(2,2)"><path fill="rgb(0,0,0)" stroke="none" paint-order="stroke fill markers" d=" M 64 232.96 L 112.64 257.28 L 64 281.6 L 15.36 257.28 Z" fill-opacity="0.20"/></g><path fill="#a85f3e" stroke="rgb(0,0,0)" paint-order="fill stroke markers" d=" M 112.64 257.28 L 64 281.6 L 64 97.60000000000002 L 112.64 73.27999999999997 Z" stroke-opacity="0.35" stroke-miterlimit="10"/><path fill="#76402a" stroke="rgb(0,0,0)" paint-order="fill stroke markers" d=" M 15.36 257.28 L 64 281.6 L 64 97.60000000000002 L 15.36 73.27999999999997 Z" stroke-opacity="0.35" stroke-miterlimit="10"/><path fill="#c47a52" stroke="rgb(0,0,0)" paint-order="fill stroke markers" d=" M 64 48.96000000000001 L 112.64 73.27999999999997 L 64 97.60000000000002 L 15.36 73.27999999999997 Z" stroke-opacity="0.35" stroke-miterlimit="10"/><path fill="#ffe6a8" stroke="none" paint-order="stroke fill markers" d=" M 109.39733333333334 82.26133333333331 L 99.66933333333333 87.12533333333332 L 99.66933333333333 109.20533333333331 L 109.39733333333334 104.34133333333331 Z"/><path fill="#ffe6a8" stroke="none" paint-order="stroke fill markers" d=" M 93.184 90.368 L 83.456 95.232 L 83.456 117.312 L 93.184 112.448 Z"/><path fill="#ffe6a8" stroke="none" paint-order="stroke fill markers" d=" M 76.97066666666666 98.47466666666668 L 67.24266666666668 103.33866666666668 L 67.24266666666668 125.41866666666668 L 76.97066666666666 120.55466666666668 Z"/><path fill="#ffe6a8" stroke="none" paint-order="stroke fill markers" d=" M 109.39733333333334 119.06133333333331 L 99.66933333333333 123.92533333333331 L 99.66933333333333 146.0053333333333 L 109.39733333333334 141.1413333333333 Z"/><path fill="#ffe6a8" stroke="none" paint-order="stroke fill markers" d=" M 93.184 127.16799999999999 L 83.456 132.03199999999998 L 83.456 154.112 L 93.184 149.248 Z"/><path fill="#ffe6a8" stroke="none" paint-order="stroke fill markers" d=" M 76.97066666666666 135.2746666666667 L 67.24266666666668 140.13866666666667 L 67.24266666666668 162.21866666666668 L 76.97066666666666 157.35466666666667 Z"/><path fill="#ffe6a8" stroke="none" paint-order="stroke fill markers" d=" M 109.39733333333334 155.86133333333333 L 99.66933333333333 160.7253333333333 L 99.66933333333333 182.8053333333333 L 109.39733333333334 177.94133333333332 Z"/><path fill="#ffe6a8" stroke="none" paint-order="stroke fill markers" d=" M 93.184 163.96800000000002 L 83.456 168.832 L 83.456 190.91199999999998 L 93.184 186.048 Z"/><path fill="#ffe6a8" stroke="none" paint-order="stroke fill markers" d=" M 76.97066666666666 172.0746666666667 L 67.24266666666668 176.93866666666668 L 67.24266666666668 199.01866666666666 L 76.97066666666666 194.15466666666669 Z"/><path fill="#ffe6a8" stroke="none" paint-order="stroke fill markers" d=" M 109.39733333333334 192.66133333333332 L 99.66933333333333 197.52533333333332 L 99.66933333333333 219.6053333333333 L 109.39733333333334 214.74133333333333 Z"/><path fill="#ffe6a8" stroke="none" paint-order="stroke fill markers" d=" M 93.184 200.768 L 83.456 205.632 L 83.456 227.712 L 93.184 222.848 Z"/><path fill="#ffe6a8" stroke="none" paint-order="stroke fill markers" d=" M 76.97066666666666 208.87466666666668 L 67.24266666666668 213.7386666666667 L 67.24266666666668 235.81866666666667 L 76.97066666666666 230.9546666666667 Z"/><path fill="#ffe6a8" stroke="none" paint-order="stroke fill markers" d=" M 109.39733333333334 229.4613333333333 L 99.66933333333333 234.32533333333333 L 99.66933333333333 256.4053333333333 L 109.39733333333334 251.54133333333328 Z"/><path fill="#ffe6a8" stroke="none" paint-order="stroke fill markers" d=" M 93.184 237.56799999999998 L 83.456 242.43200000000002 L 83.456 264.512 L 93.184 259.64799999999997 Z"/><path fill="#ffe6a8" stroke="none" paint-order="stroke fill markers" d=" M 76.97066666666666 245.67466666666667 L 67.24266666666668 250.5386666666667 L 67.24266666666668 272.6186666666667 L 76.97066666666666 267.75466666666665 Z"/><path fill="#ffe6a8" stroke="none" paint-order="stroke fill markers" d=" M 18.602666666666664 82.26133333333331 L 28.330666666666666 87.12533333333332 L 28.330666666666666 109.20533333333331 L 18.602666666666664 104.34133333333331 Z"/><path fill="#ffe6a8" stroke="none" paint-order="stroke fill markers" d=" M 34.816 90.368 L 44.544 95.232 L 44.544 117.312 L 34.816 112.448 Z"/><path fill="#ffe6a8" stroke="none" paint-order="stroke fill markers" d=" M 51.029333333333334 98.47466666666668 L 60.75733333333333 103.33866666666668 L 60.75733333333333 125.41866666666668 L 51.029333333333334 120.55466666666668 Z"/><path fill="#ffe6a8" stroke="none" paint-order="stroke fill markers" d=" M 18.602666666666664 119.06133333333331 L 28.330666666666666 123.92533333333331 L 28.330666666666666 146.0053333333333 L 18.602666666666664 141.1413333333333 Z"/><path fill="#ffe6a8" stroke="none" paint-order="stroke fill markers" d=" M 34.816 127.16799999999999 L 44.544 132.03199999999998 L 44.544 154.112 L 34.816 149.248 Z"/><path fill="#ffe6a8" stroke="none" paint-order="stroke fill markers" d=" M 51.029333333333334 135.2746666666667 L 60.75733333333333 140.13866666666667 L 60.75733333333333 162.21866666666668 L 51.029333333333334 157.35466666666667 Z"/><path fill="#ffe6a8" stroke="none" paint-order="stroke fill markers" d=" M 18.602666666666664 155.86133333333333 L 28.330666666666666 160.7253333333333 L 28.330666666666666 182.8053333333333 L 18.602666666666664 177.94133333333332 Z"/><path fill="#ffe6a8" stroke="none" paint-order="stroke fill markers" d=" M 34.816 163.96800000000002 L 44.544 168.832 L 44.544 190.91199999999998 L 34.816 186.048 Z"/><path fill="#ffe6a8" stroke="none" paint-order="stroke fill markers" d=" M 51.029333333333334 172.0746666666667 L 60.75733333333333 176.93866666666668 L 60.75733333333333 199.01866666666666 L 51.029333333333334 194.15466666666669 Z"/><path fill="#ffe6a8" stroke="none" paint-order="stroke fill markers" d=" M 18.602666666666664 192.66133333333332 L 28.330666666666666 197.52533333333332 L 28.330666666666666 219.6053333333333 L 18.602666666666664 214.74133333333333 Z"/><path fill="#ffe6a8" stroke="none" paint-order="stroke fill markers" d=" M 34.816 200.768 L 44.544 205.632 L 44.544 227.712 L 34.816 222.848 Z"/><path fill="#ffe6a8" stroke="none" paint-order="stroke fill markers" d=" M 51.029333333333334 208.87466666666668 L 60.75733333333333 213.7386666666667 L 60.75733333333333 235.81866666666667 L 51.029333333333334 230.9546666666667 Z"/><path fill="#ffe6a8" stroke="none" paint-order="stroke fill markers" d=" M 18.602666666666664 229.4613333333333 L 28.330666666666666 234.32533333333333 L 28.330666666666666 256.4053333333333 L 18.602666666666664 251.54133333333328 Z"/><path fill="#ffe6a8" stroke="none" paint-order="stroke fill markers" d=" M 34.816 237.56799999999998 L 44.544 242.43200000000002 L 44.544 264.512 L 34.816 259.64799999999997 Z"/><path fill="#ffe6a8" stroke="none" paint-order="stroke fill markers" d=" M 51.029333333333334 245.67466666666667 L 60.75733333333333 250.5386666666667 L 60.75733333333333 272.6186666666667 L 51.029333333333334 267.75466666666665 Z"/><path fill="none" stroke="#bbb" paint-order="fill stroke markers" d=" M 64 72 L 64 48" stroke-miterlimit="10" stroke-width="2"/><path fill="#ff5b3b" stroke="none" paint-order="stroke fill markers" d=" M 67.2 48 A 3.2 3.2 0 1 1 67.19999840000014 47.996800000533334"/></g></svg>