<svg xmlns:xlink="http://www.w3.org/1999/xlink" version="1.1" xmlns="http://www.w3.org/2000/svg" width="128" height="128"><defs/><g><g transform="translate(2,2)"><path fill="rgb(0,0,0)" stroke="none" paint-order="stroke fill markers" d=" M 64 80.64 L 97.28 97.28 L 64 113.92 L 30.72 97.28 Z" fill-opacity="0.20"/></g><path fill="#a85f3e" stroke="rgb(0,0,0)" paint-order="fill stroke markers" d=" M 97.28 97.28 L 64 113.92 L 64 69.92 L 97.28 53.28 Z" stroke-opacity="0.35" stroke-miterlimit="10"/><path fill="#76402a" stroke="rgb(0,0,0)" paint-order="fill stroke markers" d=" M 30.72 97.28 L 64 113.92 L 64 69.92 L 30.72 53.28 Z" stroke-opacity="0.35" stroke-miterlimit="10"/><path fill="#c47a52" stroke="rgb(0,0,0)" paint-order="fill stroke markers" d=" M 64 36.64 L 97.28 53.28 L 64 69.92 L 30.72 53.28 Z" stroke-opacity="0.35" stroke-miterlimit="10"/><path fill="#ffe6a8" stroke="none" paint-order="stroke fill markers" d=" M 93.952 63.744 L 83.968 68.736 L 83.968 95.13600000000001 L 93.952 90.144 Z"/><path fill="#ffe6a8" stroke="none" paint-order="stroke fill markers" d=" M 77.312 72.06400000000001 L 67.328 77.056 L 67.328 103.456 L 77.312 98.464 Z"/><path fill="#4f2c1b" stroke="none" paint-order="stroke fill markers" d=" M 42.0352 73.89760000000001 L 52.684799999999996 79.2224 L 52.684799999999996 93.30239999999999 L 42.0352 87.9776 Z"/><path fill="#8f3b30" stroke="rgb(0,0,0)" paint-order="fill stroke markers" d=" M 30.72 53.28 L 64 69.92 L 80.64 31.599999999999994 L 47.36 14.960000000000008 Z" stroke-opacity="0.3" stroke-miterlimit="10"/><path fill="#a8534a" stroke="rgb(0,0,0)" paint-order="fill stroke markers" d=" M 97.28 53.28 L 64 69.92 L 80.64 31.599999999999994 Z" stroke-opacity="0.3" stroke-miterlimit="10"/></g></svg>