<svg xmlns="http://www.w3.org/2000/svg" xmlns:xlink="http://www.w3.org/1999/xlink" version="1.1" width="128" height="288"><defs/><g><path d="M66,232.4 L118.48,258.64 L66,284.88 L13.52,258.64 Z" fill="rgb(0,0,0)" fill-opacity="0.2"/><path d="M116.48,256.64 L64,282.88 L64,230.88 L116.48,204.64 Z" fill="#7c8a78"/><path d="M116.48,256.64 L64,282.88 L64,230.88 L116.48,204.64 Z" fill="none" stroke="rgb(0,12,4)" stroke-opacity="0.35" stroke-width="1"/><path d="M11.52,256.64 L64,282.88 L64,230.88 L11.52,204.64 Z" fill="#4f5c4c"/><path d="M11.52,256.64 L64,282.88 L64,230.88 L11.52,204.64 Z" fill="none" stroke="rgb(0,12,4)" stroke-opacity="0.35" stroke-width="1"/><path d="M64,178.4 L116.48,204.64 L64,230.88 L11.52,204.64 Z" fill="#9aa893"/><path d="M64,178.4 L116.48,204.64 L64,230.88 L11.52,204.64 Z" fill="none" stroke="rgb(0,12,4)" stroke-opacity="0.35" stroke-width="1"/><path d="M113.86,216.35 L105.98,220.29 L105.98,251.49 L113.86,247.55 Z" fill="#ffdf9e"/><path d="M100.74,222.91 L92.86,226.85 L92.86,258.05 L100.74,254.11 Z" fill="#ffdf9e"/><path d="M87.62,229.47 L79.74,233.41 L79.74,264.61 L87.62,260.67 Z" fill="#ffdf9e"/><path d="M74.5,236.03 L66.62,239.97 L66.62,271.17 L74.5,267.23 Z" fill="#ffdf9e"/><path d="M14.14,216.35 L22.02,220.29 L22.02,251.49 L14.14,247.55 Z" fill="#ffdf9e"/><path d="M27.26,222.91 L35.14,226.85 L35.14,258.05 L27.26,254.11 Z" fill="#ffdf9e"/><path d="M40.38,229.47 L48.26,233.41 L48.26,264.61 L40.38,260.67 Z" fill="#ffdf9e"/><path d="M53.5,236.03 L61.38,239.97 L61.38,271.17 L53.5,267.23 Z" fill="#ffdf9e"/><path d="M101.12,204.64 L64,223.2 L64,91.2 L101.12,72.64 Z" fill="#7c8a78"/><path d="M101.12,204.64 L64,223.2 L64,91.2 L101.12,72.64 Z" fill="none" stroke="rgb(0,12,4)" stroke-opacity="0.35" stroke-width="1"/><path d="M26.88,204.64 L64,223.2 L64,91.2 L26.88,72.64 Z" fill="#4f5c4c"/><path d="M26.88,204.64 L64,223.2 L64,91.2 L26.88,72.64 Z" fill="none" stroke="rgb(0,12,4)" stroke-opacity="0.35" stroke-width="1"/><path d="M64,54.08 L101.12,72.64 L64,91.2 L26.88,72.64 Z" fill="#9aa893"/><path d="M64,54.08 L101.12,72.64 L64,91.2 L26.88,72.64 Z" fill="none" stroke="rgb(0,12,4)" stroke-opacity="0.35" stroke-width="1"/><path d="M98.65,80.48 L91.22,84.19 L91.22,103.99 L98.65,100.28 Z" fill="#ffdf9e"/><path d="M86.27,86.66 L78.85,90.38 L78.85,110.18 L86.27,106.46 Z" fill="#ffdf9e"/><path d="M73.9,92.85 L66.47,96.56 L66.47,116.36 L73.9,112.65 Z" fill="#ffdf9e"/><path d="M98.65,113.48 L91.22,117.19 L91.22,136.99 L98.65,133.28 Z" fill="#ffdf9e"/><path d="M86.27,119.66 L78.85,123.38 L78.85,143.18 L86.27,139.46 Z" fill="#ffdf9e"/><path d="M73.9,125.85 L66.47,129.56 L66.47,149.36 L73.9,145.65 Z" fill="#ffdf9e"/><path d="M98.65,146.48 L91.22,150.19 L91.22,169.99 L98.65,166.28 Z" fill="#ffdf9e"/><path d="M86.27,152.66 L78.85,156.38 L78.85,176.18 L86.27,172.46 Z" fill="#ffdf9e"/><path d="M73.9,158.85 L66.47,162.56 L66.47,182.36 L73.9,178.65 Z" fill="#ffdf9e"/><path d="M98.65,179.48 L91.22,183.19 L91.22,202.99 L98.65,199.28 Z" fill="#ffdf9e"/><path d="M86.27,185.66 L78.85,189.38 L78.85,209.18 L86.27,205.46 Z" fill="#ffdf9e"/><path d="M73.9,191.85 L66.47,195.56 L66.47,215.36 L73.9,211.65 Z" fill="#ffdf9e"/><path d="M29.35,80.48 L36.78,84.19 L36.78,103.99 L29.35,100.28 Z" fill="#ffdf9e"/><path d="M41.73,86.66 L49.15,90.38 L49.15,110.18 L41.73,106.46 Z" fill="#ffdf9e"/><path d="M54.1,92.85 L61.53,96.56 L61.53,116.36 L54.1,112.65 Z" fill="#ffdf9e"/><path d="M29.35,113.48 L36.78,117.19 L36.78,136.99 L29.35,133.28 Z" fill="#ffdf9e"/><path d="M41.73,119.66 L49.15,123.38 L49.15,143.18 L41.73,139.46 Z" fill="#ffdf9e"/><path d="M54.1,125.85 L61.53,129.56 L61.53,149.36 L54.1,145.65 Z" fill="#ffdf9e"/><path d="M29.35,146.48 L36.78,150.19 L36.78,169.99 L29.35,166.28 Z" fill="#ffdf9e"/><path d="M41.73,152.66 L49.15,156.38 L49.15,176.18 L41.73,172.46 Z" fill="#ffdf9e"/><path d="M54.1,158.85 L61.53,162.56 L61.53,182.36 L54.1,178.65 Z" fill="#ffdf9e"/><path d="M29.35,179.48 L36.78,183.19 L36.78,202.99 L29.35,199.28 Z" fill="#ffdf9e"/><path d="M41.73,185.66 L49.15,189.38 L49.15,209.18 L41.73,205.46 Z" fill="#ffdf9e"/><path d="M54.1,191.85 L61.53,195.56 L61.53,215.36 L54.1,211.65 Z" fill="#ffdf9e"/></g></svg>