<svg xmlns="http://www.w3.org/2000/svg" xmlns:xlink="http://www.w3.org/1999/xlink" version="1.1" width="128" height="288"><defs/><g><path d="M66,234.96 L114.64,259.28 L66,283.6 L17.36,259.28 Z" fill="rgb(0,0,0)" fill-opacity="0.2"/><path d="M112.64,257.28 L64,281.6 L64,97.6 L112.64,73.28 Z" fill="#7c8a78"/><path d="M112.64,257.28 L64,281.6 L64,97.6 L112.64,73.28 Z" fill="none" stroke="rgb(0,12,4)" stroke-opacity="0.35" stroke-width="1"/><path d="M15.36,257.28 L64,281.6 L64,97.6 L15.36,73.28 Z" fill="#4f5c4c"/><path d="M15.36,257.28 L64,281.6 L64,97.6 L15.36,73.28 Z" fill="none" stroke="rgb(0,12,4)" stroke-opacity="0.35" stroke-width="1"/><path d="M64,48.96 L112.64,73.28 L64,97.6 L15.36,73.28 Z" fill="#9aa893"/><path d="M64,48.96 L112.64,73.28 L64,97.6 L15.36,73.28 Z" fill="none" stroke="rgb(0,12,4)" stroke-opacity="0.35" stroke-width="1"/><path d="M109.4,82.26 L99.67,87.13 L99.67,109.21 L109.4,104.34 Z" fill="#ffdf9e"/><path d="M93.18,90.37 L83.46,95.23 L83.46,117.31 L93.18,112.45 Z" fill="#ffdf9e"/><path d="M76.97,98.47 L67.24,103.34 L67.24,125.42 L76.97,120.55 Z" fill="#ffdf9e"/><path d="M109.4,119.06 L99.67,123.93 L99.67,146.01 L109.4,141.14 Z" fill="#ffdf9e"/><path d="M93.18,127.17 L83.46,132.03 L83.46,154.11 L93.18,149.25 Z" fill="#ffdf9e"/><path d="M76.97,135.27 L67.24,140.14 L67.24,162.22 L76.97,157.35 Z" fill="#ffdf9e"/><path d="M109.4,155.86 L99.67,160.73 L99.67,182.81 L109.4,177.94 Z" fill="#ffdf9e"/><path d="M93.18,163.97 L83.46,168.83 L83.46,190.91 L93.18,186.05 Z" fill="#ffdf9e"/><path d="M76.97,172.07 L67.24,176.94 L67.24,199.02 L76.97,194.15 Z" fill="#ffdf9e"/><path d="M109.4,192.66 L99.67,197.53 L99.67,219.61 L109.4,214.74 Z" fill="#ffdf9e"/><path d="M93.18,200.77 L83.46,205.63 L83.46,227.71 L93.18,222.85 Z" fill="#ffdf9e"/><path d="M76.97,208.87 L67.24,213.74 L67.24,235.82 L76.97,230.95 Z" fill="#ffdf9e"/><path d="M109.4,229.46 L99.67,234.33 L99.67,256.41 L109.4,251.54 Z" fill="#ffdf9e"/><path d="M93.18,237.57 L83.46,242.43 L83.46,264.51 L93.18,259.65 Z" fill="#ffdf9e"/><path d="M76.97,245.67 L67.24,250.54 L67.24,272.62 L76.97,267.75 Z" fill="#ffdf9e"/><path d="M18.6,82.26 L28.33,87.13 L28.33,109.21 L18.6,104.34 Z" fill="#ffdf9e"/><path d="M34.82,90.37 L44.54,95.23 L44.54,117.31 L34.82,112.45 Z" fill="#ffdf9e"/><path d="M51.03,98.47 L60.76,103.34 L60.76,125.42 L51.03,120.55 Z" fill="#ffdf9e"/><path d="M18.6,119.06 L28.33,123.93 L28.33,146.01 L18.6,141.14 Z" fill="#ffdf9e"/><path d="M34.82,127.17 L44.54,132.03 L44.54,154.11 L34.82,149.25 Z" fill="#ffdf9e"/><path d="M51.03,135.27 L60.76,140.14 L60.76,162.22 L51.03,157.35 Z" fill="#ffdf9e"/><path d="M18.6,155.86 L28.33,160.73 L28.33,182.81 L18.6,177.94 Z" fill="#ffdf9e"/><path d="M34.82,163.97 L44.54,168.83 L44.54,190.91 L34.82,186.05 Z" fill="#ffdf9e"/><path d="M51.03,172.07 L60.76,176.94 L60.76,199.02 L51.03,194.15 Z" fill="#ffdf9e"/><path d="M18.6,192.66 L28.33,197.53 L28.33,219.61 L18.6,214.74 Z" fill="#ffdf9e"/><path d="M34.82,200.77 L44.54,205.63 L44.54,227.71 L34.82,222.85 Z" fill="#ffdf9e"/><path d="M51.03,208.87 L60.76,213.74 L60.76,235.82 L51.03,230.95 Z" fill="#ffdf9e"/><path d="M18.6,229.46 L28.33,234.33 L28.33,256.41 L18.6,251.54 Z" fill="#ffdf9e"/><path d="M34.82,237.57 L44.54,242.43 L44.54,264.51 L34.82,259.65 Z" fill="#ffdf9e"/><path d="M51.03,245.67 L60.76,250.54 L60.76,272.62 L51.03,267.75 Z" fill="#ffdf9e"/><path d="M64,72 L64,48" fill="none" stroke="#bbb" stroke-width="2"/><circle cx="64" cy="48" r="3.2" fill="#ff5b3b"/><path d="" fill="#ff5b3b"/></g></svg>