<svg xmlns:xlink="http://www.w3.org/1999/xlink" version="1.1" xmlns="http://www.w3.org/2000/svg" width="128" height="128"><defs/><g><g transform="translate(2,2)"><path fill="rgb(0,0,0)" stroke="none" paint-order="stroke fill markers" d=" M 64 79.36 L 99.84 97.28 L 64 115.2 L 28.159999999999997 97.28 Z" fill-opacity="0.20"/></g><path fill="#a85f3e" stroke="rgb(0,0,0)" paint-order="fill stroke markers" d=" M 99.84 97.28 L 64 115.2 L 64 77.2 L 99.84 59.28 Z" stroke-opacity="0.35" stroke-miterlimit="10"/><path fill="#76402a" stroke="rgb(0,0,0)" paint-order="fill stroke markers" d=" M 28.159999999999997 97.28 L 64 115.2 L 64 77.2 L 28.159999999999997 59.28 Z" stroke-opacity="0.35" stroke-miterlimit="10"/><path fill="#c47a52" stroke="rgb(0,0,0)" paint-order="fill stroke markers" d=" M 64 41.36 L 99.84 59.28 L 64 77.2 L 28.159999999999997 59.28 Z" stroke-opacity="0.35" stroke-miterlimit="10"/><path fill="#ffe6a8" stroke="none" paint-order="stroke fill markers" d=" M 96.256 68.672 L 85.504 74.048 L 85.504 96.84800000000001 L 96.256 91.47200000000001 Z"/><path fill="#ffe6a8" stroke="none" paint-order="stroke fill markers" d=" M 78.336 77.63199999999999 L 67.584 83.008 L 67.584 105.808 L 78.336 100.432 Z"/><path fill="#ffe6a8" stroke="none" paint-order="stroke fill markers" d=" M 31.743999999999996 68.672 L 42.495999999999995 74.048 L 42.495999999999995 96.84800000000001 L 31.743999999999996 91.47200000000001 Z"/><path fill="#ffe6a8" stroke="none" paint-order="stroke fill markers" d=" M 49.664 77.63199999999999 L 60.416000000000004 83.008 L 60.416000000000004 105.808 L 49.664 100.432 Z"/><path fill="#a8534a" stroke="rgb(0,0,0)" paint-order="fill stroke markers" d=" M 99.84 59.28 L 64 77.2 L 64 27.28 Z" stroke-opacity="0.3" stroke-miterlimit="10"/><path fill="#8f3b30" stroke="rgb(0,0,0)" paint-order="fill stroke markers" d=" M 28.159999999999997 59.28 L 64 77.2 L 64 27.28 Z" stroke-opacity="0.3" stroke-miterlimit="10"/><path fill="rgb(103,49,27)" stroke="rgb(0,0,0)" paint-order="fill stroke markers" d=" M 92.16 32 L 84.47999999999999 35.84 L 84.47999999999999 17.840000000000003 L 92.16 14 Z" stroke-opacity="0.4" stroke-miterlimit="10"/><path fill="rgb(83,29,7)" stroke="rgb(0,0,0)" paint-order="fill stroke markers" d=" M 76.80000000000001 32 L 84.47999999999999 35.84 L 84.47999999999999 17.840000000000003 L 76.80000000000001 14 Z" stroke-opacity="0.4" stroke-miterlimit="10"/><path fill="#76402a" stroke="rgb(0,0,0)" paint-order="fill stroke markers" d=" M 84.48 10.159999999999997 L 92.16 14 L 84.47999999999999 17.840000000000003 L 76.80000000000001 14 Z" stroke-opacity="0.4" stroke-miterlimit="10"/></g></svg>