<svg xmlns="http://www.w3.org/2000/svg" xmlns:xlink="http://www.w3.org/1999/xlink" version="1.1" width="128" height="224"><defs/><g><path d="M66,181.2 L92.88,194.64 L66,208.08 L39.12,194.64 Z" fill="rgb(0,0,0)" fill-opacity="0.2"/><path d="M90.88,192.64 L64,206.08 L64,86.08 L90.88,72.64 Z" fill="#7c8a78"/><path d="M90.88,192.64 L64,206.08 L64,86.08 L90.88,72.64 Z" fill="none" stroke="rgb(0,12,4)" stroke-opacity="0.35" stroke-width="1"/><path d="M37.12,192.64 L64,206.08 L64,86.08 L37.12,72.64 Z" fill="#4f5c4c"/><path d="M37.12,192.64 L64,206.08 L64,86.08 L37.12,72.64 Z" fill="none" stroke="rgb(0,12,4)" stroke-opacity="0.35" stroke-width="1"/><path d="M64,59.2 L90.88,72.64 L64,86.08 L37.12,72.64 Z" fill="#9aa893"/><path d="M64,59.2 L90.88,72.64 L64,86.08 L37.12,72.64 Z" fill="none" stroke="rgb(0,12,4)" stroke-opacity="0.35" stroke-width="1"/><path d="M88.19,81.98 L80.13,86.02 L80.13,110.02 L88.19,105.98 Z" fill="#ffdf9e"/><path d="M74.75,88.7 L66.69,92.74 L66.69,116.74 L74.75,112.7 Z" fill="#ffdf9e"/><path d="M88.19,121.98 L80.13,126.02 L80.13,150.02 L88.19,145.98 Z" fill="#ffdf9e"/><path d="M74.75,128.7 L66.69,132.74 L66.69,156.74 L74.75,152.7 Z" fill="#ffdf9e"/><path d="M88.19,161.98 L80.13,166.02 L80.13,190.02 L88.19,185.98 Z" fill="#ffdf9e"/><path d="M74.75,168.7 L66.69,172.74 L66.69,196.74 L74.75,192.7 Z" fill="#ffdf9e"/><path d="M39.81,81.98 L47.87,86.02 L47.87,110.02 L39.81,105.98 Z" fill="#ffdf9e"/><path d="M53.25,88.7 L61.31,92.74 L61.31,116.74 L53.25,112.7 Z" fill="#ffdf9e"/><path d="M39.81,121.98 L47.87,126.02 L47.87,150.02 L39.81,145.98 Z" fill="#ffdf9e"/><path d="M53.25,128.7 L61.31,132.74 L61.31,156.74 L53.25,152.7 Z" fill="#ffdf9e"/><path d="M39.81,161.98 L47.87,166.02 L47.87,190.02 L39.81,185.98 Z" fill="#ffdf9e"/><path d="M53.25,168.7 L61.31,172.74 L61.31,196.74 L53.25,192.7 Z" fill="#ffdf9e"/></g></svg>