<svg xmlns:xlink="http://www.w3.org/1999/xlink" version="1.1" xmlns="http://www.w3.org/2000/svg" width="128" height="224"><defs/><g><g transform="translate(2,2)"><path fill="rgb(0,0,0)" stroke="none" paint-order="stroke fill markers" d=" M 62.72 170.88 L 106.24 192.64 L 65.28 213.12 L 21.760000000000005 191.36 Z" fill-opacity="0.20"/></g><path fill="#a85f3e" stroke="rgb(0,0,0)" paint-order="fill stroke markers" d=" M 106.24 192.64 L 65.28 213.12 L 65.28 111.12 L 106.24 90.63999999999999 Z" stroke-opacity="0.35" stroke-miterlimit="10"/><path fill="#76402a" stroke="rgb(0,0,0)" paint-order="fill stroke markers" d=" M 21.760000000000005 191.36 L 65.28 213.12 L 65.28 111.12 L 21.760000000000005 89.36000000000001 Z" stroke-opacity="0.35" stroke-miterlimit="10"/><path fill="#c47a52" stroke="rgb(0,0,0)" paint-order="fill stroke markers" d=" M 62.72 68.88 L 106.24 90.63999999999999 L 65.28 111.12 L 21.760000000000005 89.36000000000001 Z" stroke-opacity="0.35" stroke-miterlimit="10"/><path fill="#ffe6a8" stroke="none" paint-order="stroke fill markers" d=" M 103.50933333333333 98.80533333333332 L 95.31733333333332 102.90133333333333 L 95.31733333333332 123.30133333333333 L 103.50933333333333 119.20533333333333 Z"/><path fill="#ffe6a8" stroke="none" paint-order="stroke fill markers" d=" M 89.856 105.63199999999999 L 81.664 109.728 L 81.664 130.128 L 89.856 126.032 Z"/><path fill="#ffe6a8" stroke="none" paint-order="stroke fill markers" d=" M 76.20266666666666 112.45866666666666 L 68.01066666666668 116.55466666666666 L 68.01066666666668 136.95466666666667 L 76.20266666666666 132.85866666666666 Z"/><path fill="#ffe6a8" stroke="none" paint-order="stroke fill markers" d=" M 103.50933333333333 132.80533333333332 L 95.31733333333332 136.90133333333333 L 95.31733333333332 157.30133333333333 L 103.50933333333333 153.20533333333333 Z"/><path fill="#ffe6a8" stroke="none" paint-order="stroke fill markers" d=" M 89.856 139.632 L 81.664 143.728 L 81.664 164.128 L 89.856 160.03199999999998 Z"/><path fill="#ffe6a8" stroke="none" paint-order="stroke fill markers" d=" M 76.20266666666666 146.45866666666666 L 68.01066666666668 150.55466666666666 L 68.01066666666668 170.95466666666667 L 76.20266666666666 166.85866666666666 Z"/><path fill="#ffe6a8" stroke="none" paint-order="stroke fill markers" d=" M 103.50933333333333 166.80533333333332 L 95.31733333333332 170.90133333333333 L 95.31733333333332 191.3013333333333 L 103.50933333333333 187.2053333333333 Z"/><path fill="#ffe6a8" stroke="none" paint-order="stroke fill markers" d=" M 89.856 173.632 L 81.664 177.728 L 81.664 198.128 L 89.856 194.03199999999998 Z"/><path fill="#ffe6a8" stroke="none" paint-order="stroke fill markers" d=" M 76.20266666666666 180.45866666666666 L 68.01066666666668 184.55466666666666 L 68.01066666666668 204.95466666666667 L 76.20266666666666 200.85866666666666 Z"/><path fill="#ffe6a8" stroke="none" paint-order="stroke fill markers" d=" M 24.66133333333334 97.61066666666667 L 33.36533333333334 101.96266666666668 L 33.36533333333334 122.36266666666668 L 24.66133333333334 118.01066666666668 Z"/><path fill="#ffe6a8" stroke="none" paint-order="stroke fill markers" d=" M 39.168000000000006 104.864 L 47.872 109.21600000000001 L 47.872 129.616 L 39.168000000000006 125.26400000000001 Z"/><path fill="#ffe6a8" stroke="none" paint-order="stroke fill markers" d=" M 53.67466666666667 112.11733333333333 L 62.37866666666666 116.46933333333334 L 62.37866666666666 136.86933333333334 L 53.67466666666667 132.51733333333334 Z"/><path fill="#ffe6a8" stroke="none" paint-order="stroke fill markers" d=" M 24.66133333333334 131.61066666666667 L 33.36533333333334 135.96266666666668 L 33.36533333333334 156.36266666666666 L 24.66133333333334 152.01066666666668 Z"/><path fill="#ffe6a8" stroke="none" paint-order="stroke fill markers" d=" M 39.168000000000006 138.864 L 47.872 143.216 L 47.872 163.61599999999999 L 39.168000000000006 159.264 Z"/><path fill="#ffe6a8" stroke="none" paint-order="stroke fill markers" d=" M 53.67466666666667 146.11733333333333 L 62.37866666666666 150.46933333333334 L 62.37866666666666 170.86933333333332 L 53.67466666666667 166.51733333333334 Z"/><path fill="#ffe6a8" stroke="none" paint-order="stroke fill markers" d=" M 24.66133333333334 165.6106666666667 L 33.36533333333334 169.96266666666668 L 33.36533333333334 190.36266666666666 L 24.66133333333334 186.01066666666668 Z"/><path fill="#ffe6a8" stroke="none" paint-order="stroke fill markers" d=" M 39.168000000000006 172.86400000000003 L 47.872 177.216 L 47.872 197.61599999999999 L 39.168000000000006 193.264 Z"/><path fill="#ffe6a8" stroke="none" paint-order="stroke fill markers" d=" M 53.67466666666667 180.11733333333336 L 62.37866666666666 184.46933333333334 L 62.37866666666666 204.86933333333332 L 53.67466666666667 200.51733333333334 Z"/><path fill="#4f2c1b" stroke="none" paint-order="stroke fill markers" d=" M 37.4272 133.9136 L 49.61280000000001 140.0064 L 49.61280000000001 168.56640000000002 L 37.4272 162.4736 Z"/></g></svg>