<svg xmlns="http://www.w3.org/2000/svg" xmlns:xlink="http://www.w3.org/1999/xlink" version="1.1" width="128" height="224"><defs/><g><path d="M64.72,172.88 L108.24,194.64 L67.28,215.12 L23.76,193.36 Z" fill="rgb(0,0,0)" fill-opacity="0.2"/><path d="M106.24,192.64 L65.28,213.12 L65.28,111.12 L106.24,90.64 Z" fill="#7c8a78"/><path d="M106.24,192.64 L65.28,213.12 L65.28,111.12 L106.24,90.64 Z" fill="none" stroke="rgb(0,12,4)" stroke-opacity="0.35" stroke-width="1"/><path d="M21.76,191.36 L65.28,213.12 L65.28,111.12 L21.76,89.36 Z" fill="#4f5c4c"/><path d="M21.76,191.36 L65.28,213.12 L65.28,111.12 L21.76,89.36 Z" fill="none" stroke="rgb(0,12,4)" stroke-opacity="0.35" stroke-width="1"/><path d="M62.72,68.88 L106.24,90.64 L65.28,111.12 L21.76,89.36 Z" fill="#9aa893"/><path d="M62.72,68.88 L106.24,90.64 L65.28,111.12 L21.76,89.36 Z" fill="none" stroke="rgb(0,12,4)" stroke-opacity="0.35" stroke-width="1"/><path d="M103.51,98.81 L95.32,102.9 L95.32,123.3 L103.51,119.21 Z" fill="#ffdf9e"/><path d="M89.86,105.63 L81.66,109.73 L81.66,130.13 L89.86,126.03 Z" fill="#ffdf9e"/><path d="M76.2,112.46 L68.01,116.55 L68.01,136.95 L76.2,132.86 Z" fill="#ffdf9e"/><path d="M103.51,132.81 L95.32,136.9 L95.32,157.3 L103.51,153.21 Z" fill="#ffdf9e"/><path d="M89.86,139.63 L81.66,143.73 L81.66,164.13 L89.86,160.03 Z" fill="#ffdf9e"/><path d="M76.2,146.46 L68.01,150.55 L68.01,170.95 L76.2,166.86 Z" fill="#ffdf9e"/><path d="M103.51,166.81 L95.32,170.9 L95.32,191.3 L103.51,187.21 Z" fill="#ffdf9e"/><path d="M89.86,173.63 L81.66,177.73 L81.66,198.13 L89.86,194.03 Z" fill="#ffdf9e"/><path d="M76.2,180.46 L68.01,184.55 L68.01,204.95 L76.2,200.86 Z" fill="#ffdf9e"/><path d="M24.66,97.61 L33.37,101.96 L33.37,122.36 L24.66,118.01 Z" fill="#ffdf9e"/><path d="M39.17,104.86 L47.87,109.22 L47.87,129.62 L39.17,125.26 Z" fill="#ffdf9e"/><path d="M53.67,112.12 L62.38,116.47 L62.38,136.87 L53.67,132.52 Z" fill="#ffdf9e"/><path d="M24.66,131.61 L33.37,135.96 L33.37,156.36 L24.66,152.01 Z" fill="#ffdf9e"/><path d="M39.17,138.86 L47.87,143.22 L47.87,163.62 L39.17,159.26 Z" fill="#ffdf9e"/><path d="M53.67,146.12 L62.38,150.47 L62.38,170.87 L53.67,166.52 Z" fill="#ffdf9e"/><path d="M24.66,165.61 L33.37,169.96 L33.37,190.36 L24.66,186.01 Z" fill="#ffdf9e"/><path d="M39.17,172.86 L47.87,177.22 L47.87,197.62 L39.17,193.26 Z" fill="#ffdf9e"/><path d="M53.67,180.12 L62.38,184.47 L62.38,204.87 L53.67,200.52 Z" fill="#ffdf9e"/><path d="M37.43,133.91 L49.61,140.01 L49.61,168.57 L37.43,162.47 Z" fill="#3a4438"/></g></svg>