<svg xmlns="http://www.w3.org/2000/svg" xmlns:xlink="http://www.w3.org/1999/xlink" version="1.1" width="128" height="128"><defs/><g><path d="M57.04,80.72 L101.84,103.12 L73.68,117.2 L28.88,94.8 Z" fill="rgb(0,0,0)" fill-opacity="0.2"/><path d="M99.84,101.12 L71.68,115.2 L71.68,83.2 L99.84,69.12 Z" fill="#7c8a78"/><path d="M99.84,101.12 L71.68,115.2 L71.68,83.2 L99.84,69.12 Z" fill="none" stroke="rgb(0,12,4)" stroke-opacity="0.35" stroke-width="1"/><path d="M26.88,92.8 L71.68,115.2 L71.68,83.2 L26.88,60.8 Z" fill="#4f5c4c"/><path d="M26.88,92.8 L71.68,115.2 L71.68,83.2 L26.88,60.8 Z" fill="none" stroke="rgb(0,12,4)" stroke-opacity="0.35" stroke-width="1"/><path d="M55.04,46.72 L99.84,69.12 L71.68,83.2 L26.88,60.8 Z" fill="#9aa893"/><path d="M55.04,46.72 L99.84,69.12 L71.68,83.2 L26.88,60.8 Z" fill="none" stroke="rgb(0,12,4)" stroke-opacity="0.35" stroke-width="1"/><path d="M97.96,76.46 L92.33,79.27 L92.33,98.47 L97.96,95.66 Z" fill="#ffdf9e"/><path d="M88.58,81.15 L82.94,83.97 L82.94,103.17 L88.58,100.35 Z" fill="#ffdf9e"/><path d="M79.19,85.85 L73.56,88.66 L73.56,107.86 L79.19,105.05 Z" fill="#ffdf9e"/><path d="M29.87,68.69 L38.83,73.17 L38.83,92.37 L29.87,87.89 Z" fill="#ffdf9e"/><path d="M44.8,76.16 L53.76,80.64 L53.76,99.84 L44.8,95.36 Z" fill="#ffdf9e"/><path d="M59.73,83.63 L68.69,88.11 L68.69,107.31 L59.73,102.83 Z" fill="#ffdf9e"/><path d="M26.88,60.8 L71.68,83.2 L85.76,56.16 L40.96,33.76 Z" fill="#5c6b58"/><path d="M26.88,60.8 L71.68,83.2 L85.76,56.16 L40.96,33.76 Z" fill="none" stroke="rgb(0,0,0)" stroke-opacity="0.3" stroke-width="1"/><path d="M99.84,69.12 L71.68,83.2 L85.76,56.16 Z" fill="#6f8068"/><path d="M99.84,69.12 L71.68,83.2 L85.76,56.16 Z" fill="none" stroke="rgb(0,0,0)" stroke-opacity="0.3" stroke-width="1"/></g></svg>