<svg xmlns="http://www.w3.org/2000/svg" version="1.1" width="128" height="260"><g><rect x="2.24" y="2.24" width="36.43" height="59.52" fill="rgba(0,0,0,0.20)" transform="matrix(1,0.5000,-1,0.5000,66.50,188.24)"/><g transform="translate(40.91,176.54) skewY(-26.565)"><rect x="0" y="0" width="53.76" height="56.54" fill="rgb(49,52,56)"/><line x1="9.77" y1="20.19" x2="43.99" y2="20.19" stroke="rgb(236,136,101)" stroke-width="1.56" stroke-linecap="butt"/><line x1="9.77" y1="28.27" x2="43.99" y2="28.27" stroke="rgb(236,136,101)" stroke-width="1.56" stroke-linecap="butt"/></g><g transform="translate(10.24,161.20) skewY(26.565)"><rect x="0" y="0" width="30.67" height="56.54" fill="rgb(90,95,102)"/><line x1="6.57" y1="12.20" x2="6.57" y2="44.33" stroke="rgb(228,127,63)" stroke-width="1.69" stroke-linecap="butt"/><line x1="10.95" y1="12.20" x2="10.95" y2="44.33" stroke="rgb(228,127,63)" stroke-width="1.69" stroke-linecap="butt"/><line x1="15.34" y1="12.20" x2="15.34" y2="44.33" stroke="rgb(228,127,63)" stroke-width="1.69" stroke-linecap="butt"/><line x1="19.72" y1="12.20" x2="19.72" y2="44.33" stroke="rgb(228,127,63)" stroke-width="1.69" stroke-linecap="butt"/></g><rect x="5.12" y="5.12" width="30.67" height="53.76" fill="rgb(122,128,135)" transform="matrix(1,0.5000,-1,0.5000,64.00,129.20)"/><g transform="translate(42.60,119.95) skewY(-26.565)"><rect x="0" y="0" width="38.12" height="49.61" fill="rgb(49,52,56)"/><line x1="19.06" y1="10.24" x2="19.06" y2="39.36" stroke="rgb(242,147,86)" stroke-width="1.15" stroke-linecap="butt"/><line x1="24.51" y1="10.24" x2="24.51" y2="39.36" stroke="rgb(242,147,86)" stroke-width="1.15" stroke-linecap="butt"/><line x1="29.95" y1="10.24" x2="29.95" y2="39.36" stroke="rgb(242,147,86)" stroke-width="1.15" stroke-linecap="butt"/></g><g transform="translate(24.19,110.75) skewY(26.565)"><rect x="0" y="0" width="18.40" height="49.61" fill="rgb(90,94,102)"/><line x1="1.31" y1="11.31" x2="1.31" y2="38.29" stroke="rgb(236,124,91)" stroke-width="1.45" stroke-linecap="butt"/><line x1="3.94" y1="11.31" x2="3.94" y2="38.29" stroke="rgb(236,124,91)" stroke-width="1.45" stroke-linecap="butt"/><line x1="6.57" y1="11.31" x2="6.57" y2="38.29" stroke="rgb(236,124,91)" stroke-width="1.45" stroke-linecap="butt"/><line x1="9.20" y1="11.31" x2="9.20" y2="38.29" stroke="rgb(236,124,91)" stroke-width="1.45" stroke-linecap="butt"/><line x1="11.83" y1="11.31" x2="11.83" y2="38.29" stroke="rgb(236,124,91)" stroke-width="1.45" stroke-linecap="butt"/><line x1="14.46" y1="11.31" x2="14.46" y2="38.29" stroke="rgb(236,124,91)" stroke-width="1.45" stroke-linecap="butt"/></g><rect x="11.25" y="12.94" width="18.40" height="38.12" fill="rgb(122,127,135)" transform="matrix(1,0.5000,-1,0.5000,64.00,79.60)"/><circle cx="58.17" cy="102.41" r="1.5941967107355595" fill="rgb(208,72,9)" fill-opacity="0.9770356454304421"/><circle cx="57.71" cy="98.60" r="1.3804850915446878" fill="rgb(208,72,9)" fill-opacity="0.5351344018126838"/><circle cx="58.63" cy="105.55" r="1.4567082203924657" fill="rgb(208,72,9)" fill-opacity="0.959273980499711"/><circle cx="63.01" cy="101.23" r="1.5105330316349865" fill="rgb(208,72,9)" fill-opacity="0.9080734279472381"/><rect x="36.63" y="2.24" width="25.13" height="59.52" fill="rgba(0,0,0,0.20)" transform="matrix(1,0.5000,-1,0.5000,66.50,188.24)"/><g transform="translate(64.00,195.55) skewY(-26.565)"><rect x="0" y="0" width="53.76" height="49.07" fill="rgb(49,52,56)"/><line x1="9.78" y1="17.53" x2="43.98" y2="17.53" stroke="rgb(240,155,107)" stroke-width="1.21" stroke-linecap="butt"/><line x1="9.78" y1="24.54" x2="43.98" y2="24.54" stroke="rgb(240,155,107)" stroke-width="1.21" stroke-linecap="butt"/><line x1="9.78" y1="31.55" x2="43.98" y2="31.55" stroke="rgb(240,155,107)" stroke-width="1.21" stroke-linecap="butt"/><line x1="9.78" y1="38.56" x2="43.98" y2="38.56" stroke="rgb(240,155,107)" stroke-width="1.21" stroke-linecap="butt"/></g><g transform="translate(44.63,185.86) skewY(26.565)"><rect x="0" y="0" width="19.37" height="49.07" fill="rgb(90,94,102)"/><line x1="1.21" y1="11.63" x2="1.21" y2="37.44" stroke="rgb(230,99,56)" stroke-width="1.74" stroke-linecap="butt"/><line x1="3.63" y1="11.63" x2="3.63" y2="37.44" stroke="rgb(230,99,56)" stroke-width="1.74" stroke-linecap="butt"/><line x1="6.05" y1="11.63" x2="6.05" y2="37.44" stroke="rgb(230,99,56)" stroke-width="1.74" stroke-linecap="butt"/><line x1="8.47" y1="11.63" x2="8.47" y2="37.44" stroke="rgb(230,99,56)" stroke-width="1.74" stroke-linecap="butt"/><line x1="10.90" y1="11.63" x2="10.90" y2="37.44" stroke="rgb(230,99,56)" stroke-width="1.74" stroke-linecap="butt"/><line x1="13.32" y1="11.63" x2="13.32" y2="37.44" stroke="rgb(230,99,56)" stroke-width="1.74" stroke-linecap="butt"/></g><rect x="39.51" y="5.12" width="19.37" height="53.76" fill="rgb(122,127,135)" transform="matrix(1,0.5000,-1,0.5000,64.00,136.67)"/><g transform="translate(64.17,138.72) skewY(-26.565)"><rect x="0" y="0" width="45.68" height="52.88" fill="rgb(49,52,56)"/><line x1="22.84" y1="8.53" x2="22.84" y2="44.35" stroke="rgb(248,134,84)" stroke-width="1.26" stroke-linecap="butt"/><line x1="29.36" y1="8.53" x2="29.36" y2="44.35" stroke="rgb(248,134,84)" stroke-width="1.26" stroke-linecap="butt"/><line x1="35.89" y1="8.53" x2="35.89" y2="44.35" stroke="rgb(248,134,84)" stroke-width="1.26" stroke-linecap="butt"/><line x1="42.42" y1="8.53" x2="42.42" y2="44.35" stroke="rgb(248,134,84)" stroke-width="1.26" stroke-linecap="butt"/></g><g transform="translate(52.54,132.91) skewY(26.565)"><rect x="0" y="0" width="11.62" height="52.88" fill="rgb(90,95,102)"/><line x1="3.63" y1="9.31" x2="3.63" y2="43.56" stroke="rgb(237,99,59)" stroke-width="1.17" stroke-linecap="butt" stroke-dasharray="5.54,3.43"/><line x1="5.08" y1="9.31" x2="5.08" y2="43.56" stroke="rgb(237,99,59)" stroke-width="1.17" stroke-linecap="butt" stroke-dasharray="5.54,3.43"/><line x1="6.54" y1="9.31" x2="6.54" y2="43.56" stroke="rgb(237,99,59)" stroke-width="1.17" stroke-linecap="butt" stroke-dasharray="5.54,3.43"/><line x1="7.99" y1="9.31" x2="7.99" y2="43.56" stroke="rgb(237,99,59)" stroke-width="1.17" stroke-linecap="butt" stroke-dasharray="5.54,3.43"/><line x1="9.44" y1="9.31" x2="9.44" y2="43.56" stroke="rgb(237,99,59)" stroke-width="1.17" stroke-linecap="butt" stroke-dasharray="5.54,3.43"/><line x1="10.90" y1="9.31" x2="10.90" y2="43.56" stroke="rgb(237,99,59)" stroke-width="1.17" stroke-linecap="butt" stroke-dasharray="5.54,3.43"/></g><rect x="43.38" y="9.16" width="11.62" height="45.68" fill="rgb(122,128,135)" transform="matrix(1,0.5000,-1,0.5000,64.00,83.79)"/><circle cx="101.14" cy="116.89" r="1.3935282852500679" fill="rgb(208,72,9)" fill-opacity="0.5168962439871393"/><circle cx="63.23" cy="129.72" r="1.4456992680206895" fill="rgb(208,72,9)" fill-opacity="0.6359154463396408"/><circle cx="96.19" cy="116.75" r="1.8641840936616063" fill="rgb(208,72,9)" fill-opacity="0.908170789189171"/><circle cx="70.50" cy="133.38" r="1.801390782929957" fill="rgb(208,72,9)" fill-opacity="0.9197989590349608"/><circle cx="73.11" cy="128.22" r="1.755978765152395" fill="rgb(208,72,9)" fill-opacity="0.661174441559706"/><circle cx="69.48" cy="128.60" r="1.416418837569654" fill="rgb(208,72,9)" fill-opacity="0.9374446981935762"/><circle cx="62.22" cy="129.82" r="1.2488992722705008" fill="rgb(208,72,9)" fill-opacity="0.852276563900523"/><circle cx="70.84" cy="132.90" r="1.7068689625710252" fill="rgb(208,72,9)" fill-opacity="0.9134043088997714"/></g></svg>