<svg xmlns="http://www.w3.org/2000/svg" version="1.1" width="128" height="210"><g><rect x="4.16" y="4.16" width="28.85" height="55.68" fill="rgba(0,0,0,0.20)" transform="matrix(1,0.5000,-1,0.5000,66.50,140.16)"/><g transform="translate(37.17,136.07) skewY(-26.565)"><rect x="0" y="0" width="49.92" height="45.14" fill="rgb(53,57,59)"/><line x1="3.57" y1="8.66" x2="3.57" y2="36.48" stroke="rgb(249,127,51)" stroke-width="1.2" stroke-linecap="butt"/><line x1="10.70" y1="8.66" x2="10.70" y2="36.48" stroke="rgb(249,127,51)" stroke-width="1.2" stroke-linecap="butt"/><line x1="17.83" y1="8.66" x2="17.83" y2="36.48" stroke="rgb(249,127,51)" stroke-width="1.2" stroke-linecap="butt"/><line x1="24.96" y1="8.66" x2="24.96" y2="36.48" stroke="rgb(249,127,51)" stroke-width="1.2" stroke-linecap="butt"/><line x1="32.09" y1="8.66" x2="32.09" y2="36.48" stroke="rgb(249,127,51)" stroke-width="1.2" stroke-linecap="butt"/><line x1="39.22" y1="8.66" x2="39.22" y2="36.48" stroke="rgb(249,127,51)" stroke-width="1.2" stroke-linecap="butt"/></g><g transform="translate(14.08,124.52) skewY(26.565)"><rect x="0" y="0" width="23.09" height="45.14" fill="rgb(96,104,107)"/><line x1="3.56" y1="2.82" x2="19.53" y2="2.82" stroke="rgb(247,134,38)" stroke-width="1.44" stroke-linecap="butt"/><line x1="3.56" y1="8.46" x2="19.53" y2="8.46" stroke="rgb(247,134,38)" stroke-width="1.44" stroke-linecap="butt"/><line x1="3.56" y1="14.11" x2="19.53" y2="14.11" stroke="rgb(247,134,38)" stroke-width="1.44" stroke-linecap="butt"/><line x1="3.56" y1="19.75" x2="19.53" y2="19.75" stroke="rgb(247,134,38)" stroke-width="1.44" stroke-linecap="butt"/><line x1="3.56" y1="25.39" x2="19.53" y2="25.39" stroke="rgb(247,134,38)" stroke-width="1.44" stroke-linecap="butt"/><line x1="3.56" y1="31.03" x2="19.53" y2="31.03" stroke="rgb(247,134,38)" stroke-width="1.44" stroke-linecap="butt"/><line x1="3.56" y1="36.67" x2="19.53" y2="36.67" stroke="rgb(247,134,38)" stroke-width="1.44" stroke-linecap="butt"/></g><rect x="7.04" y="7.04" width="23.09" height="49.92" fill="rgb(129,137,140)" transform="matrix(1,0.5000,-1,0.5000,64.00,92.52)"/><g transform="translate(37.17,91.83) skewY(-26.565)"><rect x="0" y="0" width="49.92" height="44.24" fill="rgb(53,57,59)"/><line x1="3.12" y1="9.86" x2="3.12" y2="34.39" stroke="rgb(228,114,53)" stroke-width="1.61" stroke-linecap="butt"/><line x1="9.36" y1="9.86" x2="9.36" y2="34.39" stroke="rgb(228,114,53)" stroke-width="1.61" stroke-linecap="butt"/><line x1="15.60" y1="9.86" x2="15.60" y2="34.39" stroke="rgb(228,114,53)" stroke-width="1.61" stroke-linecap="butt"/><line x1="21.84" y1="9.86" x2="21.84" y2="34.39" stroke="rgb(228,114,53)" stroke-width="1.61" stroke-linecap="butt"/><line x1="28.08" y1="9.86" x2="28.08" y2="34.39" stroke="rgb(228,114,53)" stroke-width="1.61" stroke-linecap="butt"/><line x1="34.32" y1="9.86" x2="34.32" y2="34.39" stroke="rgb(228,114,53)" stroke-width="1.61" stroke-linecap="butt"/><line x1="40.56" y1="9.86" x2="40.56" y2="34.39" stroke="rgb(228,114,53)" stroke-width="1.61" stroke-linecap="butt"/><line x1="46.80" y1="9.86" x2="46.80" y2="34.39" stroke="rgb(228,114,53)" stroke-width="1.61" stroke-linecap="butt"/></g><g transform="translate(14.08,80.28) skewY(26.565)"><rect x="0" y="0" width="23.09" height="44.24" fill="rgb(96,103,107)"/><line x1="4.31" y1="22.12" x2="18.78" y2="22.12" stroke="rgb(232,122,72)" stroke-width="1.11" stroke-linecap="butt"/><line x1="4.31" y1="28.44" x2="18.78" y2="28.44" stroke="rgb(232,122,72)" stroke-width="1.11" stroke-linecap="butt"/></g><rect x="7.04" y="7.04" width="23.09" height="49.92" fill="rgb(129,136,140)" transform="matrix(1,0.5000,-1,0.5000,64.00,48.28)"/><rect x="30.18" y="4.16" width="29.66" height="55.68" fill="rgba(0,0,0,0.20)" transform="matrix(1,0.5000,-1,0.5000,66.50,140.16)"/><g transform="translate(64.00,159.19) skewY(-26.565)"><rect x="0" y="0" width="49.92" height="35.43" fill="rgb(53,57,59)"/><line x1="10.40" y1="17.71" x2="39.52" y2="17.71" stroke="rgb(236,161,106)" stroke-width="1.42" stroke-linecap="butt"/><line x1="10.40" y1="22.77" x2="39.52" y2="22.77" stroke="rgb(236,161,106)" stroke-width="1.42" stroke-linecap="butt"/></g><g transform="translate(40.10,147.24) skewY(26.565)"><rect x="0" y="0" width="23.90" height="35.43" fill="rgb(96,103,107)"/><line x1="10.46" y1="8.36" x2="10.46" y2="27.06" stroke="rgb(247,163,70)" stroke-width="1" stroke-linecap="butt"/><line x1="13.44" y1="8.36" x2="13.44" y2="27.06" stroke="rgb(247,163,70)" stroke-width="1" stroke-linecap="butt"/><line x1="16.43" y1="8.36" x2="16.43" y2="27.06" stroke="rgb(247,163,70)" stroke-width="1" stroke-linecap="butt"/></g><rect x="33.06" y="7.04" width="23.90" height="49.92" fill="rgb(129,137,140)" transform="matrix(1,0.5000,-1,0.5000,64.00,102.23)"/><g transform="translate(64.00,121.29) skewY(-26.565)"><rect x="0" y="0" width="49.92" height="37.91" fill="rgb(53,57,59)"/><line x1="15.60" y1="9.01" x2="15.60" y2="28.90" stroke="rgb(242,152,87)" stroke-width="1.25" stroke-linecap="butt"/><line x1="21.84" y1="9.01" x2="21.84" y2="28.90" stroke="rgb(242,152,87)" stroke-width="1.25" stroke-linecap="butt"/><line x1="28.08" y1="9.01" x2="28.08" y2="28.90" stroke="rgb(242,152,87)" stroke-width="1.25" stroke-linecap="butt"/></g><g transform="translate(40.10,109.34) skewY(26.565)"><rect x="0" y="0" width="23.90" height="37.91" fill="rgb(96,103,107)"/><line x1="3.40" y1="18.95" x2="20.50" y2="18.95" stroke="rgb(243,113,79)" stroke-width="1.57" stroke-linecap="butt"/></g><rect x="33.06" y="7.04" width="23.90" height="49.92" fill="rgb(129,136,140)" transform="matrix(1,0.5000,-1,0.5000,64.00,64.33)"/></g></svg>