<svg xmlns="http://www.w3.org/2000/svg" version="1.1" width="128" height="150"><g><rect x="6.08" y="6.08" width="35.57" height="25.43" fill="rgba(0,0,0,0.20)" transform="matrix(1,0.5000,-1,0.5000,66.50,82.08)"/><g transform="translate(74.14,80.44) skewY(-26.565)"><rect x="0" y="0" width="19.67" height="32.84" fill="rgb(47,49,52)"/><line x1="3.06" y1="7.04" x2="16.61" y2="7.04" stroke="rgb(233,155,67)" stroke-width="1.03" stroke-linecap="butt"/><line x1="3.06" y1="11.73" x2="16.61" y2="11.73" stroke="rgb(233,155,67)" stroke-width="1.03" stroke-linecap="butt"/><line x1="3.06" y1="16.42" x2="16.61" y2="16.42" stroke="rgb(233,155,67)" stroke-width="1.03" stroke-linecap="butt"/><line x1="3.06" y1="21.11" x2="16.61" y2="21.11" stroke="rgb(233,155,67)" stroke-width="1.03" stroke-linecap="butt"/><line x1="3.06" y1="25.81" x2="16.61" y2="25.81" stroke="rgb(233,155,67)" stroke-width="1.03" stroke-linecap="butt"/><line x1="3.06" y1="30.50" x2="16.61" y2="30.50" stroke="rgb(233,155,67)" stroke-width="1.03" stroke-linecap="butt"/></g><g transform="translate(44.33,65.53) skewY(26.565)"><rect x="0" y="0" width="29.81" height="32.84" fill="rgb(85,90,94)"/><line x1="6.39" y1="7.22" x2="6.39" y2="25.62" stroke="rgb(236,160,95)" stroke-width="1.58" stroke-linecap="butt"/><line x1="10.65" y1="7.22" x2="10.65" y2="25.62" stroke="rgb(236,160,95)" stroke-width="1.58" stroke-linecap="butt"/><line x1="14.91" y1="7.22" x2="14.91" y2="25.62" stroke="rgb(236,160,95)" stroke-width="1.58" stroke-linecap="butt"/><line x1="19.16" y1="7.22" x2="19.16" y2="25.62" stroke="rgb(236,160,95)" stroke-width="1.58" stroke-linecap="butt"/><line x1="23.42" y1="7.22" x2="23.42" y2="25.62" stroke="rgb(236,160,95)" stroke-width="1.58" stroke-linecap="butt"/><line x1="27.68" y1="7.22" x2="27.68" y2="25.62" stroke="rgb(236,160,95)" stroke-width="1.58" stroke-linecap="butt"/></g><rect x="8.96" y="8.96" width="29.81" height="19.67" fill="rgb(118,123,128)" transform="matrix(1,0.5000,-1,0.5000,64.00,46.74)"/><circle cx="84.17" cy="71.22" r="1.705601035244763" fill="rgb(208,72,9)" fill-opacity="0.5342990180593915"/><circle cx="66.37" cy="64.92" r="1.299370127171278" fill="rgb(208,72,9)" fill-opacity="0.5336485495558009"/><circle cx="73.05" cy="70.70" r="1.2017686976119877" fill="rgb(208,72,9)" fill-opacity="0.5955616928520613"/><circle cx="57.02" cy="63.37" r="1.7926176527515056" fill="rgb(208,72,9)" fill-opacity="0.5811718131648377"/><circle cx="76.90" cy="74.74" r="1.421838315576315" fill="rgb(208,72,9)" fill-opacity="0.6163050668663346"/><rect x="6.08" y="30.85" width="35.57" height="27.07" fill="rgba(0,0,0,0.20)" transform="matrix(1,0.5000,-1,0.5000,66.50,82.08)"/><g transform="translate(47.73,87.15) skewY(-26.565)"><rect x="0" y="0" width="21.31" height="39.34" fill="rgb(47,49,52)"/><line x1="9.32" y1="8.79" x2="9.32" y2="30.55" stroke="rgb(247,163,53)" stroke-width="1.41" stroke-linecap="butt" stroke-dasharray="8.12,4.62"/><line x1="11.99" y1="8.79" x2="11.99" y2="30.55" stroke="rgb(247,163,53)" stroke-width="1.41" stroke-linecap="butt" stroke-dasharray="8.12,4.62"/><line x1="14.65" y1="8.79" x2="14.65" y2="30.55" stroke="rgb(247,163,53)" stroke-width="1.41" stroke-linecap="butt" stroke-dasharray="8.12,4.62"/><line x1="17.31" y1="8.79" x2="17.31" y2="30.55" stroke="rgb(247,163,53)" stroke-width="1.41" stroke-linecap="butt" stroke-dasharray="8.12,4.62"/><line x1="19.98" y1="8.79" x2="19.98" y2="30.55" stroke="rgb(247,163,53)" stroke-width="1.41" stroke-linecap="butt" stroke-dasharray="8.12,4.62"/></g><g transform="translate(17.92,72.24) skewY(26.565)"><rect x="0" y="0" width="29.81" height="39.34" fill="rgb(85,89,94)"/><line x1="2.13" y1="9.24" x2="2.13" y2="30.10" stroke="rgb(236,127,52)" stroke-width="1.26" stroke-linecap="butt" stroke-dasharray="6.45,3.84"/><line x1="6.39" y1="9.24" x2="6.39" y2="30.10" stroke="rgb(236,127,52)" stroke-width="1.26" stroke-linecap="butt" stroke-dasharray="6.45,3.84"/><line x1="10.65" y1="9.24" x2="10.65" y2="30.10" stroke="rgb(236,127,52)" stroke-width="1.26" stroke-linecap="butt" stroke-dasharray="6.45,3.84"/><line x1="14.91" y1="9.24" x2="14.91" y2="30.10" stroke="rgb(236,127,52)" stroke-width="1.26" stroke-linecap="butt" stroke-dasharray="6.45,3.84"/></g><rect x="8.96" y="33.73" width="29.81" height="21.31" fill="rgb(118,122,128)" transform="matrix(1,0.5000,-1,0.5000,64.00,40.24)"/><g transform="translate(47.73,60.08) skewY(-26.565)"><rect x="0" y="0" width="21.31" height="27.07" fill="rgb(47,49,52)"/><line x1="3.33" y1="5.07" x2="17.97" y2="5.07" stroke="rgb(242,134,82)" stroke-width="1.26" stroke-linecap="butt"/><line x1="3.33" y1="8.46" x2="17.97" y2="8.46" stroke="rgb(242,134,82)" stroke-width="1.26" stroke-linecap="butt"/><line x1="3.33" y1="11.84" x2="17.97" y2="11.84" stroke="rgb(242,134,82)" stroke-width="1.26" stroke-linecap="butt"/><line x1="3.33" y1="15.22" x2="17.97" y2="15.22" stroke="rgb(242,134,82)" stroke-width="1.26" stroke-linecap="butt"/></g><g transform="translate(17.92,45.18) skewY(26.565)"><rect x="0" y="0" width="29.81" height="27.07" fill="rgb(85,89,94)"/><line x1="4.37" y1="5.80" x2="25.44" y2="5.80" stroke="rgb(241,127,73)" stroke-width="1.17" stroke-linecap="butt"/><line x1="4.37" y1="9.67" x2="25.44" y2="9.67" stroke="rgb(241,127,73)" stroke-width="1.17" stroke-linecap="butt"/><line x1="4.37" y1="13.53" x2="25.44" y2="13.53" stroke="rgb(241,127,73)" stroke-width="1.17" stroke-linecap="butt"/><line x1="4.37" y1="17.40" x2="25.44" y2="17.40" stroke="rgb(241,127,73)" stroke-width="1.17" stroke-linecap="butt"/></g><rect x="8.96" y="33.73" width="29.81" height="21.31" fill="rgb(118,122,128)" transform="matrix(1,0.5000,-1,0.5000,64.00,13.18)"/><rect x="40.21" y="6.08" width="17.71" height="51.84" fill="rgba(0,0,0,0.20)" transform="matrix(1,0.5000,-1,0.5000,66.50,82.08)"/><g transform="translate(64.00,94.74) skewY(-26.565)"><rect x="0" y="0" width="46.08" height="39.88" fill="rgb(47,49,52)"/><line x1="7.29" y1="2.49" x2="38.79" y2="2.49" stroke="rgb(235,171,103)" stroke-width="1.2" stroke-linecap="butt"/><line x1="7.29" y1="7.48" x2="38.79" y2="7.48" stroke="rgb(235,171,103)" stroke-width="1.2" stroke-linecap="butt"/><line x1="7.29" y1="12.46" x2="38.79" y2="12.46" stroke="rgb(235,171,103)" stroke-width="1.2" stroke-linecap="butt"/><line x1="7.29" y1="17.45" x2="38.79" y2="17.45" stroke="rgb(235,171,103)" stroke-width="1.2" stroke-linecap="butt"/><line x1="7.29" y1="22.43" x2="38.79" y2="22.43" stroke="rgb(235,171,103)" stroke-width="1.2" stroke-linecap="butt"/></g><g transform="translate(52.05,88.76) skewY(26.565)"><rect x="0" y="0" width="11.95" height="39.88" fill="rgb(85,89,94)"/><line x1="0.75" y1="8.74" x2="0.75" y2="31.14" stroke="rgb(236,145,80)" stroke-width="1.71" stroke-linecap="butt" stroke-dasharray="4.37,5.44"/><line x1="2.24" y1="8.74" x2="2.24" y2="31.14" stroke="rgb(236,145,80)" stroke-width="1.71" stroke-linecap="butt" stroke-dasharray="4.37,5.44"/><line x1="3.74" y1="8.74" x2="3.74" y2="31.14" stroke="rgb(236,145,80)" stroke-width="1.71" stroke-linecap="butt" stroke-dasharray="4.37,5.44"/><line x1="5.23" y1="8.74" x2="5.23" y2="31.14" stroke="rgb(236,145,80)" stroke-width="1.71" stroke-linecap="butt" stroke-dasharray="4.37,5.44"/><line x1="6.72" y1="8.74" x2="6.72" y2="31.14" stroke="rgb(236,145,80)" stroke-width="1.71" stroke-linecap="butt" stroke-dasharray="4.37,5.44"/><line x1="8.22" y1="8.74" x2="8.22" y2="31.14" stroke="rgb(236,145,80)" stroke-width="1.71" stroke-linecap="butt" stroke-dasharray="4.37,5.44"/><line x1="9.71" y1="8.74" x2="9.71" y2="31.14" stroke="rgb(236,145,80)" stroke-width="1.71" stroke-linecap="butt" stroke-dasharray="4.37,5.44"/><line x1="11.21" y1="8.74" x2="11.21" y2="31.14" stroke="rgb(236,145,80)" stroke-width="1.71" stroke-linecap="butt" stroke-dasharray="4.37,5.44"/></g><rect x="43.09" y="8.96" width="11.95" height="46.08" fill="rgb(118,121,128)" transform="matrix(1,0.5000,-1,0.5000,64.00,39.70)"/></g></svg>