<svg xmlns="http://www.w3.org/2000/svg" version="1.1" width="128" height="210"><g><rect x="4.16" y="4.16" width="25.91" height="55.68" fill="rgba(0,0,0,0.20)" transform="matrix(1,0.5000,-1,0.5000,66.50,140.16)"/><g transform="translate(34.23,129.80) skewY(-26.565)"><rect x="0" y="0" width="49.92" height="49.94" fill="rgb(45,51,58)"/><line x1="8.93" y1="10.70" x2="40.99" y2="10.70" stroke="rgb(237,171,106)" stroke-width="1.31" stroke-linecap="butt"/><line x1="8.93" y1="17.84" x2="40.99" y2="17.84" stroke="rgb(237,171,106)" stroke-width="1.31" stroke-linecap="butt"/><line x1="8.93" y1="24.97" x2="40.99" y2="24.97" stroke="rgb(237,171,106)" stroke-width="1.31" stroke-linecap="butt"/></g><g transform="translate(14.08,119.72) skewY(26.565)"><rect x="0" y="0" width="20.15" height="49.94" fill="rgb(83,92,106)"/><line x1="3.78" y1="9.40" x2="3.78" y2="40.54" stroke="rgb(238,123,45)" stroke-width="1.03" stroke-linecap="butt"/><line x1="6.30" y1="9.40" x2="6.30" y2="40.54" stroke="rgb(238,123,45)" stroke-width="1.03" stroke-linecap="butt"/><line x1="8.82" y1="9.40" x2="8.82" y2="40.54" stroke="rgb(238,123,45)" stroke-width="1.03" stroke-linecap="butt"/><line x1="11.34" y1="9.40" x2="11.34" y2="40.54" stroke="rgb(238,123,45)" stroke-width="1.03" stroke-linecap="butt"/><line x1="13.86" y1="9.40" x2="13.86" y2="40.54" stroke="rgb(238,123,45)" stroke-width="1.03" stroke-linecap="butt"/><line x1="16.37" y1="9.40" x2="16.37" y2="40.54" stroke="rgb(238,123,45)" stroke-width="1.03" stroke-linecap="butt"/></g><rect x="7.04" y="7.04" width="20.15" height="49.92" fill="rgb(114,125,141)" transform="matrix(1,0.5000,-1,0.5000,64.00,87.72)"/><circle cx="59.44" cy="101.20" r="1.2143681513145568" fill="rgb(208,72,9)" fill-opacity="0.8721593915019185"/><circle cx="51.98" cy="110.10" r="1.6037111109122635" fill="rgb(208,72,9)" fill-opacity="0.8873095845570789"/><circle cx="45.98" cy="108.11" r="1.8343270290642977" fill="rgb(208,72,9)" fill-opacity="0.5807603531749919"/><rect x="26.79" y="4.16" width="33.05" height="55.68" fill="rgba(0,0,0,0.20)" transform="matrix(1,0.5000,-1,0.5000,66.50,140.16)"/><g transform="translate(64.00,150.31) skewY(-26.565)"><rect x="0" y="0" width="49.92" height="44.31" fill="rgb(45,52,58)"/><line x1="3.12" y1="8.85" x2="3.12" y2="35.47" stroke="rgb(243,157,91)" stroke-width="1.31" stroke-linecap="butt"/><line x1="9.36" y1="8.85" x2="9.36" y2="35.47" stroke="rgb(243,157,91)" stroke-width="1.31" stroke-linecap="butt"/><line x1="15.60" y1="8.85" x2="15.60" y2="35.47" stroke="rgb(243,157,91)" stroke-width="1.31" stroke-linecap="butt"/><line x1="21.84" y1="8.85" x2="21.84" y2="35.47" stroke="rgb(243,157,91)" stroke-width="1.31" stroke-linecap="butt"/><line x1="28.08" y1="8.85" x2="28.08" y2="35.47" stroke="rgb(243,157,91)" stroke-width="1.31" stroke-linecap="butt"/><line x1="34.32" y1="8.85" x2="34.32" y2="35.47" stroke="rgb(243,157,91)" stroke-width="1.31" stroke-linecap="butt"/></g><g transform="translate(36.71,136.66) skewY(26.565)"><rect x="0" y="0" width="27.29" height="44.31" fill="rgb(83,94,106)"/><line x1="5.85" y1="6.74" x2="5.85" y2="37.58" stroke="rgb(239,159,71)" stroke-width="1.13" stroke-linecap="butt" stroke-dasharray="7.78,3.50"/><line x1="9.75" y1="6.74" x2="9.75" y2="37.58" stroke="rgb(239,159,71)" stroke-width="1.13" stroke-linecap="butt" stroke-dasharray="7.78,3.50"/><line x1="13.64" y1="6.74" x2="13.64" y2="37.58" stroke="rgb(239,159,71)" stroke-width="1.13" stroke-linecap="butt" stroke-dasharray="7.78,3.50"/><line x1="17.54" y1="6.74" x2="17.54" y2="37.58" stroke="rgb(239,159,71)" stroke-width="1.13" stroke-linecap="butt" stroke-dasharray="7.78,3.50"/><line x1="21.44" y1="6.74" x2="21.44" y2="37.58" stroke="rgb(239,159,71)" stroke-width="1.13" stroke-linecap="butt" stroke-dasharray="7.78,3.50"/><line x1="25.34" y1="6.74" x2="25.34" y2="37.58" stroke="rgb(239,159,71)" stroke-width="1.13" stroke-linecap="butt" stroke-dasharray="7.78,3.50"/></g><rect x="29.67" y="7.04" width="27.29" height="49.92" fill="rgb(114,128,141)" transform="matrix(1,0.5000,-1,0.5000,64.00,93.35)"/><g transform="translate(64.00,101.55) skewY(-26.565)"><rect x="0" y="0" width="49.92" height="48.75" fill="rgb(45,52,58)"/><line x1="11.90" y1="24.38" x2="38.02" y2="24.38" stroke="rgb(244,113,58)" stroke-width="1.7" stroke-linecap="butt" stroke-dasharray="7.62,5.18"/><line x1="11.90" y1="31.34" x2="38.02" y2="31.34" stroke="rgb(244,113,58)" stroke-width="1.7" stroke-linecap="butt" stroke-dasharray="7.62,5.18"/></g><g transform="translate(36.71,87.91) skewY(26.565)"><rect x="0" y="0" width="27.29" height="48.75" fill="rgb(83,95,106)"/><line x1="4.62" y1="24.38" x2="22.67" y2="24.38" stroke="rgb(239,155,75)" stroke-width="1.19" stroke-linecap="butt"/></g><rect x="29.67" y="7.04" width="27.29" height="49.92" fill="rgb(114,128,141)" transform="matrix(1,0.5000,-1,0.5000,64.00,44.59)"/><g transform="translate(64.00,58.42) skewY(-26.565)"><rect x="0" y="0" width="49.92" height="43.13" fill="rgb(45,52,58)"/><line x1="9.71" y1="18.87" x2="40.21" y2="18.87" stroke="rgb(249,146,85)" stroke-width="1.38" stroke-linecap="butt"/><line x1="9.71" y1="24.26" x2="40.21" y2="24.26" stroke="rgb(249,146,85)" stroke-width="1.38" stroke-linecap="butt"/></g><g transform="translate(36.71,44.78) skewY(26.565)"><rect x="0" y="0" width="27.29" height="43.13" fill="rgb(83,94,106)"/><line x1="3.96" y1="21.57" x2="23.33" y2="21.57" stroke="rgb(236,151,81)" stroke-width="1.28" stroke-linecap="butt"/><line x1="3.96" y1="27.73" x2="23.33" y2="27.73" stroke="rgb(236,151,81)" stroke-width="1.28" stroke-linecap="butt"/><line x1="3.96" y1="33.89" x2="23.33" y2="33.89" stroke="rgb(236,151,81)" stroke-width="1.28" stroke-linecap="butt"/></g><rect x="29.67" y="7.04" width="27.29" height="49.92" fill="rgb(114,127,141)" transform="matrix(1,0.5000,-1,0.5000,64.00,1.46)"/><circle cx="67.50" cy="41.69" r="1.3266234256327154" fill="rgb(208,72,9)" fill-opacity="0.8546678901650012"/><circle cx="80.89" cy="45.17" r="1.2031748784705998" fill="rgb(208,72,9)" fill-opacity="0.46947019729996103"/><circle cx="56.92" cy="41.09" r="1.4821174118667841" fill="rgb(208,72,9)" fill-opacity="0.8224141803802922"/><circle cx="67.58" cy="46.16" r="1.1228733763098717" fill="rgb(208,72,9)" fill-opacity="0.7360595168662258"/><circle cx="70.89" cy="36.46" r="1.1570923591032625" fill="rgb(208,72,9)" fill-opacity="0.5889805985963903"/></g></svg>