<svg xmlns="http://www.w3.org/2000/svg" version="1.1" width="128" height="150"><g><rect x="6.08" y="6.08" width="27.30" height="51.84" fill="rgba(0,0,0,0.20)" transform="matrix(1,0.5000,-1,0.5000,66.50,82.08)"/><g transform="translate(39.46,88.61) skewY(-26.565)"><rect x="0" y="0" width="46.08" height="33.74" fill="rgb(46,48,51)"/><line x1="23.04" y1="6.33" x2="23.04" y2="27.41" stroke="rgb(243,106,57)" stroke-width="1.42" stroke-linecap="butt"/></g><g transform="translate(17.92,77.84) skewY(26.565)"><rect x="0" y="0" width="21.54" height="33.74" fill="rgb(83,87,93)"/><line x1="9.42" y1="4.76" x2="9.42" y2="28.97" stroke="rgb(244,117,64)" stroke-width="1.12" stroke-linecap="butt"/><line x1="12.12" y1="4.76" x2="12.12" y2="28.97" stroke="rgb(244,117,64)" stroke-width="1.12" stroke-linecap="butt"/><line x1="14.81" y1="4.76" x2="14.81" y2="28.97" stroke="rgb(244,117,64)" stroke-width="1.12" stroke-linecap="butt"/><line x1="17.50" y1="4.76" x2="17.50" y2="28.97" stroke="rgb(244,117,64)" stroke-width="1.12" stroke-linecap="butt"/></g><rect x="8.96" y="8.96" width="21.54" height="46.08" fill="rgb(116,120,127)" transform="matrix(1,0.5000,-1,0.5000,64.00,45.84)"/><circle cx="60.79" cy="58.52" r="1.4826473567634821" fill="rgb(208,72,9)" fill-opacity="0.9246915616909974"/><circle cx="47.04" cy="75.24" r="1.7290501510724425" fill="rgb(208,72,9)" fill-opacity="0.7713980862987229"/><circle cx="68.10" cy="64.36" r="1.3978361282497644" fill="rgb(208,72,9)" fill-opacity="0.7420119131798857"/><circle cx="60.32" cy="72.46" r="1.471172995492816" fill="rgb(208,72,9)" fill-opacity="0.7232183410204016"/><rect x="30.33" y="6.08" width="27.59" height="51.84" fill="rgba(0,0,0,0.20)" transform="matrix(1,0.5000,-1,0.5000,66.50,82.08)"/><g transform="translate(64.00,97.75) skewY(-26.565)"><rect x="0" y="0" width="46.08" height="36.87" fill="rgb(46,48,51)"/><line x1="9.63" y1="11.52" x2="36.45" y2="11.52" stroke="rgb(245,136,83)" stroke-width="1.76" stroke-linecap="butt"/><line x1="9.63" y1="16.13" x2="36.45" y2="16.13" stroke="rgb(245,136,83)" stroke-width="1.76" stroke-linecap="butt"/><line x1="9.63" y1="20.74" x2="36.45" y2="20.74" stroke="rgb(245,136,83)" stroke-width="1.76" stroke-linecap="butt"/><line x1="9.63" y1="25.34" x2="36.45" y2="25.34" stroke="rgb(245,136,83)" stroke-width="1.76" stroke-linecap="butt"/><line x1="9.63" y1="29.95" x2="36.45" y2="29.95" stroke="rgb(245,136,83)" stroke-width="1.76" stroke-linecap="butt"/></g><g transform="translate(42.17,86.84) skewY(26.565)"><rect x="0" y="0" width="21.83" height="36.87" fill="rgb(83,86,93)"/><line x1="3.20" y1="11.52" x2="18.63" y2="11.52" stroke="rgb(238,100,61)" stroke-width="1.44" stroke-linecap="butt"/><line x1="3.20" y1="16.13" x2="18.63" y2="16.13" stroke="rgb(238,100,61)" stroke-width="1.44" stroke-linecap="butt"/><line x1="3.20" y1="20.74" x2="18.63" y2="20.74" stroke="rgb(238,100,61)" stroke-width="1.44" stroke-linecap="butt"/></g><rect x="33.21" y="8.96" width="21.83" height="46.08" fill="rgb(116,119,127)" transform="matrix(1,0.5000,-1,0.5000,64.00,42.71)"/><g transform="translate(64.00,66.28) skewY(-26.565)"><rect x="0" y="0" width="46.08" height="31.48" fill="rgb(46,48,51)"/><line x1="23.04" y1="6.43" x2="23.04" y2="25.04" stroke="rgb(243,82,48)" stroke-width="1.62" stroke-linecap="butt" stroke-dasharray="6.23,5.75"/></g><g transform="translate(42.17,55.36) skewY(26.565)"><rect x="0" y="0" width="21.83" height="31.48" fill="rgb(83,87,93)"/><line x1="9.55" y1="6.24" x2="9.55" y2="25.23" stroke="rgb(249,98,73)" stroke-width="1.31" stroke-linecap="butt"/><line x1="12.28" y1="6.24" x2="12.28" y2="25.23" stroke="rgb(249,98,73)" stroke-width="1.31" stroke-linecap="butt"/></g><rect x="33.21" y="8.96" width="21.83" height="46.08" fill="rgb(116,119,127)" transform="matrix(1,0.5000,-1,0.5000,64.00,11.24)"/><circle cx="76.64" cy="50.72" r="1.3051203694194555" fill="rgb(208,72,9)" fill-opacity="0.9346842001541518"/><circle cx="56.45" cy="51.16" r="1.1706320725381376" fill="rgb(208,72,9)" fill-opacity="0.683412027254235"/></g></svg>