<svg xmlns="http://www.w3.org/2000/svg" version="1.1" width="128" height="210"><g><rect x="4.16" y="4.16" width="33.08" height="55.68" fill="rgba(0,0,0,0.20)" transform="matrix(1,0.5000,-1,0.5000,66.50,140.16)"/><g transform="translate(41.40,150.24) skewY(-26.565)"><rect x="0" y="0" width="49.92" height="33.08" fill="rgb(42,47,51)"/><line x1="3.57" y1="5.36" x2="3.57" y2="27.72" stroke="rgb(228,100,61)" stroke-width="1.44" stroke-linecap="butt"/><line x1="10.70" y1="5.36" x2="10.70" y2="27.72" stroke="rgb(228,100,61)" stroke-width="1.44" stroke-linecap="butt"/><line x1="17.83" y1="5.36" x2="17.83" y2="27.72" stroke="rgb(228,100,61)" stroke-width="1.44" stroke-linecap="butt"/><line x1="24.96" y1="5.36" x2="24.96" y2="27.72" stroke="rgb(228,100,61)" stroke-width="1.44" stroke-linecap="butt"/></g><g transform="translate(14.08,136.58) skewY(26.565)"><rect x="0" y="0" width="27.32" height="33.08" fill="rgb(76,86,93)"/><line x1="1.95" y1="7.19" x2="1.95" y2="25.89" stroke="rgb(240,128,62)" stroke-width="1.1" stroke-linecap="butt"/><line x1="5.85" y1="7.19" x2="5.85" y2="25.89" stroke="rgb(240,128,62)" stroke-width="1.1" stroke-linecap="butt"/><line x1="9.76" y1="7.19" x2="9.76" y2="25.89" stroke="rgb(240,128,62)" stroke-width="1.1" stroke-linecap="butt"/><line x1="13.66" y1="7.19" x2="13.66" y2="25.89" stroke="rgb(240,128,62)" stroke-width="1.1" stroke-linecap="butt"/><line x1="17.56" y1="7.19" x2="17.56" y2="25.89" stroke="rgb(240,128,62)" stroke-width="1.1" stroke-linecap="butt"/><line x1="21.46" y1="7.19" x2="21.46" y2="25.89" stroke="rgb(240,128,62)" stroke-width="1.1" stroke-linecap="butt"/></g><rect x="7.04" y="7.04" width="27.32" height="49.92" fill="rgb(107,120,127)" transform="matrix(1,0.5000,-1,0.5000,64.00,104.58)"/><g transform="translate(41.40,112.40) skewY(-26.565)"><rect x="0" y="0" width="49.92" height="37.83" fill="rgb(42,47,51)"/><line x1="21.84" y1="7.89" x2="21.84" y2="29.94" stroke="rgb(234,107,53)" stroke-width="1.8" stroke-linecap="butt"/><line x1="28.08" y1="7.89" x2="28.08" y2="29.94" stroke="rgb(234,107,53)" stroke-width="1.8" stroke-linecap="butt"/><line x1="34.32" y1="7.89" x2="34.32" y2="29.94" stroke="rgb(234,107,53)" stroke-width="1.8" stroke-linecap="butt"/></g><g transform="translate(14.08,98.75) skewY(26.565)"><rect x="0" y="0" width="27.32" height="37.83" fill="rgb(76,86,93)"/><line x1="3.95" y1="7.09" x2="23.36" y2="7.09" stroke="rgb(235,141,103)" stroke-width="1.44" stroke-linecap="butt"/><line x1="3.95" y1="11.82" x2="23.36" y2="11.82" stroke="rgb(235,141,103)" stroke-width="1.44" stroke-linecap="butt"/><line x1="3.95" y1="16.55" x2="23.36" y2="16.55" stroke="rgb(235,141,103)" stroke-width="1.44" stroke-linecap="butt"/><line x1="3.95" y1="21.28" x2="23.36" y2="21.28" stroke="rgb(235,141,103)" stroke-width="1.44" stroke-linecap="butt"/></g><rect x="7.04" y="7.04" width="27.32" height="49.92" fill="rgb(107,119,127)" transform="matrix(1,0.5000,-1,0.5000,64.00,66.75)"/><circle cx="65.33" cy="84.31" r="1.1857251405715943" fill="rgb(208,72,9)" fill-opacity="0.9968792853294872"/><circle cx="71.45" cy="90.24" r="1.1181130558252335" fill="rgb(208,72,9)" fill-opacity="0.9774278277414852"/><circle cx="43.74" cy="99.28" r="1.4200731413438916" fill="rgb(208,72,9)" fill-opacity="0.6948034224100411"/><rect x="34.40" y="4.16" width="25.44" height="55.68" fill="rgba(0,0,0,0.20)" transform="matrix(1,0.5000,-1,0.5000,66.50,140.16)"/><g transform="translate(64.00,155.11) skewY(-26.565)"><rect x="0" y="0" width="49.92" height="39.51" fill="rgb(42,48,51)"/><line x1="10.74" y1="7.41" x2="39.18" y2="7.41" stroke="rgb(244,168,93)" stroke-width="1.54" stroke-linecap="butt"/><line x1="10.74" y1="12.35" x2="39.18" y2="12.35" stroke="rgb(244,168,93)" stroke-width="1.54" stroke-linecap="butt"/><line x1="10.74" y1="17.28" x2="39.18" y2="17.28" stroke="rgb(244,168,93)" stroke-width="1.54" stroke-linecap="butt"/><line x1="10.74" y1="22.22" x2="39.18" y2="22.22" stroke="rgb(244,168,93)" stroke-width="1.54" stroke-linecap="butt"/><line x1="10.74" y1="27.16" x2="39.18" y2="27.16" stroke="rgb(244,168,93)" stroke-width="1.54" stroke-linecap="butt"/><line x1="10.74" y1="32.10" x2="39.18" y2="32.10" stroke="rgb(244,168,93)" stroke-width="1.54" stroke-linecap="butt"/></g><g transform="translate(44.32,145.27) skewY(26.565)"><rect x="0" y="0" width="19.68" height="39.51" fill="rgb(76,87,93)"/><line x1="2.94" y1="12.35" x2="16.74" y2="12.35" stroke="rgb(240,151,62)" stroke-width="1.23" stroke-linecap="butt"/><line x1="2.94" y1="17.28" x2="16.74" y2="17.28" stroke="rgb(240,151,62)" stroke-width="1.23" stroke-linecap="butt"/><line x1="2.94" y1="22.22" x2="16.74" y2="22.22" stroke="rgb(240,151,62)" stroke-width="1.23" stroke-linecap="butt"/><line x1="2.94" y1="27.16" x2="16.74" y2="27.16" stroke="rgb(240,151,62)" stroke-width="1.23" stroke-linecap="butt"/><line x1="2.94" y1="32.10" x2="16.74" y2="32.10" stroke="rgb(240,151,62)" stroke-width="1.23" stroke-linecap="butt"/></g><rect x="37.28" y="7.04" width="19.68" height="49.92" fill="rgb(107,120,127)" transform="matrix(1,0.5000,-1,0.5000,64.00,98.15)"/><circle cx="68.57" cy="141.04" r="1.5149013951420784" fill="rgb(208,72,9)" fill-opacity="0.8435375540168025"/><circle cx="89.17" cy="137.06" r="1.3128001475706697" fill="rgb(208,72,9)" fill-opacity="0.9878319352865219"/><circle cx="88.02" cy="126.17" r="1.6470198690891267" fill="rgb(208,72,9)" fill-opacity="0.6243968124850654"/><circle cx="103.44" cy="131.58" r="1.5632237302139402" fill="rgb(208,72,9)" fill-opacity="0.6475540259270929"/><circle cx="96.29" cy="131.37" r="1.2525631938129664" fill="rgb(208,72,9)" fill-opacity="0.5918717953027226"/></g></svg>