<svg xmlns="http://www.w3.org/2000/svg" version="1.1" width="128" height="150"><g><rect x="6.08" y="6.08" width="51.84" height="51.84" fill="rgba(0,0,0,0.20)" transform="matrix(1,0.5000,-1,0.5000,66.50,82.08)"/><g transform="translate(64.00,95.73) skewY(-26.565)"><rect x="0" y="0" width="46.08" height="38.89" fill="rgb(49,51,54)"/><line x1="3.29" y1="6.93" x2="3.29" y2="31.96" stroke="rgb(241,134,82)" stroke-width="1.33" stroke-linecap="butt"/><line x1="9.87" y1="6.93" x2="9.87" y2="31.96" stroke="rgb(241,134,82)" stroke-width="1.33" stroke-linecap="butt"/><line x1="16.46" y1="6.93" x2="16.46" y2="31.96" stroke="rgb(241,134,82)" stroke-width="1.33" stroke-linecap="butt"/><line x1="23.04" y1="6.93" x2="23.04" y2="31.96" stroke="rgb(241,134,82)" stroke-width="1.33" stroke-linecap="butt"/><line x1="29.62" y1="6.93" x2="29.62" y2="31.96" stroke="rgb(241,134,82)" stroke-width="1.33" stroke-linecap="butt"/><line x1="36.21" y1="6.93" x2="36.21" y2="31.96" stroke="rgb(241,134,82)" stroke-width="1.33" stroke-linecap="butt"/><line x1="42.79" y1="6.93" x2="42.79" y2="31.96" stroke="rgb(241,134,82)" stroke-width="1.33" stroke-linecap="butt"/></g><g transform="translate(17.92,72.69) skewY(26.565)"><rect x="0" y="0" width="46.08" height="38.89" fill="rgb(89,92,98)"/><line x1="9.87" y1="9.12" x2="9.87" y2="29.77" stroke="rgb(249,146,77)" stroke-width="1.77" stroke-linecap="butt"/><line x1="16.46" y1="9.12" x2="16.46" y2="29.77" stroke="rgb(249,146,77)" stroke-width="1.77" stroke-linecap="butt"/><line x1="23.04" y1="9.12" x2="23.04" y2="29.77" stroke="rgb(249,146,77)" stroke-width="1.77" stroke-linecap="butt"/></g><rect x="8.96" y="8.96" width="46.08" height="46.08" fill="rgb(121,125,132)" transform="matrix(1,0.5000,-1,0.5000,64.00,40.69)"/></g></svg>