<svg xmlns="http://www.w3.org/2000/svg" version="1.1" width="128" height="260"><g><rect x="2.24" y="2.24" width="26.10" height="33.98" fill="rgba(0,0,0,0.20)" transform="matrix(1,0.5000,-1,0.5000,66.50,188.24)"/><g transform="translate(56.12,168.79) skewY(-26.565)"><rect x="0" y="0" width="28.22" height="46.36" fill="rgb(45,49,54)"/><line x1="14.11" y1="9.70" x2="14.11" y2="36.65" stroke="rgb(247,114,50)" stroke-width="1.16" stroke-linecap="butt" stroke-dasharray="6.13,2.59"/><line x1="18.14" y1="9.70" x2="18.14" y2="36.65" stroke="rgb(247,114,50)" stroke-width="1.16" stroke-linecap="butt" stroke-dasharray="6.13,2.59"/><line x1="22.18" y1="9.70" x2="22.18" y2="36.65" stroke="rgb(247,114,50)" stroke-width="1.16" stroke-linecap="butt" stroke-dasharray="6.13,2.59"/></g><g transform="translate(35.78,158.62) skewY(26.565)"><rect x="0" y="0" width="20.34" height="46.36" fill="rgb(81,90,99)"/><line x1="4.36" y1="7.78" x2="4.36" y2="38.58" stroke="rgb(248,112,87)" stroke-width="1.48" stroke-linecap="butt"/><line x1="7.27" y1="7.78" x2="7.27" y2="38.58" stroke="rgb(248,112,87)" stroke-width="1.48" stroke-linecap="butt"/><line x1="10.17" y1="7.78" x2="10.17" y2="38.58" stroke="rgb(248,112,87)" stroke-width="1.48" stroke-linecap="butt"/><line x1="13.08" y1="7.78" x2="13.08" y2="38.58" stroke="rgb(248,112,87)" stroke-width="1.48" stroke-linecap="butt"/><line x1="15.98" y1="7.78" x2="15.98" y2="38.58" stroke="rgb(248,112,87)" stroke-width="1.48" stroke-linecap="butt"/></g><rect x="5.12" y="5.12" width="20.34" height="28.22" fill="rgb(113,123,133)" transform="matrix(1,0.5000,-1,0.5000,64.00,139.38)"/><g transform="translate(56.12,124.81) skewY(-26.565)"><rect x="0" y="0" width="28.22" height="43.98" fill="rgb(45,49,54)"/><line x1="5.35" y1="19.24" x2="22.88" y2="19.24" stroke="rgb(250,115,88)" stroke-width="1.09" stroke-linecap="butt"/><line x1="5.35" y1="24.74" x2="22.88" y2="24.74" stroke="rgb(250,115,88)" stroke-width="1.09" stroke-linecap="butt"/><line x1="5.35" y1="30.24" x2="22.88" y2="30.24" stroke="rgb(250,115,88)" stroke-width="1.09" stroke-linecap="butt"/></g><g transform="translate(35.78,114.63) skewY(26.565)"><rect x="0" y="0" width="20.34" height="43.98" fill="rgb(81,89,99)"/><line x1="1.27" y1="7.92" x2="1.27" y2="36.06" stroke="rgb(231,118,70)" stroke-width="1.56" stroke-linecap="butt" stroke-dasharray="4.70,2.62"/><line x1="3.81" y1="7.92" x2="3.81" y2="36.06" stroke="rgb(231,118,70)" stroke-width="1.56" stroke-linecap="butt" stroke-dasharray="4.70,2.62"/><line x1="6.36" y1="7.92" x2="6.36" y2="36.06" stroke="rgb(231,118,70)" stroke-width="1.56" stroke-linecap="butt" stroke-dasharray="4.70,2.62"/><line x1="8.90" y1="7.92" x2="8.90" y2="36.06" stroke="rgb(231,118,70)" stroke-width="1.56" stroke-linecap="butt" stroke-dasharray="4.70,2.62"/><line x1="11.44" y1="7.92" x2="11.44" y2="36.06" stroke="rgb(231,118,70)" stroke-width="1.56" stroke-linecap="butt" stroke-dasharray="4.70,2.62"/><line x1="13.99" y1="7.92" x2="13.99" y2="36.06" stroke="rgb(231,118,70)" stroke-width="1.56" stroke-linecap="butt" stroke-dasharray="4.70,2.62"/><line x1="16.53" y1="7.92" x2="16.53" y2="36.06" stroke="rgb(231,118,70)" stroke-width="1.56" stroke-linecap="butt" stroke-dasharray="4.70,2.62"/><line x1="19.07" y1="7.92" x2="19.07" y2="36.06" stroke="rgb(231,118,70)" stroke-width="1.56" stroke-linecap="butt" stroke-dasharray="4.70,2.62"/></g><rect x="5.12" y="5.12" width="20.34" height="28.22" fill="rgb(113,122,133)" transform="matrix(1,0.5000,-1,0.5000,64.00,95.40)"/><rect x="26.40" y="2.24" width="35.36" height="33.98" fill="rgba(0,0,0,0.20)" transform="matrix(1,0.5000,-1,0.5000,66.50,188.24)"/><g transform="translate(89.54,179.74) skewY(-26.565)"><rect x="0" y="0" width="28.22" height="52.12" fill="rgb(45,49,54)"/><line x1="6.52" y1="22.80" x2="21.71" y2="22.80" stroke="rgb(240,155,104)" stroke-width="1.04" stroke-linecap="butt"/><line x1="6.52" y1="29.31" x2="21.71" y2="29.31" stroke="rgb(240,155,104)" stroke-width="1.04" stroke-linecap="butt"/><line x1="6.52" y1="35.83" x2="21.71" y2="35.83" stroke="rgb(240,155,104)" stroke-width="1.04" stroke-linecap="butt"/></g><g transform="translate(59.94,164.94) skewY(26.565)"><rect x="0" y="0" width="29.60" height="52.12" fill="rgb(81,89,99)"/><line x1="14.80" y1="10.78" x2="14.80" y2="41.33" stroke="rgb(243,114,90)" stroke-width="1.26" stroke-linecap="butt"/></g><rect x="29.28" y="5.12" width="29.60" height="28.22" fill="rgb(113,122,133)" transform="matrix(1,0.5000,-1,0.5000,64.00,133.62)"/><g transform="translate(89.54,132.81) skewY(-26.565)"><rect x="0" y="0" width="22.49" height="44.06" fill="rgb(45,49,54)"/><line x1="4.81" y1="3.15" x2="17.68" y2="3.15" stroke="rgb(248,119,56)" stroke-width="1.23" stroke-linecap="butt"/><line x1="4.81" y1="9.44" x2="17.68" y2="9.44" stroke="rgb(248,119,56)" stroke-width="1.23" stroke-linecap="butt"/><line x1="4.81" y1="15.74" x2="17.68" y2="15.74" stroke="rgb(248,119,56)" stroke-width="1.23" stroke-linecap="butt"/><line x1="4.81" y1="22.03" x2="17.68" y2="22.03" stroke="rgb(248,119,56)" stroke-width="1.23" stroke-linecap="butt"/><line x1="4.81" y1="28.33" x2="17.68" y2="28.33" stroke="rgb(248,119,56)" stroke-width="1.23" stroke-linecap="butt"/></g><g transform="translate(65.67,120.88) skewY(26.565)"><rect x="0" y="0" width="23.87" height="44.06" fill="rgb(81,89,99)"/><line x1="4.03" y1="3.15" x2="19.84" y2="3.15" stroke="rgb(240,127,78)" stroke-width="1.11" stroke-linecap="butt"/><line x1="4.03" y1="9.44" x2="19.84" y2="9.44" stroke="rgb(240,127,78)" stroke-width="1.11" stroke-linecap="butt"/><line x1="4.03" y1="15.74" x2="19.84" y2="15.74" stroke="rgb(240,127,78)" stroke-width="1.11" stroke-linecap="butt"/><line x1="4.03" y1="22.03" x2="19.84" y2="22.03" stroke="rgb(240,127,78)" stroke-width="1.11" stroke-linecap="butt"/><line x1="4.03" y1="28.33" x2="19.84" y2="28.33" stroke="rgb(240,127,78)" stroke-width="1.11" stroke-linecap="butt"/><line x1="4.03" y1="34.62" x2="19.84" y2="34.62" stroke="rgb(240,127,78)" stroke-width="1.11" stroke-linecap="butt"/><line x1="4.03" y1="40.91" x2="19.84" y2="40.91" stroke="rgb(240,127,78)" stroke-width="1.11" stroke-linecap="butt"/></g><rect x="32.15" y="7.99" width="23.87" height="22.49" fill="rgb(113,122,133)" transform="matrix(1,0.5000,-1,0.5000,64.00,89.56)"/><circle cx="91.29" cy="123.73" r="1.703304339386523" fill="rgb(208,72,9)" fill-opacity="0.9897533083916643"/><circle cx="89.44" cy="122.94" r="1.6418242510408163" fill="rgb(208,72,9)" fill-opacity="0.7467437047278509"/><circle cx="103.69" cy="121.89" r="1.24365378562361" fill="rgb(208,72,9)" fill-opacity="0.9611260747187771"/><rect x="2.24" y="33.31" width="29.39" height="28.45" fill="rgba(0,0,0,0.20)" transform="matrix(1,0.5000,-1,0.5000,66.50,188.24)"/><g transform="translate(33.87,188.93) skewY(-26.565)"><rect x="0" y="0" width="22.69" height="40.62" fill="rgb(45,50,54)"/><line x1="4.04" y1="7.62" x2="18.65" y2="7.62" stroke="rgb(248,82,59)" stroke-width="1.4" stroke-linecap="butt"/><line x1="4.04" y1="12.69" x2="18.65" y2="12.69" stroke="rgb(248,82,59)" stroke-width="1.4" stroke-linecap="butt"/><line x1="4.04" y1="17.77" x2="18.65" y2="17.77" stroke="rgb(248,82,59)" stroke-width="1.4" stroke-linecap="butt"/><line x1="4.04" y1="22.85" x2="18.65" y2="22.85" stroke="rgb(248,82,59)" stroke-width="1.4" stroke-linecap="butt"/><line x1="4.04" y1="27.93" x2="18.65" y2="27.93" stroke="rgb(248,82,59)" stroke-width="1.4" stroke-linecap="butt"/><line x1="4.04" y1="33.00" x2="18.65" y2="33.00" stroke="rgb(248,82,59)" stroke-width="1.4" stroke-linecap="butt"/></g><g transform="translate(10.24,177.12) skewY(26.565)"><rect x="0" y="0" width="23.63" height="40.62" fill="rgb(81,91,99)"/><line x1="4.81" y1="2.90" x2="18.81" y2="2.90" stroke="rgb(249,149,85)" stroke-width="1.58" stroke-linecap="butt" stroke-dasharray="6.27,5.64"/><line x1="4.81" y1="8.70" x2="18.81" y2="8.70" stroke="rgb(249,149,85)" stroke-width="1.58" stroke-linecap="butt" stroke-dasharray="6.27,5.64"/><line x1="4.81" y1="14.51" x2="18.81" y2="14.51" stroke="rgb(249,149,85)" stroke-width="1.58" stroke-linecap="butt" stroke-dasharray="6.27,5.64"/><line x1="4.81" y1="20.31" x2="18.81" y2="20.31" stroke="rgb(249,149,85)" stroke-width="1.58" stroke-linecap="butt" stroke-dasharray="6.27,5.64"/><line x1="4.81" y1="26.11" x2="18.81" y2="26.11" stroke="rgb(249,149,85)" stroke-width="1.58" stroke-linecap="butt" stroke-dasharray="6.27,5.64"/></g><rect x="5.12" y="36.19" width="23.63" height="22.69" fill="rgb(113,124,133)" transform="matrix(1,0.5000,-1,0.5000,64.00,145.12)"/><g transform="translate(33.87,138.95) skewY(-26.565)"><rect x="0" y="0" width="22.69" height="49.99" fill="rgb(45,49,54)"/><line x1="8.10" y1="10.08" x2="8.10" y2="39.91" stroke="rgb(241,112,66)" stroke-width="1.64" stroke-linecap="butt"/><line x1="11.35" y1="10.08" x2="11.35" y2="39.91" stroke="rgb(241,112,66)" stroke-width="1.64" stroke-linecap="butt"/><line x1="14.59" y1="10.08" x2="14.59" y2="39.91" stroke="rgb(241,112,66)" stroke-width="1.64" stroke-linecap="butt"/><line x1="17.83" y1="10.08" x2="17.83" y2="39.91" stroke="rgb(241,112,66)" stroke-width="1.64" stroke-linecap="butt"/></g><g transform="translate(10.24,127.13) skewY(26.565)"><rect x="0" y="0" width="23.63" height="49.99" fill="rgb(81,89,99)"/><line x1="11.81" y1="11.39" x2="11.81" y2="38.60" stroke="rgb(238,132,76)" stroke-width="1.03" stroke-linecap="butt"/><line x1="15.19" y1="11.39" x2="15.19" y2="38.60" stroke="rgb(238,132,76)" stroke-width="1.03" stroke-linecap="butt"/></g><rect x="5.12" y="36.19" width="23.63" height="22.69" fill="rgb(113,122,133)" transform="matrix(1,0.5000,-1,0.5000,64.00,95.13)"/><circle cx="33.25" cy="120.55" r="1.8173294577747585" fill="rgb(208,72,9)" fill-opacity="0.5824846802046523"/><circle cx="30.72" cy="133.20" r="1.1121998995542528" fill="rgb(208,72,9)" fill-opacity="0.795949586480856"/><circle cx="41.32" cy="128.11" r="1.8384911948814988" fill="rgb(208,72,9)" fill-opacity="0.5429682114743628"/><circle cx="31.39" cy="127.74" r="1.1897908981889487" fill="rgb(208,72,9)" fill-opacity="0.9016688598087058"/><rect x="29.57" y="33.31" width="32.19" height="28.45" fill="rgba(0,0,0,0.20)" transform="matrix(1,0.5000,-1,0.5000,66.50,188.24)"/><g transform="translate(64.00,200.73) skewY(-26.565)"><rect x="0" y="0" width="22.69" height="43.89" fill="rgb(45,50,54)"/><line x1="4.34" y1="2.74" x2="18.35" y2="2.74" stroke="rgb(241,102,50)" stroke-width="1.36" stroke-linecap="butt" stroke-dasharray="7.89,5.69"/><line x1="4.34" y1="8.23" x2="18.35" y2="8.23" stroke="rgb(241,102,50)" stroke-width="1.36" stroke-linecap="butt" stroke-dasharray="7.89,5.69"/><line x1="4.34" y1="13.72" x2="18.35" y2="13.72" stroke="rgb(241,102,50)" stroke-width="1.36" stroke-linecap="butt" stroke-dasharray="7.89,5.69"/><line x1="4.34" y1="19.20" x2="18.35" y2="19.20" stroke="rgb(241,102,50)" stroke-width="1.36" stroke-linecap="butt" stroke-dasharray="7.89,5.69"/><line x1="4.34" y1="24.69" x2="18.35" y2="24.69" stroke="rgb(241,102,50)" stroke-width="1.36" stroke-linecap="butt" stroke-dasharray="7.89,5.69"/><line x1="4.34" y1="30.18" x2="18.35" y2="30.18" stroke="rgb(241,102,50)" stroke-width="1.36" stroke-linecap="butt" stroke-dasharray="7.89,5.69"/></g><g transform="translate(37.57,187.51) skewY(26.565)"><rect x="0" y="0" width="26.43" height="43.89" fill="rgb(81,91,99)"/><line x1="4.96" y1="6.47" x2="4.96" y2="37.43" stroke="rgb(228,124,58)" stroke-width="1.22" stroke-linecap="butt" stroke-dasharray="7.71,1.89"/><line x1="8.26" y1="6.47" x2="8.26" y2="37.43" stroke="rgb(228,124,58)" stroke-width="1.22" stroke-linecap="butt" stroke-dasharray="7.71,1.89"/><line x1="11.56" y1="6.47" x2="11.56" y2="37.43" stroke="rgb(228,124,58)" stroke-width="1.22" stroke-linecap="butt" stroke-dasharray="7.71,1.89"/><line x1="14.87" y1="6.47" x2="14.87" y2="37.43" stroke="rgb(228,124,58)" stroke-width="1.22" stroke-linecap="butt" stroke-dasharray="7.71,1.89"/></g><rect x="32.45" y="36.19" width="26.43" height="22.69" fill="rgb(113,124,133)" transform="matrix(1,0.5000,-1,0.5000,64.00,141.85)"/><circle cx="65.91" cy="195.96" r="1.8560199635103345" fill="rgb(208,72,9)" fill-opacity="0.6888783298665658"/><circle cx="62.03" cy="184.85" r="1.4009483605623245" fill="rgb(208,72,9)" fill-opacity="0.6426020554732532"/><circle cx="60.08" cy="194.25" r="1.3451483331620695" fill="rgb(208,72,9)" fill-opacity="0.7844316734583117"/><circle cx="58.46" cy="185.36" r="1.332161494717002" fill="rgb(208,72,9)" fill-opacity="0.8392827289178968"/><circle cx="62.60" cy="193.04" r="1.6619241857901217" fill="rgb(208,72,9)" fill-opacity="0.9345124330138788"/></g></svg>