<svg xmlns="http://www.w3.org/2000/svg" version="1.1" width="128" height="210"><g><rect x="4.16" y="4.16" width="55.68" height="25.43" fill="rgba(0,0,0,0.20)" transform="matrix(1,0.5000,-1,0.5000,66.50,140.16)"/><g transform="translate(94.25,136.12) skewY(-26.565)"><rect x="0" y="0" width="19.67" height="43.38" fill="rgb(39,45,49)"/><line x1="4.60" y1="8.13" x2="15.07" y2="8.13" stroke="rgb(248,132,68)" stroke-width="1.69" stroke-linecap="butt"/><line x1="4.60" y1="13.56" x2="15.07" y2="13.56" stroke="rgb(248,132,68)" stroke-width="1.69" stroke-linecap="butt"/><line x1="4.60" y1="18.98" x2="15.07" y2="18.98" stroke="rgb(248,132,68)" stroke-width="1.69" stroke-linecap="butt"/><line x1="4.60" y1="24.40" x2="15.07" y2="24.40" stroke="rgb(248,132,68)" stroke-width="1.69" stroke-linecap="butt"/><line x1="4.60" y1="29.82" x2="15.07" y2="29.82" stroke="rgb(248,132,68)" stroke-width="1.69" stroke-linecap="butt"/></g><g transform="translate(44.33,111.16) skewY(26.565)"><rect x="0" y="0" width="49.92" height="43.38" fill="rgb(71,82,90)"/><line x1="17.83" y1="6.90" x2="17.83" y2="36.48" stroke="rgb(239,152,55)" stroke-width="1.4" stroke-linecap="butt" stroke-dasharray="2.95,5.14"/><line x1="24.96" y1="6.90" x2="24.96" y2="36.48" stroke="rgb(239,152,55)" stroke-width="1.4" stroke-linecap="butt" stroke-dasharray="2.95,5.14"/><line x1="32.09" y1="6.90" x2="32.09" y2="36.48" stroke="rgb(239,152,55)" stroke-width="1.4" stroke-linecap="butt" stroke-dasharray="2.95,5.14"/><line x1="39.22" y1="6.90" x2="39.22" y2="36.48" stroke="rgb(239,152,55)" stroke-width="1.4" stroke-linecap="butt" stroke-dasharray="2.95,5.14"/></g><rect x="7.04" y="7.04" width="49.92" height="19.67" fill="rgb(102,115,125)" transform="matrix(1,0.5000,-1,0.5000,64.00,94.28)"/><circle cx="62.91" cy="109.94" r="1.3477603130042555" fill="rgb(208,72,9)" fill-opacity="0.8123013364849613"/><circle cx="70.44" cy="114.67" r="1.8656553534790876" fill="rgb(208,72,9)" fill-opacity="0.7623372212634423"/><circle cx="65.97" cy="111.90" r="1.3602651774883272" fill="rgb(208,72,9)" fill-opacity="0.7452184222289362"/><rect x="4.16" y="28.72" width="55.68" height="31.12" fill="rgba(0,0,0,0.20)" transform="matrix(1,0.5000,-1,0.5000,66.50,140.16)"/><g transform="translate(64.00,152.23) skewY(-26.565)"><rect x="0" y="0" width="25.36" height="42.39" fill="rgb(39,45,49)"/><line x1="1.58" y1="8.04" x2="1.58" y2="34.35" stroke="rgb(244,150,74)" stroke-width="1.79" stroke-linecap="butt"/><line x1="4.75" y1="8.04" x2="4.75" y2="34.35" stroke="rgb(244,150,74)" stroke-width="1.79" stroke-linecap="butt"/><line x1="7.92" y1="8.04" x2="7.92" y2="34.35" stroke="rgb(244,150,74)" stroke-width="1.79" stroke-linecap="butt"/><line x1="11.09" y1="8.04" x2="11.09" y2="34.35" stroke="rgb(244,150,74)" stroke-width="1.79" stroke-linecap="butt"/><line x1="14.26" y1="8.04" x2="14.26" y2="34.35" stroke="rgb(244,150,74)" stroke-width="1.79" stroke-linecap="butt"/></g><g transform="translate(14.08,127.27) skewY(26.565)"><rect x="0" y="0" width="49.92" height="42.39" fill="rgb(71,82,90)"/><line x1="10.64" y1="2.65" x2="39.28" y2="2.65" stroke="rgb(249,175,80)" stroke-width="1.64" stroke-linecap="butt"/><line x1="10.64" y1="7.95" x2="39.28" y2="7.95" stroke="rgb(249,175,80)" stroke-width="1.64" stroke-linecap="butt"/><line x1="10.64" y1="13.25" x2="39.28" y2="13.25" stroke="rgb(249,175,80)" stroke-width="1.64" stroke-linecap="butt"/><line x1="10.64" y1="18.54" x2="39.28" y2="18.54" stroke="rgb(249,175,80)" stroke-width="1.64" stroke-linecap="butt"/><line x1="10.64" y1="23.84" x2="39.28" y2="23.84" stroke="rgb(249,175,80)" stroke-width="1.64" stroke-linecap="butt"/><line x1="10.64" y1="29.14" x2="39.28" y2="29.14" stroke="rgb(249,175,80)" stroke-width="1.64" stroke-linecap="butt"/></g><rect x="7.04" y="31.60" width="49.92" height="25.36" fill="rgb(102,115,125)" transform="matrix(1,0.5000,-1,0.5000,64.00,95.27)"/><g transform="translate(64.00,107.88) skewY(-26.565)"><rect x="0" y="0" width="25.36" height="44.35" fill="rgb(39,45,49)"/><line x1="12.68" y1="9.25" x2="12.68" y2="35.10" stroke="rgb(248,138,80)" stroke-width="1.06" stroke-linecap="butt"/><line x1="16.30" y1="9.25" x2="16.30" y2="35.10" stroke="rgb(248,138,80)" stroke-width="1.06" stroke-linecap="butt"/><line x1="19.92" y1="9.25" x2="19.92" y2="35.10" stroke="rgb(248,138,80)" stroke-width="1.06" stroke-linecap="butt"/></g><g transform="translate(14.08,82.92) skewY(26.565)"><rect x="0" y="0" width="49.92" height="44.35" fill="rgb(71,81,90)"/><line x1="15.60" y1="7.63" x2="15.60" y2="36.72" stroke="rgb(245,136,90)" stroke-width="1.46" stroke-linecap="butt"/><line x1="21.84" y1="7.63" x2="21.84" y2="36.72" stroke="rgb(245,136,90)" stroke-width="1.46" stroke-linecap="butt"/><line x1="28.08" y1="7.63" x2="28.08" y2="36.72" stroke="rgb(245,136,90)" stroke-width="1.46" stroke-linecap="butt"/><line x1="34.32" y1="7.63" x2="34.32" y2="36.72" stroke="rgb(245,136,90)" stroke-width="1.46" stroke-linecap="butt"/><line x1="40.56" y1="7.63" x2="40.56" y2="36.72" stroke="rgb(245,136,90)" stroke-width="1.46" stroke-linecap="butt"/></g><rect x="7.04" y="31.60" width="49.92" height="25.36" fill="rgb(102,114,125)" transform="matrix(1,0.5000,-1,0.5000,64.00,50.92)"/><g transform="translate(64.00,60.74) skewY(-26.565)"><rect x="0" y="0" width="25.36" height="47.14" fill="rgb(39,46,49)"/><line x1="1.81" y1="9.83" x2="1.81" y2="37.31" stroke="rgb(237,131,44)" stroke-width="1.07" stroke-linecap="butt"/><line x1="5.43" y1="9.83" x2="5.43" y2="37.31" stroke="rgb(237,131,44)" stroke-width="1.07" stroke-linecap="butt"/><line x1="9.06" y1="9.83" x2="9.06" y2="37.31" stroke="rgb(237,131,44)" stroke-width="1.07" stroke-linecap="butt"/><line x1="12.68" y1="9.83" x2="12.68" y2="37.31" stroke="rgb(237,131,44)" stroke-width="1.07" stroke-linecap="butt"/><line x1="16.30" y1="9.83" x2="16.30" y2="37.31" stroke="rgb(237,131,44)" stroke-width="1.07" stroke-linecap="butt"/><line x1="19.92" y1="9.83" x2="19.92" y2="37.31" stroke="rgb(237,131,44)" stroke-width="1.07" stroke-linecap="butt"/></g><g transform="translate(14.08,35.78) skewY(26.565)"><rect x="0" y="0" width="49.92" height="47.14" fill="rgb(71,83,90)"/><line x1="7.87" y1="3.37" x2="42.05" y2="3.37" stroke="rgb(245,136,92)" stroke-width="1.67" stroke-linecap="butt"/><line x1="7.87" y1="10.10" x2="42.05" y2="10.10" stroke="rgb(245,136,92)" stroke-width="1.67" stroke-linecap="butt"/><line x1="7.87" y1="16.84" x2="42.05" y2="16.84" stroke="rgb(245,136,92)" stroke-width="1.67" stroke-linecap="butt"/><line x1="7.87" y1="23.57" x2="42.05" y2="23.57" stroke="rgb(245,136,92)" stroke-width="1.67" stroke-linecap="butt"/><line x1="7.87" y1="30.31" x2="42.05" y2="30.31" stroke="rgb(245,136,92)" stroke-width="1.67" stroke-linecap="butt"/><line x1="7.87" y1="37.04" x2="42.05" y2="37.04" stroke="rgb(245,136,92)" stroke-width="1.67" stroke-linecap="butt"/></g><rect x="7.04" y="31.60" width="49.92" height="25.36" fill="rgb(102,117,125)" transform="matrix(1,0.5000,-1,0.5000,64.00,3.78)"/><circle cx="44.17" cy="46.38" r="1.7624910943210126" fill="rgb(208,72,9)" fill-opacity="0.7153866982087493"/><circle cx="34.23" cy="40.78" r="1.8533554956316949" fill="rgb(208,72,9)" fill-opacity="0.4956284688320011"/><circle cx="49.35" cy="37.26" r="1.821529816091061" fill="rgb(208,72,9)" fill-opacity="0.6896097003365868"/><circle cx="42.50" cy="42.94" r="1.6904143262654543" fill="rgb(208,72,9)" fill-opacity="0.7537769814371131"/><circle cx="72.40" cy="43.48" r="1.1048424547538163" fill="rgb(208,72,9)" fill-opacity="0.9687491189339199"/><circle cx="58.00" cy="52.57" r="1.7625001573935153" fill="rgb(208,72,9)" fill-opacity="0.9359371755155735"/><circle cx="55.18" cy="50.27" r="1.385455882921815" fill="rgb(208,72,9)" fill-opacity="0.7055598690407351"/></g></svg>