<svg xmlns="http://www.w3.org/2000/svg" version="1.1" width="128" height="260"><g><rect x="2.24" y="2.24" width="59.52" height="36.75" fill="rgba(0,0,0,0.20)" transform="matrix(1,0.5000,-1,0.5000,66.50,188.24)"/><g transform="translate(86.77,188.88) skewY(-26.565)"><rect x="0" y="0" width="30.99" height="44.36" fill="rgb(44,49,52)"/><line x1="6.58" y1="3.17" x2="24.41" y2="3.17" stroke="rgb(248,165,96)" stroke-width="1.28" stroke-linecap="butt" stroke-dasharray="2.80,3.72"/><line x1="6.58" y1="9.51" x2="24.41" y2="9.51" stroke="rgb(248,165,96)" stroke-width="1.28" stroke-linecap="butt" stroke-dasharray="2.80,3.72"/><line x1="6.58" y1="15.84" x2="24.41" y2="15.84" stroke="rgb(248,165,96)" stroke-width="1.28" stroke-linecap="butt" stroke-dasharray="2.80,3.72"/><line x1="6.58" y1="22.18" x2="24.41" y2="22.18" stroke="rgb(248,165,96)" stroke-width="1.28" stroke-linecap="butt" stroke-dasharray="2.80,3.72"/><line x1="6.58" y1="28.52" x2="24.41" y2="28.52" stroke="rgb(248,165,96)" stroke-width="1.28" stroke-linecap="butt" stroke-dasharray="2.80,3.72"/><line x1="6.58" y1="34.85" x2="24.41" y2="34.85" stroke="rgb(248,165,96)" stroke-width="1.28" stroke-linecap="butt" stroke-dasharray="2.80,3.72"/></g><g transform="translate(33.01,162.00) skewY(26.565)"><rect x="0" y="0" width="53.76" height="44.36" fill="rgb(80,88,94)"/><line x1="8.35" y1="22.18" x2="45.41" y2="22.18" stroke="rgb(242,122,80)" stroke-width="1.05" stroke-linecap="butt"/><line x1="8.35" y1="28.52" x2="45.41" y2="28.52" stroke="rgb(242,122,80)" stroke-width="1.05" stroke-linecap="butt"/><line x1="8.35" y1="34.85" x2="45.41" y2="34.85" stroke="rgb(242,122,80)" stroke-width="1.05" stroke-linecap="butt"/><line x1="8.35" y1="41.19" x2="45.41" y2="41.19" stroke="rgb(242,122,80)" stroke-width="1.05" stroke-linecap="butt"/></g><rect x="5.12" y="5.12" width="53.76" height="30.99" fill="rgb(112,122,128)" transform="matrix(1,0.5000,-1,0.5000,64.00,141.38)"/><circle cx="69.50" cy="155.90" r="1.1772073913365604" fill="rgb(208,72,9)" fill-opacity="0.94057518360205"/><circle cx="81.94" cy="173.06" r="1.6270577909424904" fill="rgb(208,72,9)" fill-opacity="0.9307353894459084"/><circle cx="48.35" cy="160.83" r="1.2715189699083567" fill="rgb(208,72,9)" fill-opacity="0.4923431388684549"/><circle cx="79.89" cy="173.99" r="1.272856826707721" fill="rgb(208,72,9)" fill-opacity="0.8907412471366115"/><circle cx="89.78" cy="170.90" r="1.3077913280576468" fill="rgb(208,72,9)" fill-opacity="0.775111563084647"/><circle cx="95.97" cy="172.93" r="1.1168261477723718" fill="rgb(208,72,9)" fill-opacity="0.9534839094383643"/><circle cx="83.38" cy="162.89" r="1.2980094639584423" fill="rgb(208,72,9)" fill-opacity="0.9860719372518361"/><rect x="2.24" y="36.35" width="59.52" height="25.41" fill="rgba(0,0,0,0.20)" transform="matrix(1,0.5000,-1,0.5000,66.50,188.24)"/><g transform="translate(64.00,196.42) skewY(-26.565)"><rect x="0" y="0" width="19.65" height="48.20" fill="rgb(44,49,52)"/><line x1="4.50" y1="21.09" x2="15.15" y2="21.09" stroke="rgb(241,138,102)" stroke-width="1.41" stroke-linecap="butt"/><line x1="4.50" y1="27.12" x2="15.15" y2="27.12" stroke="rgb(241,138,102)" stroke-width="1.41" stroke-linecap="butt"/><line x1="4.50" y1="33.14" x2="15.15" y2="33.14" stroke="rgb(241,138,102)" stroke-width="1.41" stroke-linecap="butt"/></g><g transform="translate(10.24,169.54) skewY(26.565)"><rect x="0" y="0" width="53.76" height="48.20" fill="rgb(80,89,94)"/><line x1="23.52" y1="8.88" x2="23.52" y2="39.32" stroke="rgb(234,123,93)" stroke-width="1.57" stroke-linecap="butt"/><line x1="30.24" y1="8.88" x2="30.24" y2="39.32" stroke="rgb(234,123,93)" stroke-width="1.57" stroke-linecap="butt"/></g><rect x="5.12" y="39.23" width="53.76" height="19.65" fill="rgb(112,122,128)" transform="matrix(1,0.5000,-1,0.5000,64.00,137.54)"/><g transform="translate(64.00,157.83) skewY(-26.565)"><rect x="0" y="0" width="19.65" height="38.58" fill="rgb(44,49,52)"/><line x1="1.23" y1="6.25" x2="1.23" y2="32.34" stroke="rgb(236,75,48)" stroke-width="1.75" stroke-linecap="butt" stroke-dasharray="4.78,3.18"/><line x1="3.68" y1="6.25" x2="3.68" y2="32.34" stroke="rgb(236,75,48)" stroke-width="1.75" stroke-linecap="butt" stroke-dasharray="4.78,3.18"/><line x1="6.14" y1="6.25" x2="6.14" y2="32.34" stroke="rgb(236,75,48)" stroke-width="1.75" stroke-linecap="butt" stroke-dasharray="4.78,3.18"/><line x1="8.60" y1="6.25" x2="8.60" y2="32.34" stroke="rgb(236,75,48)" stroke-width="1.75" stroke-linecap="butt" stroke-dasharray="4.78,3.18"/><line x1="11.05" y1="6.25" x2="11.05" y2="32.34" stroke="rgb(236,75,48)" stroke-width="1.75" stroke-linecap="butt" stroke-dasharray="4.78,3.18"/><line x1="13.51" y1="6.25" x2="13.51" y2="32.34" stroke="rgb(236,75,48)" stroke-width="1.75" stroke-linecap="butt" stroke-dasharray="4.78,3.18"/><line x1="15.97" y1="6.25" x2="15.97" y2="32.34" stroke="rgb(236,75,48)" stroke-width="1.75" stroke-linecap="butt" stroke-dasharray="4.78,3.18"/><line x1="18.42" y1="6.25" x2="18.42" y2="32.34" stroke="rgb(236,75,48)" stroke-width="1.75" stroke-linecap="butt" stroke-dasharray="4.78,3.18"/></g><g transform="translate(10.24,130.95) skewY(26.565)"><rect x="0" y="0" width="53.76" height="38.58" fill="rgb(80,88,94)"/><line x1="26.88" y1="5.69" x2="26.88" y2="32.89" stroke="rgb(250,108,67)" stroke-width="1.21" stroke-linecap="butt"/><line x1="34.56" y1="5.69" x2="34.56" y2="32.89" stroke="rgb(250,108,67)" stroke-width="1.21" stroke-linecap="butt"/></g><rect x="5.12" y="39.23" width="53.76" height="19.65" fill="rgb(112,122,128)" transform="matrix(1,0.5000,-1,0.5000,64.00,98.95)"/><g transform="translate(64.00,112.63) skewY(-26.565)"><rect x="0" y="0" width="19.65" height="45.20" fill="rgb(44,48,52)"/><line x1="9.82" y1="10.24" x2="9.82" y2="34.96" stroke="rgb(241,140,82)" stroke-width="1.11" stroke-linecap="butt"/></g><g transform="translate(10.24,85.75) skewY(26.565)"><rect x="0" y="0" width="53.76" height="45.20" fill="rgb(80,88,94)"/><line x1="9.31" y1="9.69" x2="44.45" y2="9.69" stroke="rgb(248,156,98)" stroke-width="1.71" stroke-linecap="butt"/><line x1="9.31" y1="16.14" x2="44.45" y2="16.14" stroke="rgb(248,156,98)" stroke-width="1.71" stroke-linecap="butt"/><line x1="9.31" y1="22.60" x2="44.45" y2="22.60" stroke="rgb(248,156,98)" stroke-width="1.71" stroke-linecap="butt"/><line x1="9.31" y1="29.06" x2="44.45" y2="29.06" stroke="rgb(248,156,98)" stroke-width="1.71" stroke-linecap="butt"/><line x1="9.31" y1="35.52" x2="44.45" y2="35.52" stroke="rgb(248,156,98)" stroke-width="1.71" stroke-linecap="butt"/><line x1="9.31" y1="41.97" x2="44.45" y2="41.97" stroke="rgb(248,156,98)" stroke-width="1.71" stroke-linecap="butt"/></g><rect x="5.12" y="39.23" width="53.76" height="19.65" fill="rgb(112,121,128)" transform="matrix(1,0.5000,-1,0.5000,64.00,53.75)"/><g transform="translate(61.50,64.21) skewY(-26.565)"><rect x="0" y="0" width="11.79" height="43.24" fill="rgb(44,48,52)"/><line x1="2.01" y1="2.70" x2="9.78" y2="2.70" stroke="rgb(244,97,52)" stroke-width="1.08" stroke-linecap="butt" stroke-dasharray="5.88,3.82"/><line x1="2.01" y1="8.11" x2="9.78" y2="8.11" stroke="rgb(244,97,52)" stroke-width="1.08" stroke-linecap="butt" stroke-dasharray="5.88,3.82"/><line x1="2.01" y1="13.51" x2="9.78" y2="13.51" stroke="rgb(244,97,52)" stroke-width="1.08" stroke-linecap="butt" stroke-dasharray="5.88,3.82"/><line x1="2.01" y1="18.92" x2="9.78" y2="18.92" stroke="rgb(244,97,52)" stroke-width="1.08" stroke-linecap="butt" stroke-dasharray="5.88,3.82"/><line x1="2.01" y1="24.32" x2="9.78" y2="24.32" stroke="rgb(244,97,52)" stroke-width="1.08" stroke-linecap="butt" stroke-dasharray="5.88,3.82"/></g><g transform="translate(20.60,43.76) skewY(26.565)"><rect x="0" y="0" width="40.90" height="43.24" fill="rgb(80,88,94)"/><line x1="7.73" y1="8.11" x2="33.17" y2="8.11" stroke="rgb(249,114,86)" stroke-width="1.36" stroke-linecap="butt" stroke-dasharray="6.41,3.25"/><line x1="7.73" y1="13.51" x2="33.17" y2="13.51" stroke="rgb(249,114,86)" stroke-width="1.36" stroke-linecap="butt" stroke-dasharray="6.41,3.25"/><line x1="7.73" y1="18.92" x2="33.17" y2="18.92" stroke="rgb(249,114,86)" stroke-width="1.36" stroke-linecap="butt" stroke-dasharray="6.41,3.25"/><line x1="7.73" y1="24.32" x2="33.17" y2="24.32" stroke="rgb(249,114,86)" stroke-width="1.36" stroke-linecap="butt" stroke-dasharray="6.41,3.25"/></g><rect x="11.55" y="43.16" width="40.90" height="11.79" fill="rgb(112,121,128)" transform="matrix(1,0.5000,-1,0.5000,64.00,10.51)"/><circle cx="45.18" cy="52.62" r="1.8663007210940123" fill="rgb(208,72,9)" fill-opacity="0.6047047055908479"/><circle cx="36.48" cy="47.93" r="1.8279160249978306" fill="rgb(208,72,9)" fill-opacity="0.9106575758196414"/><circle cx="44.30" cy="47.76" r="1.708743502944708" fill="rgb(208,72,9)" fill-opacity="0.507013355626259"/><circle cx="59.91" cy="55.57" r="1.3276710594072938" fill="rgb(208,72,9)" fill-opacity="0.5010731559596024"/></g></svg>