<svg xmlns="http://www.w3.org/2000/svg" version="1.1" width="128" height="260"><g><rect x="2.24" y="2.24" width="59.52" height="59.52" fill="rgba(0,0,0,0.20)" transform="matrix(1,0.5000,-1,0.5000,66.50,188.24)"/><g transform="translate(64.00,200.83) skewY(-26.565)"><rect x="0" y="0" width="53.76" height="43.79" fill="rgb(40,43,46)"/><line x1="10.08" y1="9.46" x2="10.08" y2="34.34" stroke="rgb(243,101,76)" stroke-width="1.1" stroke-linecap="butt"/><line x1="16.80" y1="9.46" x2="16.80" y2="34.34" stroke="rgb(243,101,76)" stroke-width="1.1" stroke-linecap="butt"/><line x1="23.52" y1="9.46" x2="23.52" y2="34.34" stroke="rgb(243,101,76)" stroke-width="1.1" stroke-linecap="butt"/><line x1="30.24" y1="9.46" x2="30.24" y2="34.34" stroke="rgb(243,101,76)" stroke-width="1.1" stroke-linecap="butt"/><line x1="36.96" y1="9.46" x2="36.96" y2="34.34" stroke="rgb(243,101,76)" stroke-width="1.1" stroke-linecap="butt"/><line x1="43.68" y1="9.46" x2="43.68" y2="34.34" stroke="rgb(243,101,76)" stroke-width="1.1" stroke-linecap="butt"/><line x1="50.40" y1="9.46" x2="50.40" y2="34.34" stroke="rgb(243,101,76)" stroke-width="1.1" stroke-linecap="butt"/></g><g transform="translate(10.24,173.95) skewY(26.565)"><rect x="0" y="0" width="53.76" height="43.79" fill="rgb(72,77,84)"/><line x1="11.05" y1="8.21" x2="42.71" y2="8.21" stroke="rgb(234,82,52)" stroke-width="1.03" stroke-linecap="butt"/><line x1="11.05" y1="13.68" x2="42.71" y2="13.68" stroke="rgb(234,82,52)" stroke-width="1.03" stroke-linecap="butt"/><line x1="11.05" y1="19.16" x2="42.71" y2="19.16" stroke="rgb(234,82,52)" stroke-width="1.03" stroke-linecap="butt"/><line x1="11.05" y1="24.63" x2="42.71" y2="24.63" stroke="rgb(234,82,52)" stroke-width="1.03" stroke-linecap="butt"/><line x1="11.05" y1="30.11" x2="42.71" y2="30.11" stroke="rgb(234,82,52)" stroke-width="1.03" stroke-linecap="butt"/><line x1="11.05" y1="35.58" x2="42.71" y2="35.58" stroke="rgb(234,82,52)" stroke-width="1.03" stroke-linecap="butt"/><line x1="11.05" y1="41.05" x2="42.71" y2="41.05" stroke="rgb(234,82,52)" stroke-width="1.03" stroke-linecap="butt"/></g><rect x="5.12" y="5.12" width="53.76" height="53.76" fill="rgb(104,110,119)" transform="matrix(1,0.5000,-1,0.5000,64.00,141.95)"/><circle cx="86.45" cy="179.17" r="1.6799021260812879" fill="rgb(208,72,9)" fill-opacity="0.5712327936431393"/><circle cx="66.91" cy="166.49" r="1.6615414161235096" fill="rgb(208,72,9)" fill-opacity="0.4602624774328433"/><circle cx="82.27" cy="165.53" r="1.2520778983831407" fill="rgb(208,72,9)" fill-opacity="0.677864676178433"/><circle cx="61.81" cy="158.94" r="1.3097707262262703" fill="rgb(208,72,9)" fill-opacity="0.9580166408326478"/></g></svg>