<svg xmlns="http://www.w3.org/2000/svg" version="1.1" width="128" height="210"><g><rect x="4.16" y="4.16" width="55.68" height="55.68" fill="rgba(0,0,0,0.20)" transform="matrix(1,0.5000,-1,0.5000,66.50,140.16)"/><g transform="translate(64.00,151.10) skewY(-26.565)"><rect x="0" y="0" width="49.92" height="43.52" fill="rgb(47,51,53)"/><line x1="11.62" y1="8.16" x2="38.30" y2="8.16" stroke="rgb(246,155,70)" stroke-width="1.8" stroke-linecap="butt"/><line x1="11.62" y1="13.60" x2="38.30" y2="13.60" stroke="rgb(246,155,70)" stroke-width="1.8" stroke-linecap="butt"/><line x1="11.62" y1="19.04" x2="38.30" y2="19.04" stroke="rgb(246,155,70)" stroke-width="1.8" stroke-linecap="butt"/><line x1="11.62" y1="24.48" x2="38.30" y2="24.48" stroke="rgb(246,155,70)" stroke-width="1.8" stroke-linecap="butt"/><line x1="11.62" y1="29.92" x2="38.30" y2="29.92" stroke="rgb(246,155,70)" stroke-width="1.8" stroke-linecap="butt"/></g><g transform="translate(14.08,126.14) skewY(26.565)"><rect x="0" y="0" width="49.92" height="43.52" fill="rgb(86,92,96)"/><line x1="11.44" y1="9.33" x2="38.48" y2="9.33" stroke="rgb(231,124,76)" stroke-width="1.22" stroke-linecap="butt"/><line x1="11.44" y1="15.54" x2="38.48" y2="15.54" stroke="rgb(231,124,76)" stroke-width="1.22" stroke-linecap="butt"/><line x1="11.44" y1="21.76" x2="38.48" y2="21.76" stroke="rgb(231,124,76)" stroke-width="1.22" stroke-linecap="butt"/><line x1="11.44" y1="27.98" x2="38.48" y2="27.98" stroke="rgb(231,124,76)" stroke-width="1.22" stroke-linecap="butt"/><line x1="11.44" y1="34.20" x2="38.48" y2="34.20" stroke="rgb(231,124,76)" stroke-width="1.22" stroke-linecap="butt"/></g><rect x="7.04" y="7.04" width="49.92" height="49.92" fill="rgb(119,125,130)" transform="matrix(1,0.5000,-1,0.5000,64.00,94.14)"/><g transform="translate(64.00,113.26) skewY(-26.565)"><rect x="0" y="0" width="49.92" height="37.83" fill="rgb(47,51,53)"/><line x1="15.60" y1="6.36" x2="15.60" y2="31.47" stroke="rgb(236,151,95)" stroke-width="1.01" stroke-linecap="butt"/><line x1="21.84" y1="6.36" x2="21.84" y2="31.47" stroke="rgb(236,151,95)" stroke-width="1.01" stroke-linecap="butt"/><line x1="28.08" y1="6.36" x2="28.08" y2="31.47" stroke="rgb(236,151,95)" stroke-width="1.01" stroke-linecap="butt"/><line x1="34.32" y1="6.36" x2="34.32" y2="31.47" stroke="rgb(236,151,95)" stroke-width="1.01" stroke-linecap="butt"/><line x1="40.56" y1="6.36" x2="40.56" y2="31.47" stroke="rgb(236,151,95)" stroke-width="1.01" stroke-linecap="butt"/></g><g transform="translate(14.08,88.30) skewY(26.565)"><rect x="0" y="0" width="49.92" height="37.83" fill="rgb(86,92,96)"/><line x1="3.12" y1="5.86" x2="3.12" y2="31.97" stroke="rgb(238,122,68)" stroke-width="1.68" stroke-linecap="butt"/><line x1="9.36" y1="5.86" x2="9.36" y2="31.97" stroke="rgb(238,122,68)" stroke-width="1.68" stroke-linecap="butt"/><line x1="15.60" y1="5.86" x2="15.60" y2="31.97" stroke="rgb(238,122,68)" stroke-width="1.68" stroke-linecap="butt"/><line x1="21.84" y1="5.86" x2="21.84" y2="31.97" stroke="rgb(238,122,68)" stroke-width="1.68" stroke-linecap="butt"/><line x1="28.08" y1="5.86" x2="28.08" y2="31.97" stroke="rgb(238,122,68)" stroke-width="1.68" stroke-linecap="butt"/><line x1="34.32" y1="5.86" x2="34.32" y2="31.97" stroke="rgb(238,122,68)" stroke-width="1.68" stroke-linecap="butt"/></g><rect x="7.04" y="7.04" width="49.92" height="49.92" fill="rgb(119,126,130)" transform="matrix(1,0.5000,-1,0.5000,64.00,56.30)"/><circle cx="70.21" cy="80.44" r="1.4329167507588865" fill="rgb(208,72,9)" fill-opacity="0.4825334997964092"/><circle cx="92.63" cy="83.23" r="1.1238819191232325" fill="rgb(208,72,9)" fill-opacity="0.7774636469664984"/><circle cx="66.55" cy="87.27" r="1.4357074173167348" fill="rgb(208,72,9)" fill-opacity="0.5528427404118702"/><circle cx="45.35" cy="79.83" r="1.550224955007434" fill="rgb(208,72,9)" fill-opacity="0.9736095055588521"/><circle cx="82.92" cy="87.92" r="1.5792774917557837" fill="rgb(208,72,9)" fill-opacity="0.8845358460792341"/><circle cx="38.78" cy="92.41" r="1.2628293065354228" fill="rgb(208,72,9)" fill-opacity="0.9317140967352316"/></g></svg>