<svg xmlns="http://www.w3.org/2000/svg" version="1.1" width="128" height="150"><g><rect x="6.08" y="6.08" width="51.84" height="51.84" fill="rgba(0,0,0,0.20)" transform="matrix(1,0.5000,-1,0.5000,66.50,82.08)"/><g transform="translate(64.00,94.99) skewY(-26.565)"><rect x="0" y="0" width="46.08" height="39.63" fill="rgb(42,43,49)"/><line x1="14.40" y1="7.01" x2="14.40" y2="32.62" stroke="rgb(240,118,69)" stroke-width="1.59" stroke-linecap="butt"/><line x1="20.16" y1="7.01" x2="20.16" y2="32.62" stroke="rgb(240,118,69)" stroke-width="1.59" stroke-linecap="butt"/><line x1="25.92" y1="7.01" x2="25.92" y2="32.62" stroke="rgb(240,118,69)" stroke-width="1.59" stroke-linecap="butt"/></g><g transform="translate(17.92,71.95) skewY(26.565)"><rect x="0" y="0" width="46.08" height="39.63" fill="rgb(76,79,88)"/><line x1="8.64" y1="7.42" x2="8.64" y2="32.22" stroke="rgb(237,124,78)" stroke-width="1.36" stroke-linecap="butt"/><line x1="14.40" y1="7.42" x2="14.40" y2="32.22" stroke="rgb(237,124,78)" stroke-width="1.36" stroke-linecap="butt"/><line x1="20.16" y1="7.42" x2="20.16" y2="32.22" stroke="rgb(237,124,78)" stroke-width="1.36" stroke-linecap="butt"/><line x1="25.92" y1="7.42" x2="25.92" y2="32.22" stroke="rgb(237,124,78)" stroke-width="1.36" stroke-linecap="butt"/></g><rect x="8.96" y="8.96" width="46.08" height="46.08" fill="rgb(108,112,123)" transform="matrix(1,0.5000,-1,0.5000,64.00,39.95)"/><circle cx="56.16" cy="76.77" r="1.1762918666005135" fill="rgb(208,72,9)" fill-opacity="0.8939998276880943"/><circle cx="66.61" cy="66.79" r="1.5377470299601557" fill="rgb(208,72,9)" fill-opacity="0.4833011029288173"/><circle cx="76.10" cy="69.73" r="1.5454597529023886" fill="rgb(208,72,9)" fill-opacity="0.5307515767170117"/></g></svg>