<svg xmlns="http://www.w3.org/2000/svg" version="1.1" width="128" height="262"><g><rect x="2.24" y="2.24" width="33.73" height="59.52" fill="rgba(0,0,0,0.20)" transform="matrix(1,0.5000,-1,0.5000,66.50,190.24)"/><g transform="translate(38.21,178.46) skewY(-26.565)"><rect x="0" y="0" width="53.76" height="55.27" fill="rgb(45,49,53)"/><line x1="3.84" y1="7.80" x2="3.84" y2="47.47" stroke="rgb(241,127,44)" stroke-width="1.2" stroke-linecap="butt"/><line x1="11.52" y1="7.80" x2="11.52" y2="47.47" stroke="rgb(241,127,44)" stroke-width="1.2" stroke-linecap="butt"/><line x1="19.20" y1="7.80" x2="19.20" y2="47.47" stroke="rgb(241,127,44)" stroke-width="1.2" stroke-linecap="butt"/><line x1="26.88" y1="7.80" x2="26.88" y2="47.47" stroke="rgb(241,127,44)" stroke-width="1.2" stroke-linecap="butt"/><line x1="34.56" y1="7.80" x2="34.56" y2="47.47" stroke="rgb(241,127,44)" stroke-width="1.2" stroke-linecap="butt"/><line x1="42.24" y1="7.80" x2="42.24" y2="47.47" stroke="rgb(241,127,44)" stroke-width="1.2" stroke-linecap="butt"/></g><g transform="translate(10.24,164.47) skewY(26.565)"><rect x="0" y="0" width="27.97" height="55.27" fill="rgb(82,90,97)"/><line x1="6.58" y1="17.27" x2="21.39" y2="17.27" stroke="rgb(241,79,42)" stroke-width="1.19" stroke-linecap="butt"/><line x1="6.58" y1="24.18" x2="21.39" y2="24.18" stroke="rgb(241,79,42)" stroke-width="1.19" stroke-linecap="butt"/><line x1="6.58" y1="31.09" x2="21.39" y2="31.09" stroke="rgb(241,79,42)" stroke-width="1.19" stroke-linecap="butt"/></g><rect x="5.12" y="5.12" width="27.97" height="53.76" fill="rgb(114,123,131)" transform="matrix(1,0.5000,-1,0.5000,64.00,132.47)"/><g transform="translate(38.56,130.28) skewY(-26.565)"><rect x="0" y="0" width="41.87" height="42.41" fill="rgb(45,50,53)"/><line x1="18.32" y1="9.24" x2="18.32" y2="33.17" stroke="rgb(231,127,89)" stroke-width="1.32" stroke-linecap="butt"/><line x1="23.55" y1="9.24" x2="23.55" y2="33.17" stroke="rgb(231,127,89)" stroke-width="1.32" stroke-linecap="butt"/><line x1="28.78" y1="9.24" x2="28.78" y2="33.17" stroke="rgb(231,127,89)" stroke-width="1.32" stroke-linecap="butt"/></g><g transform="translate(21.78,121.89) skewY(26.565)"><rect x="0" y="0" width="16.78" height="42.41" fill="rgb(82,90,97)"/><line x1="3.15" y1="6.87" x2="3.15" y2="35.54" stroke="rgb(240,87,67)" stroke-width="1.06" stroke-linecap="butt"/><line x1="5.24" y1="6.87" x2="5.24" y2="35.54" stroke="rgb(240,87,67)" stroke-width="1.06" stroke-linecap="butt"/><line x1="7.34" y1="6.87" x2="7.34" y2="35.54" stroke="rgb(240,87,67)" stroke-width="1.06" stroke-linecap="butt"/><line x1="9.44" y1="6.87" x2="9.44" y2="35.54" stroke="rgb(240,87,67)" stroke-width="1.06" stroke-linecap="butt"/><line x1="11.54" y1="6.87" x2="11.54" y2="35.54" stroke="rgb(240,87,67)" stroke-width="1.06" stroke-linecap="butt"/><line x1="13.63" y1="6.87" x2="13.63" y2="35.54" stroke="rgb(240,87,67)" stroke-width="1.06" stroke-linecap="butt"/><line x1="15.73" y1="6.87" x2="15.73" y2="35.54" stroke="rgb(240,87,67)" stroke-width="1.06" stroke-linecap="butt"/></g><rect x="10.71" y="11.07" width="16.78" height="41.87" fill="rgb(114,124,131)" transform="matrix(1,0.5000,-1,0.5000,64.00,90.06)"/><g transform="translate(38.56,83.55) skewY(-26.565)"><rect x="0" y="0" width="41.87" height="46.72" fill="rgb(45,49,53)"/><line x1="13.08" y1="8.41" x2="13.08" y2="38.32" stroke="rgb(237,123,61)" stroke-width="1.21" stroke-linecap="butt"/><line x1="18.32" y1="8.41" x2="18.32" y2="38.32" stroke="rgb(237,123,61)" stroke-width="1.21" stroke-linecap="butt"/><line x1="23.55" y1="8.41" x2="23.55" y2="38.32" stroke="rgb(237,123,61)" stroke-width="1.21" stroke-linecap="butt"/><line x1="28.78" y1="8.41" x2="28.78" y2="38.32" stroke="rgb(237,123,61)" stroke-width="1.21" stroke-linecap="butt"/></g><g transform="translate(21.78,75.17) skewY(26.565)"><rect x="0" y="0" width="16.78" height="46.72" fill="rgb(82,90,97)"/><line x1="1.05" y1="9.13" x2="1.05" y2="37.59" stroke="rgb(243,144,100)" stroke-width="1" stroke-linecap="butt"/><line x1="3.15" y1="9.13" x2="3.15" y2="37.59" stroke="rgb(243,144,100)" stroke-width="1" stroke-linecap="butt"/><line x1="5.24" y1="9.13" x2="5.24" y2="37.59" stroke="rgb(243,144,100)" stroke-width="1" stroke-linecap="butt"/><line x1="7.34" y1="9.13" x2="7.34" y2="37.59" stroke="rgb(243,144,100)" stroke-width="1" stroke-linecap="butt"/><line x1="9.44" y1="9.13" x2="9.44" y2="37.59" stroke="rgb(243,144,100)" stroke-width="1" stroke-linecap="butt"/><line x1="11.54" y1="9.13" x2="11.54" y2="37.59" stroke="rgb(243,144,100)" stroke-width="1" stroke-linecap="butt"/><line x1="13.63" y1="9.13" x2="13.63" y2="37.59" stroke="rgb(243,144,100)" stroke-width="1" stroke-linecap="butt"/><line x1="15.73" y1="9.13" x2="15.73" y2="37.59" stroke="rgb(243,144,100)" stroke-width="1" stroke-linecap="butt"/></g><rect x="10.71" y="11.07" width="16.78" height="41.87" fill="rgb(114,123,131)" transform="matrix(1,0.5000,-1,0.5000,64.00,43.34)"/><g transform="translate(38.56,36.11) skewY(-26.565)"><rect x="0" y="0" width="41.87" height="47.45" fill="rgb(45,49,53)"/><line x1="7.89" y1="20.76" x2="33.98" y2="20.76" stroke="rgb(240,91,60)" stroke-width="1.69" stroke-linecap="butt"/><line x1="7.89" y1="26.69" x2="33.98" y2="26.69" stroke="rgb(240,91,60)" stroke-width="1.69" stroke-linecap="butt"/></g><g transform="translate(21.78,27.72) skewY(26.565)"><rect x="0" y="0" width="16.78" height="47.45" fill="rgb(82,89,97)"/><line x1="3.32" y1="8.90" x2="13.46" y2="8.90" stroke="rgb(246,127,85)" stroke-width="1.07" stroke-linecap="butt"/><line x1="3.32" y1="14.83" x2="13.46" y2="14.83" stroke="rgb(246,127,85)" stroke-width="1.07" stroke-linecap="butt"/><line x1="3.32" y1="20.76" x2="13.46" y2="20.76" stroke="rgb(246,127,85)" stroke-width="1.07" stroke-linecap="butt"/><line x1="3.32" y1="26.69" x2="13.46" y2="26.69" stroke="rgb(246,127,85)" stroke-width="1.07" stroke-linecap="butt"/><line x1="3.32" y1="32.62" x2="13.46" y2="32.62" stroke="rgb(246,127,85)" stroke-width="1.07" stroke-linecap="butt"/><line x1="3.32" y1="38.55" x2="13.46" y2="38.55" stroke="rgb(246,127,85)" stroke-width="1.07" stroke-linecap="butt"/><line x1="3.32" y1="44.48" x2="13.46" y2="44.48" stroke="rgb(246,127,85)" stroke-width="1.07" stroke-linecap="butt"/></g><rect x="10.71" y="11.07" width="16.78" height="41.87" fill="rgb(114,123,131)" transform="matrix(1,0.5000,-1,0.5000,64.00,-4.11)"/><circle cx="46.94" cy="27.90" r="1.3717282520607115" fill="rgb(208,72,9)" fill-opacity="0.9945553532103077"/><circle cx="50.08" cy="22.02" r="1.7973198549821974" fill="rgb(208,72,9)" fill-opacity="0.549641886993777"/><circle cx="36.52" cy="24.94" r="1.4866295212879779" fill="rgb(208,72,9)" fill-opacity="0.996849474462215"/><circle cx="68.00" cy="14.85" r="1.2459396542981267" fill="rgb(208,72,9)" fill-opacity="0.8331691254163162"/><circle cx="46.03" cy="28.01" r="1.5088130325078966" fill="rgb(208,72,9)" fill-opacity="0.4548989884671755"/><circle cx="51.82" cy="19.58" r="1.546083826199174" fill="rgb(208,72,9)" fill-opacity="0.45012024679454044"/><circle cx="58.21" cy="22.49" r="1.6658165385946633" fill="rgb(208,72,9)" fill-opacity="0.9300520367105491"/><rect x="32.48" y="2.24" width="29.28" height="59.52" fill="rgba(0,0,0,0.20)" transform="matrix(1,0.5000,-1,0.5000,66.50,190.24)"/><g transform="translate(64.00,206.85) skewY(-26.565)"><rect x="0" y="0" width="53.76" height="39.77" fill="rgb(45,49,53)"/><line x1="26.88" y1="8.87" x2="26.88" y2="30.90" stroke="rgb(234,149,99)" stroke-width="1.16" stroke-linecap="butt"/><line x1="34.56" y1="8.87" x2="34.56" y2="30.90" stroke="rgb(234,149,99)" stroke-width="1.16" stroke-linecap="butt"/><line x1="42.24" y1="8.87" x2="42.24" y2="30.90" stroke="rgb(234,149,99)" stroke-width="1.16" stroke-linecap="butt"/><line x1="49.92" y1="8.87" x2="49.92" y2="30.90" stroke="rgb(234,149,99)" stroke-width="1.16" stroke-linecap="butt"/></g><g transform="translate(40.48,195.09) skewY(26.565)"><rect x="0" y="0" width="23.52" height="39.77" fill="rgb(82,90,97)"/><line x1="4.77" y1="17.40" x2="18.75" y2="17.40" stroke="rgb(245,114,65)" stroke-width="1.07" stroke-linecap="butt"/><line x1="4.77" y1="22.37" x2="18.75" y2="22.37" stroke="rgb(245,114,65)" stroke-width="1.07" stroke-linecap="butt"/></g><rect x="35.36" y="5.12" width="23.52" height="53.76" fill="rgb(114,123,131)" transform="matrix(1,0.5000,-1,0.5000,64.00,147.97)"/><g transform="translate(64.00,156.94) skewY(-26.565)"><rect x="0" y="0" width="53.76" height="49.92" fill="rgb(45,49,53)"/><line x1="16.80" y1="9.24" x2="16.80" y2="40.68" stroke="rgb(247,101,40)" stroke-width="1.5" stroke-linecap="butt"/><line x1="23.52" y1="9.24" x2="23.52" y2="40.68" stroke="rgb(247,101,40)" stroke-width="1.5" stroke-linecap="butt"/><line x1="30.24" y1="9.24" x2="30.24" y2="40.68" stroke="rgb(247,101,40)" stroke-width="1.5" stroke-linecap="butt"/></g><g transform="translate(40.48,145.18) skewY(26.565)"><rect x="0" y="0" width="23.52" height="49.92" fill="rgb(82,89,97)"/><line x1="11.76" y1="9.61" x2="11.76" y2="40.30" stroke="rgb(228,123,66)" stroke-width="1.17" stroke-linecap="butt"/><line x1="15.12" y1="9.61" x2="15.12" y2="40.30" stroke="rgb(228,123,66)" stroke-width="1.17" stroke-linecap="butt"/></g><rect x="35.36" y="5.12" width="23.52" height="53.76" fill="rgb(114,122,131)" transform="matrix(1,0.5000,-1,0.5000,64.00,98.06)"/><g transform="translate(67.07,105.50) skewY(-26.565)"><rect x="0" y="0" width="38.21" height="45.20" fill="rgb(45,49,53)"/><line x1="2.73" y1="7.70" x2="2.73" y2="37.50" stroke="rgb(243,130,49)" stroke-width="1.77" stroke-linecap="butt"/><line x1="8.19" y1="7.70" x2="8.19" y2="37.50" stroke="rgb(243,130,49)" stroke-width="1.77" stroke-linecap="butt"/><line x1="13.65" y1="7.70" x2="13.65" y2="37.50" stroke="rgb(243,130,49)" stroke-width="1.77" stroke-linecap="butt"/><line x1="19.10" y1="7.70" x2="19.10" y2="37.50" stroke="rgb(243,130,49)" stroke-width="1.77" stroke-linecap="butt"/><line x1="24.56" y1="7.70" x2="24.56" y2="37.50" stroke="rgb(243,130,49)" stroke-width="1.77" stroke-linecap="butt"/><line x1="30.02" y1="7.70" x2="30.02" y2="37.50" stroke="rgb(243,130,49)" stroke-width="1.77" stroke-linecap="butt"/><line x1="35.48" y1="7.70" x2="35.48" y2="37.50" stroke="rgb(243,130,49)" stroke-width="1.77" stroke-linecap="butt"/></g><g transform="translate(52.96,98.44) skewY(26.565)"><rect x="0" y="0" width="14.11" height="45.20" fill="rgb(82,89,97)"/><line x1="3.02" y1="10.27" x2="3.02" y2="34.93" stroke="rgb(230,85,62)" stroke-width="1.56" stroke-linecap="butt"/><line x1="5.04" y1="10.27" x2="5.04" y2="34.93" stroke="rgb(230,85,62)" stroke-width="1.56" stroke-linecap="butt"/><line x1="7.06" y1="10.27" x2="7.06" y2="34.93" stroke="rgb(230,85,62)" stroke-width="1.56" stroke-linecap="butt"/><line x1="9.07" y1="10.27" x2="9.07" y2="34.93" stroke="rgb(230,85,62)" stroke-width="1.56" stroke-linecap="butt"/><line x1="11.09" y1="10.27" x2="11.09" y2="34.93" stroke="rgb(230,85,62)" stroke-width="1.56" stroke-linecap="butt"/></g><rect x="40.06" y="12.90" width="14.11" height="38.21" fill="rgb(114,122,131)" transform="matrix(1,0.5000,-1,0.5000,64.00,52.86)"/><g transform="translate(67.07,59.02) skewY(-26.565)"><rect x="0" y="0" width="38.21" height="46.48" fill="rgb(45,49,53)"/><line x1="19.10" y1="10.24" x2="19.10" y2="36.24" stroke="rgb(233,132,98)" stroke-width="1.28" stroke-linecap="butt"/><line x1="24.56" y1="10.24" x2="24.56" y2="36.24" stroke="rgb(233,132,98)" stroke-width="1.28" stroke-linecap="butt"/><line x1="30.02" y1="10.24" x2="30.02" y2="36.24" stroke="rgb(233,132,98)" stroke-width="1.28" stroke-linecap="butt"/><line x1="35.48" y1="10.24" x2="35.48" y2="36.24" stroke="rgb(233,132,98)" stroke-width="1.28" stroke-linecap="butt"/></g><g transform="translate(52.96,51.96) skewY(26.565)"><rect x="0" y="0" width="14.11" height="46.48" fill="rgb(82,89,97)"/><line x1="3.02" y1="6.61" x2="3.02" y2="39.87" stroke="rgb(250,92,60)" stroke-width="1.59" stroke-linecap="butt" stroke-dasharray="4.84,3.66"/><line x1="5.04" y1="6.61" x2="5.04" y2="39.87" stroke="rgb(250,92,60)" stroke-width="1.59" stroke-linecap="butt" stroke-dasharray="4.84,3.66"/><line x1="7.06" y1="6.61" x2="7.06" y2="39.87" stroke="rgb(250,92,60)" stroke-width="1.59" stroke-linecap="butt" stroke-dasharray="4.84,3.66"/><line x1="9.07" y1="6.61" x2="9.07" y2="39.87" stroke="rgb(250,92,60)" stroke-width="1.59" stroke-linecap="butt" stroke-dasharray="4.84,3.66"/><line x1="11.09" y1="6.61" x2="11.09" y2="39.87" stroke="rgb(250,92,60)" stroke-width="1.59" stroke-linecap="butt" stroke-dasharray="4.84,3.66"/><line x1="13.11" y1="6.61" x2="13.11" y2="39.87" stroke="rgb(250,92,60)" stroke-width="1.59" stroke-linecap="butt" stroke-dasharray="4.84,3.66"/></g><rect x="40.06" y="12.90" width="14.11" height="38.21" fill="rgb(114,122,131)" transform="matrix(1,0.5000,-1,0.5000,64.00,6.38)"/><circle cx="89.03" cy="40.08" r="1.579409331828356" fill="rgb(208,72,9)" fill-opacity="0.6651455235318281"/><circle cx="83.49" cy="43.66" r="1.470798059552908" fill="rgb(208,72,9)" fill-opacity="0.5955734780523927"/><circle cx="73.84" cy="51.48" r="1.8677893757820132" fill="rgb(208,72,9)" fill-opacity="0.7320693802903406"/><circle cx="70.46" cy="55.11" r="1.4815069081261756" fill="rgb(208,72,9)" fill-opacity="0.764314181159716"/></g></svg>