<svg xmlns="http://www.w3.org/2000/svg" version="1.1" width="128" height="210"><g><rect x="4.16" y="4.16" width="30.24" height="32.12" fill="rgba(0,0,0,0.20)" transform="matrix(1,0.5000,-1,0.5000,66.50,140.16)"/><g transform="translate(62.12,122.94) skewY(-26.565)"><rect x="0" y="0" width="26.36" height="47.18" fill="rgb(46,50,55)"/><line x1="1.65" y1="7.36" x2="1.65" y2="39.82" stroke="rgb(234,130,86)" stroke-width="1.48" stroke-linecap="butt"/><line x1="4.94" y1="7.36" x2="4.94" y2="39.82" stroke="rgb(234,130,86)" stroke-width="1.48" stroke-linecap="butt"/><line x1="8.24" y1="7.36" x2="8.24" y2="39.82" stroke="rgb(234,130,86)" stroke-width="1.48" stroke-linecap="butt"/><line x1="11.53" y1="7.36" x2="11.53" y2="39.82" stroke="rgb(234,130,86)" stroke-width="1.48" stroke-linecap="butt"/><line x1="14.83" y1="7.36" x2="14.83" y2="39.82" stroke="rgb(234,130,86)" stroke-width="1.48" stroke-linecap="butt"/><line x1="18.13" y1="7.36" x2="18.13" y2="39.82" stroke="rgb(234,130,86)" stroke-width="1.48" stroke-linecap="butt"/><line x1="21.42" y1="7.36" x2="21.42" y2="39.82" stroke="rgb(234,130,86)" stroke-width="1.48" stroke-linecap="butt"/></g><g transform="translate(37.64,110.70) skewY(26.565)"><rect x="0" y="0" width="24.48" height="47.18" fill="rgb(84,92,101)"/><line x1="5.49" y1="20.64" x2="18.99" y2="20.64" stroke="rgb(230,129,68)" stroke-width="1.59" stroke-linecap="butt"/><line x1="5.49" y1="26.54" x2="18.99" y2="26.54" stroke="rgb(230,129,68)" stroke-width="1.59" stroke-linecap="butt"/></g><rect x="7.04" y="7.04" width="24.48" height="26.36" fill="rgb(115,125,135)" transform="matrix(1,0.5000,-1,0.5000,64.00,90.48)"/><g transform="translate(62.12,85.60) skewY(-26.565)"><rect x="0" y="0" width="26.36" height="37.34" fill="rgb(46,51,55)"/><line x1="5.15" y1="11.67" x2="21.21" y2="11.67" stroke="rgb(240,161,95)" stroke-width="1.02" stroke-linecap="butt" stroke-dasharray="2.96,5.17"/><line x1="5.15" y1="16.34" x2="21.21" y2="16.34" stroke="rgb(240,161,95)" stroke-width="1.02" stroke-linecap="butt" stroke-dasharray="2.96,5.17"/><line x1="5.15" y1="21.01" x2="21.21" y2="21.01" stroke="rgb(240,161,95)" stroke-width="1.02" stroke-linecap="butt" stroke-dasharray="2.96,5.17"/></g><g transform="translate(37.64,73.36) skewY(26.565)"><rect x="0" y="0" width="24.48" height="37.34" fill="rgb(84,92,101)"/><line x1="8.74" y1="6.24" x2="8.74" y2="31.11" stroke="rgb(237,121,47)" stroke-width="1.51" stroke-linecap="butt" stroke-dasharray="8.41,3.51"/><line x1="12.24" y1="6.24" x2="12.24" y2="31.11" stroke="rgb(237,121,47)" stroke-width="1.51" stroke-linecap="butt" stroke-dasharray="8.41,3.51"/><line x1="15.74" y1="6.24" x2="15.74" y2="31.11" stroke="rgb(237,121,47)" stroke-width="1.51" stroke-linecap="butt" stroke-dasharray="8.41,3.51"/></g><rect x="7.04" y="7.04" width="24.48" height="26.36" fill="rgb(115,125,135)" transform="matrix(1,0.5000,-1,0.5000,64.00,53.13)"/><circle cx="49.98" cy="70.52" r="1.4355443969368935" fill="rgb(208,72,9)" fill-opacity="0.8677037639077754"/><circle cx="58.25" cy="71.08" r="1.3782597638666632" fill="rgb(208,72,9)" fill-opacity="0.9133205411490053"/><circle cx="64.38" cy="65.40" r="1.6041814267635348" fill="rgb(208,72,9)" fill-opacity="0.7929992398014292"/><circle cx="58.71" cy="67.59" r="1.4020952126011252" fill="rgb(208,72,9)" fill-opacity="0.9655172507860699"/><rect x="32.18" y="4.16" width="27.66" height="32.12" fill="rgba(0,0,0,0.20)" transform="matrix(1,0.5000,-1,0.5000,66.50,140.16)"/><g transform="translate(87.56,139.50) skewY(-26.565)"><rect x="0" y="0" width="26.36" height="43.34" fill="rgb(46,50,55)"/><line x1="4.94" y1="7.95" x2="4.94" y2="35.39" stroke="rgb(237,145,63)" stroke-width="1.1" stroke-linecap="butt" stroke-dasharray="2.98,4.78"/><line x1="8.24" y1="7.95" x2="8.24" y2="35.39" stroke="rgb(237,145,63)" stroke-width="1.1" stroke-linecap="butt" stroke-dasharray="2.98,4.78"/><line x1="11.53" y1="7.95" x2="11.53" y2="35.39" stroke="rgb(237,145,63)" stroke-width="1.1" stroke-linecap="butt" stroke-dasharray="2.98,4.78"/><line x1="14.83" y1="7.95" x2="14.83" y2="35.39" stroke="rgb(237,145,63)" stroke-width="1.1" stroke-linecap="butt" stroke-dasharray="2.98,4.78"/><line x1="18.13" y1="7.95" x2="18.13" y2="35.39" stroke="rgb(237,145,63)" stroke-width="1.1" stroke-linecap="butt" stroke-dasharray="2.98,4.78"/></g><g transform="translate(65.65,128.55) skewY(26.565)"><rect x="0" y="0" width="21.90" height="43.34" fill="rgb(84,92,101)"/><line x1="6.84" y1="6.52" x2="6.84" y2="36.82" stroke="rgb(243,159,77)" stroke-width="1.46" stroke-linecap="butt"/><line x1="9.58" y1="6.52" x2="9.58" y2="36.82" stroke="rgb(243,159,77)" stroke-width="1.46" stroke-linecap="butt"/><line x1="12.32" y1="6.52" x2="12.32" y2="36.82" stroke="rgb(243,159,77)" stroke-width="1.46" stroke-linecap="butt"/><line x1="15.06" y1="6.52" x2="15.06" y2="36.82" stroke="rgb(243,159,77)" stroke-width="1.46" stroke-linecap="butt"/></g><rect x="35.06" y="7.04" width="21.90" height="26.36" fill="rgb(115,125,135)" transform="matrix(1,0.5000,-1,0.5000,64.00,94.32)"/><g transform="translate(87.56,105.80) skewY(-26.565)"><rect x="0" y="0" width="26.36" height="33.70" fill="rgb(46,50,55)"/><line x1="1.65" y1="7.11" x2="1.65" y2="26.59" stroke="rgb(248,151,55)" stroke-width="1.3" stroke-linecap="butt"/><line x1="4.94" y1="7.11" x2="4.94" y2="26.59" stroke="rgb(248,151,55)" stroke-width="1.3" stroke-linecap="butt"/><line x1="8.24" y1="7.11" x2="8.24" y2="26.59" stroke="rgb(248,151,55)" stroke-width="1.3" stroke-linecap="butt"/><line x1="11.53" y1="7.11" x2="11.53" y2="26.59" stroke="rgb(248,151,55)" stroke-width="1.3" stroke-linecap="butt"/><line x1="14.83" y1="7.11" x2="14.83" y2="26.59" stroke="rgb(248,151,55)" stroke-width="1.3" stroke-linecap="butt"/><line x1="18.13" y1="7.11" x2="18.13" y2="26.59" stroke="rgb(248,151,55)" stroke-width="1.3" stroke-linecap="butt"/><line x1="21.42" y1="7.11" x2="21.42" y2="26.59" stroke="rgb(248,151,55)" stroke-width="1.3" stroke-linecap="butt"/><line x1="24.72" y1="7.11" x2="24.72" y2="26.59" stroke="rgb(248,151,55)" stroke-width="1.3" stroke-linecap="butt"/></g><g transform="translate(65.65,94.85) skewY(26.565)"><rect x="0" y="0" width="21.90" height="33.70" fill="rgb(84,91,101)"/><line x1="4.11" y1="4.96" x2="4.11" y2="28.74" stroke="rgb(244,125,52)" stroke-width="1.25" stroke-linecap="butt"/><line x1="6.84" y1="4.96" x2="6.84" y2="28.74" stroke="rgb(244,125,52)" stroke-width="1.25" stroke-linecap="butt"/><line x1="9.58" y1="4.96" x2="9.58" y2="28.74" stroke="rgb(244,125,52)" stroke-width="1.25" stroke-linecap="butt"/><line x1="12.32" y1="4.96" x2="12.32" y2="28.74" stroke="rgb(244,125,52)" stroke-width="1.25" stroke-linecap="butt"/><line x1="15.06" y1="4.96" x2="15.06" y2="28.74" stroke="rgb(244,125,52)" stroke-width="1.25" stroke-linecap="butt"/></g><rect x="35.06" y="7.04" width="21.90" height="26.36" fill="rgb(115,124,135)" transform="matrix(1,0.5000,-1,0.5000,64.00,60.62)"/><g transform="translate(88.45,62.12) skewY(-26.565)"><rect x="0" y="0" width="15.82" height="38.86" fill="rgb(46,51,55)"/><line x1="0.99" y1="8.36" x2="0.99" y2="30.50" stroke="rgb(244,142,83)" stroke-width="1" stroke-linecap="butt"/><line x1="2.97" y1="8.36" x2="2.97" y2="30.50" stroke="rgb(244,142,83)" stroke-width="1" stroke-linecap="butt"/><line x1="4.94" y1="8.36" x2="4.94" y2="30.50" stroke="rgb(244,142,83)" stroke-width="1" stroke-linecap="butt"/><line x1="6.92" y1="8.36" x2="6.92" y2="30.50" stroke="rgb(244,142,83)" stroke-width="1" stroke-linecap="butt"/><line x1="8.90" y1="8.36" x2="8.90" y2="30.50" stroke="rgb(244,142,83)" stroke-width="1" stroke-linecap="butt"/><line x1="10.88" y1="8.36" x2="10.88" y2="30.50" stroke="rgb(244,142,83)" stroke-width="1" stroke-linecap="butt"/><line x1="12.85" y1="8.36" x2="12.85" y2="30.50" stroke="rgb(244,142,83)" stroke-width="1" stroke-linecap="butt"/></g><g transform="translate(75.31,55.55) skewY(26.565)"><rect x="0" y="0" width="13.14" height="38.86" fill="rgb(84,92,101)"/><line x1="2.05" y1="19.43" x2="11.09" y2="19.43" stroke="rgb(245,162,76)" stroke-width="1.67" stroke-linecap="butt" stroke-dasharray="8.01,5.73"/><line x1="2.05" y1="24.98" x2="11.09" y2="24.98" stroke="rgb(245,162,76)" stroke-width="1.67" stroke-linecap="butt" stroke-dasharray="8.01,5.73"/><line x1="2.05" y1="30.53" x2="11.09" y2="30.53" stroke="rgb(245,162,76)" stroke-width="1.67" stroke-linecap="butt" stroke-dasharray="8.01,5.73"/><line x1="2.05" y1="36.08" x2="11.09" y2="36.08" stroke="rgb(245,162,76)" stroke-width="1.67" stroke-linecap="butt" stroke-dasharray="8.01,5.73"/></g><rect x="39.44" y="12.31" width="13.14" height="15.82" fill="rgb(115,125,135)" transform="matrix(1,0.5000,-1,0.5000,64.00,21.77)"/><circle cx="92.01" cy="54.23" r="1.433859583362937" fill="rgb(208,72,9)" fill-opacity="0.7431189749273472"/><circle cx="90.58" cy="49.50" r="1.4700648728758097" fill="rgb(208,72,9)" fill-opacity="0.5987589901313186"/><circle cx="86.24" cy="55.33" r="1.4310564996674657" fill="rgb(208,72,9)" fill-opacity="0.6359861540840939"/><rect x="4.16" y="34.29" width="55.68" height="25.55" fill="rgba(0,0,0,0.20)" transform="matrix(1,0.5000,-1,0.5000,66.50,140.16)"/><g transform="translate(64.00,155.91) skewY(-26.565)"><rect x="0" y="0" width="19.79" height="38.71" fill="rgb(46,50,55)"/><line x1="3.26" y1="13.82" x2="16.53" y2="13.82" stroke="rgb(229,121,51)" stroke-width="1.13" stroke-linecap="butt"/><line x1="3.26" y1="19.35" x2="16.53" y2="19.35" stroke="rgb(229,121,51)" stroke-width="1.13" stroke-linecap="butt"/><line x1="3.26" y1="24.88" x2="16.53" y2="24.88" stroke="rgb(229,121,51)" stroke-width="1.13" stroke-linecap="butt"/><line x1="3.26" y1="30.41" x2="16.53" y2="30.41" stroke="rgb(229,121,51)" stroke-width="1.13" stroke-linecap="butt"/></g><g transform="translate(14.08,130.95) skewY(26.565)"><rect x="0" y="0" width="49.92" height="38.71" fill="rgb(84,90,101)"/><line x1="11.07" y1="2.42" x2="38.85" y2="2.42" stroke="rgb(235,156,100)" stroke-width="1.07" stroke-linecap="butt"/><line x1="11.07" y1="7.26" x2="38.85" y2="7.26" stroke="rgb(235,156,100)" stroke-width="1.07" stroke-linecap="butt"/><line x1="11.07" y1="12.10" x2="38.85" y2="12.10" stroke="rgb(235,156,100)" stroke-width="1.07" stroke-linecap="butt"/><line x1="11.07" y1="16.93" x2="38.85" y2="16.93" stroke="rgb(235,156,100)" stroke-width="1.07" stroke-linecap="butt"/><line x1="11.07" y1="21.77" x2="38.85" y2="21.77" stroke="rgb(235,156,100)" stroke-width="1.07" stroke-linecap="butt"/><line x1="11.07" y1="26.61" x2="38.85" y2="26.61" stroke="rgb(235,156,100)" stroke-width="1.07" stroke-linecap="butt"/></g><rect x="7.04" y="37.17" width="49.92" height="19.79" fill="rgb(115,123,135)" transform="matrix(1,0.5000,-1,0.5000,64.00,98.95)"/><g transform="translate(64.00,120.03) skewY(-26.565)"><rect x="0" y="0" width="19.79" height="35.88" fill="rgb(46,51,55)"/><line x1="4.52" y1="12.82" x2="15.27" y2="12.82" stroke="rgb(239,153,88)" stroke-width="1.61" stroke-linecap="butt"/><line x1="4.52" y1="17.94" x2="15.27" y2="17.94" stroke="rgb(239,153,88)" stroke-width="1.61" stroke-linecap="butt"/><line x1="4.52" y1="23.07" x2="15.27" y2="23.07" stroke="rgb(239,153,88)" stroke-width="1.61" stroke-linecap="butt"/></g><g transform="translate(14.08,95.07) skewY(26.565)"><rect x="0" y="0" width="49.92" height="35.88" fill="rgb(84,92,101)"/><line x1="7.68" y1="12.82" x2="42.24" y2="12.82" stroke="rgb(242,168,95)" stroke-width="1.7" stroke-linecap="butt"/><line x1="7.68" y1="17.94" x2="42.24" y2="17.94" stroke="rgb(242,168,95)" stroke-width="1.7" stroke-linecap="butt"/><line x1="7.68" y1="23.07" x2="42.24" y2="23.07" stroke="rgb(242,168,95)" stroke-width="1.7" stroke-linecap="butt"/><line x1="7.68" y1="28.19" x2="42.24" y2="28.19" stroke="rgb(242,168,95)" stroke-width="1.7" stroke-linecap="butt"/><line x1="7.68" y1="33.32" x2="42.24" y2="33.32" stroke="rgb(242,168,95)" stroke-width="1.7" stroke-linecap="butt"/></g><rect x="7.04" y="37.17" width="49.92" height="19.79" fill="rgb(115,125,135)" transform="matrix(1,0.5000,-1,0.5000,64.00,63.07)"/><circle cx="62.83" cy="105.34" r="1.8862173950299623" fill="rgb(208,72,9)" fill-opacity="0.5263882025610656"/><circle cx="63.58" cy="109.01" r="1.8415909929201009" fill="rgb(208,72,9)" fill-opacity="0.9947492273175158"/><circle cx="45.28" cy="99.72" r="1.448546601831913" fill="rgb(208,72,9)" fill-opacity="0.5043524719891138"/><circle cx="43.18" cy="93.13" r="1.170697949267924" fill="rgb(208,72,9)" fill-opacity="0.9653525914414787"/><circle cx="49.77" cy="103.59" r="1.285240132547915" fill="rgb(208,72,9)" fill-opacity="0.9638439378933981"/></g></svg>