<svg xmlns="http://www.w3.org/2000/svg" version="1.1" width="128" height="150"><g><rect x="6.08" y="6.08" width="51.84" height="51.84" fill="rgba(0,0,0,0.20)" transform="matrix(1,0.5000,-1,0.5000,66.50,82.08)"/><g transform="translate(64.00,102.21) skewY(-26.565)"><rect x="0" y="0" width="46.08" height="32.41" fill="rgb(40,43,50)"/><line x1="16.46" y1="6.94" x2="16.46" y2="25.47" stroke="rgb(239,140,101)" stroke-width="1.6" stroke-linecap="butt"/><line x1="23.04" y1="6.94" x2="23.04" y2="25.47" stroke="rgb(239,140,101)" stroke-width="1.6" stroke-linecap="butt"/><line x1="29.62" y1="6.94" x2="29.62" y2="25.47" stroke="rgb(239,140,101)" stroke-width="1.6" stroke-linecap="butt"/><line x1="36.21" y1="6.94" x2="36.21" y2="25.47" stroke="rgb(239,140,101)" stroke-width="1.6" stroke-linecap="butt"/><line x1="42.79" y1="6.94" x2="42.79" y2="25.47" stroke="rgb(239,140,101)" stroke-width="1.6" stroke-linecap="butt"/></g><g transform="translate(17.92,79.17) skewY(26.565)"><rect x="0" y="0" width="46.08" height="32.41" fill="rgb(73,79,91)"/><line x1="6.54" y1="14.18" x2="39.54" y2="14.18" stroke="rgb(250,104,62)" stroke-width="1.2" stroke-linecap="butt"/><line x1="6.54" y1="18.23" x2="39.54" y2="18.23" stroke="rgb(250,104,62)" stroke-width="1.2" stroke-linecap="butt"/><line x1="6.54" y1="22.28" x2="39.54" y2="22.28" stroke="rgb(250,104,62)" stroke-width="1.2" stroke-linecap="butt"/><line x1="6.54" y1="26.34" x2="39.54" y2="26.34" stroke="rgb(250,104,62)" stroke-width="1.2" stroke-linecap="butt"/><line x1="6.54" y1="30.39" x2="39.54" y2="30.39" stroke="rgb(250,104,62)" stroke-width="1.2" stroke-linecap="butt"/></g><rect x="8.96" y="8.96" width="46.08" height="46.08" fill="rgb(104,111,126)" transform="matrix(1,0.5000,-1,0.5000,64.00,47.17)"/><g transform="translate(64.00,64.32) skewY(-26.565)"><rect x="0" y="0" width="31.18" height="30.44" fill="rgb(40,44,50)"/><line x1="5.57" y1="1.90" x2="25.61" y2="1.90" stroke="rgb(246,153,68)" stroke-width="1.52" stroke-linecap="butt"/><line x1="5.57" y1="5.71" x2="25.61" y2="5.71" stroke="rgb(246,153,68)" stroke-width="1.52" stroke-linecap="butt"/><line x1="5.57" y1="9.51" x2="25.61" y2="9.51" stroke="rgb(246,153,68)" stroke-width="1.52" stroke-linecap="butt"/><line x1="5.57" y1="13.32" x2="25.61" y2="13.32" stroke="rgb(246,153,68)" stroke-width="1.52" stroke-linecap="butt"/><line x1="5.57" y1="17.12" x2="25.61" y2="17.12" stroke="rgb(246,153,68)" stroke-width="1.52" stroke-linecap="butt"/></g><g transform="translate(32.82,48.73) skewY(26.565)"><rect x="0" y="0" width="31.18" height="30.44" fill="rgb(73,80,91)"/><line x1="6.68" y1="6.02" x2="6.68" y2="24.42" stroke="rgb(240,128,103)" stroke-width="1.28" stroke-linecap="butt"/><line x1="11.14" y1="6.02" x2="11.14" y2="24.42" stroke="rgb(240,128,103)" stroke-width="1.28" stroke-linecap="butt"/><line x1="15.59" y1="6.02" x2="15.59" y2="24.42" stroke="rgb(240,128,103)" stroke-width="1.28" stroke-linecap="butt"/></g><rect x="16.41" y="16.41" width="31.18" height="31.18" fill="rgb(104,113,126)" transform="matrix(1,0.5000,-1,0.5000,64.00,16.73)"/></g></svg>