<svg xmlns="http://www.w3.org/2000/svg" version="1.1" width="128" height="260"><g><rect x="2.24" y="2.24" width="59.52" height="59.52" fill="rgba(0,0,0,0.20)" transform="matrix(1,0.5000,-1,0.5000,66.50,188.24)"/><g transform="translate(64.00,196.60) skewY(-26.565)"><rect x="0" y="0" width="53.76" height="48.02" fill="rgb(46,49,53)"/><line x1="3.36" y1="8.19" x2="3.36" y2="39.83" stroke="rgb(239,116,61)" stroke-width="1.55" stroke-linecap="butt"/><line x1="10.08" y1="8.19" x2="10.08" y2="39.83" stroke="rgb(239,116,61)" stroke-width="1.55" stroke-linecap="butt"/><line x1="16.80" y1="8.19" x2="16.80" y2="39.83" stroke="rgb(239,116,61)" stroke-width="1.55" stroke-linecap="butt"/><line x1="23.52" y1="8.19" x2="23.52" y2="39.83" stroke="rgb(239,116,61)" stroke-width="1.55" stroke-linecap="butt"/><line x1="30.24" y1="8.19" x2="30.24" y2="39.83" stroke="rgb(239,116,61)" stroke-width="1.55" stroke-linecap="butt"/><line x1="36.96" y1="8.19" x2="36.96" y2="39.83" stroke="rgb(239,116,61)" stroke-width="1.55" stroke-linecap="butt"/><line x1="43.68" y1="8.19" x2="43.68" y2="39.83" stroke="rgb(239,116,61)" stroke-width="1.55" stroke-linecap="butt"/><line x1="50.40" y1="8.19" x2="50.40" y2="39.83" stroke="rgb(239,116,61)" stroke-width="1.55" stroke-linecap="butt"/></g><g transform="translate(10.24,169.72) skewY(26.565)"><rect x="0" y="0" width="53.76" height="48.02" fill="rgb(84,89,96)"/><line x1="16.80" y1="9.65" x2="16.80" y2="38.38" stroke="rgb(239,111,100)" stroke-width="1.34" stroke-linecap="butt" stroke-dasharray="6.31,4.22"/><line x1="23.52" y1="9.65" x2="23.52" y2="38.38" stroke="rgb(239,111,100)" stroke-width="1.34" stroke-linecap="butt" stroke-dasharray="6.31,4.22"/><line x1="30.24" y1="9.65" x2="30.24" y2="38.38" stroke="rgb(239,111,100)" stroke-width="1.34" stroke-linecap="butt" stroke-dasharray="6.31,4.22"/><line x1="36.96" y1="9.65" x2="36.96" y2="38.38" stroke="rgb(239,111,100)" stroke-width="1.34" stroke-linecap="butt" stroke-dasharray="6.31,4.22"/><line x1="43.68" y1="9.65" x2="43.68" y2="38.38" stroke="rgb(239,111,100)" stroke-width="1.34" stroke-linecap="butt" stroke-dasharray="6.31,4.22"/></g><rect x="5.12" y="5.12" width="53.76" height="53.76" fill="rgb(116,122,130)" transform="matrix(1,0.5000,-1,0.5000,64.00,137.72)"/><g transform="translate(64.00,139.05) skewY(-26.565)"><rect x="0" y="0" width="45.99" height="53.67" fill="rgb(46,49,53)"/><line x1="6.94" y1="16.77" x2="39.05" y2="16.77" stroke="rgb(244,103,42)" stroke-width="1.2" stroke-linecap="butt"/><line x1="6.94" y1="23.48" x2="39.05" y2="23.48" stroke="rgb(244,103,42)" stroke-width="1.2" stroke-linecap="butt"/><line x1="6.94" y1="30.19" x2="39.05" y2="30.19" stroke="rgb(244,103,42)" stroke-width="1.2" stroke-linecap="butt"/><line x1="6.94" y1="36.90" x2="39.05" y2="36.90" stroke="rgb(244,103,42)" stroke-width="1.2" stroke-linecap="butt"/><line x1="6.94" y1="43.60" x2="39.05" y2="43.60" stroke="rgb(244,103,42)" stroke-width="1.2" stroke-linecap="butt"/><line x1="6.94" y1="50.31" x2="39.05" y2="50.31" stroke="rgb(244,103,42)" stroke-width="1.2" stroke-linecap="butt"/></g><g transform="translate(18.01,116.05) skewY(26.565)"><rect x="0" y="0" width="45.99" height="53.67" fill="rgb(84,89,96)"/><line x1="2.87" y1="9.43" x2="2.87" y2="44.24" stroke="rgb(234,128,93)" stroke-width="1.38" stroke-linecap="butt"/><line x1="8.62" y1="9.43" x2="8.62" y2="44.24" stroke="rgb(234,128,93)" stroke-width="1.38" stroke-linecap="butt"/><line x1="14.37" y1="9.43" x2="14.37" y2="44.24" stroke="rgb(234,128,93)" stroke-width="1.38" stroke-linecap="butt"/><line x1="20.12" y1="9.43" x2="20.12" y2="44.24" stroke="rgb(234,128,93)" stroke-width="1.38" stroke-linecap="butt"/><line x1="25.87" y1="9.43" x2="25.87" y2="44.24" stroke="rgb(234,128,93)" stroke-width="1.38" stroke-linecap="butt"/><line x1="31.62" y1="9.43" x2="31.62" y2="44.24" stroke="rgb(234,128,93)" stroke-width="1.38" stroke-linecap="butt"/><line x1="37.37" y1="9.43" x2="37.37" y2="44.24" stroke="rgb(234,128,93)" stroke-width="1.38" stroke-linecap="butt"/><line x1="43.12" y1="9.43" x2="43.12" y2="44.24" stroke="rgb(234,128,93)" stroke-width="1.38" stroke-linecap="butt"/></g><rect x="9.00" y="9.00" width="45.99" height="45.99" fill="rgb(116,122,130)" transform="matrix(1,0.5000,-1,0.5000,64.00,84.05)"/></g></svg>