<svg xmlns="http://www.w3.org/2000/svg" version="1.1" width="128" height="150"><g><rect x="6.08" y="6.08" width="30.63" height="34.84" fill="rgba(0,0,0,0.20)" transform="matrix(1,0.5000,-1,0.5000,66.50,82.08)"/><g transform="translate(59.79,86.69) skewY(-26.565)"><rect x="0" y="0" width="29.08" height="28.82" fill="rgb(43,45,50)"/><line x1="9.09" y1="4.44" x2="9.09" y2="24.38" stroke="rgb(235,129,106)" stroke-width="1.1" stroke-linecap="butt"/><line x1="12.72" y1="4.44" x2="12.72" y2="24.38" stroke="rgb(235,129,106)" stroke-width="1.1" stroke-linecap="butt"/><line x1="16.36" y1="4.44" x2="16.36" y2="24.38" stroke="rgb(235,129,106)" stroke-width="1.1" stroke-linecap="butt"/><line x1="19.99" y1="4.44" x2="19.99" y2="24.38" stroke="rgb(235,129,106)" stroke-width="1.1" stroke-linecap="butt"/><line x1="23.62" y1="4.44" x2="23.62" y2="24.38" stroke="rgb(235,129,106)" stroke-width="1.1" stroke-linecap="butt"/></g><g transform="translate(34.92,74.26) skewY(26.565)"><rect x="0" y="0" width="24.87" height="28.82" fill="rgb(77,82,90)"/><line x1="5.82" y1="6.18" x2="19.05" y2="6.18" stroke="rgb(237,113,74)" stroke-width="1.04" stroke-linecap="butt"/><line x1="5.82" y1="10.29" x2="19.05" y2="10.29" stroke="rgb(237,113,74)" stroke-width="1.04" stroke-linecap="butt"/><line x1="5.82" y1="14.41" x2="19.05" y2="14.41" stroke="rgb(237,113,74)" stroke-width="1.04" stroke-linecap="butt"/><line x1="5.82" y1="18.53" x2="19.05" y2="18.53" stroke="rgb(237,113,74)" stroke-width="1.04" stroke-linecap="butt"/></g><rect x="8.96" y="8.96" width="24.87" height="29.08" fill="rgb(109,115,124)" transform="matrix(1,0.5000,-1,0.5000,64.00,50.76)"/><g transform="translate(59.79,59.36) skewY(-26.565)"><rect x="0" y="0" width="29.08" height="27.34" fill="rgb(43,45,50)"/><line x1="12.72" y1="3.83" x2="12.72" y2="23.51" stroke="rgb(243,115,51)" stroke-width="1.04" stroke-linecap="butt"/><line x1="16.36" y1="3.83" x2="16.36" y2="23.51" stroke="rgb(243,115,51)" stroke-width="1.04" stroke-linecap="butt"/><line x1="19.99" y1="3.83" x2="19.99" y2="23.51" stroke="rgb(243,115,51)" stroke-width="1.04" stroke-linecap="butt"/><line x1="23.62" y1="3.83" x2="23.62" y2="23.51" stroke="rgb(243,115,51)" stroke-width="1.04" stroke-linecap="butt"/><line x1="27.26" y1="3.83" x2="27.26" y2="23.51" stroke="rgb(243,115,51)" stroke-width="1.04" stroke-linecap="butt"/></g><g transform="translate(34.92,46.92) skewY(26.565)"><rect x="0" y="0" width="24.87" height="27.34" fill="rgb(77,83,90)"/><line x1="4.66" y1="6.09" x2="4.66" y2="21.25" stroke="rgb(248,157,97)" stroke-width="1.51" stroke-linecap="butt" stroke-dasharray="5.65,1.93"/><line x1="7.77" y1="6.09" x2="7.77" y2="21.25" stroke="rgb(248,157,97)" stroke-width="1.51" stroke-linecap="butt" stroke-dasharray="5.65,1.93"/><line x1="10.88" y1="6.09" x2="10.88" y2="21.25" stroke="rgb(248,157,97)" stroke-width="1.51" stroke-linecap="butt" stroke-dasharray="5.65,1.93"/><line x1="13.99" y1="6.09" x2="13.99" y2="21.25" stroke="rgb(248,157,97)" stroke-width="1.51" stroke-linecap="butt" stroke-dasharray="5.65,1.93"/></g><rect x="8.96" y="8.96" width="24.87" height="29.08" fill="rgb(109,116,124)" transform="matrix(1,0.5000,-1,0.5000,64.00,23.42)"/><rect x="33.52" y="6.08" width="24.40" height="34.84" fill="rgba(0,0,0,0.20)" transform="matrix(1,0.5000,-1,0.5000,66.50,82.08)"/><g transform="translate(81.00,92.45) skewY(-26.565)"><rect x="0" y="0" width="29.08" height="33.67" fill="rgb(43,45,50)"/><line x1="5.45" y1="6.22" x2="5.45" y2="27.45" stroke="rgb(246,112,64)" stroke-width="1.69" stroke-linecap="butt"/><line x1="9.09" y1="6.22" x2="9.09" y2="27.45" stroke="rgb(246,112,64)" stroke-width="1.69" stroke-linecap="butt"/><line x1="12.72" y1="6.22" x2="12.72" y2="27.45" stroke="rgb(246,112,64)" stroke-width="1.69" stroke-linecap="butt"/><line x1="16.36" y1="6.22" x2="16.36" y2="27.45" stroke="rgb(246,112,64)" stroke-width="1.69" stroke-linecap="butt"/><line x1="19.99" y1="6.22" x2="19.99" y2="27.45" stroke="rgb(246,112,64)" stroke-width="1.69" stroke-linecap="butt"/><line x1="23.62" y1="6.22" x2="23.62" y2="27.45" stroke="rgb(246,112,64)" stroke-width="1.69" stroke-linecap="butt"/><line x1="27.26" y1="6.22" x2="27.26" y2="27.45" stroke="rgb(246,112,64)" stroke-width="1.69" stroke-linecap="butt"/></g><g transform="translate(62.36,83.13) skewY(26.565)"><rect x="0" y="0" width="18.64" height="33.67" fill="rgb(77,82,90)"/><line x1="3.00" y1="10.52" x2="15.65" y2="10.52" stroke="rgb(234,142,60)" stroke-width="1.28" stroke-linecap="butt"/><line x1="3.00" y1="14.73" x2="15.65" y2="14.73" stroke="rgb(234,142,60)" stroke-width="1.28" stroke-linecap="butt"/><line x1="3.00" y1="18.94" x2="15.65" y2="18.94" stroke="rgb(234,142,60)" stroke-width="1.28" stroke-linecap="butt"/><line x1="3.00" y1="23.15" x2="15.65" y2="23.15" stroke="rgb(234,142,60)" stroke-width="1.28" stroke-linecap="butt"/></g><rect x="36.40" y="8.96" width="18.64" height="29.08" fill="rgb(109,115,124)" transform="matrix(1,0.5000,-1,0.5000,64.00,45.91)"/><g transform="translate(81.00,66.06) skewY(-26.565)"><rect x="0" y="0" width="29.08" height="26.38" fill="rgb(43,45,50)"/><line x1="6.33" y1="4.95" x2="22.75" y2="4.95" stroke="rgb(250,145,62)" stroke-width="1.21" stroke-linecap="butt"/><line x1="6.33" y1="8.25" x2="22.75" y2="8.25" stroke="rgb(250,145,62)" stroke-width="1.21" stroke-linecap="butt"/><line x1="6.33" y1="11.54" x2="22.75" y2="11.54" stroke="rgb(250,145,62)" stroke-width="1.21" stroke-linecap="butt"/><line x1="6.33" y1="14.84" x2="22.75" y2="14.84" stroke="rgb(250,145,62)" stroke-width="1.21" stroke-linecap="butt"/><line x1="6.33" y1="18.14" x2="22.75" y2="18.14" stroke="rgb(250,145,62)" stroke-width="1.21" stroke-linecap="butt"/><line x1="6.33" y1="21.44" x2="22.75" y2="21.44" stroke="rgb(250,145,62)" stroke-width="1.21" stroke-linecap="butt"/></g><g transform="translate(62.36,56.74) skewY(26.565)"><rect x="0" y="0" width="18.64" height="26.38" fill="rgb(77,82,90)"/><line x1="6.66" y1="3.75" x2="6.66" y2="22.64" stroke="rgb(243,106,60)" stroke-width="1.09" stroke-linecap="butt"/><line x1="9.32" y1="3.75" x2="9.32" y2="22.64" stroke="rgb(243,106,60)" stroke-width="1.09" stroke-linecap="butt"/></g><rect x="36.40" y="8.96" width="18.64" height="29.08" fill="rgb(109,115,124)" transform="matrix(1,0.5000,-1,0.5000,64.00,19.52)"/><circle cx="90.07" cy="58.44" r="1.191219262033701" fill="rgb(208,72,9)" fill-opacity="0.7680717219249346"/><circle cx="102.95" cy="51.58" r="1.5625234799459577" fill="rgb(208,72,9)" fill-opacity="0.7340763508225792"/><circle cx="81.65" cy="59.00" r="1.4401707164943218" fill="rgb(208,72,9)" fill-opacity="0.7310784230823628"/><circle cx="72.09" cy="54.58" r="1.456269033625722" fill="rgb(208,72,9)" fill-opacity="0.5747211179230363"/><rect x="6.08" y="38.43" width="51.84" height="19.49" fill="rgba(0,0,0,0.20)" transform="matrix(1,0.5000,-1,0.5000,66.50,82.08)"/><g transform="translate(64.00,102.17) skewY(-26.565)"><rect x="0" y="0" width="13.73" height="32.45" fill="rgb(43,45,50)"/><line x1="2.22" y1="14.20" x2="11.52" y2="14.20" stroke="rgb(233,98,58)" stroke-width="1.66" stroke-linecap="butt"/><line x1="2.22" y1="18.25" x2="11.52" y2="18.25" stroke="rgb(233,98,58)" stroke-width="1.66" stroke-linecap="butt"/><line x1="2.22" y1="22.31" x2="11.52" y2="22.31" stroke="rgb(233,98,58)" stroke-width="1.66" stroke-linecap="butt"/></g><g transform="translate(17.92,79.13) skewY(26.565)"><rect x="0" y="0" width="46.08" height="32.45" fill="rgb(77,82,90)"/><line x1="23.04" y1="5.28" x2="23.04" y2="27.17" stroke="rgb(240,157,101)" stroke-width="1.32" stroke-linecap="butt"/><line x1="29.62" y1="5.28" x2="29.62" y2="27.17" stroke="rgb(240,157,101)" stroke-width="1.32" stroke-linecap="butt"/><line x1="36.21" y1="5.28" x2="36.21" y2="27.17" stroke="rgb(240,157,101)" stroke-width="1.32" stroke-linecap="butt"/></g><rect x="8.96" y="41.31" width="46.08" height="13.73" fill="rgb(109,115,124)" transform="matrix(1,0.5000,-1,0.5000,64.00,47.13)"/><g transform="translate(64.00,63.65) skewY(-26.565)"><rect x="0" y="0" width="13.73" height="38.51" fill="rgb(43,45,50)"/><line x1="4.91" y1="8.95" x2="4.91" y2="29.57" stroke="rgb(232,115,69)" stroke-width="1.25" stroke-linecap="butt" stroke-dasharray="7.91,2.84"/><line x1="6.87" y1="8.95" x2="6.87" y2="29.57" stroke="rgb(232,115,69)" stroke-width="1.25" stroke-linecap="butt" stroke-dasharray="7.91,2.84"/></g><g transform="translate(17.92,40.61) skewY(26.565)"><rect x="0" y="0" width="46.08" height="38.51" fill="rgb(77,82,90)"/><line x1="3.29" y1="5.85" x2="3.29" y2="32.66" stroke="rgb(246,140,73)" stroke-width="1.3" stroke-linecap="butt"/><line x1="9.87" y1="5.85" x2="9.87" y2="32.66" stroke="rgb(246,140,73)" stroke-width="1.3" stroke-linecap="butt"/><line x1="16.46" y1="5.85" x2="16.46" y2="32.66" stroke="rgb(246,140,73)" stroke-width="1.3" stroke-linecap="butt"/><line x1="23.04" y1="5.85" x2="23.04" y2="32.66" stroke="rgb(246,140,73)" stroke-width="1.3" stroke-linecap="butt"/><line x1="29.62" y1="5.85" x2="29.62" y2="32.66" stroke="rgb(246,140,73)" stroke-width="1.3" stroke-linecap="butt"/><line x1="36.21" y1="5.85" x2="36.21" y2="32.66" stroke="rgb(246,140,73)" stroke-width="1.3" stroke-linecap="butt"/><line x1="42.79" y1="5.85" x2="42.79" y2="32.66" stroke="rgb(246,140,73)" stroke-width="1.3" stroke-linecap="butt"/></g><rect x="8.96" y="41.31" width="46.08" height="13.73" fill="rgb(109,115,124)" transform="matrix(1,0.5000,-1,0.5000,64.00,8.61)"/></g></svg>