<svg xmlns="http://www.w3.org/2000/svg" version="1.1" width="128" height="123"><g><rect x="6.08" y="6.08" width="27.09" height="51.84" fill="rgba(0,0,0,0.20)" transform="matrix(1,0.5000,-1,0.5000,66.50,55.08)"/><g transform="translate(39.25,74.43) skewY(-26.565)"><rect x="0" y="0" width="46.08" height="20.81" fill="rgb(79,23,20)"/></g><g transform="translate(17.92,63.77) skewY(26.565)"><rect x="0" y="0" width="21.33" height="20.81" fill="rgb(131,38,34)"/><line x1="14.93" y1="2.10" x2="14.93" y2="18.72" stroke="rgb(235,233,233)" stroke-width="2.22" stroke-linecap="butt"/></g><rect x="8.96" y="8.96" width="21.33" height="46.08" fill="rgb(177,64,59)" transform="matrix(1,0.5000,-1,0.5000,64.00,31.77)"/><g transform="translate(39.25,51.21) skewY(-26.565)"><rect x="0" y="0" width="46.08" height="23.23" fill="rgb(95,27,19)"/><line x1="23.04" y1="3.14" x2="23.04" y2="20.09" stroke="rgb(244,243,243)" stroke-width="2.65" stroke-linecap="butt"/><line x1="32.26" y1="3.14" x2="32.26" y2="20.09" stroke="rgb(244,243,243)" stroke-width="2.65" stroke-linecap="butt"/><line x1="41.47" y1="3.14" x2="41.47" y2="20.09" stroke="rgb(244,243,243)" stroke-width="2.65" stroke-linecap="butt"/></g><g transform="translate(17.92,40.54) skewY(26.565)"><rect x="0" y="0" width="21.33" height="23.23" fill="rgb(158,46,32)"/><line x1="13.33" y1="3.40" x2="13.33" y2="19.82" stroke="rgb(241,240,240)" stroke-width="3.37" stroke-linecap="butt"/></g><rect x="8.96" y="8.96" width="21.33" height="46.08" fill="rgb(201,76,60)" transform="matrix(1,0.5000,-1,0.5000,64.00,8.54)"/><rect x="29.86" y="6.08" width="28.06" height="51.84" fill="rgba(0,0,0,0.20)" transform="matrix(1,0.5000,-1,0.5000,66.50,55.08)"/><g transform="translate(64.00,84.85) skewY(-26.565)"><rect x="0" y="0" width="46.08" height="22.77" fill="rgb(82,30,31)"/><line x1="6.10" y1="6.83" x2="39.98" y2="6.83" stroke="rgb(235,232,232)" stroke-width="2.24" stroke-linecap="butt"/><line x1="6.10" y1="11.39" x2="39.98" y2="11.39" stroke="rgb(235,232,232)" stroke-width="2.24" stroke-linecap="butt"/><line x1="6.10" y1="15.94" x2="39.98" y2="15.94" stroke="rgb(235,232,232)" stroke-width="2.24" stroke-linecap="butt"/></g><g transform="translate(41.70,73.70) skewY(26.565)"><rect x="0" y="0" width="22.30" height="22.77" fill="rgb(136,50,52)"/><line x1="15.61" y1="3.30" x2="15.61" y2="19.47" stroke="rgb(241,239,239)" stroke-width="2.87" stroke-linecap="butt"/><line x1="20.07" y1="3.30" x2="20.07" y2="19.47" stroke="rgb(241,239,239)" stroke-width="2.87" stroke-linecap="butt"/></g><rect x="32.74" y="8.96" width="22.30" height="46.08" fill="rgb(179,79,82)" transform="matrix(1,0.5000,-1,0.5000,64.00,29.81)"/><g transform="translate(64.00,58.95) skewY(-26.565)"><rect x="0" y="0" width="46.08" height="25.90" fill="rgb(103,40,19)"/><line x1="7.68" y1="4.06" x2="7.68" y2="21.85" stroke="rgb(237,237,237)" stroke-width="3.23" stroke-linecap="butt"/></g><g transform="translate(41.70,47.80) skewY(26.565)"><rect x="0" y="0" width="22.30" height="25.90" fill="rgb(171,66,32)"/><line x1="3.72" y1="2.73" x2="3.72" y2="23.18" stroke="rgb(227,226,226)" stroke-width="3.39" stroke-linecap="butt" stroke-dasharray="5.64,2.52"/></g><rect x="32.74" y="8.96" width="22.30" height="46.08" fill="rgb(206,102,68)" transform="matrix(1,0.5000,-1,0.5000,64.00,3.91)"/><line x1="35.30" y1="96.47" x2="35.30" y2="9.42" stroke="#e8b23c" stroke-width="2.2" stroke-linecap="butt"/><line x1="35.30" y1="9.42" x2="71.83" y2="8.06" stroke="#e8b23c" stroke-width="2" stroke-linecap="butt"/><circle cx="71.83" cy="8.06" r="1.6" fill="#222"/></g></svg>