<svg xmlns="http://www.w3.org/2000/svg" version="1.1" width="128" height="180"><g><rect x="2.24" y="2.24" width="34.87" height="25.53" fill="rgba(0,0,0,0.20)" transform="matrix(1,0.5000,-1,0.5000,66.50,108.24)"/><g transform="translate(73.34,113.05) skewY(-26.565)"><rect x="0" y="0" width="19.77" height="22.25" fill="rgb(75,65,23)"/><line x1="2.66" y1="13.91" x2="17.11" y2="13.91" stroke="rgb(240,239,239)" stroke-width="2.14" stroke-linecap="butt"/><line x1="2.66" y1="19.47" x2="17.11" y2="19.47" stroke="rgb(240,239,239)" stroke-width="2.14" stroke-linecap="butt"/></g><g transform="translate(44.23,98.50) skewY(26.565)"><rect x="0" y="0" width="29.11" height="22.25" fill="rgb(124,109,39)"/><line x1="3.07" y1="6.68" x2="26.04" y2="6.68" stroke="rgb(246,245,245)" stroke-width="3.01" stroke-linecap="butt" stroke-dasharray="3.82,3.26"/><line x1="3.07" y1="11.13" x2="26.04" y2="11.13" stroke="rgb(246,245,245)" stroke-width="3.01" stroke-linecap="butt" stroke-dasharray="3.82,3.26"/><line x1="3.07" y1="15.58" x2="26.04" y2="15.58" stroke="rgb(246,245,245)" stroke-width="3.01" stroke-linecap="butt" stroke-dasharray="3.82,3.26"/><line x1="3.07" y1="20.03" x2="26.04" y2="20.03" stroke="rgb(246,245,245)" stroke-width="3.01" stroke-linecap="butt" stroke-dasharray="3.82,3.26"/></g><rect x="5.12" y="5.12" width="29.11" height="19.77" fill="rgb(169,151,65)" transform="matrix(1,0.5000,-1,0.5000,64.00,83.49)"/><line x1="99.51" y1="125.42" x2="99.51" y2="41.87" stroke="#e8b23c" stroke-width="2.2" stroke-linecap="butt"/><line x1="99.51" y1="41.87" x2="71.75" y2="43.77" stroke="#e8b23c" stroke-width="2" stroke-linecap="butt"/><circle cx="71.75" cy="43.77" r="1.6" fill="#222"/><rect x="2.24" y="24.27" width="34.87" height="37.49" fill="rgba(0,0,0,0.20)" transform="matrix(1,0.5000,-1,0.5000,66.50,108.24)"/><g transform="translate(39.35,132.01) skewY(-26.565)"><rect x="0" y="0" width="31.73" height="20.28" fill="rgb(95,31,30)"/><line x1="4.62" y1="3.38" x2="27.11" y2="3.38" stroke="rgb(248,247,247)" stroke-width="2.18" stroke-linecap="butt"/><line x1="4.62" y1="10.14" x2="27.11" y2="10.14" stroke="rgb(248,247,247)" stroke-width="2.18" stroke-linecap="butt"/><line x1="4.62" y1="16.90" x2="27.11" y2="16.90" stroke="rgb(248,247,247)" stroke-width="2.18" stroke-linecap="butt"/></g><g transform="translate(10.24,117.46) skewY(26.565)"><rect x="0" y="0" width="29.11" height="20.28" fill="rgb(159,52,51)"/><line x1="4.27" y1="2.54" x2="24.84" y2="2.54" stroke="rgb(244,243,243)" stroke-width="2.52" stroke-linecap="butt"/><line x1="4.27" y1="7.61" x2="24.84" y2="7.61" stroke="rgb(244,243,243)" stroke-width="2.52" stroke-linecap="butt"/><line x1="4.27" y1="12.68" x2="24.84" y2="12.68" stroke="rgb(244,243,243)" stroke-width="2.52" stroke-linecap="butt"/><line x1="4.27" y1="17.75" x2="24.84" y2="17.75" stroke="rgb(244,243,243)" stroke-width="2.52" stroke-linecap="butt"/></g><rect x="5.12" y="27.15" width="29.11" height="31.73" fill="rgb(191,91,90)" transform="matrix(1,0.5000,-1,0.5000,64.00,85.46)"/><line x1="39.35" y1="155.50" x2="39.35" y2="68.00" stroke="#e8b23c" stroke-width="2.2" stroke-linecap="butt"/><line x1="39.35" y1="68.00" x2="40.53" y2="55.43" stroke="#e8b23c" stroke-width="2" stroke-linecap="butt"/><circle cx="40.53" cy="55.43" r="1.6" fill="#222"/><rect x="33.73" y="2.24" width="28.03" height="59.52" fill="rgba(0,0,0,0.20)" transform="matrix(1,0.5000,-1,0.5000,66.50,108.24)"/><g transform="translate(64.00,138.02) skewY(-26.565)"><rect x="0" y="0" width="53.76" height="26.60" fill="rgb(97,41,26)"/><line x1="8.96" y1="2.99" x2="8.96" y2="23.61" stroke="rgb(228,224,224)" stroke-width="2.17" stroke-linecap="butt"/></g><g transform="translate(41.73,126.88) skewY(26.565)"><rect x="0" y="0" width="22.27" height="26.60" fill="rgb(162,68,43)"/><line x1="11.14" y1="3.23" x2="11.14" y2="23.37" stroke="rgb(229,226,226)" stroke-width="2.47" stroke-linecap="butt"/></g><rect x="36.61" y="5.12" width="22.27" height="53.76" fill="rgb(196,104,80)" transform="matrix(1,0.5000,-1,0.5000,64.00,79.14)"/><g transform="translate(64.00,117.93) skewY(-26.565)"><rect x="0" y="0" width="53.76" height="20.09" fill="rgb(105,26,22)"/><line x1="5.68" y1="12.56" x2="48.08" y2="12.56" stroke="rgb(245,244,244)" stroke-width="3.23" stroke-linecap="butt"/><line x1="5.68" y1="17.58" x2="48.08" y2="17.58" stroke="rgb(245,244,244)" stroke-width="3.23" stroke-linecap="butt"/></g><g transform="translate(41.73,106.79) skewY(26.565)"><rect x="0" y="0" width="22.27" height="20.09" fill="rgb(176,44,36)"/><line x1="3.40" y1="10.05" x2="18.87" y2="10.05" stroke="rgb(243,243,243)" stroke-width="2.48" stroke-linecap="butt"/><line x1="3.40" y1="14.06" x2="18.87" y2="14.06" stroke="rgb(243,243,243)" stroke-width="2.48" stroke-linecap="butt"/><line x1="3.40" y1="18.08" x2="18.87" y2="18.08" stroke="rgb(243,243,243)" stroke-width="2.48" stroke-linecap="butt"/></g><rect x="36.61" y="5.12" width="22.27" height="53.76" fill="rgb(205,85,78)" transform="matrix(1,0.5000,-1,0.5000,64.00,59.05)"/><g transform="translate(64.00,95.37) skewY(-26.565)"><rect x="0" y="0" width="53.76" height="22.55" fill="rgb(107,44,19)"/><line x1="6.72" y1="2.27" x2="6.72" y2="20.28" stroke="rgb(237,235,235)" stroke-width="3.06" stroke-linecap="butt"/><line x1="20.16" y1="2.27" x2="20.16" y2="20.28" stroke="rgb(237,235,235)" stroke-width="3.06" stroke-linecap="butt"/></g><g transform="translate(41.73,84.24) skewY(26.565)"><rect x="0" y="0" width="22.27" height="22.55" fill="rgb(178,73,32)"/><line x1="3.71" y1="3.27" x2="3.71" y2="19.28" stroke="rgb(241,239,239)" stroke-width="2.42" stroke-linecap="butt"/></g><rect x="36.61" y="5.12" width="22.27" height="53.76" fill="rgb(208,111,73)" transform="matrix(1,0.5000,-1,0.5000,64.00,36.49)"/></g></svg>