<svg xmlns="http://www.w3.org/2000/svg" version="1.1" width="128" height="150"><g><rect x="4.16" y="4.16" width="55.68" height="30.74" fill="rgba(0,0,0,0.20)" transform="matrix(1,0.5000,-1,0.5000,66.50,80.16)"/><g transform="translate(88.94,99.67) skewY(-26.565)"><rect x="0" y="0" width="24.98" height="22.48" fill="rgb(107,19,22)"/><line x1="3.08" y1="3.75" x2="21.90" y2="3.75" stroke="rgb(246,246,246)" stroke-width="2.54" stroke-linecap="butt"/></g><g transform="translate(39.02,74.71) skewY(26.565)"><rect x="0" y="0" width="49.92" height="22.48" fill="rgb(178,32,37)"/><line x1="14.98" y1="2.90" x2="14.98" y2="19.59" stroke="rgb(227,224,224)" stroke-width="2.05" stroke-linecap="butt"/><line x1="24.96" y1="2.90" x2="24.96" y2="19.59" stroke="rgb(227,224,224)" stroke-width="2.05" stroke-linecap="butt"/><line x1="34.94" y1="2.90" x2="34.94" y2="19.59" stroke="rgb(227,224,224)" stroke-width="2.05" stroke-linecap="butt"/></g><rect x="7.04" y="7.04" width="49.92" height="24.98" fill="rgb(209,72,78)" transform="matrix(1,0.5000,-1,0.5000,64.00,55.18)"/><g transform="translate(88.94,79.62) skewY(-26.565)"><rect x="0" y="0" width="24.98" height="20.04" fill="rgb(90,20,20)"/><line x1="3.12" y1="2.96" x2="3.12" y2="17.08" stroke="rgb(243,242,242)" stroke-width="2.19" stroke-linecap="butt"/><line x1="9.37" y1="2.96" x2="9.37" y2="17.08" stroke="rgb(243,242,242)" stroke-width="2.19" stroke-linecap="butt"/><line x1="15.61" y1="2.96" x2="15.61" y2="17.08" stroke="rgb(243,242,242)" stroke-width="2.19" stroke-linecap="butt"/></g><g transform="translate(39.02,54.66) skewY(26.565)"><rect x="0" y="0" width="49.92" height="20.04" fill="rgb(150,33,33)"/><line x1="6.24" y1="2.72" x2="6.24" y2="17.32" stroke="rgb(243,242,242)" stroke-width="2.54" stroke-linecap="butt"/><line x1="18.72" y1="2.72" x2="18.72" y2="17.32" stroke="rgb(243,242,242)" stroke-width="2.54" stroke-linecap="butt"/></g><rect x="7.04" y="7.04" width="49.92" height="24.98" fill="rgb(196,58,58)" transform="matrix(1,0.5000,-1,0.5000,64.00,35.14)"/><line x1="120.32" y1="109.66" x2="120.32" y2="31.06" stroke="#e8b23c" stroke-width="2.2" stroke-linecap="butt"/><line x1="120.32" y1="31.06" x2="80.86" y2="29.45" stroke="#e8b23c" stroke-width="2" stroke-linecap="butt"/><circle cx="80.86" cy="29.45" r="1.6" fill="#222"/><rect x="4.16" y="33.69" width="55.68" height="26.15" fill="rgba(0,0,0,0.20)" transform="matrix(1,0.5000,-1,0.5000,66.50,80.16)"/><g transform="translate(64.00,116.04) skewY(-26.565)"><rect x="0" y="0" width="20.39" height="18.58" fill="rgb(92,38,32)"/><line x1="2.55" y1="2.90" x2="2.55" y2="15.68" stroke="rgb(247,246,246)" stroke-width="2" stroke-linecap="butt"/><line x1="7.65" y1="2.90" x2="7.65" y2="15.68" stroke="rgb(247,246,246)" stroke-width="2" stroke-linecap="butt"/><line x1="12.75" y1="2.90" x2="12.75" y2="15.68" stroke="rgb(247,246,246)" stroke-width="2" stroke-linecap="butt"/><line x1="17.84" y1="2.90" x2="17.84" y2="15.68" stroke="rgb(247,246,246)" stroke-width="2" stroke-linecap="butt"/></g><g transform="translate(14.08,91.08) skewY(26.565)"><rect x="0" y="0" width="49.92" height="18.58" fill="rgb(154,63,53)"/></g><rect x="7.04" y="36.57" width="49.92" height="20.39" fill="rgb(187,100,91)" transform="matrix(1,0.5000,-1,0.5000,64.00,59.08)"/><g transform="translate(64.00,91.12) skewY(-26.565)"><rect x="0" y="0" width="20.39" height="24.92" fill="rgb(76,29,25)"/><line x1="2.99" y1="3.11" x2="17.40" y2="3.11" stroke="rgb(237,235,235)" stroke-width="3.13" stroke-linecap="butt"/><line x1="2.99" y1="9.34" x2="17.40" y2="9.34" stroke="rgb(237,235,235)" stroke-width="3.13" stroke-linecap="butt"/></g><g transform="translate(14.08,66.16) skewY(26.565)"><rect x="0" y="0" width="49.92" height="24.92" fill="rgb(127,49,42)"/><line x1="5.65" y1="7.47" x2="44.27" y2="7.47" stroke="rgb(241,239,239)" stroke-width="2.77" stroke-linecap="butt"/><line x1="5.65" y1="12.46" x2="44.27" y2="12.46" stroke="rgb(241,239,239)" stroke-width="2.77" stroke-linecap="butt"/><line x1="5.65" y1="17.44" x2="44.27" y2="17.44" stroke="rgb(241,239,239)" stroke-width="2.77" stroke-linecap="butt"/><line x1="5.65" y1="22.42" x2="44.27" y2="22.42" stroke="rgb(241,239,239)" stroke-width="2.77" stroke-linecap="butt"/></g><rect x="7.04" y="36.57" width="49.92" height="20.39" fill="rgb(172,77,68)" transform="matrix(1,0.5000,-1,0.5000,64.00,34.16)"/><line x1="34.47" y1="96.26" x2="34.47" y2="10.91" stroke="#e8b23c" stroke-width="2.2" stroke-linecap="butt"/><line x1="34.47" y1="10.91" x2="47.76" y2="33.61" stroke="#e8b23c" stroke-width="2" stroke-linecap="butt"/><circle cx="47.76" cy="33.61" r="1.6" fill="#222"/></g></svg>