<svg xmlns="http://www.w3.org/2000/svg" version="1.1" width="128" height="180"><g><rect x="2.24" y="2.24" width="40.65" height="25.11" fill="rgba(0,0,0,0.20)" transform="matrix(1,0.5000,-1,0.5000,66.50,108.24)"/><g transform="translate(79.54,113.42) skewY(-26.565)"><rect x="0" y="0" width="19.35" height="24.56" fill="rgb(77,35,24)"/><line x1="9.67" y1="3.54" x2="9.67" y2="21.01" stroke="rgb(238,236,236)" stroke-width="2.79" stroke-linecap="butt"/></g><g transform="translate(44.65,95.98) skewY(26.565)"><rect x="0" y="0" width="34.89" height="24.56" fill="rgb(128,59,40)"/><line x1="3.62" y1="15.35" x2="31.26" y2="15.35" stroke="rgb(238,238,238)" stroke-width="2.32" stroke-linecap="butt"/></g><rect x="5.12" y="5.12" width="34.89" height="19.35" fill="rgb(173,89,66)" transform="matrix(1,0.5000,-1,0.5000,64.00,81.18)"/><g transform="translate(79.54,94.16) skewY(-26.565)"><rect x="0" y="0" width="19.35" height="19.26" fill="rgb(81,18,19)"/><line x1="16.93" y1="2.03" x2="16.93" y2="17.23" stroke="rgb(233,232,232)" stroke-width="2.32" stroke-linecap="butt"/></g><g transform="translate(44.65,76.71) skewY(26.565)"><rect x="0" y="0" width="34.89" height="19.26" fill="rgb(134,31,32)"/><line x1="3.49" y1="2.74" x2="3.49" y2="16.52" stroke="rgb(244,244,244)" stroke-width="3.09" stroke-linecap="butt"/><line x1="10.47" y1="2.74" x2="10.47" y2="16.52" stroke="rgb(244,244,244)" stroke-width="3.09" stroke-linecap="butt"/><line x1="17.44" y1="2.74" x2="17.44" y2="16.52" stroke="rgb(244,244,244)" stroke-width="3.09" stroke-linecap="butt"/><line x1="24.42" y1="2.74" x2="24.42" y2="16.52" stroke="rgb(244,244,244)" stroke-width="3.09" stroke-linecap="butt"/></g><rect x="5.12" y="5.12" width="34.89" height="19.35" fill="rgb(181,55,57)" transform="matrix(1,0.5000,-1,0.5000,64.00,61.92)"/><rect x="2.24" y="26.02" width="40.65" height="35.74" fill="rgba(0,0,0,0.20)" transform="matrix(1,0.5000,-1,0.5000,66.50,108.24)"/><g transform="translate(45.13,136.28) skewY(-26.565)"><rect x="0" y="0" width="29.98" height="18.90" fill="rgb(95,26,21)"/><line x1="18.74" y1="2.81" x2="18.74" y2="16.09" stroke="rgb(237,235,235)" stroke-width="2.05" stroke-linecap="butt" stroke-dasharray="8.17,2.01"/></g><g transform="translate(10.24,118.84) skewY(26.565)"><rect x="0" y="0" width="34.89" height="18.90" fill="rgb(159,43,35)"/><line x1="4.16" y1="7.09" x2="30.73" y2="7.09" stroke="rgb(243,243,243)" stroke-width="3.08" stroke-linecap="butt"/></g><rect x="5.12" y="28.90" width="34.89" height="29.98" fill="rgb(199,75,66)" transform="matrix(1,0.5000,-1,0.5000,64.00,86.84)"/><g transform="translate(45.13,113.36) skewY(-26.565)"><rect x="0" y="0" width="29.98" height="22.92" fill="rgb(82,24,21)"/><line x1="5.00" y1="3.38" x2="5.00" y2="19.53" stroke="rgb(232,228,228)" stroke-width="2.6" stroke-linecap="butt"/></g><g transform="translate(10.24,95.92) skewY(26.565)"><rect x="0" y="0" width="34.89" height="22.92" fill="rgb(137,40,35)"/><line x1="17.44" y1="3.05" x2="17.44" y2="19.86" stroke="rgb(234,233,233)" stroke-width="2.15" stroke-linecap="butt"/><line x1="24.42" y1="3.05" x2="24.42" y2="19.86" stroke="rgb(234,233,233)" stroke-width="2.15" stroke-linecap="butt"/></g><rect x="5.12" y="28.90" width="34.89" height="29.98" fill="rgb(183,66,61)" transform="matrix(1,0.5000,-1,0.5000,64.00,63.92)"/><line x1="3.84" y1="137.74" x2="3.84" y2="70.95" stroke="#e8b23c" stroke-width="2.2" stroke-linecap="butt"/><line x1="3.84" y1="70.95" x2="38.79" y2="76.05" stroke="#e8b23c" stroke-width="2" stroke-linecap="butt"/><circle cx="38.79" cy="76.05" r="1.6" fill="#222"/><rect x="39.84" y="2.24" width="21.92" height="59.52" fill="rgba(0,0,0,0.20)" transform="matrix(1,0.5000,-1,0.5000,66.50,108.24)"/><g transform="translate(64.00,145.80) skewY(-26.565)"><rect x="0" y="0" width="53.76" height="18.82" fill="rgb(93,32,24)"/><line x1="7.53" y1="15.68" x2="46.23" y2="15.68" stroke="rgb(239,239,239)" stroke-width="3.29" stroke-linecap="butt"/></g><g transform="translate(47.84,137.73) skewY(26.565)"><rect x="0" y="0" width="16.16" height="18.82" fill="rgb(155,54,39)"/><line x1="2.17" y1="3.14" x2="13.99" y2="3.14" stroke="rgb(246,245,245)" stroke-width="2.51" stroke-linecap="butt"/></g><rect x="42.72" y="5.12" width="16.16" height="53.76" fill="rgb(194,87,71)" transform="matrix(1,0.5000,-1,0.5000,64.00,86.92)"/><g transform="translate(64.00,123.04) skewY(-26.565)"><rect x="0" y="0" width="53.76" height="22.77" fill="rgb(71,31,26)"/><line x1="8.96" y1="2.71" x2="8.96" y2="20.06" stroke="rgb(244,244,244)" stroke-width="2.8" stroke-linecap="butt"/></g><g transform="translate(47.84,114.96) skewY(26.565)"><rect x="0" y="0" width="16.16" height="22.77" fill="rgb(119,52,44)"/><line x1="8.08" y1="2.39" x2="8.08" y2="20.37" stroke="rgb(235,234,234)" stroke-width="2.07" stroke-linecap="butt"/></g><rect x="42.72" y="5.12" width="16.16" height="53.76" fill="rgb(163,82,71)" transform="matrix(1,0.5000,-1,0.5000,64.00,64.16)"/><g transform="translate(64.00,102.26) skewY(-26.565)"><rect x="0" y="0" width="53.76" height="20.78" fill="rgb(29,77,98)"/><line x1="6.33" y1="2.60" x2="47.43" y2="2.60" stroke="rgb(228,225,225)" stroke-width="2.72" stroke-linecap="butt"/></g><g transform="translate(47.84,94.18) skewY(26.565)"><rect x="0" y="0" width="16.16" height="20.78" fill="rgb(49,128,163)"/><line x1="2.02" y1="2.92" x2="2.02" y2="17.86" stroke="rgb(247,246,246)" stroke-width="3.14" stroke-linecap="butt"/><line x1="6.06" y1="2.92" x2="6.06" y2="17.86" stroke="rgb(247,246,246)" stroke-width="3.14" stroke-linecap="butt"/><line x1="10.10" y1="2.92" x2="10.10" y2="17.86" stroke="rgb(247,246,246)" stroke-width="3.14" stroke-linecap="butt"/><line x1="14.14" y1="2.92" x2="14.14" y2="17.86" stroke="rgb(247,246,246)" stroke-width="3.14" stroke-linecap="butt"/></g><rect x="42.72" y="5.12" width="16.16" height="53.76" fill="rgb(90,162,193)" transform="matrix(1,0.5000,-1,0.5000,64.00,43.38)"/><line x1="64.00" y1="167.82" x2="64.00" y2="75.81" stroke="#e8b23c" stroke-width="2.2" stroke-linecap="butt"/><line x1="64.00" y1="75.81" x2="80.92" y2="61.20" stroke="#e8b23c" stroke-width="2" stroke-linecap="butt"/><circle cx="80.92" cy="61.20" r="1.6" fill="#222"/></g></svg>