<svg xmlns="http://www.w3.org/2000/svg" version="1.1" width="128" height="180"><g><rect x="2.24" y="2.24" width="29.62" height="59.52" fill="rgba(0,0,0,0.20)" transform="matrix(1,0.5000,-1,0.5000,66.50,108.24)"/><g transform="translate(34.10,123.74) skewY(-26.565)"><rect x="0" y="0" width="53.76" height="25.93" fill="rgb(81,24,26)"/><line x1="7.71" y1="4.32" x2="46.05" y2="4.32" stroke="rgb(247,246,246)" stroke-width="2.5" stroke-linecap="butt" stroke-dasharray="2.80,3.72"/><line x1="7.71" y1="12.97" x2="46.05" y2="12.97" stroke="rgb(247,246,246)" stroke-width="2.5" stroke-linecap="butt" stroke-dasharray="2.80,3.72"/></g><g transform="translate(10.24,111.81) skewY(26.565)"><rect x="0" y="0" width="23.86" height="25.93" fill="rgb(135,40,43)"/><line x1="2.61" y1="21.61" x2="21.26" y2="21.61" stroke="rgb(240,238,238)" stroke-width="2.1" stroke-linecap="butt"/></g><rect x="5.12" y="5.12" width="23.86" height="53.76" fill="rgb(180,66,69)" transform="matrix(1,0.5000,-1,0.5000,64.00,79.81)"/><g transform="translate(34.10,97.72) skewY(-26.565)"><rect x="0" y="0" width="53.76" height="26.02" fill="rgb(99,19,21)"/><line x1="6.72" y1="3.97" x2="6.72" y2="22.06" stroke="rgb(242,240,240)" stroke-width="2.3" stroke-linecap="butt"/></g><g transform="translate(10.24,85.78) skewY(26.565)"><rect x="0" y="0" width="23.86" height="26.02" fill="rgb(165,32,35)"/><line x1="7.16" y1="3.15" x2="7.16" y2="22.87" stroke="rgb(227,223,223)" stroke-width="2.69" stroke-linecap="butt"/><line x1="11.93" y1="3.15" x2="11.93" y2="22.87" stroke="rgb(227,223,223)" stroke-width="2.69" stroke-linecap="butt"/></g><rect x="5.12" y="5.12" width="23.86" height="53.76" fill="rgb(203,65,68)" transform="matrix(1,0.5000,-1,0.5000,64.00,53.78)"/><line x1="3.84" y1="137.74" x2="3.84" y2="38.37" stroke="#e8b23c" stroke-width="2.2" stroke-linecap="butt"/><line x1="3.84" y1="38.37" x2="44.53" y2="35.64" stroke="#e8b23c" stroke-width="2" stroke-linecap="butt"/><circle cx="44.53" cy="35.64" r="1.6" fill="#222"/><rect x="29.63" y="2.24" width="32.13" height="59.52" fill="rgba(0,0,0,0.20)" transform="matrix(1,0.5000,-1,0.5000,66.50,108.24)"/><g transform="translate(64.00,144.22) skewY(-26.565)"><rect x="0" y="0" width="53.76" height="20.40" fill="rgb(97,39,20)"/><line x1="8.42" y1="7.65" x2="45.34" y2="7.65" stroke="rgb(236,233,233)" stroke-width="3.33" stroke-linecap="butt"/></g><g transform="translate(37.63,131.04) skewY(26.565)"><rect x="0" y="0" width="26.37" height="20.40" fill="rgb(161,65,34)"/><line x1="3.75" y1="2.55" x2="22.62" y2="2.55" stroke="rgb(234,232,232)" stroke-width="3.11" stroke-linecap="butt"/><line x1="3.75" y1="7.65" x2="22.62" y2="7.65" stroke="rgb(234,232,232)" stroke-width="3.11" stroke-linecap="butt"/></g><rect x="32.51" y="5.12" width="26.37" height="53.76" fill="rgb(201,99,66)" transform="matrix(1,0.5000,-1,0.5000,64.00,85.34)"/><g transform="translate(64.00,125.60) skewY(-26.565)"><rect x="0" y="0" width="53.76" height="18.62" fill="rgb(78,29,31)"/><line x1="6.49" y1="1.86" x2="47.27" y2="1.86" stroke="rgb(236,236,236)" stroke-width="2.38" stroke-linecap="butt" stroke-dasharray="5.75,5.71"/><line x1="6.49" y1="5.59" x2="47.27" y2="5.59" stroke="rgb(236,236,236)" stroke-width="2.38" stroke-linecap="butt" stroke-dasharray="5.75,5.71"/><line x1="6.49" y1="9.31" x2="47.27" y2="9.31" stroke="rgb(236,236,236)" stroke-width="2.38" stroke-linecap="butt" stroke-dasharray="5.75,5.71"/></g><g transform="translate(37.63,112.42) skewY(26.565)"><rect x="0" y="0" width="26.37" height="18.62" fill="rgb(130,48,51)"/><line x1="21.98" y1="2.33" x2="21.98" y2="16.29" stroke="rgb(246,244,244)" stroke-width="2.33" stroke-linecap="butt"/></g><rect x="32.51" y="5.12" width="26.37" height="53.76" fill="rgb(174,75,80)" transform="matrix(1,0.5000,-1,0.5000,64.00,66.72)"/><g transform="translate(64.00,99.91) skewY(-26.565)"><rect x="0" y="0" width="53.76" height="25.69" fill="rgb(75,33,28)"/><line x1="6.32" y1="9.64" x2="47.44" y2="9.64" stroke="rgb(227,224,224)" stroke-width="2.46" stroke-linecap="butt"/></g><g transform="translate(37.63,86.72) skewY(26.565)"><rect x="0" y="0" width="26.37" height="25.69" fill="rgb(126,54,47)"/><line x1="7.91" y1="2.75" x2="7.91" y2="22.94" stroke="rgb(232,231,231)" stroke-width="3.02" stroke-linecap="butt"/><line x1="13.19" y1="2.75" x2="13.19" y2="22.94" stroke="rgb(232,231,231)" stroke-width="3.02" stroke-linecap="butt"/><line x1="18.46" y1="2.75" x2="18.46" y2="22.94" stroke="rgb(232,231,231)" stroke-width="3.02" stroke-linecap="butt"/><line x1="23.73" y1="2.75" x2="23.73" y2="22.94" stroke="rgb(232,231,231)" stroke-width="3.02" stroke-linecap="butt"/></g><rect x="32.51" y="5.12" width="26.37" height="53.76" fill="rgb(169,84,75)" transform="matrix(1,0.5000,-1,0.5000,64.00,41.03)"/><line x1="64.00" y1="167.82" x2="64.00" y2="70.01" stroke="#e8b23c" stroke-width="2.2" stroke-linecap="butt"/><line x1="64.00" y1="70.01" x2="76.32" y2="53.10" stroke="#e8b23c" stroke-width="2" stroke-linecap="butt"/><circle cx="76.32" cy="53.10" r="1.6" fill="#222"/></g></svg>