<svg xmlns="http://www.w3.org/2000/svg" version="1.1" width="128" height="167"><g><rect x="6.08" y="6.08" width="26.57" height="51.84" fill="rgba(0,0,0,0.20)" transform="matrix(1,0.5000,-1,0.5000,66.50,99.08)"/><g transform="translate(38.73,120.17) skewY(-26.565)"><rect x="0" y="0" width="46.08" height="18.81" fill="rgb(92,23,16)"/><line x1="5.72" y1="2.35" x2="40.36" y2="2.35" stroke="rgb(235,232,232)" stroke-width="2.4" stroke-linecap="butt"/><line x1="5.72" y1="7.05" x2="40.36" y2="7.05" stroke="rgb(235,232,232)" stroke-width="2.4" stroke-linecap="butt"/><line x1="5.72" y1="11.76" x2="40.36" y2="11.76" stroke="rgb(235,232,232)" stroke-width="2.4" stroke-linecap="butt"/><line x1="5.72" y1="16.46" x2="40.36" y2="16.46" stroke="rgb(235,232,232)" stroke-width="2.4" stroke-linecap="butt"/></g><g transform="translate(17.92,109.77) skewY(26.565)"><rect x="0" y="0" width="20.81" height="18.81" fill="rgb(154,39,27)"/></g><rect x="8.96" y="8.96" width="20.81" height="46.08" fill="rgb(201,65,51)" transform="matrix(1,0.5000,-1,0.5000,64.00,77.77)"/><g transform="translate(38.73,96.96) skewY(-26.565)"><rect x="0" y="0" width="46.08" height="23.21" fill="rgb(90,46,29)"/><line x1="5.75" y1="3.87" x2="40.33" y2="3.87" stroke="rgb(228,227,227)" stroke-width="2.07" stroke-linecap="butt"/><line x1="5.75" y1="11.60" x2="40.33" y2="11.60" stroke="rgb(228,227,227)" stroke-width="2.07" stroke-linecap="butt"/><line x1="5.75" y1="19.34" x2="40.33" y2="19.34" stroke="rgb(228,227,227)" stroke-width="2.07" stroke-linecap="butt"/></g><g transform="translate(17.92,86.56) skewY(26.565)"><rect x="0" y="0" width="20.81" height="23.21" fill="rgb(150,77,49)"/><line x1="13.01" y1="2.65" x2="13.01" y2="20.56" stroke="rgb(241,239,239)" stroke-width="3.29" stroke-linecap="butt"/></g><rect x="8.96" y="8.96" width="20.81" height="46.08" fill="rgb(187,113,84)" transform="matrix(1,0.5000,-1,0.5000,64.00,54.56)"/><g transform="translate(38.73,71.78) skewY(-26.565)"><rect x="0" y="0" width="46.08" height="25.19" fill="rgb(17,68,86)"/><line x1="23.04" y1="3.93" x2="23.04" y2="21.26" stroke="rgb(230,225,225)" stroke-width="2.23" stroke-linecap="butt"/><line x1="32.26" y1="3.93" x2="32.26" y2="21.26" stroke="rgb(230,225,225)" stroke-width="2.23" stroke-linecap="butt"/><line x1="41.47" y1="3.93" x2="41.47" y2="21.26" stroke="rgb(230,225,225)" stroke-width="2.23" stroke-linecap="butt"/></g><g transform="translate(17.92,61.37) skewY(26.565)"><rect x="0" y="0" width="20.81" height="25.19" fill="rgb(28,113,143)"/><line x1="2.58" y1="9.45" x2="18.23" y2="9.45" stroke="rgb(228,224,224)" stroke-width="3.2" stroke-linecap="butt"/></g><rect x="8.96" y="8.96" width="20.81" height="46.08" fill="rgb(52,154,190)" transform="matrix(1,0.5000,-1,0.5000,64.00,29.37)"/><line x1="64.00" y1="102.34" x2="64.00" y2="6.05" stroke="#e8b23c" stroke-width="2.2" stroke-linecap="butt"/><line x1="64.00" y1="6.05" x2="52.63" y2="27.98" stroke="#e8b23c" stroke-width="2" stroke-linecap="butt"/><circle cx="52.63" cy="27.98" r="1.6" fill="#222"/><rect x="31.96" y="6.08" width="25.96" height="51.84" fill="rgba(0,0,0,0.20)" transform="matrix(1,0.5000,-1,0.5000,66.50,99.08)"/><g transform="translate(64.00,134.18) skewY(-26.565)"><rect x="0" y="0" width="46.08" height="17.44" fill="rgb(72,28,25)"/><line x1="6.48" y1="14.53" x2="39.60" y2="14.53" stroke="rgb(231,228,228)" stroke-width="2.35" stroke-linecap="butt"/></g><g transform="translate(43.80,124.08) skewY(26.565)"><rect x="0" y="0" width="20.20" height="17.44" fill="rgb(120,47,42)"/><line x1="2.02" y1="2.65" x2="2.02" y2="14.78" stroke="rgb(233,231,231)" stroke-width="3.21" stroke-linecap="butt" stroke-dasharray="3.06,2.80"/><line x1="6.06" y1="2.65" x2="6.06" y2="14.78" stroke="rgb(233,231,231)" stroke-width="3.21" stroke-linecap="butt" stroke-dasharray="3.06,2.80"/><line x1="10.10" y1="2.65" x2="10.10" y2="14.78" stroke="rgb(233,231,231)" stroke-width="3.21" stroke-linecap="butt" stroke-dasharray="3.06,2.80"/><line x1="14.14" y1="2.65" x2="14.14" y2="14.78" stroke="rgb(233,231,231)" stroke-width="3.21" stroke-linecap="butt" stroke-dasharray="3.06,2.80"/><line x1="18.18" y1="2.65" x2="18.18" y2="14.78" stroke="rgb(233,231,231)" stroke-width="3.21" stroke-linecap="butt" stroke-dasharray="3.06,2.80"/></g><rect x="34.84" y="8.96" width="20.20" height="46.08" fill="rgb(164,75,69)" transform="matrix(1,0.5000,-1,0.5000,64.00,79.14)"/></g></svg>