<svg xmlns="http://www.w3.org/2000/svg" version="1.1" width="128" height="150"><g><rect x="4.16" y="4.16" width="55.68" height="55.68" fill="rgba(0,0,0,0.20)" transform="matrix(1,0.5000,-1,0.5000,66.50,80.16)"/><g transform="translate(64.00,109.66) skewY(-26.565)"><rect x="0" y="0" width="49.92" height="24.96" fill="rgb(83,40,27)"/><line x1="41.60" y1="2.61" x2="41.60" y2="22.35" stroke="rgb(240,240,240)" stroke-width="2.18" stroke-linecap="butt"/></g><g transform="translate(14.08,84.70) skewY(26.565)"><rect x="0" y="0" width="49.92" height="24.96" fill="rgb(139,66,45)"/></g><rect x="7.04" y="7.04" width="49.92" height="49.92" fill="rgb(183,97,73)" transform="matrix(1,0.5000,-1,0.5000,64.00,52.70)"/><g transform="translate(64.00,88.42) skewY(-26.565)"><rect x="0" y="0" width="49.92" height="21.24" fill="rgb(95,80,21)"/><line x1="5.30" y1="3.54" x2="44.62" y2="3.54" stroke="rgb(227,224,224)" stroke-width="3.1" stroke-linecap="butt"/></g><g transform="translate(14.08,63.46) skewY(26.565)"><rect x="0" y="0" width="49.92" height="21.24" fill="rgb(158,133,35)"/><line x1="7.57" y1="2.12" x2="42.35" y2="2.12" stroke="rgb(234,234,234)" stroke-width="2.15" stroke-linecap="butt"/><line x1="7.57" y1="6.37" x2="42.35" y2="6.37" stroke="rgb(234,234,234)" stroke-width="2.15" stroke-linecap="butt"/><line x1="7.57" y1="10.62" x2="42.35" y2="10.62" stroke="rgb(234,234,234)" stroke-width="2.15" stroke-linecap="butt"/></g><rect x="7.04" y="7.04" width="49.92" height="49.92" fill="rgb(199,171,65)" transform="matrix(1,0.5000,-1,0.5000,64.00,31.46)"/></g></svg>