<svg xmlns="http://www.w3.org/2000/svg" version="1.1" width="128" height="134"><g><rect x="6.08" y="6.08" width="51.84" height="23.68" fill="rgba(0,0,0,0.20)" transform="matrix(1,0.5000,-1,0.5000,66.50,66.08)"/><g transform="translate(92.16,82.62) skewY(-26.565)"><rect x="0" y="0" width="17.92" height="21.92" fill="rgb(91,45,30)"/><line x1="5.38" y1="2.21" x2="5.38" y2="19.71" stroke="rgb(243,241,241)" stroke-width="2.36" stroke-linecap="butt"/><line x1="8.96" y1="2.21" x2="8.96" y2="19.71" stroke="rgb(243,241,241)" stroke-width="2.36" stroke-linecap="butt"/><line x1="12.55" y1="2.21" x2="12.55" y2="19.71" stroke="rgb(243,241,241)" stroke-width="2.36" stroke-linecap="butt"/></g><g transform="translate(46.08,59.58) skewY(26.565)"><rect x="0" y="0" width="46.08" height="21.92" fill="rgb(151,75,49)"/><line x1="23.04" y1="2.47" x2="23.04" y2="19.46" stroke="rgb(230,230,230)" stroke-width="3.19" stroke-linecap="butt"/><line x1="38.40" y1="2.47" x2="38.40" y2="19.46" stroke="rgb(230,230,230)" stroke-width="3.19" stroke-linecap="butt"/></g><rect x="8.96" y="8.96" width="46.08" height="17.92" fill="rgb(187,111,85)" transform="matrix(1,0.5000,-1,0.5000,64.00,41.66)"/><line x1="39.68" y1="81.50" x2="39.68" y2="6.98" stroke="#e8b23c" stroke-width="2.2" stroke-linecap="butt"/><line x1="39.68" y1="6.98" x2="74.24" y2="17.32" stroke="#e8b23c" stroke-width="2" stroke-linecap="butt"/><circle cx="74.24" cy="17.32" r="1.6" fill="#222"/><rect x="6.08" y="28.04" width="51.84" height="29.88" fill="rgba(0,0,0,0.20)" transform="matrix(1,0.5000,-1,0.5000,66.50,66.08)"/><g transform="translate(64.00,100.45) skewY(-26.565)"><rect x="0" y="0" width="24.12" height="18.17" fill="rgb(96,43,26)"/><line x1="3.33" y1="11.36" x2="20.79" y2="11.36" stroke="rgb(227,222,222)" stroke-width="2.48" stroke-linecap="butt"/></g><g transform="translate(17.92,77.41) skewY(26.565)"><rect x="0" y="0" width="46.08" height="18.17" fill="rgb(160,71,43)"/><line x1="5.76" y1="2.09" x2="5.76" y2="16.08" stroke="rgb(226,224,224)" stroke-width="3.06" stroke-linecap="butt"/></g><rect x="8.96" y="30.92" width="46.08" height="24.12" fill="rgb(195,107,79)" transform="matrix(1,0.5000,-1,0.5000,64.00,45.41)"/><g transform="translate(64.00,77.84) skewY(-26.565)"><rect x="0" y="0" width="24.12" height="22.61" fill="rgb(80,33,21)"/><line x1="3.48" y1="15.83" x2="20.65" y2="15.83" stroke="rgb(244,243,243)" stroke-width="3.34" stroke-linecap="butt"/></g><g transform="translate(17.92,54.80) skewY(26.565)"><rect x="0" y="0" width="46.08" height="22.61" fill="rgb(133,54,35)"/><line x1="13.82" y1="2.41" x2="13.82" y2="20.20" stroke="rgb(242,242,242)" stroke-width="2.11" stroke-linecap="butt"/><line x1="23.04" y1="2.41" x2="23.04" y2="20.20" stroke="rgb(242,242,242)" stroke-width="2.11" stroke-linecap="butt"/></g><rect x="8.96" y="30.92" width="46.08" height="24.12" fill="rgb(179,84,61)" transform="matrix(1,0.5000,-1,0.5000,64.00,22.80)"/><line x1="64.00" y1="121.82" x2="64.00" y2="42.38" stroke="#e8b23c" stroke-width="2.2" stroke-linecap="butt"/><line x1="64.00" y1="42.38" x2="54.12" y2="27.71" stroke="#e8b23c" stroke-width="2" stroke-linecap="butt"/><circle cx="54.12" cy="27.71" r="1.6" fill="#222"/></g></svg>