<svg xmlns="http://www.w3.org/2000/svg" version="1.1" width="128" height="180"><g><rect x="2.24" y="2.24" width="59.52" height="31.57" fill="rgba(0,0,0,0.20)" transform="matrix(1,0.5000,-1,0.5000,66.50,108.24)"/><g transform="translate(91.95,126.26) skewY(-26.565)"><rect x="0" y="0" width="25.81" height="24.39" fill="rgb(84,22,22)"/><line x1="3.31" y1="15.24" x2="22.50" y2="15.24" stroke="rgb(245,244,244)" stroke-width="2.16" stroke-linecap="butt"/><line x1="3.31" y1="21.34" x2="22.50" y2="21.34" stroke="rgb(245,244,244)" stroke-width="2.16" stroke-linecap="butt"/></g><g transform="translate(38.19,99.38) skewY(26.565)"><rect x="0" y="0" width="53.76" height="24.39" fill="rgb(140,37,37)"/><line x1="8.25" y1="2.44" x2="45.51" y2="2.44" stroke="rgb(243,243,243)" stroke-width="2.43" stroke-linecap="butt"/><line x1="8.25" y1="7.32" x2="45.51" y2="7.32" stroke="rgb(243,243,243)" stroke-width="2.43" stroke-linecap="butt"/><line x1="8.25" y1="12.19" x2="45.51" y2="12.19" stroke="rgb(243,243,243)" stroke-width="2.43" stroke-linecap="butt"/></g><rect x="5.12" y="5.12" width="53.76" height="25.81" fill="rgb(186,62,63)" transform="matrix(1,0.5000,-1,0.5000,64.00,81.35)"/><g transform="translate(91.95,96.86) skewY(-26.565)"><rect x="0" y="0" width="25.81" height="29.40" fill="rgb(17,88,22)"/><line x1="7.74" y1="3.12" x2="7.74" y2="26.28" stroke="rgb(233,230,230)" stroke-width="3.32" stroke-linecap="butt"/></g><g transform="translate(38.19,69.98) skewY(26.565)"><rect x="0" y="0" width="53.76" height="29.40" fill="rgb(29,147,37)"/><line x1="26.88" y1="4.07" x2="26.88" y2="25.34" stroke="rgb(241,240,240)" stroke-width="2.12" stroke-linecap="butt"/><line x1="44.80" y1="4.07" x2="44.80" y2="25.34" stroke="rgb(241,240,240)" stroke-width="2.12" stroke-linecap="butt"/></g><rect x="5.12" y="5.12" width="53.76" height="25.81" fill="rgb(53,194,62)" transform="matrix(1,0.5000,-1,0.5000,64.00,51.95)"/><g transform="translate(91.95,74.45) skewY(-26.565)"><rect x="0" y="0" width="25.81" height="22.40" fill="rgb(18,60,100)"/><line x1="9.68" y1="3.58" x2="9.68" y2="18.82" stroke="rgb(232,232,232)" stroke-width="2.06" stroke-linecap="butt"/></g><g transform="translate(38.19,47.57) skewY(26.565)"><rect x="0" y="0" width="53.76" height="22.40" fill="rgb(30,99,167)"/><line x1="26.88" y1="3.46" x2="26.88" y2="18.94" stroke="rgb(238,237,237)" stroke-width="2.24" stroke-linecap="butt"/></g><rect x="5.12" y="5.12" width="53.76" height="25.81" fill="rgb(63,135,205)" transform="matrix(1,0.5000,-1,0.5000,64.00,29.55)"/><line x1="31.79" y1="123.77" x2="31.79" y2="50.41" stroke="#e8b23c" stroke-width="2.2" stroke-linecap="butt"/><line x1="31.79" y1="50.41" x2="73.36" y2="60.69" stroke="#e8b23c" stroke-width="2" stroke-linecap="butt"/><circle cx="73.36" cy="60.69" r="1.6" fill="#222"/><rect x="2.24" y="30.87" width="59.52" height="30.89" fill="rgba(0,0,0,0.20)" transform="matrix(1,0.5000,-1,0.5000,66.50,108.24)"/><g transform="translate(64.00,137.74) skewY(-26.565)"><rect x="0" y="0" width="25.13" height="26.88" fill="rgb(86,32,19)"/><line x1="2.76" y1="2.69" x2="22.38" y2="2.69" stroke="rgb(231,229,229)" stroke-width="2.79" stroke-linecap="butt" stroke-dasharray="5.25,2.33"/><line x1="2.76" y1="8.06" x2="22.38" y2="8.06" stroke="rgb(231,229,229)" stroke-width="2.79" stroke-linecap="butt" stroke-dasharray="5.25,2.33"/><line x1="2.76" y1="13.44" x2="22.38" y2="13.44" stroke="rgb(231,229,229)" stroke-width="2.79" stroke-linecap="butt" stroke-dasharray="5.25,2.33"/><line x1="2.76" y1="18.82" x2="22.38" y2="18.82" stroke="rgb(231,229,229)" stroke-width="2.79" stroke-linecap="butt" stroke-dasharray="5.25,2.33"/></g><g transform="translate(10.24,110.86) skewY(26.565)"><rect x="0" y="0" width="53.76" height="26.88" fill="rgb(144,53,31)"/><line x1="7.74" y1="10.08" x2="46.02" y2="10.08" stroke="rgb(239,238,238)" stroke-width="2.76" stroke-linecap="butt"/></g><rect x="5.12" y="33.75" width="53.76" height="25.13" fill="rgb(190,82,55)" transform="matrix(1,0.5000,-1,0.5000,64.00,78.86)"/><g transform="translate(64.00,118.13) skewY(-26.565)"><rect x="0" y="0" width="25.13" height="19.62" fill="rgb(29,71,91)"/><line x1="3.23" y1="2.45" x2="21.91" y2="2.45" stroke="rgb(245,245,245)" stroke-width="2.06" stroke-linecap="butt"/></g><g transform="translate(10.24,91.25) skewY(26.565)"><rect x="0" y="0" width="53.76" height="19.62" fill="rgb(49,118,151)"/><line x1="33.60" y1="2.03" x2="33.60" y2="17.58" stroke="rgb(246,245,245)" stroke-width="2.88" stroke-linecap="butt"/><line x1="47.04" y1="2.03" x2="47.04" y2="17.58" stroke="rgb(246,245,245)" stroke-width="2.88" stroke-linecap="butt"/></g><rect x="5.12" y="33.75" width="53.76" height="25.13" fill="rgb(84,154,188)" transform="matrix(1,0.5000,-1,0.5000,64.00,59.25)"/></g></svg>