<svg xmlns="http://www.w3.org/2000/svg" version="1.1" width="128" height="150"><g><rect x="4.16" y="4.16" width="55.68" height="30.05" fill="rgba(0,0,0,0.20)" transform="matrix(1,0.5000,-1,0.5000,66.50,80.16)"/><g transform="translate(89.63,98.42) skewY(-26.565)"><rect x="0" y="0" width="24.29" height="23.38" fill="rgb(85,33,24)"/><line x1="3.41" y1="11.69" x2="20.88" y2="11.69" stroke="rgb(234,233,233)" stroke-width="2.82" stroke-linecap="butt"/><line x1="3.41" y1="16.37" x2="20.88" y2="16.37" stroke="rgb(234,233,233)" stroke-width="2.82" stroke-linecap="butt"/><line x1="3.41" y1="21.04" x2="20.88" y2="21.04" stroke="rgb(234,233,233)" stroke-width="2.82" stroke-linecap="butt"/></g><g transform="translate(39.71,73.46) skewY(26.565)"><rect x="0" y="0" width="49.92" height="23.38" fill="rgb(142,56,40)"/><line x1="8.32" y1="3.15" x2="8.32" y2="20.23" stroke="rgb(233,231,231)" stroke-width="2.35" stroke-linecap="butt"/></g><rect x="7.04" y="7.04" width="49.92" height="24.29" fill="rgb(188,85,66)" transform="matrix(1,0.5000,-1,0.5000,64.00,54.28)"/><g transform="translate(89.63,73.01) skewY(-26.565)"><rect x="0" y="0" width="24.29" height="25.41" fill="rgb(86,19,19)"/><line x1="3.04" y1="3.83" x2="3.04" y2="21.58" stroke="rgb(225,225,225)" stroke-width="3.18" stroke-linecap="butt"/></g><g transform="translate(39.71,48.05) skewY(26.565)"><rect x="0" y="0" width="49.92" height="25.41" fill="rgb(143,32,32)"/><line x1="18.72" y1="2.95" x2="18.72" y2="22.46" stroke="rgb(226,224,224)" stroke-width="2.89" stroke-linecap="butt" stroke-dasharray="8.41,3.51"/></g><rect x="7.04" y="7.04" width="49.92" height="24.29" fill="rgb(189,56,57)" transform="matrix(1,0.5000,-1,0.5000,64.00,28.87)"/><g transform="translate(89.63,51.48) skewY(-26.565)"><rect x="0" y="0" width="24.29" height="21.53" fill="rgb(84,24,19)"/><line x1="3.66" y1="2.69" x2="20.63" y2="2.69" stroke="rgb(228,226,226)" stroke-width="2.53" stroke-linecap="butt"/><line x1="3.66" y1="8.07" x2="20.63" y2="8.07" stroke="rgb(228,226,226)" stroke-width="2.53" stroke-linecap="butt"/><line x1="3.66" y1="13.46" x2="20.63" y2="13.46" stroke="rgb(228,226,226)" stroke-width="2.53" stroke-linecap="butt"/><line x1="3.66" y1="18.84" x2="20.63" y2="18.84" stroke="rgb(228,226,226)" stroke-width="2.53" stroke-linecap="butt"/></g><g transform="translate(39.71,26.52) skewY(26.565)"><rect x="0" y="0" width="49.92" height="21.53" fill="rgb(141,41,31)"/><line x1="14.98" y1="2.97" x2="14.98" y2="18.56" stroke="rgb(232,230,230)" stroke-width="2.01" stroke-linecap="butt"/></g><rect x="7.04" y="7.04" width="49.92" height="24.29" fill="rgb(187,67,55)" transform="matrix(1,0.5000,-1,0.5000,64.00,7.34)"/><rect x="4.16" y="32.39" width="55.68" height="27.45" fill="rgba(0,0,0,0.20)" transform="matrix(1,0.5000,-1,0.5000,66.50,80.16)"/><g transform="translate(64.00,112.54) skewY(-26.565)"><rect x="0" y="0" width="21.69" height="22.08" fill="rgb(88,36,23)"/></g><g transform="translate(14.08,87.58) skewY(26.565)"><rect x="0" y="0" width="49.92" height="22.08" fill="rgb(146,60,38)"/><line x1="31.20" y1="3.53" x2="31.20" y2="18.55" stroke="rgb(247,246,246)" stroke-width="3.3" stroke-linecap="butt"/><line x1="43.68" y1="3.53" x2="43.68" y2="18.55" stroke="rgb(247,246,246)" stroke-width="3.3" stroke-linecap="butt"/></g><rect x="7.04" y="35.27" width="49.92" height="21.69" fill="rgb(191,90,65)" transform="matrix(1,0.5000,-1,0.5000,64.00,55.58)"/><g transform="translate(64.00,86.93) skewY(-26.565)"><rect x="0" y="0" width="21.69" height="25.61" fill="rgb(89,24,21)"/><line x1="3.10" y1="9.60" x2="18.59" y2="9.60" stroke="rgb(230,227,227)" stroke-width="3.31" stroke-linecap="butt"/><line x1="3.10" y1="16.00" x2="18.59" y2="16.00" stroke="rgb(230,227,227)" stroke-width="3.31" stroke-linecap="butt"/><line x1="3.10" y1="22.41" x2="18.59" y2="22.41" stroke="rgb(230,227,227)" stroke-width="3.31" stroke-linecap="butt"/></g><g transform="translate(14.08,61.97) skewY(26.565)"><rect x="0" y="0" width="49.92" height="25.61" fill="rgb(148,40,35)"/><line x1="6.29" y1="12.80" x2="43.63" y2="12.80" stroke="rgb(226,223,223)" stroke-width="2.69" stroke-linecap="butt"/></g><rect x="7.04" y="35.27" width="49.92" height="21.69" fill="rgb(194,67,61)" transform="matrix(1,0.5000,-1,0.5000,64.00,29.97)"/><line x1="92.09" y1="123.77" x2="92.09" y2="55.81" stroke="#e8b23c" stroke-width="2.2" stroke-linecap="butt"/><line x1="92.09" y1="55.81" x2="54.11" y2="53.45" stroke="#e8b23c" stroke-width="2" stroke-linecap="butt"/><circle cx="54.11" cy="53.45" r="1.6" fill="#222"/></g></svg>