<svg xmlns="http://www.w3.org/2000/svg" version="1.1" width="128" height="150"><g><rect x="4.16" y="4.16" width="55.68" height="55.68" fill="rgba(0,0,0,0.20)" transform="matrix(1,0.5000,-1,0.5000,66.50,80.16)"/><g transform="translate(64.00,109.63) skewY(-26.565)"><rect x="0" y="0" width="49.92" height="24.99" fill="rgb(85,33,27)"/><line x1="5.46" y1="12.50" x2="44.46" y2="12.50" stroke="rgb(232,230,230)" stroke-width="2.41" stroke-linecap="butt"/></g><g transform="translate(14.08,84.67) skewY(26.565)"><rect x="0" y="0" width="49.92" height="24.99" fill="rgb(141,56,46)"/><line x1="7.62" y1="2.50" x2="42.30" y2="2.50" stroke="rgb(238,236,236)" stroke-width="2.1" stroke-linecap="butt"/><line x1="7.62" y1="7.50" x2="42.30" y2="7.50" stroke="rgb(238,236,236)" stroke-width="2.1" stroke-linecap="butt"/><line x1="7.62" y1="12.50" x2="42.30" y2="12.50" stroke="rgb(238,236,236)" stroke-width="2.1" stroke-linecap="butt"/><line x1="7.62" y1="17.49" x2="42.30" y2="17.49" stroke="rgb(238,236,236)" stroke-width="2.1" stroke-linecap="butt"/><line x1="7.62" y1="22.49" x2="42.30" y2="22.49" stroke="rgb(238,236,236)" stroke-width="2.1" stroke-linecap="butt"/></g><rect x="7.04" y="7.04" width="49.92" height="49.92" fill="rgb(184,86,75)" transform="matrix(1,0.5000,-1,0.5000,64.00,52.67)"/><g transform="translate(64.00,86.09) skewY(-26.565)"><rect x="0" y="0" width="49.92" height="23.54" fill="rgb(101,45,25)"/><line x1="5.52" y1="7.06" x2="44.40" y2="7.06" stroke="rgb(242,242,242)" stroke-width="2.6" stroke-linecap="butt" stroke-dasharray="5.31,5.58"/><line x1="5.52" y1="11.77" x2="44.40" y2="11.77" stroke="rgb(242,242,242)" stroke-width="2.6" stroke-linecap="butt" stroke-dasharray="5.31,5.58"/><line x1="5.52" y1="16.48" x2="44.40" y2="16.48" stroke="rgb(242,242,242)" stroke-width="2.6" stroke-linecap="butt" stroke-dasharray="5.31,5.58"/></g><g transform="translate(14.08,61.13) skewY(26.565)"><rect x="0" y="0" width="49.92" height="23.54" fill="rgb(168,76,41)"/><line x1="14.98" y1="2.82" x2="14.98" y2="20.72" stroke="rgb(232,231,231)" stroke-width="2.89" stroke-linecap="butt"/><line x1="24.96" y1="2.82" x2="24.96" y2="20.72" stroke="rgb(232,231,231)" stroke-width="2.89" stroke-linecap="butt"/><line x1="34.94" y1="2.82" x2="34.94" y2="20.72" stroke="rgb(232,231,231)" stroke-width="2.89" stroke-linecap="butt"/><line x1="44.93" y1="2.82" x2="44.93" y2="20.72" stroke="rgb(232,231,231)" stroke-width="2.89" stroke-linecap="butt"/></g><rect x="7.04" y="7.04" width="49.92" height="49.92" fill="rgb(199,113,81)" transform="matrix(1,0.5000,-1,0.5000,64.00,29.13)"/><g transform="translate(64.00,67.66) skewY(-26.565)"><rect x="0" y="0" width="49.92" height="18.44" fill="rgb(101,89,24)"/></g><g transform="translate(14.08,42.70) skewY(26.565)"><rect x="0" y="0" width="49.92" height="18.44" fill="rgb(169,149,40)"/><line x1="6.54" y1="5.53" x2="43.38" y2="5.53" stroke="rgb(247,246,246)" stroke-width="3.15" stroke-linecap="butt"/><line x1="6.54" y1="9.22" x2="43.38" y2="9.22" stroke="rgb(247,246,246)" stroke-width="3.15" stroke-linecap="butt"/></g><rect x="7.04" y="7.04" width="49.92" height="49.92" fill="rgb(200,181,81)" transform="matrix(1,0.5000,-1,0.5000,64.00,10.70)"/><line x1="64.00" y1="137.82" x2="64.00" y2="53.51" stroke="#e8b23c" stroke-width="2.2" stroke-linecap="butt"/><line x1="64.00" y1="53.51" x2="64.00" y2="32.17" stroke="#e8b23c" stroke-width="2" stroke-linecap="butt"/><circle cx="64.00" cy="32.17" r="1.6" fill="#222"/></g></svg>