<svg xmlns="http://www.w3.org/2000/svg" version="1.1" width="128" height="131"><g><rect x="6.08" y="6.08" width="24.53" height="51.84" fill="rgba(0,0,0,0.20)" transform="matrix(1,0.5000,-1,0.5000,66.50,63.08)"/><g transform="translate(36.69,79.66) skewY(-26.565)"><rect x="0" y="0" width="46.08" height="22.31" fill="rgb(89,44,31)"/><line x1="6.92" y1="18.59" x2="39.16" y2="18.59" stroke="rgb(247,247,247)" stroke-width="3.28" stroke-linecap="butt"/></g><g transform="translate(17.92,70.27) skewY(26.565)"><rect x="0" y="0" width="18.77" height="22.31" fill="rgb(149,73,52)"/><line x1="2.09" y1="3.72" x2="16.68" y2="3.72" stroke="rgb(247,247,247)" stroke-width="2.66" stroke-linecap="butt"/></g><rect x="8.96" y="8.96" width="18.77" height="46.08" fill="rgb(185,108,88)" transform="matrix(1,0.5000,-1,0.5000,64.00,38.27)"/><g transform="translate(36.69,63.13) skewY(-26.565)"><rect x="0" y="0" width="46.08" height="16.53" fill="rgb(103,19,21)"/></g><g transform="translate(17.92,53.75) skewY(26.565)"><rect x="0" y="0" width="18.77" height="16.53" fill="rgb(171,31,36)"/><line x1="2.95" y1="1.65" x2="15.83" y2="1.65" stroke="rgb(240,238,238)" stroke-width="2.05" stroke-linecap="butt"/><line x1="2.95" y1="4.96" x2="15.83" y2="4.96" stroke="rgb(240,238,238)" stroke-width="2.05" stroke-linecap="butt"/><line x1="2.95" y1="8.26" x2="15.83" y2="8.26" stroke="rgb(240,238,238)" stroke-width="2.05" stroke-linecap="butt"/></g><rect x="8.96" y="8.96" width="18.77" height="46.08" fill="rgb(206,68,72)" transform="matrix(1,0.5000,-1,0.5000,64.00,21.75)"/><g transform="translate(36.69,38.74) skewY(-26.565)"><rect x="0" y="0" width="46.08" height="24.39" fill="rgb(91,36,17)"/><line x1="7.24" y1="9.15" x2="38.84" y2="9.15" stroke="rgb(246,245,245)" stroke-width="2.29" stroke-linecap="butt"/><line x1="7.24" y1="15.24" x2="38.84" y2="15.24" stroke="rgb(246,245,245)" stroke-width="2.29" stroke-linecap="butt"/></g><g transform="translate(17.92,29.36) skewY(26.565)"><rect x="0" y="0" width="18.77" height="24.39" fill="rgb(152,60,29)"/><line x1="16.42" y1="3.48" x2="16.42" y2="20.91" stroke="rgb(237,237,237)" stroke-width="2.4" stroke-linecap="butt"/></g><rect x="8.96" y="8.96" width="18.77" height="46.08" fill="rgb(199,90,53)" transform="matrix(1,0.5000,-1,0.5000,64.00,-2.64)"/><rect x="28.64" y="6.08" width="29.28" height="51.84" fill="rgba(0,0,0,0.20)" transform="matrix(1,0.5000,-1,0.5000,66.50,63.08)"/><g transform="translate(64.00,91.85) skewY(-26.565)"><rect x="0" y="0" width="46.08" height="23.77" fill="rgb(91,24,19)"/><line x1="4.84" y1="11.88" x2="41.24" y2="11.88" stroke="rgb(240,239,239)" stroke-width="2.46" stroke-linecap="butt"/><line x1="4.84" y1="16.64" x2="41.24" y2="16.64" stroke="rgb(240,239,239)" stroke-width="2.46" stroke-linecap="butt"/><line x1="4.84" y1="21.39" x2="41.24" y2="21.39" stroke="rgb(240,239,239)" stroke-width="2.46" stroke-linecap="butt"/></g><g transform="translate(40.48,80.09) skewY(26.565)"><rect x="0" y="0" width="23.52" height="23.77" fill="rgb(151,41,31)"/><line x1="2.62" y1="8.91" x2="20.90" y2="8.91" stroke="rgb(239,236,236)" stroke-width="2.04" stroke-linecap="butt"/></g><rect x="31.52" y="8.96" width="23.52" height="46.08" fill="rgb(198,67,56)" transform="matrix(1,0.5000,-1,0.5000,64.00,36.81)"/></g></svg>