<svg xmlns="http://www.w3.org/2000/svg" version="1.1" width="128" height="169"><g><rect x="6.08" y="6.08" width="51.84" height="51.84" fill="rgba(0,0,0,0.20)" transform="matrix(1,0.5000,-1,0.5000,66.50,101.08)"/><g transform="translate(64.00,135.60) skewY(-26.565)"><rect x="0" y="0" width="46.08" height="18.02" fill="rgb(107,20,25)"/><line x1="7.68" y1="2.22" x2="7.68" y2="15.81" stroke="rgb(240,238,238)" stroke-width="2.57" stroke-linecap="butt"/><line x1="23.04" y1="2.22" x2="23.04" y2="15.81" stroke="rgb(240,238,238)" stroke-width="2.57" stroke-linecap="butt"/><line x1="38.40" y1="2.22" x2="38.40" y2="15.81" stroke="rgb(240,238,238)" stroke-width="2.57" stroke-linecap="butt"/></g><g transform="translate(17.92,112.56) skewY(26.565)"><rect x="0" y="0" width="46.08" height="18.02" fill="rgb(178,34,41)"/><line x1="7.68" y1="2.82" x2="7.68" y2="15.20" stroke="rgb(242,239,239)" stroke-width="3.35" stroke-linecap="butt"/></g><rect x="8.96" y="8.96" width="46.08" height="46.08" fill="rgb(207,77,83)" transform="matrix(1,0.5000,-1,0.5000,64.00,80.56)"/><g transform="translate(64.00,117.42) skewY(-26.565)"><rect x="0" y="0" width="46.08" height="18.18" fill="rgb(92,33,30)"/><line x1="28.80" y1="2.45" x2="28.80" y2="15.73" stroke="rgb(238,237,237)" stroke-width="3.19" stroke-linecap="butt"/></g><g transform="translate(17.92,94.38) skewY(26.565)"><rect x="0" y="0" width="46.08" height="18.18" fill="rgb(153,55,51)"/><line x1="5.77" y1="5.45" x2="40.31" y2="5.45" stroke="rgb(232,231,231)" stroke-width="2.42" stroke-linecap="butt" stroke-dasharray="4.08,3.29"/><line x1="5.77" y1="9.09" x2="40.31" y2="9.09" stroke="rgb(232,231,231)" stroke-width="2.42" stroke-linecap="butt" stroke-dasharray="4.08,3.29"/></g><rect x="8.96" y="8.96" width="46.08" height="46.08" fill="rgb(188,92,87)" transform="matrix(1,0.5000,-1,0.5000,64.00,62.38)"/><line x1="64.00" y1="104.34" x2="64.00" y2="6.83" stroke="#e8b23c" stroke-width="2.2" stroke-linecap="butt"/><line x1="64.00" y1="6.83" x2="64.00" y2="34.45" stroke="#e8b23c" stroke-width="2" stroke-linecap="butt"/><circle cx="64.00" cy="34.45" r="1.6" fill="#222"/></g></svg>