<svg xmlns="http://www.w3.org/2000/svg" version="1.1" width="128" height="131"><g><rect x="6.08" y="6.08" width="32.16" height="24.01" fill="rgba(0,0,0,0.20)" transform="matrix(1,0.5000,-1,0.5000,66.50,63.08)"/><g transform="translate(72.16,66.13) skewY(-26.565)"><rect x="0" y="0" width="18.25" height="25.74" fill="rgb(92,40,27)"/><line x1="5.47" y1="3.72" x2="5.47" y2="22.02" stroke="rgb(247,247,247)" stroke-width="2.49" stroke-linecap="butt"/><line x1="9.12" y1="3.72" x2="9.12" y2="22.02" stroke="rgb(247,247,247)" stroke-width="2.49" stroke-linecap="butt"/><line x1="12.77" y1="3.72" x2="12.77" y2="22.02" stroke="rgb(247,247,247)" stroke-width="2.49" stroke-linecap="butt"/></g><g transform="translate(45.75,52.92) skewY(26.565)"><rect x="0" y="0" width="26.40" height="25.74" fill="rgb(153,67,45)"/><line x1="3.83" y1="12.87" x2="22.57" y2="12.87" stroke="rgb(236,235,235)" stroke-width="3.07" stroke-linecap="butt"/><line x1="3.83" y1="18.02" x2="22.57" y2="18.02" stroke="rgb(236,235,235)" stroke-width="3.07" stroke-linecap="butt"/></g><rect x="8.96" y="8.96" width="26.40" height="18.25" fill="rgb(190,102,79)" transform="matrix(1,0.5000,-1,0.5000,64.00,34.84)"/><line x1="96.80" y1="82.74" x2="96.80" y2="6.20" stroke="#e8b23c" stroke-width="2.2" stroke-linecap="butt"/><line x1="96.80" y1="6.20" x2="70.95" y2="8.37" stroke="#e8b23c" stroke-width="2" stroke-linecap="butt"/><circle cx="70.95" cy="8.37" r="1.6" fill="#222"/><rect x="6.08" y="28.03" width="32.16" height="29.89" fill="rgba(0,0,0,0.20)" transform="matrix(1,0.5000,-1,0.5000,66.50,63.08)"/><g transform="translate(44.32,89.18) skewY(-26.565)"><rect x="0" y="0" width="24.13" height="16.61" fill="rgb(94,41,33)"/><line x1="2.41" y1="2.01" x2="2.41" y2="14.60" stroke="rgb(243,241,241)" stroke-width="2.01" stroke-linecap="butt"/><line x1="7.24" y1="2.01" x2="7.24" y2="14.60" stroke="rgb(243,241,241)" stroke-width="2.01" stroke-linecap="butt"/><line x1="12.06" y1="2.01" x2="12.06" y2="14.60" stroke="rgb(243,241,241)" stroke-width="2.01" stroke-linecap="butt"/></g><g transform="translate(17.92,75.97) skewY(26.565)"><rect x="0" y="0" width="26.40" height="16.61" fill="rgb(157,68,54)"/><line x1="9.90" y1="2.35" x2="9.90" y2="14.26" stroke="rgb(234,232,232)" stroke-width="2.98" stroke-linecap="butt"/></g><rect x="8.96" y="30.91" width="26.40" height="24.13" fill="rgb(188,107,94)" transform="matrix(1,0.5000,-1,0.5000,64.00,43.97)"/><g transform="translate(44.32,64.19) skewY(-26.565)"><rect x="0" y="0" width="16.25" height="21.05" fill="rgb(25,71,103)"/><line x1="2.32" y1="13.15" x2="13.93" y2="13.15" stroke="rgb(231,226,226)" stroke-width="2.54" stroke-linecap="butt"/></g><g transform="translate(25.80,54.93) skewY(26.565)"><rect x="0" y="0" width="18.52" height="21.05" fill="rgb(42,119,171)"/><line x1="1.85" y1="2.68" x2="1.85" y2="18.36" stroke="rgb(240,240,240)" stroke-width="3.26" stroke-linecap="butt" stroke-dasharray="8.12,4.53"/><line x1="5.56" y1="2.68" x2="5.56" y2="18.36" stroke="rgb(240,240,240)" stroke-width="3.26" stroke-linecap="butt" stroke-dasharray="8.12,4.53"/><line x1="9.26" y1="2.68" x2="9.26" y2="18.36" stroke="rgb(240,240,240)" stroke-width="3.26" stroke-linecap="butt" stroke-dasharray="8.12,4.53"/><line x1="12.97" y1="2.68" x2="12.97" y2="18.36" stroke="rgb(240,240,240)" stroke-width="3.26" stroke-linecap="butt" stroke-dasharray="8.12,4.53"/><line x1="16.67" y1="2.68" x2="16.67" y2="18.36" stroke="rgb(240,240,240)" stroke-width="3.26" stroke-linecap="butt" stroke-dasharray="8.12,4.53"/></g><rect x="12.90" y="34.85" width="18.52" height="16.25" fill="rgb(84,153,201)" transform="matrix(1,0.5000,-1,0.5000,64.00,22.93)"/><rect x="34.96" y="6.08" width="22.96" height="51.84" fill="rgba(0,0,0,0.20)" transform="matrix(1,0.5000,-1,0.5000,66.50,63.08)"/><g transform="translate(64.00,92.92) skewY(-26.565)"><rect x="0" y="0" width="46.08" height="22.70" fill="rgb(93,33,21)"/><line x1="4.61" y1="3.24" x2="4.61" y2="19.46" stroke="rgb(232,229,229)" stroke-width="2.53" stroke-linecap="butt"/><line x1="13.82" y1="3.24" x2="13.82" y2="19.46" stroke="rgb(232,229,229)" stroke-width="2.53" stroke-linecap="butt"/><line x1="23.04" y1="3.24" x2="23.04" y2="19.46" stroke="rgb(232,229,229)" stroke-width="2.53" stroke-linecap="butt"/></g><g transform="translate(46.80,84.32) skewY(26.565)"><rect x="0" y="0" width="17.20" height="22.70" fill="rgb(155,54,35)"/><line x1="12.04" y1="2.31" x2="12.04" y2="20.39" stroke="rgb(227,224,224)" stroke-width="2.07" stroke-linecap="butt"/></g><rect x="37.84" y="8.96" width="17.20" height="46.08" fill="rgb(198,85,64)" transform="matrix(1,0.5000,-1,0.5000,64.00,37.88)"/><g transform="translate(64.00,70.80) skewY(-26.565)"><rect x="0" y="0" width="46.08" height="22.12" fill="rgb(79,35,23)"/><line x1="4.61" y1="2.66" x2="4.61" y2="19.47" stroke="rgb(232,231,231)" stroke-width="2.87" stroke-linecap="butt" stroke-dasharray="3.35,5.26"/><line x1="13.82" y1="2.66" x2="13.82" y2="19.47" stroke="rgb(232,231,231)" stroke-width="2.87" stroke-linecap="butt" stroke-dasharray="3.35,5.26"/></g><g transform="translate(46.80,62.20) skewY(26.565)"><rect x="0" y="0" width="17.20" height="22.12" fill="rgb(132,58,39)"/></g><rect x="37.84" y="8.96" width="17.20" height="46.08" fill="rgb(177,88,65)" transform="matrix(1,0.5000,-1,0.5000,64.00,15.76)"/></g></svg>