<svg xmlns="http://www.w3.org/2000/svg" version="1.1" width="128" height="150"><g><rect x="4.16" y="4.16" width="55.68" height="55.68" fill="rgba(0,0,0,0.20)" transform="matrix(1,0.5000,-1,0.5000,66.50,80.16)"/><g transform="translate(64.00,107.21) skewY(-26.565)"><rect x="0" y="0" width="49.92" height="27.41" fill="rgb(90,34,22)"/><line x1="7.77" y1="8.22" x2="42.15" y2="8.22" stroke="rgb(238,235,235)" stroke-width="3.4" stroke-linecap="butt"/><line x1="7.77" y1="13.71" x2="42.15" y2="13.71" stroke="rgb(238,235,235)" stroke-width="3.4" stroke-linecap="butt"/></g><g transform="translate(14.08,82.25) skewY(26.565)"><rect x="0" y="0" width="49.92" height="27.41" fill="rgb(151,57,36)"/><line x1="7.66" y1="13.71" x2="42.26" y2="13.71" stroke="rgb(234,233,233)" stroke-width="2.38" stroke-linecap="butt"/></g><rect x="7.04" y="7.04" width="49.92" height="49.92" fill="rgb(194,88,64)" transform="matrix(1,0.5000,-1,0.5000,64.00,50.25)"/><g transform="translate(64.00,85.97) skewY(-26.565)"><rect x="0" y="0" width="49.92" height="21.24" fill="rgb(85,36,27)"/><line x1="6.19" y1="18.59" x2="43.73" y2="18.59" stroke="rgb(236,236,236)" stroke-width="2.14" stroke-linecap="butt" stroke-dasharray="6.74,3.30"/></g><g transform="translate(14.08,61.01) skewY(26.565)"><rect x="0" y="0" width="49.92" height="21.24" fill="rgb(141,60,44)"/><line x1="6.23" y1="17.70" x2="43.69" y2="17.70" stroke="rgb(230,229,229)" stroke-width="2.08" stroke-linecap="butt"/></g><rect x="7.04" y="7.04" width="49.92" height="49.92" fill="rgb(184,90,72)" transform="matrix(1,0.5000,-1,0.5000,64.00,29.01)"/></g></svg>