<svg xmlns="http://www.w3.org/2000/svg" version="1.1" width="128" height="180"><g><rect x="2.24" y="2.24" width="31.15" height="59.52" fill="rgba(0,0,0,0.20)" transform="matrix(1,0.5000,-1,0.5000,66.50,108.24)"/><g transform="translate(35.63,127.33) skewY(-26.565)"><rect x="0" y="0" width="53.76" height="23.11" fill="rgb(88,36,17)"/><line x1="8.96" y1="2.33" x2="8.96" y2="20.78" stroke="rgb(227,224,224)" stroke-width="2.36" stroke-linecap="butt"/><line x1="26.88" y1="2.33" x2="26.88" y2="20.78" stroke="rgb(227,224,224)" stroke-width="2.36" stroke-linecap="butt"/></g><g transform="translate(10.24,114.63) skewY(26.565)"><rect x="0" y="0" width="25.39" height="23.11" fill="rgb(146,60,29)"/><line x1="3.99" y1="6.93" x2="21.40" y2="6.93" stroke="rgb(227,224,224)" stroke-width="2.33" stroke-linecap="butt"/></g><rect x="5.12" y="5.12" width="25.39" height="53.76" fill="rgb(193,90,53)" transform="matrix(1,0.5000,-1,0.5000,64.00,82.63)"/><g transform="translate(35.63,102.27) skewY(-26.565)"><rect x="0" y="0" width="53.76" height="25.05" fill="rgb(96,44,25)"/><line x1="16.13" y1="2.95" x2="16.13" y2="22.10" stroke="rgb(242,240,240)" stroke-width="2.31" stroke-linecap="butt" stroke-dasharray="4.91,2.18"/><line x1="26.88" y1="2.95" x2="26.88" y2="22.10" stroke="rgb(242,240,240)" stroke-width="2.31" stroke-linecap="butt" stroke-dasharray="4.91,2.18"/></g><g transform="translate(10.24,89.58) skewY(26.565)"><rect x="0" y="0" width="25.39" height="25.05" fill="rgb(160,73,41)"/><line x1="3.14" y1="9.40" x2="22.25" y2="9.40" stroke="rgb(234,231,231)" stroke-width="3.25" stroke-linecap="butt"/><line x1="3.14" y1="15.66" x2="22.25" y2="15.66" stroke="rgb(234,231,231)" stroke-width="3.25" stroke-linecap="butt"/><line x1="3.14" y1="21.92" x2="22.25" y2="21.92" stroke="rgb(234,231,231)" stroke-width="3.25" stroke-linecap="butt"/></g><rect x="5.12" y="5.12" width="25.39" height="53.76" fill="rgb(196,108,76)" transform="matrix(1,0.5000,-1,0.5000,64.00,57.58)"/><line x1="35.63" y1="153.63" x2="35.63" y2="70.24" stroke="#e8b23c" stroke-width="2.2" stroke-linecap="butt"/><line x1="35.63" y1="70.24" x2="48.40" y2="53.55" stroke="#e8b23c" stroke-width="2" stroke-linecap="butt"/><circle cx="48.40" cy="53.55" r="1.6" fill="#222"/><rect x="30.89" y="2.24" width="30.87" height="59.52" fill="rgba(0,0,0,0.20)" transform="matrix(1,0.5000,-1,0.5000,66.50,108.24)"/><g transform="translate(64.00,143.40) skewY(-26.565)"><rect x="0" y="0" width="53.76" height="21.22" fill="rgb(95,33,17)"/></g><g transform="translate(38.89,130.84) skewY(26.565)"><rect x="0" y="0" width="25.11" height="21.22" fill="rgb(159,55,28)"/><line x1="3.24" y1="10.61" x2="21.87" y2="10.61" stroke="rgb(232,230,230)" stroke-width="3.2" stroke-linecap="butt"/></g><rect x="33.77" y="5.12" width="25.11" height="53.76" fill="rgb(204,85,54)" transform="matrix(1,0.5000,-1,0.5000,64.00,84.52)"/><g transform="translate(64.00,120.97) skewY(-26.565)"><rect x="0" y="0" width="53.76" height="22.43" fill="rgb(82,26,28)"/><line x1="5.38" y1="2.37" x2="5.38" y2="20.06" stroke="rgb(234,230,230)" stroke-width="2.76" stroke-linecap="butt"/><line x1="16.13" y1="2.37" x2="16.13" y2="20.06" stroke="rgb(234,230,230)" stroke-width="2.76" stroke-linecap="butt"/><line x1="26.88" y1="2.37" x2="26.88" y2="20.06" stroke="rgb(234,230,230)" stroke-width="2.76" stroke-linecap="butt"/></g><g transform="translate(38.89,108.41) skewY(26.565)"><rect x="0" y="0" width="25.11" height="22.43" fill="rgb(137,43,47)"/><line x1="3.14" y1="2.49" x2="3.14" y2="19.94" stroke="rgb(240,240,240)" stroke-width="2.26" stroke-linecap="butt"/></g><rect x="33.77" y="5.12" width="25.11" height="53.76" fill="rgb(181,70,75)" transform="matrix(1,0.5000,-1,0.5000,64.00,62.09)"/><g transform="translate(64.00,92.71) skewY(-26.565)"><rect x="0" y="0" width="53.76" height="28.26" fill="rgb(84,24,27)"/><line x1="8.28" y1="10.60" x2="45.48" y2="10.60" stroke="rgb(229,228,228)" stroke-width="2.63" stroke-linecap="butt"/></g><g transform="translate(38.89,80.15) skewY(26.565)"><rect x="0" y="0" width="25.11" height="28.26" fill="rgb(140,40,45)"/><line x1="3.14" y1="4.42" x2="3.14" y2="23.83" stroke="rgb(226,225,225)" stroke-width="3" stroke-linecap="butt"/><line x1="9.42" y1="4.42" x2="9.42" y2="23.83" stroke="rgb(226,225,225)" stroke-width="3" stroke-linecap="butt"/></g><rect x="33.77" y="5.12" width="25.11" height="53.76" fill="rgb(185,66,72)" transform="matrix(1,0.5000,-1,0.5000,64.00,33.83)"/><line x1="64.00" y1="167.82" x2="64.00" y2="72.73" stroke="#e8b23c" stroke-width="2.2" stroke-linecap="butt"/><line x1="64.00" y1="72.73" x2="76.89" y2="56.11" stroke="#e8b23c" stroke-width="2" stroke-linecap="butt"/><circle cx="76.89" cy="56.11" r="1.6" fill="#222"/></g></svg>