<svg xmlns="http://www.w3.org/2000/svg" version="1.1" width="128" height="180"><g><rect x="2.24" y="2.24" width="41.71" height="29.42" fill="rgba(0,0,0,0.20)" transform="matrix(1,0.5000,-1,0.5000,66.50,108.24)"/><g transform="translate(76.29,116.51) skewY(-26.565)"><rect x="0" y="0" width="23.66" height="24.16" fill="rgb(81,57,26)"/><line x1="2.96" y1="2.91" x2="2.96" y2="21.25" stroke="rgb(233,230,230)" stroke-width="3.06" stroke-linecap="butt"/></g><g transform="translate(40.34,98.53) skewY(26.565)"><rect x="0" y="0" width="35.95" height="24.16" fill="rgb(136,96,43)"/><line x1="31.46" y1="3.59" x2="31.46" y2="20.57" stroke="rgb(230,226,226)" stroke-width="2.87" stroke-linecap="butt" stroke-dasharray="6.82,3.74"/></g><rect x="5.12" y="5.12" width="35.95" height="23.66" fill="rgb(180,133,70)" transform="matrix(1,0.5000,-1,0.5000,64.00,81.58)"/><g transform="translate(76.29,90.53) skewY(-26.565)"><rect x="0" y="0" width="23.66" height="25.98" fill="rgb(98,40,20)"/></g><g transform="translate(40.34,72.56) skewY(26.565)"><rect x="0" y="0" width="35.95" height="25.98" fill="rgb(163,67,34)"/><line x1="17.98" y1="2.69" x2="17.98" y2="23.29" stroke="rgb(247,246,246)" stroke-width="2.25" stroke-linecap="butt"/></g><rect x="5.12" y="5.12" width="35.95" height="23.66" fill="rgb(201,101,67)" transform="matrix(1,0.5000,-1,0.5000,64.00,55.60)"/><g transform="translate(76.29,70.67) skewY(-26.565)"><rect x="0" y="0" width="23.66" height="19.86" fill="rgb(95,26,18)"/><line x1="3.94" y1="2.98" x2="3.94" y2="16.88" stroke="rgb(234,233,233)" stroke-width="2.88" stroke-linecap="butt"/></g><g transform="translate(40.34,52.70) skewY(26.565)"><rect x="0" y="0" width="35.95" height="19.86" fill="rgb(159,43,30)"/><line x1="29.96" y1="2.84" x2="29.96" y2="17.02" stroke="rgb(242,240,240)" stroke-width="2.18" stroke-linecap="butt"/></g><rect x="5.12" y="5.12" width="35.95" height="23.66" fill="rgb(202,72,58)" transform="matrix(1,0.5000,-1,0.5000,64.00,35.75)"/><g transform="translate(76.29,42.03) skewY(-26.565)"><rect x="0" y="0" width="23.66" height="28.65" fill="rgb(81,15,16)"/><line x1="3.94" y1="3.67" x2="3.94" y2="24.97" stroke="rgb(227,225,225)" stroke-width="2.76" stroke-linecap="butt"/></g><g transform="translate(40.34,24.05) skewY(26.565)"><rect x="0" y="0" width="35.95" height="28.65" fill="rgb(135,26,27)"/><line x1="17.98" y1="3.42" x2="17.98" y2="25.22" stroke="rgb(228,228,228)" stroke-width="2.45" stroke-linecap="butt"/></g><rect x="5.12" y="5.12" width="35.95" height="23.66" fill="rgb(183,49,50)" transform="matrix(1,0.5000,-1,0.5000,64.00,7.10)"/><line x1="64.00" y1="107.66" x2="64.00" y2="24.95" stroke="#e8b23c" stroke-width="2.2" stroke-linecap="butt"/><line x1="64.00" y1="24.95" x2="69.53" y2="45.25" stroke="#e8b23c" stroke-width="2" stroke-linecap="butt"/><circle cx="69.53" cy="45.25" r="1.6" fill="#222"/><rect x="2.24" y="28.20" width="41.71" height="33.56" fill="rgba(0,0,0,0.20)" transform="matrix(1,0.5000,-1,0.5000,66.50,108.24)"/><g transform="translate(46.19,131.03) skewY(-26.565)"><rect x="0" y="0" width="27.80" height="24.69" fill="rgb(25,54,72)"/><line x1="3.34" y1="12.34" x2="24.46" y2="12.34" stroke="rgb(247,246,246)" stroke-width="3.23" stroke-linecap="butt"/><line x1="3.34" y1="17.28" x2="24.46" y2="17.28" stroke="rgb(247,246,246)" stroke-width="3.23" stroke-linecap="butt"/><line x1="3.34" y1="22.22" x2="24.46" y2="22.22" stroke="rgb(247,246,246)" stroke-width="3.23" stroke-linecap="butt"/></g><g transform="translate(10.24,113.05) skewY(26.565)"><rect x="0" y="0" width="35.95" height="24.69" fill="rgb(42,91,120)"/><line x1="25.17" y1="3.57" x2="25.17" y2="21.12" stroke="rgb(235,232,232)" stroke-width="2.14" stroke-linecap="butt"/></g><rect x="5.12" y="31.08" width="35.95" height="27.80" fill="rgb(69,129,164)" transform="matrix(1,0.5000,-1,0.5000,64.00,81.05)"/><g transform="translate(46.19,110.79) skewY(-26.565)"><rect x="0" y="0" width="27.80" height="20.23" fill="rgb(22,106,32)"/></g><g transform="translate(10.24,92.82) skewY(26.565)"><rect x="0" y="0" width="35.95" height="20.23" fill="rgb(36,176,53)"/><line x1="29.96" y1="3.18" x2="29.96" y2="17.05" stroke="rgb(229,226,226)" stroke-width="2.58" stroke-linecap="butt"/></g><rect x="5.12" y="31.08" width="35.95" height="27.80" fill="rgb(78,205,94)" transform="matrix(1,0.5000,-1,0.5000,64.00,60.82)"/><rect x="41.55" y="2.24" width="20.21" height="59.52" fill="rgba(0,0,0,0.20)" transform="matrix(1,0.5000,-1,0.5000,66.50,108.24)"/><g transform="translate(64.00,145.87) skewY(-26.565)"><rect x="0" y="0" width="53.76" height="18.75" fill="rgb(27,56,80)"/><line x1="6.93" y1="3.13" x2="46.83" y2="3.13" stroke="rgb(236,235,235)" stroke-width="2.18" stroke-linecap="butt"/><line x1="6.93" y1="9.38" x2="46.83" y2="9.38" stroke="rgb(236,235,235)" stroke-width="2.18" stroke-linecap="butt"/><line x1="6.93" y1="15.63" x2="46.83" y2="15.63" stroke="rgb(236,235,235)" stroke-width="2.18" stroke-linecap="butt"/></g><g transform="translate(49.55,138.65) skewY(26.565)"><rect x="0" y="0" width="14.45" height="18.75" fill="rgb(45,94,134)"/><line x1="1.81" y1="3.00" x2="1.81" y2="15.75" stroke="rgb(244,243,243)" stroke-width="2.7" stroke-linecap="butt"/><line x1="5.42" y1="3.00" x2="5.42" y2="15.75" stroke="rgb(244,243,243)" stroke-width="2.7" stroke-linecap="butt"/><line x1="9.03" y1="3.00" x2="9.03" y2="15.75" stroke="rgb(244,243,243)" stroke-width="2.7" stroke-linecap="butt"/><line x1="12.64" y1="3.00" x2="12.64" y2="15.75" stroke="rgb(244,243,243)" stroke-width="2.7" stroke-linecap="butt"/></g><rect x="44.43" y="5.12" width="14.45" height="53.76" fill="rgb(73,131,178)" transform="matrix(1,0.5000,-1,0.5000,64.00,86.99)"/><g transform="translate(64.00,121.14) skewY(-26.565)"><rect x="0" y="0" width="53.76" height="24.73" fill="rgb(96,24,24)"/><line x1="33.60" y1="3.04" x2="33.60" y2="21.70" stroke="rgb(232,231,231)" stroke-width="2.68" stroke-linecap="butt"/></g><g transform="translate(49.55,113.91) skewY(26.565)"><rect x="0" y="0" width="14.45" height="24.73" fill="rgb(160,40,39)"/><line x1="2.41" y1="3.04" x2="2.41" y2="21.70" stroke="rgb(238,238,238)" stroke-width="2.55" stroke-linecap="butt"/></g><rect x="44.43" y="5.12" width="14.45" height="53.76" fill="rgb(197,75,74)" transform="matrix(1,0.5000,-1,0.5000,64.00,62.26)"/><g transform="translate(64.00,92.50) skewY(-26.565)"><rect x="0" y="0" width="53.76" height="28.63" fill="rgb(99,43,25)"/></g><g transform="translate(49.55,85.28) skewY(26.565)"><rect x="0" y="0" width="14.45" height="28.63" fill="rgb(165,72,42)"/><line x1="1.81" y1="3.98" x2="1.81" y2="24.65" stroke="rgb(238,236,236)" stroke-width="2.87" stroke-linecap="butt"/></g><rect x="44.43" y="5.12" width="14.45" height="53.76" fill="rgb(198,109,81)" transform="matrix(1,0.5000,-1,0.5000,64.00,33.62)"/><line x1="103.31" y1="127.32" x2="103.31" y2="38.01" stroke="#e8b23c" stroke-width="2.2" stroke-linecap="butt"/><line x1="103.31" y1="38.01" x2="85.62" y2="60.24" stroke="#e8b23c" stroke-width="2" stroke-linecap="butt"/><circle cx="85.62" cy="60.24" r="1.6" fill="#222"/></g></svg>