<svg xmlns="http://www.w3.org/2000/svg" version="1.1" width="128" height="120"><g><rect x="8.64" y="8.64" width="46.72" height="46.72" fill="rgba(0,0,0,0.20)" transform="matrix(1,0.5000,-1,0.5000,66.50,54.64)"/><g transform="translate(64.00,83.23) skewY(-26.565)"><rect x="0" y="0" width="40.96" height="21.39" fill="rgb(24,41,23)"/></g><g transform="translate(23.04,62.75) skewY(26.565)"><rect x="0" y="0" width="40.96" height="21.39" fill="rgb(43,75,42)"/></g><rect x="11.52" y="11.52" width="40.96" height="40.96" fill="rgb(71,113,69)" transform="matrix(1,0.5000,-1,0.5000,64.00,30.75)"/><g transform="translate(64.00,55.60) skewY(-26.565)"><rect x="0" y="0" width="40.96" height="27.64" fill="rgb(25,41,23)"/></g><g transform="translate(23.04,35.12) skewY(26.565)"><rect x="0" y="0" width="40.96" height="27.64" fill="rgb(45,75,42)"/></g><rect x="11.52" y="11.52" width="40.96" height="40.96" fill="rgb(73,113,69)" transform="matrix(1,0.5000,-1,0.5000,64.00,3.12)"/><line x1="59.09" y1="45.34" x2="59.09" y2="36.99" stroke="#5a3a20" stroke-width="2.4" stroke-linecap="butt"/><circle cx="60.54" cy="36.99" r="5.2" fill="rgb(79,109,44)"/><circle cx="56.24" cy="31.79" r="4.3" fill="rgb(97,138,51)"/><circle cx="57.87" cy="26.59" r="3.4000000000000004" fill="rgb(116,168,56)"/></g></svg>