<svg xmlns="http://www.w3.org/2000/svg" version="1.1" width="128" height="110"><g><rect x="9.92" y="9.92" width="23.07" height="44.16" fill="rgba(0,0,0,0.20)" transform="matrix(1,0.5000,-1,0.5000,66.50,45.92)"/><g transform="translate(42.91,65.74) skewY(-26.565)"><rect x="0" y="0" width="38.40" height="18.34" fill="rgb(22,48,20)"/></g><g transform="translate(25.60,57.08) skewY(26.565)"><rect x="0" y="0" width="17.31" height="18.34" fill="rgb(40,87,37)"/></g><rect x="12.80" y="12.80" width="17.31" height="38.40" fill="rgb(66,128,62)" transform="matrix(1,0.5000,-1,0.5000,64.00,25.08)"/><line x1="58.24" y1="44.15" x2="58.24" y2="33.31" stroke="#5a3a20" stroke-width="2.4" stroke-linecap="butt"/><circle cx="57.59" cy="33.31" r="5.2" fill="rgb(61,109,44)"/><circle cx="59.28" cy="28.11" r="4.3" fill="rgb(74,138,51)"/><circle cx="60.60" cy="22.91" r="3.4000000000000004" fill="rgb(85,168,56)"/><circle cx="45.55" cy="59.39" r="3.9264113979414104" fill="rgb(127,134,121)"/><circle cx="39.36" cy="62.66" r="3.1332089981064204" fill="rgb(120,126,114)"/><circle cx="37.30" cy="61.24" r="3.132435495965183" fill="rgb(102,107,97)"/><circle cx="42.16" cy="58.04" r="3.259039720520377" fill="rgb(133,139,127)"/><rect x="30.06" y="9.92" width="24.02" height="44.16" fill="rgba(0,0,0,0.20)" transform="matrix(1,0.5000,-1,0.5000,66.50,45.92)"/><g transform="translate(64.00,67.83) skewY(-26.565)"><rect x="0" y="0" width="38.40" height="26.79" fill="rgb(24,48,20)"/></g><g transform="translate(45.74,58.69) skewY(26.565)"><rect x="0" y="0" width="18.26" height="26.79" fill="rgb(44,87,37)"/></g><rect x="32.94" y="12.80" width="18.26" height="38.40" fill="rgb(71,128,62)" transform="matrix(1,0.5000,-1,0.5000,64.00,16.63)"/><line x1="75.45" y1="47.56" x2="75.45" y2="37.47" stroke="#5a3a20" stroke-width="2.4" stroke-linecap="butt"/><circle cx="77.65" cy="37.47" r="5.2" fill="rgb(67,109,44)"/><circle cx="71.68" cy="32.27" r="4.3" fill="rgb(81,138,51)"/><circle cx="75.80" cy="27.07" r="3.4000000000000004" fill="rgb(95,168,56)"/></g></svg>