<svg xmlns="http://www.w3.org/2000/svg" version="1.1" width="128" height="110"><g><rect x="9.92" y="9.92" width="44.16" height="44.16" fill="rgba(0,0,0,0.20)" transform="matrix(1,0.5000,-1,0.5000,66.50,45.92)"/><g transform="translate(64.00,68.43) skewY(-26.565)"><rect x="0" y="0" width="38.40" height="26.19" fill="rgb(26,39,19)"/></g><g transform="translate(25.60,49.23) skewY(26.565)"><rect x="0" y="0" width="38.40" height="26.19" fill="rgb(47,72,34)"/></g><rect x="12.80" y="12.80" width="38.40" height="38.40" fill="rgb(78,112,60)" transform="matrix(1,0.5000,-1,0.5000,64.00,17.23)"/><line x1="74.93" y1="55.02" x2="74.93" y2="44.60" stroke="#5a3a20" stroke-width="2.4" stroke-linecap="butt"/><circle cx="76.13" cy="44.60" r="5.2" fill="rgb(50,109,44)"/><circle cx="73.40" cy="39.40" r="4.3" fill="rgb(58,138,51)"/><circle cx="73.15" cy="34.20" r="3.4000000000000004" fill="rgb(65,168,56)"/><circle cx="37.87" cy="87.87" r="3.5124893002212048" fill="rgb(100,105,95)"/><circle cx="45.22" cy="86.36" r="2.476402040757239" fill="rgb(113,119,108)"/><circle cx="35.77" cy="87.83" r="2.657982730679214" fill="rgb(131,137,125)"/><circle cx="35.40" cy="87.38" r="4.106270034238696" fill="rgb(122,128,116)"/></g></svg>