<svg xmlns="http://www.w3.org/2000/svg" version="1.1" width="128" height="100"><g><rect x="12.48" y="12.48" width="39.04" height="39.04" fill="rgba(0,0,0,0.20)" transform="matrix(1,0.5000,-1,0.5000,66.50,38.48)"/><g transform="translate(64.00,67.85) skewY(-26.565)"><rect x="0" y="0" width="33.28" height="16.77" fill="rgb(19,37,22)"/></g><g transform="translate(30.72,51.21) skewY(26.565)"><rect x="0" y="0" width="33.28" height="16.77" fill="rgb(35,67,40)"/></g><rect x="15.36" y="15.36" width="33.28" height="33.28" fill="rgb(62,106,69)" transform="matrix(1,0.5000,-1,0.5000,64.00,19.21)"/><line x1="62.46" y1="51.56" x2="62.46" y2="40.75" stroke="#5a3a20" stroke-width="2.4" stroke-linecap="butt"/><circle cx="64.92" cy="40.75" r="5.2" fill="rgb(78,109,44)"/><circle cx="61.70" cy="35.55" r="4.3" fill="rgb(96,138,51)"/><circle cx="61.10" cy="30.35" r="3.4000000000000004" fill="rgb(114,168,56)"/><circle cx="40.15" cy="56.17" r="3.3967880530282857" fill="rgb(124,130,118)"/><circle cx="34.42" cy="57.16" r="2.209902645274997" fill="rgb(136,142,130)"/><circle cx="36.26" cy="58.99" r="3.532167540118098" fill="rgb(125,131,119)"/><circle cx="43.66" cy="58.61" r="3.0683303579688075" fill="rgb(128,135,122)"/></g></svg>