<svg xmlns="http://www.w3.org/2000/svg" version="1.1" width="128" height="110"><g><rect x="9.92" y="9.92" width="18.36" height="44.16" fill="rgba(0,0,0,0.20)" transform="matrix(1,0.5000,-1,0.5000,66.50,45.92)"/><g transform="translate(38.20,58.17) skewY(-26.565)"><rect x="0" y="0" width="38.40" height="23.55" fill="rgb(28,41,24)"/></g><g transform="translate(25.60,51.87) skewY(26.565)"><rect x="0" y="0" width="12.60" height="23.55" fill="rgb(50,75,44)"/></g><rect x="12.80" y="12.80" width="12.60" height="38.40" fill="rgb(81,113,72)" transform="matrix(1,0.5000,-1,0.5000,64.00,19.87)"/><line x1="47.92" y1="44.71" x2="47.92" y2="35.98" stroke="#5a3a20" stroke-width="2.4" stroke-linecap="butt"/><circle cx="47.11" cy="35.98" r="5.2" fill="rgb(71,109,44)"/><circle cx="49.94" cy="30.78" r="4.3" fill="rgb(87,138,51)"/><circle cx="45.28" cy="25.58" r="3.4000000000000004" fill="rgb(103,168,56)"/><circle cx="33.92" cy="79.96" r="3.130805812031031" fill="rgb(127,133,121)"/><circle cx="25.53" cy="78.74" r="4.016528944298625" fill="rgb(99,104,94)"/><circle cx="26.94" cy="76.13" r="3.447087296284735" fill="rgb(121,127,115)"/><rect x="26.76" y="9.92" width="27.32" height="44.16" fill="rgba(0,0,0,0.20)" transform="matrix(1,0.5000,-1,0.5000,66.50,45.92)"/><g transform="translate(64.00,74.75) skewY(-26.565)"><rect x="0" y="0" width="38.40" height="19.87" fill="rgb(29,41,24)"/></g><g transform="translate(42.44,63.97) skewY(26.565)"><rect x="0" y="0" width="21.56" height="19.87" fill="rgb(53,75,44)"/></g><rect x="29.64" y="12.80" width="21.56" height="38.40" fill="rgb(84,113,72)" transform="matrix(1,0.5000,-1,0.5000,64.00,23.55)"/><line x1="89.91" y1="57.44" x2="89.91" y2="48.09" stroke="#5a3a20" stroke-width="2.4" stroke-linecap="butt"/><circle cx="87.59" cy="48.09" r="5.2" fill="rgb(60,109,44)"/><circle cx="92.76" cy="42.89" r="4.3" fill="rgb(72,138,51)"/><circle cx="87.99" cy="37.69" r="3.4000000000000004" fill="rgb(83,168,56)"/><circle cx="60.66" cy="64.48" r="3.384644996002317" fill="rgb(101,106,96)"/><circle cx="68.22" cy="63.28" r="2.7723483428359033" fill="rgb(126,132,120)"/><rect x="15.37" y="23.11" width="12.99" height="12.99" fill="rgb(49,102,128)" transform="matrix(1,0.5000,-1,0.5000,64.00,43.02)"/></g></svg>