<svg xmlns="http://www.w3.org/2000/svg" version="1.1" width="128" height="110"><g><rect x="9.92" y="9.92" width="44.16" height="25.20" fill="rgba(0,0,0,0.20)" transform="matrix(1,0.5000,-1,0.5000,66.50,45.92)"/><g transform="translate(82.96,65.83) skewY(-26.565)"><rect x="0" y="0" width="19.44" height="19.31" fill="rgb(22,38,16)"/></g><g transform="translate(44.56,46.63) skewY(26.565)"><rect x="0" y="0" width="38.40" height="19.31" fill="rgb(40,69,30)"/></g><rect x="12.80" y="12.80" width="38.40" height="19.44" fill="rgb(70,110,55)" transform="matrix(1,0.5000,-1,0.5000,64.00,24.11)"/><g transform="translate(82.96,40.80) skewY(-26.565)"><rect x="0" y="0" width="19.44" height="25.04" fill="rgb(24,38,16)"/></g><g transform="translate(44.56,21.60) skewY(26.565)"><rect x="0" y="0" width="38.40" height="25.04" fill="rgb(43,69,30)"/></g><rect x="12.80" y="12.80" width="38.40" height="19.44" fill="rgb(73,110,55)" transform="matrix(1,0.5000,-1,0.5000,64.00,-0.93)"/><rect x="33.65" y="33.52" width="13.64" height="13.64" fill="rgb(50,100,133)" transform="matrix(1,0.5000,-1,0.5000,64.00,43.02)"/><rect x="9.92" y="32.36" width="44.16" height="21.72" fill="rgba(0,0,0,0.20)" transform="matrix(1,0.5000,-1,0.5000,66.50,45.92)"/><g transform="translate(64.00,67.05) skewY(-26.565)"><rect x="0" y="0" width="15.96" height="27.57" fill="rgb(24,38,16)"/></g><g transform="translate(25.60,47.85) skewY(26.565)"><rect x="0" y="0" width="38.40" height="27.57" fill="rgb(43,69,30)"/></g><rect x="12.80" y="35.24" width="38.40" height="15.96" fill="rgb(74,110,55)" transform="matrix(1,0.5000,-1,0.5000,64.00,15.85)"/><line x1="62.02" y1="54.06" x2="62.02" y2="45.74" stroke="#5a3a20" stroke-width="2.4" stroke-linecap="butt"/><circle cx="63.16" cy="45.74" r="5.2" fill="rgb(44,109,45)"/><circle cx="58.04" cy="40.54" r="4.3" fill="rgb(51,138,52)"/><circle cx="61.70" cy="35.34" r="3.4000000000000004" fill="rgb(56,168,58)"/><circle cx="25.91" cy="81.46" r="4.197991388477385" fill="rgb(125,131,119)"/><circle cx="26.91" cy="82.62" r="4.487427446804941" fill="rgb(119,125,113)"/><circle cx="33.44" cy="82.56" r="4.409697454236448" fill="rgb(107,113,102)"/><circle cx="37.10" cy="81.54" r="3.029644998162985" fill="rgb(112,117,106)"/></g></svg>