<svg xmlns="http://www.w3.org/2000/svg" version="1.1" width="128" height="100"><g><rect x="12.48" y="12.48" width="39.04" height="18.65" fill="rgba(0,0,0,0.20)" transform="matrix(1,0.5000,-1,0.5000,66.50,38.48)"/><g transform="translate(84.39,54.17) skewY(-26.565)"><rect x="0" y="0" width="12.89" height="20.26" fill="rgb(24,40,24)"/></g><g transform="translate(51.11,37.53) skewY(26.565)"><rect x="0" y="0" width="33.28" height="20.26" fill="rgb(43,73,43)"/></g><rect x="15.36" y="15.36" width="33.28" height="12.89" fill="rgb(72,111,72)" transform="matrix(1,0.5000,-1,0.5000,64.00,15.72)"/><rect x="20.34" y="29.53" width="13.80" height="13.80" fill="rgb(56,140,147)" transform="matrix(1,0.5000,-1,0.5000,64.00,35.58)"/><rect x="12.48" y="29.37" width="39.04" height="22.15" fill="rgba(0,0,0,0.20)" transform="matrix(1,0.5000,-1,0.5000,66.50,38.48)"/><g transform="translate(64.00,67.35) skewY(-26.565)"><rect x="0" y="0" width="16.39" height="17.27" fill="rgb(25,40,24)"/></g><g transform="translate(30.72,50.71) skewY(26.565)"><rect x="0" y="0" width="33.28" height="17.27" fill="rgb(46,73,43)"/></g><rect x="15.36" y="32.25" width="33.28" height="16.39" fill="rgb(76,111,72)" transform="matrix(1,0.5000,-1,0.5000,64.00,18.71)"/><circle cx="28.79" cy="72.71" r="3.4757056405767797" fill="rgb(118,124,112)"/><circle cx="25.20" cy="72.27" r="2.854687707126141" fill="rgb(132,138,126)"/><circle cx="30.54" cy="70.40" r="2.8958545880392195" fill="rgb(133,139,127)"/><rect x="28.85" y="17.82" width="13.15" height="13.15" fill="rgb(49,103,129)" transform="matrix(1,0.5000,-1,0.5000,64.00,35.58)"/></g></svg>