<svg xmlns="http://www.w3.org/2000/svg" version="1.1" width="128" height="120"><g><rect x="8.64" y="8.64" width="46.72" height="46.72" fill="rgba(0,0,0,0.20)" transform="matrix(1,0.5000,-1,0.5000,66.50,54.64)"/><g transform="translate(64.00,75.35) skewY(-26.565)"><rect x="0" y="0" width="40.96" height="29.27" fill="rgb(26,40,21)"/></g><g transform="translate(23.04,54.87) skewY(26.565)"><rect x="0" y="0" width="40.96" height="29.27" fill="rgb(48,73,38)"/></g><rect x="11.52" y="11.52" width="40.96" height="40.96" fill="rgb(79,112,64)" transform="matrix(1,0.5000,-1,0.5000,64.00,22.87)"/><g transform="translate(64.00,50.37) skewY(-26.565)"><rect x="0" y="0" width="40.96" height="24.98" fill="rgb(27,40,21)"/></g><g transform="translate(23.04,29.89) skewY(26.565)"><rect x="0" y="0" width="40.96" height="24.98" fill="rgb(49,73,38)"/></g><rect x="11.52" y="11.52" width="40.96" height="40.96" fill="rgb(80,112,64)" transform="matrix(1,0.5000,-1,0.5000,64.00,-2.11)"/><line x1="80.49" y1="32.69" x2="80.49" y2="25.59" stroke="#5a3a20" stroke-width="2.4" stroke-linecap="butt"/><circle cx="80.43" cy="25.59" r="5.2" fill="rgb(44,109,46)"/><circle cx="77.67" cy="20.39" r="4.3" fill="rgb(51,138,53)"/><circle cx="78.47" cy="15.19" r="3.4000000000000004" fill="rgb(56,168,59)"/></g></svg>