<svg xmlns="http://www.w3.org/2000/svg" xmlns:xlink="http://www.w3.org/1999/xlink" version="1.1" width="128" height="176"><defs/><g><path d="M64.72,127.44 L103.12,146.64 L66,165.2 L27.6,146 Z" fill="rgb(0,0,0)" fill-opacity="0.2"/><path d="M85.76,154.88 L64,165.76 L64,125.76 L85.76,114.88 Z" fill="#384048"/><path d="M85.76,154.88 L64,165.76 L64,125.76 L85.76,114.88 Z" fill="none" stroke="rgb(0,0,0)" stroke-opacity="0.25" stroke-width="1"/><path d="M42.24,154.88 L64,165.76 L64,125.76 L42.24,114.88 Z" fill="#242a2e"/><path d="M42.24,154.88 L64,165.76 L64,125.76 L42.24,114.88 Z" fill="none" stroke="rgb(0,0,0)" stroke-opacity="0.25" stroke-width="1"/><path d="M64,104 L85.76,114.88 L64,125.76 L42.24,114.88 Z" fill="#4a5258"/><path d="M64,104 L85.76,114.88 L64,125.76 L42.24,114.88 Z" fill="none" stroke="rgb(0,0,0)" stroke-opacity="0.25" stroke-width="1"/><path d="M47.898,128.109 L58.342,133.331 L58.342,152.531 L47.898,147.309 Z" fill="#bdf3ff"/><path d="M81.92,120.48 L61.44,130.72 L61.44,46.72 L81.92,36.48 Z" fill="rgb(19,172,206)"/><path d="M81.92,120.48 L61.44,130.72 L61.44,46.72 L81.92,36.48 Z" fill="none" stroke="rgb(0,0,0)" stroke-opacity="0.25" stroke-width="1"/><path d="M40.96,120.48 L61.44,130.72 L61.44,46.72 L40.96,36.48 Z" fill="rgb(0,152,186)"/><path d="M40.96,120.48 L61.44,130.72 L61.44,46.72 L40.96,36.48 Z" fill="none" stroke="rgb(0,0,0)" stroke-opacity="0.25" stroke-width="1"/><path d="M61.44,26.24 L81.92,36.48 L61.44,46.72 L40.96,36.48 Z" fill="#22bbdd"/><path d="M61.44,26.24 L81.92,36.48 L61.44,46.72 L40.96,36.48 Z" fill="none" stroke="rgb(0,0,0)" stroke-opacity="0.25" stroke-width="1"/><path d="M78.08,36.48 L61.44,44.8 L61.44,32.8 L78.08,24.48 Z" fill="rgb(0,123,187)"/><path d="M78.08,36.48 L61.44,44.8 L61.44,32.8 L78.08,24.48 Z" fill="none" stroke="rgb(0,0,0)" stroke-opacity="0.25" stroke-width="1"/><path d="M44.8,36.48 L61.44,44.8 L61.44,32.8 L44.8,24.48 Z" fill="rgb(0,103,167)"/><path d="M44.8,36.48 L61.44,44.8 L61.44,32.8 L44.8,24.48 Z" fill="none" stroke="rgb(0,0,0)" stroke-opacity="0.25" stroke-width="1"/><path d="M61.44,16.16 L78.08,24.48 L61.44,32.8 L44.8,24.48 Z" fill="#0d8aca"/><path d="M61.44,16.16 L78.08,24.48 L61.44,32.8 L44.8,24.48 Z" fill="none" stroke="rgb(0,0,0)" stroke-opacity="0.25" stroke-width="1"/></g></svg>