<svg xmlns="http://www.w3.org/2000/svg" xmlns:xlink="http://www.w3.org/1999/xlink" version="1.1" width="128" height="144"><defs/><g>
<ellipse cx="32.00" cy="126.00" rx="12.80" ry="4.00" fill="rgb(0,0,0)" fill-opacity="0.18"/>
<rect x="29.60" y="111.20" width="4.80" height="12.80" fill="#4a3218"/>
<polygon points="14.40,112.80 49.60,112.80 32.00,96.80" fill="#1f6b2b" stroke="#0a2a0f" stroke-opacity="0.35" stroke-width="0.96"/>
<polygon points="18.40,103.20 45.60,103.20 32.00,85.60" fill="#154d1f" stroke="#0a2a0f" stroke-opacity="0.35" stroke-width="0.96"/>
<polygon points="23.20,93.60 40.80,93.60 32.00,76.00" fill="#1f6b2b" stroke="#0a2a0f" stroke-opacity="0.35" stroke-width="0.96"/>
<ellipse cx="58.00" cy="122.00" rx="14.40" ry="4.50" fill="rgb(0,0,0)" fill-opacity="0.18"/>
<rect x="55.30" y="105.60" width="5.40" height="14.40" fill="#4a3218"/>
<polygon points="38.20,107.40 77.80,107.40 58.00,89.40" fill="#2f8a3c" stroke="#0a2a0f" stroke-opacity="0.35" stroke-width="1.08"/>
<polygon points="42.70,96.60 73.30,96.60 58.00,76.80" fill="#1f6b2b" stroke="#0a2a0f" stroke-opacity="0.35" stroke-width="1.08"/>
<polygon points="48.10,85.80 67.90,85.80 58.00,66.00" fill="#2f8a3c" stroke="#0a2a0f" stroke-opacity="0.35" stroke-width="1.08"/>
<ellipse cx="84.00" cy="124.00" rx="13.12" ry="4.10" fill="rgb(0,0,0)" fill-opacity="0.18"/>
<rect x="81.54" y="108.88" width="4.92" height="13.12" fill="#4a3218"/>
<polygon points="65.96,110.52 102.04,110.52 84.00,94.12" fill="#1f6b2b" stroke="#0a2a0f" stroke-opacity="0.35" stroke-width="0.9839999999999999"/>
<polygon points="70.06,100.68 97.94,100.68 84.00,82.64" fill="#154d1f" stroke="#0a2a0f" stroke-opacity="0.35" stroke-width="0.9839999999999999"/>
<polygon points="74.98,90.84 93.02,90.84 84.00,72.80" fill="#1f6b2b" stroke="#0a2a0f" stroke-opacity="0.35" stroke-width="0.9839999999999999"/>
<ellipse cx="44.00" cy="106.00" rx="12.48" ry="3.90" fill="rgb(0,0,0)" fill-opacity="0.18"/>
<rect x="41.66" y="91.52" width="4.68" height="12.48" fill="#4a3218"/>
<polygon points="26.84,93.08 61.16,93.08 44.00,77.48" fill="#2f8a3c" stroke="#0a2a0f" stroke-opacity="0.35" stroke-width="0.9359999999999999"/>
<polygon points="30.74,83.72 57.26,83.72 44.00,66.56" fill="#1f6b2b" stroke="#0a2a0f" stroke-opacity="0.35" stroke-width="0.9359999999999999"/>
<polygon points="35.42,74.36 52.58,74.36 44.00,57.20" fill="#2f8a3c" stroke="#0a2a0f" stroke-opacity="0.35" stroke-width="0.9359999999999999"/>
<ellipse cx="70.00" cy="102.00" rx="14.08" ry="4.40" fill="rgb(0,0,0)" fill-opacity="0.18"/>
<rect x="67.36" y="85.92" width="5.28" height="14.08" fill="#4a3218"/>
<polygon points="50.64,87.68 89.36,87.68 70.00,70.08" fill="#1f6b2b" stroke="#0a2a0f" stroke-opacity="0.35" stroke-width="1.056"/>
<polygon points="55.04,77.12 84.96,77.12 70.00,57.76" fill="#154d1f" stroke="#0a2a0f" stroke-opacity="0.35" stroke-width="1.056"/>
<polygon points="60.32,66.56 79.68,66.56 70.00,47.20" fill="#1f6b2b" stroke="#0a2a0f" stroke-opacity="0.35" stroke-width="1.056"/>
<ellipse cx="96.00" cy="112.00" rx="11.20" ry="3.50" fill="rgb(0,0,0)" fill-opacity="0.18"/>
<rect x="93.90" y="98.80" width="4.20" height="11.20" fill="#4a3218"/>
<polygon points="80.60,100.20 111.40,100.20 96.00,86.20" fill="#2f8a3c" stroke="#0a2a0f" stroke-opacity="0.35" stroke-width="0.84"/>
<polygon points="84.10,91.80 107.90,91.80 96.00,76.40" fill="#1f6b2b" stroke="#0a2a0f" stroke-opacity="0.35" stroke-width="0.84"/>
<polygon points="88.30,83.40 103.70,83.40 96.00,68.00" fill="#2f8a3c" stroke="#0a2a0f" stroke-opacity="0.35" stroke-width="0.84"/>
<ellipse cx="20.00" cy="114.00" rx="10.40" ry="3.25" fill="rgb(0,0,0)" fill-opacity="0.18"/>
<rect x="18.05" y="101.60" width="3.90" height="10.40" fill="#4a3218"/>
<polygon points="5.70,102.90 34.30,102.90 20.00,89.90" fill="#1f6b2b" stroke="#0a2a0f" stroke-opacity="0.35" stroke-width="0.78"/>
<polygon points="8.95,95.10 31.05,95.10 20.00,80.80" fill="#154d1f" stroke="#0a2a0f" stroke-opacity="0.35" stroke-width="0.78"/>
<polygon points="12.85,87.30 27.15,87.30 20.00,73.00" fill="#1f6b2b" stroke="#0a2a0f" stroke-opacity="0.35" stroke-width="0.78"/>
<ellipse cx="108.00" cy="126.00" rx="10.88" ry="3.40" fill="rgb(0,0,0)" fill-opacity="0.18"/>
<rect x="105.96" y="113.12" width="4.08" height="10.88" fill="#4a3218"/>
<polygon points="93.04,114.48 122.96,114.48 108.00,100.88" fill="#2f8a3c" stroke="#0a2a0f" stroke-opacity="0.35" stroke-width="0.8160000000000001"/>
<polygon points="96.44,106.32 119.56,106.32 108.00,91.36" fill="#1f6b2b" stroke="#0a2a0f" stroke-opacity="0.35" stroke-width="0.8160000000000001"/>
<polygon points="100.52,98.16 115.48,98.16 108.00,83.20" fill="#2f8a3c" stroke="#0a2a0f" stroke-opacity="0.35" stroke-width="0.8160000000000001"/>
<ellipse cx="58.00" cy="90.00" rx="9.92" ry="3.10" fill="rgb(0,0,0)" fill-opacity="0.18"/>
<rect x="56.14" y="78.08" width="3.72" height="9.92" fill="#4a3218"/>
<polygon points="44.36,79.32 71.64,79.32 58.00,66.92" fill="#1f6b2b" stroke="#0a2a0f" stroke-opacity="0.35" stroke-width="0.744"/>
<polygon points="47.46,71.88 68.54,71.88 58.00,58.24" fill="#154d1f" stroke="#0a2a0f" stroke-opacity="0.35" stroke-width="0.744"/>
<polygon points="51.18,64.44 64.82,64.44 58.00,50.80" fill="#1f6b2b" stroke="#0a2a0f" stroke-opacity="0.35" stroke-width="0.744"/>
</g></svg>