<svg xmlns="http://www.w3.org/2000/svg" xmlns:xlink="http://www.w3.org/1999/xlink" version="1.1" width="128" height="288"><defs/><g><path d="M66,233.68 L115.92,258.64 L66,283.6 L16.08,258.64 Z" fill="rgb(0,0,0)" fill-opacity="0.2"/><path d="M87.04,245.76 L42.24,268.16 L42.24,84.16 L87.04,61.76 Z" fill="#9d8de0"/><path d="M87.04,245.76 L42.24,268.16 L42.24,84.16 L87.04,61.76 Z" fill="none" stroke="rgb(12,0,40)" stroke-opacity="0.32" stroke-width="1"/><path d="M16.64,255.36 L42.24,268.16 L42.24,84.16 L16.64,71.36 Z" fill="#5c4d99"/><path d="M16.64,255.36 L42.24,268.16 L42.24,84.16 L16.64,71.36 Z" fill="none" stroke="rgb(12,0,40)" stroke-opacity="0.32" stroke-width="1"/><path d="M61.44,48.96 L87.04,61.76 L42.24,84.16 L16.64,71.36 Z" fill="#d8d2f7"/><path d="M61.44,48.96 L87.04,61.76 L42.24,84.16 L16.64,71.36 Z" fill="none" stroke="rgb(12,0,40)" stroke-opacity="0.32" stroke-width="1"/><path d="M82.56,71.36 L69.12,78.08 L69.12,100.16 L82.56,93.44 Z" fill="#c9a8ff"/><path d="M60.16,82.56 L46.72,89.28 L46.72,111.36 L60.16,104.64 Z" fill="#c9a8ff"/><path d="M82.56,108.16 L69.12,114.88 L69.12,136.96 L82.56,130.24 Z" fill="#c9a8ff"/><path d="M60.16,119.36 L46.72,126.08 L46.72,148.16 L60.16,141.44 Z" fill="#c9a8ff"/><path d="M82.56,144.96 L69.12,151.68 L69.12,173.76 L82.56,167.04 Z" fill="#c9a8ff"/><path d="M60.16,156.16 L46.72,162.88 L46.72,184.96 L60.16,178.24 Z" fill="#c9a8ff"/><path d="M82.56,181.76 L69.12,188.48 L69.12,210.56 L82.56,203.84 Z" fill="#c9a8ff"/><path d="M60.16,192.96 L46.72,199.68 L46.72,221.76 L60.16,215.04 Z" fill="#c9a8ff"/><path d="M82.56,218.56 L69.12,225.28 L69.12,247.36 L82.56,240.64 Z" fill="#c9a8ff"/><path d="M60.16,229.76 L46.72,236.48 L46.72,258.56 L60.16,251.84 Z" fill="#c9a8ff"/><path d="M19.2,80 L26.88,83.84 L26.88,105.92 L19.2,102.08 Z" fill="#c9a8ff"/><path d="M32,86.4 L39.68,90.24 L39.68,112.32 L32,108.48 Z" fill="#c9a8ff"/><path d="M19.2,116.8 L26.88,120.64 L26.88,142.72 L19.2,138.88 Z" fill="#c9a8ff"/><path d="M32,123.2 L39.68,127.04 L39.68,149.12 L32,145.28 Z" fill="#c9a8ff"/><path d="M19.2,153.6 L26.88,157.44 L26.88,179.52 L19.2,175.68 Z" fill="#c9a8ff"/><path d="M32,160 L39.68,163.84 L39.68,185.92 L32,182.08 Z" fill="#c9a8ff"/><path d="M19.2,190.4 L26.88,194.24 L26.88,216.32 L19.2,212.48 Z" fill="#c9a8ff"/><path d="M32,196.8 L39.68,200.64 L39.68,222.72 L32,218.88 Z" fill="#c9a8ff"/><path d="M19.2,227.2 L26.88,231.04 L26.88,253.12 L19.2,249.28 Z" fill="#c9a8ff"/><path d="M32,233.6 L39.68,237.44 L39.68,259.52 L32,255.68 Z" fill="#c9a8ff"/><path d="M111.36,257.92 L66.56,280.32 L66.56,129.44 L111.36,107.04 Z" fill="#9d8de0"/><path d="M111.36,257.92 L66.56,280.32 L66.56,129.44 L111.36,107.04 Z" fill="none" stroke="rgb(12,0,40)" stroke-opacity="0.32" stroke-width="1"/><path d="M43.52,268.8 L66.56,280.32 L66.56,129.44 L43.52,117.92 Z" fill="#5c4d99"/><path d="M43.52,268.8 L66.56,280.32 L66.56,129.44 L43.52,117.92 Z" fill="none" stroke="rgb(12,0,40)" stroke-opacity="0.32" stroke-width="1"/><path d="M88.32,95.52 L111.36,107.04 L66.56,129.44 L43.52,117.92 Z" fill="#d8d2f7"/><path d="M88.32,95.52 L111.36,107.04 L66.56,129.44 L43.52,117.92 Z" fill="none" stroke="rgb(12,0,40)" stroke-opacity="0.32" stroke-width="1"/><path d="M106.88,116.82 L93.44,123.54 L93.44,146.18 L106.88,139.46 Z" fill="#c9a8ff"/><path d="M84.48,128.02 L71.04,134.74 L71.04,157.38 L84.48,150.66 Z" fill="#c9a8ff"/><path d="M106.88,154.54 L93.44,161.26 L93.44,183.9 L106.88,177.18 Z" fill="#c9a8ff"/><path d="M84.48,165.74 L71.04,172.46 L71.04,195.1 L84.48,188.38 Z" fill="#c9a8ff"/><path d="M106.88,192.26 L93.44,198.98 L93.44,221.62 L106.88,214.9 Z" fill="#c9a8ff"/><path d="M84.48,203.46 L71.04,210.18 L71.04,232.82 L84.48,226.1 Z" fill="#c9a8ff"/><path d="M106.88,229.98 L93.44,236.7 L93.44,259.34 L106.88,252.62 Z" fill="#c9a8ff"/><path d="M84.48,241.18 L71.04,247.9 L71.04,270.54 L84.48,263.82 Z" fill="#c9a8ff"/><path d="M45.82,126.62 L52.74,130.07 L52.74,152.7 L45.82,149.25 Z" fill="#c9a8ff"/><path d="M57.34,132.38 L64.26,135.83 L64.26,158.46 L57.34,155.01 Z" fill="#c9a8ff"/><path d="M45.82,164.34 L52.74,167.79 L52.74,190.42 L45.82,186.97 Z" fill="#c9a8ff"/><path d="M57.34,170.1 L64.26,173.55 L64.26,196.18 L57.34,192.73 Z" fill="#c9a8ff"/><path d="M45.82,202.06 L52.74,205.51 L52.74,228.14 L45.82,224.69 Z" fill="#c9a8ff"/><path d="M57.34,207.82 L64.26,211.27 L64.26,233.9 L57.34,230.45 Z" fill="#c9a8ff"/><path d="M45.82,239.78 L52.74,243.23 L52.74,265.86 L45.82,262.41 Z" fill="#c9a8ff"/><path d="M57.34,245.54 L64.26,248.99 L64.26,271.62 L57.34,268.17 Z" fill="#c9a8ff"/></g></svg>