<svg xmlns="http://www.w3.org/2000/svg" xmlns:xlink="http://www.w3.org/1999/xlink" version="1.1" width="128" height="128"><defs/><g><path d="M60.88,81.36 L101.84,101.84 L71.12,117.2 L30.16,96.72 Z" fill="rgb(0,0,0)" fill-opacity="0.2"/><path d="M99.84,99.84 L69.12,115.2 L69.12,71.2 L99.84,55.84 Z" fill="#2f2956"/><path d="M99.84,99.84 L69.12,115.2 L69.12,71.2 L99.84,55.84 Z" fill="none" stroke="rgb(12,0,40)" stroke-opacity="0.42" stroke-width="1"/><path d="M28.16,94.72 L69.12,115.2 L69.12,71.2 L28.16,50.72 Z" fill="#191430"/><path d="M28.16,94.72 L69.12,115.2 L69.12,71.2 L28.16,50.72 Z" fill="none" stroke="rgb(12,0,40)" stroke-opacity="0.42" stroke-width="1"/><path d="M58.88,35.36 L99.84,55.84 L69.12,71.2 L28.16,50.72 Z" fill="#453f6b"/><path d="M58.88,35.36 L99.84,55.84 L69.12,71.2 L28.16,50.72 Z" fill="none" stroke="rgb(12,0,40)" stroke-opacity="0.42" stroke-width="1"/><path d="M91.85,59.83 L91.85,103.83" fill="none" stroke="rgb(125,86,225)" stroke-width="2.06" stroke-dasharray="9.32,4.92"/><path d="M84.48,63.52 L84.48,107.52" fill="none" stroke="rgb(115,70,223)" stroke-width="3.9" stroke-dasharray="7.92,6.91"/><path d="M77.11,67.21 L77.11,111.21" fill="none" stroke="rgb(104,66,222)" stroke-width="4.36" stroke-dasharray="6.23,5.94"/></g></svg>