<svg xmlns="http://www.w3.org/2000/svg" xmlns:xlink="http://www.w3.org/1999/xlink" version="1.1" width="128" height="224"><defs/><g><path d="M66,172.24 L110.8,194.64 L66,217.04 L21.2,194.64 Z" fill="rgb(0,0,0)" fill-opacity="0.2"/><path d="M108.8,192.64 L64,215.04 L64,107.04 L108.8,84.64 Z" fill="#9d8de0"/><path d="M108.8,192.64 L64,215.04 L64,107.04 L108.8,84.64 Z" fill="none" stroke="rgb(12,0,40)" stroke-opacity="0.32" stroke-width="1"/><path d="M19.2,192.64 L64,215.04 L64,107.04 L19.2,84.64 Z" fill="#5c4d99"/><path d="M19.2,192.64 L64,215.04 L64,107.04 L19.2,84.64 Z" fill="none" stroke="rgb(12,0,40)" stroke-opacity="0.32" stroke-width="1"/><path d="M64,62.24 L108.8,84.64 L64,107.04 L19.2,84.64 Z" fill="#d8d2f7"/><path d="M64,62.24 L108.8,84.64 L64,107.04 L19.2,84.64 Z" fill="none" stroke="rgb(12,0,40)" stroke-opacity="0.32" stroke-width="1"/><path d="M107.01,88.42 L88.19,97.82 L88.19,128.06 L107.01,118.66 Z" fill="#c9a8ff"/><path d="M84.61,99.62 L65.79,109.02 L65.79,139.26 L84.61,129.86 Z" fill="#c9a8ff"/><path d="M107.01,124.42 L88.19,133.82 L88.19,164.06 L107.01,154.66 Z" fill="#c9a8ff"/><path d="M84.61,135.62 L65.79,145.02 L65.79,175.26 L84.61,165.86 Z" fill="#c9a8ff"/><path d="M107.01,160.42 L88.19,169.82 L88.19,200.06 L107.01,190.66 Z" fill="#c9a8ff"/><path d="M84.61,171.62 L65.79,181.02 L65.79,211.26 L84.61,201.86 Z" fill="#c9a8ff"/><path d="M20.99,88.42 L39.81,97.82 L39.81,128.06 L20.99,118.66 Z" fill="#c9a8ff"/><path d="M43.39,99.62 L62.21,109.02 L62.21,139.26 L43.39,129.86 Z" fill="#c9a8ff"/><path d="M20.99,124.42 L39.81,133.82 L39.81,164.06 L20.99,154.66 Z" fill="#c9a8ff"/><path d="M43.39,135.62 L62.21,145.02 L62.21,175.26 L43.39,165.86 Z" fill="#c9a8ff"/><path d="M20.99,160.42 L39.81,169.82 L39.81,200.06 L20.99,190.66 Z" fill="#c9a8ff"/><path d="M43.39,171.62 L62.21,181.02 L62.21,211.26 L43.39,201.86 Z" fill="#c9a8ff"/></g></svg>