<svg xmlns:xlink="http://www.w3.org/1999/xlink" version="1.1" xmlns="http://www.w3.org/2000/svg" width="128" height="128"><defs/><g><g transform="translate(2,2)"><path fill="rgb(0,0,0)" stroke="none" paint-order="stroke fill markers" d=" M 64 79.36 L 99.84 97.28 L 64 115.2 L 28.159999999999997 97.28 Z" fill-opacity="0.20"/></g><path fill="#aebccb" stroke="rgb(0,0,0)" paint-order="fill stroke markers" d=" M 99.84 97.28 L 64 115.2 L 64 55.2 L 99.84 37.28 Z" stroke-opacity="0.30" stroke-miterlimit="10"/><path fill="#7c8a9a" stroke="rgb(0,0,0)" paint-order="fill stroke markers" d=" M 28.159999999999997 97.28 L 64 115.2 L 64 55.2 L 28.159999999999997 37.28 Z" stroke-opacity="0.30" stroke-miterlimit="10"/><path fill="#dde6ee" stroke="rgb(0,0,0)" paint-order="fill stroke markers" d=" M 64 19.36 L 99.84 37.28 L 64 55.2 L 28.159999999999997 37.28 Z" stroke-opacity="0.30" stroke-miterlimit="10"/><path fill="#bfe6f5" stroke="none" paint-order="stroke fill markers" d=" M 96.256 45.072 L 85.504 50.448 L 85.504 68.44800000000001 L 96.256 63.072 Z"/><path fill="#bfe6f5" stroke="none" paint-order="stroke fill markers" d=" M 78.336 54.032000000000004 L 67.584 59.408 L 67.584 77.408 L 78.336 72.03200000000001 Z"/><path fill="#bfe6f5" stroke="none" paint-order="stroke fill markers" d=" M 96.256 75.072 L 85.504 80.44800000000001 L 85.504 98.44800000000001 L 96.256 93.072 Z"/><path fill="#bfe6f5" stroke="none" paint-order="stroke fill markers" d=" M 78.336 84.032 L 67.584 89.408 L 67.584 107.408 L 78.336 102.032 Z"/><path fill="#bfe6f5" stroke="none" paint-order="stroke fill markers" d=" M 31.743999999999996 45.072 L 42.495999999999995 50.448 L 42.495999999999995 68.44800000000001 L 31.743999999999996 63.072 Z"/><path fill="#bfe6f5" stroke="none" paint-order="stroke fill markers" d=" M 49.664 54.032000000000004 L 60.416000000000004 59.408 L 60.416000000000004 77.408 L 49.664 72.03200000000001 Z"/><path fill="#bfe6f5" stroke="none" paint-order="stroke fill markers" d=" M 31.743999999999996 75.072 L 42.495999999999995 80.44800000000001 L 42.495999999999995 98.44800000000001 L 31.743999999999996 93.072 Z"/><path fill="#bfe6f5" stroke="none" paint-order="stroke fill markers" d=" M 49.664 84.032 L 60.416000000000004 89.408 L 60.416000000000004 107.408 L 49.664 102.032 Z"/><path fill="#5a6e82" stroke="none" paint-order="stroke fill markers" d=" M 28.159999999999997 73.28 L 64 91.2 L 52.480000000000004 106.96000000000001 L 16.64 89.03999999999999 Z"/><path fill="none" stroke="#fff" paint-order="fill stroke markers" d=" M 37.12 77.76 L 25.6 93.52" stroke-miterlimit="10" stroke-width="2"/><path fill="none" stroke="#fff" paint-order="fill stroke markers" d=" M 46.08 82.24000000000001 L 34.56 98" stroke-miterlimit="10" stroke-width="2"/><path fill="none" stroke="#fff" paint-order="fill stroke markers" d=" M 55.04 86.72 L 43.52 102.48" stroke-miterlimit="10" stroke-width="2"/></g></svg>