<svg xmlns="http://www.w3.org/2000/svg" version="1.1" width="128" height="288"><g><rect x="3.52" y="3.52" width="56.96" height="56.96" fill="rgba(0,0,0,0.20)" transform="matrix(1,0.5000,-1,0.5000,66.50,217.52)"/><g transform="translate(64.00,217.16) skewY(-26.565)"><rect x="0" y="0" width="51.20" height="55.46" fill="rgb(24,19,42)"/><line x1="3.66" y1="9.38" x2="3.66" y2="46.08" stroke="rgb(194,178,235)" stroke-width="2.46" stroke-linecap="butt" stroke-dasharray="5.11,4.42"/><line x1="10.97" y1="9.38" x2="10.97" y2="46.08" stroke="rgb(194,178,235)" stroke-width="2.46" stroke-linecap="butt" stroke-dasharray="5.11,4.42"/><line x1="18.29" y1="9.38" x2="18.29" y2="46.08" stroke="rgb(194,178,235)" stroke-width="2.46" stroke-linecap="butt" stroke-dasharray="5.11,4.42"/><line x1="25.60" y1="9.38" x2="25.60" y2="46.08" stroke="rgb(194,178,235)" stroke-width="2.46" stroke-linecap="butt" stroke-dasharray="5.11,4.42"/><line x1="32.91" y1="9.38" x2="32.91" y2="46.08" stroke="rgb(194,178,235)" stroke-width="2.46" stroke-linecap="butt" stroke-dasharray="5.11,4.42"/></g><g transform="translate(12.80,191.56) skewY(26.565)"><rect x="0" y="0" width="51.20" height="55.46" fill="rgb(43,34,76)"/><line x1="10.99" y1="11.88" x2="40.21" y2="11.88" stroke="rgb(142,133,229)" stroke-width="3.02" stroke-linecap="butt" stroke-dasharray="4.69,4.70"/><line x1="10.99" y1="19.81" x2="40.21" y2="19.81" stroke="rgb(142,133,229)" stroke-width="3.02" stroke-linecap="butt" stroke-dasharray="4.69,4.70"/><line x1="10.99" y1="27.73" x2="40.21" y2="27.73" stroke="rgb(142,133,229)" stroke-width="3.02" stroke-linecap="butt" stroke-dasharray="4.69,4.70"/><line x1="10.99" y1="35.65" x2="40.21" y2="35.65" stroke="rgb(142,133,229)" stroke-width="3.02" stroke-linecap="butt" stroke-dasharray="4.69,4.70"/><line x1="10.99" y1="43.57" x2="40.21" y2="43.57" stroke="rgb(142,133,229)" stroke-width="3.02" stroke-linecap="butt" stroke-dasharray="4.69,4.70"/><line x1="10.99" y1="51.50" x2="40.21" y2="51.50" stroke="rgb(142,133,229)" stroke-width="3.02" stroke-linecap="butt" stroke-dasharray="4.69,4.70"/></g><rect x="6.40" y="6.40" width="51.20" height="51.20" fill="rgb(82,69,134)" transform="matrix(1,0.5000,-1,0.5000,64.00,159.56)"/><g transform="translate(64.00,159.32) skewY(-26.565)"><rect x="0" y="0" width="41.87" height="53.18" fill="rgb(24,19,42)"/><line x1="6.66" y1="11.40" x2="35.21" y2="11.40" stroke="rgb(207,201,241)" stroke-width="1.46" stroke-linecap="butt" stroke-dasharray="7.05,2.44"/><line x1="6.66" y1="18.99" x2="35.21" y2="18.99" stroke="rgb(207,201,241)" stroke-width="1.46" stroke-linecap="butt" stroke-dasharray="7.05,2.44"/><line x1="6.66" y1="26.59" x2="35.21" y2="26.59" stroke="rgb(207,201,241)" stroke-width="1.46" stroke-linecap="butt" stroke-dasharray="7.05,2.44"/><line x1="6.66" y1="34.19" x2="35.21" y2="34.19" stroke="rgb(207,201,241)" stroke-width="1.46" stroke-linecap="butt" stroke-dasharray="7.05,2.44"/><line x1="6.66" y1="41.78" x2="35.21" y2="41.78" stroke="rgb(207,201,241)" stroke-width="1.46" stroke-linecap="butt" stroke-dasharray="7.05,2.44"/><line x1="6.66" y1="49.38" x2="35.21" y2="49.38" stroke="rgb(207,201,241)" stroke-width="1.46" stroke-linecap="butt" stroke-dasharray="7.05,2.44"/></g><g transform="translate(22.13,138.38) skewY(26.565)"><rect x="0" y="0" width="41.87" height="53.18" fill="rgb(44,34,76)"/><line x1="9.63" y1="22.16" x2="32.24" y2="22.16" stroke="rgb(144,119,242)" stroke-width="1.41" stroke-linecap="butt" stroke-dasharray="3.96,2.36"/></g><rect x="11.06" y="11.06" width="41.87" height="41.87" fill="rgb(73,60,117)" transform="matrix(1,0.5000,-1,0.5000,64.00,106.38)"/></g></svg>