<svg xmlns="http://www.w3.org/2000/svg" version="1.1" width="128" height="224">
    <g>
        <rect x="6.72" y="6.72" width="23.72" height="50.56" fill="rgba(0,0,0,0.20)"
            transform="matrix(1,0.5000,-1,0.5000,66.50,156.72)" />
        <g transform="translate(37.16,137.27) skewY(-26.565)">
            <rect x="0" y="0" width="44.80" height="57.93" fill="rgb(28,19,57)" />
            <line x1="8.26" y1="28.96" x2="36.54" y2="28.96" stroke="rgb(191,138,233)" stroke-width="2.56"
                stroke-linecap="butt" />
            <line x1="8.26" y1="37.24" x2="36.54" y2="37.24" stroke="rgb(191,138,233)" stroke-width="2.56"
                stroke-linecap="butt" />
            <line x1="8.26" y1="45.51" x2="36.54" y2="45.51" stroke="rgb(191,138,233)" stroke-width="2.56"
                stroke-linecap="butt" />
        </g>
        <g transform="translate(19.20,128.29) skewY(26.565)">
            <rect x="0" y="0" width="17.96" height="57.93" fill="rgb(50,35,104)" />
            <line x1="3.04" y1="12.41" x2="14.92" y2="12.41" stroke="rgb(188,172,232)" stroke-width="1.26"
                stroke-linecap="butt" stroke-dasharray="3.72,2.39" />
            <line x1="3.04" y1="20.69" x2="14.92" y2="20.69" stroke="rgb(188,172,232)" stroke-width="1.26"
                stroke-linecap="butt" stroke-dasharray="3.72,2.39" />
            <line x1="3.04" y1="28.96" x2="14.92" y2="28.96" stroke="rgb(188,172,232)" stroke-width="1.26"
                stroke-linecap="butt" stroke-dasharray="3.72,2.39" />
            <line x1="3.04" y1="37.24" x2="14.92" y2="37.24" stroke="rgb(188,172,232)" stroke-width="1.26"
                stroke-linecap="butt" stroke-dasharray="3.72,2.39" />
            <line x1="3.04" y1="45.51" x2="14.92" y2="45.51" stroke="rgb(188,172,232)" stroke-width="1.26"
                stroke-linecap="butt" stroke-dasharray="3.72,2.39" />
        </g>
        <rect x="9.60" y="9.60" width="17.96" height="44.80" fill="rgb(80,60,149)"
            transform="matrix(1,0.5000,-1,0.5000,64.00,96.29)" />
        <line x1="50.58" y1="121.58" x2="50.58" y2="109.29" stroke="#bbb" stroke-width="1.4" stroke-linecap="round" />
        <circle cx="50.58" cy="109.29" r="1.7" fill="#fff" />
        <rect x="27.16" y="6.72" width="30.12" height="50.56" fill="rgba(0,0,0,0.20)"
            transform="matrix(1,0.5000,-1,0.5000,66.50,156.72)" />
        <g transform="translate(64.00,158.77) skewY(-26.565)">
            <rect x="0" y="0" width="44.80" height="49.85" fill="rgb(27,19,57)" />
            <line x1="22.40" y1="8.16" x2="22.40" y2="41.69" stroke="rgb(216,191,246)" stroke-width="1.13"
                stroke-linecap="butt" stroke-dasharray="6.95,4.68" />
            <line x1="28.80" y1="8.16" x2="28.80" y2="41.69" stroke="rgb(216,191,246)" stroke-width="1.13"
                stroke-linecap="butt" stroke-dasharray="6.95,4.68" />
        </g>
        <g transform="translate(39.64,146.59) skewY(26.565)">
            <rect x="0" y="0" width="24.36" height="49.85" fill="rgb(49,35,104)" />
            <line x1="5.22" y1="9.75" x2="5.22" y2="40.10" stroke="rgb(181,160,233)" stroke-width="1.22"
                stroke-linecap="butt" />
            <line x1="8.70" y1="9.75" x2="8.70" y2="40.10" stroke="rgb(181,160,233)" stroke-width="1.22"
                stroke-linecap="butt" />
            <line x1="12.18" y1="9.75" x2="12.18" y2="40.10" stroke="rgb(181,160,233)" stroke-width="1.22"
                stroke-linecap="butt" />
            <line x1="15.66" y1="9.75" x2="15.66" y2="40.10" stroke="rgb(181,160,233)" stroke-width="1.22"
                stroke-linecap="butt" />
            <line x1="19.14" y1="9.75" x2="19.14" y2="40.10" stroke="rgb(181,160,233)" stroke-width="1.22"
                stroke-linecap="butt" />
        </g>
        <rect x="30.04" y="9.60" width="24.36" height="44.80" fill="rgb(79,60,150)"
            transform="matrix(1,0.5000,-1,0.5000,64.00,104.37)" />
        <g transform="translate(64.00,113.06) skewY(-26.565)">
            <rect x="0" y="0" width="44.80" height="45.71" fill="rgb(25,19,57)" />
            <line x1="10.16" y1="20.00" x2="34.64" y2="20.00" stroke="rgb(215,196,251)" stroke-width="2.27"
                stroke-linecap="butt" stroke-dasharray="2.50,2.61" />
            <line x1="10.16" y1="25.71" x2="34.64" y2="25.71" stroke="rgb(215,196,251)" stroke-width="2.27"
                stroke-linecap="butt" stroke-dasharray="2.50,2.61" />
            <line x1="10.16" y1="31.42" x2="34.64" y2="31.42" stroke="rgb(215,196,251)" stroke-width="2.27"
                stroke-linecap="butt" stroke-dasharray="2.50,2.61" />
            <line x1="10.16" y1="37.14" x2="34.64" y2="37.14" stroke="rgb(215,196,251)" stroke-width="2.27"
                stroke-linecap="butt" stroke-dasharray="2.50,2.61" />
            <line x1="10.16" y1="42.85" x2="34.64" y2="42.85" stroke="rgb(215,196,251)" stroke-width="2.27"
                stroke-linecap="butt" stroke-dasharray="2.50,2.61" />
        </g>
        <g transform="translate(39.64,100.88) skewY(26.565)">
            <rect x="0" y="0" width="24.36" height="45.71" fill="rgb(46,35,104)" />
            <line x1="10.15" y1="10.41" x2="10.15" y2="35.30" stroke="rgb(171,136,248)" stroke-width="3"
                stroke-linecap="butt" stroke-dasharray="6.65,4.90" />
        </g>
        <rect x="30.04" y="9.60" width="24.36" height="44.80" fill="rgb(75,60,150)"
            transform="matrix(1,0.5000,-1,0.5000,64.00,58.66)" />
    </g>
</svg>