<svg xmlns="http://www.w3.org/2000/svg" xmlns:xlink="http://www.w3.org/1999/xlink" version="1.1" width="128" height="128"><defs/><g><path d="M66,81.36 L101.84,99.28 L66,117.2 L30.16,99.28 Z" fill="rgb(0,0,0)" fill-opacity="0.2"/><path d="M99.84,97.28 L64,115.2 L64,55.2 L99.84,37.28 Z" fill="#2f2956"/><path d="M99.84,97.28 L64,115.2 L64,55.2 L99.84,37.28 Z" fill="none" stroke="rgb(12,0,40)" stroke-opacity="0.25" stroke-width="1"/><path d="M28.16,97.28 L64,115.2 L64,55.2 L28.16,37.28 Z" fill="#191430"/><path d="M28.16,97.28 L64,115.2 L64,55.2 L28.16,37.28 Z" fill="none" stroke="rgb(12,0,40)" stroke-opacity="0.25" stroke-width="1"/><path d="M64,19.36 L99.84,37.28 L64,55.2 L28.16,37.28 Z" fill="#453f6b"/><path d="M64,19.36 L99.84,37.28 L64,55.2 L28.16,37.28 Z" fill="none" stroke="rgb(12,0,40)" stroke-opacity="0.25" stroke-width="1"/><path d="M87.65,43.37 L87.65,103.37" fill="none" stroke="rgb(191,167,255)" stroke-width="1.89" stroke-dasharray="8.97,5.32"/><path d="M76.19,49.11 L76.19,109.11" fill="none" stroke="rgb(190,176,255)" stroke-width="2.16" stroke-dasharray="6.23,4.45"/><path d="M40.35,43.37 L40.35,103.37" fill="none" stroke="rgb(220,166,255)" stroke-width="3.38" stroke-dasharray="7.37,3.52"/><path d="M51.81,49.11 L51.81,109.11" fill="none" stroke="rgb(223,184,255)" stroke-width="4.74" stroke-dasharray="7.79,2.07"/><path d="M28.16,73.28 L64,91.2 L52.48,106.96 L16.64,89.04 Z" fill="#5a6e82"/><path d="M37.12,77.76 L25.6,93.52" fill="none" stroke="#fff" stroke-width="2"/><path d="M46.08,82.24 L34.56,98" fill="none" stroke="#fff" stroke-width="2"/><path d="M55.04,86.72 L43.52,102.48" fill="none" stroke="#fff" stroke-width="2"/></g></svg>