<svg xmlns="http://www.w3.org/2000/svg" xmlns:xlink="http://www.w3.org/1999/xlink" version="1.1" width="128" height="288"><defs/><g><path d="M66,231.12 L121.04,258.64 L66,286.16 L10.96,258.64 Z" fill="rgb(0,0,0)" fill-opacity="0.2"/><path d="M119.04,256.64 L64,284.16 L64,140.64 L119.04,113.12 Z" fill="#2f2956"/><path d="M119.04,256.64 L64,284.16 L64,140.64 L119.04,113.12 Z" fill="none" stroke="rgb(12,0,40)" stroke-opacity="0.25" stroke-width="1"/><path d="M8.96,256.64 L64,284.16 L64,140.64 L8.96,113.12 Z" fill="#191430"/><path d="M8.96,256.64 L64,284.16 L64,140.64 L8.96,113.12 Z" fill="none" stroke="rgb(12,0,40)" stroke-opacity="0.25" stroke-width="1"/><path d="M64,85.6 L119.04,113.12 L64,140.64 L8.96,113.12 Z" fill="#453f6b"/><path d="M64,85.6 L119.04,113.12 L64,140.64 L8.96,113.12 Z" fill="none" stroke="rgb(12,0,40)" stroke-opacity="0.25" stroke-width="1"/><path d="M104.73,120.28 L104.73,263.8" fill="none" stroke="rgb(191,167,255)" stroke-width="1.89" stroke-dasharray="8.97,5.32"/><path d="M95.92,124.68 L95.92,268.2" fill="none" stroke="rgb(190,176,255)" stroke-width="2.16" stroke-dasharray="6.23,4.45"/><path d="M87.12,129.08 L87.12,272.6" fill="none" stroke="rgb(199,154,255)" stroke-width="2.65" stroke-dasharray="9.39,3.57"/><path d="M78.31,133.48 L78.31,277" fill="none" stroke="rgb(206,174,255)" stroke-width="1.83" stroke-dasharray="7.56,2.23"/><path d="M23.27,120.28 L23.27,263.8" fill="none" stroke="rgb(220,166,255)" stroke-width="3.38" stroke-dasharray="7.37,3.52"/><path d="M32.08,124.68 L32.08,268.2" fill="none" stroke="rgb(223,184,255)" stroke-width="4.74" stroke-dasharray="7.79,2.07"/><path d="M40.88,129.08 L40.88,272.6" fill="none" stroke="rgb(223,168,255)" stroke-width="4.08" stroke-dasharray="5.82,4.38"/><path d="M49.69,133.48 L49.69,277" fill="none" stroke="rgb(196,157,255)" stroke-width="4.1" stroke-dasharray="8.22,4.2"/></g></svg>