<svg xmlns:xlink="http://www.w3.org/1999/xlink" version="1.1" xmlns="http://www.w3.org/2000/svg" width="128" height="128"><defs/><g><g transform="translate(2,2)"><path fill="rgb(0,0,0)" stroke="none" paint-order="stroke fill markers" d=" M 64 78.08 L 102.4 97.28 L 64 116.47999999999999 L 25.6 97.28 Z" fill-opacity="0.20"/></g><path fill="#aebccb" stroke="rgb(0,0,0)" paint-order="fill stroke markers" d=" M 102.4 97.28 L 64 116.47999999999999 L 64 68.47999999999999 L 102.4 49.28 Z" stroke-opacity="0.30" stroke-miterlimit="10"/><path fill="#7c8a9a" stroke="rgb(0,0,0)" paint-order="fill stroke markers" d=" M 25.6 97.28 L 64 116.47999999999999 L 64 68.47999999999999 L 25.6 49.28 Z" stroke-opacity="0.30" stroke-miterlimit="10"/><path fill="#dde6ee" stroke="rgb(0,0,0)" paint-order="fill stroke markers" d=" M 64 30.08 L 102.4 49.28 L 64 68.47999999999999 L 25.6 49.28 Z" stroke-opacity="0.30" stroke-miterlimit="10"/><path fill="#3b9dff" stroke="none" paint-order="stroke fill markers" d=" M 97.792 57.344 L 68.608 71.93599999999999 L 68.608 108.416 L 97.792 93.82400000000001 Z"/><path fill="#3b9dff" stroke="none" paint-order="stroke fill markers" d=" M 25.6 77.28 L 64 96.47999999999999 L 52.48 112.24 L 14.079999999999998 93.03999999999999 Z"/><path fill="none" stroke="#fff" paint-order="fill stroke markers" d=" M 35.2 82.08 L 23.68 97.83999999999999" stroke-miterlimit="10" stroke-width="2"/><path fill="none" stroke="#fff" paint-order="fill stroke markers" d=" M 44.8 86.88 L 33.28 102.63999999999999" stroke-miterlimit="10" stroke-width="2"/><path fill="none" stroke="#fff" paint-order="fill stroke markers" d=" M 54.4 91.67999999999999 L 42.879999999999995 107.44" stroke-miterlimit="10" stroke-width="2"/></g></svg>