<svg xmlns:xlink="http://www.w3.org/1999/xlink" version="1.1" xmlns="http://www.w3.org/2000/svg" width="128" height="128"><defs/><g><g transform="translate(2,2)"><path fill="rgb(0,0,0)" stroke="none" paint-order="stroke fill markers" d=" M 58.879999999999995 79.36 L 99.84 99.84 L 69.12 115.2 L 28.159999999999997 94.72 Z" fill-opacity="0.20"/></g><path fill="#aebccb" stroke="rgb(0,0,0)" paint-order="fill stroke markers" d=" M 99.84 99.84 L 69.12 115.2 L 69.12 71.2 L 99.84 55.84 Z" stroke-opacity="0.30" stroke-miterlimit="10"/><path fill="#7c8a9a" stroke="rgb(0,0,0)" paint-order="fill stroke markers" d=" M 28.159999999999997 94.72 L 69.12 115.2 L 69.12 71.2 L 28.159999999999997 50.72 Z" stroke-opacity="0.30" stroke-miterlimit="10"/><path fill="#dde6ee" stroke="rgb(0,0,0)" paint-order="fill stroke markers" d=" M 58.879999999999995 35.36 L 99.84 55.84 L 69.12 71.2 L 28.159999999999997 50.72 Z" stroke-opacity="0.30" stroke-miterlimit="10"/><path fill="#3b9dff" stroke="none" paint-order="stroke fill markers" d=" M 98.4064 62.716800000000006 L 91.0336 66.4032 L 91.0336 98.0832 L 98.4064 94.39680000000001 Z"/><path fill="#3b9dff" stroke="none" paint-order="stroke fill markers" d=" M 88.1664 67.83680000000001 L 80.7936 71.5232 L 80.7936 103.20320000000001 L 88.1664 99.5168 Z"/><path fill="#3b9dff" stroke="none" paint-order="stroke fill markers" d=" M 77.9264 72.9568 L 70.5536 76.6432 L 70.5536 108.32319999999999 L 77.9264 104.6368 Z"/></g></svg>