<svg xmlns="http://www.w3.org/2000/svg" xmlns:xlink="http://www.w3.org/1999/xlink" version="1.1" width="128" height="128"><defs/><g><path d="M66,80.08 L104.4,99.28 L66,118.48 L27.6,99.28 Z" fill="rgb(0,0,0)" fill-opacity="0.2"/><path d="M102.4,97.28 L64,116.48 L64,68.48 L102.4,49.28 Z" fill="#2f2956"/><path d="M102.4,97.28 L64,116.48 L64,68.48 L102.4,49.28 Z" fill="none" stroke="rgb(12,0,40)" stroke-opacity="0.42" stroke-width="1"/><path d="M25.6,97.28 L64,116.48 L64,68.48 L25.6,49.28 Z" fill="#191430"/><path d="M25.6,97.28 L64,116.48 L64,68.48 L25.6,49.28 Z" fill="none" stroke="rgb(12,0,40)" stroke-opacity="0.42" stroke-width="1"/><path d="M64,30.08 L102.4,49.28 L64,68.48 L25.6,49.28 Z" fill="#453f6b"/><path d="M64,30.08 L102.4,49.28 L64,68.48 L25.6,49.28 Z" fill="none" stroke="rgb(12,0,40)" stroke-opacity="0.42" stroke-width="1"/><path d="M102.4,73.28 L64,92.48" fill="none" stroke="rgb(88,76,224)" stroke-width="4.48" stroke-dasharray="6.54,5.02"/><path d="M25.6,77.28 L64,96.48 L52.48,112.24 L14.08,93.04 Z" fill="#7a4ee0"/><path d="M35.2,82.08 L23.68,97.84" fill="none" stroke="#fff" stroke-width="2"/><path d="M44.8,86.88 L33.28,102.64" fill="none" stroke="#fff" stroke-width="2"/><path d="M54.4,91.68 L42.88,107.44" fill="none" stroke="#fff" stroke-width="2"/></g></svg>