<svg xmlns="http://www.w3.org/2000/svg" version="1.1" width="128" height="224"><g><rect x="6.72" y="6.72" width="50.56" height="23.16" fill="rgba(0,0,0,0.20)" transform="matrix(1,0.5000,-1,0.5000,66.50,156.72)"/><g transform="translate(91.40,145.01) skewY(-26.565)"><rect x="0" y="0" width="17.40" height="49.91" fill="rgb(18,16,46)"/><line x1="7.25" y1="8.42" x2="7.25" y2="41.49" stroke="rgb(207,190,250)" stroke-width="2.06" stroke-linecap="butt" stroke-dasharray="7.74,2.56"/><line x1="10.15" y1="8.42" x2="10.15" y2="41.49" stroke="rgb(207,190,250)" stroke-width="2.06" stroke-linecap="butt" stroke-dasharray="7.74,2.56"/></g><g transform="translate(46.60,122.61) skewY(26.565)"><rect x="0" y="0" width="44.80" height="49.91" fill="rgb(32,29,84)"/><line x1="6.49" y1="21.84" x2="38.31" y2="21.84" stroke="rgb(154,120,243)" stroke-width="2.58" stroke-linecap="butt" stroke-dasharray="3.68,2.07"/><line x1="6.49" y1="28.07" x2="38.31" y2="28.07" stroke="rgb(154,120,243)" stroke-width="2.58" stroke-linecap="butt" stroke-dasharray="3.68,2.07"/><line x1="6.49" y1="34.31" x2="38.31" y2="34.31" stroke="rgb(154,120,243)" stroke-width="2.58" stroke-linecap="butt" stroke-dasharray="3.68,2.07"/><line x1="6.49" y1="40.55" x2="38.31" y2="40.55" stroke="rgb(154,120,243)" stroke-width="2.58" stroke-linecap="butt" stroke-dasharray="3.68,2.07"/><line x1="6.49" y1="46.79" x2="38.31" y2="46.79" stroke="rgb(154,120,243)" stroke-width="2.58" stroke-linecap="butt" stroke-dasharray="3.68,2.07"/></g><rect x="9.60" y="9.60" width="44.80" height="17.40" fill="rgb(62,58,140)" transform="matrix(1,0.5000,-1,0.5000,64.00,104.31)"/><rect x="6.72" y="29.01" width="50.56" height="28.27" fill="rgba(0,0,0,0.20)" transform="matrix(1,0.5000,-1,0.5000,66.50,156.72)"/><g transform="translate(64.00,166.19) skewY(-26.565)"><rect x="0" y="0" width="22.51" height="42.43" fill="rgb(17,16,46)"/><line x1="4.32" y1="9.09" x2="18.19" y2="9.09" stroke="rgb(193,171,242)" stroke-width="2.48" stroke-linecap="butt"/><line x1="4.32" y1="15.15" x2="18.19" y2="15.15" stroke="rgb(193,171,242)" stroke-width="2.48" stroke-linecap="butt"/><line x1="4.32" y1="21.21" x2="18.19" y2="21.21" stroke="rgb(193,171,242)" stroke-width="2.48" stroke-linecap="butt"/><line x1="4.32" y1="27.27" x2="18.19" y2="27.27" stroke="rgb(193,171,242)" stroke-width="2.48" stroke-linecap="butt"/></g><g transform="translate(19.20,143.79) skewY(26.565)"><rect x="0" y="0" width="44.80" height="42.43" fill="rgb(31,29,84)"/><line x1="10.44" y1="15.15" x2="34.36" y2="15.15" stroke="rgb(214,196,251)" stroke-width="1.15" stroke-linecap="butt" stroke-dasharray="6.89,2.18"/><line x1="10.44" y1="21.21" x2="34.36" y2="21.21" stroke="rgb(214,196,251)" stroke-width="1.15" stroke-linecap="butt" stroke-dasharray="6.89,2.18"/><line x1="10.44" y1="27.27" x2="34.36" y2="27.27" stroke="rgb(214,196,251)" stroke-width="1.15" stroke-linecap="butt" stroke-dasharray="6.89,2.18"/></g><rect x="9.60" y="31.89" width="44.80" height="22.51" fill="rgb(64,61,148)" transform="matrix(1,0.5000,-1,0.5000,64.00,111.79)"/><g transform="translate(64.00,116.11) skewY(-26.565)"><rect x="0" y="0" width="22.51" height="50.08" fill="rgb(19,16,46)"/><line x1="7.03" y1="8.17" x2="7.03" y2="41.91" stroke="rgb(204,173,247)" stroke-width="1.83" stroke-linecap="butt" stroke-dasharray="7.11,3.09"/><line x1="9.85" y1="8.17" x2="9.85" y2="41.91" stroke="rgb(204,173,247)" stroke-width="1.83" stroke-linecap="butt" stroke-dasharray="7.11,3.09"/><line x1="12.66" y1="8.17" x2="12.66" y2="41.91" stroke="rgb(204,173,247)" stroke-width="1.83" stroke-linecap="butt" stroke-dasharray="7.11,3.09"/></g><g transform="translate(19.20,93.71) skewY(26.565)"><rect x="0" y="0" width="44.80" height="50.08" fill="rgb(34,29,84)"/><line x1="14.00" y1="7.36" x2="14.00" y2="42.72" stroke="rgb(172,146,237)" stroke-width="1.49" stroke-linecap="butt" stroke-dasharray="7.42,4.57"/><line x1="19.60" y1="7.36" x2="19.60" y2="42.72" stroke="rgb(172,146,237)" stroke-width="1.49" stroke-linecap="butt" stroke-dasharray="7.42,4.57"/><line x1="25.20" y1="7.36" x2="25.20" y2="42.72" stroke="rgb(172,146,237)" stroke-width="1.49" stroke-linecap="butt" stroke-dasharray="7.42,4.57"/><line x1="30.80" y1="7.36" x2="30.80" y2="42.72" stroke="rgb(172,146,237)" stroke-width="1.49" stroke-linecap="butt" stroke-dasharray="7.42,4.57"/></g><rect x="9.60" y="31.89" width="44.80" height="22.51" fill="rgb(67,59,143)" transform="matrix(1,0.5000,-1,0.5000,64.00,61.71)"/></g></svg>