<svg xmlns="http://www.w3.org/2000/svg" version="1.1" width="128" height="128"><g><rect x="8.64" y="8.64" width="46.72" height="46.72" fill="rgba(0,0,0,0.20)" transform="matrix(1,0.5000,-1,0.5000,66.50,62.64)"/><g transform="translate(64.00,69.09) skewY(-26.565)"><rect x="0" y="0" width="40.96" height="43.53" fill="rgb(29,20,44)"/><line x1="8.73" y1="19.04" x2="32.23" y2="19.04" stroke="rgb(192,157,245)" stroke-width="3.05" stroke-linecap="butt"/><line x1="8.73" y1="24.49" x2="32.23" y2="24.49" stroke="rgb(192,157,245)" stroke-width="3.05" stroke-linecap="butt"/><line x1="8.73" y1="29.93" x2="32.23" y2="29.93" stroke="rgb(192,157,245)" stroke-width="3.05" stroke-linecap="butt"/></g><g transform="translate(23.04,48.61) skewY(26.565)"><rect x="0" y="0" width="40.96" height="43.53" fill="rgb(53,37,81)"/><line x1="7.16" y1="19.04" x2="33.80" y2="19.04" stroke="rgb(188,151,237)" stroke-width="1.12" stroke-linecap="butt"/><line x1="7.16" y1="24.49" x2="33.80" y2="24.49" stroke="rgb(188,151,237)" stroke-width="1.12" stroke-linecap="butt"/><line x1="7.16" y1="29.93" x2="33.80" y2="29.93" stroke="rgb(188,151,237)" stroke-width="1.12" stroke-linecap="butt"/><line x1="7.16" y1="35.37" x2="33.80" y2="35.37" stroke="rgb(188,151,237)" stroke-width="1.12" stroke-linecap="butt"/></g><rect x="11.52" y="11.52" width="40.96" height="40.96" fill="rgb(95,70,135)" transform="matrix(1,0.5000,-1,0.5000,64.00,16.61)"/></g></svg>