<svg xmlns="http://www.w3.org/2000/svg" version="1.1" width="128" height="224"><g><rect x="6.72" y="6.72" width="30.12" height="50.56" fill="rgba(0,0,0,0.20)" transform="matrix(1,0.5000,-1,0.5000,66.50,156.72)"/><g transform="translate(43.56,161.08) skewY(-26.565)"><rect x="0" y="0" width="44.80" height="37.32" fill="rgb(19,19,48)"/><line x1="6.99" y1="18.66" x2="37.81" y2="18.66" stroke="rgb(136,125,236)" stroke-width="2.03" stroke-linecap="butt" stroke-dasharray="7.02,4.90"/><line x1="6.99" y1="23.99" x2="37.81" y2="23.99" stroke="rgb(136,125,236)" stroke-width="2.03" stroke-linecap="butt" stroke-dasharray="7.02,4.90"/></g><g transform="translate(19.20,148.90) skewY(26.565)"><rect x="0" y="0" width="24.36" height="37.32" fill="rgb(34,34,87)"/><line x1="4.28" y1="15.55" x2="20.08" y2="15.55" stroke="rgb(198,193,243)" stroke-width="2.64" stroke-linecap="butt" stroke-dasharray="7.90,3.85"/><line x1="4.28" y1="21.77" x2="20.08" y2="21.77" stroke="rgb(198,193,243)" stroke-width="2.64" stroke-linecap="butt" stroke-dasharray="7.90,3.85"/><line x1="4.28" y1="27.99" x2="20.08" y2="27.99" stroke="rgb(198,193,243)" stroke-width="2.64" stroke-linecap="butt" stroke-dasharray="7.90,3.85"/></g><rect x="9.60" y="9.60" width="24.36" height="44.80" fill="rgb(60,59,130)" transform="matrix(1,0.5000,-1,0.5000,64.00,116.90)"/><g transform="translate(43.56,108.48) skewY(-26.565)"><rect x="0" y="0" width="44.80" height="52.60" fill="rgb(19,19,48)"/><line x1="7.66" y1="30.68" x2="37.14" y2="30.68" stroke="rgb(159,152,245)" stroke-width="3.2" stroke-linecap="butt" stroke-dasharray="4.00,5.24"/></g><g transform="translate(19.20,96.30) skewY(26.565)"><rect x="0" y="0" width="24.36" height="52.60" fill="rgb(35,34,87)"/><line x1="2.03" y1="10.18" x2="2.03" y2="42.41" stroke="rgb(203,198,250)" stroke-width="1.5" stroke-linecap="butt" stroke-dasharray="2.64,5.64"/><line x1="6.09" y1="10.18" x2="6.09" y2="42.41" stroke="rgb(203,198,250)" stroke-width="1.5" stroke-linecap="butt" stroke-dasharray="2.64,5.64"/><line x1="10.15" y1="10.18" x2="10.15" y2="42.41" stroke="rgb(203,198,250)" stroke-width="1.5" stroke-linecap="butt" stroke-dasharray="2.64,5.64"/><line x1="14.21" y1="10.18" x2="14.21" y2="42.41" stroke="rgb(203,198,250)" stroke-width="1.5" stroke-linecap="butt" stroke-dasharray="2.64,5.64"/><line x1="18.27" y1="10.18" x2="18.27" y2="42.41" stroke="rgb(203,198,250)" stroke-width="1.5" stroke-linecap="butt" stroke-dasharray="2.64,5.64"/></g><rect x="9.60" y="9.60" width="24.36" height="44.80" fill="rgb(64,62,135)" transform="matrix(1,0.5000,-1,0.5000,64.00,64.30)"/><rect x="34.01" y="6.72" width="23.27" height="50.56" fill="rgba(0,0,0,0.20)" transform="matrix(1,0.5000,-1,0.5000,66.50,156.72)"/><g transform="translate(64.00,162.83) skewY(-26.565)"><rect x="0" y="0" width="44.80" height="45.79" fill="rgb(19,20,48)"/><line x1="26.13" y1="6.42" x2="26.13" y2="39.38" stroke="rgb(212,189,249)" stroke-width="2.34" stroke-linecap="butt" stroke-dasharray="6.52,5.62"/><line x1="33.60" y1="6.42" x2="33.60" y2="39.38" stroke="rgb(212,189,249)" stroke-width="2.34" stroke-linecap="butt" stroke-dasharray="6.52,5.62"/></g><g transform="translate(46.49,154.07) skewY(26.565)"><rect x="0" y="0" width="17.51" height="45.79" fill="rgb(34,37,87)"/><line x1="3.47" y1="11.45" x2="14.03" y2="11.45" stroke="rgb(181,170,237)" stroke-width="2.62" stroke-linecap="butt"/><line x1="3.47" y1="19.08" x2="14.03" y2="19.08" stroke="rgb(181,170,237)" stroke-width="2.62" stroke-linecap="butt"/><line x1="3.47" y1="26.71" x2="14.03" y2="26.71" stroke="rgb(181,170,237)" stroke-width="2.62" stroke-linecap="butt"/><line x1="3.47" y1="34.34" x2="14.03" y2="34.34" stroke="rgb(181,170,237)" stroke-width="2.62" stroke-linecap="butt"/></g><rect x="36.89" y="9.60" width="17.51" height="44.80" fill="rgb(63,67,137)" transform="matrix(1,0.5000,-1,0.5000,64.00,108.43)"/><g transform="translate(64.00,117.96) skewY(-26.565)"><rect x="0" y="0" width="44.80" height="44.87" fill="rgb(20,19,48)"/><line x1="8.40" y1="7.91" x2="8.40" y2="36.96" stroke="rgb(185,180,240)" stroke-width="3.07" stroke-linecap="butt" stroke-dasharray="2.69,4.12"/><line x1="14.00" y1="7.91" x2="14.00" y2="36.96" stroke="rgb(185,180,240)" stroke-width="3.07" stroke-linecap="butt" stroke-dasharray="2.69,4.12"/><line x1="19.60" y1="7.91" x2="19.60" y2="36.96" stroke="rgb(185,180,240)" stroke-width="3.07" stroke-linecap="butt" stroke-dasharray="2.69,4.12"/><line x1="25.20" y1="7.91" x2="25.20" y2="36.96" stroke="rgb(185,180,240)" stroke-width="3.07" stroke-linecap="butt" stroke-dasharray="2.69,4.12"/></g><g transform="translate(46.49,109.20) skewY(26.565)"><rect x="0" y="0" width="17.51" height="44.87" fill="rgb(36,34,87)"/><line x1="1.25" y1="6.82" x2="1.25" y2="38.05" stroke="rgb(163,131,236)" stroke-width="2.02" stroke-linecap="butt"/><line x1="3.75" y1="6.82" x2="3.75" y2="38.05" stroke="rgb(163,131,236)" stroke-width="2.02" stroke-linecap="butt"/><line x1="6.25" y1="6.82" x2="6.25" y2="38.05" stroke="rgb(163,131,236)" stroke-width="2.02" stroke-linecap="butt"/><line x1="8.75" y1="6.82" x2="8.75" y2="38.05" stroke="rgb(163,131,236)" stroke-width="2.02" stroke-linecap="butt"/><line x1="11.26" y1="6.82" x2="11.26" y2="38.05" stroke="rgb(163,131,236)" stroke-width="2.02" stroke-linecap="butt"/><line x1="13.76" y1="6.82" x2="13.76" y2="38.05" stroke="rgb(163,131,236)" stroke-width="2.02" stroke-linecap="butt"/></g><rect x="36.89" y="9.60" width="17.51" height="44.80" fill="rgb(67,64,139)" transform="matrix(1,0.5000,-1,0.5000,64.00,63.56)"/></g></svg>