<svg xmlns="http://www.w3.org/2000/svg" version="1.1" width="128" height="141"><g><rect x="8.64" y="8.64" width="46.72" height="46.72" fill="rgba(0,0,0,0.20)" transform="matrix(1,0.5000,-1,0.5000,66.50,75.64)"/><g transform="translate(64.00,91.37) skewY(-26.565)"><rect x="0" y="0" width="40.96" height="34.25" fill="rgb(26,17,47)"/><line x1="2.56" y1="7.06" x2="2.56" y2="27.19" stroke="rgb(201,140,243)" stroke-width="2.62" stroke-linecap="butt" stroke-dasharray="4.02,1.88"/><line x1="7.68" y1="7.06" x2="7.68" y2="27.19" stroke="rgb(201,140,243)" stroke-width="2.62" stroke-linecap="butt" stroke-dasharray="4.02,1.88"/><line x1="12.80" y1="7.06" x2="12.80" y2="27.19" stroke="rgb(201,140,243)" stroke-width="2.62" stroke-linecap="butt" stroke-dasharray="4.02,1.88"/><line x1="17.92" y1="7.06" x2="17.92" y2="27.19" stroke="rgb(201,140,243)" stroke-width="2.62" stroke-linecap="butt" stroke-dasharray="4.02,1.88"/><line x1="23.04" y1="7.06" x2="23.04" y2="27.19" stroke="rgb(201,140,243)" stroke-width="2.62" stroke-linecap="butt" stroke-dasharray="4.02,1.88"/><line x1="28.16" y1="7.06" x2="28.16" y2="27.19" stroke="rgb(201,140,243)" stroke-width="2.62" stroke-linecap="butt" stroke-dasharray="4.02,1.88"/><line x1="33.28" y1="7.06" x2="33.28" y2="27.19" stroke="rgb(201,140,243)" stroke-width="2.62" stroke-linecap="butt" stroke-dasharray="4.02,1.88"/></g><g transform="translate(23.04,70.89) skewY(26.565)"><rect x="0" y="0" width="40.96" height="34.25" fill="rgb(48,31,86)"/><line x1="6.85" y1="2.14" x2="34.11" y2="2.14" stroke="rgb(166,121,244)" stroke-width="1.77" stroke-linecap="butt"/><line x1="6.85" y1="6.42" x2="34.11" y2="6.42" stroke="rgb(166,121,244)" stroke-width="1.77" stroke-linecap="butt"/><line x1="6.85" y1="10.70" x2="34.11" y2="10.70" stroke="rgb(166,121,244)" stroke-width="1.77" stroke-linecap="butt"/><line x1="6.85" y1="14.98" x2="34.11" y2="14.98" stroke="rgb(166,121,244)" stroke-width="1.77" stroke-linecap="butt"/><line x1="6.85" y1="19.26" x2="34.11" y2="19.26" stroke="rgb(166,121,244)" stroke-width="1.77" stroke-linecap="butt"/><line x1="6.85" y1="23.54" x2="34.11" y2="23.54" stroke="rgb(166,121,244)" stroke-width="1.77" stroke-linecap="butt"/><line x1="6.85" y1="27.82" x2="34.11" y2="27.82" stroke="rgb(166,121,244)" stroke-width="1.77" stroke-linecap="butt"/></g><rect x="11.52" y="11.52" width="40.96" height="40.96" fill="rgb(81,57,133)" transform="matrix(1,0.5000,-1,0.5000,64.00,38.89)"/><g transform="translate(64.00,47.63) skewY(-26.565)"><rect x="0" y="0" width="40.96" height="43.74" fill="rgb(24,17,47)"/><line x1="23.89" y1="9.28" x2="23.89" y2="34.46" stroke="rgb(185,131,239)" stroke-width="2.31" stroke-linecap="butt"/></g><g transform="translate(23.04,27.15) skewY(26.565)"><rect x="0" y="0" width="40.96" height="43.74" fill="rgb(43,31,86)"/><line x1="3.41" y1="8.79" x2="3.41" y2="34.95" stroke="rgb(214,195,242)" stroke-width="1.47" stroke-linecap="butt" stroke-dasharray="7.50,2.92"/><line x1="10.24" y1="8.79" x2="10.24" y2="34.95" stroke="rgb(214,195,242)" stroke-width="1.47" stroke-linecap="butt" stroke-dasharray="7.50,2.92"/><line x1="17.07" y1="8.79" x2="17.07" y2="34.95" stroke="rgb(214,195,242)" stroke-width="1.47" stroke-linecap="butt" stroke-dasharray="7.50,2.92"/></g><rect x="11.52" y="11.52" width="40.96" height="40.96" fill="rgb(76,59,137)" transform="matrix(1,0.5000,-1,0.5000,64.00,-4.85)"/><g transform="translate(72.53,20.44) skewY(-26.565)"><rect x="0" y="0" width="7.75" height="11.29" fill="rgb(23,19,34)"/></g><g transform="translate(64.78,16.56) skewY(26.565)"><rect x="0" y="0" width="7.75" height="11.29" fill="rgb(35,29,53)"/></g><rect x="33.09" y="24.56" width="7.75" height="7.75" fill="rgb(45,38,68)" transform="matrix(1,0.5000,-1,0.5000,64.00,-16.14)"/></g></svg>