<svg xmlns="http://www.w3.org/2000/svg" version="1.1" width="128" height="288"><g><rect x="3.52" y="3.52" width="25.04" height="40.18" fill="rgba(0,0,0,0.20)" transform="matrix(1,0.5000,-1,0.5000,66.50,217.52)"/><g transform="translate(48.86,186.96) skewY(-26.565)"><rect x="0" y="0" width="34.42" height="61.31" fill="rgb(23,20,52)"/><line x1="8.06" y1="21.90" x2="26.36" y2="21.90" stroke="rgb(191,187,240)" stroke-width="2.97" stroke-linecap="butt" stroke-dasharray="3.69,4.22"/><line x1="8.06" y1="30.66" x2="26.36" y2="30.66" stroke="rgb(191,187,240)" stroke-width="2.97" stroke-linecap="butt" stroke-dasharray="3.69,4.22"/></g><g transform="translate(29.58,177.32) skewY(26.565)"><rect x="0" y="0" width="19.28" height="61.31" fill="rgb(42,37,94)"/><line x1="4.26" y1="15.33" x2="15.03" y2="15.33" stroke="rgb(174,135,244)" stroke-width="2.86" stroke-linecap="butt" stroke-dasharray="6.13,5.37"/><line x1="4.26" y1="25.55" x2="15.03" y2="25.55" stroke="rgb(174,135,244)" stroke-width="2.86" stroke-linecap="butt" stroke-dasharray="6.13,5.37"/><line x1="4.26" y1="35.77" x2="15.03" y2="35.77" stroke="rgb(174,135,244)" stroke-width="2.86" stroke-linecap="butt" stroke-dasharray="6.13,5.37"/><line x1="4.26" y1="45.98" x2="15.03" y2="45.98" stroke="rgb(174,135,244)" stroke-width="2.86" stroke-linecap="butt" stroke-dasharray="6.13,5.37"/></g><rect x="6.40" y="6.40" width="19.28" height="34.42" fill="rgb(73,67,145)" transform="matrix(1,0.5000,-1,0.5000,64.00,153.71)"/><g transform="translate(51.89,119.88) skewY(-26.565)"><rect x="0" y="0" width="20.65" height="61.71" fill="rgb(23,20,52)"/><line x1="3.87" y1="11.11" x2="3.87" y2="50.60" stroke="rgb(200,196,247)" stroke-width="1.94" stroke-linecap="butt"/><line x1="6.45" y1="11.11" x2="6.45" y2="50.60" stroke="rgb(200,196,247)" stroke-width="1.94" stroke-linecap="butt"/><line x1="9.03" y1="11.11" x2="9.03" y2="50.60" stroke="rgb(200,196,247)" stroke-width="1.94" stroke-linecap="butt"/><line x1="11.62" y1="11.11" x2="11.62" y2="50.60" stroke="rgb(200,196,247)" stroke-width="1.94" stroke-linecap="butt"/></g><g transform="translate(40.32,114.09) skewY(26.565)"><rect x="0" y="0" width="11.57" height="61.71" fill="rgb(41,37,94)"/><line x1="1.77" y1="25.71" x2="9.80" y2="25.71" stroke="rgb(179,158,232)" stroke-width="3.02" stroke-linecap="butt" stroke-dasharray="4.02,4.73"/><line x1="1.77" y1="36.00" x2="9.80" y2="36.00" stroke="rgb(179,158,232)" stroke-width="3.02" stroke-linecap="butt" stroke-dasharray="4.02,4.73"/><line x1="1.77" y1="46.28" x2="9.80" y2="46.28" stroke="rgb(179,158,232)" stroke-width="3.02" stroke-linecap="butt" stroke-dasharray="4.02,4.73"/></g><rect x="10.26" y="13.28" width="11.57" height="20.65" fill="rgb(72,67,145)" transform="matrix(1,0.5000,-1,0.5000,64.00,92.00)"/><g transform="translate(51.89,50.66) skewY(-26.565)"><rect x="0" y="0" width="20.65" height="69.22" fill="rgb(24,20,52)"/><line x1="9.03" y1="13.42" x2="9.03" y2="55.80" stroke="rgb(128,121,240)" stroke-width="2.5" stroke-linecap="butt" stroke-dasharray="7.93,5.19"/><line x1="11.62" y1="13.42" x2="11.62" y2="55.80" stroke="rgb(128,121,240)" stroke-width="2.5" stroke-linecap="butt" stroke-dasharray="7.93,5.19"/></g><g transform="translate(40.32,44.88) skewY(26.565)"><rect x="0" y="0" width="11.57" height="69.22" fill="rgb(43,37,94)"/><line x1="2.52" y1="21.63" x2="9.05" y2="21.63" stroke="rgb(150,144,247)" stroke-width="1.6" stroke-linecap="butt" stroke-dasharray="5.10,4.76"/><line x1="2.52" y1="30.28" x2="9.05" y2="30.28" stroke="rgb(150,144,247)" stroke-width="1.6" stroke-linecap="butt" stroke-dasharray="5.10,4.76"/><line x1="2.52" y1="38.93" x2="9.05" y2="38.93" stroke="rgb(150,144,247)" stroke-width="1.6" stroke-linecap="butt" stroke-dasharray="5.10,4.76"/><line x1="2.52" y1="47.59" x2="9.05" y2="47.59" stroke="rgb(150,144,247)" stroke-width="1.6" stroke-linecap="butt" stroke-dasharray="5.10,4.76"/><line x1="2.52" y1="56.24" x2="9.05" y2="56.24" stroke="rgb(150,144,247)" stroke-width="1.6" stroke-linecap="butt" stroke-dasharray="5.10,4.76"/></g><rect x="10.26" y="13.28" width="11.57" height="20.65" fill="rgb(80,71,154)" transform="matrix(1,0.5000,-1,0.5000,64.00,22.78)"/><line x1="56.43" y1="42.61" x2="56.43" y2="21.05" stroke="#bbb" stroke-width="1.4" stroke-linecap="round"/><circle cx="56.43" cy="21.05" r="1.7" fill="#fff"/><rect x="26.62" y="3.52" width="33.86" height="40.18" fill="rgba(0,0,0,0.20)" transform="matrix(1,0.5000,-1,0.5000,66.50,217.52)"/><g transform="translate(80.78,187.74) skewY(-26.565)"><rect x="0" y="0" width="34.42" height="76.49" fill="rgb(23,20,52)"/><line x1="5.05" y1="6.37" x2="29.37" y2="6.37" stroke="rgb(181,166,233)" stroke-width="2.03" stroke-linecap="butt"/><line x1="5.05" y1="19.12" x2="29.37" y2="19.12" stroke="rgb(181,166,233)" stroke-width="2.03" stroke-linecap="butt"/><line x1="5.05" y1="31.87" x2="29.37" y2="31.87" stroke="rgb(181,166,233)" stroke-width="2.03" stroke-linecap="butt"/><line x1="5.05" y1="44.62" x2="29.37" y2="44.62" stroke="rgb(181,166,233)" stroke-width="2.03" stroke-linecap="butt"/><line x1="5.05" y1="57.37" x2="29.37" y2="57.37" stroke="rgb(181,166,233)" stroke-width="2.03" stroke-linecap="butt"/><line x1="5.05" y1="70.11" x2="29.37" y2="70.11" stroke="rgb(181,166,233)" stroke-width="2.03" stroke-linecap="butt"/></g><g transform="translate(52.68,173.69) skewY(26.565)"><rect x="0" y="0" width="28.10" height="76.49" fill="rgb(42,37,94)"/><line x1="11.71" y1="15.33" x2="11.71" y2="61.16" stroke="rgb(192,176,243)" stroke-width="3.14" stroke-linecap="butt"/></g><rect x="29.50" y="6.40" width="28.10" height="34.42" fill="rgb(71,64,138)" transform="matrix(1,0.5000,-1,0.5000,64.00,138.53)"/><g transform="translate(80.78,106.83) skewY(-26.565)"><rect x="0" y="0" width="27.23" height="77.31" fill="rgb(23,20,52)"/><line x1="6.81" y1="13.70" x2="6.81" y2="63.62" stroke="rgb(170,138,233)" stroke-width="2.98" stroke-linecap="butt" stroke-dasharray="5.47,1.96"/><line x1="11.35" y1="13.70" x2="11.35" y2="63.62" stroke="rgb(170,138,233)" stroke-width="2.98" stroke-linecap="butt" stroke-dasharray="5.47,1.96"/><line x1="15.88" y1="13.70" x2="15.88" y2="63.62" stroke="rgb(170,138,233)" stroke-width="2.98" stroke-linecap="butt" stroke-dasharray="5.47,1.96"/><line x1="20.42" y1="13.70" x2="20.42" y2="63.62" stroke="rgb(170,138,233)" stroke-width="2.98" stroke-linecap="butt" stroke-dasharray="5.47,1.96"/></g><g transform="translate(59.87,96.38) skewY(26.565)"><rect x="0" y="0" width="20.91" height="77.31" fill="rgb(42,37,94)"/><line x1="7.47" y1="11.30" x2="7.47" y2="66.02" stroke="rgb(210,193,248)" stroke-width="2.42" stroke-linecap="butt"/><line x1="10.46" y1="11.30" x2="10.46" y2="66.02" stroke="rgb(210,193,248)" stroke-width="2.42" stroke-linecap="butt"/><line x1="13.44" y1="11.30" x2="13.44" y2="66.02" stroke="rgb(210,193,248)" stroke-width="2.42" stroke-linecap="butt"/><line x1="16.43" y1="11.30" x2="16.43" y2="66.02" stroke="rgb(210,193,248)" stroke-width="2.42" stroke-linecap="butt"/><line x1="19.42" y1="11.30" x2="19.42" y2="66.02" stroke="rgb(210,193,248)" stroke-width="2.42" stroke-linecap="butt"/></g><rect x="33.09" y="9.99" width="20.91" height="27.23" fill="rgb(71,64,140)" transform="matrix(1,0.5000,-1,0.5000,64.00,61.22)"/><rect x="3.52" y="40.78" width="56.96" height="19.70" fill="rgba(0,0,0,0.20)" transform="matrix(1,0.5000,-1,0.5000,66.50,217.52)"/><g transform="translate(64.00,199.52) skewY(-26.565)"><rect x="0" y="0" width="13.94" height="73.10" fill="rgb(23,20,52)"/><line x1="4.98" y1="12.19" x2="4.98" y2="60.91" stroke="rgb(200,188,242)" stroke-width="2.49" stroke-linecap="butt" stroke-dasharray="7.77,5.27"/><line x1="6.97" y1="12.19" x2="6.97" y2="60.91" stroke="rgb(200,188,242)" stroke-width="2.49" stroke-linecap="butt" stroke-dasharray="7.77,5.27"/><line x1="8.96" y1="12.19" x2="8.96" y2="60.91" stroke="rgb(200,188,242)" stroke-width="2.49" stroke-linecap="butt" stroke-dasharray="7.77,5.27"/></g><g transform="translate(12.80,173.92) skewY(26.565)"><rect x="0" y="0" width="51.20" height="73.10" fill="rgb(41,37,94)"/><line x1="18.29" y1="16.32" x2="18.29" y2="56.78" stroke="rgb(175,153,229)" stroke-width="1.39" stroke-linecap="butt" stroke-dasharray="7.88,2.76"/><line x1="25.60" y1="16.32" x2="25.60" y2="56.78" stroke="rgb(175,153,229)" stroke-width="1.39" stroke-linecap="butt" stroke-dasharray="7.88,2.76"/><line x1="32.91" y1="16.32" x2="32.91" y2="56.78" stroke="rgb(175,153,229)" stroke-width="1.39" stroke-linecap="butt" stroke-dasharray="7.88,2.76"/><line x1="40.23" y1="16.32" x2="40.23" y2="56.78" stroke="rgb(175,153,229)" stroke-width="1.39" stroke-linecap="butt" stroke-dasharray="7.88,2.76"/></g><rect x="6.40" y="43.66" width="51.20" height="13.94" fill="rgb(77,72,155)" transform="matrix(1,0.5000,-1,0.5000,64.00,141.92)"/><g transform="translate(64.00,121.62) skewY(-26.565)"><rect x="0" y="0" width="13.94" height="77.90" fill="rgb(22,20,52)"/><line x1="3.24" y1="4.87" x2="10.70" y2="4.87" stroke="rgb(197,193,239)" stroke-width="1.85" stroke-linecap="butt"/><line x1="3.24" y1="14.61" x2="10.70" y2="14.61" stroke="rgb(197,193,239)" stroke-width="1.85" stroke-linecap="butt"/><line x1="3.24" y1="24.34" x2="10.70" y2="24.34" stroke="rgb(197,193,239)" stroke-width="1.85" stroke-linecap="butt"/><line x1="3.24" y1="34.08" x2="10.70" y2="34.08" stroke="rgb(197,193,239)" stroke-width="1.85" stroke-linecap="butt"/><line x1="3.24" y1="43.82" x2="10.70" y2="43.82" stroke="rgb(197,193,239)" stroke-width="1.85" stroke-linecap="butt"/><line x1="3.24" y1="53.56" x2="10.70" y2="53.56" stroke="rgb(197,193,239)" stroke-width="1.85" stroke-linecap="butt"/><line x1="3.24" y1="63.29" x2="10.70" y2="63.29" stroke="rgb(197,193,239)" stroke-width="1.85" stroke-linecap="butt"/></g><g transform="translate(12.80,96.02) skewY(26.565)"><rect x="0" y="0" width="51.20" height="77.90" fill="rgb(40,37,94)"/><line x1="21.33" y1="11.18" x2="21.33" y2="66.72" stroke="rgb(182,177,236)" stroke-width="2.42" stroke-linecap="butt" stroke-dasharray="5.20,5.39"/><line x1="29.87" y1="11.18" x2="29.87" y2="66.72" stroke="rgb(182,177,236)" stroke-width="2.42" stroke-linecap="butt" stroke-dasharray="5.20,5.39"/><line x1="38.40" y1="11.18" x2="38.40" y2="66.72" stroke="rgb(182,177,236)" stroke-width="2.42" stroke-linecap="butt" stroke-dasharray="5.20,5.39"/><line x1="46.93" y1="11.18" x2="46.93" y2="66.72" stroke="rgb(182,177,236)" stroke-width="2.42" stroke-linecap="butt" stroke-dasharray="5.20,5.39"/></g><rect x="6.40" y="43.66" width="51.20" height="13.94" fill="rgb(73,69,148)" transform="matrix(1,0.5000,-1,0.5000,64.00,64.02)"/><g transform="translate(64.00,42.54) skewY(-26.565)"><rect x="0" y="0" width="13.94" height="79.07" fill="rgb(25,20,52)"/><line x1="6.97" y1="11.15" x2="6.97" y2="67.93" stroke="rgb(203,198,239)" stroke-width="2.84" stroke-linecap="butt" stroke-dasharray="4.94,5.77"/><line x1="8.96" y1="11.15" x2="8.96" y2="67.93" stroke="rgb(203,198,239)" stroke-width="2.84" stroke-linecap="butt" stroke-dasharray="4.94,5.77"/><line x1="10.95" y1="11.15" x2="10.95" y2="67.93" stroke="rgb(203,198,239)" stroke-width="2.84" stroke-linecap="butt" stroke-dasharray="4.94,5.77"/><line x1="12.94" y1="11.15" x2="12.94" y2="67.93" stroke="rgb(203,198,239)" stroke-width="2.84" stroke-linecap="butt" stroke-dasharray="4.94,5.77"/></g><g transform="translate(12.80,16.94) skewY(26.565)"><rect x="0" y="0" width="51.20" height="79.07" fill="rgb(45,37,94)"/><line x1="9.60" y1="14.50" x2="9.60" y2="64.57" stroke="rgb(189,177,250)" stroke-width="1.74" stroke-linecap="butt" stroke-dasharray="6.15,2.92"/><line x1="16.00" y1="14.50" x2="16.00" y2="64.57" stroke="rgb(189,177,250)" stroke-width="1.74" stroke-linecap="butt" stroke-dasharray="6.15,2.92"/><line x1="22.40" y1="14.50" x2="22.40" y2="64.57" stroke="rgb(189,177,250)" stroke-width="1.74" stroke-linecap="butt" stroke-dasharray="6.15,2.92"/><line x1="28.80" y1="14.50" x2="28.80" y2="64.57" stroke="rgb(189,177,250)" stroke-width="1.74" stroke-linecap="butt" stroke-dasharray="6.15,2.92"/><line x1="35.20" y1="14.50" x2="35.20" y2="64.57" stroke="rgb(189,177,250)" stroke-width="1.74" stroke-linecap="butt" stroke-dasharray="6.15,2.92"/><line x1="41.60" y1="14.50" x2="41.60" y2="64.57" stroke="rgb(189,177,250)" stroke-width="1.74" stroke-linecap="butt" stroke-dasharray="6.15,2.92"/></g><rect x="6.40" y="43.66" width="51.20" height="13.94" fill="rgb(73,63,137)" transform="matrix(1,0.5000,-1,0.5000,64.00,-15.06)"/><line x1="45.37" y1="26.26" x2="45.37" y2="11.62" stroke="#bbb" stroke-width="1.4" stroke-linecap="round"/><circle cx="45.37" cy="11.62" r="1.7" fill="#fff"/></g></svg>