<svg xmlns="http://www.w3.org/2000/svg" xmlns:xlink="http://www.w3.org/1999/xlink" version="1.1" width="128" height="288"><defs/><g><path d="M66,234.96 L114.64,259.28 L66,283.6 L17.36,259.28 Z" fill="rgb(0,0,0)" fill-opacity="0.2"/><path d="M112.64,257.28 L64,281.6 L64,152.8 L112.64,128.48 Z" fill="#9d8de0"/><path d="M112.64,257.28 L64,281.6 L64,152.8 L112.64,128.48 Z" fill="none" stroke="rgb(12,0,40)" stroke-opacity="0.32" stroke-width="1"/><path d="M15.36,257.28 L64,281.6 L64,152.8 L15.36,128.48 Z" fill="#5c4d99"/><path d="M15.36,257.28 L64,281.6 L64,152.8 L15.36,128.48 Z" fill="none" stroke="rgb(12,0,40)" stroke-opacity="0.32" stroke-width="1"/><path d="M64,104.16 L112.64,128.48 L64,152.8 L15.36,128.48 Z" fill="#d8d2f7"/><path d="M64,104.16 L112.64,128.48 L64,152.8 L15.36,128.48 Z" fill="none" stroke="rgb(12,0,40)" stroke-opacity="0.32" stroke-width="1"/><path d="M109.4,135.25 L99.67,140.12 L99.67,155.57 L109.4,150.71 Z" fill="#c9a8ff"/><path d="M93.18,143.36 L83.46,148.22 L83.46,163.68 L93.18,158.82 Z" fill="#c9a8ff"/><path d="M76.97,151.47 L67.24,156.33 L67.24,171.79 L76.97,166.92 Z" fill="#c9a8ff"/><path d="M109.4,161.01 L99.67,165.88 L99.67,181.33 L109.4,176.47 Z" fill="#c9a8ff"/><path d="M93.18,169.12 L83.46,173.98 L83.46,189.44 L93.18,184.58 Z" fill="#c9a8ff"/><path d="M76.97,177.23 L67.24,182.09 L67.24,197.55 L76.97,192.68 Z" fill="#c9a8ff"/><path d="M109.4,186.77 L99.67,191.64 L99.67,207.09 L109.4,202.23 Z" fill="#c9a8ff"/><path d="M93.18,194.88 L83.46,199.74 L83.46,215.2 L93.18,210.34 Z" fill="#c9a8ff"/><path d="M76.97,202.99 L67.24,207.85 L67.24,223.31 L76.97,218.44 Z" fill="#c9a8ff"/><path d="M109.4,212.53 L99.67,217.4 L99.67,232.85 L109.4,227.99 Z" fill="#c9a8ff"/><path d="M93.18,220.64 L83.46,225.5 L83.46,240.96 L93.18,236.1 Z" fill="#c9a8ff"/><path d="M76.97,228.75 L67.24,233.61 L67.24,249.07 L76.97,244.2 Z" fill="#c9a8ff"/><path d="M109.4,238.29 L99.67,243.16 L99.67,258.61 L109.4,253.75 Z" fill="#c9a8ff"/><path d="M93.18,246.4 L83.46,251.26 L83.46,266.72 L93.18,261.86 Z" fill="#c9a8ff"/><path d="M76.97,254.51 L67.24,259.37 L67.24,274.83 L76.97,269.96 Z" fill="#c9a8ff"/><path d="M18.6,135.25 L28.33,140.12 L28.33,155.57 L18.6,150.71 Z" fill="#c9a8ff"/><path d="M34.82,143.36 L44.54,148.22 L44.54,163.68 L34.82,158.82 Z" fill="#c9a8ff"/><path d="M51.03,151.47 L60.76,156.33 L60.76,171.79 L51.03,166.92 Z" fill="#c9a8ff"/><path d="M18.6,161.01 L28.33,165.88 L28.33,181.33 L18.6,176.47 Z" fill="#c9a8ff"/><path d="M34.82,169.12 L44.54,173.98 L44.54,189.44 L34.82,184.58 Z" fill="#c9a8ff"/><path d="M51.03,177.23 L60.76,182.09 L60.76,197.55 L51.03,192.68 Z" fill="#c9a8ff"/><path d="M18.6,186.77 L28.33,191.64 L28.33,207.09 L18.6,202.23 Z" fill="#c9a8ff"/><path d="M34.82,194.88 L44.54,199.74 L44.54,215.2 L34.82,210.34 Z" fill="#c9a8ff"/><path d="M51.03,202.99 L60.76,207.85 L60.76,223.31 L51.03,218.44 Z" fill="#c9a8ff"/><path d="M18.6,212.53 L28.33,217.4 L28.33,232.85 L18.6,227.99 Z" fill="#c9a8ff"/><path d="M34.82,220.64 L44.54,225.5 L44.54,240.96 L34.82,236.1 Z" fill="#c9a8ff"/><path d="M51.03,228.75 L60.76,233.61 L60.76,249.07 L51.03,244.2 Z" fill="#c9a8ff"/><path d="M18.6,238.29 L28.33,243.16 L28.33,258.61 L18.6,253.75 Z" fill="#c9a8ff"/><path d="M34.82,246.4 L44.54,251.26 L44.54,266.72 L34.82,261.86 Z" fill="#c9a8ff"/><path d="M51.03,254.51 L60.76,259.37 L60.76,274.83 L51.03,269.96 Z" fill="#c9a8ff"/><path d="M99.84,128.48 L64,146.4 L64,113.28 L99.84,95.36 Z" fill="#9d8de0"/><path d="M99.84,128.48 L64,146.4 L64,113.28 L99.84,95.36 Z" fill="none" stroke="rgb(12,0,40)" stroke-opacity="0.32" stroke-width="1"/><path d="M28.16,128.48 L64,146.4 L64,113.28 L28.16,95.36 Z" fill="#5c4d99"/><path d="M28.16,128.48 L64,146.4 L64,113.28 L28.16,95.36 Z" fill="none" stroke="rgb(12,0,40)" stroke-opacity="0.32" stroke-width="1"/><path d="M64,77.44 L99.84,95.36 L64,113.28 L28.16,95.36 Z" fill="#d8d2f7"/><path d="M64,77.44 L99.84,95.36 L64,113.28 L28.16,95.36 Z" fill="none" stroke="rgb(12,0,40)" stroke-opacity="0.32" stroke-width="1"/><path d="M96.26,103.78 L85.5,109.15 L85.5,129.02 L96.26,123.65 Z" fill="#c9a8ff"/><path d="M78.34,112.74 L67.58,118.11 L67.58,137.98 L78.34,132.61 Z" fill="#c9a8ff"/><path d="M31.74,103.78 L42.5,109.15 L42.5,129.02 L31.74,123.65 Z" fill="#c9a8ff"/><path d="M49.66,112.74 L60.42,118.11 L60.42,137.98 L49.66,132.61 Z" fill="#c9a8ff"/><path d="M87.04,95.36 L64,106.88 L64,84.8 L87.04,73.28 Z" fill="#9d8de0"/><path d="M87.04,95.36 L64,106.88 L64,84.8 L87.04,73.28 Z" fill="none" stroke="rgb(12,0,40)" stroke-opacity="0.32" stroke-width="1"/><path d="M40.96,95.36 L64,106.88 L64,84.8 L40.96,73.28 Z" fill="#5c4d99"/><path d="M40.96,95.36 L64,106.88 L64,84.8 L40.96,73.28 Z" fill="none" stroke="rgb(12,0,40)" stroke-opacity="0.32" stroke-width="1"/><path d="M64,61.76 L87.04,73.28 L64,84.8 L40.96,73.28 Z" fill="#d8d2f7"/><path d="M64,61.76 L87.04,73.28 L64,84.8 L40.96,73.28 Z" fill="none" stroke="rgb(12,0,40)" stroke-opacity="0.32" stroke-width="1"/><path d="M64,72 L64,48" fill="none" stroke="#bbb" stroke-width="2"/><circle cx="64" cy="48" r="3.2" fill="#ff5b3b"/><path d="" fill="#ff5b3b"/></g></svg>