<svg xmlns="http://www.w3.org/2000/svg" version="1.1" width="128" height="288"><g><rect x="3.52" y="3.52" width="56.96" height="56.96" fill="rgba(0,0,0,0.20)" transform="matrix(1,0.5000,-1,0.5000,66.50,217.52)"/><g transform="translate(64.00,209.85) skewY(-26.565)"><rect x="0" y="0" width="51.20" height="62.77" fill="rgb(29,24,49)"/><line x1="8.38" y1="3.92" x2="42.82" y2="3.92" stroke="rgb(180,158,244)" stroke-width="2.51" stroke-linecap="butt"/><line x1="8.38" y1="11.77" x2="42.82" y2="11.77" stroke="rgb(180,158,244)" stroke-width="2.51" stroke-linecap="butt"/><line x1="8.38" y1="19.61" x2="42.82" y2="19.61" stroke="rgb(180,158,244)" stroke-width="2.51" stroke-linecap="butt"/><line x1="8.38" y1="27.46" x2="42.82" y2="27.46" stroke="rgb(180,158,244)" stroke-width="2.51" stroke-linecap="butt"/><line x1="8.38" y1="35.31" x2="42.82" y2="35.31" stroke="rgb(180,158,244)" stroke-width="2.51" stroke-linecap="butt"/><line x1="8.38" y1="43.15" x2="42.82" y2="43.15" stroke="rgb(180,158,244)" stroke-width="2.51" stroke-linecap="butt"/></g><g transform="translate(12.80,184.25) skewY(26.565)"><rect x="0" y="0" width="51.20" height="62.77" fill="rgb(53,43,88)"/><line x1="10.97" y1="12.34" x2="10.97" y2="50.43" stroke="rgb(189,150,236)" stroke-width="2.43" stroke-linecap="butt" stroke-dasharray="6.13,1.98"/><line x1="18.29" y1="12.34" x2="18.29" y2="50.43" stroke="rgb(189,150,236)" stroke-width="2.43" stroke-linecap="butt" stroke-dasharray="6.13,1.98"/><line x1="25.60" y1="12.34" x2="25.60" y2="50.43" stroke="rgb(189,150,236)" stroke-width="2.43" stroke-linecap="butt" stroke-dasharray="6.13,1.98"/><line x1="32.91" y1="12.34" x2="32.91" y2="50.43" stroke="rgb(189,150,236)" stroke-width="2.43" stroke-linecap="butt" stroke-dasharray="6.13,1.98"/><line x1="40.23" y1="12.34" x2="40.23" y2="50.43" stroke="rgb(189,150,236)" stroke-width="2.43" stroke-linecap="butt" stroke-dasharray="6.13,1.98"/><line x1="47.54" y1="12.34" x2="47.54" y2="50.43" stroke="rgb(189,150,236)" stroke-width="2.43" stroke-linecap="butt" stroke-dasharray="6.13,1.98"/></g><rect x="6.40" y="6.40" width="51.20" height="51.20" fill="rgb(91,78,141)" transform="matrix(1,0.5000,-1,0.5000,64.00,152.25)"/><g transform="translate(64.00,156.68) skewY(-26.565)"><rect x="0" y="0" width="36.83" height="45.99" fill="rgb(31,24,49)"/><line x1="9.21" y1="7.35" x2="9.21" y2="38.65" stroke="rgb(181,136,244)" stroke-width="3.04" stroke-linecap="butt" stroke-dasharray="4.64,2.55"/><line x1="15.35" y1="7.35" x2="15.35" y2="38.65" stroke="rgb(181,136,244)" stroke-width="3.04" stroke-linecap="butt" stroke-dasharray="4.64,2.55"/><line x1="21.48" y1="7.35" x2="21.48" y2="38.65" stroke="rgb(181,136,244)" stroke-width="3.04" stroke-linecap="butt" stroke-dasharray="4.64,2.55"/></g><g transform="translate(27.17,138.26) skewY(26.565)"><rect x="0" y="0" width="36.83" height="45.99" fill="rgb(57,43,88)"/><line x1="15.35" y1="9.02" x2="15.35" y2="36.98" stroke="rgb(203,164,247)" stroke-width="1.27" stroke-linecap="butt" stroke-dasharray="7.16,5.60"/><line x1="21.48" y1="9.02" x2="21.48" y2="36.98" stroke="rgb(203,164,247)" stroke-width="1.27" stroke-linecap="butt" stroke-dasharray="7.16,5.60"/><line x1="27.62" y1="9.02" x2="27.62" y2="36.98" stroke="rgb(203,164,247)" stroke-width="1.27" stroke-linecap="butt" stroke-dasharray="7.16,5.60"/><line x1="33.76" y1="9.02" x2="33.76" y2="36.98" stroke="rgb(203,164,247)" stroke-width="1.27" stroke-linecap="butt" stroke-dasharray="7.16,5.60"/></g><rect x="13.59" y="13.59" width="36.83" height="36.83" fill="rgb(92,74,134)" transform="matrix(1,0.5000,-1,0.5000,64.00,106.26)"/><line x1="64.00" y1="138.26" x2="64.00" y2="127.06" stroke="#bbb" stroke-width="1.4" stroke-linecap="round"/><circle cx="64.00" cy="127.06" r="1.7" fill="#fff"/><g transform="translate(65.87,135.71) skewY(-26.565)"><rect x="0" y="0" width="7.73" height="10.43" fill="rgb(27,24,36)"/></g><g transform="translate(58.14,131.84) skewY(26.565)"><rect x="0" y="0" width="7.73" height="10.43" fill="rgb(41,37,55)"/></g><rect x="33.08" y="31.21" width="7.73" height="7.73" fill="rgb(53,47,71)" transform="matrix(1,0.5000,-1,0.5000,64.00,95.83)"/></g></svg>