<svg xmlns="http://www.w3.org/2000/svg" version="1.1" width="128" height="128"><g><rect x="8.64" y="8.64" width="32.02" height="22.96" fill="rgba(0,0,0,0.20)" transform="matrix(1,0.5000,-1,0.5000,66.50,62.64)"/><g transform="translate(73.06,58.59) skewY(-26.565)"><rect x="0" y="0" width="17.20" height="34.80" fill="rgb(29,25,47)"/><line x1="3.25" y1="2.90" x2="13.95" y2="2.90" stroke="rgb(183,149,226)" stroke-width="2" stroke-linecap="butt"/><line x1="3.25" y1="8.70" x2="13.95" y2="8.70" stroke="rgb(183,149,226)" stroke-width="2" stroke-linecap="butt"/><line x1="3.25" y1="14.50" x2="13.95" y2="14.50" stroke="rgb(183,149,226)" stroke-width="2" stroke-linecap="butt"/><line x1="3.25" y1="20.30" x2="13.95" y2="20.30" stroke="rgb(183,149,226)" stroke-width="2" stroke-linecap="butt"/><line x1="3.25" y1="26.10" x2="13.95" y2="26.10" stroke="rgb(183,149,226)" stroke-width="2" stroke-linecap="butt"/></g><g transform="translate(46.80,45.46) skewY(26.565)"><rect x="0" y="0" width="26.26" height="34.80" fill="rgb(53,46,85)"/><line x1="1.88" y1="5.90" x2="1.88" y2="28.90" stroke="rgb(199,133,242)" stroke-width="2.05" stroke-linecap="butt" stroke-dasharray="7.12,5.78"/><line x1="5.63" y1="5.90" x2="5.63" y2="28.90" stroke="rgb(199,133,242)" stroke-width="2.05" stroke-linecap="butt" stroke-dasharray="7.12,5.78"/><line x1="9.38" y1="5.90" x2="9.38" y2="28.90" stroke="rgb(199,133,242)" stroke-width="2.05" stroke-linecap="butt" stroke-dasharray="7.12,5.78"/><line x1="13.13" y1="5.90" x2="13.13" y2="28.90" stroke="rgb(199,133,242)" stroke-width="2.05" stroke-linecap="butt" stroke-dasharray="7.12,5.78"/><line x1="16.88" y1="5.90" x2="16.88" y2="28.90" stroke="rgb(199,133,242)" stroke-width="2.05" stroke-linecap="butt" stroke-dasharray="7.12,5.78"/></g><rect x="11.52" y="11.52" width="26.26" height="17.20" fill="rgb(88,78,132)" transform="matrix(1,0.5000,-1,0.5000,64.00,25.34)"/><rect x="8.64" y="30.94" width="32.02" height="24.42" fill="rgba(0,0,0,0.20)" transform="matrix(1,0.5000,-1,0.5000,66.50,62.64)"/><g transform="translate(49.30,73.45) skewY(-26.565)"><rect x="0" y="0" width="18.66" height="31.82" fill="rgb(30,25,47)"/><line x1="1.55" y1="6.29" x2="1.55" y2="25.53" stroke="rgb(221,195,242)" stroke-width="3.18" stroke-linecap="butt" stroke-dasharray="6.81,3.41"/><line x1="4.66" y1="6.29" x2="4.66" y2="25.53" stroke="rgb(221,195,242)" stroke-width="3.18" stroke-linecap="butt" stroke-dasharray="6.81,3.41"/><line x1="7.77" y1="6.29" x2="7.77" y2="25.53" stroke="rgb(221,195,242)" stroke-width="3.18" stroke-linecap="butt" stroke-dasharray="6.81,3.41"/><line x1="10.88" y1="6.29" x2="10.88" y2="25.53" stroke="rgb(221,195,242)" stroke-width="3.18" stroke-linecap="butt" stroke-dasharray="6.81,3.41"/><line x1="13.99" y1="6.29" x2="13.99" y2="25.53" stroke="rgb(221,195,242)" stroke-width="3.18" stroke-linecap="butt" stroke-dasharray="6.81,3.41"/></g><g transform="translate(23.04,60.32) skewY(26.565)"><rect x="0" y="0" width="26.26" height="31.82" fill="rgb(54,46,85)"/><line x1="15.32" y1="7.49" x2="15.32" y2="24.33" stroke="rgb(227,202,241)" stroke-width="1.18" stroke-linecap="butt"/></g><rect x="11.52" y="33.82" width="26.26" height="18.66" fill="rgb(88,76,129)" transform="matrix(1,0.5000,-1,0.5000,64.00,28.32)"/><rect x="39.21" y="8.64" width="16.15" height="46.72" fill="rgba(0,0,0,0.20)" transform="matrix(1,0.5000,-1,0.5000,66.50,62.64)"/><g transform="translate(64.00,77.44) skewY(-26.565)"><rect x="0" y="0" width="40.96" height="35.18" fill="rgb(31,25,47)"/><line x1="3.41" y1="8.26" x2="3.41" y2="26.92" stroke="rgb(182,135,233)" stroke-width="1.78" stroke-linecap="butt" stroke-dasharray="6.45,3.84"/><line x1="10.24" y1="8.26" x2="10.24" y2="26.92" stroke="rgb(182,135,233)" stroke-width="1.78" stroke-linecap="butt" stroke-dasharray="6.45,3.84"/><line x1="17.07" y1="8.26" x2="17.07" y2="26.92" stroke="rgb(182,135,233)" stroke-width="1.78" stroke-linecap="butt" stroke-dasharray="6.45,3.84"/></g><g transform="translate(53.61,72.25) skewY(26.565)"><rect x="0" y="0" width="10.39" height="35.18" fill="rgb(57,46,85)"/><line x1="2.29" y1="17.59" x2="8.09" y2="17.59" stroke="rgb(217,196,243)" stroke-width="1.4" stroke-linecap="butt" stroke-dasharray="6.43,4.00"/><line x1="2.29" y1="22.62" x2="8.09" y2="22.62" stroke="rgb(217,196,243)" stroke-width="1.4" stroke-linecap="butt" stroke-dasharray="6.43,4.00"/><line x1="2.29" y1="27.64" x2="8.09" y2="27.64" stroke="rgb(217,196,243)" stroke-width="1.4" stroke-linecap="butt" stroke-dasharray="6.43,4.00"/></g><rect x="42.09" y="11.52" width="10.39" height="40.96" fill="rgb(97,82,138)" transform="matrix(1,0.5000,-1,0.5000,64.00,24.96)"/><g transform="translate(64.00,48.89) skewY(-26.565)"><rect x="0" y="0" width="40.96" height="28.54" fill="rgb(29,25,47)"/><line x1="12.80" y1="4.33" x2="12.80" y2="24.21" stroke="rgb(204,132,248)" stroke-width="3.1" stroke-linecap="butt" stroke-dasharray="7.72,1.81"/><line x1="17.92" y1="4.33" x2="17.92" y2="24.21" stroke="rgb(204,132,248)" stroke-width="3.1" stroke-linecap="butt" stroke-dasharray="7.72,1.81"/><line x1="23.04" y1="4.33" x2="23.04" y2="24.21" stroke="rgb(204,132,248)" stroke-width="3.1" stroke-linecap="butt" stroke-dasharray="7.72,1.81"/><line x1="28.16" y1="4.33" x2="28.16" y2="24.21" stroke="rgb(204,132,248)" stroke-width="3.1" stroke-linecap="butt" stroke-dasharray="7.72,1.81"/></g><g transform="translate(53.61,43.70) skewY(26.565)"><rect x="0" y="0" width="10.39" height="28.54" fill="rgb(53,46,85)"/><line x1="2.48" y1="7.14" x2="7.91" y2="7.14" stroke="rgb(177,134,246)" stroke-width="2.77" stroke-linecap="butt"/><line x1="2.48" y1="11.89" x2="7.91" y2="11.89" stroke="rgb(177,134,246)" stroke-width="2.77" stroke-linecap="butt"/><line x1="2.48" y1="16.65" x2="7.91" y2="16.65" stroke="rgb(177,134,246)" stroke-width="2.77" stroke-linecap="butt"/></g><rect x="42.09" y="11.52" width="10.39" height="40.96" fill="rgb(86,77,130)" transform="matrix(1,0.5000,-1,0.5000,64.00,-3.59)"/></g></svg>