<svg xmlns="http://www.w3.org/2000/svg" version="1.1" width="128" height="128"><g><rect x="8.64" y="8.64" width="46.72" height="46.72" fill="rgba(0,0,0,0.20)" transform="matrix(1,0.5000,-1,0.5000,66.50,62.64)"/><g transform="translate(64.00,70.04) skewY(-26.565)"><rect x="0" y="0" width="40.96" height="42.58" fill="rgb(32,26,49)"/><line x1="5.83" y1="2.66" x2="35.13" y2="2.66" stroke="rgb(186,163,238)" stroke-width="1.52" stroke-linecap="butt"/><line x1="5.83" y1="7.98" x2="35.13" y2="7.98" stroke="rgb(186,163,238)" stroke-width="1.52" stroke-linecap="butt"/><line x1="5.83" y1="13.31" x2="35.13" y2="13.31" stroke="rgb(186,163,238)" stroke-width="1.52" stroke-linecap="butt"/><line x1="5.83" y1="18.63" x2="35.13" y2="18.63" stroke="rgb(186,163,238)" stroke-width="1.52" stroke-linecap="butt"/><line x1="5.83" y1="23.95" x2="35.13" y2="23.95" stroke="rgb(186,163,238)" stroke-width="1.52" stroke-linecap="butt"/><line x1="5.83" y1="29.27" x2="35.13" y2="29.27" stroke="rgb(186,163,238)" stroke-width="1.52" stroke-linecap="butt"/><line x1="5.83" y1="34.59" x2="35.13" y2="34.59" stroke="rgb(186,163,238)" stroke-width="1.52" stroke-linecap="butt"/></g><g transform="translate(23.04,49.56) skewY(26.565)"><rect x="0" y="0" width="40.96" height="42.58" fill="rgb(58,48,89)"/><line x1="17.92" y1="7.11" x2="17.92" y2="35.47" stroke="rgb(212,192,251)" stroke-width="3.08" stroke-linecap="butt"/><line x1="23.04" y1="7.11" x2="23.04" y2="35.47" stroke="rgb(212,192,251)" stroke-width="3.08" stroke-linecap="butt"/></g><rect x="11.52" y="11.52" width="40.96" height="40.96" fill="rgb(91,78,132)" transform="matrix(1,0.5000,-1,0.5000,64.00,17.56)"/></g></svg>