<svg xmlns="http://www.w3.org/2000/svg" version="1.1" width="128" height="129"><g><rect x="8.64" y="8.64" width="24.76" height="46.72" fill="rgba(0,0,0,0.20)" transform="matrix(1,0.5000,-1,0.5000,66.50,63.64)"/><g transform="translate(42.04,66.69) skewY(-26.565)"><rect x="0" y="0" width="40.96" height="35.95" fill="rgb(29,24,46)"/><line x1="8.99" y1="15.73" x2="31.97" y2="15.73" stroke="rgb(193,176,243)" stroke-width="2.85" stroke-linecap="butt"/><line x1="8.99" y1="20.22" x2="31.97" y2="20.22" stroke="rgb(193,176,243)" stroke-width="2.85" stroke-linecap="butt"/><line x1="8.99" y1="24.71" x2="31.97" y2="24.71" stroke="rgb(193,176,243)" stroke-width="2.85" stroke-linecap="butt"/><line x1="8.99" y1="29.21" x2="31.97" y2="29.21" stroke="rgb(193,176,243)" stroke-width="2.85" stroke-linecap="butt"/></g><g transform="translate(23.04,57.19) skewY(26.565)"><rect x="0" y="0" width="19.00" height="35.95" fill="rgb(53,44,84)"/><line x1="4.33" y1="7.70" x2="14.67" y2="7.70" stroke="rgb(201,185,238)" stroke-width="1.87" stroke-linecap="butt"/><line x1="4.33" y1="12.84" x2="14.67" y2="12.84" stroke="rgb(201,185,238)" stroke-width="1.87" stroke-linecap="butt"/><line x1="4.33" y1="17.97" x2="14.67" y2="17.97" stroke="rgb(201,185,238)" stroke-width="1.87" stroke-linecap="butt"/></g><rect x="11.52" y="11.52" width="19.00" height="40.96" fill="rgb(84,73,124)" transform="matrix(1,0.5000,-1,0.5000,64.00,25.19)"/><g transform="translate(45.63,47.37) skewY(-26.565)"><rect x="0" y="0" width="6.43" height="10.82" fill="rgb(26,23,34)"/></g><g transform="translate(39.20,44.16) skewY(26.565)"><rect x="0" y="0" width="6.43" height="10.82" fill="rgb(41,37,53)"/></g><rect x="17.39" y="35.76" width="6.43" height="6.43" fill="rgb(53,47,68)" transform="matrix(1,0.5000,-1,0.5000,64.00,14.37)"/><rect x="30.34" y="8.64" width="25.02" height="46.72" fill="rgba(0,0,0,0.20)" transform="matrix(1,0.5000,-1,0.5000,66.50,63.64)"/><g transform="translate(64.00,73.47) skewY(-26.565)"><rect x="0" y="0" width="40.96" height="40.15" fill="rgb(30,24,46)"/><line x1="7.91" y1="23.42" x2="33.05" y2="23.42" stroke="rgb(190,163,246)" stroke-width="2.9" stroke-linecap="butt" stroke-dasharray="6.49,3.29"/><line x1="7.91" y1="30.12" x2="33.05" y2="30.12" stroke="rgb(190,163,246)" stroke-width="2.9" stroke-linecap="butt" stroke-dasharray="6.49,3.29"/></g><g transform="translate(44.74,63.84) skewY(26.565)"><rect x="0" y="0" width="19.26" height="40.15" fill="rgb(55,44,84)"/><line x1="8.43" y1="7.49" x2="8.43" y2="32.66" stroke="rgb(216,195,249)" stroke-width="1.22" stroke-linecap="butt"/><line x1="10.83" y1="7.49" x2="10.83" y2="32.66" stroke="rgb(216,195,249)" stroke-width="1.22" stroke-linecap="butt"/></g><rect x="33.22" y="11.52" width="19.26" height="40.96" fill="rgb(94,78,134)" transform="matrix(1,0.5000,-1,0.5000,64.00,20.99)"/><g transform="translate(65.81,27.13) skewY(-26.565)"><rect x="0" y="0" width="29.65" height="41.58" fill="rgb(30,24,46)"/><line x1="5.79" y1="17.32" x2="23.86" y2="17.32" stroke="rgb(208,197,248)" stroke-width="2.68" stroke-linecap="butt"/><line x1="5.79" y1="24.25" x2="23.86" y2="24.25" stroke="rgb(208,197,248)" stroke-width="2.68" stroke-linecap="butt"/><line x1="5.79" y1="31.18" x2="23.86" y2="31.18" stroke="rgb(208,197,248)" stroke-width="2.68" stroke-linecap="butt"/></g><g transform="translate(54.25,21.36) skewY(26.565)"><rect x="0" y="0" width="11.55" height="41.58" fill="rgb(54,44,84)"/><line x1="2.09" y1="2.60" x2="9.46" y2="2.60" stroke="rgb(216,196,252)" stroke-width="3.16" stroke-linecap="butt"/><line x1="2.09" y1="7.80" x2="9.46" y2="7.80" stroke="rgb(216,196,252)" stroke-width="3.16" stroke-linecap="butt"/><line x1="2.09" y1="12.99" x2="9.46" y2="12.99" stroke="rgb(216,196,252)" stroke-width="3.16" stroke-linecap="butt"/><line x1="2.09" y1="18.19" x2="9.46" y2="18.19" stroke="rgb(216,196,252)" stroke-width="3.16" stroke-linecap="butt"/><line x1="2.09" y1="23.39" x2="9.46" y2="23.39" stroke="rgb(216,196,252)" stroke-width="3.16" stroke-linecap="butt"/><line x1="2.09" y1="28.59" x2="9.46" y2="28.59" stroke="rgb(216,196,252)" stroke-width="3.16" stroke-linecap="butt"/></g><rect x="37.07" y="17.18" width="11.55" height="29.65" fill="rgb(92,78,133)" transform="matrix(1,0.5000,-1,0.5000,64.00,-20.59)"/></g></svg>