<svg xmlns:xlink="http://www.w3.org/1999/xlink" version="1.1" xmlns="http://www.w3.org/2000/svg" width="128" height="288"><defs/><g><g transform="translate(2,2)"><path fill="rgb(0,0,0)" stroke="none" paint-order="stroke fill markers" d=" M 64 229.12 L 119.03999999999999 256.64 L 64 284.15999999999997 L 8.96 256.64 Z" fill-opacity="0.20"/></g><path fill="#aebccb" stroke="rgb(0,0,0)" paint-order="fill stroke markers" d=" M 119.03999999999999 256.64 L 64 284.15999999999997 L 64 140.63999999999996 L 119.03999999999999 113.11999999999998 Z" stroke-opacity="0.30" stroke-miterlimit="10"/><path fill="#7c8a9a" stroke="rgb(0,0,0)" paint-order="fill stroke markers" d=" M 8.96 256.64 L 64 284.15999999999997 L 64 140.63999999999996 L 8.96 113.11999999999998 Z" stroke-opacity="0.30" stroke-miterlimit="10"/><path fill="#dde6ee" stroke="rgb(0,0,0)" paint-order="fill stroke markers" d=" M 64 85.6 L 119.03999999999999 113.11999999999998 L 64 140.63999999999996 L 8.96 113.11999999999998 Z" stroke-opacity="0.30" stroke-miterlimit="10"/><path fill="#bfe6f5" stroke="none" paint-order="stroke fill markers" d=" M 116.288 121.67199999999998 L 108.032 125.79999999999997 L 108.032 147.32799999999997 L 116.288 143.2 Z"/><path fill="#bfe6f5" stroke="none" paint-order="stroke fill markers" d=" M 102.52799999999999 128.55199999999996 L 94.27199999999999 132.67999999999995 L 94.27199999999999 154.20799999999997 L 102.52799999999999 150.07999999999998 Z"/><path fill="#bfe6f5" stroke="none" paint-order="stroke fill markers" d=" M 88.768 135.43199999999996 L 80.512 139.55999999999995 L 80.512 161.08799999999997 L 88.768 156.95999999999998 Z"/><path fill="#bfe6f5" stroke="none" paint-order="stroke fill markers" d=" M 75.008 142.31199999999995 L 66.75200000000001 146.43999999999994 L 66.75200000000001 167.96799999999996 L 75.008 163.83999999999997 Z"/><path fill="#bfe6f5" stroke="none" paint-order="stroke fill markers" d=" M 116.288 157.55199999999996 L 108.032 161.67999999999998 L 108.032 183.20799999999997 L 116.288 179.07999999999998 Z"/><path fill="#bfe6f5" stroke="none" paint-order="stroke fill markers" d=" M 102.52799999999999 164.43199999999996 L 94.27199999999999 168.55999999999997 L 94.27199999999999 190.08799999999997 L 102.52799999999999 185.95999999999998 Z"/><path fill="#bfe6f5" stroke="none" paint-order="stroke fill markers" d=" M 88.768 171.31199999999995 L 80.512 175.43999999999997 L 80.512 196.96799999999996 L 88.768 192.83999999999997 Z"/><path fill="#bfe6f5" stroke="none" paint-order="stroke fill markers" d=" M 75.008 178.19199999999995 L 66.75200000000001 182.31999999999996 L 66.75200000000001 203.84799999999996 L 75.008 199.71999999999997 Z"/><path fill="#bfe6f5" stroke="none" paint-order="stroke fill markers" d=" M 116.288 193.43199999999996 L 108.032 197.56 L 108.032 219.088 L 116.288 214.95999999999998 Z"/><path fill="#bfe6f5" stroke="none" paint-order="stroke fill markers" d=" M 102.52799999999999 200.31199999999995 L 94.27199999999999 204.44 L 94.27199999999999 225.968 L 102.52799999999999 221.83999999999997 Z"/><path fill="#bfe6f5" stroke="none" paint-order="stroke fill markers" d=" M 88.768 207.19199999999995 L 80.512 211.32 L 80.512 232.84799999999998 L 88.768 228.71999999999997 Z"/><path fill="#bfe6f5" stroke="none" paint-order="stroke fill markers" d=" M 75.008 214.07199999999995 L 66.75200000000001 218.2 L 66.75200000000001 239.72799999999998 L 75.008 235.59999999999997 Z"/><path fill="#bfe6f5" stroke="none" paint-order="stroke fill markers" d=" M 116.288 229.31199999999995 L 108.032 233.44 L 108.032 254.968 L 116.288 250.83999999999995 Z"/><path fill="#bfe6f5" stroke="none" paint-order="stroke fill markers" d=" M 102.52799999999999 236.19199999999995 L 94.27199999999999 240.32 L 94.27199999999999 261.84799999999996 L 102.52799999999999 257.7199999999999 Z"/><path fill="#bfe6f5" stroke="none" paint-order="stroke fill markers" d=" M 88.768 243.07199999999995 L 80.512 247.2 L 80.512 268.72799999999995 L 88.768 264.5999999999999 Z"/><path fill="#bfe6f5" stroke="none" paint-order="stroke fill markers" d=" M 75.008 249.95199999999994 L 66.75200000000001 254.07999999999998 L 66.75200000000001 275.60799999999995 L 75.008 271.4799999999999 Z"/><path fill="#bfe6f5" stroke="none" paint-order="stroke fill markers" d=" M 11.712000000000002 121.67199999999998 L 19.968000000000004 125.79999999999997 L 19.968000000000004 147.32799999999997 L 11.712000000000002 143.2 Z"/><path fill="#bfe6f5" stroke="none" paint-order="stroke fill markers" d=" M 25.472 128.55199999999996 L 33.728 132.67999999999995 L 33.728 154.20799999999997 L 25.472 150.07999999999998 Z"/><path fill="#bfe6f5" stroke="none" paint-order="stroke fill markers" d=" M 39.232 135.43199999999996 L 47.488 139.55999999999995 L 47.488 161.08799999999997 L 39.232 156.95999999999998 Z"/><path fill="#bfe6f5" stroke="none" paint-order="stroke fill markers" d=" M 52.992000000000004 142.31199999999995 L 61.248 146.43999999999994 L 61.248 167.96799999999996 L 52.992000000000004 163.83999999999997 Z"/><path fill="#bfe6f5" stroke="none" paint-order="stroke fill markers" d=" M 11.712000000000002 157.55199999999996 L 19.968000000000004 161.67999999999998 L 19.968000000000004 183.20799999999997 L 11.712000000000002 179.07999999999998 Z"/><path fill="#bfe6f5" stroke="none" paint-order="stroke fill markers" d=" M 25.472 164.43199999999996 L 33.728 168.55999999999997 L 33.728 190.08799999999997 L 25.472 185.95999999999998 Z"/><path fill="#bfe6f5" stroke="none" paint-order="stroke fill markers" d=" M 39.232 171.31199999999995 L 47.488 175.43999999999997 L 47.488 196.96799999999996 L 39.232 192.83999999999997 Z"/><path fill="#bfe6f5" stroke="none" paint-order="stroke fill markers" d=" M 52.992000000000004 178.19199999999995 L 61.248 182.31999999999996 L 61.248 203.84799999999996 L 52.992000000000004 199.71999999999997 Z"/><path fill="#bfe6f5" stroke="none" paint-order="stroke fill markers" d=" M 11.712000000000002 193.43199999999996 L 19.968000000000004 197.56 L 19.968000000000004 219.088 L 11.712000000000002 214.95999999999998 Z"/><path fill="#bfe6f5" stroke="none" paint-order="stroke fill markers" d=" M 25.472 200.31199999999995 L 33.728 204.44 L 33.728 225.968 L 25.472 221.83999999999997 Z"/><path fill="#bfe6f5" stroke="none" paint-order="stroke fill markers" d=" M 39.232 207.19199999999995 L 47.488 211.32 L 47.488 232.84799999999998 L 39.232 228.71999999999997 Z"/><path fill="#bfe6f5" stroke="none" paint-order="stroke fill markers" d=" M 52.992000000000004 214.07199999999995 L 61.248 218.2 L 61.248 239.72799999999998 L 52.992000000000004 235.59999999999997 Z"/><path fill="#bfe6f5" stroke="none" paint-order="stroke fill markers" d=" M 11.712000000000002 229.31199999999995 L 19.968000000000004 233.44 L 19.968000000000004 254.968 L 11.712000000000002 250.83999999999995 Z"/><path fill="#bfe6f5" stroke="none" paint-order="stroke fill markers" d=" M 25.472 236.19199999999995 L 33.728 240.32 L 33.728 261.84799999999996 L 25.472 257.7199999999999 Z"/><path fill="#bfe6f5" stroke="none" paint-order="stroke fill markers" d=" M 39.232 243.07199999999995 L 47.488 247.2 L 47.488 268.72799999999995 L 39.232 264.5999999999999 Z"/><path fill="#bfe6f5" stroke="none" paint-order="stroke fill markers" d=" M 52.992000000000004 249.95199999999994 L 61.248 254.07999999999998 L 61.248 275.60799999999995 L 52.992000000000004 271.4799999999999 Z"/></g></svg>