<svg xmlns="http://www.w3.org/2000/svg" xmlns:xlink="http://www.w3.org/1999/xlink" version="1.1" width="128" height="224"><defs/><g><path d="M66,172.24 L110.8,194.64 L66,217.04 L21.2,194.64 Z" fill="rgb(0,0,0)" fill-opacity="0.2"/><path d="M108.8,192.64 L64,215.04 L64,107.04 L108.8,84.64 Z" fill="#2f2956"/><path d="M108.8,192.64 L64,215.04 L64,107.04 L108.8,84.64 Z" fill="none" stroke="rgb(12,0,40)" stroke-opacity="0.42" stroke-width="1"/><path d="M19.2,192.64 L64,215.04 L64,107.04 L19.2,84.64 Z" fill="#191430"/><path d="M19.2,192.64 L64,215.04 L64,107.04 L19.2,84.64 Z" fill="none" stroke="rgb(12,0,40)" stroke-opacity="0.42" stroke-width="1"/><path d="M64,62.24 L108.8,84.64 L64,107.04 L19.2,84.64 Z" fill="#453f6b"/><path d="M64,62.24 L108.8,84.64 L64,107.04 L19.2,84.64 Z" fill="none" stroke="rgb(12,0,40)" stroke-opacity="0.42" stroke-width="1"/><path d="M108.8,108.4 L64,130.8" fill="none" stroke="rgb(183,165,255)" stroke-width="4.48" stroke-dasharray="6.54,5.02"/><path d="M108.8,138.64 L64,161.04" fill="none" stroke="rgb(228,166,255)" stroke-width="2.75" stroke-dasharray="8.45,6.02"/><path d="M108.8,168.88 L64,191.28" fill="none" stroke="rgb(181,150,255)" stroke-width="2.97" stroke-dasharray="9.77,2.56"/><path d="M19.2,108.4 L64,130.8" fill="none" stroke="rgb(183,165,255)" stroke-width="4.48" stroke-dasharray="6.54,5.02"/><path d="M19.2,138.64 L64,161.04" fill="none" stroke="rgb(228,166,255)" stroke-width="2.75" stroke-dasharray="8.45,6.02"/><path d="M19.2,168.88 L64,191.28" fill="none" stroke="rgb(181,150,255)" stroke-width="2.97" stroke-dasharray="9.77,2.56"/></g></svg>