<svg xmlns="http://www.w3.org/2000/svg" version="1.1" width="128" height="328"><g><rect x="3.52" y="3.52" width="56.96" height="56.96" fill="rgba(0,0,0,0.20)" transform="matrix(1,0.5000,-1,0.5000,66.50,257.52)"/><g transform="translate(64.00,259.01) skewY(-26.565)"><rect x="0" y="0" width="51.20" height="53.61" fill="rgb(21,21,48)"/><line x1="7.28" y1="19.15" x2="43.92" y2="19.15" stroke="rgb(197,193,251)" stroke-width="2.9" stroke-linecap="butt" stroke-dasharray="4.63,2.00"/><line x1="7.28" y1="26.81" x2="43.92" y2="26.81" stroke="rgb(197,193,251)" stroke-width="2.9" stroke-linecap="butt" stroke-dasharray="4.63,2.00"/><line x1="7.28" y1="34.46" x2="43.92" y2="34.46" stroke="rgb(197,193,251)" stroke-width="2.9" stroke-linecap="butt" stroke-dasharray="4.63,2.00"/><line x1="7.28" y1="42.12" x2="43.92" y2="42.12" stroke="rgb(197,193,251)" stroke-width="2.9" stroke-linecap="butt" stroke-dasharray="4.63,2.00"/><line x1="7.28" y1="49.78" x2="43.92" y2="49.78" stroke="rgb(197,193,251)" stroke-width="2.9" stroke-linecap="butt" stroke-dasharray="4.63,2.00"/></g><g transform="translate(12.80,233.41) skewY(26.565)"><rect x="0" y="0" width="51.20" height="53.61" fill="rgb(38,39,87)"/><line x1="9.24" y1="3.83" x2="41.96" y2="3.83" stroke="rgb(170,149,241)" stroke-width="2.32" stroke-linecap="butt" stroke-dasharray="2.91,4.51"/><line x1="9.24" y1="11.49" x2="41.96" y2="11.49" stroke="rgb(170,149,241)" stroke-width="2.32" stroke-linecap="butt" stroke-dasharray="2.91,4.51"/><line x1="9.24" y1="19.15" x2="41.96" y2="19.15" stroke="rgb(170,149,241)" stroke-width="2.32" stroke-linecap="butt" stroke-dasharray="2.91,4.51"/><line x1="9.24" y1="26.81" x2="41.96" y2="26.81" stroke="rgb(170,149,241)" stroke-width="2.32" stroke-linecap="butt" stroke-dasharray="2.91,4.51"/></g><rect x="6.40" y="6.40" width="51.20" height="51.20" fill="rgb(68,69,135)" transform="matrix(1,0.5000,-1,0.5000,64.00,201.41)"/><g transform="translate(64.00,211.25) skewY(-26.565)"><rect x="0" y="0" width="51.20" height="47.76" fill="rgb(21,21,48)"/><line x1="16.00" y1="9.60" x2="16.00" y2="38.16" stroke="rgb(173,150,227)" stroke-width="2.62" stroke-linecap="butt" stroke-dasharray="6.66,2.66"/><line x1="22.40" y1="9.60" x2="22.40" y2="38.16" stroke="rgb(173,150,227)" stroke-width="2.62" stroke-linecap="butt" stroke-dasharray="6.66,2.66"/><line x1="28.80" y1="9.60" x2="28.80" y2="38.16" stroke="rgb(173,150,227)" stroke-width="2.62" stroke-linecap="butt" stroke-dasharray="6.66,2.66"/></g><g transform="translate(12.80,185.65) skewY(26.565)"><rect x="0" y="0" width="51.20" height="47.76" fill="rgb(38,39,87)"/><line x1="9.60" y1="8.37" x2="9.60" y2="39.40" stroke="rgb(131,114,245)" stroke-width="2.13" stroke-linecap="butt"/><line x1="16.00" y1="8.37" x2="16.00" y2="39.40" stroke="rgb(131,114,245)" stroke-width="2.13" stroke-linecap="butt"/><line x1="22.40" y1="8.37" x2="22.40" y2="39.40" stroke="rgb(131,114,245)" stroke-width="2.13" stroke-linecap="butt"/><line x1="28.80" y1="8.37" x2="28.80" y2="39.40" stroke="rgb(131,114,245)" stroke-width="2.13" stroke-linecap="butt"/><line x1="35.20" y1="8.37" x2="35.20" y2="39.40" stroke="rgb(131,114,245)" stroke-width="2.13" stroke-linecap="butt"/></g><rect x="6.40" y="6.40" width="51.20" height="51.20" fill="rgb(65,65,130)" transform="matrix(1,0.5000,-1,0.5000,64.00,153.65)"/><g transform="translate(64.00,128.22) skewY(-26.565)"><rect x="0" y="0" width="43.23" height="79.04" fill="rgb(24,21,48)"/><line x1="18.01" y1="13.09" x2="18.01" y2="65.95" stroke="rgb(166,143,248)" stroke-width="1.99" stroke-linecap="butt"/></g><g transform="translate(20.77,106.61) skewY(26.565)"><rect x="0" y="0" width="43.23" height="79.04" fill="rgb(44,38,87)"/><line x1="9.26" y1="16.25" x2="9.26" y2="62.78" stroke="rgb(156,137,242)" stroke-width="1.29" stroke-linecap="butt"/><line x1="15.44" y1="16.25" x2="15.44" y2="62.78" stroke="rgb(156,137,242)" stroke-width="1.29" stroke-linecap="butt"/><line x1="21.61" y1="16.25" x2="21.61" y2="62.78" stroke="rgb(156,137,242)" stroke-width="1.29" stroke-linecap="butt"/></g><rect x="10.39" y="10.39" width="43.23" height="43.23" fill="rgb(77,70,139)" transform="matrix(1,0.5000,-1,0.5000,64.00,74.61)"/><g transform="translate(64.00,49.51) skewY(-26.565)"><rect x="0" y="0" width="43.23" height="78.71" fill="rgb(21,21,48)"/><line x1="3.09" y1="12.75" x2="3.09" y2="65.96" stroke="rgb(134,130,232)" stroke-width="3.08" stroke-linecap="butt" stroke-dasharray="4.78,3.18"/><line x1="9.26" y1="12.75" x2="9.26" y2="65.96" stroke="rgb(134,130,232)" stroke-width="3.08" stroke-linecap="butt" stroke-dasharray="4.78,3.18"/><line x1="15.44" y1="12.75" x2="15.44" y2="65.96" stroke="rgb(134,130,232)" stroke-width="3.08" stroke-linecap="butt" stroke-dasharray="4.78,3.18"/><line x1="21.61" y1="12.75" x2="21.61" y2="65.96" stroke="rgb(134,130,232)" stroke-width="3.08" stroke-linecap="butt" stroke-dasharray="4.78,3.18"/><line x1="27.79" y1="12.75" x2="27.79" y2="65.96" stroke="rgb(134,130,232)" stroke-width="3.08" stroke-linecap="butt" stroke-dasharray="4.78,3.18"/><line x1="33.97" y1="12.75" x2="33.97" y2="65.96" stroke="rgb(134,130,232)" stroke-width="3.08" stroke-linecap="butt" stroke-dasharray="4.78,3.18"/><line x1="40.14" y1="12.75" x2="40.14" y2="65.96" stroke="rgb(134,130,232)" stroke-width="3.08" stroke-linecap="butt" stroke-dasharray="4.78,3.18"/></g><g transform="translate(20.77,27.90) skewY(26.565)"><rect x="0" y="0" width="43.23" height="78.71" fill="rgb(38,39,87)"/><line x1="25.22" y1="11.61" x2="25.22" y2="67.10" stroke="rgb(168,157,249)" stroke-width="1.65" stroke-linecap="butt" stroke-dasharray="6.92,3.47"/></g><rect x="10.39" y="10.39" width="43.23" height="43.23" fill="rgb(68,69,135)" transform="matrix(1,0.5000,-1,0.5000,64.00,-4.10)"/></g></svg>