<svg xmlns="http://www.w3.org/2000/svg" version="1.1" width="128" height="224"><g><rect x="6.72" y="6.72" width="27.55" height="29.23" fill="rgba(0,0,0,0.20)" transform="matrix(1,0.5000,-1,0.5000,66.50,156.72)"/><g transform="translate(62.32,131.89) skewY(-26.565)"><rect x="0" y="0" width="23.47" height="54.56" fill="rgb(27,22,53)"/><line x1="3.70" y1="10.23" x2="19.76" y2="10.23" stroke="rgb(173,131,238)" stroke-width="2.31" stroke-linecap="butt" stroke-dasharray="5.01,5.18"/><line x1="3.70" y1="17.05" x2="19.76" y2="17.05" stroke="rgb(173,131,238)" stroke-width="2.31" stroke-linecap="butt" stroke-dasharray="5.01,5.18"/><line x1="3.70" y1="23.87" x2="19.76" y2="23.87" stroke="rgb(173,131,238)" stroke-width="2.31" stroke-linecap="butt" stroke-dasharray="5.01,5.18"/><line x1="3.70" y1="30.69" x2="19.76" y2="30.69" stroke="rgb(173,131,238)" stroke-width="2.31" stroke-linecap="butt" stroke-dasharray="5.01,5.18"/><line x1="3.70" y1="37.51" x2="19.76" y2="37.51" stroke="rgb(173,131,238)" stroke-width="2.31" stroke-linecap="butt" stroke-dasharray="5.01,5.18"/><line x1="3.70" y1="44.33" x2="19.76" y2="44.33" stroke="rgb(173,131,238)" stroke-width="2.31" stroke-linecap="butt" stroke-dasharray="5.01,5.18"/></g><g transform="translate(40.53,121.00) skewY(26.565)"><rect x="0" y="0" width="21.79" height="54.56" fill="rgb(48,39,96)"/><line x1="6.81" y1="9.37" x2="6.81" y2="45.19" stroke="rgb(221,203,244)" stroke-width="1.41" stroke-linecap="butt" stroke-dasharray="6.96,3.19"/><line x1="9.53" y1="9.37" x2="9.53" y2="45.19" stroke="rgb(221,203,244)" stroke-width="1.41" stroke-linecap="butt" stroke-dasharray="6.96,3.19"/><line x1="12.26" y1="9.37" x2="12.26" y2="45.19" stroke="rgb(221,203,244)" stroke-width="1.41" stroke-linecap="butt" stroke-dasharray="6.96,3.19"/><line x1="14.98" y1="9.37" x2="14.98" y2="45.19" stroke="rgb(221,203,244)" stroke-width="1.41" stroke-linecap="butt" stroke-dasharray="6.96,3.19"/><line x1="17.70" y1="9.37" x2="17.70" y2="45.19" stroke="rgb(221,203,244)" stroke-width="1.41" stroke-linecap="butt" stroke-dasharray="6.96,3.19"/></g><rect x="9.60" y="9.60" width="21.79" height="23.47" fill="rgb(84,72,150)" transform="matrix(1,0.5000,-1,0.5000,64.00,99.66)"/><g transform="translate(62.32,83.20) skewY(-26.565)"><rect x="0" y="0" width="23.47" height="48.69" fill="rgb(28,22,53)"/><line x1="1.47" y1="8.69" x2="1.47" y2="40.00" stroke="rgb(193,169,236)" stroke-width="2.15" stroke-linecap="butt"/><line x1="4.40" y1="8.69" x2="4.40" y2="40.00" stroke="rgb(193,169,236)" stroke-width="2.15" stroke-linecap="butt"/><line x1="7.33" y1="8.69" x2="7.33" y2="40.00" stroke="rgb(193,169,236)" stroke-width="2.15" stroke-linecap="butt"/><line x1="10.27" y1="8.69" x2="10.27" y2="40.00" stroke="rgb(193,169,236)" stroke-width="2.15" stroke-linecap="butt"/><line x1="13.20" y1="8.69" x2="13.20" y2="40.00" stroke="rgb(193,169,236)" stroke-width="2.15" stroke-linecap="butt"/><line x1="16.13" y1="8.69" x2="16.13" y2="40.00" stroke="rgb(193,169,236)" stroke-width="2.15" stroke-linecap="butt"/><line x1="19.07" y1="8.69" x2="19.07" y2="40.00" stroke="rgb(193,169,236)" stroke-width="2.15" stroke-linecap="butt"/><line x1="22.00" y1="8.69" x2="22.00" y2="40.00" stroke="rgb(193,169,236)" stroke-width="2.15" stroke-linecap="butt"/></g><g transform="translate(40.53,72.31) skewY(26.565)"><rect x="0" y="0" width="21.79" height="48.69" fill="rgb(52,39,96)"/><line x1="4.45" y1="3.04" x2="17.34" y2="3.04" stroke="rgb(200,158,239)" stroke-width="1.84" stroke-linecap="butt"/><line x1="4.45" y1="9.13" x2="17.34" y2="9.13" stroke="rgb(200,158,239)" stroke-width="1.84" stroke-linecap="butt"/><line x1="4.45" y1="15.21" x2="17.34" y2="15.21" stroke="rgb(200,158,239)" stroke-width="1.84" stroke-linecap="butt"/><line x1="4.45" y1="21.30" x2="17.34" y2="21.30" stroke="rgb(200,158,239)" stroke-width="1.84" stroke-linecap="butt"/><line x1="4.45" y1="27.39" x2="17.34" y2="27.39" stroke="rgb(200,158,239)" stroke-width="1.84" stroke-linecap="butt"/><line x1="4.45" y1="33.47" x2="17.34" y2="33.47" stroke="rgb(200,158,239)" stroke-width="1.84" stroke-linecap="butt"/><line x1="4.45" y1="39.56" x2="17.34" y2="39.56" stroke="rgb(200,158,239)" stroke-width="1.84" stroke-linecap="butt"/></g><rect x="9.60" y="9.60" width="21.79" height="23.47" fill="rgb(82,66,139)" transform="matrix(1,0.5000,-1,0.5000,64.00,50.98)"/><line x1="63.16" y1="71.89" x2="63.16" y2="50.16" stroke="#bbb" stroke-width="1.4" stroke-linecap="round"/><circle cx="63.16" cy="50.16" r="1.7" fill="#ff5b3b"/><rect x="32.05" y="6.72" width="25.23" height="29.23" fill="rgba(0,0,0,0.20)" transform="matrix(1,0.5000,-1,0.5000,66.50,156.72)"/><g transform="translate(85.33,149.75) skewY(-26.565)"><rect x="0" y="0" width="23.47" height="48.21" fill="rgb(26,22,53)"/><line x1="4.76" y1="20.09" x2="18.70" y2="20.09" stroke="rgb(211,193,250)" stroke-width="2.42" stroke-linecap="butt" stroke-dasharray="4.97,5.48"/><line x1="4.76" y1="28.12" x2="18.70" y2="28.12" stroke="rgb(211,193,250)" stroke-width="2.42" stroke-linecap="butt" stroke-dasharray="4.97,5.48"/><line x1="4.76" y1="36.15" x2="18.70" y2="36.15" stroke="rgb(211,193,250)" stroke-width="2.42" stroke-linecap="butt" stroke-dasharray="4.97,5.48"/><line x1="4.76" y1="44.19" x2="18.70" y2="44.19" stroke="rgb(211,193,250)" stroke-width="2.42" stroke-linecap="butt" stroke-dasharray="4.97,5.48"/></g><g transform="translate(65.86,140.01) skewY(26.565)"><rect x="0" y="0" width="19.47" height="48.21" fill="rgb(48,39,96)"/><line x1="3.33" y1="17.22" x2="16.15" y2="17.22" stroke="rgb(183,163,232)" stroke-width="1.27" stroke-linecap="butt"/><line x1="3.33" y1="24.10" x2="16.15" y2="24.10" stroke="rgb(183,163,232)" stroke-width="1.27" stroke-linecap="butt"/><line x1="3.33" y1="30.99" x2="16.15" y2="30.99" stroke="rgb(183,163,232)" stroke-width="1.27" stroke-linecap="butt"/><line x1="3.33" y1="37.88" x2="16.15" y2="37.88" stroke="rgb(183,163,232)" stroke-width="1.27" stroke-linecap="butt"/><line x1="3.33" y1="44.76" x2="16.15" y2="44.76" stroke="rgb(183,163,232)" stroke-width="1.27" stroke-linecap="butt"/></g><rect x="34.93" y="9.60" width="19.47" height="23.47" fill="rgb(86,73,154)" transform="matrix(1,0.5000,-1,0.5000,64.00,106.01)"/><g transform="translate(85.33,101.77) skewY(-26.565)"><rect x="0" y="0" width="23.47" height="47.98" fill="rgb(27,22,53)"/><line x1="11.73" y1="10.96" x2="11.73" y2="37.02" stroke="rgb(194,169,232)" stroke-width="2.47" stroke-linecap="butt"/><line x1="15.09" y1="10.96" x2="15.09" y2="37.02" stroke="rgb(194,169,232)" stroke-width="2.47" stroke-linecap="butt"/></g><g transform="translate(65.86,92.03) skewY(26.565)"><rect x="0" y="0" width="19.47" height="47.98" fill="rgb(49,39,96)"/><line x1="1.39" y1="10.13" x2="1.39" y2="37.85" stroke="rgb(196,141,247)" stroke-width="1.89" stroke-linecap="butt"/><line x1="4.17" y1="10.13" x2="4.17" y2="37.85" stroke="rgb(196,141,247)" stroke-width="1.89" stroke-linecap="butt"/><line x1="6.95" y1="10.13" x2="6.95" y2="37.85" stroke="rgb(196,141,247)" stroke-width="1.89" stroke-linecap="butt"/><line x1="9.74" y1="10.13" x2="9.74" y2="37.85" stroke="rgb(196,141,247)" stroke-width="1.89" stroke-linecap="butt"/><line x1="12.52" y1="10.13" x2="12.52" y2="37.85" stroke="rgb(196,141,247)" stroke-width="1.89" stroke-linecap="butt"/><line x1="15.30" y1="10.13" x2="15.30" y2="37.85" stroke="rgb(196,141,247)" stroke-width="1.89" stroke-linecap="butt"/><line x1="18.08" y1="10.13" x2="18.08" y2="37.85" stroke="rgb(196,141,247)" stroke-width="1.89" stroke-linecap="butt"/></g><rect x="34.93" y="9.60" width="19.47" height="23.47" fill="rgb(79,66,138)" transform="matrix(1,0.5000,-1,0.5000,64.00,58.04)"/><rect x="6.72" y="33.96" width="50.56" height="23.32" fill="rgba(0,0,0,0.20)" transform="matrix(1,0.5000,-1,0.5000,66.50,156.72)"/><g transform="translate(64.00,166.31) skewY(-26.565)"><rect x="0" y="0" width="17.56" height="42.31" fill="rgb(28,22,53)"/><line x1="3.72" y1="9.07" x2="13.84" y2="9.07" stroke="rgb(167,130,244)" stroke-width="3.06" stroke-linecap="butt" stroke-dasharray="7.00,1.82"/><line x1="3.72" y1="15.11" x2="13.84" y2="15.11" stroke="rgb(167,130,244)" stroke-width="3.06" stroke-linecap="butt" stroke-dasharray="7.00,1.82"/><line x1="3.72" y1="21.15" x2="13.84" y2="21.15" stroke="rgb(167,130,244)" stroke-width="3.06" stroke-linecap="butt" stroke-dasharray="7.00,1.82"/><line x1="3.72" y1="27.20" x2="13.84" y2="27.20" stroke="rgb(167,130,244)" stroke-width="3.06" stroke-linecap="butt" stroke-dasharray="7.00,1.82"/><line x1="3.72" y1="33.24" x2="13.84" y2="33.24" stroke="rgb(167,130,244)" stroke-width="3.06" stroke-linecap="butt" stroke-dasharray="7.00,1.82"/><line x1="3.72" y1="39.28" x2="13.84" y2="39.28" stroke="rgb(167,130,244)" stroke-width="3.06" stroke-linecap="butt" stroke-dasharray="7.00,1.82"/></g><g transform="translate(19.20,143.91) skewY(26.565)"><rect x="0" y="0" width="44.80" height="42.31" fill="rgb(50,39,96)"/><line x1="16.00" y1="8.33" x2="16.00" y2="33.98" stroke="rgb(192,168,234)" stroke-width="2.8" stroke-linecap="butt" stroke-dasharray="2.88,2.14"/><line x1="22.40" y1="8.33" x2="22.40" y2="33.98" stroke="rgb(192,168,234)" stroke-width="2.8" stroke-linecap="butt" stroke-dasharray="2.88,2.14"/><line x1="28.80" y1="8.33" x2="28.80" y2="33.98" stroke="rgb(192,168,234)" stroke-width="2.8" stroke-linecap="butt" stroke-dasharray="2.88,2.14"/></g><rect x="9.60" y="36.84" width="44.80" height="17.56" fill="rgb(85,70,146)" transform="matrix(1,0.5000,-1,0.5000,64.00,111.91)"/></g></svg>