<svg xmlns="http://www.w3.org/2000/svg" version="1.1" width="128" height="224"><g><rect x="6.72" y="6.72" width="26.33" height="50.56" fill="rgba(0,0,0,0.20)" transform="matrix(1,0.5000,-1,0.5000,66.50,156.72)"/><g transform="translate(39.77,144.45) skewY(-26.565)"><rect x="0" y="0" width="44.80" height="52.06" fill="rgb(29,31,55)"/><line x1="8.40" y1="8.31" x2="8.40" y2="43.74" stroke="rgb(207,203,244)" stroke-width="2.94" stroke-linecap="butt" stroke-dasharray="3.64,2.37"/><line x1="14.00" y1="8.31" x2="14.00" y2="43.74" stroke="rgb(207,203,244)" stroke-width="2.94" stroke-linecap="butt" stroke-dasharray="3.64,2.37"/><line x1="19.60" y1="8.31" x2="19.60" y2="43.74" stroke="rgb(207,203,244)" stroke-width="2.94" stroke-linecap="butt" stroke-dasharray="3.64,2.37"/><line x1="25.20" y1="8.31" x2="25.20" y2="43.74" stroke="rgb(207,203,244)" stroke-width="2.94" stroke-linecap="butt" stroke-dasharray="3.64,2.37"/><line x1="30.80" y1="8.31" x2="30.80" y2="43.74" stroke="rgb(207,203,244)" stroke-width="2.94" stroke-linecap="butt" stroke-dasharray="3.64,2.37"/><line x1="36.40" y1="8.31" x2="36.40" y2="43.74" stroke="rgb(207,203,244)" stroke-width="2.94" stroke-linecap="butt" stroke-dasharray="3.64,2.37"/></g><g transform="translate(19.20,134.16) skewY(26.565)"><rect x="0" y="0" width="20.57" height="52.06" fill="rgb(52,57,100)"/><line x1="4.01" y1="30.37" x2="16.56" y2="30.37" stroke="rgb(183,169,245)" stroke-width="3.13" stroke-linecap="butt"/><line x1="4.01" y1="39.04" x2="16.56" y2="39.04" stroke="rgb(183,169,245)" stroke-width="3.13" stroke-linecap="butt"/><line x1="4.01" y1="47.72" x2="16.56" y2="47.72" stroke="rgb(183,169,245)" stroke-width="3.13" stroke-linecap="butt"/></g><rect x="9.60" y="9.60" width="20.57" height="44.80" fill="rgb(82,87,141)" transform="matrix(1,0.5000,-1,0.5000,64.00,102.16)"/><g transform="translate(39.77,88.18) skewY(-26.565)"><rect x="0" y="0" width="44.80" height="56.27" fill="rgb(29,29,55)"/><line x1="8.18" y1="4.69" x2="36.62" y2="4.69" stroke="rgb(167,157,239)" stroke-width="3.09" stroke-linecap="butt"/><line x1="8.18" y1="14.07" x2="36.62" y2="14.07" stroke="rgb(167,157,239)" stroke-width="3.09" stroke-linecap="butt"/><line x1="8.18" y1="23.44" x2="36.62" y2="23.44" stroke="rgb(167,157,239)" stroke-width="3.09" stroke-linecap="butt"/><line x1="8.18" y1="32.82" x2="36.62" y2="32.82" stroke="rgb(167,157,239)" stroke-width="3.09" stroke-linecap="butt"/><line x1="8.18" y1="42.20" x2="36.62" y2="42.20" stroke="rgb(167,157,239)" stroke-width="3.09" stroke-linecap="butt"/><line x1="8.18" y1="51.58" x2="36.62" y2="51.58" stroke="rgb(167,157,239)" stroke-width="3.09" stroke-linecap="butt"/></g><g transform="translate(19.20,77.90) skewY(26.565)"><rect x="0" y="0" width="20.57" height="56.27" fill="rgb(52,53,100)"/><line x1="3.86" y1="9.74" x2="3.86" y2="46.53" stroke="rgb(178,155,231)" stroke-width="2.43" stroke-linecap="butt" stroke-dasharray="4.52,1.97"/><line x1="6.43" y1="9.74" x2="6.43" y2="46.53" stroke="rgb(178,155,231)" stroke-width="2.43" stroke-linecap="butt" stroke-dasharray="4.52,1.97"/><line x1="9.00" y1="9.74" x2="9.00" y2="46.53" stroke="rgb(178,155,231)" stroke-width="2.43" stroke-linecap="butt" stroke-dasharray="4.52,1.97"/><line x1="11.57" y1="9.74" x2="11.57" y2="46.53" stroke="rgb(178,155,231)" stroke-width="2.43" stroke-linecap="butt" stroke-dasharray="4.52,1.97"/><line x1="14.14" y1="9.74" x2="14.14" y2="46.53" stroke="rgb(178,155,231)" stroke-width="2.43" stroke-linecap="butt" stroke-dasharray="4.52,1.97"/><line x1="16.71" y1="9.74" x2="16.71" y2="46.53" stroke="rgb(178,155,231)" stroke-width="2.43" stroke-linecap="butt" stroke-dasharray="4.52,1.97"/><line x1="19.29" y1="9.74" x2="19.29" y2="46.53" stroke="rgb(178,155,231)" stroke-width="2.43" stroke-linecap="butt" stroke-dasharray="4.52,1.97"/></g><rect x="9.60" y="9.60" width="20.57" height="44.80" fill="rgb(80,82,139)" transform="matrix(1,0.5000,-1,0.5000,64.00,45.90)"/><rect x="30.22" y="6.72" width="27.06" height="50.56" fill="rgba(0,0,0,0.20)" transform="matrix(1,0.5000,-1,0.5000,66.50,156.72)"/><g transform="translate(64.00,154.44) skewY(-26.565)"><rect x="0" y="0" width="44.80" height="54.18" fill="rgb(29,30,55)"/><line x1="18.67" y1="11.10" x2="18.67" y2="43.08" stroke="rgb(205,194,251)" stroke-width="2.25" stroke-linecap="butt"/></g><g transform="translate(42.70,143.79) skewY(26.565)"><rect x="0" y="0" width="21.30" height="54.18" fill="rgb(52,54,100)"/><line x1="4.08" y1="10.16" x2="17.22" y2="10.16" stroke="rgb(211,200,247)" stroke-width="2.83" stroke-linecap="butt" stroke-dasharray="5.08,4.37"/><line x1="4.08" y1="16.93" x2="17.22" y2="16.93" stroke="rgb(211,200,247)" stroke-width="2.83" stroke-linecap="butt" stroke-dasharray="5.08,4.37"/><line x1="4.08" y1="23.71" x2="17.22" y2="23.71" stroke="rgb(211,200,247)" stroke-width="2.83" stroke-linecap="butt" stroke-dasharray="5.08,4.37"/><line x1="4.08" y1="30.48" x2="17.22" y2="30.48" stroke="rgb(211,200,247)" stroke-width="2.83" stroke-linecap="butt" stroke-dasharray="5.08,4.37"/><line x1="4.08" y1="37.25" x2="17.22" y2="37.25" stroke="rgb(211,200,247)" stroke-width="2.83" stroke-linecap="butt" stroke-dasharray="5.08,4.37"/></g><rect x="33.10" y="9.60" width="21.30" height="44.80" fill="rgb(90,93,156)" transform="matrix(1,0.5000,-1,0.5000,64.00,100.04)"/><g transform="translate(64.00,106.30) skewY(-26.565)"><rect x="0" y="0" width="44.80" height="48.14" fill="rgb(29,31,55)"/><line x1="10.50" y1="28.08" x2="34.30" y2="28.08" stroke="rgb(182,166,245)" stroke-width="3.19" stroke-linecap="butt" stroke-dasharray="4.17,5.75"/></g><g transform="translate(42.70,95.65) skewY(26.565)"><rect x="0" y="0" width="21.30" height="48.14" fill="rgb(52,56,100)"/><line x1="10.65" y1="9.74" x2="10.65" y2="38.39" stroke="rgb(184,174,235)" stroke-width="1.93" stroke-linecap="butt"/><line x1="13.69" y1="9.74" x2="13.69" y2="38.39" stroke="rgb(184,174,235)" stroke-width="1.93" stroke-linecap="butt"/><line x1="16.73" y1="9.74" x2="16.73" y2="38.39" stroke="rgb(184,174,235)" stroke-width="1.93" stroke-linecap="butt"/><line x1="19.78" y1="9.74" x2="19.78" y2="38.39" stroke="rgb(184,174,235)" stroke-width="1.93" stroke-linecap="butt"/></g><rect x="33.10" y="9.60" width="21.30" height="44.80" fill="rgb(83,88,143)" transform="matrix(1,0.5000,-1,0.5000,64.00,51.90)"/><line x1="75.75" y1="89.77" x2="75.75" y2="66.76" stroke="#bbb" stroke-width="1.4" stroke-linecap="round"/><circle cx="75.75" cy="66.76" r="1.7" fill="#fff"/></g></svg>