<svg xmlns="http://www.w3.org/2000/svg" xmlns:xlink="http://www.w3.org/1999/xlink" version="1.1" width="128" height="288"><defs/><g><path d="M66,234.96 L114.64,259.28 L66,283.6 L17.36,259.28 Z" fill="rgb(0,0,0)" fill-opacity="0.2"/><path d="M112.64,257.28 L64,281.6 L64,152.8 L112.64,128.48 Z" fill="#2f2956"/><path d="M112.64,257.28 L64,281.6 L64,152.8 L112.64,128.48 Z" fill="none" stroke="rgb(12,0,40)" stroke-opacity="0.25" stroke-width="1"/><path d="M15.36,257.28 L64,281.6 L64,152.8 L15.36,128.48 Z" fill="#191430"/><path d="M15.36,257.28 L64,281.6 L64,152.8 L15.36,128.48 Z" fill="none" stroke="rgb(12,0,40)" stroke-opacity="0.25" stroke-width="1"/><path d="M64,104.16 L112.64,128.48 L64,152.8 L15.36,128.48 Z" fill="#453f6b"/><path d="M64,104.16 L112.64,128.48 L64,152.8 L15.36,128.48 Z" fill="none" stroke="rgb(12,0,40)" stroke-opacity="0.25" stroke-width="1"/><path d="M112.64,159.91 L64,184.23" fill="none" stroke="rgb(183,165,255)" stroke-width="4.48" stroke-dasharray="6.54,5.02"/><path d="M112.64,176.39 L64,200.71" fill="none" stroke="rgb(228,166,255)" stroke-width="2.75" stroke-dasharray="8.45,6.02"/><path d="M112.64,192.88 L64,217.2" fill="none" stroke="rgb(181,150,255)" stroke-width="2.97" stroke-dasharray="9.77,2.56"/><path d="M112.64,209.37 L64,233.69" fill="none" stroke="rgb(182,171,255)" stroke-width="3.29" stroke-dasharray="6.82,2.81"/><path d="M112.64,225.85 L64,250.17" fill="none" stroke="rgb(199,183,255)" stroke-width="4.59" stroke-dasharray="9.82,2.46"/><path d="M15.36,159.91 L64,184.23" fill="none" stroke="rgb(192,178,255)" stroke-width="4.4" stroke-dasharray="9.34,2.29"/><path d="M15.36,176.39 L64,200.71" fill="none" stroke="rgb(225,181,255)" stroke-width="2.98" stroke-dasharray="8.76,5.44"/><path d="M15.36,192.88 L64,217.2" fill="none" stroke="rgb(191,157,255)" stroke-width="4.37" stroke-dasharray="4.25,2.47"/><path d="M15.36,209.37 L64,233.69" fill="none" stroke="rgb(192,172,255)" stroke-width="4.37" stroke-dasharray="3.12,3.81"/><path d="M15.36,225.85 L64,250.17" fill="none" stroke="rgb(226,156,255)" stroke-width="2.56" stroke-dasharray="3.62,4.67"/><path d="M99.84,128.48 L64,146.4 L64,113.28 L99.84,95.36 Z" fill="#2f2956"/><path d="M99.84,128.48 L64,146.4 L64,113.28 L99.84,95.36 Z" fill="none" stroke="rgb(12,0,40)" stroke-opacity="0.25" stroke-width="1"/><path d="M28.16,128.48 L64,146.4 L64,113.28 L28.16,95.36 Z" fill="#191430"/><path d="M28.16,128.48 L64,146.4 L64,113.28 L28.16,95.36 Z" fill="none" stroke="rgb(12,0,40)" stroke-opacity="0.25" stroke-width="1"/><path d="M64,77.44 L99.84,95.36 L64,113.28 L28.16,95.36 Z" fill="#453f6b"/><path d="M64,77.44 L99.84,95.36 L64,113.28 L28.16,95.36 Z" fill="none" stroke="rgb(12,0,40)" stroke-opacity="0.25" stroke-width="1"/><path d="M99.84,111.92 L64,129.84" fill="none" stroke="rgb(183,165,255)" stroke-width="4.48" stroke-dasharray="6.54,5.02"/><path d="M28.16,111.92 L64,129.84" fill="none" stroke="rgb(192,178,255)" stroke-width="4.4" stroke-dasharray="9.34,2.29"/><path d="M87.04,95.36 L64,106.88 L64,84.8 L87.04,73.28 Z" fill="#2f2956"/><path d="M87.04,95.36 L64,106.88 L64,84.8 L87.04,73.28 Z" fill="none" stroke="rgb(12,0,40)" stroke-opacity="0.25" stroke-width="1"/><path d="M40.96,95.36 L64,106.88 L64,84.8 L40.96,73.28 Z" fill="#191430"/><path d="M40.96,95.36 L64,106.88 L64,84.8 L40.96,73.28 Z" fill="none" stroke="rgb(12,0,40)" stroke-opacity="0.25" stroke-width="1"/><path d="M64,61.76 L87.04,73.28 L64,84.8 L40.96,73.28 Z" fill="#453f6b"/><path d="M64,61.76 L87.04,73.28 L64,84.8 L40.96,73.28 Z" fill="none" stroke="rgb(12,0,40)" stroke-opacity="0.25" stroke-width="1"/><path d="M64,72 L64,48" fill="none" stroke="#bbb" stroke-width="2"/><path d="M60.8,48 a3.2,3.2 0 1,0 6.4,0 a3.2,3.2 0 1,0 -6.4,0" fill="#ff5b3b"/></g></svg>