<svg xmlns="http://www.w3.org/2000/svg" version="1.1" width="128" height="288"><g><rect x="3.52" y="3.52" width="56.96" height="56.96" fill="rgba(0,0,0,0.20)" transform="matrix(1,0.5000,-1,0.5000,66.50,217.52)"/><g transform="translate(64.00,230.21) skewY(-26.565)"><rect x="0" y="0" width="51.20" height="42.41" fill="rgb(27,22,50)"/><line x1="11.06" y1="3.03" x2="40.14" y2="3.03" stroke="rgb(211,202,241)" stroke-width="2.45" stroke-linecap="butt" stroke-dasharray="4.03,4.89"/><line x1="11.06" y1="9.09" x2="40.14" y2="9.09" stroke="rgb(211,202,241)" stroke-width="2.45" stroke-linecap="butt" stroke-dasharray="4.03,4.89"/><line x1="11.06" y1="15.15" x2="40.14" y2="15.15" stroke="rgb(211,202,241)" stroke-width="2.45" stroke-linecap="butt" stroke-dasharray="4.03,4.89"/><line x1="11.06" y1="21.20" x2="40.14" y2="21.20" stroke="rgb(211,202,241)" stroke-width="2.45" stroke-linecap="butt" stroke-dasharray="4.03,4.89"/><line x1="11.06" y1="27.26" x2="40.14" y2="27.26" stroke="rgb(211,202,241)" stroke-width="2.45" stroke-linecap="butt" stroke-dasharray="4.03,4.89"/><line x1="11.06" y1="33.32" x2="40.14" y2="33.32" stroke="rgb(211,202,241)" stroke-width="2.45" stroke-linecap="butt" stroke-dasharray="4.03,4.89"/><line x1="11.06" y1="39.38" x2="40.14" y2="39.38" stroke="rgb(211,202,241)" stroke-width="2.45" stroke-linecap="butt" stroke-dasharray="4.03,4.89"/></g><g transform="translate(12.80,204.61) skewY(26.565)"><rect x="0" y="0" width="51.20" height="42.41" fill="rgb(50,40,91)"/><line x1="25.60" y1="8.69" x2="25.60" y2="33.71" stroke="rgb(186,179,238)" stroke-width="1.42" stroke-linecap="butt" stroke-dasharray="6.03,2.96"/><line x1="32.91" y1="8.69" x2="32.91" y2="33.71" stroke="rgb(186,179,238)" stroke-width="1.42" stroke-linecap="butt" stroke-dasharray="6.03,2.96"/><line x1="40.23" y1="8.69" x2="40.23" y2="33.71" stroke="rgb(186,179,238)" stroke-width="1.42" stroke-linecap="butt" stroke-dasharray="6.03,2.96"/></g><rect x="6.40" y="6.40" width="51.20" height="51.20" fill="rgb(89,74,149)" transform="matrix(1,0.5000,-1,0.5000,64.00,172.61)"/><g transform="translate(64.00,158.69) skewY(-26.565)"><rect x="0" y="0" width="35.16" height="63.51" fill="rgb(27,22,50)"/><line x1="6.60" y1="22.68" x2="28.56" y2="22.68" stroke="rgb(207,189,240)" stroke-width="1.94" stroke-linecap="butt" stroke-dasharray="3.06,4.19"/><line x1="6.60" y1="31.75" x2="28.56" y2="31.75" stroke="rgb(207,189,240)" stroke-width="1.94" stroke-linecap="butt" stroke-dasharray="3.06,4.19"/><line x1="6.60" y1="40.83" x2="28.56" y2="40.83" stroke="rgb(207,189,240)" stroke-width="1.94" stroke-linecap="butt" stroke-dasharray="3.06,4.19"/><line x1="6.60" y1="49.90" x2="28.56" y2="49.90" stroke="rgb(207,189,240)" stroke-width="1.94" stroke-linecap="butt" stroke-dasharray="3.06,4.19"/><line x1="6.60" y1="58.97" x2="28.56" y2="58.97" stroke="rgb(207,189,240)" stroke-width="1.94" stroke-linecap="butt" stroke-dasharray="3.06,4.19"/></g><g transform="translate(28.84,141.11) skewY(26.565)"><rect x="0" y="0" width="35.16" height="63.51" fill="rgb(49,40,91)"/><line x1="6.66" y1="5.29" x2="28.50" y2="5.29" stroke="rgb(196,181,250)" stroke-width="1.94" stroke-linecap="butt" stroke-dasharray="5.75,4.25"/><line x1="6.66" y1="15.88" x2="28.50" y2="15.88" stroke="rgb(196,181,250)" stroke-width="1.94" stroke-linecap="butt" stroke-dasharray="5.75,4.25"/><line x1="6.66" y1="26.46" x2="28.50" y2="26.46" stroke="rgb(196,181,250)" stroke-width="1.94" stroke-linecap="butt" stroke-dasharray="5.75,4.25"/><line x1="6.66" y1="37.05" x2="28.50" y2="37.05" stroke="rgb(196,181,250)" stroke-width="1.94" stroke-linecap="butt" stroke-dasharray="5.75,4.25"/><line x1="6.66" y1="47.63" x2="28.50" y2="47.63" stroke="rgb(196,181,250)" stroke-width="1.94" stroke-linecap="butt" stroke-dasharray="5.75,4.25"/></g><rect x="14.42" y="14.42" width="35.16" height="35.16" fill="rgb(87,73,147)" transform="matrix(1,0.5000,-1,0.5000,64.00,109.11)"/><g transform="translate(64.00,99.76) skewY(-26.565)"><rect x="0" y="0" width="21.72" height="52.21" fill="rgb(25,22,50)"/><line x1="1.36" y1="10.20" x2="1.36" y2="42.00" stroke="rgb(212,198,246)" stroke-width="1.11" stroke-linecap="butt" stroke-dasharray="8.16,3.88"/><line x1="4.07" y1="10.20" x2="4.07" y2="42.00" stroke="rgb(212,198,246)" stroke-width="1.11" stroke-linecap="butt" stroke-dasharray="8.16,3.88"/><line x1="6.79" y1="10.20" x2="6.79" y2="42.00" stroke="rgb(212,198,246)" stroke-width="1.11" stroke-linecap="butt" stroke-dasharray="8.16,3.88"/><line x1="9.50" y1="10.20" x2="9.50" y2="42.00" stroke="rgb(212,198,246)" stroke-width="1.11" stroke-linecap="butt" stroke-dasharray="8.16,3.88"/><line x1="12.22" y1="10.20" x2="12.22" y2="42.00" stroke="rgb(212,198,246)" stroke-width="1.11" stroke-linecap="butt" stroke-dasharray="8.16,3.88"/><line x1="14.94" y1="10.20" x2="14.94" y2="42.00" stroke="rgb(212,198,246)" stroke-width="1.11" stroke-linecap="butt" stroke-dasharray="8.16,3.88"/><line x1="17.65" y1="10.20" x2="17.65" y2="42.00" stroke="rgb(212,198,246)" stroke-width="1.11" stroke-linecap="butt" stroke-dasharray="8.16,3.88"/><line x1="20.37" y1="10.20" x2="20.37" y2="42.00" stroke="rgb(212,198,246)" stroke-width="1.11" stroke-linecap="butt" stroke-dasharray="8.16,3.88"/></g><g transform="translate(42.28,88.90) skewY(26.565)"><rect x="0" y="0" width="21.72" height="52.21" fill="rgb(46,40,91)"/><line x1="4.66" y1="8.90" x2="4.66" y2="43.30" stroke="rgb(171,143,231)" stroke-width="2.25" stroke-linecap="butt"/><line x1="7.76" y1="8.90" x2="7.76" y2="43.30" stroke="rgb(171,143,231)" stroke-width="2.25" stroke-linecap="butt"/><line x1="10.86" y1="8.90" x2="10.86" y2="43.30" stroke="rgb(171,143,231)" stroke-width="2.25" stroke-linecap="butt"/></g><rect x="21.14" y="21.14" width="21.72" height="21.72" fill="rgb(77,68,137)" transform="matrix(1,0.5000,-1,0.5000,64.00,56.90)"/></g></svg>