<svg xmlns="http://www.w3.org/2000/svg" xmlns:xlink="http://www.w3.org/1999/xlink" version="1.1" width="128" height="224"><defs/><g><path d="M66,172.24 L110.8,194.64 L66,217.04 L21.2,194.64 Z" fill="rgb(0,0,0)" fill-opacity="0.2"/><path d="M108.8,192.64 L64,215.04 L64,95.04 L108.8,72.64 Z" fill="#2f2956"/><path d="M108.8,192.64 L64,215.04 L64,95.04 L108.8,72.64 Z" fill="none" stroke="rgb(12,0,40)" stroke-opacity="0.42" stroke-width="1"/><path d="M19.2,192.64 L64,215.04 L64,95.04 L19.2,72.64 Z" fill="#191430"/><path d="M19.2,192.64 L64,215.04 L64,95.04 L19.2,72.64 Z" fill="none" stroke="rgb(12,0,40)" stroke-opacity="0.42" stroke-width="1"/><path d="M64,50.24 L108.8,72.64 L64,95.04 L19.2,72.64 Z" fill="#453f6b"/><path d="M64,50.24 L108.8,72.64 L64,95.04 L19.2,72.64 Z" fill="none" stroke="rgb(12,0,40)" stroke-opacity="0.42" stroke-width="1"/><path d="M95.96,79.06 L95.96,199.06" fill="none" stroke="rgb(211,183,255)" stroke-width="2.06" stroke-dasharray="9.32,4.92"/><path d="M86.4,83.84 L86.4,203.84" fill="none" stroke="rgb(197,155,255)" stroke-width="3.9" stroke-dasharray="7.92,6.91"/><path d="M76.84,88.62 L76.84,208.62" fill="none" stroke="rgb(188,149,255)" stroke-width="4.36" stroke-dasharray="6.23,5.94"/><path d="M32.04,79.06 L32.04,199.06" fill="none" stroke="rgb(230,174,255)" stroke-width="3.03" stroke-dasharray="7.49,6.34"/><path d="M41.6,83.84 L41.6,203.84" fill="none" stroke="rgb(203,151,255)" stroke-width="4.66" stroke-dasharray="3.95,4.53"/><path d="M51.16,88.62 L51.16,208.62" fill="none" stroke="rgb(226,168,255)" stroke-width="2.61" stroke-dasharray="3.02,5.9"/></g></svg>