<svg xmlns="http://www.w3.org/2000/svg" version="1.1" width="128" height="224"><g><rect x="6.72" y="6.72" width="50.56" height="50.56" fill="rgba(0,0,0,0.20)" transform="matrix(1,0.5000,-1,0.5000,66.50,156.72)"/><g transform="translate(64.00,158.54) skewY(-26.565)"><rect x="0" y="0" width="44.80" height="50.08" fill="rgb(27,25,48)"/><line x1="18.67" y1="8.65" x2="18.67" y2="41.44" stroke="rgb(205,179,251)" stroke-width="1.61" stroke-linecap="butt"/><line x1="26.13" y1="8.65" x2="26.13" y2="41.44" stroke="rgb(205,179,251)" stroke-width="1.61" stroke-linecap="butt"/></g><g transform="translate(19.20,136.14) skewY(26.565)"><rect x="0" y="0" width="44.80" height="50.08" fill="rgb(49,46,88)"/><line x1="11.20" y1="8.95" x2="11.20" y2="41.13" stroke="rgb(164,133,229)" stroke-width="1.72" stroke-linecap="butt" stroke-dasharray="4.44,2.48"/><line x1="18.67" y1="8.95" x2="18.67" y2="41.13" stroke="rgb(164,133,229)" stroke-width="1.72" stroke-linecap="butt" stroke-dasharray="4.44,2.48"/><line x1="26.13" y1="8.95" x2="26.13" y2="41.13" stroke="rgb(164,133,229)" stroke-width="1.72" stroke-linecap="butt" stroke-dasharray="4.44,2.48"/><line x1="33.60" y1="8.95" x2="33.60" y2="41.13" stroke="rgb(164,133,229)" stroke-width="1.72" stroke-linecap="butt" stroke-dasharray="4.44,2.48"/><line x1="41.07" y1="8.95" x2="41.07" y2="41.13" stroke="rgb(164,133,229)" stroke-width="1.72" stroke-linecap="butt" stroke-dasharray="4.44,2.48"/></g><rect x="9.60" y="9.60" width="44.80" height="44.80" fill="rgb(86,81,141)" transform="matrix(1,0.5000,-1,0.5000,64.00,104.14)"/><g transform="translate(64.00,108.93) skewY(-26.565)"><rect x="0" y="0" width="44.80" height="49.61" fill="rgb(26,25,48)"/><line x1="8.06" y1="24.81" x2="36.74" y2="24.81" stroke="rgb(194,170,234)" stroke-width="1.31" stroke-linecap="butt" stroke-dasharray="6.74,3.30"/><line x1="8.06" y1="31.89" x2="36.74" y2="31.89" stroke="rgb(194,170,234)" stroke-width="1.31" stroke-linecap="butt" stroke-dasharray="6.74,3.30"/><line x1="8.06" y1="38.98" x2="36.74" y2="38.98" stroke="rgb(194,170,234)" stroke-width="1.31" stroke-linecap="butt" stroke-dasharray="6.74,3.30"/><line x1="8.06" y1="46.07" x2="36.74" y2="46.07" stroke="rgb(194,170,234)" stroke-width="1.31" stroke-linecap="butt" stroke-dasharray="6.74,3.30"/></g><g transform="translate(19.20,86.53) skewY(26.565)"><rect x="0" y="0" width="44.80" height="49.61" fill="rgb(47,46,88)"/><line x1="8.12" y1="28.94" x2="36.68" y2="28.94" stroke="rgb(172,143,235)" stroke-width="1.22" stroke-linecap="butt"/><line x1="8.12" y1="37.21" x2="36.68" y2="37.21" stroke="rgb(172,143,235)" stroke-width="1.22" stroke-linecap="butt"/><line x1="8.12" y1="45.48" x2="36.68" y2="45.48" stroke="rgb(172,143,235)" stroke-width="1.22" stroke-linecap="butt"/></g><rect x="9.60" y="9.60" width="44.80" height="44.80" fill="rgb(81,79,137)" transform="matrix(1,0.5000,-1,0.5000,64.00,54.53)"/><g transform="translate(65.45,81.27) skewY(-26.565)"><rect x="0" y="0" width="6.51" height="9.62" fill="rgb(25,24,36)"/></g><g transform="translate(58.94,78.01) skewY(26.565)"><rect x="0" y="0" width="6.51" height="9.62" fill="rgb(39,38,56)"/></g><rect x="30.57" y="29.12" width="6.51" height="6.51" fill="rgb(50,49,72)" transform="matrix(1,0.5000,-1,0.5000,64.00,44.91)"/></g></svg>