<svg xmlns="http://www.w3.org/2000/svg" version="1.1" width="128" height="344"><g><rect x="3.52" y="3.52" width="56.96" height="56.96" fill="rgba(0,0,0,0.20)" transform="matrix(1,0.5000,-1,0.5000,66.50,273.52)"/><g transform="translate(64.00,267.11) skewY(-26.565)"><rect x="0" y="0" width="51.20" height="61.51" fill="rgb(31,26,52)"/><line x1="8.57" y1="13.18" x2="42.63" y2="13.18" stroke="rgb(179,149,246)" stroke-width="1.44" stroke-linecap="butt"/><line x1="8.57" y1="21.97" x2="42.63" y2="21.97" stroke="rgb(179,149,246)" stroke-width="1.44" stroke-linecap="butt"/><line x1="8.57" y1="30.75" x2="42.63" y2="30.75" stroke="rgb(179,149,246)" stroke-width="1.44" stroke-linecap="butt"/><line x1="8.57" y1="39.54" x2="42.63" y2="39.54" stroke="rgb(179,149,246)" stroke-width="1.44" stroke-linecap="butt"/></g><g transform="translate(12.80,241.51) skewY(26.565)"><rect x="0" y="0" width="51.20" height="61.51" fill="rgb(56,47,94)"/><line x1="10.51" y1="26.91" x2="40.69" y2="26.91" stroke="rgb(214,191,239)" stroke-width="1.15" stroke-linecap="butt" stroke-dasharray="7.71,2.37"/><line x1="10.51" y1="34.60" x2="40.69" y2="34.60" stroke="rgb(214,191,239)" stroke-width="1.15" stroke-linecap="butt" stroke-dasharray="7.71,2.37"/><line x1="10.51" y1="42.29" x2="40.69" y2="42.29" stroke="rgb(214,191,239)" stroke-width="1.15" stroke-linecap="butt" stroke-dasharray="7.71,2.37"/><line x1="10.51" y1="49.98" x2="40.69" y2="49.98" stroke="rgb(214,191,239)" stroke-width="1.15" stroke-linecap="butt" stroke-dasharray="7.71,2.37"/></g><rect x="6.40" y="6.40" width="51.20" height="51.20" fill="rgb(97,85,152)" transform="matrix(1,0.5000,-1,0.5000,64.00,209.51)"/><g transform="translate(64.00,201.61) skewY(-26.565)"><rect x="0" y="0" width="51.20" height="65.50" fill="rgb(33,26,52)"/><line x1="10.97" y1="14.34" x2="10.97" y2="51.17" stroke="rgb(198,170,235)" stroke-width="1.55" stroke-linecap="butt"/><line x1="18.29" y1="14.34" x2="18.29" y2="51.17" stroke="rgb(198,170,235)" stroke-width="1.55" stroke-linecap="butt"/><line x1="25.60" y1="14.34" x2="25.60" y2="51.17" stroke="rgb(198,170,235)" stroke-width="1.55" stroke-linecap="butt"/></g><g transform="translate(12.80,176.01) skewY(26.565)"><rect x="0" y="0" width="51.20" height="65.50" fill="rgb(59,47,94)"/><line x1="9.60" y1="9.84" x2="9.60" y2="55.67" stroke="rgb(181,138,238)" stroke-width="1.22" stroke-linecap="butt" stroke-dasharray="4.25,3.78"/><line x1="16.00" y1="9.84" x2="16.00" y2="55.67" stroke="rgb(181,138,238)" stroke-width="1.22" stroke-linecap="butt" stroke-dasharray="4.25,3.78"/><line x1="22.40" y1="9.84" x2="22.40" y2="55.67" stroke="rgb(181,138,238)" stroke-width="1.22" stroke-linecap="butt" stroke-dasharray="4.25,3.78"/><line x1="28.80" y1="9.84" x2="28.80" y2="55.67" stroke="rgb(181,138,238)" stroke-width="1.22" stroke-linecap="butt" stroke-dasharray="4.25,3.78"/><line x1="35.20" y1="9.84" x2="35.20" y2="55.67" stroke="rgb(181,138,238)" stroke-width="1.22" stroke-linecap="butt" stroke-dasharray="4.25,3.78"/><line x1="41.60" y1="9.84" x2="41.60" y2="55.67" stroke="rgb(181,138,238)" stroke-width="1.22" stroke-linecap="butt" stroke-dasharray="4.25,3.78"/></g><rect x="6.40" y="6.40" width="51.20" height="51.20" fill="rgb(96,80,143)" transform="matrix(1,0.5000,-1,0.5000,64.00,144.01)"/><g transform="translate(64.00,117.08) skewY(-26.565)"><rect x="0" y="0" width="38.96" height="78.41" fill="rgb(31,26,52)"/><line x1="8.33" y1="16.80" x2="30.64" y2="16.80" stroke="rgb(176,137,237)" stroke-width="2.85" stroke-linecap="butt"/><line x1="8.33" y1="28.00" x2="30.64" y2="28.00" stroke="rgb(176,137,237)" stroke-width="2.85" stroke-linecap="butt"/><line x1="8.33" y1="39.21" x2="30.64" y2="39.21" stroke="rgb(176,137,237)" stroke-width="2.85" stroke-linecap="butt"/><line x1="8.33" y1="50.41" x2="30.64" y2="50.41" stroke="rgb(176,137,237)" stroke-width="2.85" stroke-linecap="butt"/><line x1="8.33" y1="61.61" x2="30.64" y2="61.61" stroke="rgb(176,137,237)" stroke-width="2.85" stroke-linecap="butt"/></g><g transform="translate(25.04,97.60) skewY(26.565)"><rect x="0" y="0" width="38.96" height="78.41" fill="rgb(56,47,94)"/><line x1="3.25" y1="16.93" x2="3.25" y2="61.49" stroke="rgb(182,138,248)" stroke-width="2.6" stroke-linecap="butt" stroke-dasharray="8.47,3.01"/><line x1="9.74" y1="16.93" x2="9.74" y2="61.49" stroke="rgb(182,138,248)" stroke-width="2.6" stroke-linecap="butt" stroke-dasharray="8.47,3.01"/><line x1="16.23" y1="16.93" x2="16.23" y2="61.49" stroke="rgb(182,138,248)" stroke-width="2.6" stroke-linecap="butt" stroke-dasharray="8.47,3.01"/><line x1="22.73" y1="16.93" x2="22.73" y2="61.49" stroke="rgb(182,138,248)" stroke-width="2.6" stroke-linecap="butt" stroke-dasharray="8.47,3.01"/><line x1="29.22" y1="16.93" x2="29.22" y2="61.49" stroke="rgb(182,138,248)" stroke-width="2.6" stroke-linecap="butt" stroke-dasharray="8.47,3.01"/></g><rect x="12.52" y="12.52" width="38.96" height="38.96" fill="rgb(88,77,137)" transform="matrix(1,0.5000,-1,0.5000,64.00,65.60)"/><g transform="translate(64.00,41.23) skewY(-26.565)"><rect x="0" y="0" width="25.42" height="69.08" fill="rgb(34,26,52)"/><line x1="1.59" y1="12.33" x2="1.59" y2="56.75" stroke="rgb(162,137,243)" stroke-width="2.09" stroke-linecap="butt"/><line x1="4.77" y1="12.33" x2="4.77" y2="56.75" stroke="rgb(162,137,243)" stroke-width="2.09" stroke-linecap="butt"/><line x1="7.94" y1="12.33" x2="7.94" y2="56.75" stroke="rgb(162,137,243)" stroke-width="2.09" stroke-linecap="butt"/><line x1="11.12" y1="12.33" x2="11.12" y2="56.75" stroke="rgb(162,137,243)" stroke-width="2.09" stroke-linecap="butt"/><line x1="14.30" y1="12.33" x2="14.30" y2="56.75" stroke="rgb(162,137,243)" stroke-width="2.09" stroke-linecap="butt"/><line x1="17.48" y1="12.33" x2="17.48" y2="56.75" stroke="rgb(162,137,243)" stroke-width="2.09" stroke-linecap="butt"/><line x1="20.65" y1="12.33" x2="20.65" y2="56.75" stroke="rgb(162,137,243)" stroke-width="2.09" stroke-linecap="butt"/><line x1="23.83" y1="12.33" x2="23.83" y2="56.75" stroke="rgb(162,137,243)" stroke-width="2.09" stroke-linecap="butt"/></g><g transform="translate(38.58,28.52) skewY(26.565)"><rect x="0" y="0" width="25.42" height="69.08" fill="rgb(61,47,94)"/><line x1="14.83" y1="11.14" x2="14.83" y2="57.94" stroke="rgb(206,180,249)" stroke-width="1.78" stroke-linecap="butt" stroke-dasharray="6.38,4.62"/><line x1="19.07" y1="11.14" x2="19.07" y2="57.94" stroke="rgb(206,180,249)" stroke-width="1.78" stroke-linecap="butt" stroke-dasharray="6.38,4.62"/><line x1="23.30" y1="11.14" x2="23.30" y2="57.94" stroke="rgb(206,180,249)" stroke-width="1.78" stroke-linecap="butt" stroke-dasharray="6.38,4.62"/></g><rect x="19.29" y="19.29" width="25.42" height="25.42" fill="rgb(93,76,136)" transform="matrix(1,0.5000,-1,0.5000,64.00,-3.48)"/><line x1="64.00" y1="28.52" x2="64.00" y2="8.22" stroke="#bbb" stroke-width="1.4" stroke-linecap="round"/><circle cx="64.00" cy="8.22" r="1.7" fill="#ff5b3b"/><g transform="translate(60.68,21.01) skewY(-26.565)"><rect x="0" y="0" width="7.62" height="7.69" fill="rgb(28,26,38)"/></g><g transform="translate(53.06,17.20) skewY(26.565)"><rect x="0" y="0" width="7.62" height="7.69" fill="rgb(44,40,59)"/></g><rect x="22.90" y="26.22" width="7.62" height="7.62" fill="rgb(57,51,76)" transform="matrix(1,0.5000,-1,0.5000,64.00,-11.17)"/></g></svg>