<svg xmlns="http://www.w3.org/2000/svg" version="1.1" width="128" height="131"><g><rect x="8.64" y="8.64" width="46.72" height="24.60" fill="rgba(0,0,0,0.20)" transform="matrix(1,0.5000,-1,0.5000,66.50,65.64)"/><g transform="translate(86.12,76.51) skewY(-26.565)"><rect x="0" y="0" width="18.84" height="28.05" fill="rgb(28,21,45)"/><line x1="1.35" y1="5.56" x2="1.35" y2="22.49" stroke="rgb(195,115,245)" stroke-width="1.23" stroke-linecap="butt" stroke-dasharray="3.27,2.57"/><line x1="4.04" y1="5.56" x2="4.04" y2="22.49" stroke="rgb(195,115,245)" stroke-width="1.23" stroke-linecap="butt" stroke-dasharray="3.27,2.57"/><line x1="6.73" y1="5.56" x2="6.73" y2="22.49" stroke="rgb(195,115,245)" stroke-width="1.23" stroke-linecap="butt" stroke-dasharray="3.27,2.57"/><line x1="9.42" y1="5.56" x2="9.42" y2="22.49" stroke="rgb(195,115,245)" stroke-width="1.23" stroke-linecap="butt" stroke-dasharray="3.27,2.57"/><line x1="12.11" y1="5.56" x2="12.11" y2="22.49" stroke="rgb(195,115,245)" stroke-width="1.23" stroke-linecap="butt" stroke-dasharray="3.27,2.57"/></g><g transform="translate(45.16,56.03) skewY(26.565)"><rect x="0" y="0" width="40.96" height="28.05" fill="rgb(52,38,82)"/><line x1="17.07" y1="5.20" x2="17.07" y2="22.86" stroke="rgb(191,160,229)" stroke-width="2.19" stroke-linecap="butt" stroke-dasharray="3.07,2.03"/></g><rect x="11.52" y="11.52" width="40.96" height="18.84" fill="rgb(85,66,127)" transform="matrix(1,0.5000,-1,0.5000,64.00,35.09)"/><g transform="translate(86.12,36.02) skewY(-26.565)"><rect x="0" y="0" width="18.84" height="40.49" fill="rgb(26,21,45)"/><line x1="1.57" y1="7.80" x2="1.57" y2="32.69" stroke="rgb(223,191,249)" stroke-width="2.04" stroke-linecap="butt" stroke-dasharray="8.19,2.08"/><line x1="4.71" y1="7.80" x2="4.71" y2="32.69" stroke="rgb(223,191,249)" stroke-width="2.04" stroke-linecap="butt" stroke-dasharray="8.19,2.08"/><line x1="7.85" y1="7.80" x2="7.85" y2="32.69" stroke="rgb(223,191,249)" stroke-width="2.04" stroke-linecap="butt" stroke-dasharray="8.19,2.08"/><line x1="10.99" y1="7.80" x2="10.99" y2="32.69" stroke="rgb(223,191,249)" stroke-width="2.04" stroke-linecap="butt" stroke-dasharray="8.19,2.08"/></g><g transform="translate(45.16,15.54) skewY(26.565)"><rect x="0" y="0" width="40.96" height="40.49" fill="rgb(47,38,82)"/><line x1="12.80" y1="9.07" x2="12.80" y2="31.43" stroke="rgb(221,189,245)" stroke-width="1.76" stroke-linecap="butt" stroke-dasharray="7.92,5.51"/><line x1="17.92" y1="9.07" x2="17.92" y2="31.43" stroke="rgb(221,189,245)" stroke-width="1.76" stroke-linecap="butt" stroke-dasharray="7.92,5.51"/><line x1="23.04" y1="9.07" x2="23.04" y2="31.43" stroke="rgb(221,189,245)" stroke-width="1.76" stroke-linecap="butt" stroke-dasharray="7.92,5.51"/><line x1="28.16" y1="9.07" x2="28.16" y2="31.43" stroke="rgb(221,189,245)" stroke-width="1.76" stroke-linecap="butt" stroke-dasharray="7.92,5.51"/></g><rect x="11.52" y="11.52" width="40.96" height="18.84" fill="rgb(88,74,142)" transform="matrix(1,0.5000,-1,0.5000,64.00,-5.40)"/><rect x="8.64" y="30.75" width="46.72" height="24.61" fill="rgba(0,0,0,0.20)" transform="matrix(1,0.5000,-1,0.5000,66.50,65.64)"/><g transform="translate(64.00,72.48) skewY(-26.565)"><rect x="0" y="0" width="18.85" height="43.14" fill="rgb(27,21,45)"/><line x1="3.54" y1="10.01" x2="3.54" y2="33.14" stroke="rgb(211,173,250)" stroke-width="1.53" stroke-linecap="butt"/><line x1="5.89" y1="10.01" x2="5.89" y2="33.14" stroke="rgb(211,173,250)" stroke-width="1.53" stroke-linecap="butt"/><line x1="8.25" y1="10.01" x2="8.25" y2="33.14" stroke="rgb(211,173,250)" stroke-width="1.53" stroke-linecap="butt"/><line x1="10.61" y1="10.01" x2="10.61" y2="33.14" stroke="rgb(211,173,250)" stroke-width="1.53" stroke-linecap="butt"/><line x1="12.96" y1="10.01" x2="12.96" y2="33.14" stroke="rgb(211,173,250)" stroke-width="1.53" stroke-linecap="butt"/><line x1="15.32" y1="10.01" x2="15.32" y2="33.14" stroke="rgb(211,173,250)" stroke-width="1.53" stroke-linecap="butt"/><line x1="17.68" y1="10.01" x2="17.68" y2="33.14" stroke="rgb(211,173,250)" stroke-width="1.53" stroke-linecap="butt"/></g><g transform="translate(23.04,52.00) skewY(26.565)"><rect x="0" y="0" width="40.96" height="43.14" fill="rgb(49,38,82)"/><line x1="7.93" y1="3.60" x2="33.03" y2="3.60" stroke="rgb(205,186,242)" stroke-width="1.98" stroke-linecap="butt"/><line x1="7.93" y1="10.79" x2="33.03" y2="10.79" stroke="rgb(205,186,242)" stroke-width="1.98" stroke-linecap="butt"/><line x1="7.93" y1="17.98" x2="33.03" y2="17.98" stroke="rgb(205,186,242)" stroke-width="1.98" stroke-linecap="butt"/><line x1="7.93" y1="25.17" x2="33.03" y2="25.17" stroke="rgb(205,186,242)" stroke-width="1.98" stroke-linecap="butt"/><line x1="7.93" y1="32.36" x2="33.03" y2="32.36" stroke="rgb(205,186,242)" stroke-width="1.98" stroke-linecap="butt"/></g><rect x="11.52" y="33.63" width="40.96" height="18.85" fill="rgb(84,68,132)" transform="matrix(1,0.5000,-1,0.5000,64.00,20.00)"/></g></svg>