<svg xmlns="http://www.w3.org/2000/svg" xmlns:xlink="http://www.w3.org/1999/xlink" version="1.1" width="128" height="224"><defs/><g><path d="M66,172.24 L110.8,194.64 L66,217.04 L21.2,194.64 Z" fill="rgb(0,0,0)" fill-opacity="0.2"/><path d="M108.8,192.64 L64,215.04 L64,95.04 L108.8,72.64 Z" fill="#9d8de0"/><path d="M108.8,192.64 L64,215.04 L64,95.04 L108.8,72.64 Z" fill="none" stroke="rgb(12,0,40)" stroke-opacity="0.32" stroke-width="1"/><path d="M19.2,192.64 L64,215.04 L64,95.04 L19.2,72.64 Z" fill="#5c4d99"/><path d="M19.2,192.64 L64,215.04 L64,95.04 L19.2,72.64 Z" fill="none" stroke="rgb(12,0,40)" stroke-opacity="0.32" stroke-width="1"/><path d="M64,50.24 L108.8,72.64 L64,95.04 L19.2,72.64 Z" fill="#d8d2f7"/><path d="M64,50.24 L108.8,72.64 L64,95.04 L19.2,72.64 Z" fill="none" stroke="rgb(12,0,40)" stroke-opacity="0.32" stroke-width="1"/><path d="M105.81,82.13 L96.85,86.61 L96.85,110.61 L105.81,106.13 Z" fill="#c9a8ff"/><path d="M90.88,89.6 L81.92,94.08 L81.92,118.08 L90.88,113.6 Z" fill="#c9a8ff"/><path d="M75.95,97.07 L66.99,101.55 L66.99,125.55 L75.95,121.07 Z" fill="#c9a8ff"/><path d="M105.81,122.13 L96.85,126.61 L96.85,150.61 L105.81,146.13 Z" fill="#c9a8ff"/><path d="M90.88,129.6 L81.92,134.08 L81.92,158.08 L90.88,153.6 Z" fill="#c9a8ff"/><path d="M75.95,137.07 L66.99,141.55 L66.99,165.55 L75.95,161.07 Z" fill="#c9a8ff"/><path d="M105.81,162.13 L96.85,166.61 L96.85,190.61 L105.81,186.13 Z" fill="#c9a8ff"/><path d="M90.88,169.6 L81.92,174.08 L81.92,198.08 L90.88,193.6 Z" fill="#c9a8ff"/><path d="M75.95,177.07 L66.99,181.55 L66.99,205.55 L75.95,201.07 Z" fill="#c9a8ff"/><path d="M22.19,82.13 L31.15,86.61 L31.15,110.61 L22.19,106.13 Z" fill="#c9a8ff"/><path d="M37.12,89.6 L46.08,94.08 L46.08,118.08 L37.12,113.6 Z" fill="#c9a8ff"/><path d="M52.05,97.07 L61.01,101.55 L61.01,125.55 L52.05,121.07 Z" fill="#c9a8ff"/><path d="M22.19,122.13 L31.15,126.61 L31.15,150.61 L22.19,146.13 Z" fill="#c9a8ff"/><path d="M37.12,129.6 L46.08,134.08 L46.08,158.08 L37.12,153.6 Z" fill="#c9a8ff"/><path d="M52.05,137.07 L61.01,141.55 L61.01,165.55 L52.05,161.07 Z" fill="#c9a8ff"/><path d="M22.19,162.13 L31.15,166.61 L31.15,190.61 L22.19,186.13 Z" fill="#c9a8ff"/><path d="M37.12,169.6 L46.08,174.08 L46.08,198.08 L37.12,193.6 Z" fill="#c9a8ff"/><path d="M52.05,177.07 L61.01,181.55 L61.01,205.55 L52.05,201.07 Z" fill="#c9a8ff"/></g></svg>