<svg xmlns:xlink="http://www.w3.org/1999/xlink" version="1.1" xmlns="http://www.w3.org/2000/svg" width="128" height="224"><defs/><g><g transform="translate(2,2)"><path fill="rgb(0,0,0)" stroke="none" paint-order="stroke fill markers" d=" M 64 170.24 L 108.8 192.64 L 64 215.04 L 19.200000000000003 192.64 Z" fill-opacity="0.20"/></g><path fill="#aebccb" stroke="rgb(0,0,0)" paint-order="fill stroke markers" d=" M 108.8 192.64 L 64 215.04 L 64 107.03999999999999 L 108.8 84.63999999999999 Z" stroke-opacity="0.30" stroke-miterlimit="10"/><path fill="#7c8a9a" stroke="rgb(0,0,0)" paint-order="fill stroke markers" d=" M 19.200000000000003 192.64 L 64 215.04 L 64 107.03999999999999 L 19.200000000000003 84.63999999999999 Z" stroke-opacity="0.30" stroke-miterlimit="10"/><path fill="#dde6ee" stroke="rgb(0,0,0)" paint-order="fill stroke markers" d=" M 64 62.24000000000001 L 108.8 84.63999999999999 L 64 107.03999999999999 L 19.200000000000003 84.63999999999999 Z" stroke-opacity="0.30" stroke-miterlimit="10"/><path fill="#bfe6f5" stroke="none" paint-order="stroke fill markers" d=" M 107.008 88.41599999999998 L 88.192 97.82399999999998 L 88.192 128.064 L 107.008 118.65599999999998 Z"/><path fill="#bfe6f5" stroke="none" paint-order="stroke fill markers" d=" M 84.608 99.61599999999999 L 65.792 109.02399999999999 L 65.792 139.264 L 84.608 129.856 Z"/><path fill="#bfe6f5" stroke="none" paint-order="stroke fill markers" d=" M 107.008 124.416 L 88.192 133.82399999999998 L 88.192 164.064 L 107.008 154.65599999999998 Z"/><path fill="#bfe6f5" stroke="none" paint-order="stroke fill markers" d=" M 84.608 135.61599999999999 L 65.792 145.024 L 65.792 175.264 L 84.608 165.856 Z"/><path fill="#bfe6f5" stroke="none" paint-order="stroke fill markers" d=" M 107.008 160.416 L 88.192 169.82399999999998 L 88.192 200.06399999999996 L 107.008 190.65599999999995 Z"/><path fill="#bfe6f5" stroke="none" paint-order="stroke fill markers" d=" M 84.608 171.61599999999999 L 65.792 181.024 L 65.792 211.264 L 84.608 201.856 Z"/><path fill="#bfe6f5" stroke="none" paint-order="stroke fill markers" d=" M 20.992000000000004 88.41599999999998 L 39.80800000000001 97.82399999999998 L 39.80800000000001 128.064 L 20.992000000000004 118.65599999999998 Z"/><path fill="#bfe6f5" stroke="none" paint-order="stroke fill markers" d=" M 43.392 99.61599999999999 L 62.208 109.02399999999999 L 62.208 139.264 L 43.392 129.856 Z"/><path fill="#bfe6f5" stroke="none" paint-order="stroke fill markers" d=" M 20.992000000000004 124.416 L 39.80800000000001 133.82399999999998 L 39.80800000000001 164.064 L 20.992000000000004 154.65599999999998 Z"/><path fill="#bfe6f5" stroke="none" paint-order="stroke fill markers" d=" M 43.392 135.61599999999999 L 62.208 145.024 L 62.208 175.264 L 43.392 165.856 Z"/><path fill="#bfe6f5" stroke="none" paint-order="stroke fill markers" d=" M 20.992000000000004 160.416 L 39.80800000000001 169.82399999999998 L 39.80800000000001 200.06399999999996 L 20.992000000000004 190.65599999999995 Z"/><path fill="#bfe6f5" stroke="none" paint-order="stroke fill markers" d=" M 43.392 171.61599999999999 L 62.208 181.024 L 62.208 211.264 L 43.392 201.856 Z"/></g></svg>