<svg xmlns="http://www.w3.org/2000/svg" xmlns:xlink="http://www.w3.org/1999/xlink" version="1.1" width="128" height="288"><defs/><g><path d="M64.72,233.04 L117.2,259.28 L67.28,284.24 L14.8,258 Z" fill="rgb(0,0,0)" fill-opacity="0.2"/><path d="M115.2,257.28 L65.28,282.24 L65.28,223.36 L115.2,198.4 Z" fill="#403510"/><path d="M115.2,257.28 L65.28,282.24 L65.28,223.36 L115.2,198.4 Z" fill="none" stroke="rgb(0,0,0)" stroke-opacity="0.5" stroke-width="1"/><path d="M12.8,256 L65.28,282.24 L65.28,223.36 L12.8,197.12 Z" fill="#261f0a"/><path d="M12.8,256 L65.28,282.24 L65.28,223.36 L12.8,197.12 Z" fill="none" stroke="rgb(0,0,0)" stroke-opacity="0.5" stroke-width="1"/><path d="M62.72,172.16 L115.2,198.4 L65.28,223.36 L12.8,197.12 Z" fill="#5a4a16"/><path d="M62.72,172.16 L115.2,198.4 L65.28,223.36 L12.8,197.12 Z" fill="none" stroke="rgb(0,0,0)" stroke-opacity="0.5" stroke-width="1"/><path d="M72.96,186.24 L60.16,192.64 L60.16,91.44 L72.96,85.04 Z" fill="rgb(39,41,36)"/><path d="M72.96,186.24 L60.16,192.64 L60.16,91.44 L72.96,85.04 Z" fill="none" stroke="rgb(0,0,0)" stroke-opacity="0.4" stroke-width="1"/><path d="M47.36,186.24 L60.16,192.64 L60.16,91.44 L47.36,85.04 Z" fill="rgb(19,21,16)"/><path d="M47.36,186.24 L60.16,192.64 L60.16,91.44 L47.36,85.04 Z" fill="none" stroke="rgb(0,0,0)" stroke-opacity="0.4" stroke-width="1"/><path d="M60.16,78.64 L72.96,85.04 L60.16,91.44 L47.36,85.04 Z" fill="#363833"/><path d="M60.16,78.64 L72.96,85.04 L60.16,91.44 L47.36,85.04 Z" fill="none" stroke="rgb(0,0,0)" stroke-opacity="0.4" stroke-width="1"/><path d="M88.32,193.92 L75.52,200.32 L75.52,99.12 L88.32,92.72 Z" fill="rgb(39,41,36)"/><path d="M88.32,193.92 L75.52,200.32 L75.52,99.12 L88.32,92.72 Z" fill="none" stroke="rgb(0,0,0)" stroke-opacity="0.4" stroke-width="1"/><path d="M62.72,193.92 L75.52,200.32 L75.52,99.12 L62.72,92.72 Z" fill="rgb(19,21,16)"/><path d="M62.72,193.92 L75.52,200.32 L75.52,99.12 L62.72,92.72 Z" fill="none" stroke="rgb(0,0,0)" stroke-opacity="0.4" stroke-width="1"/><path d="M75.52,86.32 L88.32,92.72 L75.52,99.12 L62.72,92.72 Z" fill="#363833"/><path d="M75.52,86.32 L88.32,92.72 L75.52,99.12 L62.72,92.72 Z" fill="none" stroke="rgb(0,0,0)" stroke-opacity="0.4" stroke-width="1"/><path d="M99.84,199.04 L93.44,202.24 L93.44,45.84 L99.84,42.64 Z" fill="rgb(67,33,13)"/><path d="M99.84,199.04 L93.44,202.24 L93.44,45.84 L99.84,42.64 Z" fill="none" stroke="rgb(0,0,0)" stroke-opacity="0.4" stroke-width="1"/><path d="M87.04,199.04 L93.44,202.24 L93.44,45.84 L87.04,42.64 Z" fill="rgb(47,13,0)"/><path d="M87.04,199.04 L93.44,202.24 L93.44,45.84 L87.04,42.64 Z" fill="none" stroke="rgb(0,0,0)" stroke-opacity="0.4" stroke-width="1"/><path d="M93.44,39.44 L99.84,42.64 L93.44,45.84 L87.04,42.64 Z" fill="#52301c"/><path d="M93.44,39.44 L99.84,42.64 L93.44,45.84 L87.04,42.64 Z" fill="none" stroke="rgb(0,0,0)" stroke-opacity="0.4" stroke-width="1"/></g></svg>