<svg xmlns="http://www.w3.org/2000/svg" xmlns:xlink="http://www.w3.org/1999/xlink" version="1.1" width="128"
    height="224">
    <defs />
    <g>
        <path d="M64.72,172.88 L108.24,194.64 L67.28,215.12 L23.76,193.36 Z" fill="rgb(0,0,0)" fill-opacity="0.2" />
        <path d="M106.24,192.64 L65.28,213.12 L65.28,129.12 L106.24,108.64 Z" fill="#9c7d1e" />
        <path d="M106.24,192.64 L65.28,213.12 L65.28,129.12 L106.24,108.64 Z" fill="none" stroke="rgb(0,0,0)"
            stroke-opacity="0.4" stroke-width="1" />
        <path d="M21.76,191.36 L65.28,213.12 L65.28,129.12 L21.76,107.36 Z" fill="#5e4912" />
        <path d="M21.76,191.36 L65.28,213.12 L65.28,129.12 L21.76,107.36 Z" fill="none" stroke="rgb(0,0,0)"
            stroke-opacity="0.4" stroke-width="1" />
        <path d="M62.72,86.88 L106.24,108.64 L65.28,129.12 L21.76,107.36 Z" fill="#c9a227" />
        <path d="M62.72,86.88 L106.24,108.64 L65.28,129.12 L21.76,107.36 Z" fill="none" stroke="rgb(0,0,0)"
            stroke-opacity="0.4" stroke-width="1" />
        <path d="M104.19,118.06 L98.05,121.14 L98.05,146.34 L104.19,143.26 Z" fill="#ffb238" />
        <path d="M93.95,123.18 L87.81,126.26 L87.81,151.46 L93.95,148.38 Z" fill="#ffb238" />
        <path d="M83.71,128.3 L77.57,131.38 L77.57,156.58 L83.71,153.5 Z" fill="#ffb238" />
        <path d="M73.47,133.42 L67.33,136.5 L67.33,161.7 L73.47,158.62 Z" fill="#ffb238" />
        <path d="M104.19,160.06 L98.05,163.14 L98.05,188.34 L104.19,185.26 Z" fill="#ffb238" />
        <path d="M93.95,165.18 L87.81,168.26 L87.81,193.46 L93.95,190.38 Z" fill="#ffb238" />
        <path d="M83.71,170.3 L77.57,173.38 L77.57,198.58 L83.71,195.5 Z" fill="#ffb238" />
        <path d="M73.47,175.42 L67.33,178.5 L67.33,203.7 L73.47,200.62 Z" fill="#ffb238" />
        <path d="M101.12,109.28 L92.16,113.76 L92.16,29.76 L101.12,25.28 Z" fill="rgb(141,75,35)" />
        <path d="M101.12,109.28 L92.16,113.76 L92.16,29.76 L101.12,25.28 Z" fill="none" stroke="rgb(0,0,0)"
            stroke-opacity="0.4" stroke-width="1" />
        <path d="M83.2,109.28 L92.16,113.76 L92.16,29.76 L83.2,25.28 Z" fill="rgb(121,55,15)" />
        <path d="M83.2,109.28 L92.16,113.76 L92.16,29.76 L83.2,25.28 Z" fill="none" stroke="rgb(0,0,0)"
            stroke-opacity="0.4" stroke-width="1" />
        <path d="M92.16,20.8 L101.12,25.28 L92.16,29.76 L83.2,25.28 Z" fill="#9c5a32" />
        <path d="M92.16,20.8 L101.12,25.28 L92.16,29.76 L83.2,25.28 Z" fill="none" stroke="rgb(0,0,0)"
            stroke-opacity="0.4" stroke-width="1" />
        <path d="M101.76,67.28 L92.16,72.08 L92.16,68.08 L101.76,63.28 Z" fill="none" stroke="rgb(0,0,0)"
            stroke-opacity="0.4" stroke-width="1" />
        <path d="M82.56,67.28 L92.16,72.08 L92.16,68.08 L82.56,63.28 Z" fill="none" stroke="rgb(0,0,0)"
            stroke-opacity="0.4" stroke-width="1" />
        <path d="M92.16,58.48 L101.76,63.28 L92.16,68.08 L82.56,63.28 Z" fill="none" stroke="rgb(0,0,0)"
            stroke-opacity="0.4" stroke-width="1" />
    </g>
</svg>