<svg xmlns="http://www.w3.org/2000/svg" xmlns:xlink="http://www.w3.org/1999/xlink" version="1.1" width="128" height="224"><defs/><g><path d="M55.76,173.52 L106.96,199.12 L76.24,214.48 L25.04,188.88 Z" fill="rgb(0,0,0)" fill-opacity="0.2"/><path d="M104.96,197.12 L74.24,212.48 L74.24,140.48 L104.96,125.12 Z" fill="#403510"/><path d="M104.96,197.12 L74.24,212.48 L74.24,140.48 L104.96,125.12 Z" fill="none" stroke="rgb(0,0,0)" stroke-opacity="0.25" stroke-width="1"/><path d="M23.04,186.88 L74.24,212.48 L74.24,140.48 L23.04,114.88 Z" fill="#261f0a"/><path d="M23.04,186.88 L74.24,212.48 L74.24,140.48 L23.04,114.88 Z" fill="none" stroke="rgb(0,0,0)" stroke-opacity="0.25" stroke-width="1"/><path d="M53.76,99.52 L104.96,125.12 L74.24,140.48 L23.04,114.88 Z" fill="#5a4a16"/><path d="M53.76,99.52 L104.96,125.12 L74.24,140.48 L23.04,114.88 Z" fill="none" stroke="rgb(0,0,0)" stroke-opacity="0.25" stroke-width="1"/><path d="M35.58,121.15 L35.58,193.15" fill="none" stroke="rgb(54,56,51)" stroke-width="1.89" stroke-dasharray="8.97,5.32"/><path d="M44.29,125.5 L44.29,197.5" fill="none" stroke="rgb(56,57,52)" stroke-width="2.16" stroke-dasharray="6.23,4.45"/><path d="M52.99,129.86 L52.99,201.86" fill="none" stroke="rgb(52,54,49)" stroke-width="2.65" stroke-dasharray="9.39,3.57"/><path d="M61.7,134.21 L61.7,206.21" fill="none" stroke="rgb(55,57,52)" stroke-width="1.83" stroke-dasharray="7.56,2.23"/></g></svg>