<svg xmlns="http://www.w3.org/2000/svg" version="1.1" width="128" height="127"><g><rect x="3.52" y="3.52" width="33.54" height="38.25" fill="rgba(0,0,0,0.20)" transform="matrix(1,0.5000,-1,0.5000,66.50,56.52)"/><g transform="translate(59.29,66.13) skewY(-26.565)"><rect x="0" y="0" width="32.49" height="24.42" fill="rgb(37,33,15)"/><line x1="11.60" y1="3.76" x2="11.60" y2="20.66" stroke="rgb(239,177,132)" stroke-width="1.37" stroke-linecap="butt"/><line x1="16.24" y1="3.76" x2="16.24" y2="20.66" stroke="rgb(239,177,132)" stroke-width="1.37" stroke-linecap="butt"/><line x1="20.89" y1="3.76" x2="20.89" y2="20.66" stroke="rgb(239,177,132)" stroke-width="1.37" stroke-linecap="butt"/><line x1="25.53" y1="3.76" x2="25.53" y2="20.66" stroke="rgb(239,177,132)" stroke-width="1.37" stroke-linecap="butt"/></g><g transform="translate(31.51,52.25) skewY(26.565)"><rect x="0" y="0" width="27.78" height="24.42" fill="rgb(68,61,28)"/><line x1="6.50" y1="9.16" x2="21.28" y2="9.16" stroke="rgb(241,165,93)" stroke-width="1.21" stroke-linecap="butt"/></g><rect x="6.40" y="6.40" width="27.78" height="32.49" fill="rgb(110,99,53)" transform="matrix(1,0.5000,-1,0.5000,64.00,29.60)"/><g transform="translate(59.29,42.99) skewY(-26.565)"><rect x="0" y="0" width="32.49" height="23.14" fill="rgb(37,32,15)"/><line x1="16.24" y1="3.24" x2="16.24" y2="19.90" stroke="rgb(247,172,65)" stroke-width="1.21" stroke-linecap="butt"/><line x1="20.89" y1="3.24" x2="20.89" y2="19.90" stroke="rgb(247,172,65)" stroke-width="1.21" stroke-linecap="butt"/><line x1="25.53" y1="3.24" x2="25.53" y2="19.90" stroke="rgb(247,172,65)" stroke-width="1.21" stroke-linecap="butt"/><line x1="30.17" y1="3.24" x2="30.17" y2="19.90" stroke="rgb(247,172,65)" stroke-width="1.21" stroke-linecap="butt"/></g><g transform="translate(31.51,29.10) skewY(26.565)"><rect x="0" y="0" width="27.78" height="23.14" fill="rgb(68,59,28)"/><line x1="5.95" y1="5.15" x2="5.95" y2="17.99" stroke="rgb(252,207,123)" stroke-width="2.45" stroke-linecap="butt" stroke-dasharray="5.65,1.93"/><line x1="9.92" y1="5.15" x2="9.92" y2="17.99" stroke="rgb(252,207,123)" stroke-width="2.45" stroke-linecap="butt" stroke-dasharray="5.65,1.93"/><line x1="13.89" y1="5.15" x2="13.89" y2="17.99" stroke="rgb(252,207,123)" stroke-width="2.45" stroke-linecap="butt" stroke-dasharray="5.65,1.93"/></g><rect x="6.40" y="6.40" width="27.78" height="32.49" fill="rgb(110,97,53)" transform="matrix(1,0.5000,-1,0.5000,64.00,6.46)"/><rect x="33.86" y="3.52" width="26.62" height="38.25" fill="rgba(0,0,0,0.20)" transform="matrix(1,0.5000,-1,0.5000,66.50,56.52)"/><g transform="translate(82.71,73.69) skewY(-26.565)"><rect x="0" y="0" width="32.49" height="28.58" fill="rgb(37,33,15)"/><line x1="6.96" y1="5.28" x2="6.96" y2="23.30" stroke="rgb(251,168,81)" stroke-width="2.92" stroke-linecap="butt"/><line x1="11.60" y1="5.28" x2="11.60" y2="23.30" stroke="rgb(251,168,81)" stroke-width="2.92" stroke-linecap="butt"/><line x1="16.24" y1="5.28" x2="16.24" y2="23.30" stroke="rgb(251,168,81)" stroke-width="2.92" stroke-linecap="butt"/><line x1="20.89" y1="5.28" x2="20.89" y2="23.30" stroke="rgb(251,168,81)" stroke-width="2.92" stroke-linecap="butt"/><line x1="25.53" y1="5.28" x2="25.53" y2="23.30" stroke="rgb(251,168,81)" stroke-width="2.92" stroke-linecap="butt"/><line x1="30.17" y1="5.28" x2="30.17" y2="23.30" stroke="rgb(251,168,81)" stroke-width="2.92" stroke-linecap="butt"/></g><g transform="translate(61.86,63.26) skewY(26.565)"><rect x="0" y="0" width="20.86" height="28.58" fill="rgb(68,60,28)"/><line x1="3.35" y1="10.21" x2="17.50" y2="10.21" stroke="rgb(237,192,75)" stroke-width="1.83" stroke-linecap="butt"/><line x1="3.35" y1="14.29" x2="17.50" y2="14.29" stroke="rgb(237,192,75)" stroke-width="1.83" stroke-linecap="butt"/><line x1="3.35" y1="18.37" x2="17.50" y2="18.37" stroke="rgb(237,192,75)" stroke-width="1.83" stroke-linecap="butt"/></g><rect x="36.74" y="6.40" width="20.86" height="32.49" fill="rgb(110,99,53)" transform="matrix(1,0.5000,-1,0.5000,64.00,25.44)"/><g transform="translate(82.71,51.36) skewY(-26.565)"><rect x="0" y="0" width="32.49" height="22.33" fill="rgb(37,33,15)"/><line x1="7.07" y1="4.78" x2="25.42" y2="4.78" stroke="rgb(255,201,80)" stroke-width="1.65" stroke-linecap="butt"/><line x1="7.07" y1="7.97" x2="25.42" y2="7.97" stroke="rgb(255,201,80)" stroke-width="1.65" stroke-linecap="butt"/><line x1="7.07" y1="11.16" x2="25.42" y2="11.16" stroke="rgb(255,201,80)" stroke-width="1.65" stroke-linecap="butt"/><line x1="7.07" y1="14.35" x2="25.42" y2="14.35" stroke="rgb(255,201,80)" stroke-width="1.65" stroke-linecap="butt"/><line x1="7.07" y1="17.54" x2="25.42" y2="17.54" stroke="rgb(255,201,80)" stroke-width="1.65" stroke-linecap="butt"/></g><g transform="translate(61.86,40.93) skewY(26.565)"><rect x="0" y="0" width="20.86" height="22.33" fill="rgb(68,60,28)"/><line x1="7.82" y1="3.17" x2="7.82" y2="19.16" stroke="rgb(247,162,76)" stroke-width="1.33" stroke-linecap="butt"/></g><rect x="36.74" y="6.40" width="20.86" height="32.49" fill="rgb(110,98,53)" transform="matrix(1,0.5000,-1,0.5000,64.00,3.11)"/><g transform="translate(103.07,13.06) skewY(-26.565)"><rect x="0" y="0" width="6.08" height="24.41" fill="rgb(59,37,22)"/></g><g transform="translate(96.99,10.02) skewY(26.565)"><rect x="0" y="0" width="6.08" height="24.41" fill="rgb(96,59,36)"/></g><rect x="47.81" y="8.73" width="6.08" height="6.08" fill="rgb(117,80,56)" transform="matrix(1,0.5000,-1,0.5000,64.00,-21.30)"/><rect x="3.52" y="39.28" width="56.96" height="21.20" fill="rgba(0,0,0,0.20)" transform="matrix(1,0.5000,-1,0.5000,66.50,56.52)"/><g transform="translate(64.00,82.68) skewY(-26.565)"><rect x="0" y="0" width="15.44" height="28.94" fill="rgb(37,34,15)"/><line x1="6.43" y1="5.28" x2="6.43" y2="23.66" stroke="rgb(245,167,70)" stroke-width="2.07" stroke-linecap="butt"/><line x1="9.01" y1="5.28" x2="9.01" y2="23.66" stroke="rgb(245,167,70)" stroke-width="2.07" stroke-linecap="butt"/><line x1="11.58" y1="5.28" x2="11.58" y2="23.66" stroke="rgb(245,167,70)" stroke-width="2.07" stroke-linecap="butt"/><line x1="14.16" y1="5.28" x2="14.16" y2="23.66" stroke="rgb(245,167,70)" stroke-width="2.07" stroke-linecap="butt"/></g><g transform="translate(12.80,57.08) skewY(26.565)"><rect x="0" y="0" width="51.20" height="28.94" fill="rgb(68,61,28)"/><line x1="4.27" y1="4.93" x2="4.27" y2="24.01" stroke="rgb(234,169,78)" stroke-width="1.63" stroke-linecap="butt"/><line x1="12.80" y1="4.93" x2="12.80" y2="24.01" stroke="rgb(234,169,78)" stroke-width="1.63" stroke-linecap="butt"/><line x1="21.33" y1="4.93" x2="21.33" y2="24.01" stroke="rgb(234,169,78)" stroke-width="1.63" stroke-linecap="butt"/></g><rect x="6.40" y="42.16" width="51.20" height="15.44" fill="rgb(110,100,53)" transform="matrix(1,0.5000,-1,0.5000,64.00,25.08)"/></g></svg>