<svg xmlns="http://www.w3.org/2000/svg" version="1.1" width="128" height="180"><g><rect x="3.52" y="3.52" width="56.96" height="56.96" fill="rgba(0,0,0,0.20)" transform="matrix(1,0.5000,-1,0.5000,66.50,109.52)"/><g transform="translate(64.00,124.38) skewY(-26.565)"><rect x="0" y="0" width="51.20" height="40.24" fill="rgb(42,35,19)"/><line x1="11.92" y1="10.06" x2="39.28" y2="10.06" stroke="rgb(251,208,88)" stroke-width="3.19" stroke-linecap="butt"/><line x1="11.92" y1="16.77" x2="39.28" y2="16.77" stroke="rgb(251,208,88)" stroke-width="3.19" stroke-linecap="butt"/><line x1="11.92" y1="23.47" x2="39.28" y2="23.47" stroke="rgb(251,208,88)" stroke-width="3.19" stroke-linecap="butt"/></g><g transform="translate(12.80,98.78) skewY(26.565)"><rect x="0" y="0" width="51.20" height="40.24" fill="rgb(76,63,35)"/><line x1="11.73" y1="15.09" x2="39.47" y2="15.09" stroke="rgb(234,173,95)" stroke-width="1.67" stroke-linecap="butt" stroke-dasharray="4.28,3.10"/><line x1="11.73" y1="25.15" x2="39.47" y2="25.15" stroke="rgb(234,173,95)" stroke-width="1.67" stroke-linecap="butt" stroke-dasharray="4.28,3.10"/></g><rect x="6.40" y="6.40" width="51.20" height="51.20" fill="rgb(116,99,61)" transform="matrix(1,0.5000,-1,0.5000,64.00,66.78)"/><g transform="translate(64.00,78.42) skewY(-26.565)"><rect x="0" y="0" width="39.09" height="39.90" fill="rgb(42,34,19)"/><line x1="6.43" y1="9.97" x2="32.66" y2="9.97" stroke="rgb(245,175,98)" stroke-width="1.41" stroke-linecap="butt" stroke-dasharray="3.11,4.63"/><line x1="6.43" y1="16.62" x2="32.66" y2="16.62" stroke="rgb(245,175,98)" stroke-width="1.41" stroke-linecap="butt" stroke-dasharray="3.11,4.63"/></g><g transform="translate(24.91,58.88) skewY(26.565)"><rect x="0" y="0" width="39.09" height="39.90" fill="rgb(76,62,35)"/><line x1="6.95" y1="11.97" x2="32.14" y2="11.97" stroke="rgb(237,203,90)" stroke-width="1.97" stroke-linecap="butt" stroke-dasharray="2.85,4.83"/></g><rect x="12.46" y="12.46" width="39.09" height="39.09" fill="rgb(116,97,61)" transform="matrix(1,0.5000,-1,0.5000,64.00,26.88)"/><g transform="translate(65.89,39.49) skewY(-26.565)"><rect x="0" y="0" width="5.11" height="21.55" fill="rgb(59,29,22)"/></g><g transform="translate(60.78,36.93) skewY(26.565)"><rect x="0" y="0" width="5.11" height="21.55" fill="rgb(96,47,36)"/></g><rect x="30.00" y="28.11" width="5.11" height="5.11" fill="rgb(117,67,56)" transform="matrix(1,0.5000,-1,0.5000,64.00,5.33)"/></g></svg>