<svg xmlns="http://www.w3.org/2000/svg" version="1.1" width="128" height="180"><g><rect x="3.52" y="3.52" width="30.92" height="32.85" fill="rgba(0,0,0,0.20)" transform="matrix(1,0.5000,-1,0.5000,66.50,109.52)"/><g transform="translate(62.07,96.05) skewY(-26.565)"><rect x="0" y="0" width="27.09" height="43.50" fill="rgb(45,38,17)"/><line x1="2.26" y1="6.79" x2="2.26" y2="36.71" stroke="rgb(237,178,107)" stroke-width="2.35" stroke-linecap="butt"/><line x1="6.77" y1="6.79" x2="6.77" y2="36.71" stroke="rgb(237,178,107)" stroke-width="2.35" stroke-linecap="butt"/><line x1="11.29" y1="6.79" x2="11.29" y2="36.71" stroke="rgb(237,178,107)" stroke-width="2.35" stroke-linecap="butt"/><line x1="15.80" y1="6.79" x2="15.80" y2="36.71" stroke="rgb(237,178,107)" stroke-width="2.35" stroke-linecap="butt"/><line x1="20.32" y1="6.79" x2="20.32" y2="36.71" stroke="rgb(237,178,107)" stroke-width="2.35" stroke-linecap="butt"/></g><g transform="translate(36.91,83.47) skewY(26.565)"><rect x="0" y="0" width="25.16" height="43.50" fill="rgb(82,69,31)"/><line x1="5.65" y1="18.12" x2="19.51" y2="18.12" stroke="rgb(232,178,84)" stroke-width="2.66" stroke-linecap="butt" stroke-dasharray="8.37,2.99"/></g><rect x="6.40" y="6.40" width="25.16" height="27.09" fill="rgb(124,106,55)" transform="matrix(1,0.5000,-1,0.5000,64.00,63.52)"/><g transform="translate(62.45,55.27) skewY(-26.565)"><rect x="0" y="0" width="16.25" height="35.56" fill="rgb(45,38,17)"/><line x1="6.77" y1="5.49" x2="6.77" y2="30.07" stroke="rgb(251,138,51)" stroke-width="2.14" stroke-linecap="butt"/></g><g transform="translate(47.36,47.72) skewY(26.565)"><rect x="0" y="0" width="15.09" height="35.56" fill="rgb(82,70,31)"/><line x1="2.87" y1="14.81" x2="12.22" y2="14.81" stroke="rgb(247,156,85)" stroke-width="3.17" stroke-linecap="butt"/><line x1="2.87" y1="20.74" x2="12.22" y2="20.74" stroke="rgb(247,156,85)" stroke-width="3.17" stroke-linecap="butt"/><line x1="2.87" y1="26.67" x2="12.22" y2="26.67" stroke="rgb(247,156,85)" stroke-width="3.17" stroke-linecap="butt"/><line x1="2.87" y1="32.59" x2="12.22" y2="32.59" stroke="rgb(247,156,85)" stroke-width="3.17" stroke-linecap="butt"/></g><rect x="11.43" y="11.82" width="15.09" height="16.25" fill="rgb(124,108,55)" transform="matrix(1,0.5000,-1,0.5000,64.00,27.97)"/><g transform="translate(51.85,28.41) skewY(-26.565)"><rect x="0" y="0" width="4.49" height="21.55" fill="rgb(59,35,22)"/></g><g transform="translate(47.36,26.17) skewY(26.565)"><rect x="0" y="0" width="4.49" height="21.55" fill="rgb(96,57,36)"/></g><rect x="11.43" y="23.58" width="4.49" height="4.49" fill="rgb(117,77,56)" transform="matrix(1,0.5000,-1,0.5000,64.00,6.42)"/><rect x="32.21" y="3.52" width="28.27" height="32.85" fill="rgba(0,0,0,0.20)" transform="matrix(1,0.5000,-1,0.5000,66.50,109.52)"/><g transform="translate(88.11,113.69) skewY(-26.565)"><rect x="0" y="0" width="27.09" height="38.88" fill="rgb(45,38,17)"/><line x1="4.11" y1="13.88" x2="22.98" y2="13.88" stroke="rgb(254,172,73)" stroke-width="2.89" stroke-linecap="butt" stroke-dasharray="6.28,3.44"/><line x1="4.11" y1="19.44" x2="22.98" y2="19.44" stroke="rgb(254,172,73)" stroke-width="2.89" stroke-linecap="butt" stroke-dasharray="6.28,3.44"/><line x1="4.11" y1="24.99" x2="22.98" y2="24.99" stroke="rgb(254,172,73)" stroke-width="2.89" stroke-linecap="butt" stroke-dasharray="6.28,3.44"/></g><g transform="translate(65.60,102.43) skewY(26.565)"><rect x="0" y="0" width="22.51" height="38.88" fill="rgb(82,68,31)"/><line x1="4.82" y1="7.13" x2="4.82" y2="31.74" stroke="rgb(241,195,79)" stroke-width="1.36" stroke-linecap="butt" stroke-dasharray="2.98,4.78"/><line x1="8.04" y1="7.13" x2="8.04" y2="31.74" stroke="rgb(241,195,79)" stroke-width="1.36" stroke-linecap="butt" stroke-dasharray="2.98,4.78"/><line x1="11.25" y1="7.13" x2="11.25" y2="31.74" stroke="rgb(241,195,79)" stroke-width="1.36" stroke-linecap="butt" stroke-dasharray="2.98,4.78"/><line x1="14.47" y1="7.13" x2="14.47" y2="31.74" stroke="rgb(241,195,79)" stroke-width="1.36" stroke-linecap="butt" stroke-dasharray="2.98,4.78"/></g><rect x="35.09" y="6.40" width="22.51" height="27.09" fill="rgb(124,106,55)" transform="matrix(1,0.5000,-1,0.5000,64.00,68.14)"/><g transform="translate(88.65,75.85) skewY(-26.565)"><rect x="0" y="0" width="3.85" height="29.92" fill="rgb(59,37,22)"/></g><g transform="translate(84.80,73.93) skewY(26.565)"><rect x="0" y="0" width="3.85" height="29.92" fill="rgb(96,60,36)"/></g><rect x="46.10" y="21.46" width="3.85" height="3.85" fill="rgb(117,80,56)" transform="matrix(1,0.5000,-1,0.5000,64.00,38.22)"/><g transform="translate(91.26,83.57) skewY(-26.565)"><rect x="0" y="0" width="5.12" height="22.77" fill="rgb(59,28,22)"/></g><g transform="translate(86.15,81.01) skewY(26.565)"><rect x="0" y="0" width="5.12" height="22.77" fill="rgb(96,46,36)"/></g><rect x="46.71" y="19.45" width="5.12" height="5.12" fill="rgb(117,66,56)" transform="matrix(1,0.5000,-1,0.5000,64.00,45.38)"/><rect x="3.52" y="34.38" width="56.96" height="26.10" fill="rgba(0,0,0,0.20)" transform="matrix(1,0.5000,-1,0.5000,66.50,109.52)"/><g transform="translate(64.00,124.21) skewY(-26.565)"><rect x="0" y="0" width="20.34" height="40.41" fill="rgb(45,40,17)"/><line x1="3.13" y1="16.84" x2="17.22" y2="16.84" stroke="rgb(250,203,77)" stroke-width="2.47" stroke-linecap="butt" stroke-dasharray="2.93,2.95"/></g><g transform="translate(12.80,98.61) skewY(26.565)"><rect x="0" y="0" width="51.20" height="40.41" fill="rgb(82,73,31)"/><line x1="10.38" y1="3.37" x2="40.82" y2="3.37" stroke="rgb(242,164,99)" stroke-width="1.48" stroke-linecap="butt" stroke-dasharray="7.40,5.54"/><line x1="10.38" y1="10.10" x2="40.82" y2="10.10" stroke="rgb(242,164,99)" stroke-width="1.48" stroke-linecap="butt" stroke-dasharray="7.40,5.54"/><line x1="10.38" y1="16.84" x2="40.82" y2="16.84" stroke="rgb(242,164,99)" stroke-width="1.48" stroke-linecap="butt" stroke-dasharray="7.40,5.54"/><line x1="10.38" y1="23.57" x2="40.82" y2="23.57" stroke="rgb(242,164,99)" stroke-width="1.48" stroke-linecap="butt" stroke-dasharray="7.40,5.54"/></g><rect x="6.40" y="37.26" width="51.20" height="20.34" fill="rgb(124,112,55)" transform="matrix(1,0.5000,-1,0.5000,64.00,66.61)"/><g transform="translate(64.00,94.13) skewY(-26.565)"><rect x="0" y="0" width="20.34" height="30.08" fill="rgb(45,38,17)"/><line x1="7.27" y1="6.32" x2="7.27" y2="23.76" stroke="rgb(250,171,59)" stroke-width="1.23" stroke-linecap="butt"/><line x1="10.17" y1="6.32" x2="10.17" y2="23.76" stroke="rgb(250,171,59)" stroke-width="1.23" stroke-linecap="butt"/><line x1="13.08" y1="6.32" x2="13.08" y2="23.76" stroke="rgb(250,171,59)" stroke-width="1.23" stroke-linecap="butt"/><line x1="15.98" y1="6.32" x2="15.98" y2="23.76" stroke="rgb(250,171,59)" stroke-width="1.23" stroke-linecap="butt"/><line x1="18.89" y1="6.32" x2="18.89" y2="23.76" stroke="rgb(250,171,59)" stroke-width="1.23" stroke-linecap="butt"/></g><g transform="translate(12.80,68.53) skewY(26.565)"><rect x="0" y="0" width="51.20" height="30.08" fill="rgb(82,69,31)"/><line x1="19.20" y1="6.05" x2="19.20" y2="24.03" stroke="rgb(233,192,67)" stroke-width="2.35" stroke-linecap="butt"/></g><rect x="6.40" y="37.26" width="51.20" height="20.34" fill="rgb(124,106,55)" transform="matrix(1,0.5000,-1,0.5000,64.00,36.53)"/><g transform="translate(43.61,46.21) skewY(-26.565)"><rect x="0" y="0" width="4.95" height="22.33" fill="rgb(59,30,22)"/></g><g transform="translate(38.66,43.74) skewY(26.565)"><rect x="0" y="0" width="4.95" height="22.33" fill="rgb(96,49,36)"/></g><rect x="16.87" y="37.26" width="4.95" height="4.95" fill="rgb(117,69,56)" transform="matrix(1,0.5000,-1,0.5000,64.00,14.20)"/></g></svg>