<svg xmlns="http://www.w3.org/2000/svg" version="1.1" width="128" height="270"><g><rect x="3.52" y="3.52" width="56.96" height="56.96" fill="rgba(0,0,0,0.20)" transform="matrix(1,0.5000,-1,0.5000,66.50,199.52)"/><g transform="translate(64.00,197.13) skewY(-26.565)"><rect x="0" y="0" width="51.20" height="57.49" fill="rgb(42,36,18)"/><line x1="4.27" y1="9.80" x2="4.27" y2="47.69" stroke="rgb(243,169,77)" stroke-width="2.55" stroke-linecap="butt"/><line x1="12.80" y1="9.80" x2="12.80" y2="47.69" stroke="rgb(243,169,77)" stroke-width="2.55" stroke-linecap="butt"/><line x1="21.33" y1="9.80" x2="21.33" y2="47.69" stroke="rgb(243,169,77)" stroke-width="2.55" stroke-linecap="butt"/><line x1="29.87" y1="9.80" x2="29.87" y2="47.69" stroke="rgb(243,169,77)" stroke-width="2.55" stroke-linecap="butt"/><line x1="38.40" y1="9.80" x2="38.40" y2="47.69" stroke="rgb(243,169,77)" stroke-width="2.55" stroke-linecap="butt"/><line x1="46.93" y1="9.80" x2="46.93" y2="47.69" stroke="rgb(243,169,77)" stroke-width="2.55" stroke-linecap="butt"/></g><g transform="translate(12.80,171.53) skewY(26.565)"><rect x="0" y="0" width="51.20" height="57.49" fill="rgb(75,66,33)"/><line x1="21.33" y1="11.55" x2="21.33" y2="45.94" stroke="rgb(243,164,124)" stroke-width="1.99" stroke-linecap="butt" stroke-dasharray="6.31,4.22"/><line x1="29.87" y1="11.55" x2="29.87" y2="45.94" stroke="rgb(243,164,124)" stroke-width="1.99" stroke-linecap="butt" stroke-dasharray="6.31,4.22"/><line x1="38.40" y1="11.55" x2="38.40" y2="45.94" stroke="rgb(243,164,124)" stroke-width="1.99" stroke-linecap="butt" stroke-dasharray="6.31,4.22"/></g><rect x="6.40" y="6.40" width="51.20" height="51.20" fill="rgb(116,103,59)" transform="matrix(1,0.5000,-1,0.5000,64.00,139.53)"/><g transform="translate(64.00,127.55) skewY(-26.565)"><rect x="0" y="0" width="43.43" height="65.70" fill="rgb(42,36,18)"/><line x1="6.56" y1="23.46" x2="36.88" y2="23.46" stroke="rgb(249,162,54)" stroke-width="1.62" stroke-linecap="butt"/><line x1="6.56" y1="32.85" x2="36.88" y2="32.85" stroke="rgb(249,162,54)" stroke-width="1.62" stroke-linecap="butt"/><line x1="6.56" y1="42.23" x2="36.88" y2="42.23" stroke="rgb(249,162,54)" stroke-width="1.62" stroke-linecap="butt"/><line x1="6.56" y1="51.62" x2="36.88" y2="51.62" stroke="rgb(249,162,54)" stroke-width="1.62" stroke-linecap="butt"/><line x1="6.56" y1="61.00" x2="36.88" y2="61.00" stroke="rgb(249,162,54)" stroke-width="1.62" stroke-linecap="butt"/></g><g transform="translate(20.57,105.84) skewY(26.565)"><rect x="0" y="0" width="43.43" height="65.70" fill="rgb(75,65,33)"/><line x1="3.10" y1="11.54" x2="3.10" y2="54.15" stroke="rgb(238,176,115)" stroke-width="2.1" stroke-linecap="butt"/><line x1="9.31" y1="11.54" x2="9.31" y2="54.15" stroke="rgb(238,176,115)" stroke-width="2.1" stroke-linecap="butt"/><line x1="15.51" y1="11.54" x2="15.51" y2="54.15" stroke="rgb(238,176,115)" stroke-width="2.1" stroke-linecap="butt"/><line x1="21.72" y1="11.54" x2="21.72" y2="54.15" stroke="rgb(238,176,115)" stroke-width="2.1" stroke-linecap="butt"/><line x1="27.92" y1="11.54" x2="27.92" y2="54.15" stroke="rgb(238,176,115)" stroke-width="2.1" stroke-linecap="butt"/><line x1="34.13" y1="11.54" x2="34.13" y2="54.15" stroke="rgb(238,176,115)" stroke-width="2.1" stroke-linecap="butt"/><line x1="40.33" y1="11.54" x2="40.33" y2="54.15" stroke="rgb(238,176,115)" stroke-width="2.1" stroke-linecap="butt"/></g><rect x="10.28" y="10.28" width="43.43" height="43.43" fill="rgb(116,102,59)" transform="matrix(1,0.5000,-1,0.5000,64.00,73.84)"/></g></svg>