<svg xmlns="http://www.w3.org/2000/svg" xmlns:xlink="http://www.w3.org/1999/xlink" version="1.1" width="128" height="224"><defs/><g><path d="M64.72,172.88 L108.24,194.64 L67.28,215.12 L23.76,193.36 Z" fill="rgb(0,0,0)" fill-opacity="0.2"/><path d="M106.24,192.64 L65.28,213.12 L65.28,129.12 L106.24,108.64 Z" fill="#403510"/><path d="M106.24,192.64 L65.28,213.12 L65.28,129.12 L106.24,108.64 Z" fill="none" stroke="rgb(0,0,0)" stroke-opacity="0.5" stroke-width="1"/><path d="M21.76,191.36 L65.28,213.12 L65.28,129.12 L21.76,107.36 Z" fill="#261f0a"/><path d="M21.76,191.36 L65.28,213.12 L65.28,129.12 L21.76,107.36 Z" fill="none" stroke="rgb(0,0,0)" stroke-opacity="0.5" stroke-width="1"/><path d="M62.72,86.88 L106.24,108.64 L65.28,129.12 L21.76,107.36 Z" fill="#5a4a16"/><path d="M62.72,86.88 L106.24,108.64 L65.28,129.12 L21.76,107.36 Z" fill="none" stroke="rgb(0,0,0)" stroke-opacity="0.5" stroke-width="1"/><path d="M106.24,137.2 L65.28,157.68" fill="none" stroke="rgb(255,143,71)" stroke-width="4.48" stroke-dasharray="6.54,5.02"/><path d="M106.24,164.08 L65.28,184.56" fill="none" stroke="rgb(255,233,72)" stroke-width="2.75" stroke-dasharray="8.45,6.02"/><path d="M101.12,109.28 L92.16,113.76 L92.16,29.76 L101.12,25.28 Z" fill="rgb(67,33,13)"/><path d="M101.12,109.28 L92.16,113.76 L92.16,29.76 L101.12,25.28 Z" fill="none" stroke="rgb(0,0,0)" stroke-opacity="0.4" stroke-width="1"/><path d="M83.2,109.28 L92.16,113.76 L92.16,29.76 L83.2,25.28 Z" fill="rgb(47,13,0)"/><path d="M83.2,109.28 L92.16,113.76 L92.16,29.76 L83.2,25.28 Z" fill="none" stroke="rgb(0,0,0)" stroke-opacity="0.4" stroke-width="1"/><path d="M92.16,20.8 L101.12,25.28 L92.16,29.76 L83.2,25.28 Z" fill="#52301c"/><path d="M92.16,20.8 L101.12,25.28 L92.16,29.76 L83.2,25.28 Z" fill="none" stroke="rgb(0,0,0)" stroke-opacity="0.4" stroke-width="1"/><path d="M101.76,67.28 L92.16,72.08 L92.16,68.08 L101.76,63.28 Z" fill="rgb(84,43,19)"/><path d="M101.76,67.28 L92.16,72.08 L92.16,68.08 L101.76,63.28 Z" fill="none" stroke="rgb(0,0,0)" stroke-opacity="0.4" stroke-width="1"/><path d="M82.56,67.28 L92.16,72.08 L92.16,68.08 L82.56,63.28 Z" fill="rgb(64,23,0)"/><path d="M82.56,67.28 L92.16,72.08 L92.16,68.08 L82.56,63.28 Z" fill="none" stroke="rgb(0,0,0)" stroke-opacity="0.4" stroke-width="1"/><path d="M92.16,58.48 L101.76,63.28 L92.16,68.08 L82.56,63.28 Z" fill="#633a22"/><path d="M92.16,58.48 L101.76,63.28 L92.16,68.08 L82.56,63.28 Z" fill="none" stroke="rgb(0,0,0)" stroke-opacity="0.4" stroke-width="1"/></g></svg>