<svg xmlns="http://www.w3.org/2000/svg" version="1.1" width="128" height="287"><g><rect x="3.52" y="3.52" width="56.96" height="56.96" fill="rgba(0,0,0,0.20)" transform="matrix(1,0.5000,-1,0.5000,66.50,216.52)"/><g transform="translate(64.00,215.19) skewY(-26.565)"><rect x="0" y="0" width="51.20" height="56.43" fill="rgb(45,39,20)"/><line x1="7.20" y1="12.09" x2="44.00" y2="12.09" stroke="rgb(241,186,82)" stroke-width="2.88" stroke-linecap="butt"/><line x1="7.20" y1="20.15" x2="44.00" y2="20.15" stroke="rgb(241,186,82)" stroke-width="2.88" stroke-linecap="butt"/><line x1="7.20" y1="28.21" x2="44.00" y2="28.21" stroke="rgb(241,186,82)" stroke-width="2.88" stroke-linecap="butt"/><line x1="7.20" y1="36.27" x2="44.00" y2="36.27" stroke="rgb(241,186,82)" stroke-width="2.88" stroke-linecap="butt"/><line x1="7.20" y1="44.34" x2="44.00" y2="44.34" stroke="rgb(241,186,82)" stroke-width="2.88" stroke-linecap="butt"/></g><g transform="translate(12.80,189.59) skewY(26.565)"><rect x="0" y="0" width="51.20" height="56.43" fill="rgb(83,71,37)"/><line x1="19.20" y1="9.70" x2="19.20" y2="46.73" stroke="rgb(251,186,111)" stroke-width="1.45" stroke-linecap="butt"/></g><rect x="6.40" y="6.40" width="51.20" height="51.20" fill="rgb(123,108,63)" transform="matrix(1,0.5000,-1,0.5000,64.00,157.59)"/><g transform="translate(64.00,163.03) skewY(-26.565)"><rect x="0" y="0" width="36.07" height="44.60" fill="rgb(45,42,20)"/><line x1="15.03" y1="8.40" x2="15.03" y2="36.20" stroke="rgb(252,185,118)" stroke-width="2.59" stroke-linecap="butt"/><line x1="21.04" y1="8.40" x2="21.04" y2="36.20" stroke="rgb(252,185,118)" stroke-width="2.59" stroke-linecap="butt"/></g><g transform="translate(27.93,144.99) skewY(26.565)"><rect x="0" y="0" width="36.07" height="44.60" fill="rgb(83,76,37)"/><line x1="5.82" y1="18.58" x2="30.25" y2="18.58" stroke="rgb(239,153,78)" stroke-width="2.55" stroke-linecap="butt" stroke-dasharray="3.73,4.03"/></g><rect x="13.96" y="13.96" width="36.07" height="36.07" fill="rgb(123,114,63)" transform="matrix(1,0.5000,-1,0.5000,64.00,112.99)"/><g transform="translate(64.00,102.92) skewY(-26.565)"><rect x="0" y="0" width="27.60" height="55.87" fill="rgb(45,40,20)"/><line x1="2.30" y1="8.98" x2="2.30" y2="46.89" stroke="rgb(242,182,86)" stroke-width="3.04" stroke-linecap="butt" stroke-dasharray="6.01,2.51"/><line x1="6.90" y1="8.98" x2="6.90" y2="46.89" stroke="rgb(242,182,86)" stroke-width="3.04" stroke-linecap="butt" stroke-dasharray="6.01,2.51"/><line x1="11.50" y1="8.98" x2="11.50" y2="46.89" stroke="rgb(242,182,86)" stroke-width="3.04" stroke-linecap="butt" stroke-dasharray="6.01,2.51"/><line x1="16.10" y1="8.98" x2="16.10" y2="46.89" stroke="rgb(242,182,86)" stroke-width="3.04" stroke-linecap="butt" stroke-dasharray="6.01,2.51"/><line x1="20.70" y1="8.98" x2="20.70" y2="46.89" stroke="rgb(242,182,86)" stroke-width="3.04" stroke-linecap="butt" stroke-dasharray="6.01,2.51"/></g><g transform="translate(36.40,89.12) skewY(26.565)"><rect x="0" y="0" width="27.60" height="55.87" fill="rgb(83,72,37)"/><line x1="11.50" y1="9.51" x2="11.50" y2="46.36" stroke="rgb(247,165,83)" stroke-width="1.75" stroke-linecap="butt" stroke-dasharray="8.26,4.67"/></g><rect x="18.20" y="18.20" width="27.60" height="27.60" fill="rgb(123,109,63)" transform="matrix(1,0.5000,-1,0.5000,64.00,57.12)"/><g transform="translate(64.00,53.22) skewY(-26.565)"><rect x="0" y="0" width="27.60" height="49.70" fill="rgb(45,40,20)"/><line x1="2.30" y1="11.78" x2="2.30" y2="37.92" stroke="rgb(232,151,70)" stroke-width="3.03" stroke-linecap="butt"/><line x1="6.90" y1="11.78" x2="6.90" y2="37.92" stroke="rgb(232,151,70)" stroke-width="3.03" stroke-linecap="butt"/><line x1="11.50" y1="11.78" x2="11.50" y2="37.92" stroke="rgb(232,151,70)" stroke-width="3.03" stroke-linecap="butt"/><line x1="16.10" y1="11.78" x2="16.10" y2="37.92" stroke="rgb(232,151,70)" stroke-width="3.03" stroke-linecap="butt"/></g><g transform="translate(36.40,39.42) skewY(26.565)"><rect x="0" y="0" width="27.60" height="49.70" fill="rgb(83,72,37)"/><line x1="5.98" y1="18.64" x2="21.62" y2="18.64" stroke="rgb(240,182,136)" stroke-width="2.06" stroke-linecap="butt"/><line x1="5.98" y1="31.06" x2="21.62" y2="31.06" stroke="rgb(240,182,136)" stroke-width="2.06" stroke-linecap="butt"/><line x1="5.98" y1="43.48" x2="21.62" y2="43.48" stroke="rgb(240,182,136)" stroke-width="2.06" stroke-linecap="butt"/></g><rect x="18.20" y="18.20" width="27.60" height="27.60" fill="rgb(123,109,63)" transform="matrix(1,0.5000,-1,0.5000,64.00,7.42)"/><g transform="translate(54.91,15.22) skewY(-26.565)"><rect x="0" y="0" width="5.80" height="26.67" fill="rgb(59,31,22)"/></g><g transform="translate(49.11,12.32) skewY(26.565)"><rect x="0" y="0" width="5.80" height="26.67" fill="rgb(96,50,36)"/></g><rect x="24.12" y="33.21" width="5.80" height="5.80" fill="rgb(117,70,56)" transform="matrix(1,0.5000,-1,0.5000,64.00,-19.25)"/><g transform="translate(65.24,11.73) skewY(-26.565)"><rect x="0" y="0" width="5.23" height="19.74" fill="rgb(59,30,22)"/></g><g transform="translate(60.01,9.12) skewY(26.565)"><rect x="0" y="0" width="5.23" height="19.74" fill="rgb(96,48,36)"/></g><rect x="19.44" y="18.20" width="5.23" height="5.23" fill="rgb(117,68,56)" transform="matrix(1,0.5000,-1,0.5000,64.00,-12.32)"/><g transform="translate(55.69,16.41) skewY(-26.565)"><rect x="0" y="0" width="4.60" height="21.32" fill="rgb(59,33,22)"/></g><g transform="translate(51.09,14.11) skewY(26.565)"><rect x="0" y="0" width="4.60" height="21.32" fill="rgb(96,53,36)"/></g><rect x="21.56" y="29.87" width="4.60" height="4.60" fill="rgb(117,73,56)" transform="matrix(1,0.5000,-1,0.5000,64.00,-13.90)"/></g></svg>