<svg xmlns="http://www.w3.org/2000/svg" version="1.1" width="128" height="280"><g><rect x="3.52" y="3.52" width="56.96" height="56.96" fill="rgba(0,0,0,0.20)" transform="matrix(1,0.5000,-1,0.5000,66.50,209.52)"/><g transform="translate(64.00,214.84) skewY(-26.565)"><rect x="0" y="0" width="51.20" height="49.78" fill="rgb(40,31,16)"/><line x1="8.76" y1="4.98" x2="42.44" y2="4.98" stroke="rgb(254,147,50)" stroke-width="3.11" stroke-linecap="butt" stroke-dasharray="7.65,3.22"/><line x1="8.76" y1="14.93" x2="42.44" y2="14.93" stroke="rgb(254,147,50)" stroke-width="3.11" stroke-linecap="butt" stroke-dasharray="7.65,3.22"/><line x1="8.76" y1="24.89" x2="42.44" y2="24.89" stroke="rgb(254,147,50)" stroke-width="3.11" stroke-linecap="butt" stroke-dasharray="7.65,3.22"/></g><g transform="translate(12.80,189.24) skewY(26.565)"><rect x="0" y="0" width="51.20" height="49.78" fill="rgb(73,56,29)"/><line x1="7.27" y1="18.67" x2="43.93" y2="18.67" stroke="rgb(242,161,103)" stroke-width="2.43" stroke-linecap="butt"/><line x1="7.27" y1="31.11" x2="43.93" y2="31.11" stroke="rgb(242,161,103)" stroke-width="2.43" stroke-linecap="butt"/><line x1="7.27" y1="43.55" x2="43.93" y2="43.55" stroke="rgb(242,161,103)" stroke-width="2.43" stroke-linecap="butt"/></g><rect x="6.40" y="6.40" width="51.20" height="51.20" fill="rgb(115,91,53)" transform="matrix(1,0.5000,-1,0.5000,64.00,157.24)"/><g transform="translate(64.00,172.66) skewY(-26.565)"><rect x="0" y="0" width="51.20" height="42.18" fill="rgb(40,33,16)"/><line x1="7.91" y1="3.52" x2="43.29" y2="3.52" stroke="rgb(252,189,97)" stroke-width="1.13" stroke-linecap="butt"/><line x1="7.91" y1="10.55" x2="43.29" y2="10.55" stroke="rgb(252,189,97)" stroke-width="1.13" stroke-linecap="butt"/><line x1="7.91" y1="17.58" x2="43.29" y2="17.58" stroke="rgb(252,189,97)" stroke-width="1.13" stroke-linecap="butt"/></g><g transform="translate(12.80,147.06) skewY(26.565)"><rect x="0" y="0" width="51.20" height="42.18" fill="rgb(73,59,29)"/><line x1="7.56" y1="15.07" x2="43.64" y2="15.07" stroke="rgb(243,199,116)" stroke-width="1.65" stroke-linecap="butt" stroke-dasharray="6.05,5.37"/><line x1="7.56" y1="21.09" x2="43.64" y2="21.09" stroke="rgb(243,199,116)" stroke-width="1.65" stroke-linecap="butt" stroke-dasharray="6.05,5.37"/><line x1="7.56" y1="27.12" x2="43.64" y2="27.12" stroke="rgb(243,199,116)" stroke-width="1.65" stroke-linecap="butt" stroke-dasharray="6.05,5.37"/></g><rect x="6.40" y="6.40" width="51.20" height="51.20" fill="rgb(115,96,53)" transform="matrix(1,0.5000,-1,0.5000,64.00,115.06)"/><g transform="translate(64.00,100.68) skewY(-26.565)"><rect x="0" y="0" width="45.84" height="69.29" fill="rgb(40,32,16)"/><line x1="10.88" y1="43.31" x2="34.95" y2="43.31" stroke="rgb(252,180,64)" stroke-width="2.81" stroke-linecap="butt" stroke-dasharray="6.64,4.10"/></g><g transform="translate(18.16,77.76) skewY(26.565)"><rect x="0" y="0" width="45.84" height="69.29" fill="rgb(73,58,29)"/><line x1="13.75" y1="12.64" x2="13.75" y2="56.65" stroke="rgb(254,185,107)" stroke-width="2.08" stroke-linecap="butt"/></g><rect x="9.08" y="9.08" width="45.84" height="45.84" fill="rgb(115,94,53)" transform="matrix(1,0.5000,-1,0.5000,64.00,45.76)"/><g transform="translate(64.00,51.09) skewY(-26.565)"><rect x="0" y="0" width="32.59" height="42.96" fill="rgb(40,33,16)"/><line x1="5.80" y1="15.34" x2="26.79" y2="15.34" stroke="rgb(233,143,82)" stroke-width="1.15" stroke-linecap="butt" stroke-dasharray="2.85,3.44"/><line x1="5.80" y1="21.48" x2="26.79" y2="21.48" stroke="rgb(233,143,82)" stroke-width="1.15" stroke-linecap="butt" stroke-dasharray="2.85,3.44"/></g><g transform="translate(31.41,34.80) skewY(26.565)"><rect x="0" y="0" width="32.59" height="42.96" fill="rgb(73,60,29)"/><line x1="5.69" y1="3.07" x2="26.90" y2="3.07" stroke="rgb(238,197,98)" stroke-width="1.67" stroke-linecap="butt" stroke-dasharray="5.75,5.71"/><line x1="5.69" y1="9.21" x2="26.90" y2="9.21" stroke="rgb(238,197,98)" stroke-width="1.67" stroke-linecap="butt" stroke-dasharray="5.75,5.71"/><line x1="5.69" y1="15.34" x2="26.90" y2="15.34" stroke="rgb(238,197,98)" stroke-width="1.67" stroke-linecap="butt" stroke-dasharray="5.75,5.71"/><line x1="5.69" y1="21.48" x2="26.90" y2="21.48" stroke="rgb(238,197,98)" stroke-width="1.67" stroke-linecap="butt" stroke-dasharray="5.75,5.71"/><line x1="5.69" y1="27.62" x2="26.90" y2="27.62" stroke="rgb(238,197,98)" stroke-width="1.67" stroke-linecap="butt" stroke-dasharray="5.75,5.71"/></g><rect x="15.71" y="15.71" width="32.59" height="32.59" fill="rgb(115,96,53)" transform="matrix(1,0.5000,-1,0.5000,64.00,2.80)"/><g transform="translate(77.93,13.23) skewY(-26.565)"><rect x="0" y="0" width="4.65" height="24.77" fill="rgb(59,36,22)"/></g><g transform="translate(73.27,10.91) skewY(26.565)"><rect x="0" y="0" width="4.65" height="24.77" fill="rgb(96,58,36)"/></g><rect x="37.51" y="23.58" width="4.65" height="4.65" fill="rgb(117,78,56)" transform="matrix(1,0.5000,-1,0.5000,64.00,-21.97)"/><g transform="translate(79.89,11.88) skewY(-26.565)"><rect x="0" y="0" width="5.87" height="26.37" fill="rgb(59,34,22)"/></g><g transform="translate(74.03,8.95) skewY(26.565)"><rect x="0" y="0" width="5.87" height="26.37" fill="rgb(96,55,36)"/></g><rect x="37.53" y="21.64" width="5.87" height="5.87" fill="rgb(117,75,56)" transform="matrix(1,0.5000,-1,0.5000,64.00,-23.57)"/><g transform="translate(56.24,16.90) skewY(-26.565)"><rect x="0" y="0" width="4.92" height="14.18" fill="rgb(59,31,22)"/></g><g transform="translate(51.32,14.44) skewY(26.565)"><rect x="0" y="0" width="4.92" height="14.18" fill="rgb(96,50,36)"/></g><rect x="19.48" y="27.24" width="4.92" height="4.92" fill="rgb(117,70,56)" transform="matrix(1,0.5000,-1,0.5000,64.00,-11.38)"/></g></svg>