<svg xmlns="http://www.w3.org/2000/svg" version="1.1" width="128" height="270"><g><rect x="3.52" y="3.52" width="56.96" height="56.96" fill="rgba(0,0,0,0.20)" transform="matrix(1,0.5000,-1,0.5000,66.50,199.52)"/><g transform="translate(64.00,214.28) skewY(-26.565)"><rect x="0" y="0" width="51.20" height="40.34" fill="rgb(42,37,17)"/><line x1="7.49" y1="20.17" x2="43.71" y2="20.17" stroke="rgb(253,161,77)" stroke-width="1.24" stroke-linecap="butt" stroke-dasharray="6.37,2.82"/><line x1="7.49" y1="25.93" x2="43.71" y2="25.93" stroke="rgb(253,161,77)" stroke-width="1.24" stroke-linecap="butt" stroke-dasharray="6.37,2.82"/><line x1="7.49" y1="31.70" x2="43.71" y2="31.70" stroke="rgb(253,161,77)" stroke-width="1.24" stroke-linecap="butt" stroke-dasharray="6.37,2.82"/><line x1="7.49" y1="37.46" x2="43.71" y2="37.46" stroke="rgb(253,161,77)" stroke-width="1.24" stroke-linecap="butt" stroke-dasharray="6.37,2.82"/></g><g transform="translate(12.80,188.68) skewY(26.565)"><rect x="0" y="0" width="51.20" height="40.34" fill="rgb(77,67,30)"/><line x1="12.04" y1="14.41" x2="39.16" y2="14.41" stroke="rgb(246,137,54)" stroke-width="1.59" stroke-linecap="butt" stroke-dasharray="3.43,4.15"/><line x1="12.04" y1="20.17" x2="39.16" y2="20.17" stroke="rgb(246,137,54)" stroke-width="1.59" stroke-linecap="butt" stroke-dasharray="3.43,4.15"/></g><rect x="6.40" y="6.40" width="51.20" height="51.20" fill="rgb(119,106,55)" transform="matrix(1,0.5000,-1,0.5000,64.00,156.68)"/><g transform="translate(64.00,141.09) skewY(-26.565)"><rect x="0" y="0" width="45.49" height="70.34" fill="rgb(42,36,17)"/><line x1="9.75" y1="14.51" x2="9.75" y2="55.82" stroke="rgb(249,141,79)" stroke-width="2.75" stroke-linecap="butt"/><line x1="16.25" y1="14.51" x2="16.25" y2="55.82" stroke="rgb(249,141,79)" stroke-width="2.75" stroke-linecap="butt"/><line x1="22.74" y1="14.51" x2="22.74" y2="55.82" stroke="rgb(249,141,79)" stroke-width="2.75" stroke-linecap="butt"/><line x1="29.24" y1="14.51" x2="29.24" y2="55.82" stroke="rgb(249,141,79)" stroke-width="2.75" stroke-linecap="butt"/><line x1="35.74" y1="14.51" x2="35.74" y2="55.82" stroke="rgb(249,141,79)" stroke-width="2.75" stroke-linecap="butt"/></g><g transform="translate(18.51,118.34) skewY(26.565)"><rect x="0" y="0" width="45.49" height="70.34" fill="rgb(77,65,30)"/><line x1="6.80" y1="43.96" x2="38.69" y2="43.96" stroke="rgb(239,156,64)" stroke-width="2.12" stroke-linecap="butt"/><line x1="6.80" y1="61.54" x2="38.69" y2="61.54" stroke="rgb(239,156,64)" stroke-width="2.12" stroke-linecap="butt"/></g><rect x="9.26" y="9.26" width="45.49" height="45.49" fill="rgb(119,103,55)" transform="matrix(1,0.5000,-1,0.5000,64.00,86.34)"/><g transform="translate(64.00,75.44) skewY(-26.565)"><rect x="0" y="0" width="45.49" height="65.65" fill="rgb(42,37,17)"/><line x1="22.74" y1="13.21" x2="22.74" y2="52.44" stroke="rgb(250,158,67)" stroke-width="3.2" stroke-linecap="butt" stroke-dasharray="5.83,2.10"/></g><g transform="translate(18.51,52.69) skewY(26.565)"><rect x="0" y="0" width="45.49" height="65.65" fill="rgb(77,67,30)"/><line x1="28.43" y1="13.09" x2="28.43" y2="52.55" stroke="rgb(244,195,94)" stroke-width="3.13" stroke-linecap="butt" stroke-dasharray="4.33,3.73"/></g><rect x="9.26" y="9.26" width="45.49" height="45.49" fill="rgb(119,105,55)" transform="matrix(1,0.5000,-1,0.5000,64.00,20.69)"/></g></svg>