<svg xmlns="http://www.w3.org/2000/svg" version="1.1" width="128" height="148"><g><rect x="3.52" y="3.52" width="22.83" height="56.96" fill="rgba(0,0,0,0.20)" transform="matrix(1,0.5000,-1,0.5000,66.50,77.52)"/><g transform="translate(29.87,91.03) skewY(-26.565)"><rect x="0" y="0" width="51.20" height="24.52" fill="rgb(43,39,21)"/><line x1="7.43" y1="7.36" x2="43.77" y2="7.36" stroke="rgb(237,162,92)" stroke-width="3.17" stroke-linecap="butt"/></g><g transform="translate(12.80,82.50) skewY(26.565)"><rect x="0" y="0" width="17.07" height="24.52" fill="rgb(78,71,37)"/><line x1="4.00" y1="12.26" x2="13.06" y2="12.26" stroke="rgb(254,205,120)" stroke-width="1.56" stroke-linecap="butt"/></g><rect x="6.40" y="6.40" width="17.07" height="51.20" fill="rgb(118,108,64)" transform="matrix(1,0.5000,-1,0.5000,64.00,50.50)"/><g transform="translate(29.87,66.57) skewY(-26.565)"><rect x="0" y="0" width="51.20" height="24.46" fill="rgb(43,37,21)"/><line x1="19.20" y1="4.42" x2="19.20" y2="20.05" stroke="rgb(250,185,117)" stroke-width="2.3" stroke-linecap="butt"/></g><g transform="translate(12.80,58.03) skewY(26.565)"><rect x="0" y="0" width="17.07" height="24.46" fill="rgb(78,67,37)"/><line x1="1.71" y1="5.41" x2="1.71" y2="19.06" stroke="rgb(237,156,60)" stroke-width="1.71" stroke-linecap="butt"/><line x1="5.12" y1="5.41" x2="5.12" y2="19.06" stroke="rgb(237,156,60)" stroke-width="1.71" stroke-linecap="butt"/><line x1="8.53" y1="5.41" x2="8.53" y2="19.06" stroke="rgb(237,156,60)" stroke-width="1.71" stroke-linecap="butt"/><line x1="11.95" y1="5.41" x2="11.95" y2="19.06" stroke="rgb(237,156,60)" stroke-width="1.71" stroke-linecap="butt"/></g><rect x="6.40" y="6.40" width="17.07" height="51.20" fill="rgb(118,103,64)" transform="matrix(1,0.5000,-1,0.5000,64.00,26.03)"/><g transform="translate(29.87,40.94) skewY(-26.565)"><rect x="0" y="0" width="51.20" height="25.63" fill="rgb(43,37,21)"/><line x1="9.01" y1="2.56" x2="42.19" y2="2.56" stroke="rgb(244,147,92)" stroke-width="1.22" stroke-linecap="butt"/><line x1="9.01" y1="7.69" x2="42.19" y2="7.69" stroke="rgb(244,147,92)" stroke-width="1.22" stroke-linecap="butt"/></g><g transform="translate(12.80,32.40) skewY(26.565)"><rect x="0" y="0" width="17.07" height="25.63" fill="rgb(78,67,37)"/><line x1="5.12" y1="4.34" x2="5.12" y2="21.29" stroke="rgb(249,153,95)" stroke-width="2.64" stroke-linecap="butt" stroke-dasharray="7.89,2.44"/></g><rect x="6.40" y="6.40" width="17.07" height="51.20" fill="rgb(118,103,64)" transform="matrix(1,0.5000,-1,0.5000,64.00,0.40)"/><rect x="25.48" y="3.52" width="35.00" height="56.96" fill="rgba(0,0,0,0.20)" transform="matrix(1,0.5000,-1,0.5000,66.50,77.52)"/><g transform="translate(64.00,101.91) skewY(-26.565)"><rect x="0" y="0" width="51.20" height="30.71" fill="rgb(43,36,21)"/><line x1="6.40" y1="4.55" x2="6.40" y2="26.17" stroke="rgb(252,179,84)" stroke-width="2.72" stroke-linecap="butt" stroke-dasharray="3.64,2.89"/><line x1="19.20" y1="4.55" x2="19.20" y2="26.17" stroke="rgb(252,179,84)" stroke-width="2.72" stroke-linecap="butt" stroke-dasharray="3.64,2.89"/></g><g transform="translate(34.76,87.29) skewY(26.565)"><rect x="0" y="0" width="29.24" height="30.71" fill="rgb(78,66,37)"/><line x1="5.65" y1="2.56" x2="23.59" y2="2.56" stroke="rgb(248,146,59)" stroke-width="2.63" stroke-linecap="butt" stroke-dasharray="2.54,4.30"/><line x1="5.65" y1="7.68" x2="23.59" y2="7.68" stroke="rgb(248,146,59)" stroke-width="2.63" stroke-linecap="butt" stroke-dasharray="2.54,4.30"/><line x1="5.65" y1="12.80" x2="23.59" y2="12.80" stroke="rgb(248,146,59)" stroke-width="2.63" stroke-linecap="butt" stroke-dasharray="2.54,4.30"/><line x1="5.65" y1="17.92" x2="23.59" y2="17.92" stroke="rgb(248,146,59)" stroke-width="2.63" stroke-linecap="butt" stroke-dasharray="2.54,4.30"/><line x1="5.65" y1="23.03" x2="23.59" y2="23.03" stroke="rgb(248,146,59)" stroke-width="2.63" stroke-linecap="butt" stroke-dasharray="2.54,4.30"/><line x1="5.65" y1="28.15" x2="23.59" y2="28.15" stroke="rgb(248,146,59)" stroke-width="2.63" stroke-linecap="butt" stroke-dasharray="2.54,4.30"/></g><rect x="28.36" y="6.40" width="29.24" height="51.20" fill="rgb(118,102,64)" transform="matrix(1,0.5000,-1,0.5000,64.00,44.31)"/><g transform="translate(74.75,62.52) skewY(-26.565)"><rect x="0" y="0" width="4.66" height="30.83" fill="rgb(59,31,22)"/></g><g transform="translate(70.08,60.19) skewY(26.565)"><rect x="0" y="0" width="4.66" height="30.83" fill="rgb(96,51,36)"/></g><rect x="49.76" y="39.01" width="4.66" height="4.66" fill="rgb(117,71,56)" transform="matrix(1,0.5000,-1,0.5000,64.00,13.48)"/></g></svg>