<svg xmlns="http://www.w3.org/2000/svg" version="1.1" width="128" height="127"><g><rect x="3.52" y="3.52" width="56.96" height="56.96" fill="rgba(0,0,0,0.20)" transform="matrix(1,0.5000,-1,0.5000,66.50,56.52)"/><g transform="translate(64.00,84.12) skewY(-26.565)"><rect x="0" y="0" width="51.20" height="27.50" fill="rgb(38,35,13)"/><line x1="32.00" y1="5.89" x2="32.00" y2="21.61" stroke="rgb(242,188,127)" stroke-width="2.69" stroke-linecap="butt"/><line x1="44.80" y1="5.89" x2="44.80" y2="21.61" stroke="rgb(242,188,127)" stroke-width="2.69" stroke-linecap="butt"/></g><g transform="translate(12.80,58.52) skewY(26.565)"><rect x="0" y="0" width="51.20" height="27.50" fill="rgb(70,64,23)"/><line x1="7.27" y1="16.04" x2="43.93" y2="16.04" stroke="rgb(255,163,79)" stroke-width="1.62" stroke-linecap="butt" stroke-dasharray="2.99,5.19"/><line x1="7.27" y1="20.62" x2="43.93" y2="20.62" stroke="rgb(255,163,79)" stroke-width="1.62" stroke-linecap="butt" stroke-dasharray="2.99,5.19"/><line x1="7.27" y1="25.21" x2="43.93" y2="25.21" stroke="rgb(255,163,79)" stroke-width="1.62" stroke-linecap="butt" stroke-dasharray="2.99,5.19"/></g><rect x="6.40" y="6.40" width="51.20" height="51.20" fill="rgb(114,105,45)" transform="matrix(1,0.5000,-1,0.5000,64.00,26.52)"/><g transform="translate(64.00,57.23) skewY(-26.565)"><rect x="0" y="0" width="51.20" height="26.89" fill="rgb(38,35,13)"/><line x1="8.28" y1="13.45" x2="42.92" y2="13.45" stroke="rgb(248,195,113)" stroke-width="1.39" stroke-linecap="butt"/></g><g transform="translate(12.80,31.63) skewY(26.565)"><rect x="0" y="0" width="51.20" height="26.89" fill="rgb(70,64,23)"/><line x1="29.87" y1="4.61" x2="29.87" y2="22.28" stroke="rgb(240,200,84)" stroke-width="2.94" stroke-linecap="butt" stroke-dasharray="4.00,2.50"/></g><rect x="6.40" y="6.40" width="51.20" height="51.20" fill="rgb(114,105,45)" transform="matrix(1,0.5000,-1,0.5000,64.00,-0.37)"/></g></svg>