<svg xmlns="http://www.w3.org/2000/svg" version="1.1" width="128" height="270"><g><rect x="3.52" y="3.52" width="56.96" height="56.96" fill="rgba(0,0,0,0.20)" transform="matrix(1,0.5000,-1,0.5000,66.50,199.52)"/><g transform="translate(64.00,203.29) skewY(-26.565)"><rect x="0" y="0" width="51.20" height="51.33" fill="rgb(33,29,14)"/><line x1="10.97" y1="11.08" x2="10.97" y2="40.25" stroke="rgb(247,157,96)" stroke-width="1.36" stroke-linecap="butt"/><line x1="18.29" y1="11.08" x2="18.29" y2="40.25" stroke="rgb(247,157,96)" stroke-width="1.36" stroke-linecap="butt"/><line x1="25.60" y1="11.08" x2="25.60" y2="40.25" stroke="rgb(247,157,96)" stroke-width="1.36" stroke-linecap="butt"/><line x1="32.91" y1="11.08" x2="32.91" y2="40.25" stroke="rgb(247,157,96)" stroke-width="1.36" stroke-linecap="butt"/><line x1="40.23" y1="11.08" x2="40.23" y2="40.25" stroke="rgb(247,157,96)" stroke-width="1.36" stroke-linecap="butt"/><line x1="47.54" y1="11.08" x2="47.54" y2="40.25" stroke="rgb(247,157,96)" stroke-width="1.36" stroke-linecap="butt"/></g><g transform="translate(12.80,177.69) skewY(26.565)"><rect x="0" y="0" width="51.20" height="51.33" fill="rgb(61,53,25)"/><line x1="10.53" y1="12.83" x2="40.67" y2="12.83" stroke="rgb(237,137,66)" stroke-width="1.18" stroke-linecap="butt"/><line x1="10.53" y1="21.39" x2="40.67" y2="21.39" stroke="rgb(237,137,66)" stroke-width="1.18" stroke-linecap="butt"/><line x1="10.53" y1="29.94" x2="40.67" y2="29.94" stroke="rgb(237,137,66)" stroke-width="1.18" stroke-linecap="butt"/><line x1="10.53" y1="38.50" x2="40.67" y2="38.50" stroke="rgb(237,137,66)" stroke-width="1.18" stroke-linecap="butt"/><line x1="10.53" y1="47.06" x2="40.67" y2="47.06" stroke="rgb(237,137,66)" stroke-width="1.18" stroke-linecap="butt"/></g><rect x="6.40" y="6.40" width="51.20" height="51.20" fill="rgb(103,91,49)" transform="matrix(1,0.5000,-1,0.5000,64.00,145.69)"/><g transform="translate(53.87,163.95) skewY(-26.565)"><rect x="0" y="0" width="5.93" height="17.97" fill="rgb(59,31,22)"/></g><g transform="translate(47.95,160.99) skewY(26.565)"><rect x="0" y="0" width="5.93" height="17.97" fill="rgb(96,50,36)"/></g><rect x="25.24" y="35.37" width="5.93" height="5.93" fill="rgb(117,70,56)" transform="matrix(1,0.5000,-1,0.5000,64.00,127.72)"/></g></svg>