<svg xmlns="http://www.w3.org/2000/svg" version="1.1" width="128" height="180"><g><rect x="3.52" y="3.52" width="26.46" height="56.96" fill="rgba(0,0,0,0.20)" transform="matrix(1,0.5000,-1,0.5000,66.50,109.52)"/><g transform="translate(33.50,103.42) skewY(-26.565)"><rect x="0" y="0" width="51.20" height="45.95" fill="rgb(49,43,15)"/><line x1="9.15" y1="5.74" x2="42.05" y2="5.74" stroke="rgb(240,213,132)" stroke-width="1.92" stroke-linecap="butt" stroke-dasharray="6.67,3.88"/></g><g transform="translate(12.80,93.07) skewY(26.565)"><rect x="0" y="0" width="20.70" height="45.95" fill="rgb(90,78,27)"/><line x1="3.61" y1="13.78" x2="17.09" y2="13.78" stroke="rgb(231,174,68)" stroke-width="1.53" stroke-linecap="butt" stroke-dasharray="3.38,2.14"/><line x1="3.61" y1="22.97" x2="17.09" y2="22.97" stroke="rgb(231,174,68)" stroke-width="1.53" stroke-linecap="butt" stroke-dasharray="3.38,2.14"/></g><rect x="6.40" y="6.40" width="20.70" height="51.20" fill="rgb(133,117,50)" transform="matrix(1,0.5000,-1,0.5000,64.00,61.07)"/><g transform="translate(42.79,60.22) skewY(-26.565)"><rect x="0" y="0" width="4.82" height="28.31" fill="rgb(59,29,22)"/></g><g transform="translate(37.97,57.81) skewY(26.565)"><rect x="0" y="0" width="4.82" height="28.31" fill="rgb(96,47,36)"/></g><rect x="12.03" y="33.24" width="4.82" height="4.82" fill="rgb(117,67,56)" transform="matrix(1,0.5000,-1,0.5000,64.00,32.76)"/><g transform="translate(64.13,59.90) skewY(-26.565)"><rect x="0" y="0" width="4.72" height="28.21" fill="rgb(59,34,22)"/></g><g transform="translate(59.40,57.54) skewY(26.565)"><rect x="0" y="0" width="4.72" height="28.21" fill="rgb(96,55,36)"/></g><rect x="22.38" y="22.25" width="4.72" height="4.72" fill="rgb(117,76,56)" transform="matrix(1,0.5000,-1,0.5000,64.00,32.86)"/><rect x="26.70" y="3.52" width="33.78" height="56.96" fill="rgba(0,0,0,0.20)" transform="matrix(1,0.5000,-1,0.5000,66.50,109.52)"/><g transform="translate(64.00,125.06) skewY(-26.565)"><rect x="0" y="0" width="51.20" height="39.56" fill="rgb(49,42,15)"/><line x1="10.97" y1="16.48" x2="40.23" y2="16.48" stroke="rgb(239,189,88)" stroke-width="2.68" stroke-linecap="butt"/><line x1="10.97" y1="23.08" x2="40.23" y2="23.08" stroke="rgb(239,189,88)" stroke-width="2.68" stroke-linecap="butt"/></g><g transform="translate(35.98,111.05) skewY(26.565)"><rect x="0" y="0" width="28.02" height="39.56" fill="rgb(90,77,27)"/><line x1="4.54" y1="4.95" x2="23.48" y2="4.95" stroke="rgb(252,179,57)" stroke-width="1.99" stroke-linecap="butt"/></g><rect x="29.58" y="6.40" width="28.02" height="51.20" fill="rgb(133,117,50)" transform="matrix(1,0.5000,-1,0.5000,64.00,67.46)"/></g></svg>