<svg xmlns="http://www.w3.org/2000/svg" xmlns:xlink="http://www.w3.org/1999/xlink" version="1.1" width="128" height="128"><defs/><g><path d="M63.44,77.52 L108.24,99.92 L69.84,119.12 L25.04,96.72 Z" fill="rgb(0,0,0)" fill-opacity="0.2"/><path d="M106.24,97.92 L67.84,117.12 L67.84,73.12 L106.24,53.92 Z" fill="#9c7d1e"/><path d="M106.24,97.92 L67.84,117.12 L67.84,73.12 L106.24,53.92 Z" fill="none" stroke="rgb(0,0,0)" stroke-opacity="0.4" stroke-width="1"/><path d="M23.04,94.72 L67.84,117.12 L67.84,73.12 L23.04,50.72 Z" fill="#5e4912"/><path d="M23.04,94.72 L67.84,117.12 L67.84,73.12 L23.04,50.72 Z" fill="none" stroke="rgb(0,0,0)" stroke-opacity="0.4" stroke-width="1"/><path d="M61.44,31.52 L106.24,53.92 L67.84,73.12 L23.04,50.72 Z" fill="#c9a227"/><path d="M61.44,31.52 L106.24,53.92 L67.84,73.12 L23.04,50.72 Z" fill="none" stroke="rgb(0,0,0)" stroke-opacity="0.4" stroke-width="1"/><path d="M70.4,41.76 L64,44.96 L64,30.96 L70.4,27.76 Z" fill="rgb(92,95,89)"/><path d="M70.4,41.76 L64,44.96 L64,30.96 L70.4,27.76 Z" fill="none" stroke="rgb(0,0,0)" stroke-opacity="0.4" stroke-width="1"/><path d="M57.6,41.76 L64,44.96 L64,30.96 L57.6,27.76 Z" fill="rgb(72,75,69)"/><path d="M57.6,41.76 L64,44.96 L64,30.96 L57.6,27.76 Z" fill="none" stroke="rgb(0,0,0)" stroke-opacity="0.4" stroke-width="1"/><path d="M64,24.56 L70.4,27.76 L64,30.96 L57.6,27.76 Z" fill="#6b6e68"/><path d="M64,24.56 L70.4,27.76 L64,30.96 L57.6,27.76 Z" fill="none" stroke="rgb(0,0,0)" stroke-opacity="0.4" stroke-width="1"/><path d="M87.04,50.08 L80.64,53.28 L80.64,39.28 L87.04,36.08 Z" fill="rgb(92,95,89)"/><path d="M87.04,50.08 L80.64,53.28 L80.64,39.28 L87.04,36.08 Z" fill="none" stroke="rgb(0,0,0)" stroke-opacity="0.4" stroke-width="1"/><path d="M74.24,50.08 L80.64,53.28 L80.64,39.28 L74.24,36.08 Z" fill="rgb(72,75,69)"/><path d="M74.24,50.08 L80.64,53.28 L80.64,39.28 L74.24,36.08 Z" fill="none" stroke="rgb(0,0,0)" stroke-opacity="0.4" stroke-width="1"/><path d="M80.64,32.88 L87.04,36.08 L80.64,39.28 L74.24,36.08 Z" fill="#6b6e68"/><path d="M80.64,32.88 L87.04,36.08 L80.64,39.28 L74.24,36.08 Z" fill="none" stroke="rgb(0,0,0)" stroke-opacity="0.4" stroke-width="1"/></g></svg>