<svg xmlns="http://www.w3.org/2000/svg" xmlns:xlink="http://www.w3.org/1999/xlink" version="1.1" width="128" height="288"><defs/><g><path d="M64.72,233.04 L117.2,259.28 L67.28,284.24 L14.8,258 Z" fill="rgb(0,0,0)" fill-opacity="0.2"/><path d="M115.2,257.28 L65.28,282.24 L65.28,190.24 L115.2,165.28 Z" fill="#403510"/><path d="M115.2,257.28 L65.28,282.24 L65.28,190.24 L115.2,165.28 Z" fill="none" stroke="rgb(0,0,0)" stroke-opacity="0.25" stroke-width="1"/><path d="M12.8,256 L65.28,282.24 L65.28,190.24 L12.8,164 Z" fill="#261f0a"/><path d="M12.8,256 L65.28,282.24 L65.28,190.24 L12.8,164 Z" fill="none" stroke="rgb(0,0,0)" stroke-opacity="0.25" stroke-width="1"/><path d="M62.72,139.04 L115.2,165.28 L65.28,190.24 L12.8,164 Z" fill="#5a4a16"/><path d="M62.72,139.04 L115.2,165.28 L65.28,190.24 L12.8,164 Z" fill="none" stroke="rgb(0,0,0)" stroke-opacity="0.25" stroke-width="1"/><path d="M115.2,196.56 L65.28,221.52" fill="none" stroke="rgb(255,143,71)" stroke-width="4.48" stroke-dasharray="6.54,5.02"/><path d="M115.2,226 L65.28,250.96" fill="none" stroke="rgb(255,233,72)" stroke-width="2.75" stroke-dasharray="8.45,6.02"/><path d="M72.96,151.2 L64,155.68 L64,63.68 L72.96,59.2 Z" fill="rgb(67,33,13)"/><path d="M72.96,151.2 L64,155.68 L64,63.68 L72.96,59.2 Z" fill="none" stroke="rgb(0,0,0)" stroke-opacity="0.25" stroke-width="1"/><path d="M55.04,151.2 L64,155.68 L64,63.68 L55.04,59.2 Z" fill="rgb(47,13,0)"/><path d="M55.04,151.2 L64,155.68 L64,63.68 L55.04,59.2 Z" fill="none" stroke="rgb(0,0,0)" stroke-opacity="0.25" stroke-width="1"/><path d="M64,54.72 L72.96,59.2 L64,63.68 L55.04,59.2 Z" fill="#52301c"/><path d="M64,54.72 L72.96,59.2 L64,63.68 L55.04,59.2 Z" fill="none" stroke="rgb(0,0,0)" stroke-opacity="0.25" stroke-width="1"/><path d="M85.76,158.24 L78.08,162.08 L78.08,48 L85.76,44.16 Z" fill="rgb(39,41,36)"/><path d="M85.76,158.24 L78.08,162.08 L78.08,48 L85.76,44.16 Z" fill="none" stroke="rgb(0,0,0)" stroke-opacity="0.25" stroke-width="1"/><path d="M70.4,158.24 L78.08,162.08 L78.08,48 L70.4,44.16 Z" fill="rgb(19,21,16)"/><path d="M70.4,158.24 L78.08,162.08 L78.08,48 L70.4,44.16 Z" fill="none" stroke="rgb(0,0,0)" stroke-opacity="0.25" stroke-width="1"/><path d="M78.08,40.32 L85.76,44.16 L78.08,48 L70.4,44.16 Z" fill="#363833"/><path d="M78.08,40.32 L85.76,44.16 L78.08,48 L70.4,44.16 Z" fill="none" stroke="rgb(0,0,0)" stroke-opacity="0.25" stroke-width="1"/><path d="M96,165.92 L88.32,169.76 L88.32,92.48 L96,88.64 Z" fill="rgb(84,43,19)"/><path d="M96,165.92 L88.32,169.76 L88.32,92.48 L96,88.64 Z" fill="none" stroke="rgb(0,0,0)" stroke-opacity="0.25" stroke-width="1"/><path d="M80.64,165.92 L88.32,169.76 L88.32,92.48 L80.64,88.64 Z" fill="rgb(64,23,0)"/><path d="M80.64,165.92 L88.32,169.76 L88.32,92.48 L80.64,88.64 Z" fill="none" stroke="rgb(0,0,0)" stroke-opacity="0.25" stroke-width="1"/><path d="M88.32,84.8 L96,88.64 L88.32,92.48 L80.64,88.64 Z" fill="#633a22"/><path d="M88.32,84.8 L96,88.64 L88.32,92.48 L80.64,88.64 Z" fill="none" stroke="rgb(0,0,0)" stroke-opacity="0.25" stroke-width="1"/></g></svg>