<svg xmlns="http://www.w3.org/2000/svg" version="1.1" width="128" height="112"><g><rect x="3.52" y="3.52" width="29.84" height="56.96" fill="rgba(0,0,0,0.20)" transform="matrix(1,0.5000,-1,0.5000,66.50,41.52)"/><g transform="translate(36.88,54.43) skewY(-26.565)"><rect x="0" y="0" width="51.20" height="28.63" fill="rgb(39,35,19)"/></g><g transform="translate(12.80,42.39) skewY(26.565)"><rect x="0" y="0" width="24.08" height="28.63" fill="rgb(71,63,34)"/></g><rect x="6.40" y="6.40" width="24.08" height="51.20" fill="rgb(112,100,60)" transform="matrix(1,0.5000,-1,0.5000,64.00,10.39)"/><g transform="translate(57.18,18.01) skewY(-26.565)"><rect x="0" y="0" width="4.81" height="26.28" fill="rgb(59,35,22)"/></g><g transform="translate(52.37,15.60) skewY(26.565)"><rect x="0" y="0" width="4.81" height="26.28" fill="rgb(96,57,36)"/></g><rect x="25.68" y="32.50" width="4.81" height="4.81" fill="rgb(117,77,56)" transform="matrix(1,0.5000,-1,0.5000,64.00,-15.89)"/><rect x="30.31" y="3.52" width="30.17" height="56.96" fill="rgba(0,0,0,0.20)" transform="matrix(1,0.5000,-1,0.5000,66.50,41.52)"/><g transform="translate(64.00,67.64) skewY(-26.565)"><rect x="0" y="0" width="51.20" height="28.98" fill="rgb(39,34,19)"/><line x1="15.36" y1="6.49" x2="15.36" y2="22.49" stroke="rgb(252,176,107)" stroke-width="2.5" stroke-linecap="butt"/><line x1="25.60" y1="6.49" x2="25.60" y2="22.49" stroke="rgb(252,176,107)" stroke-width="2.5" stroke-linecap="butt"/><line x1="35.84" y1="6.49" x2="35.84" y2="22.49" stroke="rgb(252,176,107)" stroke-width="2.5" stroke-linecap="butt"/></g><g transform="translate(39.59,55.43) skewY(26.565)"><rect x="0" y="0" width="24.41" height="28.98" fill="rgb(71,62,34)"/><line x1="7.32" y1="6.09" x2="7.32" y2="22.90" stroke="rgb(254,179,97)" stroke-width="2.71" stroke-linecap="butt"/></g><rect x="33.19" y="6.40" width="24.41" height="51.20" fill="rgb(112,99,60)" transform="matrix(1,0.5000,-1,0.5000,64.00,10.04)"/><g transform="translate(91.49,30.17) skewY(-26.565)"><rect x="0" y="0" width="4.96" height="23.72" fill="rgb(59,30,22)"/></g><g transform="translate(86.53,27.69) skewY(26.565)"><rect x="0" y="0" width="4.96" height="23.72" fill="rgb(96,49,36)"/></g><rect x="52.64" y="25.15" width="4.96" height="4.96" fill="rgb(117,69,56)" transform="matrix(1,0.5000,-1,0.5000,64.00,-13.68)"/></g></svg>