<svg xmlns="http://www.w3.org/2000/svg" xmlns:xlink="http://www.w3.org/1999/xlink" version="1.1" width="128" height="224"><defs/><g><path d="M62.16,172.88 L108.24,195.92 L69.84,215.12 L23.76,192.08 Z" fill="rgb(0,0,0)" fill-opacity="0.2"/><path d="M106.24,193.92 L67.84,213.12 L67.84,147.12 L106.24,127.92 Z" fill="#403510"/><path d="M106.24,193.92 L67.84,213.12 L67.84,147.12 L106.24,127.92 Z" fill="none" stroke="rgb(0,0,0)" stroke-opacity="0.25" stroke-width="1"/><path d="M21.76,190.08 L67.84,213.12 L67.84,147.12 L21.76,124.08 Z" fill="#261f0a"/><path d="M21.76,190.08 L67.84,213.12 L67.84,147.12 L21.76,124.08 Z" fill="none" stroke="rgb(0,0,0)" stroke-opacity="0.25" stroke-width="1"/><path d="M60.16,104.88 L106.24,127.92 L67.84,147.12 L21.76,124.08 Z" fill="#5a4a16"/><path d="M60.16,104.88 L106.24,127.92 L67.84,147.12 L21.76,124.08 Z" fill="none" stroke="rgb(0,0,0)" stroke-opacity="0.25" stroke-width="1"/><path d="M95.23,133.42 L95.23,199.42" fill="none" stroke="rgb(255,184,85)" stroke-width="2.06" stroke-dasharray="9.32,4.92"/><path d="M87.04,137.52 L87.04,203.52" fill="none" stroke="rgb(255,179,63)" stroke-width="3.9" stroke-dasharray="7.92,6.91"/><path d="M78.85,141.62 L78.85,207.62" fill="none" stroke="rgb(255,167,58)" stroke-width="4.36" stroke-dasharray="6.23,5.94"/><path d="M34.97,130.68 L34.97,196.68" fill="none" stroke="rgb(255,234,78)" stroke-width="3.03" stroke-dasharray="7.49,6.34"/><path d="M44.8,135.6 L44.8,201.6" fill="none" stroke="rgb(255,193,60)" stroke-width="4.66" stroke-dasharray="3.95,4.53"/><path d="M54.63,140.52 L54.63,206.52" fill="none" stroke="rgb(255,228,73)" stroke-width="2.61" stroke-dasharray="3.02,5.9"/><path d="M21.76,124.08 L44.8,135.6 L64,106 L40.96,94.48 Z" fill="#272927"/><path d="M21.76,124.08 L44.8,135.6 L64,106 L40.96,94.48 Z" fill="none" stroke="rgb(0,0,0)" stroke-opacity="0.25" stroke-width="2.61"/><path d="M83.2,116.4 L44.8,135.6 L64,106 Z" fill="#313431"/><path d="M83.2,116.4 L44.8,135.6 L64,106 Z" fill="none" stroke="rgb(0,0,0)" stroke-opacity="0.25" stroke-width="2.61"/><path d="M44.8,135.6 L67.84,147.12 L87.04,117.52 L64,106 Z" fill="#272927"/><path d="M44.8,135.6 L67.84,147.12 L87.04,117.52 L64,106 Z" fill="none" stroke="rgb(0,0,0)" stroke-opacity="0.25" stroke-width="2.61"/><path d="M106.24,127.92 L67.84,147.12 L87.04,117.52 Z" fill="#313431"/><path d="M106.24,127.92 L67.84,147.12 L87.04,117.52 Z" fill="none" stroke="rgb(0,0,0)" stroke-opacity="0.25" stroke-width="2.61"/></g></svg>