<svg xmlns="http://www.w3.org/2000/svg" xmlns:xlink="http://www.w3.org/1999/xlink" version="1.1" width="128" height="288"><defs/><g><path d="M62.16,234.32 L114.64,260.56 L69.84,282.96 L17.36,256.72 Z" fill="rgb(0,0,0)" fill-opacity="0.2"/><path d="M112.64,258.56 L67.84,280.96 L67.84,188.96 L112.64,166.56 Z" fill="#9c7d1e"/><path d="M112.64,258.56 L67.84,280.96 L67.84,188.96 L112.64,166.56 Z" fill="none" stroke="rgb(0,0,0)" stroke-opacity="0.4" stroke-width="1"/><path d="M15.36,254.72 L67.84,280.96 L67.84,188.96 L15.36,162.72 Z" fill="#5e4912"/><path d="M15.36,254.72 L67.84,280.96 L67.84,188.96 L15.36,162.72 Z" fill="none" stroke="rgb(0,0,0)" stroke-opacity="0.4" stroke-width="1"/><path d="M60.16,140.32 L112.64,166.56 L67.84,188.96 L15.36,162.72 Z" fill="#c9a227"/><path d="M60.16,140.32 L112.64,166.56 L67.84,188.96 L15.36,162.72 Z" fill="none" stroke="rgb(0,0,0)" stroke-opacity="0.4" stroke-width="1"/><path d="M17.46,172.97 L23.76,176.12 L23.76,203.72 L17.46,200.57 Z" fill="#ffb238"/><path d="M27.96,178.22 L34.25,181.37 L34.25,208.97 L27.96,205.82 Z" fill="#ffb238"/><path d="M38.45,183.47 L44.75,186.61 L44.75,214.21 L38.45,211.07 Z" fill="#ffb238"/><path d="M48.95,188.71 L55.24,191.86 L55.24,219.46 L48.95,216.31 Z" fill="#ffb238"/><path d="M59.44,193.96 L65.74,197.11 L65.74,224.71 L59.44,221.56 Z" fill="#ffb238"/><path d="M17.46,218.97 L23.76,222.12 L23.76,249.72 L17.46,246.57 Z" fill="#ffb238"/><path d="M27.96,224.22 L34.25,227.37 L34.25,254.97 L27.96,251.82 Z" fill="#ffb238"/><path d="M38.45,229.47 L44.75,232.61 L44.75,260.21 L38.45,257.07 Z" fill="#ffb238"/><path d="M48.95,234.71 L55.24,237.86 L55.24,265.46 L48.95,262.31 Z" fill="#ffb238"/><path d="M59.44,239.96 L65.74,243.11 L65.74,270.71 L59.44,267.56 Z" fill="#ffb238"/><path d="M74.24,152.48 L57.6,160.8 L57.6,87.2 L74.24,78.88 Z" fill="#9c7d1e"/><path d="M74.24,152.48 L57.6,160.8 L57.6,87.2 L74.24,78.88 Z" fill="none" stroke="rgb(0,0,0)" stroke-opacity="0.4" stroke-width="1"/><path d="M43.52,153.76 L57.6,160.8 L57.6,87.2 L43.52,80.16 Z" fill="#5e4912"/><path d="M43.52,153.76 L57.6,160.8 L57.6,87.2 L43.52,80.16 Z" fill="none" stroke="rgb(0,0,0)" stroke-opacity="0.4" stroke-width="1"/><path d="M60.16,71.84 L74.24,78.88 L57.6,87.2 L43.52,80.16 Z" fill="#c9a227"/><path d="M60.16,71.84 L74.24,78.88 L57.6,87.2 L43.52,80.16 Z" fill="none" stroke="rgb(0,0,0)" stroke-opacity="0.4" stroke-width="1"/><path d="M70.91,85.45 L60.93,90.44 L60.93,105.16 L70.91,100.17 Z" fill="#ffb238"/><path d="M70.91,109.98 L60.93,114.98 L60.93,129.7 L70.91,124.7 Z" fill="#ffb238"/><path d="M70.91,134.52 L60.93,139.51 L60.93,154.23 L70.91,149.24 Z" fill="#ffb238"/><path d="M46.34,86.47 L54.78,90.7 L54.78,105.42 L46.34,101.19 Z" fill="#ffb238"/><path d="M46.34,111.01 L54.78,115.23 L54.78,129.95 L46.34,125.73 Z" fill="#ffb238"/><path d="M46.34,135.54 L54.78,139.77 L54.78,154.49 L46.34,150.26 Z" fill="#ffb238"/><path d="M98.56,166.56 L89.6,171.04 L89.6,79.04 L98.56,74.56 Z" fill="rgb(141,75,35)"/><path d="M98.56,166.56 L89.6,171.04 L89.6,79.04 L98.56,74.56 Z" fill="none" stroke="rgb(0,0,0)" stroke-opacity="0.4" stroke-width="1"/><path d="M80.64,166.56 L89.6,171.04 L89.6,79.04 L80.64,74.56 Z" fill="rgb(121,55,15)"/><path d="M80.64,166.56 L89.6,171.04 L89.6,79.04 L80.64,74.56 Z" fill="none" stroke="rgb(0,0,0)" stroke-opacity="0.4" stroke-width="1"/><path d="M89.6,70.08 L98.56,74.56 L89.6,79.04 L80.64,74.56 Z" fill="#9c5a32"/><path d="M89.6,70.08 L98.56,74.56 L89.6,79.04 L80.64,74.56 Z" fill="none" stroke="rgb(0,0,0)" stroke-opacity="0.4" stroke-width="1"/></g></svg>