<svg xmlns="http://www.w3.org/2000/svg" version="1.1" width="128" height="180"><g><rect x="3.52" y="3.52" width="29.48" height="56.96" fill="rgba(0,0,0,0.20)" transform="matrix(1,0.5000,-1,0.5000,66.50,109.52)"/><g transform="translate(36.52,109.20) skewY(-26.565)"><rect x="0" y="0" width="51.20" height="41.68" fill="rgb(49,38,23)"/><line x1="6.40" y1="8.00" x2="6.40" y2="33.68" stroke="rgb(254,185,66)" stroke-width="1.62" stroke-linecap="butt" stroke-dasharray="7.77,2.56"/><line x1="19.20" y1="8.00" x2="19.20" y2="33.68" stroke="rgb(254,185,66)" stroke-width="1.62" stroke-linecap="butt" stroke-dasharray="7.77,2.56"/><line x1="32.00" y1="8.00" x2="32.00" y2="33.68" stroke="rgb(254,185,66)" stroke-width="1.62" stroke-linecap="butt" stroke-dasharray="7.77,2.56"/></g><g transform="translate(12.80,97.34) skewY(26.565)"><rect x="0" y="0" width="23.72" height="41.68" fill="rgb(90,68,42)"/><line x1="4.01" y1="15.63" x2="19.71" y2="15.63" stroke="rgb(247,210,94)" stroke-width="2.53" stroke-linecap="butt" stroke-dasharray="8.30,4.30"/></g><rect x="6.40" y="6.40" width="23.72" height="51.20" fill="rgb(129,102,68)" transform="matrix(1,0.5000,-1,0.5000,64.00,65.34)"/><g transform="translate(36.52,65.96) skewY(-26.565)"><rect x="0" y="0" width="51.20" height="43.24" fill="rgb(49,37,23)"/><line x1="9.35" y1="5.41" x2="41.85" y2="5.41" stroke="rgb(243,177,88)" stroke-width="3.09" stroke-linecap="butt"/><line x1="9.35" y1="16.22" x2="41.85" y2="16.22" stroke="rgb(243,177,88)" stroke-width="3.09" stroke-linecap="butt"/><line x1="9.35" y1="27.03" x2="41.85" y2="27.03" stroke="rgb(243,177,88)" stroke-width="3.09" stroke-linecap="butt"/><line x1="9.35" y1="37.84" x2="41.85" y2="37.84" stroke="rgb(243,177,88)" stroke-width="3.09" stroke-linecap="butt"/></g><g transform="translate(12.80,54.10) skewY(26.565)"><rect x="0" y="0" width="23.72" height="43.24" fill="rgb(90,67,42)"/><line x1="5.93" y1="7.48" x2="5.93" y2="35.76" stroke="rgb(236,200,86)" stroke-width="2.43" stroke-linecap="butt" stroke-dasharray="4.52,1.97"/><line x1="9.88" y1="7.48" x2="9.88" y2="35.76" stroke="rgb(236,200,86)" stroke-width="2.43" stroke-linecap="butt" stroke-dasharray="4.52,1.97"/><line x1="13.84" y1="7.48" x2="13.84" y2="35.76" stroke="rgb(236,200,86)" stroke-width="2.43" stroke-linecap="butt" stroke-dasharray="4.52,1.97"/><line x1="17.79" y1="7.48" x2="17.79" y2="35.76" stroke="rgb(236,200,86)" stroke-width="2.43" stroke-linecap="butt" stroke-dasharray="4.52,1.97"/><line x1="21.74" y1="7.48" x2="21.74" y2="35.76" stroke="rgb(236,200,86)" stroke-width="2.43" stroke-linecap="butt" stroke-dasharray="4.52,1.97"/></g><rect x="6.40" y="6.40" width="23.72" height="51.20" fill="rgb(129,100,68)" transform="matrix(1,0.5000,-1,0.5000,64.00,22.10)"/><rect x="30.17" y="3.52" width="30.31" height="56.96" fill="rgba(0,0,0,0.20)" transform="matrix(1,0.5000,-1,0.5000,66.50,109.52)"/><g transform="translate(64.00,125.85) skewY(-26.565)"><rect x="0" y="0" width="51.20" height="38.77" fill="rgb(49,40,23)"/><line x1="21.33" y1="5.88" x2="21.33" y2="32.89" stroke="rgb(248,218,117)" stroke-width="3.12" stroke-linecap="butt"/><line x1="29.87" y1="5.88" x2="29.87" y2="32.89" stroke="rgb(248,218,117)" stroke-width="3.12" stroke-linecap="butt"/></g><g transform="translate(39.45,113.58) skewY(26.565)"><rect x="0" y="0" width="24.55" height="38.77" fill="rgb(90,72,42)"/><line x1="1.75" y1="8.60" x2="1.75" y2="30.17" stroke="rgb(250,201,91)" stroke-width="3.15" stroke-linecap="butt" stroke-dasharray="5.85,5.09"/><line x1="5.26" y1="8.60" x2="5.26" y2="30.17" stroke="rgb(250,201,91)" stroke-width="3.15" stroke-linecap="butt" stroke-dasharray="5.85,5.09"/><line x1="8.77" y1="8.60" x2="8.77" y2="30.17" stroke="rgb(250,201,91)" stroke-width="3.15" stroke-linecap="butt" stroke-dasharray="5.85,5.09"/><line x1="12.27" y1="8.60" x2="12.27" y2="30.17" stroke="rgb(250,201,91)" stroke-width="3.15" stroke-linecap="butt" stroke-dasharray="5.85,5.09"/><line x1="15.78" y1="8.60" x2="15.78" y2="30.17" stroke="rgb(250,201,91)" stroke-width="3.15" stroke-linecap="butt" stroke-dasharray="5.85,5.09"/></g><rect x="33.05" y="6.40" width="24.55" height="51.20" fill="rgb(129,107,68)" transform="matrix(1,0.5000,-1,0.5000,64.00,68.25)"/><g transform="translate(64.00,85.58) skewY(-26.565)"><rect x="0" y="0" width="51.20" height="40.28" fill="rgb(49,39,23)"/><line x1="8.38" y1="3.36" x2="42.82" y2="3.36" stroke="rgb(235,202,112)" stroke-width="2.4" stroke-linecap="butt"/><line x1="8.38" y1="10.07" x2="42.82" y2="10.07" stroke="rgb(235,202,112)" stroke-width="2.4" stroke-linecap="butt"/><line x1="8.38" y1="16.78" x2="42.82" y2="16.78" stroke="rgb(235,202,112)" stroke-width="2.4" stroke-linecap="butt"/><line x1="8.38" y1="23.50" x2="42.82" y2="23.50" stroke="rgb(235,202,112)" stroke-width="2.4" stroke-linecap="butt"/><line x1="8.38" y1="30.21" x2="42.82" y2="30.21" stroke="rgb(235,202,112)" stroke-width="2.4" stroke-linecap="butt"/><line x1="8.38" y1="36.92" x2="42.82" y2="36.92" stroke="rgb(235,202,112)" stroke-width="2.4" stroke-linecap="butt"/></g><g transform="translate(39.45,73.30) skewY(26.565)"><rect x="0" y="0" width="24.55" height="40.28" fill="rgb(90,71,42)"/><line x1="6.14" y1="9.65" x2="6.14" y2="30.63" stroke="rgb(252,208,95)" stroke-width="1.39" stroke-linecap="butt"/><line x1="10.23" y1="9.65" x2="10.23" y2="30.63" stroke="rgb(252,208,95)" stroke-width="1.39" stroke-linecap="butt"/></g><rect x="33.05" y="6.40" width="24.55" height="51.20" fill="rgb(129,106,68)" transform="matrix(1,0.5000,-1,0.5000,64.00,27.98)"/><g transform="translate(64.00,47.47) skewY(-26.565)"><rect x="0" y="0" width="51.20" height="38.11" fill="rgb(49,39,23)"/></g><g transform="translate(39.45,35.19) skewY(26.565)"><rect x="0" y="0" width="24.55" height="38.11" fill="rgb(90,70,42)"/><line x1="4.00" y1="13.61" x2="20.55" y2="13.61" stroke="rgb(244,173,97)" stroke-width="2.2" stroke-linecap="butt"/><line x1="4.00" y1="19.06" x2="20.55" y2="19.06" stroke="rgb(244,173,97)" stroke-width="2.2" stroke-linecap="butt"/></g><rect x="33.05" y="6.40" width="24.55" height="51.20" fill="rgb(129,105,68)" transform="matrix(1,0.5000,-1,0.5000,64.00,-10.13)"/><g transform="translate(85.96,11.87) skewY(-26.565)"><rect x="0" y="0" width="4.71" height="14.06" fill="rgb(59,29,22)"/></g><g transform="translate(81.25,9.52) skewY(26.565)"><rect x="0" y="0" width="4.71" height="14.06" fill="rgb(96,47,36)"/></g><rect x="42.34" y="20.38" width="4.71" height="4.71" fill="rgb(117,67,56)" transform="matrix(1,0.5000,-1,0.5000,64.00,-24.19)"/></g></svg>