<svg xmlns:xlink="http://www.w3.org/1999/xlink" version="1.1" xmlns="http://www.w3.org/2000/svg" width="128" height="288"><defs/><g><g transform="translate(2,2)"><path fill="rgb(0,0,0)" stroke="none" paint-order="stroke fill markers" d=" M 60.16 232.32 L 112.64 258.56 L 67.84 280.96 L 15.36 254.72 Z" fill-opacity="0.20"/></g><path fill="#9a9a92" stroke="rgb(0,0,0)" paint-order="fill stroke markers" d=" M 112.64 258.56 L 67.84 280.96 L 67.84 188.95999999999998 L 112.64 166.56 Z" stroke-opacity="0.35" stroke-miterlimit="10"/><path fill="#69695f" stroke="rgb(0,0,0)" paint-order="fill stroke markers" d=" M 15.36 254.72 L 67.84 280.96 L 67.84 188.95999999999998 L 15.36 162.72 Z" stroke-opacity="0.35" stroke-miterlimit="10"/><path fill="#bdbdb4" stroke="rgb(0,0,0)" paint-order="fill stroke markers" d=" M 60.16 140.32 L 112.64 166.56 L 67.84 188.95999999999998 L 15.36 162.72 Z" stroke-opacity="0.35" stroke-miterlimit="10"/><path fill="#cdd2c8" stroke="none" paint-order="stroke fill markers" d=" M 17.4592 172.96959999999999 L 23.7568 176.1184 L 23.7568 203.7184 L 17.4592 200.5696 Z"/><path fill="#cdd2c8" stroke="none" paint-order="stroke fill markers" d=" M 27.955199999999998 178.2176 L 34.2528 181.3664 L 34.2528 208.9664 L 27.955199999999998 205.8176 Z"/><path fill="#cdd2c8" stroke="none" paint-order="stroke fill markers" d=" M 38.4512 183.4656 L 44.7488 186.6144 L 44.7488 214.2144 L 38.4512 211.06560000000002 Z"/><path fill="#cdd2c8" stroke="none" paint-order="stroke fill markers" d=" M 48.9472 188.71359999999999 L 55.244800000000005 191.86239999999998 L 55.244800000000005 219.4624 L 48.9472 216.3136 Z"/><path fill="#cdd2c8" stroke="none" paint-order="stroke fill markers" d=" M 59.443200000000004 193.96159999999998 L 65.74080000000001 197.11039999999997 L 65.74080000000001 224.7104 L 59.443200000000004 221.5616 Z"/><path fill="#cdd2c8" stroke="none" paint-order="stroke fill markers" d=" M 17.4592 218.96959999999999 L 23.7568 222.1184 L 23.7568 249.71840000000003 L 17.4592 246.56959999999998 Z"/><path fill="#cdd2c8" stroke="none" paint-order="stroke fill markers" d=" M 27.955199999999998 224.2176 L 34.2528 227.3664 L 34.2528 254.96640000000002 L 27.955199999999998 251.81760000000003 Z"/><path fill="#cdd2c8" stroke="none" paint-order="stroke fill markers" d=" M 38.4512 229.4656 L 44.7488 232.6144 L 44.7488 260.2144 L 38.4512 257.0656 Z"/><path fill="#cdd2c8" stroke="none" paint-order="stroke fill markers" d=" M 48.9472 234.71359999999999 L 55.244800000000005 237.86239999999998 L 55.244800000000005 265.4624 L 48.9472 262.3136 Z"/><path fill="#cdd2c8" stroke="none" paint-order="stroke fill markers" d=" M 59.443200000000004 239.96159999999998 L 65.74080000000001 243.11039999999997 L 65.74080000000001 270.7104 L 59.443200000000004 267.5616 Z"/><path fill="#9a9a92" stroke="rgb(0,0,0)" paint-order="fill stroke markers" d=" M 74.24000000000001 152.48 L 57.6 160.8 L 57.6 87.19999999999999 L 74.24000000000001 78.87999999999997 Z" stroke-opacity="0.35" stroke-miterlimit="10"/><path fill="#69695f" stroke="rgb(0,0,0)" paint-order="fill stroke markers" d=" M 43.519999999999996 153.76 L 57.6 160.8 L 57.6 87.19999999999999 L 43.519999999999996 80.15999999999997 Z" stroke-opacity="0.35" stroke-miterlimit="10"/><path fill="#bdbdb4" stroke="rgb(0,0,0)" paint-order="fill stroke markers" d=" M 60.16 71.83999999999997 L 74.24000000000001 78.87999999999997 L 57.6 87.19999999999999 L 43.519999999999996 80.15999999999997 Z" stroke-opacity="0.35" stroke-miterlimit="10"/><path fill="#cdd2c8" stroke="none" paint-order="stroke fill markers" d=" M 70.912 85.45066666666663 L 60.928000000000004 90.44266666666665 L 60.928000000000004 105.16266666666665 L 70.912 100.17066666666665 Z"/><path fill="#cdd2c8" stroke="none" paint-order="stroke fill markers" d=" M 70.912 109.98399999999998 L 60.928000000000004 114.97599999999998 L 60.928000000000004 129.696 L 70.912 124.70399999999998 Z"/><path fill="#cdd2c8" stroke="none" paint-order="stroke fill markers" d=" M 70.912 134.51733333333334 L 60.928000000000004 139.50933333333333 L 60.928000000000004 154.22933333333333 L 70.912 149.2373333333333 Z"/><path fill="#cdd2c8" stroke="none" paint-order="stroke fill markers" d=" M 46.336 86.47466666666664 L 54.784 90.69866666666665 L 54.784 105.41866666666665 L 46.336 101.19466666666665 Z"/><path fill="#cdd2c8" stroke="none" paint-order="stroke fill markers" d=" M 46.336 111.00799999999998 L 54.784 115.23199999999999 L 54.784 129.952 L 46.336 125.72799999999998 Z"/><path fill="#cdd2c8" stroke="none" paint-order="stroke fill markers" d=" M 46.336 135.54133333333334 L 54.784 139.76533333333333 L 54.784 154.4853333333333 L 46.336 150.2613333333333 Z"/><path fill="rgb(141,75,35)" stroke="rgb(0,0,0)" paint-order="fill stroke markers" d=" M 98.56 166.56 L 89.6 171.04000000000002 L 89.6 79.04000000000002 L 98.56 74.56 Z" stroke-opacity="0.4" stroke-miterlimit="10"/><path fill="rgb(121,55,15)" stroke="rgb(0,0,0)" paint-order="fill stroke markers" d=" M 80.63999999999999 166.56 L 89.6 171.04000000000002 L 89.6 79.04000000000002 L 80.63999999999999 74.56 Z" stroke-opacity="0.4" stroke-miterlimit="10"/><path fill="#9c5a32" stroke="rgb(0,0,0)" paint-order="fill stroke markers" d=" M 89.6 70.07999999999998 L 98.56 74.56 L 89.6 79.04000000000002 L 80.63999999999999 74.56 Z" stroke-opacity="0.4" stroke-miterlimit="10"/></g></svg>