<svg xmlns="http://www.w3.org/2000/svg" version="1.1" width="128" height="119"><g><rect x="3.52" y="3.52" width="39.12" height="27.90" fill="rgba(0,0,0,0.20)" transform="matrix(1,0.5000,-1,0.5000,66.50,48.52)"/><g transform="translate(75.23,52.30) skewY(-26.565)"><rect x="0" y="0" width="22.14" height="27.87" fill="rgb(40,35,19)"/><line x1="3.44" y1="8.36" x2="18.69" y2="8.36" stroke="rgb(236,203,83)" stroke-width="1.19" stroke-linecap="butt"/><line x1="3.44" y1="13.93" x2="18.69" y2="13.93" stroke="rgb(236,203,83)" stroke-width="1.19" stroke-linecap="butt"/><line x1="3.44" y1="19.51" x2="18.69" y2="19.51" stroke="rgb(236,203,83)" stroke-width="1.19" stroke-linecap="butt"/><line x1="3.44" y1="25.08" x2="18.69" y2="25.08" stroke="rgb(236,203,83)" stroke-width="1.19" stroke-linecap="butt"/></g><g transform="translate(41.86,35.62) skewY(26.565)"><rect x="0" y="0" width="33.36" height="27.87" fill="rgb(73,64,35)"/><line x1="10.01" y1="6.13" x2="10.01" y2="21.74" stroke="rgb(240,204,118)" stroke-width="2.61" stroke-linecap="butt"/><line x1="16.68" y1="6.13" x2="16.68" y2="21.74" stroke="rgb(240,204,118)" stroke-width="2.61" stroke-linecap="butt"/><line x1="23.35" y1="6.13" x2="23.35" y2="21.74" stroke="rgb(240,204,118)" stroke-width="2.61" stroke-linecap="butt"/><line x1="30.03" y1="6.13" x2="30.03" y2="21.74" stroke="rgb(240,204,118)" stroke-width="2.61" stroke-linecap="butt"/></g><rect x="6.40" y="6.40" width="33.36" height="22.14" fill="rgb(113,100,61)" transform="matrix(1,0.5000,-1,0.5000,64.00,18.15)"/><rect x="3.52" y="30.76" width="39.12" height="29.72" fill="rgba(0,0,0,0.20)" transform="matrix(1,0.5000,-1,0.5000,66.50,48.52)"/><g transform="translate(46.16,60.77) skewY(-26.565)"><rect x="0" y="0" width="23.96" height="33.93" fill="rgb(40,35,19)"/><line x1="4.13" y1="7.27" x2="19.83" y2="7.27" stroke="rgb(237,207,106)" stroke-width="1.66" stroke-linecap="butt" stroke-dasharray="2.79,4.29"/><line x1="4.13" y1="12.12" x2="19.83" y2="12.12" stroke="rgb(237,207,106)" stroke-width="1.66" stroke-linecap="butt" stroke-dasharray="2.79,4.29"/><line x1="4.13" y1="16.97" x2="19.83" y2="16.97" stroke="rgb(237,207,106)" stroke-width="1.66" stroke-linecap="butt" stroke-dasharray="2.79,4.29"/><line x1="4.13" y1="21.81" x2="19.83" y2="21.81" stroke="rgb(237,207,106)" stroke-width="1.66" stroke-linecap="butt" stroke-dasharray="2.79,4.29"/><line x1="4.13" y1="26.66" x2="19.83" y2="26.66" stroke="rgb(237,207,106)" stroke-width="1.66" stroke-linecap="butt" stroke-dasharray="2.79,4.29"/><line x1="4.13" y1="31.51" x2="19.83" y2="31.51" stroke="rgb(237,207,106)" stroke-width="1.66" stroke-linecap="butt" stroke-dasharray="2.79,4.29"/></g><g transform="translate(12.80,44.09) skewY(26.565)"><rect x="0" y="0" width="33.36" height="33.93" fill="rgb(73,64,35)"/><line x1="7.97" y1="12.12" x2="25.39" y2="12.12" stroke="rgb(254,221,120)" stroke-width="2.55" stroke-linecap="butt" stroke-dasharray="8.01,5.14"/><line x1="7.97" y1="16.97" x2="25.39" y2="16.97" stroke="rgb(254,221,120)" stroke-width="2.55" stroke-linecap="butt" stroke-dasharray="8.01,5.14"/><line x1="7.97" y1="21.81" x2="25.39" y2="21.81" stroke="rgb(254,221,120)" stroke-width="2.55" stroke-linecap="butt" stroke-dasharray="8.01,5.14"/><line x1="7.97" y1="26.66" x2="25.39" y2="26.66" stroke="rgb(254,221,120)" stroke-width="2.55" stroke-linecap="butt" stroke-dasharray="8.01,5.14"/></g><rect x="6.40" y="33.64" width="33.36" height="23.96" fill="rgb(113,101,61)" transform="matrix(1,0.5000,-1,0.5000,64.00,12.09)"/><g transform="translate(46.16,37.39) skewY(-26.565)"><rect x="0" y="0" width="23.96" height="23.38" fill="rgb(40,35,19)"/><line x1="5.47" y1="8.35" x2="18.49" y2="8.35" stroke="rgb(254,189,97)" stroke-width="1.38" stroke-linecap="butt"/><line x1="5.47" y1="11.69" x2="18.49" y2="11.69" stroke="rgb(254,189,97)" stroke-width="1.38" stroke-linecap="butt"/></g><g transform="translate(12.80,20.71) skewY(26.565)"><rect x="0" y="0" width="33.36" height="23.38" fill="rgb(73,63,35)"/><line x1="5.97" y1="1.67" x2="27.40" y2="1.67" stroke="rgb(245,206,92)" stroke-width="1.26" stroke-linecap="butt" stroke-dasharray="7.35,5.22"/><line x1="5.97" y1="5.01" x2="27.40" y2="5.01" stroke="rgb(245,206,92)" stroke-width="1.26" stroke-linecap="butt" stroke-dasharray="7.35,5.22"/><line x1="5.97" y1="8.35" x2="27.40" y2="8.35" stroke="rgb(245,206,92)" stroke-width="1.26" stroke-linecap="butt" stroke-dasharray="7.35,5.22"/><line x1="5.97" y1="11.69" x2="27.40" y2="11.69" stroke="rgb(245,206,92)" stroke-width="1.26" stroke-linecap="butt" stroke-dasharray="7.35,5.22"/><line x1="5.97" y1="15.03" x2="27.40" y2="15.03" stroke="rgb(245,206,92)" stroke-width="1.26" stroke-linecap="butt" stroke-dasharray="7.35,5.22"/><line x1="5.97" y1="18.37" x2="27.40" y2="18.37" stroke="rgb(245,206,92)" stroke-width="1.26" stroke-linecap="butt" stroke-dasharray="7.35,5.22"/></g><rect x="6.40" y="33.64" width="33.36" height="23.96" fill="rgb(113,99,61)" transform="matrix(1,0.5000,-1,0.5000,64.00,-11.29)"/><g transform="translate(58.47,11.24) skewY(-26.565)"><rect x="0" y="0" width="4.36" height="16.59" fill="rgb(59,34,22)"/></g><g transform="translate(54.11,9.06) skewY(26.565)"><rect x="0" y="0" width="4.36" height="16.59" fill="rgb(96,55,36)"/></g><rect x="32.00" y="37.52" width="4.36" height="4.36" fill="rgb(117,75,56)" transform="matrix(1,0.5000,-1,0.5000,64.00,-27.88)"/><rect x="41.20" y="3.52" width="19.28" height="56.96" fill="rgba(0,0,0,0.20)" transform="matrix(1,0.5000,-1,0.5000,66.50,48.52)"/><g transform="translate(64.00,77.72) skewY(-26.565)"><rect x="0" y="0" width="51.20" height="25.90" fill="rgb(40,35,19)"/><line x1="8.71" y1="9.71" x2="42.49" y2="9.71" stroke="rgb(238,196,100)" stroke-width="2.76" stroke-linecap="butt" stroke-dasharray="4.01,5.77"/></g><g transform="translate(50.48,70.96) skewY(26.565)"><rect x="0" y="0" width="13.52" height="25.90" fill="rgb(73,63,35)"/><line x1="0.97" y1="3.63" x2="0.97" y2="22.26" stroke="rgb(252,198,102)" stroke-width="1.3" stroke-linecap="butt"/><line x1="2.90" y1="3.63" x2="2.90" y2="22.26" stroke="rgb(252,198,102)" stroke-width="1.3" stroke-linecap="butt"/><line x1="4.83" y1="3.63" x2="4.83" y2="22.26" stroke="rgb(252,198,102)" stroke-width="1.3" stroke-linecap="butt"/><line x1="6.76" y1="3.63" x2="6.76" y2="22.26" stroke="rgb(252,198,102)" stroke-width="1.3" stroke-linecap="butt"/><line x1="8.69" y1="3.63" x2="8.69" y2="22.26" stroke="rgb(252,198,102)" stroke-width="1.3" stroke-linecap="butt"/><line x1="10.62" y1="3.63" x2="10.62" y2="22.26" stroke="rgb(252,198,102)" stroke-width="1.3" stroke-linecap="butt"/><line x1="12.56" y1="3.63" x2="12.56" y2="22.26" stroke="rgb(252,198,102)" stroke-width="1.3" stroke-linecap="butt"/></g><rect x="44.08" y="6.40" width="13.52" height="51.20" fill="rgb(113,100,61)" transform="matrix(1,0.5000,-1,0.5000,64.00,20.12)"/><g transform="translate(94.65,46.67) skewY(-26.565)"><rect x="0" y="0" width="5.62" height="15.73" fill="rgb(59,29,22)"/></g><g transform="translate(89.03,43.86) skewY(26.565)"><rect x="0" y="0" width="5.62" height="15.73" fill="rgb(96,47,36)"/></g><rect x="51.98" y="21.33" width="5.62" height="5.62" fill="rgb(117,67,56)" transform="matrix(1,0.5000,-1,0.5000,64.00,4.39)"/></g></svg>