<svg xmlns="http://www.w3.org/2000/svg" version="1.1" width="128" height="270"><g><rect x="3.52" y="3.52" width="25.04" height="40.18" fill="rgba(0,0,0,0.20)" transform="matrix(1,0.5000,-1,0.5000,66.50,199.52)"/><g transform="translate(48.86,174.01) skewY(-26.565)"><rect x="0" y="0" width="34.42" height="56.26" fill="rgb(44,35,16)"/><line x1="17.21" y1="8.37" x2="17.21" y2="47.89" stroke="rgb(249,149,56)" stroke-width="1.62" stroke-linecap="butt"/></g><g transform="translate(29.58,164.37) skewY(26.565)"><rect x="0" y="0" width="19.28" height="56.26" fill="rgb(80,63,29)"/><line x1="3.87" y1="4.02" x2="15.42" y2="4.02" stroke="rgb(241,146,80)" stroke-width="3.1" stroke-linecap="butt"/><line x1="3.87" y1="12.06" x2="15.42" y2="12.06" stroke="rgb(241,146,80)" stroke-width="3.1" stroke-linecap="butt"/><line x1="3.87" y1="20.09" x2="15.42" y2="20.09" stroke="rgb(241,146,80)" stroke-width="3.1" stroke-linecap="butt"/><line x1="3.87" y1="28.13" x2="15.42" y2="28.13" stroke="rgb(241,146,80)" stroke-width="3.1" stroke-linecap="butt"/><line x1="3.87" y1="36.17" x2="15.42" y2="36.17" stroke="rgb(241,146,80)" stroke-width="3.1" stroke-linecap="butt"/><line x1="3.87" y1="44.21" x2="15.42" y2="44.21" stroke="rgb(241,146,80)" stroke-width="3.1" stroke-linecap="butt"/><line x1="3.87" y1="52.24" x2="15.42" y2="52.24" stroke="rgb(241,146,80)" stroke-width="3.1" stroke-linecap="butt"/></g><rect x="6.40" y="6.40" width="19.28" height="34.42" fill="rgb(122,100,52)" transform="matrix(1,0.5000,-1,0.5000,64.00,140.76)"/><g transform="translate(51.89,101.79) skewY(-26.565)"><rect x="0" y="0" width="20.65" height="66.85" fill="rgb(44,36,16)"/><line x1="4.67" y1="23.88" x2="15.98" y2="23.88" stroke="rgb(242,180,98)" stroke-width="1.73" stroke-linecap="butt"/><line x1="4.67" y1="33.43" x2="15.98" y2="33.43" stroke="rgb(242,180,98)" stroke-width="1.73" stroke-linecap="butt"/><line x1="4.67" y1="42.98" x2="15.98" y2="42.98" stroke="rgb(242,180,98)" stroke-width="1.73" stroke-linecap="butt"/><line x1="4.67" y1="52.53" x2="15.98" y2="52.53" stroke="rgb(242,180,98)" stroke-width="1.73" stroke-linecap="butt"/><line x1="4.67" y1="62.08" x2="15.98" y2="62.08" stroke="rgb(242,180,98)" stroke-width="1.73" stroke-linecap="butt"/></g><g transform="translate(40.32,96.00) skewY(26.565)"><rect x="0" y="0" width="11.57" height="66.85" fill="rgb(80,66,29)"/><line x1="5.79" y1="10.12" x2="5.79" y2="56.73" stroke="rgb(233,141,79)" stroke-width="2.56" stroke-linecap="butt"/><line x1="7.44" y1="10.12" x2="7.44" y2="56.73" stroke="rgb(233,141,79)" stroke-width="2.56" stroke-linecap="butt"/></g><rect x="10.26" y="13.28" width="11.57" height="20.65" fill="rgb(122,103,52)" transform="matrix(1,0.5000,-1,0.5000,64.00,73.90)"/><g transform="translate(60.97,60.59) skewY(-26.565)"><rect x="0" y="0" width="5.39" height="30.47" fill="rgb(59,30,22)"/></g><g transform="translate(55.58,57.90) skewY(26.565)"><rect x="0" y="0" width="5.39" height="30.47" fill="rgb(96,48,36)"/></g><rect x="10.26" y="13.28" width="5.39" height="5.39" fill="rgb(117,69,56)" transform="matrix(1,0.5000,-1,0.5000,64.00,43.44)"/><rect x="26.62" y="3.52" width="33.86" height="40.18" fill="rgba(0,0,0,0.20)" transform="matrix(1,0.5000,-1,0.5000,66.50,199.52)"/><g transform="translate(80.78,175.03) skewY(-26.565)"><rect x="0" y="0" width="34.42" height="71.20" fill="rgb(44,37,16)"/><line x1="17.21" y1="17.08" x2="17.21" y2="54.12" stroke="rgb(233,181,90)" stroke-width="1.19" stroke-linecap="butt"/></g><g transform="translate(52.68,160.98) skewY(26.565)"><rect x="0" y="0" width="28.10" height="71.20" fill="rgb(80,67,29)"/><line x1="11.71" y1="16.42" x2="11.71" y2="54.79" stroke="rgb(241,182,100)" stroke-width="1.45" stroke-linecap="butt" stroke-dasharray="2.82,3.27"/></g><rect x="29.50" y="6.40" width="28.10" height="34.42" fill="rgb(122,104,52)" transform="matrix(1,0.5000,-1,0.5000,64.00,125.82)"/><g transform="translate(80.78,127.38) skewY(-26.565)"><rect x="0" y="0" width="34.42" height="47.64" fill="rgb(44,36,16)"/><line x1="7.30" y1="19.85" x2="27.12" y2="19.85" stroke="rgb(235,178,84)" stroke-width="1.24" stroke-linecap="butt" stroke-dasharray="4.22,2.07"/></g><g transform="translate(52.68,113.33) skewY(26.565)"><rect x="0" y="0" width="28.10" height="47.64" fill="rgb(80,65,29)"/><line x1="5.92" y1="29.78" x2="22.18" y2="29.78" stroke="rgb(249,152,67)" stroke-width="2.37" stroke-linecap="butt" stroke-dasharray="7.02,5.73"/></g><rect x="29.50" y="6.40" width="28.10" height="34.42" fill="rgb(122,102,52)" transform="matrix(1,0.5000,-1,0.5000,64.00,78.17)"/><g transform="translate(80.78,67.77) skewY(-26.565)"><rect x="0" y="0" width="34.42" height="59.61" fill="rgb(44,37,16)"/><line x1="2.87" y1="9.15" x2="2.87" y2="50.47" stroke="rgb(249,138,66)" stroke-width="1.88" stroke-linecap="butt" stroke-dasharray="4.78,3.69"/><line x1="8.60" y1="9.15" x2="8.60" y2="50.47" stroke="rgb(249,138,66)" stroke-width="1.88" stroke-linecap="butt" stroke-dasharray="4.78,3.69"/><line x1="14.34" y1="9.15" x2="14.34" y2="50.47" stroke="rgb(249,138,66)" stroke-width="1.88" stroke-linecap="butt" stroke-dasharray="4.78,3.69"/></g><g transform="translate(52.68,53.72) skewY(26.565)"><rect x="0" y="0" width="28.10" height="59.61" fill="rgb(80,66,29)"/><line x1="8.43" y1="9.30" x2="8.43" y2="50.32" stroke="rgb(247,135,79)" stroke-width="1.23" stroke-linecap="butt"/></g><rect x="29.50" y="6.40" width="28.10" height="34.42" fill="rgb(122,104,52)" transform="matrix(1,0.5000,-1,0.5000,64.00,18.56)"/><g transform="translate(80.93,38.24) skewY(-26.565)"><rect x="0" y="0" width="6.04" height="27.07" fill="rgb(59,33,22)"/></g><g transform="translate(74.89,35.22) skewY(26.565)"><rect x="0" y="0" width="6.04" height="27.07" fill="rgb(96,54,36)"/></g><rect x="49.18" y="32.25" width="6.04" height="6.04" fill="rgb(117,75,56)" transform="matrix(1,0.5000,-1,0.5000,64.00,-8.51)"/><rect x="3.52" y="40.78" width="56.96" height="19.70" fill="rgba(0,0,0,0.20)" transform="matrix(1,0.5000,-1,0.5000,66.50,199.52)"/><g transform="translate(64.00,195.36) skewY(-26.565)"><rect x="0" y="0" width="13.94" height="59.26" fill="rgb(44,36,16)"/><line x1="3.26" y1="21.17" x2="10.67" y2="21.17" stroke="rgb(243,179,100)" stroke-width="2.25" stroke-linecap="butt" stroke-dasharray="7.28,3.23"/><line x1="3.26" y1="29.63" x2="10.67" y2="29.63" stroke="rgb(243,179,100)" stroke-width="2.25" stroke-linecap="butt" stroke-dasharray="7.28,3.23"/><line x1="3.26" y1="38.10" x2="10.67" y2="38.10" stroke="rgb(243,179,100)" stroke-width="2.25" stroke-linecap="butt" stroke-dasharray="7.28,3.23"/></g><g transform="translate(12.80,169.76) skewY(26.565)"><rect x="0" y="0" width="51.20" height="59.26" fill="rgb(80,66,29)"/><line x1="21.33" y1="13.44" x2="21.33" y2="45.82" stroke="rgb(233,161,94)" stroke-width="2.69" stroke-linecap="butt"/><line x1="29.87" y1="13.44" x2="29.87" y2="45.82" stroke="rgb(233,161,94)" stroke-width="2.69" stroke-linecap="butt"/></g><rect x="6.40" y="43.66" width="51.20" height="13.94" fill="rgb(122,104,52)" transform="matrix(1,0.5000,-1,0.5000,64.00,137.76)"/><g transform="translate(63.40,147.84) skewY(-26.565)"><rect x="0" y="0" width="8.36" height="44.42" fill="rgb(44,37,16)"/><line x1="1.05" y1="10.42" x2="1.05" y2="34.01" stroke="rgb(241,178,131)" stroke-width="2.14" stroke-linecap="butt"/><line x1="3.14" y1="10.42" x2="3.14" y2="34.01" stroke="rgb(241,178,131)" stroke-width="2.14" stroke-linecap="butt"/></g><g transform="translate(18.98,125.63) skewY(26.565)"><rect x="0" y="0" width="44.42" height="44.42" fill="rgb(80,68,29)"/><line x1="9.87" y1="3.70" x2="34.55" y2="3.70" stroke="rgb(242,157,57)" stroke-width="1.44" stroke-linecap="butt" stroke-dasharray="5.89,2.25"/><line x1="9.87" y1="11.11" x2="34.55" y2="11.11" stroke="rgb(242,157,57)" stroke-width="1.44" stroke-linecap="butt" stroke-dasharray="5.89,2.25"/><line x1="9.87" y1="18.51" x2="34.55" y2="18.51" stroke="rgb(242,157,57)" stroke-width="1.44" stroke-linecap="butt" stroke-dasharray="5.89,2.25"/><line x1="9.87" y1="25.91" x2="34.55" y2="25.91" stroke="rgb(242,157,57)" stroke-width="1.44" stroke-linecap="butt" stroke-dasharray="5.89,2.25"/><line x1="9.87" y1="33.32" x2="34.55" y2="33.32" stroke="rgb(242,157,57)" stroke-width="1.44" stroke-linecap="butt" stroke-dasharray="5.89,2.25"/></g><rect x="9.79" y="46.45" width="44.42" height="8.36" fill="rgb(122,106,52)" transform="matrix(1,0.5000,-1,0.5000,64.00,93.33)"/><g transform="translate(63.40,102.47) skewY(-26.565)"><rect x="0" y="0" width="8.36" height="45.37" fill="rgb(44,36,16)"/><line x1="4.18" y1="10.76" x2="4.18" y2="34.61" stroke="rgb(237,173,124)" stroke-width="3.09" stroke-linecap="butt" stroke-dasharray="3.02,1.94"/></g><g transform="translate(18.98,80.27) skewY(26.565)"><rect x="0" y="0" width="44.42" height="45.37" fill="rgb(80,66,29)"/><line x1="31.09" y1="6.45" x2="31.09" y2="38.92" stroke="rgb(245,199,128)" stroke-width="1.82" stroke-linecap="butt"/></g><rect x="9.79" y="46.45" width="44.42" height="8.36" fill="rgb(122,104,52)" transform="matrix(1,0.5000,-1,0.5000,64.00,47.96)"/><g transform="translate(63.40,50.44) skewY(-26.565)"><rect x="0" y="0" width="8.36" height="52.04" fill="rgb(44,35,16)"/><line x1="2.99" y1="8.88" x2="2.99" y2="43.16" stroke="rgb(250,164,103)" stroke-width="2.74" stroke-linecap="butt"/><line x1="4.18" y1="8.88" x2="4.18" y2="43.16" stroke="rgb(250,164,103)" stroke-width="2.74" stroke-linecap="butt"/><line x1="5.38" y1="8.88" x2="5.38" y2="43.16" stroke="rgb(250,164,103)" stroke-width="2.74" stroke-linecap="butt"/><line x1="6.57" y1="8.88" x2="6.57" y2="43.16" stroke="rgb(250,164,103)" stroke-width="2.74" stroke-linecap="butt"/></g><g transform="translate(18.98,28.23) skewY(26.565)"><rect x="0" y="0" width="44.42" height="52.04" fill="rgb(80,64,29)"/><line x1="3.70" y1="8.98" x2="3.70" y2="43.06" stroke="rgb(248,176,74)" stroke-width="1.4" stroke-linecap="butt" stroke-dasharray="4.44,3.60"/><line x1="11.10" y1="8.98" x2="11.10" y2="43.06" stroke="rgb(248,176,74)" stroke-width="1.4" stroke-linecap="butt" stroke-dasharray="4.44,3.60"/><line x1="18.51" y1="8.98" x2="18.51" y2="43.06" stroke="rgb(248,176,74)" stroke-width="1.4" stroke-linecap="butt" stroke-dasharray="4.44,3.60"/><line x1="25.91" y1="8.98" x2="25.91" y2="43.06" stroke="rgb(248,176,74)" stroke-width="1.4" stroke-linecap="butt" stroke-dasharray="4.44,3.60"/><line x1="33.31" y1="8.98" x2="33.31" y2="43.06" stroke="rgb(248,176,74)" stroke-width="1.4" stroke-linecap="butt" stroke-dasharray="4.44,3.60"/><line x1="40.72" y1="8.98" x2="40.72" y2="43.06" stroke="rgb(248,176,74)" stroke-width="1.4" stroke-linecap="butt" stroke-dasharray="4.44,3.60"/></g><rect x="9.79" y="46.45" width="44.42" height="8.36" fill="rgb(122,101,52)" transform="matrix(1,0.5000,-1,0.5000,64.00,-4.07)"/></g></svg>