<svg xmlns:xlink="http://www.w3.org/1999/xlink" version="1.1" xmlns="http://www.w3.org/2000/svg" width="128" height="288"><defs/><g><g transform="translate(2,2)"><path fill="rgb(0,0,0)" stroke="none" paint-order="stroke fill markers" d=" M 62.72 231.04 L 115.2 257.28 L 65.28 282.24 L 12.799999999999997 256 Z" fill-opacity="0.20"/></g><path fill="#9a9a92" stroke="rgb(0,0,0)" paint-order="fill stroke markers" d=" M 115.2 257.28 L 65.28 282.24 L 65.28 190.24 L 115.2 165.27999999999997 Z" stroke-opacity="0.35" stroke-miterlimit="10"/><path fill="#69695f" stroke="rgb(0,0,0)" paint-order="fill stroke markers" d=" M 12.799999999999997 256 L 65.28 282.24 L 65.28 190.24 L 12.799999999999997 164 Z" stroke-opacity="0.35" stroke-miterlimit="10"/><path fill="#bdbdb4" stroke="rgb(0,0,0)" paint-order="fill stroke markers" d=" M 62.72 139.04 L 115.2 165.27999999999997 L 65.28 190.24 L 12.799999999999997 164 Z" stroke-opacity="0.35" stroke-miterlimit="10"/><path fill="#cdd2c8" stroke="none" paint-order="stroke fill markers" d=" M 113.20320000000001 175.47839999999997 L 107.2128 178.47359999999998 L 107.2128 206.0736 L 113.20320000000001 203.0784 Z"/><path fill="#cdd2c8" stroke="none" paint-order="stroke fill markers" d=" M 103.2192 180.47039999999998 L 97.2288 183.4656 L 97.2288 211.0656 L 103.2192 208.0704 Z"/><path fill="#cdd2c8" stroke="none" paint-order="stroke fill markers" d=" M 93.23519999999999 185.4624 L 87.2448 188.45759999999999 L 87.2448 216.05759999999998 L 93.23519999999999 213.0624 Z"/><path fill="#cdd2c8" stroke="none" paint-order="stroke fill markers" d=" M 83.2512 190.4544 L 77.2608 193.44959999999998 L 77.2608 221.0496 L 83.2512 218.0544 Z"/><path fill="#cdd2c8" stroke="none" paint-order="stroke fill markers" d=" M 73.2672 195.44639999999998 L 67.27680000000001 198.4416 L 67.27680000000001 226.04160000000002 L 73.2672 223.0464 Z"/><path fill="#cdd2c8" stroke="none" paint-order="stroke fill markers" d=" M 113.20320000000001 221.47839999999997 L 107.2128 224.47359999999998 L 107.2128 252.0736 L 113.20320000000001 249.0784 Z"/><path fill="#cdd2c8" stroke="none" paint-order="stroke fill markers" d=" M 103.2192 226.47039999999998 L 97.2288 229.4656 L 97.2288 257.0656 L 103.2192 254.0704 Z"/><path fill="#cdd2c8" stroke="none" paint-order="stroke fill markers" d=" M 93.23519999999999 231.4624 L 87.2448 234.45759999999999 L 87.2448 262.0576 L 93.23519999999999 259.0624 Z"/><path fill="#cdd2c8" stroke="none" paint-order="stroke fill markers" d=" M 83.2512 236.4544 L 77.2608 239.44959999999998 L 77.2608 267.0496 L 83.2512 264.0544 Z"/><path fill="#cdd2c8" stroke="none" paint-order="stroke fill markers" d=" M 73.2672 241.44639999999998 L 67.27680000000001 244.4416 L 67.27680000000001 272.0416 L 73.2672 269.0464 Z"/><path fill="rgb(141,75,35)" stroke="rgb(0,0,0)" paint-order="fill stroke markers" d=" M 72.96000000000001 151.2 L 64 155.68 L 64 63.68000000000001 L 72.96000000000001 59.19999999999999 Z" stroke-opacity="0.4" stroke-miterlimit="10"/><path fill="rgb(121,55,15)" stroke="rgb(0,0,0)" paint-order="fill stroke markers" d=" M 55.04 151.2 L 64 155.68 L 64 63.68000000000001 L 55.04 59.19999999999999 Z" stroke-opacity="0.4" stroke-miterlimit="10"/><path fill="#9c5a32" stroke="rgb(0,0,0)" paint-order="fill stroke markers" d=" M 64 54.72 L 72.96000000000001 59.19999999999999 L 64 63.68000000000001 L 55.04 59.19999999999999 Z" stroke-opacity="0.4" stroke-miterlimit="10"/><path fill="rgb(110,110,101)" stroke="rgb(0,0,0)" paint-order="fill stroke markers" d=" M 85.76 158.24 L 78.08000000000001 162.08 L 78.08000000000001 48.00000000000003 L 85.76 44.160000000000025 Z" stroke-opacity="0.4" stroke-miterlimit="10"/><path fill="rgb(90,90,81)" stroke="rgb(0,0,0)" paint-order="fill stroke markers" d=" M 70.4 158.24 L 78.08000000000001 162.08 L 78.08000000000001 48.00000000000003 L 70.4 44.160000000000025 Z" stroke-opacity="0.4" stroke-miterlimit="10"/><path fill="#7d7d74" stroke="rgb(0,0,0)" paint-order="fill stroke markers" d=" M 78.08 40.32000000000002 L 85.76 44.160000000000025 L 78.08000000000001 48.00000000000003 L 70.4 44.160000000000025 Z" stroke-opacity="0.4" stroke-miterlimit="10"/><path fill="rgb(166,91,43)" stroke="rgb(0,0,0)" paint-order="fill stroke markers" d=" M 96 165.92000000000002 L 88.32 169.76 L 88.32 92.47999999999999 L 96 88.64000000000001 Z" stroke-opacity="0.4" stroke-miterlimit="10"/><path fill="rgb(146,71,23)" stroke="rgb(0,0,0)" paint-order="fill stroke markers" d=" M 80.63999999999999 165.92000000000002 L 88.32 169.76 L 88.32 92.47999999999999 L 80.63999999999999 88.64000000000001 Z" stroke-opacity="0.4" stroke-miterlimit="10"/><path fill="#b56a3a" stroke="rgb(0,0,0)" paint-order="fill stroke markers" d=" M 88.32 84.79999999999998 L 96 88.64000000000001 L 88.32 92.47999999999999 L 80.63999999999999 88.64000000000001 Z" stroke-opacity="0.4" stroke-miterlimit="10"/></g></svg>