<svg xmlns="http://www.w3.org/2000/svg" version="1.1" width="128" height="190"><g><rect x="3.52" y="3.52" width="33.81" height="56.96" fill="rgba(0,0,0,0.20)" transform="matrix(1,0.5000,-1,0.5000,66.50,119.52)"/><g transform="translate(40.85,132.08) skewY(-26.565)"><rect x="0" y="0" width="51.20" height="30.96" fill="rgb(39,30,14)"/><line x1="6.40" y1="5.02" x2="6.40" y2="25.95" stroke="rgb(231,150,76)" stroke-width="2.27" stroke-linecap="butt"/></g><g transform="translate(12.80,118.06) skewY(26.565)"><rect x="0" y="0" width="28.05" height="30.96" fill="rgb(71,55,25)"/><line x1="2.81" y1="6.73" x2="2.81" y2="24.23" stroke="rgb(244,181,78)" stroke-width="1.36" stroke-linecap="butt"/><line x1="8.42" y1="6.73" x2="8.42" y2="24.23" stroke="rgb(244,181,78)" stroke-width="1.36" stroke-linecap="butt"/><line x1="14.03" y1="6.73" x2="14.03" y2="24.23" stroke="rgb(244,181,78)" stroke-width="1.36" stroke-linecap="butt"/><line x1="19.64" y1="6.73" x2="19.64" y2="24.23" stroke="rgb(244,181,78)" stroke-width="1.36" stroke-linecap="butt"/></g><rect x="6.40" y="6.40" width="28.05" height="51.20" fill="rgb(115,91,49)" transform="matrix(1,0.5000,-1,0.5000,64.00,86.06)"/><g transform="translate(40.85,96.90) skewY(-26.565)"><rect x="0" y="0" width="51.20" height="35.18" fill="rgb(39,31,14)"/><line x1="25.60" y1="7.34" x2="25.60" y2="27.85" stroke="rgb(237,160,67)" stroke-width="3.2" stroke-linecap="butt" stroke-dasharray="5.91,3.41"/><line x1="32.91" y1="7.34" x2="32.91" y2="27.85" stroke="rgb(237,160,67)" stroke-width="3.2" stroke-linecap="butt" stroke-dasharray="5.91,3.41"/></g><g transform="translate(12.80,82.87) skewY(26.565)"><rect x="0" y="0" width="28.05" height="35.18" fill="rgb(71,56,25)"/><line x1="6.14" y1="30.79" x2="21.91" y2="30.79" stroke="rgb(245,167,95)" stroke-width="1.47" stroke-linecap="butt"/></g><rect x="6.40" y="6.40" width="28.05" height="51.20" fill="rgb(115,93,49)" transform="matrix(1,0.5000,-1,0.5000,64.00,50.87)"/><g transform="translate(55.00,72.39) skewY(-26.565)"><rect x="0" y="0" width="3.86" height="17.43" fill="rgb(59,28,22)"/></g><g transform="translate(51.14,70.46) skewY(26.565)"><rect x="0" y="0" width="3.86" height="17.43" fill="rgb(96,45,36)"/></g><rect x="30.59" y="39.60" width="3.86" height="3.86" fill="rgb(117,65,56)" transform="matrix(1,0.5000,-1,0.5000,64.00,33.44)"/><rect x="34.50" y="3.52" width="25.98" height="56.96" fill="rgba(0,0,0,0.20)" transform="matrix(1,0.5000,-1,0.5000,66.50,119.52)"/><g transform="translate(64.00,134.92) skewY(-26.565)"><rect x="0" y="0" width="51.20" height="39.70" fill="rgb(39,31,14)"/><line x1="7.33" y1="11.91" x2="43.87" y2="11.91" stroke="rgb(243,172,114)" stroke-width="1.64" stroke-linecap="butt"/><line x1="7.33" y1="19.85" x2="43.87" y2="19.85" stroke="rgb(243,172,114)" stroke-width="1.64" stroke-linecap="butt"/><line x1="7.33" y1="27.79" x2="43.87" y2="27.79" stroke="rgb(243,172,114)" stroke-width="1.64" stroke-linecap="butt"/></g><g transform="translate(43.78,124.81) skewY(26.565)"><rect x="0" y="0" width="20.22" height="39.70" fill="rgb(71,57,25)"/><line x1="7.22" y1="8.90" x2="7.22" y2="30.81" stroke="rgb(244,162,59)" stroke-width="1.93" stroke-linecap="butt"/><line x1="10.11" y1="8.90" x2="10.11" y2="30.81" stroke="rgb(244,162,59)" stroke-width="1.93" stroke-linecap="butt"/><line x1="13.00" y1="8.90" x2="13.00" y2="30.81" stroke="rgb(244,162,59)" stroke-width="1.93" stroke-linecap="butt"/></g><rect x="37.38" y="6.40" width="20.22" height="51.20" fill="rgb(115,93,49)" transform="matrix(1,0.5000,-1,0.5000,64.00,77.32)"/><g transform="translate(64.00,90.64) skewY(-26.565)"><rect x="0" y="0" width="51.20" height="44.28" fill="rgb(39,29,14)"/><line x1="10.87" y1="18.45" x2="40.33" y2="18.45" stroke="rgb(252,196,103)" stroke-width="1.86" stroke-linecap="butt"/><line x1="10.87" y1="25.83" x2="40.33" y2="25.83" stroke="rgb(252,196,103)" stroke-width="1.86" stroke-linecap="butt"/><line x1="10.87" y1="33.21" x2="40.33" y2="33.21" stroke="rgb(252,196,103)" stroke-width="1.86" stroke-linecap="butt"/></g><g transform="translate(43.78,80.53) skewY(26.565)"><rect x="0" y="0" width="20.22" height="44.28" fill="rgb(71,54,25)"/><line x1="2.02" y1="6.46" x2="2.02" y2="37.82" stroke="rgb(244,199,54)" stroke-width="1.85" stroke-linecap="butt" stroke-dasharray="6.60,2.28"/><line x1="6.07" y1="6.46" x2="6.07" y2="37.82" stroke="rgb(244,199,54)" stroke-width="1.85" stroke-linecap="butt" stroke-dasharray="6.60,2.28"/><line x1="10.11" y1="6.46" x2="10.11" y2="37.82" stroke="rgb(244,199,54)" stroke-width="1.85" stroke-linecap="butt" stroke-dasharray="6.60,2.28"/></g><rect x="37.38" y="6.40" width="20.22" height="51.20" fill="rgb(115,89,49)" transform="matrix(1,0.5000,-1,0.5000,64.00,33.04)"/><g transform="translate(64.00,44.52) skewY(-26.565)"><rect x="0" y="0" width="43.11" height="42.07" fill="rgb(39,31,14)"/><line x1="26.94" y1="7.74" x2="26.94" y2="34.33" stroke="rgb(233,178,84)" stroke-width="2.09" stroke-linecap="butt" stroke-dasharray="3.77,3.87"/></g><g transform="translate(51.87,38.46) skewY(26.565)"><rect x="0" y="0" width="12.13" height="42.07" fill="rgb(71,56,25)"/><line x1="2.59" y1="5.26" x2="9.54" y2="5.26" stroke="rgb(247,191,84)" stroke-width="1.65" stroke-linecap="butt"/><line x1="2.59" y1="15.78" x2="9.54" y2="15.78" stroke="rgb(247,191,84)" stroke-width="1.65" stroke-linecap="butt"/><line x1="2.59" y1="26.29" x2="9.54" y2="26.29" stroke="rgb(247,191,84)" stroke-width="1.65" stroke-linecap="butt"/></g><rect x="41.42" y="10.45" width="12.13" height="43.11" fill="rgb(115,93,49)" transform="matrix(1,0.5000,-1,0.5000,64.00,-9.03)"/><g transform="translate(92.29,10.96) skewY(-26.565)"><rect x="0" y="0" width="4.96" height="19.41" fill="rgb(59,36,22)"/></g><g transform="translate(87.33,8.48) skewY(26.565)"><rect x="0" y="0" width="4.96" height="19.41" fill="rgb(96,58,36)"/></g><rect x="48.60" y="20.30" width="4.96" height="4.96" fill="rgb(117,78,56)" transform="matrix(1,0.5000,-1,0.5000,64.00,-28.45)"/><g transform="translate(76.79,19.04) skewY(-26.565)"><rect x="0" y="0" width="5.85" height="17.72" fill="rgb(59,29,22)"/></g><g transform="translate(70.94,16.11) skewY(26.565)"><rect x="0" y="0" width="5.85" height="17.72" fill="rgb(96,48,36)"/></g><rect x="46.33" y="33.54" width="5.85" height="5.85" fill="rgb(117,68,56)" transform="matrix(1,0.5000,-1,0.5000,64.00,-26.75)"/></g></svg>