<svg xmlns:xlink="http://www.w3.org/1999/xlink" version="1.1" xmlns="http://www.w3.org/2000/svg" width="128" height="224"><defs/><g><g transform="translate(2,2)"><path fill="rgb(0,0,0)" stroke="none" paint-order="stroke fill markers" d=" M 53.76 171.52 L 104.96000000000001 197.12 L 74.24000000000001 212.48000000000002 L 23.04 186.88 Z" fill-opacity="0.20"/></g><path fill="#9a9a92" stroke="rgb(0,0,0)" paint-order="fill stroke markers" d=" M 104.96000000000001 197.12 L 74.24000000000001 212.48000000000002 L 74.24000000000001 140.48000000000002 L 104.96000000000001 125.12 Z" stroke-opacity="0.35" stroke-miterlimit="10"/><path fill="#69695f" stroke="rgb(0,0,0)" paint-order="fill stroke markers" d=" M 23.04 186.88 L 74.24000000000001 212.48000000000002 L 74.24000000000001 140.48000000000002 L 23.04 114.88 Z" stroke-opacity="0.35" stroke-miterlimit="10"/><path fill="#bdbdb4" stroke="rgb(0,0,0)" paint-order="fill stroke markers" d=" M 53.76 99.52000000000001 L 104.96000000000001 125.12 L 74.24000000000001 140.48000000000002 L 23.04 114.88 Z" stroke-opacity="0.35" stroke-miterlimit="10"/><path fill="#7d7d74" stroke="none" paint-order="stroke fill markers" d=" M 25.088 127.42399999999999 L 33.792 131.776 L 33.792 180.736 L 25.088 176.384 Z"/><path fill="#7d7d74" stroke="none" paint-order="stroke fill markers" d=" M 37.888000000000005 133.824 L 46.592000000000006 138.17600000000002 L 46.592000000000006 187.136 L 37.888000000000005 182.784 Z"/><path fill="#7d7d74" stroke="none" paint-order="stroke fill markers" d=" M 50.688 140.22400000000002 L 59.392 144.57600000000002 L 59.392 193.536 L 50.688 189.184 Z"/><path fill="#7d7d74" stroke="none" paint-order="stroke fill markers" d=" M 63.48800000000001 146.62400000000002 L 72.19200000000001 150.97600000000003 L 72.19200000000001 199.936 L 63.48800000000001 195.584 Z"/></g></svg>