<svg xmlns="http://www.w3.org/2000/svg" version="1.1" width="128" height="180"><g><rect x="3.52" y="3.52" width="56.96" height="26.00" fill="rgba(0,0,0,0.20)" transform="matrix(1,0.5000,-1,0.5000,66.50,109.52)"/><g transform="translate(94.96,109.02) skewY(-26.565)"><rect x="0" y="0" width="20.24" height="40.12" fill="rgb(37,29,12)"/><line x1="4.73" y1="10.03" x2="15.51" y2="10.03" stroke="rgb(253,188,87)" stroke-width="2.92" stroke-linecap="butt"/><line x1="4.73" y1="16.72" x2="15.51" y2="16.72" stroke="rgb(253,188,87)" stroke-width="2.92" stroke-linecap="butt"/><line x1="4.73" y1="23.40" x2="15.51" y2="23.40" stroke="rgb(253,188,87)" stroke-width="2.92" stroke-linecap="butt"/></g><g transform="translate(43.76,83.42) skewY(26.565)"><rect x="0" y="0" width="51.20" height="40.12" fill="rgb(68,53,21)"/><line x1="25.60" y1="6.38" x2="25.60" y2="33.74" stroke="rgb(243,205,69)" stroke-width="2.14" stroke-linecap="butt" stroke-dasharray="2.95,5.14"/><line x1="35.84" y1="6.38" x2="35.84" y2="33.74" stroke="rgb(243,205,69)" stroke-width="2.14" stroke-linecap="butt" stroke-dasharray="2.95,5.14"/></g><rect x="6.40" y="6.40" width="51.20" height="20.24" fill="rgb(112,90,43)" transform="matrix(1,0.5000,-1,0.5000,64.00,66.90)"/><rect x="3.52" y="28.65" width="56.96" height="31.83" fill="rgba(0,0,0,0.20)" transform="matrix(1,0.5000,-1,0.5000,66.50,109.52)"/><g transform="translate(64.00,133.53) skewY(-26.565)"><rect x="0" y="0" width="26.07" height="31.09" fill="rgb(37,28,12)"/><line x1="7.82" y1="5.26" x2="7.82" y2="25.83" stroke="rgb(240,175,98)" stroke-width="2.23" stroke-linecap="butt"/></g><g transform="translate(12.80,107.93) skewY(26.565)"><rect x="0" y="0" width="51.20" height="31.09" fill="rgb(68,51,21)"/><line x1="18.29" y1="6.26" x2="18.29" y2="24.83" stroke="rgb(248,192,124)" stroke-width="2.45" stroke-linecap="butt"/><line x1="25.60" y1="6.26" x2="25.60" y2="24.83" stroke="rgb(248,192,124)" stroke-width="2.45" stroke-linecap="butt"/><line x1="32.91" y1="6.26" x2="32.91" y2="24.83" stroke="rgb(248,192,124)" stroke-width="2.45" stroke-linecap="butt"/></g><rect x="6.40" y="31.53" width="51.20" height="26.07" fill="rgb(112,88,43)" transform="matrix(1,0.5000,-1,0.5000,64.00,75.93)"/></g></svg>