<svg xmlns="http://www.w3.org/2000/svg" xmlns:xlink="http://www.w3.org/1999/xlink" version="1.1" width="128" height="128"><defs/><g><path d="M63.44,80.08 L103.12,99.92 L67.28,117.84 L27.6,98 Z" fill="rgb(0,0,0)" fill-opacity="0.2"/><path d="M101.12,97.92 L65.28,115.84 L65.28,59.84 L101.12,41.92 Z" fill="#9c7d1e"/><path d="M101.12,97.92 L65.28,115.84 L65.28,59.84 L101.12,41.92 Z" fill="none" stroke="rgb(0,0,0)" stroke-opacity="0.4" stroke-width="1"/><path d="M25.6,96 L65.28,115.84 L65.28,59.84 L25.6,40 Z" fill="#5e4912"/><path d="M25.6,96 L65.28,115.84 L65.28,59.84 L25.6,40 Z" fill="none" stroke="rgb(0,0,0)" stroke-opacity="0.4" stroke-width="1"/><path d="M61.44,22.08 L101.12,41.92 L65.28,59.84 L25.6,40 Z" fill="#c9a227"/><path d="M61.44,22.08 L101.12,41.92 L65.28,59.84 L25.6,40 Z" fill="none" stroke="rgb(0,0,0)" stroke-opacity="0.4" stroke-width="1"/><path d="M98.73,54.31 L91.56,57.9 L91.56,91.5 L98.73,87.91 Z" fill="#ffb238"/><path d="M86.78,60.29 L79.62,63.87 L79.62,97.47 L86.78,93.89 Z" fill="#ffb238"/><path d="M74.84,66.26 L67.67,69.85 L67.67,103.45 L74.84,99.86 Z" fill="#ffb238"/><path d="M96,41.92 L88.32,45.76 L88.32,13.76 L96,9.92 Z" fill="rgb(141,75,35)"/><path d="M96,41.92 L88.32,45.76 L88.32,13.76 L96,9.92 Z" fill="none" stroke="rgb(0,0,0)" stroke-opacity="0.4" stroke-width="1"/><path d="M80.64,41.92 L88.32,45.76 L88.32,13.76 L80.64,9.92 Z" fill="rgb(121,55,15)"/><path d="M80.64,41.92 L88.32,45.76 L88.32,13.76 L80.64,9.92 Z" fill="none" stroke="rgb(0,0,0)" stroke-opacity="0.4" stroke-width="1"/><path d="M88.32,6.08 L96,9.92 L88.32,13.76 L80.64,9.92 Z" fill="#9c5a32"/><path d="M88.32,6.08 L96,9.92 L88.32,13.76 L80.64,9.92 Z" fill="none" stroke="rgb(0,0,0)" stroke-opacity="0.4" stroke-width="1"/></g></svg>