<svg xmlns="http://www.w3.org/2000/svg" xmlns:xlink="http://www.w3.org/1999/xlink" version="1.1" width="128" height="128"><defs/><g><path d="M66,82.64 L99.28,99.28 L66,115.92 L32.72,99.28 Z" fill="rgb(0,0,0)" fill-opacity="0.2"/><path d="M97.28,97.28 L64,113.92 L64,69.92 L97.28,53.28 Z" fill="#2e362b"/><path d="M97.28,97.28 L64,113.92 L64,69.92 L97.28,53.28 Z" fill="none" stroke="rgb(0,12,4)" stroke-opacity="0.45" stroke-width="1"/><path d="M30.72,97.28 L64,113.92 L64,69.92 L30.72,53.28 Z" fill="#1b211a"/><path d="M30.72,97.28 L64,113.92 L64,69.92 L30.72,53.28 Z" fill="none" stroke="rgb(0,12,4)" stroke-opacity="0.45" stroke-width="1"/><path d="M64,36.64 L97.28,53.28 L64,69.92 L30.72,53.28 Z" fill="#3f4a3a"/><path d="M64,36.64 L97.28,53.28 L64,69.92 L30.72,53.28 Z" fill="none" stroke="rgb(0,12,4)" stroke-opacity="0.45" stroke-width="1"/><path d="M97.28,75.28 L64,91.92" fill="none" stroke="rgb(255,205,162)" stroke-width="4.48" stroke-dasharray="6.54,5.02"/><path d="M30.72,75.28 L64,91.92" fill="none" stroke="rgb(25,29,22)" stroke-width="4.48" stroke-dasharray="6.54,5.02"/><path d="M30.72,53.28 L64,69.92 L80.64,31.6 L47.36,14.96 Z" fill="#262d24"/><path d="M30.72,53.28 L64,69.92 L80.64,31.6 L47.36,14.96 Z" fill="none" stroke="rgb(0,0,0)" stroke-opacity="0.3" stroke-width="4.48"/><path d="M97.28,53.28 L64,69.92 L80.64,31.6 Z" fill="#2f382c"/><path d="M97.28,53.28 L64,69.92 L80.64,31.6 Z" fill="none" stroke="rgb(0,0,0)" stroke-opacity="0.3" stroke-width="4.48"/></g></svg>