<svg xmlns="http://www.w3.org/2000/svg" xmlns:xlink="http://www.w3.org/1999/xlink" version="1.1" width="128" height="128"><defs/><g><path d="M66,82.64 L99.28,99.28 L66,115.92 L32.72,99.28 Z" fill="rgb(0,0,0)" fill-opacity="0.2"/><path d="M97.28,97.28 L64,113.92 L64,69.92 L97.28,53.28 Z" fill="#7c8a78"/><path d="M97.28,97.28 L64,113.92 L64,69.92 L97.28,53.28 Z" fill="none" stroke="rgb(0,12,4)" stroke-opacity="0.35" stroke-width="1"/><path d="M30.72,97.28 L64,113.92 L64,69.92 L30.72,53.28 Z" fill="#4f5c4c"/><path d="M30.72,97.28 L64,113.92 L64,69.92 L30.72,53.28 Z" fill="none" stroke="rgb(0,12,4)" stroke-opacity="0.35" stroke-width="1"/><path d="M64,36.64 L97.28,53.28 L64,69.92 L30.72,53.28 Z" fill="#9aa893"/><path d="M64,36.64 L97.28,53.28 L64,69.92 L30.72,53.28 Z" fill="none" stroke="rgb(0,12,4)" stroke-opacity="0.35" stroke-width="1"/><path d="M93.95,63.74 L83.97,68.74 L83.97,95.14 L93.95,90.14 Z" fill="#ffdf9e"/><path d="M77.31,72.06 L67.33,77.06 L67.33,103.46 L77.31,98.46 Z" fill="#ffdf9e"/><path d="M42.04,73.9 L52.68,79.22 L52.68,93.3 L42.04,87.98 Z" fill="#3a4438"/><path d="M30.72,53.28 L64,69.92 L80.64,31.6 L47.36,14.96 Z" fill="#5c6b58"/><path d="M30.72,53.28 L64,69.92 L80.64,31.6 L47.36,14.96 Z" fill="none" stroke="rgb(0,0,0)" stroke-opacity="0.3" stroke-width="1"/><path d="M97.28,53.28 L64,69.92 L80.64,31.6 Z" fill="#6f8068"/><path d="M97.28,53.28 L64,69.92 L80.64,31.6 Z" fill="none" stroke="rgb(0,0,0)" stroke-opacity="0.3" stroke-width="1"/></g></svg>