<svg xmlns="http://www.w3.org/2000/svg" version="1.1" width="128" height="260"><g><rect x="4.80" y="4.80" width="54.40" height="54.40" fill="rgba(0,0,0,0.20)" transform="matrix(1,0.5000,-1,0.5000,66.50,190.80)"/><g transform="translate(64.00,195.99) skewY(-26.565)"><rect x="0" y="0" width="48.64" height="48.63" fill="rgb(27,34,24)"/><line x1="9.12" y1="10.50" x2="9.12" y2="38.13" stroke="rgb(249,201,160)" stroke-width="1.36" stroke-linecap="butt" stroke-dasharray="6.38,3.54"/><line x1="15.20" y1="10.50" x2="15.20" y2="38.13" stroke="rgb(249,201,160)" stroke-width="1.36" stroke-linecap="butt" stroke-dasharray="6.38,3.54"/><line x1="21.28" y1="10.50" x2="21.28" y2="38.13" stroke="rgb(249,201,160)" stroke-width="1.36" stroke-linecap="butt" stroke-dasharray="6.38,3.54"/><line x1="27.36" y1="10.50" x2="27.36" y2="38.13" stroke="rgb(249,201,160)" stroke-width="1.36" stroke-linecap="butt" stroke-dasharray="6.38,3.54"/><line x1="33.44" y1="10.50" x2="33.44" y2="38.13" stroke="rgb(249,201,160)" stroke-width="1.36" stroke-linecap="butt" stroke-dasharray="6.38,3.54"/><line x1="39.52" y1="10.50" x2="39.52" y2="38.13" stroke="rgb(249,201,160)" stroke-width="1.36" stroke-linecap="butt" stroke-dasharray="6.38,3.54"/><line x1="45.60" y1="10.50" x2="45.60" y2="38.13" stroke="rgb(249,201,160)" stroke-width="1.36" stroke-linecap="butt" stroke-dasharray="6.38,3.54"/></g><g transform="translate(15.36,171.67) skewY(26.565)"><rect x="0" y="0" width="48.64" height="48.63" fill="rgb(49,62,44)"/><line x1="7.31" y1="17.37" x2="41.33" y2="17.37" stroke="rgb(238,180,132)" stroke-width="1.71" stroke-linecap="butt" stroke-dasharray="7.99,3.26"/><line x1="7.31" y1="24.31" x2="41.33" y2="24.31" stroke="rgb(238,180,132)" stroke-width="1.71" stroke-linecap="butt" stroke-dasharray="7.99,3.26"/><line x1="7.31" y1="31.26" x2="41.33" y2="31.26" stroke="rgb(238,180,132)" stroke-width="1.71" stroke-linecap="butt" stroke-dasharray="7.99,3.26"/><line x1="7.31" y1="38.21" x2="41.33" y2="38.21" stroke="rgb(238,180,132)" stroke-width="1.71" stroke-linecap="butt" stroke-dasharray="7.99,3.26"/></g><rect x="7.68" y="7.68" width="48.64" height="48.64" fill="rgb(81,98,73)" transform="matrix(1,0.5000,-1,0.5000,64.00,139.67)"/><g transform="translate(57.74,161.96) skewY(-26.565)"><rect x="0" y="0" width="9.08" height="14.22" fill="rgb(87,77,66)"/></g><g transform="translate(48.65,157.42) skewY(26.565)"><rect x="0" y="0" width="9.08" height="14.22" fill="rgb(122,108,92)"/></g><rect x="24.30" y="30.56" width="9.08" height="9.08" fill="rgb(140,128,115)" transform="matrix(1,0.5000,-1,0.5000,64.00,125.45)"/></g></svg>