<svg xmlns="http://www.w3.org/2000/svg" version="1.1" width="128" height="190"><g><rect x="7.36" y="7.36" width="29.39" height="49.28" fill="rgba(0,0,0,0.20)" transform="matrix(1,0.5000,-1,0.5000,66.50,123.36)"/><g transform="translate(44.11,133.59) skewY(-26.565)"><rect x="0" y="0" width="43.52" height="31.08" fill="rgb(33,39,26)"/><line x1="3.63" y1="5.04" x2="3.63" y2="26.05" stroke="rgb(239,193,138)" stroke-width="2.27" stroke-linecap="butt"/><line x1="10.88" y1="5.04" x2="10.88" y2="26.05" stroke="rgb(239,193,138)" stroke-width="2.27" stroke-linecap="butt"/><line x1="18.13" y1="5.04" x2="18.13" y2="26.05" stroke="rgb(239,193,138)" stroke-width="2.27" stroke-linecap="butt"/></g><g transform="translate(20.48,121.78) skewY(26.565)"><rect x="0" y="0" width="23.63" height="31.08" fill="rgb(60,71,46)"/><line x1="1.69" y1="6.76" x2="1.69" y2="24.32" stroke="rgb(246,214,144)" stroke-width="1.36" stroke-linecap="butt" stroke-dasharray="7.67,3.10"/><line x1="5.06" y1="6.76" x2="5.06" y2="24.32" stroke="rgb(246,214,144)" stroke-width="1.36" stroke-linecap="butt" stroke-dasharray="7.67,3.10"/><line x1="8.44" y1="6.76" x2="8.44" y2="24.32" stroke="rgb(246,214,144)" stroke-width="1.36" stroke-linecap="butt" stroke-dasharray="7.67,3.10"/><line x1="11.81" y1="6.76" x2="11.81" y2="24.32" stroke="rgb(246,214,144)" stroke-width="1.36" stroke-linecap="butt" stroke-dasharray="7.67,3.10"/><line x1="15.19" y1="6.76" x2="15.19" y2="24.32" stroke="rgb(246,214,144)" stroke-width="1.36" stroke-linecap="butt" stroke-dasharray="7.67,3.10"/><line x1="18.56" y1="6.76" x2="18.56" y2="24.32" stroke="rgb(246,214,144)" stroke-width="1.36" stroke-linecap="butt" stroke-dasharray="7.67,3.10"/></g><rect x="10.24" y="10.24" width="23.63" height="43.52" fill="rgb(93,108,76)" transform="matrix(1,0.5000,-1,0.5000,64.00,89.78)"/><g transform="translate(44.11,87.40) skewY(-26.565)"><rect x="0" y="0" width="43.52" height="46.19" fill="rgb(33,39,26)"/><line x1="8.16" y1="9.47" x2="8.16" y2="36.73" stroke="rgb(250,227,188)" stroke-width="1.95" stroke-linecap="butt" stroke-dasharray="2.79,3.57"/><line x1="13.60" y1="9.47" x2="13.60" y2="36.73" stroke="rgb(250,227,188)" stroke-width="1.95" stroke-linecap="butt" stroke-dasharray="2.79,3.57"/><line x1="19.04" y1="9.47" x2="19.04" y2="36.73" stroke="rgb(250,227,188)" stroke-width="1.95" stroke-linecap="butt" stroke-dasharray="2.79,3.57"/><line x1="24.48" y1="9.47" x2="24.48" y2="36.73" stroke="rgb(250,227,188)" stroke-width="1.95" stroke-linecap="butt" stroke-dasharray="2.79,3.57"/><line x1="29.92" y1="9.47" x2="29.92" y2="36.73" stroke="rgb(250,227,188)" stroke-width="1.95" stroke-linecap="butt" stroke-dasharray="2.79,3.57"/><line x1="35.36" y1="9.47" x2="35.36" y2="36.73" stroke="rgb(250,227,188)" stroke-width="1.95" stroke-linecap="butt" stroke-dasharray="2.79,3.57"/></g><g transform="translate(20.48,75.58) skewY(26.565)"><rect x="0" y="0" width="23.63" height="46.19" fill="rgb(60,71,46)"/><line x1="10.34" y1="7.62" x2="10.34" y2="38.57" stroke="rgb(244,211,136)" stroke-width="1.34" stroke-linecap="butt" stroke-dasharray="3.14,5.78"/><line x1="13.29" y1="7.62" x2="13.29" y2="38.57" stroke="rgb(244,211,136)" stroke-width="1.34" stroke-linecap="butt" stroke-dasharray="3.14,5.78"/><line x1="16.24" y1="7.62" x2="16.24" y2="38.57" stroke="rgb(244,211,136)" stroke-width="1.34" stroke-linecap="butt" stroke-dasharray="3.14,5.78"/><line x1="19.20" y1="7.62" x2="19.20" y2="38.57" stroke="rgb(244,211,136)" stroke-width="1.34" stroke-linecap="butt" stroke-dasharray="3.14,5.78"/><line x1="22.15" y1="7.62" x2="22.15" y2="38.57" stroke="rgb(244,211,136)" stroke-width="1.34" stroke-linecap="butt" stroke-dasharray="3.14,5.78"/></g><rect x="10.24" y="10.24" width="23.63" height="43.52" fill="rgb(93,108,76)" transform="matrix(1,0.5000,-1,0.5000,64.00,43.58)"/><rect x="33.91" y="7.36" width="22.73" height="49.28" fill="rgba(0,0,0,0.20)" transform="matrix(1,0.5000,-1,0.5000,66.50,123.36)"/><g transform="translate(64.00,127.36) skewY(-26.565)"><rect x="0" y="0" width="43.52" height="47.26" fill="rgb(33,39,26)"/><line x1="8.03" y1="2.95" x2="35.49" y2="2.95" stroke="rgb(248,216,119)" stroke-width="1.89" stroke-linecap="butt" stroke-dasharray="4.04,5.73"/><line x1="8.03" y1="8.86" x2="35.49" y2="8.86" stroke="rgb(248,216,119)" stroke-width="1.89" stroke-linecap="butt" stroke-dasharray="4.04,5.73"/><line x1="8.03" y1="14.77" x2="35.49" y2="14.77" stroke="rgb(248,216,119)" stroke-width="1.89" stroke-linecap="butt" stroke-dasharray="4.04,5.73"/><line x1="8.03" y1="20.68" x2="35.49" y2="20.68" stroke="rgb(248,216,119)" stroke-width="1.89" stroke-linecap="butt" stroke-dasharray="4.04,5.73"/><line x1="8.03" y1="26.58" x2="35.49" y2="26.58" stroke="rgb(248,216,119)" stroke-width="1.89" stroke-linecap="butt" stroke-dasharray="4.04,5.73"/><line x1="8.03" y1="32.49" x2="35.49" y2="32.49" stroke="rgb(248,216,119)" stroke-width="1.89" stroke-linecap="butt" stroke-dasharray="4.04,5.73"/><line x1="8.03" y1="38.40" x2="35.49" y2="38.40" stroke="rgb(248,216,119)" stroke-width="1.89" stroke-linecap="butt" stroke-dasharray="4.04,5.73"/></g><g transform="translate(47.03,118.88) skewY(26.565)"><rect x="0" y="0" width="16.97" height="47.26" fill="rgb(59,71,46)"/><line x1="5.30" y1="9.40" x2="5.30" y2="37.86" stroke="rgb(246,209,163)" stroke-width="1.81" stroke-linecap="butt" stroke-dasharray="7.85,3.10"/><line x1="7.42" y1="9.40" x2="7.42" y2="37.86" stroke="rgb(246,209,163)" stroke-width="1.81" stroke-linecap="butt" stroke-dasharray="7.85,3.10"/><line x1="9.54" y1="9.40" x2="9.54" y2="37.86" stroke="rgb(246,209,163)" stroke-width="1.81" stroke-linecap="butt" stroke-dasharray="7.85,3.10"/></g><rect x="36.79" y="10.24" width="16.97" height="43.52" fill="rgb(93,108,76)" transform="matrix(1,0.5000,-1,0.5000,64.00,73.60)"/></g></svg>