<svg xmlns="http://www.w3.org/2000/svg" xmlns:xlink="http://www.w3.org/1999/xlink" version="1.1" width="128" height="224"><defs/><g><path d="M63.44,173.52 L106.96,195.28 L68.56,214.48 L25.04,192.72 Z" fill="rgb(0,0,0)" fill-opacity="0.2"/><path d="M83.2,182.4 L44.8,201.6 L44.8,117.6 L83.2,98.4 Z" fill="#7c8a78"/><path d="M83.2,182.4 L44.8,201.6 L44.8,117.6 L83.2,98.4 Z" fill="none" stroke="rgb(0,12,4)" stroke-opacity="0.35" stroke-width="1"/><path d="M23.04,190.72 L44.8,201.6 L44.8,117.6 L23.04,106.72 Z" fill="#4f5c4c"/><path d="M23.04,190.72 L44.8,201.6 L44.8,117.6 L23.04,106.72 Z" fill="none" stroke="rgb(0,12,4)" stroke-opacity="0.35" stroke-width="1"/><path d="M61.44,87.52 L83.2,98.4 L44.8,117.6 L23.04,106.72 Z" fill="#9aa893"/><path d="M61.44,87.52 L83.2,98.4 L44.8,117.6 L23.04,106.72 Z" fill="none" stroke="rgb(0,12,4)" stroke-opacity="0.35" stroke-width="1"/><path d="M75.52,110.64 L52.48,122.16 L52.48,147.36 L75.52,135.84 Z" fill="#ffdf9e"/><path d="M75.52,152.64 L52.48,164.16 L52.48,189.36 L75.52,177.84 Z" fill="#ffdf9e"/><path d="M27.39,117.3 L40.45,123.82 L40.45,149.02 L27.39,142.5 Z" fill="#ffdf9e"/><path d="M27.39,159.3 L40.45,165.82 L40.45,191.02 L27.39,184.5 Z" fill="#ffdf9e"/><path d="M23.04,106.72 L44.8,117.6 L64,84 L42.24,73.12 Z" fill="#5c6b58"/><path d="M23.04,106.72 L44.8,117.6 L64,84 L42.24,73.12 Z" fill="none" stroke="rgb(0,0,0)" stroke-opacity="0.3" stroke-width="1"/><path d="M83.2,98.4 L44.8,117.6 L64,84 Z" fill="#6f8068"/><path d="M83.2,98.4 L44.8,117.6 L64,84 Z" fill="none" stroke="rgb(0,0,0)" stroke-opacity="0.3" stroke-width="1"/><path d="M104.96,193.28 L66.56,212.48 L66.56,128.48 L104.96,109.28 Z" fill="#7c8a78"/><path d="M104.96,193.28 L66.56,212.48 L66.56,128.48 L104.96,109.28 Z" fill="none" stroke="rgb(0,12,4)" stroke-opacity="0.35" stroke-width="1"/><path d="M44.8,201.6 L66.56,212.48 L66.56,128.48 L44.8,117.6 Z" fill="#4f5c4c"/><path d="M44.8,201.6 L66.56,212.48 L66.56,128.48 L44.8,117.6 Z" fill="none" stroke="rgb(0,12,4)" stroke-opacity="0.35" stroke-width="1"/><path d="M83.2,98.4 L104.96,109.28 L66.56,128.48 L44.8,117.6 Z" fill="#9aa893"/><path d="M83.2,98.4 L104.96,109.28 L66.56,128.48 L44.8,117.6 Z" fill="none" stroke="rgb(0,12,4)" stroke-opacity="0.35" stroke-width="1"/><path d="M97.28,121.52 L74.24,133.04 L74.24,158.24 L97.28,146.72 Z" fill="#ffdf9e"/><path d="M97.28,163.52 L74.24,175.04 L74.24,200.24 L97.28,188.72 Z" fill="#ffdf9e"/><path d="M49.15,128.18 L62.21,134.7 L62.21,159.9 L49.15,153.38 Z" fill="#ffdf9e"/><path d="M49.15,170.18 L62.21,176.7 L62.21,201.9 L49.15,195.38 Z" fill="#ffdf9e"/><path d="M44.8,117.6 L66.56,128.48 L85.76,94.88 L64,84 Z" fill="#5c6b58"/><path d="M44.8,117.6 L66.56,128.48 L85.76,94.88 L64,84 Z" fill="none" stroke="rgb(0,0,0)" stroke-opacity="0.3" stroke-width="1"/><path d="M104.96,109.28 L66.56,128.48 L85.76,94.88 Z" fill="#6f8068"/><path d="M104.96,109.28 L66.56,128.48 L85.76,94.88 Z" fill="none" stroke="rgb(0,0,0)" stroke-opacity="0.3" stroke-width="1"/></g></svg>