<svg xmlns:xlink="http://www.w3.org/1999/xlink" version="1.1" xmlns="http://www.w3.org/2000/svg" width="128" height="128"><defs/><g><g transform="translate(2,2)"><path fill="rgb(0,0,0)" stroke="none" paint-order="stroke fill markers" d=" M 55.04 78.72 L 99.84 101.12 L 71.68 115.2 L 26.880000000000003 92.8 Z" fill-opacity="0.20"/></g><path fill="#a85f3e" stroke="rgb(0,0,0)" paint-order="fill stroke markers" d=" M 99.84 101.12 L 71.68 115.2 L 71.68 83.2 L 99.84 69.12 Z" stroke-opacity="0.35" stroke-miterlimit="10"/><path fill="#76402a" stroke="rgb(0,0,0)" paint-order="fill stroke markers" d=" M 26.880000000000003 92.8 L 71.68 115.2 L 71.68 83.2 L 26.880000000000003 60.8 Z" stroke-opacity="0.35" stroke-miterlimit="10"/><path fill="#c47a52" stroke="rgb(0,0,0)" paint-order="fill stroke markers" d=" M 55.04 46.72 L 99.84 69.12 L 71.68 83.2 L 26.880000000000003 60.8 Z" stroke-opacity="0.35" stroke-miterlimit="10"/><path fill="#ffe6a8" stroke="none" paint-order="stroke fill markers" d=" M 97.96266666666666 76.45866666666667 L 92.33066666666667 79.27466666666668 L 92.33066666666667 98.47466666666668 L 97.96266666666666 95.65866666666668 Z"/><path fill="#ffe6a8" stroke="none" paint-order="stroke fill markers" d=" M 88.57600000000001 81.15200000000002 L 82.944 83.968 L 82.944 103.168 L 88.57600000000001 100.352 Z"/><path fill="#ffe6a8" stroke="none" paint-order="stroke fill markers" d=" M 79.18933333333334 85.84533333333334 L 73.55733333333335 88.66133333333335 L 73.55733333333335 107.86133333333333 L 79.18933333333334 105.04533333333333 Z"/><path fill="#ffe6a8" stroke="none" paint-order="stroke fill markers" d=" M 29.86666666666667 68.69333333333333 L 38.82666666666667 73.17333333333333 L 38.82666666666667 92.37333333333333 L 29.86666666666667 87.89333333333335 Z"/><path fill="#ffe6a8" stroke="none" paint-order="stroke fill markers" d=" M 44.800000000000004 76.16 L 53.760000000000005 80.64 L 53.760000000000005 99.84 L 44.800000000000004 95.35999999999999 Z"/><path fill="#ffe6a8" stroke="none" paint-order="stroke fill markers" d=" M 59.73333333333334 83.62666666666668 L 68.69333333333333 88.10666666666667 L 68.69333333333333 107.30666666666667 L 59.73333333333334 102.82666666666668 Z"/><path fill="#8f3b30" stroke="rgb(0,0,0)" paint-order="fill stroke markers" d=" M 26.880000000000003 60.8 L 71.68 83.2 L 85.75999999999999 56.16 L 40.96 33.760000000000005 Z" stroke-opacity="0.3" stroke-miterlimit="10"/><path fill="#a8534a" stroke="rgb(0,0,0)" paint-order="fill stroke markers" d=" M 99.84 69.12 L 71.68 83.2 L 85.75999999999999 56.16 Z" stroke-opacity="0.3" stroke-miterlimit="10"/></g></svg>