<svg xmlns="http://www.w3.org/2000/svg" version="1.1" width="128" height="112"><g><rect x="9.92" y="9.92" width="44.16" height="44.16" fill="rgba(0,0,0,0.20)" transform="matrix(1,0.5000,-1,0.5000,66.50,47.92)"/><g transform="translate(64.00,62.99) skewY(-26.565)"><rect x="0" y="0" width="38.40" height="33.63" fill="rgb(27,36,26)"/><line x1="12.00" y1="5.95" x2="12.00" y2="27.68" stroke="rgb(246,208,151)" stroke-width="2.65" stroke-linecap="butt" stroke-dasharray="8.08,5.72"/><line x1="16.80" y1="5.95" x2="16.80" y2="27.68" stroke="rgb(246,208,151)" stroke-width="2.65" stroke-linecap="butt" stroke-dasharray="8.08,5.72"/><line x1="21.60" y1="5.95" x2="21.60" y2="27.68" stroke="rgb(246,208,151)" stroke-width="2.65" stroke-linecap="butt" stroke-dasharray="8.08,5.72"/></g><g transform="translate(25.60,43.79) skewY(26.565)"><rect x="0" y="0" width="38.40" height="33.63" fill="rgb(48,66,47)"/><line x1="8.40" y1="7.21" x2="30.00" y2="7.21" stroke="rgb(241,197,158)" stroke-width="2.12" stroke-linecap="butt" stroke-dasharray="5.74,4.86"/><line x1="8.40" y1="12.01" x2="30.00" y2="12.01" stroke="rgb(241,197,158)" stroke-width="2.12" stroke-linecap="butt" stroke-dasharray="5.74,4.86"/><line x1="8.40" y1="16.82" x2="30.00" y2="16.82" stroke="rgb(241,197,158)" stroke-width="2.12" stroke-linecap="butt" stroke-dasharray="5.74,4.86"/></g><rect x="12.80" y="12.80" width="38.40" height="38.40" fill="rgb(79,103,77)" transform="matrix(1,0.5000,-1,0.5000,64.00,11.79)"/><g transform="translate(64.00,16.97) skewY(-26.565)"><rect x="0" y="0" width="6.55" height="15.47" fill="rgb(70,39,32)"/></g><g transform="translate(57.45,13.70) skewY(26.565)"><rect x="0" y="0" width="6.55" height="15.47" fill="rgb(120,66,54)"/></g><rect x="14.11" y="14.11" width="6.55" height="6.55" fill="rgb(139,86,75)" transform="matrix(1,0.5000,-1,0.5000,64.00,-3.69)"/></g></svg>