<svg xmlns="http://www.w3.org/2000/svg" version="1.1" width="128" height="190"><g><rect x="7.36" y="7.36" width="49.28" height="22.60" fill="rgba(0,0,0,0.20)" transform="matrix(1,0.5000,-1,0.5000,66.50,123.36)"/><g transform="translate(90.68,119.90) skewY(-26.565)"><rect x="0" y="0" width="16.84" height="41.38" fill="rgb(30,37,23)"/><line x1="3.94" y1="8.87" x2="12.90" y2="8.87" stroke="rgb(251,220,154)" stroke-width="2.92" stroke-linecap="butt"/><line x1="3.94" y1="14.78" x2="12.90" y2="14.78" stroke="rgb(251,220,154)" stroke-width="2.92" stroke-linecap="butt"/><line x1="3.94" y1="20.69" x2="12.90" y2="20.69" stroke="rgb(251,220,154)" stroke-width="2.92" stroke-linecap="butt"/><line x1="3.94" y1="26.60" x2="12.90" y2="26.60" stroke="rgb(251,220,154)" stroke-width="2.92" stroke-linecap="butt"/></g><g transform="translate(47.16,98.14) skewY(26.565)"><rect x="0" y="0" width="43.52" height="41.38" fill="rgb(54,68,42)"/><line x1="15.54" y1="6.58" x2="15.54" y2="34.80" stroke="rgb(246,229,136)" stroke-width="2.14" stroke-linecap="butt" stroke-dasharray="2.95,5.14"/><line x1="21.76" y1="6.58" x2="21.76" y2="34.80" stroke="rgb(246,229,136)" stroke-width="2.14" stroke-linecap="butt" stroke-dasharray="2.95,5.14"/><line x1="27.98" y1="6.58" x2="27.98" y2="34.80" stroke="rgb(246,229,136)" stroke-width="2.14" stroke-linecap="butt" stroke-dasharray="2.95,5.14"/><line x1="34.19" y1="6.58" x2="34.19" y2="34.80" stroke="rgb(246,229,136)" stroke-width="2.14" stroke-linecap="butt" stroke-dasharray="2.95,5.14"/></g><rect x="10.24" y="10.24" width="43.52" height="16.84" fill="rgb(87,106,70)" transform="matrix(1,0.5000,-1,0.5000,64.00,79.48)"/><rect x="7.36" y="29.09" width="49.28" height="27.55" fill="rgba(0,0,0,0.20)" transform="matrix(1,0.5000,-1,0.5000,66.50,123.36)"/><g transform="translate(64.00,135.82) skewY(-26.565)"><rect x="0" y="0" width="21.79" height="38.80" fill="rgb(31,37,23)"/><line x1="4.26" y1="19.40" x2="17.54" y2="19.40" stroke="rgb(246,218,144)" stroke-width="2.78" stroke-linecap="butt" stroke-dasharray="5.96,4.25"/><line x1="4.26" y1="24.94" x2="17.54" y2="24.94" stroke="rgb(246,218,144)" stroke-width="2.78" stroke-linecap="butt" stroke-dasharray="5.96,4.25"/></g><g transform="translate(20.48,114.06) skewY(26.565)"><rect x="0" y="0" width="43.52" height="38.80" fill="rgb(56,68,42)"/><line x1="3.11" y1="7.36" x2="3.11" y2="31.44" stroke="rgb(249,228,158)" stroke-width="3.16" stroke-linecap="butt" stroke-dasharray="8.00,1.89"/><line x1="9.33" y1="7.36" x2="9.33" y2="31.44" stroke="rgb(249,228,158)" stroke-width="3.16" stroke-linecap="butt" stroke-dasharray="8.00,1.89"/><line x1="15.54" y1="7.36" x2="15.54" y2="31.44" stroke="rgb(249,228,158)" stroke-width="3.16" stroke-linecap="butt" stroke-dasharray="8.00,1.89"/><line x1="21.76" y1="7.36" x2="21.76" y2="31.44" stroke="rgb(249,228,158)" stroke-width="3.16" stroke-linecap="butt" stroke-dasharray="8.00,1.89"/></g><rect x="10.24" y="31.97" width="43.52" height="21.79" fill="rgb(89,106,70)" transform="matrix(1,0.5000,-1,0.5000,64.00,82.06)"/><g transform="translate(49.51,105.76) skewY(-26.565)"><rect x="0" y="0" width="10.24" height="22.81" fill="rgb(87,77,66)"/></g><g transform="translate(39.27,100.64) skewY(26.565)"><rect x="0" y="0" width="10.24" height="22.81" fill="rgb(122,108,92)"/></g><rect x="29.03" y="43.52" width="10.24" height="10.24" fill="rgb(140,128,115)" transform="matrix(1,0.5000,-1,0.5000,64.00,59.25)"/></g></svg>