<svg xmlns="http://www.w3.org/2000/svg" version="1.1" width="128" height="190"><g><rect x="7.36" y="7.36" width="23.17" height="49.28" fill="rgba(0,0,0,0.20)" transform="matrix(1,0.5000,-1,0.5000,66.50,123.36)"/><g transform="translate(37.89,113.62) skewY(-26.565)"><rect x="0" y="0" width="43.52" height="47.94" fill="rgb(34,47,28)"/><line x1="7.78" y1="11.99" x2="35.74" y2="11.99" stroke="rgb(247,236,187)" stroke-width="1.92" stroke-linecap="butt" stroke-dasharray="6.67,3.88"/><line x1="7.78" y1="19.98" x2="35.74" y2="19.98" stroke="rgb(247,236,187)" stroke-width="1.92" stroke-linecap="butt" stroke-dasharray="6.67,3.88"/></g><g transform="translate(20.48,104.92) skewY(26.565)"><rect x="0" y="0" width="17.41" height="47.94" fill="rgb(61,86,52)"/><line x1="3.03" y1="10.27" x2="14.38" y2="10.27" stroke="rgb(239,208,131)" stroke-width="1.53" stroke-linecap="butt" stroke-dasharray="3.38,2.14"/><line x1="3.03" y1="17.12" x2="14.38" y2="17.12" stroke="rgb(239,208,131)" stroke-width="1.53" stroke-linecap="butt" stroke-dasharray="3.38,2.14"/><line x1="3.03" y1="23.97" x2="14.38" y2="23.97" stroke="rgb(239,208,131)" stroke-width="1.53" stroke-linecap="butt" stroke-dasharray="3.38,2.14"/><line x1="3.03" y1="30.82" x2="14.38" y2="30.82" stroke="rgb(239,208,131)" stroke-width="1.53" stroke-linecap="butt" stroke-dasharray="3.38,2.14"/></g><rect x="10.24" y="10.24" width="17.41" height="43.52" fill="rgb(92,123,80)" transform="matrix(1,0.5000,-1,0.5000,64.00,72.92)"/><g transform="translate(64.00,74.60) skewY(-26.565)"><rect x="0" y="0" width="6.44" height="16.30" fill="rgb(70,44,32)"/></g><g transform="translate(57.56,71.37) skewY(26.565)"><rect x="0" y="0" width="6.44" height="16.30" fill="rgb(120,75,54)"/></g><rect x="11.53" y="11.53" width="6.44" height="6.44" fill="rgb(139,96,75)" transform="matrix(1,0.5000,-1,0.5000,64.00,56.62)"/><rect x="27.25" y="7.36" width="29.39" height="49.28" fill="rgba(0,0,0,0.20)" transform="matrix(1,0.5000,-1,0.5000,66.50,123.36)"/><g transform="translate(64.00,136.62) skewY(-26.565)"><rect x="0" y="0" width="43.52" height="38.00" fill="rgb(34,47,28)"/><line x1="3.63" y1="7.92" x2="3.63" y2="30.08" stroke="rgb(248,215,121)" stroke-width="2.61" stroke-linecap="butt"/><line x1="10.88" y1="7.92" x2="10.88" y2="30.08" stroke="rgb(248,215,121)" stroke-width="2.61" stroke-linecap="butt"/><line x1="18.13" y1="7.92" x2="18.13" y2="30.08" stroke="rgb(248,215,121)" stroke-width="2.61" stroke-linecap="butt"/><line x1="25.39" y1="7.92" x2="25.39" y2="30.08" stroke="rgb(248,215,121)" stroke-width="2.61" stroke-linecap="butt"/></g><g transform="translate(40.37,124.80) skewY(26.565)"><rect x="0" y="0" width="23.63" height="38.00" fill="rgb(61,86,52)"/><line x1="5.06" y1="7.43" x2="5.06" y2="30.57" stroke="rgb(243,205,152)" stroke-width="1.22" stroke-linecap="butt"/><line x1="8.44" y1="7.43" x2="8.44" y2="30.57" stroke="rgb(243,205,152)" stroke-width="1.22" stroke-linecap="butt"/><line x1="11.81" y1="7.43" x2="11.81" y2="30.57" stroke="rgb(243,205,152)" stroke-width="1.22" stroke-linecap="butt"/><line x1="15.19" y1="7.43" x2="15.19" y2="30.57" stroke="rgb(243,205,152)" stroke-width="1.22" stroke-linecap="butt"/><line x1="18.57" y1="7.43" x2="18.57" y2="30.57" stroke="rgb(243,205,152)" stroke-width="1.22" stroke-linecap="butt"/></g><rect x="30.13" y="10.24" width="23.63" height="43.52" fill="rgb(92,123,80)" transform="matrix(1,0.5000,-1,0.5000,64.00,82.86)"/></g></svg>