<svg xmlns="http://www.w3.org/2000/svg" version="1.1" width="128" height="260"><g><rect x="4.80" y="4.80" width="23.98" height="38.39" fill="rgba(0,0,0,0.20)" transform="matrix(1,0.5000,-1,0.5000,66.50,190.80)"/><g transform="translate(49.60,168.16) skewY(-26.565)"><rect x="0" y="0" width="32.63" height="53.25" fill="rgb(34,43,28)"/><line x1="16.31" y1="7.92" x2="16.31" y2="45.32" stroke="rgb(248,194,127)" stroke-width="1.62" stroke-linecap="butt"/><line x1="20.97" y1="7.92" x2="20.97" y2="45.32" stroke="rgb(248,194,127)" stroke-width="1.62" stroke-linecap="butt"/></g><g transform="translate(31.37,159.05) skewY(26.565)"><rect x="0" y="0" width="18.22" height="53.25" fill="rgb(63,78,51)"/><line x1="3.65" y1="3.33" x2="14.57" y2="3.33" stroke="rgb(245,192,144)" stroke-width="3.1" stroke-linecap="butt"/><line x1="3.65" y1="9.98" x2="14.57" y2="9.98" stroke="rgb(245,192,144)" stroke-width="3.1" stroke-linecap="butt"/><line x1="3.65" y1="16.64" x2="14.57" y2="16.64" stroke="rgb(245,192,144)" stroke-width="3.1" stroke-linecap="butt"/><line x1="3.65" y1="23.30" x2="14.57" y2="23.30" stroke="rgb(245,192,144)" stroke-width="3.1" stroke-linecap="butt"/><line x1="3.65" y1="29.95" x2="14.57" y2="29.95" stroke="rgb(245,192,144)" stroke-width="3.1" stroke-linecap="butt"/><line x1="3.65" y1="36.61" x2="14.57" y2="36.61" stroke="rgb(245,192,144)" stroke-width="3.1" stroke-linecap="butt"/><line x1="3.65" y1="43.26" x2="14.57" y2="43.26" stroke="rgb(245,192,144)" stroke-width="3.1" stroke-linecap="butt"/><line x1="3.65" y1="49.92" x2="14.57" y2="49.92" stroke="rgb(245,192,144)" stroke-width="3.1" stroke-linecap="butt"/></g><rect x="7.68" y="7.68" width="18.22" height="32.63" fill="rgb(95,115,81)" transform="matrix(1,0.5000,-1,0.5000,64.00,135.05)"/><g transform="translate(52.48,99.90) skewY(-26.565)"><rect x="0" y="0" width="19.58" height="63.17" fill="rgb(34,43,28)"/><line x1="4.43" y1="19.74" x2="15.15" y2="19.74" stroke="rgb(246,215,160)" stroke-width="1.73" stroke-linecap="butt" stroke-dasharray="7.64,5.56"/><line x1="4.43" y1="27.64" x2="15.15" y2="27.64" stroke="rgb(246,215,160)" stroke-width="1.73" stroke-linecap="butt" stroke-dasharray="7.64,5.56"/><line x1="4.43" y1="35.54" x2="15.15" y2="35.54" stroke="rgb(246,215,160)" stroke-width="1.73" stroke-linecap="butt" stroke-dasharray="7.64,5.56"/><line x1="4.43" y1="43.43" x2="15.15" y2="43.43" stroke="rgb(246,215,160)" stroke-width="1.73" stroke-linecap="butt" stroke-dasharray="7.64,5.56"/><line x1="4.43" y1="51.33" x2="15.15" y2="51.33" stroke="rgb(246,215,160)" stroke-width="1.73" stroke-linecap="butt" stroke-dasharray="7.64,5.56"/><line x1="4.43" y1="59.23" x2="15.15" y2="59.23" stroke="rgb(246,215,160)" stroke-width="1.73" stroke-linecap="butt" stroke-dasharray="7.64,5.56"/></g><g transform="translate(41.54,94.43) skewY(26.565)"><rect x="0" y="0" width="10.93" height="63.17" fill="rgb(61,78,51)"/><line x1="2.73" y1="12.88" x2="2.73" y2="50.30" stroke="rgb(246,203,171)" stroke-width="1.28" stroke-linecap="butt" stroke-dasharray="6.73,3.27"/><line x1="4.56" y1="12.88" x2="4.56" y2="50.30" stroke="rgb(246,203,171)" stroke-width="1.28" stroke-linecap="butt" stroke-dasharray="6.73,3.27"/><line x1="6.38" y1="12.88" x2="6.38" y2="50.30" stroke="rgb(246,203,171)" stroke-width="1.28" stroke-linecap="butt" stroke-dasharray="6.73,3.27"/><line x1="8.20" y1="12.88" x2="8.20" y2="50.30" stroke="rgb(246,203,171)" stroke-width="1.28" stroke-linecap="butt" stroke-dasharray="6.73,3.27"/><line x1="10.02" y1="12.88" x2="10.02" y2="50.30" stroke="rgb(246,203,171)" stroke-width="1.28" stroke-linecap="butt" stroke-dasharray="6.73,3.27"/></g><rect x="11.32" y="14.21" width="10.93" height="19.58" fill="rgb(94,115,81)" transform="matrix(1,0.5000,-1,0.5000,64.00,71.88)"/><rect x="26.84" y="4.80" width="32.36" height="38.39" fill="rgba(0,0,0,0.20)" transform="matrix(1,0.5000,-1,0.5000,66.50,190.80)"/><g transform="translate(80.01,176.64) skewY(-26.565)"><rect x="0" y="0" width="32.63" height="59.98" fill="rgb(33,43,28)"/><line x1="7.53" y1="26.24" x2="25.10" y2="26.24" stroke="rgb(248,229,187)" stroke-width="1.21" stroke-linecap="butt" stroke-dasharray="2.75,4.66"/><line x1="7.53" y1="33.74" x2="25.10" y2="33.74" stroke="rgb(248,229,187)" stroke-width="1.21" stroke-linecap="butt" stroke-dasharray="2.75,4.66"/><line x1="7.53" y1="41.23" x2="25.10" y2="41.23" stroke="rgb(248,229,187)" stroke-width="1.21" stroke-linecap="butt" stroke-dasharray="2.75,4.66"/></g><g transform="translate(53.41,163.34) skewY(26.565)"><rect x="0" y="0" width="26.60" height="59.98" fill="rgb(60,78,51)"/><line x1="11.64" y1="13.48" x2="11.64" y2="46.50" stroke="rgb(242,202,148)" stroke-width="1.21" stroke-linecap="butt"/><line x1="14.96" y1="13.48" x2="14.96" y2="46.50" stroke="rgb(242,202,148)" stroke-width="1.21" stroke-linecap="butt"/><line x1="18.29" y1="13.48" x2="18.29" y2="46.50" stroke="rgb(242,202,148)" stroke-width="1.21" stroke-linecap="butt"/><line x1="21.61" y1="13.48" x2="21.61" y2="46.50" stroke="rgb(242,202,148)" stroke-width="1.21" stroke-linecap="butt"/></g><rect x="29.72" y="7.68" width="26.60" height="32.63" fill="rgb(92,115,81)" transform="matrix(1,0.5000,-1,0.5000,64.00,128.32)"/><g transform="translate(81.22,125.55) skewY(-26.565)"><rect x="0" y="0" width="19.58" height="45.17" fill="rgb(34,43,28)"/><line x1="4.15" y1="14.11" x2="15.42" y2="14.11" stroke="rgb(242,212,146)" stroke-width="1.24" stroke-linecap="butt" stroke-dasharray="4.22,2.07"/><line x1="4.15" y1="19.76" x2="15.42" y2="19.76" stroke="rgb(242,212,146)" stroke-width="1.24" stroke-linecap="butt" stroke-dasharray="4.22,2.07"/><line x1="4.15" y1="25.41" x2="15.42" y2="25.41" stroke="rgb(242,212,146)" stroke-width="1.24" stroke-linecap="butt" stroke-dasharray="4.22,2.07"/></g><g transform="translate(65.26,117.57) skewY(26.565)"><rect x="0" y="0" width="15.96" height="45.17" fill="rgb(62,78,51)"/><line x1="3.36" y1="18.82" x2="12.60" y2="18.82" stroke="rgb(249,196,136)" stroke-width="2.37" stroke-linecap="butt" stroke-dasharray="7.02,5.73"/><line x1="3.36" y1="26.35" x2="12.60" y2="26.35" stroke="rgb(249,196,136)" stroke-width="2.37" stroke-linecap="butt" stroke-dasharray="7.02,5.73"/><line x1="3.36" y1="33.87" x2="12.60" y2="33.87" stroke="rgb(249,196,136)" stroke-width="2.37" stroke-linecap="butt" stroke-dasharray="7.02,5.73"/></g><rect x="35.04" y="14.21" width="15.96" height="19.58" fill="rgb(94,115,81)" transform="matrix(1,0.5000,-1,0.5000,64.00,83.16)"/><rect x="4.80" y="40.27" width="54.40" height="18.93" fill="rgba(0,0,0,0.20)" transform="matrix(1,0.5000,-1,0.5000,66.50,190.80)"/><g transform="translate(64.00,190.43) skewY(-26.565)"><rect x="0" y="0" width="13.17" height="54.19" fill="rgb(33,43,28)"/><line x1="3.07" y1="4.52" x2="10.10" y2="4.52" stroke="rgb(245,211,149)" stroke-width="2.09" stroke-linecap="butt" stroke-dasharray="4.35,5.30"/><line x1="3.07" y1="13.55" x2="10.10" y2="13.55" stroke="rgb(245,211,149)" stroke-width="2.09" stroke-linecap="butt" stroke-dasharray="4.35,5.30"/><line x1="3.07" y1="22.58" x2="10.10" y2="22.58" stroke="rgb(245,211,149)" stroke-width="2.09" stroke-linecap="butt" stroke-dasharray="4.35,5.30"/><line x1="3.07" y1="31.61" x2="10.10" y2="31.61" stroke="rgb(245,211,149)" stroke-width="2.09" stroke-linecap="butt" stroke-dasharray="4.35,5.30"/><line x1="3.07" y1="40.64" x2="10.10" y2="40.64" stroke="rgb(245,211,149)" stroke-width="2.09" stroke-linecap="butt" stroke-dasharray="4.35,5.30"/><line x1="3.07" y1="49.67" x2="10.10" y2="49.67" stroke="rgb(245,211,149)" stroke-width="2.09" stroke-linecap="butt" stroke-dasharray="4.35,5.30"/></g><g transform="translate(15.36,166.11) skewY(26.565)"><rect x="0" y="0" width="48.64" height="54.19" fill="rgb(60,78,51)"/><line x1="11.16" y1="13.55" x2="37.48" y2="13.55" stroke="rgb(245,197,127)" stroke-width="1.3" stroke-linecap="butt" stroke-dasharray="8.26,5.03"/><line x1="11.16" y1="22.58" x2="37.48" y2="22.58" stroke="rgb(245,197,127)" stroke-width="1.3" stroke-linecap="butt" stroke-dasharray="8.26,5.03"/><line x1="11.16" y1="31.61" x2="37.48" y2="31.61" stroke="rgb(245,197,127)" stroke-width="1.3" stroke-linecap="butt" stroke-dasharray="8.26,5.03"/><line x1="11.16" y1="40.64" x2="37.48" y2="40.64" stroke="rgb(245,197,127)" stroke-width="1.3" stroke-linecap="butt" stroke-dasharray="8.26,5.03"/><line x1="11.16" y1="49.67" x2="37.48" y2="49.67" stroke="rgb(245,197,127)" stroke-width="1.3" stroke-linecap="butt" stroke-dasharray="8.26,5.03"/></g><rect x="7.68" y="43.15" width="48.64" height="13.17" fill="rgb(92,115,81)" transform="matrix(1,0.5000,-1,0.5000,64.00,134.11)"/><g transform="translate(64.00,130.65) skewY(-26.565)"><rect x="0" y="0" width="13.17" height="59.79" fill="rgb(34,43,28)"/><line x1="5.76" y1="12.17" x2="5.76" y2="47.62" stroke="rgb(246,217,174)" stroke-width="2.59" stroke-linecap="butt"/><line x1="7.41" y1="12.17" x2="7.41" y2="47.62" stroke="rgb(246,217,174)" stroke-width="2.59" stroke-linecap="butt"/><line x1="9.05" y1="12.17" x2="9.05" y2="47.62" stroke="rgb(246,217,174)" stroke-width="2.59" stroke-linecap="butt"/><line x1="10.70" y1="12.17" x2="10.70" y2="47.62" stroke="rgb(246,217,174)" stroke-width="2.59" stroke-linecap="butt"/><line x1="12.35" y1="12.17" x2="12.35" y2="47.62" stroke="rgb(246,217,174)" stroke-width="2.59" stroke-linecap="butt"/></g><g transform="translate(15.36,106.33) skewY(26.565)"><rect x="0" y="0" width="48.64" height="59.79" fill="rgb(61,78,51)"/><line x1="9.48" y1="29.89" x2="39.16" y2="29.89" stroke="rgb(250,227,179)" stroke-width="2.61" stroke-linecap="butt"/><line x1="9.48" y1="38.43" x2="39.16" y2="38.43" stroke="rgb(250,227,179)" stroke-width="2.61" stroke-linecap="butt"/><line x1="9.48" y1="46.98" x2="39.16" y2="46.98" stroke="rgb(250,227,179)" stroke-width="2.61" stroke-linecap="butt"/></g><rect x="7.68" y="43.15" width="48.64" height="13.17" fill="rgb(93,115,81)" transform="matrix(1,0.5000,-1,0.5000,64.00,74.33)"/><g transform="translate(64.00,77.58) skewY(-26.565)"><rect x="0" y="0" width="13.17" height="53.07" fill="rgb(34,43,28)"/><line x1="1.10" y1="8.87" x2="1.10" y2="44.20" stroke="rgb(252,209,170)" stroke-width="1.13" stroke-linecap="butt"/><line x1="3.29" y1="8.87" x2="3.29" y2="44.20" stroke="rgb(252,209,170)" stroke-width="1.13" stroke-linecap="butt"/><line x1="5.49" y1="8.87" x2="5.49" y2="44.20" stroke="rgb(252,209,170)" stroke-width="1.13" stroke-linecap="butt"/><line x1="7.68" y1="8.87" x2="7.68" y2="44.20" stroke="rgb(252,209,170)" stroke-width="1.13" stroke-linecap="butt"/><line x1="9.88" y1="8.87" x2="9.88" y2="44.20" stroke="rgb(252,209,170)" stroke-width="1.13" stroke-linecap="butt"/><line x1="12.07" y1="8.87" x2="12.07" y2="44.20" stroke="rgb(252,209,170)" stroke-width="1.13" stroke-linecap="butt"/></g><g transform="translate(15.36,53.26) skewY(26.565)"><rect x="0" y="0" width="48.64" height="53.07" fill="rgb(62,78,51)"/><line x1="24.32" y1="9.25" x2="24.32" y2="43.82" stroke="rgb(249,199,126)" stroke-width="1.37" stroke-linecap="butt" stroke-dasharray="4.65,2.37"/><line x1="31.27" y1="9.25" x2="31.27" y2="43.82" stroke="rgb(249,199,126)" stroke-width="1.37" stroke-linecap="butt" stroke-dasharray="4.65,2.37"/><line x1="38.22" y1="9.25" x2="38.22" y2="43.82" stroke="rgb(249,199,126)" stroke-width="1.37" stroke-linecap="butt" stroke-dasharray="4.65,2.37"/><line x1="45.17" y1="9.25" x2="45.17" y2="43.82" stroke="rgb(249,199,126)" stroke-width="1.37" stroke-linecap="butt" stroke-dasharray="4.65,2.37"/></g><rect x="7.68" y="43.15" width="48.64" height="13.17" fill="rgb(95,115,81)" transform="matrix(1,0.5000,-1,0.5000,64.00,21.26)"/><g transform="translate(40.10,49.53) skewY(-26.565)"><rect x="0" y="0" width="9.65" height="15.34" fill="rgb(87,77,66)"/></g><g transform="translate(30.45,44.70) skewY(26.565)"><rect x="0" y="0" width="9.65" height="15.34" fill="rgb(122,108,92)"/></g><rect x="22.01" y="45.91" width="9.65" height="9.65" fill="rgb(140,128,115)" transform="matrix(1,0.5000,-1,0.5000,64.00,5.92)"/></g></svg>