<svg xmlns="http://www.w3.org/2000/svg" version="1.1" width="128" height="260"><g><rect x="4.80" y="4.80" width="54.40" height="54.40" fill="rgba(0,0,0,0.20)" transform="matrix(1,0.5000,-1,0.5000,66.50,190.80)"/><g transform="translate(64.00,190.23) skewY(-26.565)"><rect x="0" y="0" width="48.64" height="54.39" fill="rgb(33,41,30)"/><line x1="3.04" y1="9.27" x2="3.04" y2="45.12" stroke="rgb(246,207,142)" stroke-width="2.55" stroke-linecap="butt"/><line x1="9.12" y1="9.27" x2="9.12" y2="45.12" stroke="rgb(246,207,142)" stroke-width="2.55" stroke-linecap="butt"/><line x1="15.20" y1="9.27" x2="15.20" y2="45.12" stroke="rgb(246,207,142)" stroke-width="2.55" stroke-linecap="butt"/><line x1="21.28" y1="9.27" x2="21.28" y2="45.12" stroke="rgb(246,207,142)" stroke-width="2.55" stroke-linecap="butt"/><line x1="27.36" y1="9.27" x2="27.36" y2="45.12" stroke="rgb(246,207,142)" stroke-width="2.55" stroke-linecap="butt"/><line x1="33.44" y1="9.27" x2="33.44" y2="45.12" stroke="rgb(246,207,142)" stroke-width="2.55" stroke-linecap="butt"/><line x1="39.52" y1="9.27" x2="39.52" y2="45.12" stroke="rgb(246,207,142)" stroke-width="2.55" stroke-linecap="butt"/><line x1="45.60" y1="9.27" x2="45.60" y2="45.12" stroke="rgb(246,207,142)" stroke-width="2.55" stroke-linecap="butt"/></g><g transform="translate(15.36,165.91) skewY(26.565)"><rect x="0" y="0" width="48.64" height="54.39" fill="rgb(60,74,55)"/><line x1="15.20" y1="10.93" x2="15.20" y2="43.47" stroke="rgb(248,208,182)" stroke-width="1.99" stroke-linecap="butt" stroke-dasharray="6.31,4.22"/><line x1="21.28" y1="10.93" x2="21.28" y2="43.47" stroke="rgb(248,208,182)" stroke-width="1.99" stroke-linecap="butt" stroke-dasharray="6.31,4.22"/><line x1="27.36" y1="10.93" x2="27.36" y2="43.47" stroke="rgb(248,208,182)" stroke-width="1.99" stroke-linecap="butt" stroke-dasharray="6.31,4.22"/><line x1="33.44" y1="10.93" x2="33.44" y2="43.47" stroke="rgb(248,208,182)" stroke-width="1.99" stroke-linecap="butt" stroke-dasharray="6.31,4.22"/><line x1="39.52" y1="10.93" x2="39.52" y2="43.47" stroke="rgb(248,208,182)" stroke-width="1.99" stroke-linecap="butt" stroke-dasharray="6.31,4.22"/></g><rect x="7.68" y="7.68" width="48.64" height="48.64" fill="rgb(92,110,85)" transform="matrix(1,0.5000,-1,0.5000,64.00,133.91)"/><g transform="translate(64.00,124.25) skewY(-26.565)"><rect x="0" y="0" width="40.87" height="62.09" fill="rgb(33,41,30)"/><line x1="6.17" y1="19.40" x2="34.70" y2="19.40" stroke="rgb(248,201,125)" stroke-width="1.62" stroke-linecap="butt" stroke-dasharray="7.37,5.49"/><line x1="6.17" y1="27.16" x2="34.70" y2="27.16" stroke="rgb(248,201,125)" stroke-width="1.62" stroke-linecap="butt" stroke-dasharray="7.37,5.49"/><line x1="6.17" y1="34.93" x2="34.70" y2="34.93" stroke="rgb(248,201,125)" stroke-width="1.62" stroke-linecap="butt" stroke-dasharray="7.37,5.49"/><line x1="6.17" y1="42.69" x2="34.70" y2="42.69" stroke="rgb(248,201,125)" stroke-width="1.62" stroke-linecap="butt" stroke-dasharray="7.37,5.49"/><line x1="6.17" y1="50.45" x2="34.70" y2="50.45" stroke="rgb(248,201,125)" stroke-width="1.62" stroke-linecap="butt" stroke-dasharray="7.37,5.49"/><line x1="6.17" y1="58.21" x2="34.70" y2="58.21" stroke="rgb(248,201,125)" stroke-width="1.62" stroke-linecap="butt" stroke-dasharray="7.37,5.49"/></g><g transform="translate(23.13,103.82) skewY(26.565)"><rect x="0" y="0" width="40.87" height="62.09" fill="rgb(60,74,55)"/><line x1="6.65" y1="31.05" x2="34.23" y2="31.05" stroke="rgb(251,192,150)" stroke-width="2.33" stroke-linecap="butt"/><line x1="6.65" y1="39.92" x2="34.23" y2="39.92" stroke="rgb(251,192,150)" stroke-width="2.33" stroke-linecap="butt"/></g><rect x="11.56" y="11.56" width="40.87" height="40.87" fill="rgb(92,110,85)" transform="matrix(1,0.5000,-1,0.5000,64.00,71.82)"/><g transform="translate(74.45,95.93) skewY(-26.565)"><rect x="0" y="0" width="10.66" height="14.90" fill="rgb(87,77,66)"/></g><g transform="translate(63.79,90.60) skewY(26.565)"><rect x="0" y="0" width="10.66" height="14.90" fill="rgb(122,108,92)"/></g><rect x="33.58" y="23.14" width="10.66" height="10.66" fill="rgb(140,128,115)" transform="matrix(1,0.5000,-1,0.5000,64.00,56.91)"/></g></svg>