<svg xmlns="http://www.w3.org/2000/svg" version="1.1" width="128" height="190"><g><rect x="7.36" y="7.36" width="49.28" height="49.28" fill="rgba(0,0,0,0.20)" transform="matrix(1,0.5000,-1,0.5000,66.50,123.36)"/><g transform="translate(64.00,133.10) skewY(-26.565)"><rect x="0" y="0" width="43.52" height="41.52" fill="rgb(36,41,31)"/><line x1="10.13" y1="7.79" x2="33.39" y2="7.79" stroke="rgb(250,231,155)" stroke-width="3.19" stroke-linecap="butt"/><line x1="10.13" y1="12.98" x2="33.39" y2="12.98" stroke="rgb(250,231,155)" stroke-width="3.19" stroke-linecap="butt"/><line x1="10.13" y1="18.17" x2="33.39" y2="18.17" stroke="rgb(250,231,155)" stroke-width="3.19" stroke-linecap="butt"/><line x1="10.13" y1="23.36" x2="33.39" y2="23.36" stroke="rgb(250,231,155)" stroke-width="3.19" stroke-linecap="butt"/><line x1="10.13" y1="28.55" x2="33.39" y2="28.55" stroke="rgb(250,231,155)" stroke-width="3.19" stroke-linecap="butt"/></g><g transform="translate(20.48,111.34) skewY(26.565)"><rect x="0" y="0" width="43.52" height="41.52" fill="rgb(65,74,57)"/><line x1="9.97" y1="10.38" x2="33.55" y2="10.38" stroke="rgb(241,209,154)" stroke-width="1.67" stroke-linecap="butt" stroke-dasharray="4.28,3.10"/><line x1="9.97" y1="17.30" x2="33.55" y2="17.30" stroke="rgb(241,209,154)" stroke-width="1.67" stroke-linecap="butt" stroke-dasharray="4.28,3.10"/><line x1="9.97" y1="24.22" x2="33.55" y2="24.22" stroke="rgb(241,209,154)" stroke-width="1.67" stroke-linecap="butt" stroke-dasharray="4.28,3.10"/><line x1="9.97" y1="31.14" x2="33.55" y2="31.14" stroke="rgb(241,209,154)" stroke-width="1.67" stroke-linecap="butt" stroke-dasharray="4.28,3.10"/></g><rect x="10.24" y="10.24" width="43.52" height="43.52" fill="rgb(98,110,88)" transform="matrix(1,0.5000,-1,0.5000,64.00,79.34)"/><g transform="translate(64.00,85.91) skewY(-26.565)"><rect x="0" y="0" width="31.41" height="41.14" fill="rgb(36,41,31)"/><line x1="5.17" y1="8.82" x2="26.24" y2="8.82" stroke="rgb(247,212,161)" stroke-width="1.41" stroke-linecap="butt" stroke-dasharray="3.11,4.63"/><line x1="5.17" y1="14.69" x2="26.24" y2="14.69" stroke="rgb(247,212,161)" stroke-width="1.41" stroke-linecap="butt" stroke-dasharray="3.11,4.63"/><line x1="5.17" y1="20.57" x2="26.24" y2="20.57" stroke="rgb(247,212,161)" stroke-width="1.41" stroke-linecap="butt" stroke-dasharray="3.11,4.63"/></g><g transform="translate(32.59,70.20) skewY(26.565)"><rect x="0" y="0" width="31.41" height="41.14" fill="rgb(66,74,57)"/><line x1="5.58" y1="8.82" x2="25.82" y2="8.82" stroke="rgb(243,228,152)" stroke-width="1.97" stroke-linecap="butt" stroke-dasharray="2.85,4.83"/><line x1="5.58" y1="14.69" x2="25.82" y2="14.69" stroke="rgb(243,228,152)" stroke-width="1.97" stroke-linecap="butt" stroke-dasharray="2.85,4.83"/><line x1="5.58" y1="20.57" x2="25.82" y2="20.57" stroke="rgb(243,228,152)" stroke-width="1.97" stroke-linecap="butt" stroke-dasharray="2.85,4.83"/></g><rect x="16.30" y="16.30" width="31.41" height="31.41" fill="rgb(99,110,88)" transform="matrix(1,0.5000,-1,0.5000,64.00,38.20)"/><g transform="translate(64.00,70.47) skewY(-26.565)"><rect x="0" y="0" width="4.56" height="14.52" fill="rgb(70,41,32)"/></g><g transform="translate(59.44,68.19) skewY(26.565)"><rect x="0" y="0" width="4.56" height="14.52" fill="rgb(120,70,54)"/></g><rect x="42.24" y="42.24" width="4.56" height="4.56" fill="rgb(139,91,75)" transform="matrix(1,0.5000,-1,0.5000,64.00,23.68)"/></g></svg>