<svg xmlns="http://www.w3.org/2000/svg" version="1.1" width="128" height="260"><g><rect x="4.80" y="4.80" width="54.40" height="54.40" fill="rgba(0,0,0,0.20)" transform="matrix(1,0.5000,-1,0.5000,66.50,190.80)"/><g transform="translate(64.00,197.45) skewY(-26.565)"><rect x="0" y="0" width="48.64" height="47.17" fill="rgb(34,40,28)"/><line x1="8.32" y1="3.37" x2="40.32" y2="3.37" stroke="rgb(251,193,123)" stroke-width="3.11" stroke-linecap="butt" stroke-dasharray="7.65,3.22"/><line x1="8.32" y1="10.11" x2="40.32" y2="10.11" stroke="rgb(251,193,123)" stroke-width="3.11" stroke-linecap="butt" stroke-dasharray="7.65,3.22"/><line x1="8.32" y1="16.84" x2="40.32" y2="16.84" stroke="rgb(251,193,123)" stroke-width="3.11" stroke-linecap="butt" stroke-dasharray="7.65,3.22"/><line x1="8.32" y1="23.58" x2="40.32" y2="23.58" stroke="rgb(251,193,123)" stroke-width="3.11" stroke-linecap="butt" stroke-dasharray="7.65,3.22"/><line x1="8.32" y1="30.32" x2="40.32" y2="30.32" stroke="rgb(251,193,123)" stroke-width="3.11" stroke-linecap="butt" stroke-dasharray="7.65,3.22"/></g><g transform="translate(15.36,173.13) skewY(26.565)"><rect x="0" y="0" width="48.64" height="47.17" fill="rgb(62,72,50)"/><line x1="6.91" y1="11.79" x2="41.73" y2="11.79" stroke="rgb(246,204,164)" stroke-width="2.43" stroke-linecap="butt"/><line x1="6.91" y1="19.65" x2="41.73" y2="19.65" stroke="rgb(246,204,164)" stroke-width="2.43" stroke-linecap="butt"/><line x1="6.91" y1="27.51" x2="41.73" y2="27.51" stroke="rgb(246,204,164)" stroke-width="2.43" stroke-linecap="butt"/><line x1="6.91" y1="35.37" x2="41.73" y2="35.37" stroke="rgb(246,204,164)" stroke-width="2.43" stroke-linecap="butt"/><line x1="6.91" y1="43.24" x2="41.73" y2="43.24" stroke="rgb(246,204,164)" stroke-width="2.43" stroke-linecap="butt"/></g><rect x="7.68" y="7.68" width="48.64" height="48.64" fill="rgb(96,109,80)" transform="matrix(1,0.5000,-1,0.5000,64.00,141.13)"/><g transform="translate(64.00,157.41) skewY(-26.565)"><rect x="0" y="0" width="48.64" height="40.05" fill="rgb(33,40,28)"/><line x1="7.52" y1="2.50" x2="41.12" y2="2.50" stroke="rgb(251,221,163)" stroke-width="1.13" stroke-linecap="butt"/><line x1="7.52" y1="7.51" x2="41.12" y2="7.51" stroke="rgb(251,221,163)" stroke-width="1.13" stroke-linecap="butt"/><line x1="7.52" y1="12.52" x2="41.12" y2="12.52" stroke="rgb(251,221,163)" stroke-width="1.13" stroke-linecap="butt"/><line x1="7.52" y1="17.52" x2="41.12" y2="17.52" stroke="rgb(251,221,163)" stroke-width="1.13" stroke-linecap="butt"/><line x1="7.52" y1="22.53" x2="41.12" y2="22.53" stroke="rgb(251,221,163)" stroke-width="1.13" stroke-linecap="butt"/></g><g transform="translate(15.36,133.09) skewY(26.565)"><rect x="0" y="0" width="48.64" height="40.05" fill="rgb(61,72,50)"/><line x1="7.18" y1="12.52" x2="41.46" y2="12.52" stroke="rgb(247,227,175)" stroke-width="1.65" stroke-linecap="butt" stroke-dasharray="6.05,5.37"/><line x1="7.18" y1="17.52" x2="41.46" y2="17.52" stroke="rgb(247,227,175)" stroke-width="1.65" stroke-linecap="butt" stroke-dasharray="6.05,5.37"/><line x1="7.18" y1="22.53" x2="41.46" y2="22.53" stroke="rgb(247,227,175)" stroke-width="1.65" stroke-linecap="butt" stroke-dasharray="6.05,5.37"/><line x1="7.18" y1="27.53" x2="41.46" y2="27.53" stroke="rgb(247,227,175)" stroke-width="1.65" stroke-linecap="butt" stroke-dasharray="6.05,5.37"/></g><rect x="7.68" y="7.68" width="48.64" height="48.64" fill="rgb(93,109,80)" transform="matrix(1,0.5000,-1,0.5000,64.00,101.09)"/><g transform="translate(64.00,89.26) skewY(-26.565)"><rect x="0" y="0" width="43.28" height="65.46" fill="rgb(34,40,28)"/><line x1="10.28" y1="38.19" x2="33.00" y2="38.19" stroke="rgb(250,214,135)" stroke-width="2.81" stroke-linecap="butt" stroke-dasharray="6.64,4.10"/></g><g transform="translate(20.72,67.62) skewY(26.565)"><rect x="0" y="0" width="43.28" height="65.46" fill="rgb(61,72,50)"/><line x1="15.46" y1="11.95" x2="15.46" y2="53.52" stroke="rgb(252,220,172)" stroke-width="2.08" stroke-linecap="butt"/><line x1="21.64" y1="11.95" x2="21.64" y2="53.52" stroke="rgb(252,220,172)" stroke-width="2.08" stroke-linecap="butt"/></g><rect x="10.36" y="10.36" width="43.28" height="43.28" fill="rgb(94,109,80)" transform="matrix(1,0.5000,-1,0.5000,64.00,35.62)"/><g transform="translate(64.00,41.86) skewY(-26.565)"><rect x="0" y="0" width="30.03" height="40.78" fill="rgb(33,40,28)"/><line x1="5.35" y1="12.74" x2="24.68" y2="12.74" stroke="rgb(240,189,144)" stroke-width="1.15" stroke-linecap="butt" stroke-dasharray="2.85,3.44"/><line x1="5.35" y1="17.84" x2="24.68" y2="17.84" stroke="rgb(240,189,144)" stroke-width="1.15" stroke-linecap="butt" stroke-dasharray="2.85,3.44"/><line x1="5.35" y1="22.94" x2="24.68" y2="22.94" stroke="rgb(240,189,144)" stroke-width="1.15" stroke-linecap="butt" stroke-dasharray="2.85,3.44"/></g><g transform="translate(33.97,26.84) skewY(26.565)"><rect x="0" y="0" width="30.03" height="40.78" fill="rgb(60,72,50)"/><line x1="5.24" y1="2.55" x2="24.79" y2="2.55" stroke="rgb(244,225,159)" stroke-width="1.67" stroke-linecap="butt" stroke-dasharray="5.75,5.71"/><line x1="5.24" y1="7.65" x2="24.79" y2="7.65" stroke="rgb(244,225,159)" stroke-width="1.67" stroke-linecap="butt" stroke-dasharray="5.75,5.71"/><line x1="5.24" y1="12.74" x2="24.79" y2="12.74" stroke="rgb(244,225,159)" stroke-width="1.67" stroke-linecap="butt" stroke-dasharray="5.75,5.71"/><line x1="5.24" y1="17.84" x2="24.79" y2="17.84" stroke="rgb(244,225,159)" stroke-width="1.67" stroke-linecap="butt" stroke-dasharray="5.75,5.71"/><line x1="5.24" y1="22.94" x2="24.79" y2="22.94" stroke="rgb(244,225,159)" stroke-width="1.67" stroke-linecap="butt" stroke-dasharray="5.75,5.71"/><line x1="5.24" y1="28.04" x2="24.79" y2="28.04" stroke="rgb(244,225,159)" stroke-width="1.67" stroke-linecap="butt" stroke-dasharray="5.75,5.71"/></g><rect x="16.99" y="16.99" width="30.03" height="30.03" fill="rgb(93,109,80)" transform="matrix(1,0.5000,-1,0.5000,64.00,-5.16)"/></g></svg>