<svg xmlns="http://www.w3.org/2000/svg" xmlns:xlink="http://www.w3.org/1999/xlink" version="1.1" width="128" height="128"><defs/><g><path d="M57.04,80.72 L101.84,103.12 L73.68,117.2 L28.88,94.8 Z" fill="rgb(0,0,0)" fill-opacity="0.2"/><path d="M99.84,101.12 L71.68,115.2 L71.68,83.2 L99.84,69.12 Z" fill="#2e362b"/><path d="M99.84,101.12 L71.68,115.2 L71.68,83.2 L99.84,69.12 Z" fill="none" stroke="rgb(0,12,4)" stroke-opacity="0.45" stroke-width="1"/><path d="M26.88,92.8 L71.68,115.2 L71.68,83.2 L26.88,60.8 Z" fill="#1b211a"/><path d="M26.88,92.8 L71.68,115.2 L71.68,83.2 L26.88,60.8 Z" fill="none" stroke="rgb(0,12,4)" stroke-opacity="0.45" stroke-width="1"/><path d="M55.04,46.72 L99.84,69.12 L71.68,83.2 L26.88,60.8 Z" fill="#3f4a3a"/><path d="M55.04,46.72 L99.84,69.12 L71.68,83.2 L26.88,60.8 Z" fill="none" stroke="rgb(0,12,4)" stroke-opacity="0.45" stroke-width="1"/><path d="M91.77,73.16 L91.77,105.16" fill="none" stroke="rgb(255,229,180)" stroke-width="2.06" stroke-dasharray="9.32,4.92"/><path d="M85.76,76.16 L85.76,108.16" fill="none" stroke="rgb(255,221,152)" stroke-width="3.9" stroke-dasharray="7.92,6.91"/><path d="M79.75,79.16 L79.75,111.16" fill="none" stroke="rgb(255,214,146)" stroke-width="4.36" stroke-dasharray="6.23,5.94"/><path d="M39.72,67.22 L39.72,99.22" fill="none" stroke="rgb(255,229,180)" stroke-width="2.06" stroke-dasharray="9.32,4.92"/><path d="M49.28,72 L49.28,104" fill="none" stroke="rgb(255,221,152)" stroke-width="3.9" stroke-dasharray="7.92,6.91"/><path d="M58.84,76.78 L58.84,108.78" fill="none" stroke="rgb(255,214,146)" stroke-width="4.36" stroke-dasharray="6.23,5.94"/><path d="M26.88,60.8 L71.68,83.2 L85.76,56.16 L40.96,33.76 Z" fill="#262d24"/><path d="M26.88,60.8 L71.68,83.2 L85.76,56.16 L40.96,33.76 Z" fill="none" stroke="rgb(0,0,0)" stroke-opacity="0.25" stroke-width="4.36"/><path d="M99.84,69.12 L71.68,83.2 L85.76,56.16 Z" fill="#2f382c"/><path d="M99.84,69.12 L71.68,83.2 L85.76,56.16 Z" fill="none" stroke="rgb(0,0,0)" stroke-opacity="0.25" stroke-width="4.36"/></g></svg>