<svg xmlns="http://www.w3.org/2000/svg" version="1.1" width="128" height="112"><g><rect x="9.92" y="9.92" width="23.48" height="44.16" fill="rgba(0,0,0,0.20)" transform="matrix(1,0.5000,-1,0.5000,66.50,47.92)"/><g transform="translate(43.32,58.55) skewY(-26.565)"><rect x="0" y="0" width="38.40" height="27.74" fill="rgb(32,39,30)"/><line x1="16.00" y1="5.21" x2="16.00" y2="22.53" stroke="rgb(248,203,140)" stroke-width="2.21" stroke-linecap="butt" stroke-dasharray="7.49,3.96"/></g><g transform="translate(25.60,49.68) skewY(26.565)"><rect x="0" y="0" width="17.72" height="27.74" fill="rgb(59,70,55)"/><line x1="7.39" y1="4.74" x2="7.39" y2="22.99" stroke="rgb(243,199,135)" stroke-width="2.62" stroke-linecap="butt" stroke-dasharray="2.51,1.83"/></g><rect x="12.80" y="12.80" width="17.72" height="38.40" fill="rgb(91,106,86)" transform="matrix(1,0.5000,-1,0.5000,64.00,17.68)"/><rect x="30.35" y="9.92" width="23.73" height="44.16" fill="rgba(0,0,0,0.20)" transform="matrix(1,0.5000,-1,0.5000,66.50,47.92)"/><g transform="translate(64.00,67.07) skewY(-26.565)"><rect x="0" y="0" width="38.40" height="29.55" fill="rgb(32,39,30)"/><line x1="8.23" y1="4.35" x2="8.23" y2="25.20" stroke="rgb(247,199,154)" stroke-width="2.3" stroke-linecap="butt"/><line x1="13.71" y1="4.35" x2="13.71" y2="25.20" stroke="rgb(247,199,154)" stroke-width="2.3" stroke-linecap="butt"/><line x1="19.20" y1="4.35" x2="19.20" y2="25.20" stroke="rgb(247,199,154)" stroke-width="2.3" stroke-linecap="butt"/><line x1="24.69" y1="4.35" x2="24.69" y2="25.20" stroke="rgb(247,199,154)" stroke-width="2.3" stroke-linecap="butt"/></g><g transform="translate(46.03,58.09) skewY(26.565)"><rect x="0" y="0" width="17.97" height="29.55" fill="rgb(57,70,55)"/><line x1="3.37" y1="6.10" x2="3.37" y2="23.45" stroke="rgb(252,219,185)" stroke-width="2.6" stroke-linecap="butt"/><line x1="5.62" y1="6.10" x2="5.62" y2="23.45" stroke="rgb(252,219,185)" stroke-width="2.6" stroke-linecap="butt"/><line x1="7.86" y1="6.10" x2="7.86" y2="23.45" stroke="rgb(252,219,185)" stroke-width="2.6" stroke-linecap="butt"/><line x1="10.11" y1="6.10" x2="10.11" y2="23.45" stroke="rgb(252,219,185)" stroke-width="2.6" stroke-linecap="butt"/><line x1="12.35" y1="6.10" x2="12.35" y2="23.45" stroke="rgb(252,219,185)" stroke-width="2.6" stroke-linecap="butt"/></g><rect x="33.23" y="12.80" width="17.97" height="38.40" fill="rgb(89,106,86)" transform="matrix(1,0.5000,-1,0.5000,64.00,15.87)"/></g></svg>