<svg xmlns="http://www.w3.org/2000/svg" xmlns:xlink="http://www.w3.org/1999/xlink" version="1.1" width="128" height="288"><defs/><g><path d="M66,234.96 L114.64,259.28 L66,283.6 L17.36,259.28 Z" fill="rgb(0,0,0)" fill-opacity="0.2"/><path d="M112.64,257.28 L64,281.6 L64,97.6 L112.64,73.28 Z" fill="#2e362b"/><path d="M112.64,257.28 L64,281.6 L64,97.6 L112.64,73.28 Z" fill="none" stroke="rgb(0,12,4)" stroke-opacity="0.45" stroke-width="1"/><path d="M15.36,257.28 L64,281.6 L64,97.6 L15.36,73.28 Z" fill="#1b211a"/><path d="M15.36,257.28 L64,281.6 L64,97.6 L15.36,73.28 Z" fill="none" stroke="rgb(0,12,4)" stroke-opacity="0.45" stroke-width="1"/><path d="M64,48.96 L112.64,73.28 L64,97.6 L15.36,73.28 Z" fill="#3f4a3a"/><path d="M64,48.96 L112.64,73.28 L64,97.6 L15.36,73.28 Z" fill="none" stroke="rgb(0,12,4)" stroke-opacity="0.45" stroke-width="1"/><path d="M112.64,118.18 L64,142.5" fill="none" stroke="rgb(255,205,162)" stroke-width="4.48" stroke-dasharray="6.54,5.02"/><path d="M112.64,141.73 L64,166.05" fill="none" stroke="rgb(255,250,163)" stroke-width="2.75" stroke-dasharray="8.45,6.02"/><path d="M112.64,165.28 L64,189.6" fill="none" stroke="rgb(255,206,147)" stroke-width="2.97" stroke-dasharray="9.77,2.56"/><path d="M112.64,188.83 L64,213.15" fill="none" stroke="rgb(255,201,168)" stroke-width="3.29" stroke-dasharray="6.82,2.81"/><path d="M112.64,212.38 L64,236.7" fill="none" stroke="rgb(255,216,180)" stroke-width="4.59" stroke-dasharray="9.82,2.46"/><path d="M15.36,118.18 L64,142.5" fill="none" stroke="rgb(255,209,175)" stroke-width="4.4" stroke-dasharray="9.34,2.29"/><path d="M15.36,141.73 L64,166.05" fill="none" stroke="rgb(255,243,178)" stroke-width="2.98" stroke-dasharray="8.76,5.44"/><path d="M15.36,165.28 L64,189.6" fill="none" stroke="rgb(255,215,154)" stroke-width="4.37" stroke-dasharray="4.25,2.47"/><path d="M15.36,188.83 L64,213.15" fill="none" stroke="rgb(255,211,169)" stroke-width="4.37" stroke-dasharray="3.12,3.81"/><path d="M15.36,212.38 L64,236.7" fill="none" stroke="rgb(255,252,153)" stroke-width="2.56" stroke-dasharray="3.62,4.67"/><path d="M64,72 L64,48" fill="none" stroke="#bbb" stroke-width="2"/><path d="M60.8,48 a3.2,3.2 0 1,0 6.4,0 a3.2,3.2 0 1,0 -6.4,0" fill="#ff5b3b"/></g></svg>