<svg xmlns="http://www.w3.org/2000/svg" xmlns:xlink="http://www.w3.org/1999/xlink" version="1.1" width="128" height="128"><defs/><g><path d="M66,81.36 L101.84,99.28 L66,117.2 L30.16,99.28 Z" fill="rgb(0,0,0)" fill-opacity="0.2"/><path d="M99.84,97.28 L64,115.2 L64,77.2 L99.84,59.28 Z" fill="#2e362b"/><path d="M99.84,97.28 L64,115.2 L64,77.2 L99.84,59.28 Z" fill="none" stroke="rgb(0,12,4)" stroke-opacity="0.45" stroke-width="1"/><path d="M28.16,97.28 L64,115.2 L64,77.2 L28.16,59.28 Z" fill="#1b211a"/><path d="M28.16,97.28 L64,115.2 L64,77.2 L28.16,59.28 Z" fill="none" stroke="rgb(0,12,4)" stroke-opacity="0.45" stroke-width="1"/><path d="M64,41.36 L99.84,59.28 L64,77.2 L28.16,59.28 Z" fill="#3f4a3a"/><path d="M64,41.36 L99.84,59.28 L64,77.2 L28.16,59.28 Z" fill="none" stroke="rgb(0,12,4)" stroke-opacity="0.45" stroke-width="1"/><path d="M87.65,65.37 L87.65,103.37" fill="none" stroke="rgb(255,212,164)" stroke-width="1.89" stroke-dasharray="8.97,5.32"/><path d="M76.19,71.11 L76.19,109.11" fill="none" stroke="rgb(255,208,173)" stroke-width="2.16" stroke-dasharray="6.23,4.45"/><path d="M40.35,65.37 L40.35,103.37" fill="none" stroke="rgb(255,243,163)" stroke-width="3.38" stroke-dasharray="7.37,3.52"/><path d="M51.81,71.11 L51.81,109.11" fill="none" stroke="rgb(255,240,181)" stroke-width="4.74" stroke-dasharray="7.79,2.07"/><path d="M99.84,59.28 L64,77.2 L64,27.28 Z" fill="#2f382c"/><path d="M99.84,59.28 L64,77.2 L64,27.28 Z" fill="none" stroke="rgb(0,0,0)" stroke-opacity="0.25" stroke-width="4.74"/><path d="M28.16,59.28 L64,77.2 L64,27.28 Z" fill="#262d24"/><path d="M28.16,59.28 L64,77.2 L64,27.28 Z" fill="none" stroke="rgb(0,0,0)" stroke-opacity="0.25" stroke-width="4.74"/><path d="M92.16,32 L84.48,35.84 L84.48,17.84 L92.16,14 Z" fill="rgb(12,18,11)"/><path d="M92.16,32 L84.48,35.84 L84.48,17.84 L92.16,14 Z" fill="none" stroke="rgb(0,0,0)" stroke-opacity="0.25" stroke-width="1"/><path d="M76.8,32 L84.48,35.84 L84.48,17.84 L76.8,14 Z" fill="rgb(0,0,0)"/><path d="M76.8,32 L84.48,35.84 L84.48,17.84 L76.8,14 Z" fill="none" stroke="rgb(0,0,0)" stroke-opacity="0.25" stroke-width="1"/><path d="M84.48,10.16 L92.16,14 L84.48,17.84 L76.8,14 Z" fill="#1b211a"/><path d="M84.48,10.16 L92.16,14 L84.48,17.84 L76.8,14 Z" fill="none" stroke="rgb(0,0,0)" stroke-opacity="0.25" stroke-width="1"/></g></svg>