<svg xmlns="http://www.w3.org/2000/svg" version="1.1" width="128" height="112"><g><rect x="9.92" y="9.92" width="44.16" height="44.16" fill="rgba(0,0,0,0.20)" transform="matrix(1,0.5000,-1,0.5000,66.50,47.92)"/><g transform="translate(64.00,63.73) skewY(-26.565)"><rect x="0" y="0" width="38.40" height="32.89" fill="rgb(35,42,33)"/><line x1="3.20" y1="5.86" x2="3.20" y2="27.03" stroke="rgb(247,218,165)" stroke-width="1.95" stroke-linecap="butt" stroke-dasharray="3.70,5.75"/><line x1="9.60" y1="5.86" x2="9.60" y2="27.03" stroke="rgb(247,218,165)" stroke-width="1.95" stroke-linecap="butt" stroke-dasharray="3.70,5.75"/><line x1="16.00" y1="5.86" x2="16.00" y2="27.03" stroke="rgb(247,218,165)" stroke-width="1.95" stroke-linecap="butt" stroke-dasharray="3.70,5.75"/><line x1="22.40" y1="5.86" x2="22.40" y2="27.03" stroke="rgb(247,218,165)" stroke-width="1.95" stroke-linecap="butt" stroke-dasharray="3.70,5.75"/><line x1="28.80" y1="5.86" x2="28.80" y2="27.03" stroke="rgb(247,218,165)" stroke-width="1.95" stroke-linecap="butt" stroke-dasharray="3.70,5.75"/><line x1="35.20" y1="5.86" x2="35.20" y2="27.03" stroke="rgb(247,218,165)" stroke-width="1.95" stroke-linecap="butt" stroke-dasharray="3.70,5.75"/></g><g transform="translate(25.60,44.53) skewY(26.565)"><rect x="0" y="0" width="38.40" height="32.89" fill="rgb(64,76,60)"/><line x1="9.00" y1="14.39" x2="29.40" y2="14.39" stroke="rgb(253,232,183)" stroke-width="1.56" stroke-linecap="butt"/><line x1="9.00" y1="18.50" x2="29.40" y2="18.50" stroke="rgb(253,232,183)" stroke-width="1.56" stroke-linecap="butt"/></g><rect x="12.80" y="12.80" width="38.40" height="38.40" fill="rgb(96,111,91)" transform="matrix(1,0.5000,-1,0.5000,64.00,12.53)"/></g></svg>