<svg xmlns="http://www.w3.org/2000/svg" version="1.1" width="128" height="116"><g><rect x="9.92" y="9.92" width="30.24" height="21.72" fill="rgba(0,0,0,0.20)" transform="matrix(1,0.5000,-1,0.5000,66.50,51.92)"/><g transform="translate(72.52,55.60) skewY(-26.565)"><rect x="0" y="0" width="15.96" height="26.84" fill="rgb(34,40,31)"/><line x1="2.48" y1="5.75" x2="13.48" y2="5.75" stroke="rgb(242,228,146)" stroke-width="1.19" stroke-linecap="butt" stroke-dasharray="5.06,4.16"/><line x1="2.48" y1="9.59" x2="13.48" y2="9.59" stroke="rgb(242,228,146)" stroke-width="1.19" stroke-linecap="butt" stroke-dasharray="5.06,4.16"/><line x1="2.48" y1="13.42" x2="13.48" y2="13.42" stroke="rgb(242,228,146)" stroke-width="1.19" stroke-linecap="butt" stroke-dasharray="5.06,4.16"/><line x1="2.48" y1="17.26" x2="13.48" y2="17.26" stroke="rgb(242,228,146)" stroke-width="1.19" stroke-linecap="butt" stroke-dasharray="5.06,4.16"/><line x1="2.48" y1="21.09" x2="13.48" y2="21.09" stroke="rgb(242,228,146)" stroke-width="1.19" stroke-linecap="butt" stroke-dasharray="5.06,4.16"/><line x1="2.48" y1="24.93" x2="13.48" y2="24.93" stroke="rgb(242,228,146)" stroke-width="1.19" stroke-linecap="butt" stroke-dasharray="5.06,4.16"/></g><g transform="translate(48.04,43.36) skewY(26.565)"><rect x="0" y="0" width="24.48" height="26.84" fill="rgb(61,72,57)"/><line x1="3.93" y1="8.39" x2="20.55" y2="8.39" stroke="rgb(248,222,171)" stroke-width="2.72" stroke-linecap="butt"/><line x1="3.93" y1="11.74" x2="20.55" y2="11.74" stroke="rgb(248,222,171)" stroke-width="2.72" stroke-linecap="butt"/><line x1="3.93" y1="15.10" x2="20.55" y2="15.10" stroke="rgb(248,222,171)" stroke-width="2.72" stroke-linecap="butt"/><line x1="3.93" y1="18.45" x2="20.55" y2="18.45" stroke="rgb(248,222,171)" stroke-width="2.72" stroke-linecap="butt"/></g><rect x="12.80" y="12.80" width="24.48" height="15.96" fill="rgb(94,108,88)" transform="matrix(1,0.5000,-1,0.5000,64.00,22.58)"/><rect x="9.92" y="30.99" width="30.24" height="23.09" fill="rgba(0,0,0,0.20)" transform="matrix(1,0.5000,-1,0.5000,66.50,51.92)"/><g transform="translate(50.08,71.52) skewY(-26.565)"><rect x="0" y="0" width="17.33" height="22.15" fill="rgb(34,40,31)"/><line x1="2.69" y1="7.91" x2="14.64" y2="7.91" stroke="rgb(246,208,124)" stroke-width="2.92" stroke-linecap="butt" stroke-dasharray="3.93,5.76"/><line x1="2.69" y1="11.07" x2="14.64" y2="11.07" stroke="rgb(246,208,124)" stroke-width="2.92" stroke-linecap="butt" stroke-dasharray="3.93,5.76"/><line x1="2.69" y1="14.24" x2="14.64" y2="14.24" stroke="rgb(246,208,124)" stroke-width="2.92" stroke-linecap="butt" stroke-dasharray="3.93,5.76"/></g><g transform="translate(25.60,59.27) skewY(26.565)"><rect x="0" y="0" width="24.48" height="22.15" fill="rgb(61,72,57)"/><line x1="4.17" y1="6.92" x2="20.31" y2="6.92" stroke="rgb(252,239,181)" stroke-width="3.06" stroke-linecap="butt"/><line x1="4.17" y1="9.69" x2="20.31" y2="9.69" stroke="rgb(252,239,181)" stroke-width="3.06" stroke-linecap="butt"/><line x1="4.17" y1="12.46" x2="20.31" y2="12.46" stroke="rgb(252,239,181)" stroke-width="3.06" stroke-linecap="butt"/></g><rect x="12.80" y="33.87" width="24.48" height="17.33" fill="rgb(93,108,88)" transform="matrix(1,0.5000,-1,0.5000,64.00,27.27)"/><g transform="translate(50.08,36.57) skewY(-26.565)"><rect x="0" y="0" width="11.76" height="32.16" fill="rgb(34,40,31)"/><line x1="3.67" y1="7.51" x2="3.67" y2="24.65" stroke="rgb(251,240,125)" stroke-width="1.44" stroke-linecap="butt"/><line x1="5.14" y1="7.51" x2="5.14" y2="24.65" stroke="rgb(251,240,125)" stroke-width="1.44" stroke-linecap="butt"/><line x1="6.61" y1="7.51" x2="6.61" y2="24.65" stroke="rgb(251,240,125)" stroke-width="1.44" stroke-linecap="butt"/><line x1="8.08" y1="7.51" x2="8.08" y2="24.65" stroke="rgb(251,240,125)" stroke-width="1.44" stroke-linecap="butt"/><line x1="9.55" y1="7.51" x2="9.55" y2="24.65" stroke="rgb(251,240,125)" stroke-width="1.44" stroke-linecap="butt"/><line x1="11.02" y1="7.51" x2="11.02" y2="24.65" stroke="rgb(251,240,125)" stroke-width="1.44" stroke-linecap="butt"/></g><g transform="translate(31.17,27.11) skewY(26.565)"><rect x="0" y="0" width="18.91" height="32.16" fill="rgb(61,72,57)"/><line x1="3.41" y1="6.89" x2="15.50" y2="6.89" stroke="rgb(249,220,124)" stroke-width="2.89" stroke-linecap="butt" stroke-dasharray="4.14,2.46"/><line x1="3.41" y1="11.49" x2="15.50" y2="11.49" stroke="rgb(249,220,124)" stroke-width="2.89" stroke-linecap="butt" stroke-dasharray="4.14,2.46"/><line x1="3.41" y1="16.08" x2="15.50" y2="16.08" stroke="rgb(249,220,124)" stroke-width="2.89" stroke-linecap="butt" stroke-dasharray="4.14,2.46"/><line x1="3.41" y1="20.68" x2="15.50" y2="20.68" stroke="rgb(249,220,124)" stroke-width="2.89" stroke-linecap="butt" stroke-dasharray="4.14,2.46"/></g><rect x="15.59" y="36.66" width="18.91" height="11.76" fill="rgb(93,108,88)" transform="matrix(1,0.5000,-1,0.5000,64.00,-4.89)"/><g transform="translate(42.93,12.81) skewY(-26.565)"><rect x="0" y="0" width="6.77" height="16.55" fill="rgb(70,42,32)"/></g><g transform="translate(36.16,9.43) skewY(26.565)"><rect x="0" y="0" width="6.77" height="16.55" fill="rgb(120,72,54)"/></g><rect x="16.94" y="38.01" width="6.77" height="6.77" fill="rgb(139,93,75)" transform="matrix(1,0.5000,-1,0.5000,64.00,-21.43)"/><rect x="38.72" y="9.92" width="15.36" height="44.16" fill="rgba(0,0,0,0.20)" transform="matrix(1,0.5000,-1,0.5000,66.50,51.92)"/><g transform="translate(64.00,78.94) skewY(-26.565)"><rect x="0" y="0" width="38.40" height="21.68" fill="rgb(34,40,31)"/><line x1="7.97" y1="9.03" x2="30.43" y2="9.03" stroke="rgb(249,222,133)" stroke-width="1.63" stroke-linecap="butt" stroke-dasharray="8.45,5.62"/><line x1="7.97" y1="12.65" x2="30.43" y2="12.65" stroke="rgb(249,222,133)" stroke-width="1.63" stroke-linecap="butt" stroke-dasharray="8.45,5.62"/><line x1="7.97" y1="16.26" x2="30.43" y2="16.26" stroke="rgb(249,222,133)" stroke-width="1.63" stroke-linecap="butt" stroke-dasharray="8.45,5.62"/><line x1="7.97" y1="19.88" x2="30.43" y2="19.88" stroke="rgb(249,222,133)" stroke-width="1.63" stroke-linecap="butt" stroke-dasharray="8.45,5.62"/></g><g transform="translate(54.40,74.14) skewY(26.565)"><rect x="0" y="0" width="9.60" height="21.68" fill="rgb(61,72,57)"/><line x1="1.52" y1="1.36" x2="8.08" y2="1.36" stroke="rgb(246,235,183)" stroke-width="1.63" stroke-linecap="butt" stroke-dasharray="7.72,4.98"/><line x1="1.52" y1="4.07" x2="8.08" y2="4.07" stroke="rgb(246,235,183)" stroke-width="1.63" stroke-linecap="butt" stroke-dasharray="7.72,4.98"/><line x1="1.52" y1="6.78" x2="8.08" y2="6.78" stroke="rgb(246,235,183)" stroke-width="1.63" stroke-linecap="butt" stroke-dasharray="7.72,4.98"/><line x1="1.52" y1="9.49" x2="8.08" y2="9.49" stroke="rgb(246,235,183)" stroke-width="1.63" stroke-linecap="butt" stroke-dasharray="7.72,4.98"/><line x1="1.52" y1="12.20" x2="8.08" y2="12.20" stroke="rgb(246,235,183)" stroke-width="1.63" stroke-linecap="butt" stroke-dasharray="7.72,4.98"/></g><rect x="41.60" y="12.80" width="9.60" height="38.40" fill="rgb(94,108,88)" transform="matrix(1,0.5000,-1,0.5000,64.00,27.74)"/></g></svg>