<svg xmlns:xlink="http://www.w3.org/1999/xlink" version="1.1" xmlns="http://www.w3.org/2000/svg" width="128" height="288"><defs/><g><g transform="translate(2,2)"><path fill="rgb(0,0,0)" stroke="none" paint-order="stroke fill markers" d=" M 64 234.24 L 110.08 257.28 L 64 280.32 L 17.92 257.28 Z" fill-opacity="0.20"/></g><path fill="#a85f3e" stroke="rgb(0,0,0)" paint-order="fill stroke markers" d=" M 110.08 257.28 L 64 280.32 L 64 179.12 L 110.08 156.07999999999998 Z" stroke-opacity="0.35" stroke-miterlimit="10"/><path fill="#76402a" stroke="rgb(0,0,0)" paint-order="fill stroke markers" d=" M 17.92 257.28 L 64 280.32 L 64 179.12 L 17.92 156.07999999999998 Z" stroke-opacity="0.35" stroke-miterlimit="10"/><path fill="#c47a52" stroke="rgb(0,0,0)" paint-order="fill stroke markers" d=" M 64 133.04000000000002 L 110.08 156.07999999999998 L 64 179.12 L 17.92 156.07999999999998 Z" stroke-opacity="0.35" stroke-miterlimit="10"/><path fill="#ffe6a8" stroke="none" paint-order="stroke fill markers" d=" M 107.008 164.36266666666666 L 97.792 168.97066666666666 L 97.792 189.21066666666667 L 107.008 184.60266666666666 Z"/><path fill="#ffe6a8" stroke="none" paint-order="stroke fill markers" d=" M 91.648 172.04266666666666 L 82.432 176.65066666666667 L 82.432 196.89066666666668 L 91.648 192.28266666666667 Z"/><path fill="#ffe6a8" stroke="none" paint-order="stroke fill markers" d=" M 76.288 179.72266666666667 L 67.072 184.33066666666667 L 67.072 204.57066666666668 L 76.288 199.96266666666668 Z"/><path fill="#ffe6a8" stroke="none" paint-order="stroke fill markers" d=" M 107.008 198.09599999999998 L 97.792 202.70399999999998 L 97.792 222.944 L 107.008 218.33599999999998 Z"/><path fill="#ffe6a8" stroke="none" paint-order="stroke fill markers" d=" M 91.648 205.77599999999998 L 82.432 210.384 L 82.432 230.624 L 91.648 226.016 Z"/><path fill="#ffe6a8" stroke="none" paint-order="stroke fill markers" d=" M 76.288 213.456 L 67.072 218.064 L 67.072 238.304 L 76.288 233.696 Z"/><path fill="#ffe6a8" stroke="none" paint-order="stroke fill markers" d=" M 107.008 231.8293333333333 L 97.792 236.4373333333333 L 97.792 256.6773333333333 L 107.008 252.0693333333333 Z"/><path fill="#ffe6a8" stroke="none" paint-order="stroke fill markers" d=" M 91.648 239.5093333333333 L 82.432 244.1173333333333 L 82.432 264.3573333333333 L 91.648 259.7493333333333 Z"/><path fill="#ffe6a8" stroke="none" paint-order="stroke fill markers" d=" M 76.288 247.1893333333333 L 67.072 251.7973333333333 L 67.072 272.0373333333333 L 76.288 267.4293333333333 Z"/><path fill="#ffe6a8" stroke="none" paint-order="stroke fill markers" d=" M 20.992 164.36266666666666 L 30.208000000000002 168.97066666666666 L 30.208000000000002 189.21066666666667 L 20.992 184.60266666666666 Z"/><path fill="#ffe6a8" stroke="none" paint-order="stroke fill markers" d=" M 36.352000000000004 172.04266666666666 L 45.568 176.65066666666667 L 45.568 196.89066666666668 L 36.352000000000004 192.28266666666667 Z"/><path fill="#ffe6a8" stroke="none" paint-order="stroke fill markers" d=" M 51.712 179.72266666666667 L 60.928 184.33066666666667 L 60.928 204.57066666666668 L 51.712 199.96266666666668 Z"/><path fill="#ffe6a8" stroke="none" paint-order="stroke fill markers" d=" M 20.992 198.09599999999998 L 30.208000000000002 202.70399999999998 L 30.208000000000002 222.944 L 20.992 218.33599999999998 Z"/><path fill="#ffe6a8" stroke="none" paint-order="stroke fill markers" d=" M 36.352000000000004 205.77599999999998 L 45.568 210.384 L 45.568 230.624 L 36.352000000000004 226.016 Z"/><path fill="#ffe6a8" stroke="none" paint-order="stroke fill markers" d=" M 51.712 213.456 L 60.928 218.064 L 60.928 238.304 L 51.712 233.696 Z"/><path fill="#ffe6a8" stroke="none" paint-order="stroke fill markers" d=" M 20.992 231.8293333333333 L 30.208000000000002 236.4373333333333 L 30.208000000000002 256.6773333333333 L 20.992 252.0693333333333 Z"/><path fill="#ffe6a8" stroke="none" paint-order="stroke fill markers" d=" M 36.352000000000004 239.5093333333333 L 45.568 244.1173333333333 L 45.568 264.3573333333333 L 36.352000000000004 259.7493333333333 Z"/><path fill="#ffe6a8" stroke="none" paint-order="stroke fill markers" d=" M 51.712 247.1893333333333 L 60.928 251.7973333333333 L 60.928 272.0373333333333 L 51.712 267.4293333333333 Z"/><path fill="#a85f3e" stroke="rgb(0,0,0)" paint-order="fill stroke markers" d=" M 97.28 156.07999999999998 L 64 172.72000000000003 L 64 89.92000000000002 L 97.28 73.27999999999997 Z" stroke-opacity="0.35" stroke-miterlimit="10"/><path fill="#76402a" stroke="rgb(0,0,0)" paint-order="fill stroke markers" d=" M 30.72 156.07999999999998 L 64 172.72000000000003 L 64 89.92000000000002 L 30.72 73.27999999999997 Z" stroke-opacity="0.35" stroke-miterlimit="10"/><path fill="#c47a52" stroke="rgb(0,0,0)" paint-order="fill stroke markers" d=" M 64 56.639999999999986 L 97.28 73.27999999999997 L 64 89.92000000000002 L 30.72 73.27999999999997 Z" stroke-opacity="0.35" stroke-miterlimit="10"/><path fill="#ffe6a8" stroke="none" paint-order="stroke fill markers" d=" M 93.952 83.22399999999998 L 83.968 88.216 L 83.968 113.05599999999998 L 93.952 108.064 Z"/><path fill="#ffe6a8" stroke="none" paint-order="stroke fill markers" d=" M 77.312 91.544 L 67.328 96.53600000000002 L 67.328 121.376 L 77.312 116.38400000000001 Z"/><path fill="#ffe6a8" stroke="none" paint-order="stroke fill markers" d=" M 93.952 124.624 L 83.968 129.61599999999999 L 83.968 154.456 L 93.952 149.464 Z"/><path fill="#ffe6a8" stroke="none" paint-order="stroke fill markers" d=" M 77.312 132.94400000000002 L 67.328 137.936 L 67.328 162.776 L 77.312 157.78400000000002 Z"/><path fill="#ffe6a8" stroke="none" paint-order="stroke fill markers" d=" M 34.048 83.22399999999998 L 44.032 88.216 L 44.032 113.05599999999998 L 34.048 108.064 Z"/><path fill="#ffe6a8" stroke="none" paint-order="stroke fill markers" d=" M 50.688 91.544 L 60.672 96.53600000000002 L 60.672 121.376 L 50.688 116.38400000000001 Z"/><path fill="#ffe6a8" stroke="none" paint-order="stroke fill markers" d=" M 34.048 124.624 L 44.032 129.61599999999999 L 44.032 154.456 L 34.048 149.464 Z"/><path fill="#ffe6a8" stroke="none" paint-order="stroke fill markers" d=" M 50.688 132.94400000000002 L 60.672 137.936 L 60.672 162.776 L 50.688 157.78400000000002 Z"/><path fill="none" stroke="#bbb" paint-order="fill stroke markers" d=" M 64 72 L 64 52" stroke-miterlimit="10" stroke-width="2"/><path fill="#ff5b3b" stroke="none" paint-order="stroke fill markers" d=" M 67.2 52 A 3.2 3.2 0 1 1 67.19999840000014 51.996800000533334"/></g></svg>