<svg xmlns="http://www.w3.org/2000/svg" version="1.1" width="128" height="260"><g><rect x="4.80" y="4.80" width="54.40" height="54.40" fill="rgba(0,0,0,0.20)" transform="matrix(1,0.5000,-1,0.5000,66.50,190.80)"/><g transform="translate(64.00,206.30) skewY(-26.565)"><rect x="0" y="0" width="48.64" height="38.32" fill="rgb(33,42,29)"/><line x1="7.11" y1="16.77" x2="41.53" y2="16.77" stroke="rgb(251,203,146)" stroke-width="1.24" stroke-linecap="butt" stroke-dasharray="6.37,2.82"/><line x1="7.11" y1="21.56" x2="41.53" y2="21.56" stroke="rgb(251,203,146)" stroke-width="1.24" stroke-linecap="butt" stroke-dasharray="6.37,2.82"/><line x1="7.11" y1="26.35" x2="41.53" y2="26.35" stroke="rgb(251,203,146)" stroke-width="1.24" stroke-linecap="butt" stroke-dasharray="6.37,2.82"/><line x1="7.11" y1="31.14" x2="41.53" y2="31.14" stroke="rgb(251,203,146)" stroke-width="1.24" stroke-linecap="butt" stroke-dasharray="6.37,2.82"/><line x1="7.11" y1="35.93" x2="41.53" y2="35.93" stroke="rgb(251,203,146)" stroke-width="1.24" stroke-linecap="butt" stroke-dasharray="6.37,2.82"/></g><g transform="translate(15.36,181.98) skewY(26.565)"><rect x="0" y="0" width="48.64" height="38.32" fill="rgb(60,76,53)"/><line x1="11.44" y1="11.98" x2="37.20" y2="11.98" stroke="rgb(247,186,124)" stroke-width="1.59" stroke-linecap="butt" stroke-dasharray="3.43,4.15"/><line x1="11.44" y1="16.77" x2="37.20" y2="16.77" stroke="rgb(247,186,124)" stroke-width="1.59" stroke-linecap="butt" stroke-dasharray="3.43,4.15"/><line x1="11.44" y1="21.56" x2="37.20" y2="21.56" stroke="rgb(247,186,124)" stroke-width="1.59" stroke-linecap="butt" stroke-dasharray="3.43,4.15"/></g><rect x="7.68" y="7.68" width="48.64" height="48.64" fill="rgb(91,112,82)" transform="matrix(1,0.5000,-1,0.5000,64.00,149.98)"/><g transform="translate(64.00,137.00) skewY(-26.565)"><rect x="0" y="0" width="42.93" height="66.44" fill="rgb(33,42,29)"/><line x1="8.05" y1="13.71" x2="8.05" y2="52.73" stroke="rgb(249,190,147)" stroke-width="2.75" stroke-linecap="butt" stroke-dasharray="3.81,3.41"/><line x1="13.41" y1="13.71" x2="13.41" y2="52.73" stroke="rgb(249,190,147)" stroke-width="2.75" stroke-linecap="butt" stroke-dasharray="3.81,3.41"/><line x1="18.78" y1="13.71" x2="18.78" y2="52.73" stroke="rgb(249,190,147)" stroke-width="2.75" stroke-linecap="butt" stroke-dasharray="3.81,3.41"/><line x1="24.15" y1="13.71" x2="24.15" y2="52.73" stroke="rgb(249,190,147)" stroke-width="2.75" stroke-linecap="butt" stroke-dasharray="3.81,3.41"/><line x1="29.51" y1="13.71" x2="29.51" y2="52.73" stroke="rgb(249,190,147)" stroke-width="2.75" stroke-linecap="butt" stroke-dasharray="3.81,3.41"/><line x1="34.88" y1="13.71" x2="34.88" y2="52.73" stroke="rgb(249,190,147)" stroke-width="2.75" stroke-linecap="butt" stroke-dasharray="3.81,3.41"/></g><g transform="translate(21.07,115.54) skewY(26.565)"><rect x="0" y="0" width="42.93" height="66.44" fill="rgb(61,76,53)"/><line x1="10.73" y1="9.42" x2="10.73" y2="57.02" stroke="rgb(245,205,157)" stroke-width="2.78" stroke-linecap="butt" stroke-dasharray="7.85,3.40"/><line x1="17.89" y1="9.42" x2="17.89" y2="57.02" stroke="rgb(245,205,157)" stroke-width="2.78" stroke-linecap="butt" stroke-dasharray="7.85,3.40"/><line x1="25.04" y1="9.42" x2="25.04" y2="57.02" stroke="rgb(245,205,157)" stroke-width="2.78" stroke-linecap="butt" stroke-dasharray="7.85,3.40"/><line x1="32.19" y1="9.42" x2="32.19" y2="57.02" stroke="rgb(245,205,157)" stroke-width="2.78" stroke-linecap="butt" stroke-dasharray="7.85,3.40"/></g><rect x="10.54" y="10.54" width="42.93" height="42.93" fill="rgb(93,112,82)" transform="matrix(1,0.5000,-1,0.5000,64.00,83.54)"/><g transform="translate(64.00,80.64) skewY(-26.565)"><rect x="0" y="0" width="42.93" height="56.36" fill="rgb(33,42,29)"/><line x1="7.76" y1="10.57" x2="35.16" y2="10.57" stroke="rgb(241,199,132)" stroke-width="2.25" stroke-linecap="butt"/><line x1="7.76" y1="17.61" x2="35.16" y2="17.61" stroke="rgb(241,199,132)" stroke-width="2.25" stroke-linecap="butt"/><line x1="7.76" y1="24.66" x2="35.16" y2="24.66" stroke="rgb(241,199,132)" stroke-width="2.25" stroke-linecap="butt"/><line x1="7.76" y1="31.70" x2="35.16" y2="31.70" stroke="rgb(241,199,132)" stroke-width="2.25" stroke-linecap="butt"/></g><g transform="translate(21.07,59.18) skewY(26.565)"><rect x="0" y="0" width="42.93" height="56.36" fill="rgb(61,76,53)"/><line x1="3.07" y1="10.94" x2="3.07" y2="45.42" stroke="rgb(248,223,188)" stroke-width="2.12" stroke-linecap="butt" stroke-dasharray="7.91,5.24"/><line x1="9.20" y1="10.94" x2="9.20" y2="45.42" stroke="rgb(248,223,188)" stroke-width="2.12" stroke-linecap="butt" stroke-dasharray="7.91,5.24"/><line x1="15.33" y1="10.94" x2="15.33" y2="45.42" stroke="rgb(248,223,188)" stroke-width="2.12" stroke-linecap="butt" stroke-dasharray="7.91,5.24"/><line x1="21.46" y1="10.94" x2="21.46" y2="45.42" stroke="rgb(248,223,188)" stroke-width="2.12" stroke-linecap="butt" stroke-dasharray="7.91,5.24"/></g><rect x="10.54" y="10.54" width="42.93" height="42.93" fill="rgb(93,112,82)" transform="matrix(1,0.5000,-1,0.5000,64.00,27.18)"/><g transform="translate(59.19,44.83) skewY(-26.565)"><rect x="0" y="0" width="8.82" height="21.90" fill="rgb(87,77,66)"/></g><g transform="translate(50.38,40.42) skewY(26.565)"><rect x="0" y="0" width="8.82" height="21.90" fill="rgb(122,108,92)"/></g><rect x="28.32" y="33.13" width="8.82" height="8.82" fill="rgb(140,128,115)" transform="matrix(1,0.5000,-1,0.5000,64.00,5.29)"/></g></svg>