<svg xmlns:xlink="http://www.w3.org/1999/xlink" version="1.1" xmlns="http://www.w3.org/2000/svg" width="128" height="224"><defs/><g><g transform="translate(2,2)"><path fill="rgb(0,0,0)" stroke="none" paint-order="stroke fill markers" d=" M 64 179.2 L 90.88 192.64 L 64 206.07999999999998 L 37.120000000000005 192.64 Z" fill-opacity="0.20"/></g><path fill="#a85f3e" stroke="rgb(0,0,0)" paint-order="fill stroke markers" d=" M 90.88 192.64 L 64 206.07999999999998 L 64 86.07999999999998 L 90.88 72.63999999999999 Z" stroke-opacity="0.35" stroke-miterlimit="10"/><path fill="#76402a" stroke="rgb(0,0,0)" paint-order="fill stroke markers" d=" M 37.120000000000005 192.64 L 64 206.07999999999998 L 64 86.07999999999998 L 37.120000000000005 72.63999999999999 Z" stroke-opacity="0.35" stroke-miterlimit="10"/><path fill="#c47a52" stroke="rgb(0,0,0)" paint-order="fill stroke markers" d=" M 64 59.19999999999999 L 90.88 72.63999999999999 L 64 86.07999999999998 L 37.120000000000005 72.63999999999999 Z" stroke-opacity="0.35" stroke-miterlimit="10"/><path fill="#ffe6a8" stroke="none" paint-order="stroke fill markers" d=" M 88.192 81.98399999999998 L 80.128 86.01599999999999 L 80.128 110.01599999999999 L 88.192 105.98399999999998 Z"/><path fill="#ffe6a8" stroke="none" paint-order="stroke fill markers" d=" M 74.752 88.70399999999998 L 66.688 92.73599999999999 L 66.688 116.73599999999999 L 74.752 112.70399999999998 Z"/><path fill="#ffe6a8" stroke="none" paint-order="stroke fill markers" d=" M 88.192 121.98399999999998 L 80.128 126.01599999999999 L 80.128 150.016 L 88.192 145.98399999999998 Z"/><path fill="#ffe6a8" stroke="none" paint-order="stroke fill markers" d=" M 74.752 128.70399999999998 L 66.688 132.736 L 66.688 156.736 L 74.752 152.70399999999998 Z"/><path fill="#ffe6a8" stroke="none" paint-order="stroke fill markers" d=" M 88.192 161.98399999999998 L 80.128 166.016 L 80.128 190.01599999999996 L 88.192 185.98399999999998 Z"/><path fill="#ffe6a8" stroke="none" paint-order="stroke fill markers" d=" M 74.752 168.70399999999998 L 66.688 172.736 L 66.688 196.736 L 74.752 192.70399999999995 Z"/><path fill="#ffe6a8" stroke="none" paint-order="stroke fill markers" d=" M 39.80800000000001 81.98399999999998 L 47.872 86.01599999999999 L 47.872 110.01599999999999 L 39.80800000000001 105.98399999999998 Z"/><path fill="#ffe6a8" stroke="none" paint-order="stroke fill markers" d=" M 53.248000000000005 88.70399999999998 L 61.312 92.73599999999999 L 61.312 116.73599999999999 L 53.248000000000005 112.70399999999998 Z"/><path fill="#ffe6a8" stroke="none" paint-order="stroke fill markers" d=" M 39.80800000000001 121.98399999999998 L 47.872 126.01599999999999 L 47.872 150.016 L 39.80800000000001 145.98399999999998 Z"/><path fill="#ffe6a8" stroke="none" paint-order="stroke fill markers" d=" M 53.248000000000005 128.70399999999998 L 61.312 132.736 L 61.312 156.736 L 53.248000000000005 152.70399999999998 Z"/><path fill="#ffe6a8" stroke="none" paint-order="stroke fill markers" d=" M 39.80800000000001 161.98399999999998 L 47.872 166.016 L 47.872 190.01599999999996 L 39.80800000000001 185.98399999999998 Z"/><path fill="#ffe6a8" stroke="none" paint-order="stroke fill markers" d=" M 53.248000000000005 168.70399999999998 L 61.312 172.736 L 61.312 196.736 L 53.248000000000005 192.70399999999995 Z"/></g></svg>