<svg xmlns="http://www.w3.org/2000/svg" version="1.1" width="128" height="273"><g><rect x="4.80" y="4.80" width="54.40" height="54.40" fill="rgba(0,0,0,0.20)" transform="matrix(1,0.5000,-1,0.5000,66.50,203.80)"/><g transform="translate(64.00,204.22) skewY(-26.565)"><rect x="0" y="0" width="48.64" height="53.40" fill="rgb(36,44,33)"/><line x1="6.84" y1="10.01" x2="41.80" y2="10.01" stroke="rgb(245,217,146)" stroke-width="2.88" stroke-linecap="butt" stroke-dasharray="3.47,4.60"/><line x1="6.84" y1="16.69" x2="41.80" y2="16.69" stroke="rgb(245,217,146)" stroke-width="2.88" stroke-linecap="butt" stroke-dasharray="3.47,4.60"/><line x1="6.84" y1="23.36" x2="41.80" y2="23.36" stroke="rgb(245,217,146)" stroke-width="2.88" stroke-linecap="butt" stroke-dasharray="3.47,4.60"/><line x1="6.84" y1="30.04" x2="41.80" y2="30.04" stroke="rgb(245,217,146)" stroke-width="2.88" stroke-linecap="butt" stroke-dasharray="3.47,4.60"/><line x1="6.84" y1="36.71" x2="41.80" y2="36.71" stroke="rgb(245,217,146)" stroke-width="2.88" stroke-linecap="butt" stroke-dasharray="3.47,4.60"/><line x1="6.84" y1="43.39" x2="41.80" y2="43.39" stroke="rgb(245,217,146)" stroke-width="2.88" stroke-linecap="butt" stroke-dasharray="3.47,4.60"/></g><g transform="translate(15.36,179.90) skewY(26.565)"><rect x="0" y="0" width="48.64" height="53.40" fill="rgb(66,80,60)"/><line x1="12.16" y1="11.53" x2="12.16" y2="41.87" stroke="rgb(239,210,140)" stroke-width="2.92" stroke-linecap="butt"/><line x1="20.27" y1="11.53" x2="20.27" y2="41.87" stroke="rgb(239,210,140)" stroke-width="2.92" stroke-linecap="butt"/><line x1="28.37" y1="11.53" x2="28.37" y2="41.87" stroke="rgb(239,210,140)" stroke-width="2.92" stroke-linecap="butt"/></g><rect x="7.68" y="7.68" width="48.64" height="48.64" fill="rgb(98,116,91)" transform="matrix(1,0.5000,-1,0.5000,64.00,147.90)"/><g transform="translate(64.00,139.85) skewY(-26.565)"><rect x="0" y="0" width="33.00" height="56.56" fill="rgb(36,44,33)"/><line x1="16.50" y1="11.68" x2="16.50" y2="44.88" stroke="rgb(248,226,170)" stroke-width="1.5" stroke-linecap="butt"/><line x1="21.22" y1="11.68" x2="21.22" y2="44.88" stroke="rgb(248,226,170)" stroke-width="1.5" stroke-linecap="butt"/><line x1="25.93" y1="11.68" x2="25.93" y2="44.88" stroke="rgb(248,226,170)" stroke-width="1.5" stroke-linecap="butt"/></g><g transform="translate(31.00,123.34) skewY(26.565)"><rect x="0" y="0" width="33.00" height="56.56" fill="rgb(65,80,60)"/><line x1="2.75" y1="12.90" x2="2.75" y2="43.66" stroke="rgb(245,212,171)" stroke-width="2.27" stroke-linecap="butt" stroke-dasharray="2.86,2.97"/><line x1="8.25" y1="12.90" x2="8.25" y2="43.66" stroke="rgb(245,212,171)" stroke-width="2.27" stroke-linecap="butt" stroke-dasharray="2.86,2.97"/><line x1="13.75" y1="12.90" x2="13.75" y2="43.66" stroke="rgb(245,212,171)" stroke-width="2.27" stroke-linecap="butt" stroke-dasharray="2.86,2.97"/><line x1="19.25" y1="12.90" x2="19.25" y2="43.66" stroke="rgb(245,212,171)" stroke-width="2.27" stroke-linecap="butt" stroke-dasharray="2.86,2.97"/><line x1="24.75" y1="12.90" x2="24.75" y2="43.66" stroke="rgb(245,212,171)" stroke-width="2.27" stroke-linecap="butt" stroke-dasharray="2.86,2.97"/></g><rect x="15.50" y="15.50" width="33.00" height="33.00" fill="rgb(97,116,91)" transform="matrix(1,0.5000,-1,0.5000,64.00,91.34)"/><g transform="translate(64.00,92.82) skewY(-26.565)"><rect x="0" y="0" width="33.00" height="47.02" fill="rgb(36,44,33)"/><line x1="5.21" y1="8.82" x2="27.80" y2="8.82" stroke="rgb(251,207,148)" stroke-width="2.33" stroke-linecap="butt"/><line x1="5.21" y1="14.69" x2="27.80" y2="14.69" stroke="rgb(251,207,148)" stroke-width="2.33" stroke-linecap="butt"/><line x1="5.21" y1="20.57" x2="27.80" y2="20.57" stroke="rgb(251,207,148)" stroke-width="2.33" stroke-linecap="butt"/><line x1="5.21" y1="26.45" x2="27.80" y2="26.45" stroke="rgb(251,207,148)" stroke-width="2.33" stroke-linecap="butt"/><line x1="5.21" y1="32.33" x2="27.80" y2="32.33" stroke="rgb(251,207,148)" stroke-width="2.33" stroke-linecap="butt"/><line x1="5.21" y1="38.21" x2="27.80" y2="38.21" stroke="rgb(251,207,148)" stroke-width="2.33" stroke-linecap="butt"/><line x1="5.21" y1="44.08" x2="27.80" y2="44.08" stroke="rgb(251,207,148)" stroke-width="2.33" stroke-linecap="butt"/></g><g transform="translate(31.00,76.32) skewY(26.565)"><rect x="0" y="0" width="33.00" height="47.02" fill="rgb(65,80,60)"/><line x1="8.25" y1="10.50" x2="8.25" y2="36.52" stroke="rgb(245,198,150)" stroke-width="2.41" stroke-linecap="butt"/><line x1="13.75" y1="10.50" x2="13.75" y2="36.52" stroke="rgb(245,198,150)" stroke-width="2.41" stroke-linecap="butt"/><line x1="19.25" y1="10.50" x2="19.25" y2="36.52" stroke="rgb(245,198,150)" stroke-width="2.41" stroke-linecap="butt"/></g><rect x="15.50" y="15.50" width="33.00" height="33.00" fill="rgb(97,116,91)" transform="matrix(1,0.5000,-1,0.5000,64.00,44.32)"/><g transform="translate(64.00,26.73) skewY(-26.565)"><rect x="0" y="0" width="19.80" height="59.49" fill="rgb(35,44,33)"/><line x1="4.22" y1="24.79" x2="15.58" y2="24.79" stroke="rgb(248,227,182)" stroke-width="1.25" stroke-linecap="butt" stroke-dasharray="3.22,5.48"/></g><g transform="translate(44.20,16.83) skewY(26.565)"><rect x="0" y="0" width="19.80" height="59.49" fill="rgb(64,80,60)"/><line x1="4.29" y1="14.87" x2="15.51" y2="14.87" stroke="rgb(246,219,190)" stroke-width="2.06" stroke-linecap="butt"/><line x1="4.29" y1="24.79" x2="15.51" y2="24.79" stroke="rgb(246,219,190)" stroke-width="2.06" stroke-linecap="butt"/><line x1="4.29" y1="34.70" x2="15.51" y2="34.70" stroke="rgb(246,219,190)" stroke-width="2.06" stroke-linecap="butt"/><line x1="4.29" y1="44.62" x2="15.51" y2="44.62" stroke="rgb(246,219,190)" stroke-width="2.06" stroke-linecap="butt"/><line x1="4.29" y1="54.53" x2="15.51" y2="54.53" stroke="rgb(246,219,190)" stroke-width="2.06" stroke-linecap="butt"/></g><rect x="22.10" y="22.10" width="19.80" height="19.80" fill="rgb(96,116,91)" transform="matrix(1,0.5000,-1,0.5000,64.00,-15.17)"/></g></svg>