<svg xmlns="http://www.w3.org/2000/svg" xmlns:xlink="http://www.w3.org/1999/xlink" version="1.1" width="128" height="288"><defs/><g><path d="M66,236.24 L112.08,259.28 L66,282.32 L19.92,259.28 Z" fill="rgb(0,0,0)" fill-opacity="0.2"/><path d="M110.08,257.28 L64,280.32 L64,179.12 L110.08,156.08 Z" fill="#2e362b"/><path d="M110.08,257.28 L64,280.32 L64,179.12 L110.08,156.08 Z" fill="none" stroke="rgb(0,12,4)" stroke-opacity="0.45" stroke-width="1"/><path d="M17.92,257.28 L64,280.32 L64,179.12 L17.92,156.08 Z" fill="#1b211a"/><path d="M17.92,257.28 L64,280.32 L64,179.12 L17.92,156.08 Z" fill="none" stroke="rgb(0,12,4)" stroke-opacity="0.45" stroke-width="1"/><path d="M64,133.04 L110.08,156.08 L64,179.12 L17.92,156.08 Z" fill="#3f4a3a"/><path d="M64,133.04 L110.08,156.08 L64,179.12 L17.92,156.08 Z" fill="none" stroke="rgb(0,12,4)" stroke-opacity="0.45" stroke-width="1"/><path d="M96.87,162.68 L96.87,263.88" fill="none" stroke="rgb(255,229,180)" stroke-width="2.06" stroke-dasharray="9.32,4.92"/><path d="M87.04,167.6 L87.04,268.8" fill="none" stroke="rgb(255,221,152)" stroke-width="3.9" stroke-dasharray="7.92,6.91"/><path d="M77.21,172.52 L77.21,273.72" fill="none" stroke="rgb(255,214,146)" stroke-width="4.36" stroke-dasharray="6.23,5.94"/><path d="M31.13,162.68 L31.13,263.88" fill="none" stroke="rgb(255,251,171)" stroke-width="3.03" stroke-dasharray="7.49,6.34"/><path d="M40.96,167.6 L40.96,268.8" fill="none" stroke="rgb(255,228,148)" stroke-width="4.66" stroke-dasharray="3.95,4.53"/><path d="M50.79,172.52 L50.79,273.72" fill="none" stroke="rgb(255,248,165)" stroke-width="2.61" stroke-dasharray="3.02,5.9"/><path d="M97.28,156.08 L64,172.72 L64,89.92 L97.28,73.28 Z" fill="#2e362b"/><path d="M97.28,156.08 L64,172.72 L64,89.92 L97.28,73.28 Z" fill="none" stroke="rgb(0,12,4)" stroke-opacity="0.45" stroke-width="1"/><path d="M30.72,156.08 L64,172.72 L64,89.92 L30.72,73.28 Z" fill="#1b211a"/><path d="M30.72,156.08 L64,172.72 L64,89.92 L30.72,73.28 Z" fill="none" stroke="rgb(0,12,4)" stroke-opacity="0.45" stroke-width="1"/><path d="M64,56.64 L97.28,73.28 L64,89.92 L30.72,73.28 Z" fill="#3f4a3a"/><path d="M64,56.64 L97.28,73.28 L64,89.92 L30.72,73.28 Z" fill="none" stroke="rgb(0,12,4)" stroke-opacity="0.45" stroke-width="1"/><path d="M85.96,78.94 L85.96,161.74" fill="none" stroke="rgb(255,229,180)" stroke-width="2.06" stroke-dasharray="9.32,4.92"/><path d="M75.32,84.26 L75.32,167.06" fill="none" stroke="rgb(255,221,152)" stroke-width="3.9" stroke-dasharray="7.92,6.91"/><path d="M42.04,78.94 L42.04,161.74" fill="none" stroke="rgb(255,251,171)" stroke-width="3.03" stroke-dasharray="7.49,6.34"/><path d="M52.68,84.26 L52.68,167.06" fill="none" stroke="rgb(255,228,148)" stroke-width="4.66" stroke-dasharray="3.95,4.53"/><path d="M64,72 L64,52" fill="none" stroke="#bbb" stroke-width="2"/><path d="M60.8,52 a3.2,3.2 0 1,0 6.4,0 a3.2,3.2 0 1,0 -6.4,0" fill="#ff5b3b"/></g></svg>