<svg xmlns="http://www.w3.org/2000/svg" version="1.1" width="128" height="112"><g><rect x="9.92" y="9.92" width="44.16" height="23.32" fill="rgba(0,0,0,0.20)" transform="matrix(1,0.5000,-1,0.5000,66.50,47.92)"/><g transform="translate(84.84,64.60) skewY(-26.565)"><rect x="0" y="0" width="17.56" height="21.60" fill="rgb(28,37,27)"/><line x1="3.92" y1="9.00" x2="13.63" y2="9.00" stroke="rgb(246,224,190)" stroke-width="3.02" stroke-linecap="butt"/><line x1="3.92" y1="12.60" x2="13.63" y2="12.60" stroke="rgb(246,224,190)" stroke-width="3.02" stroke-linecap="butt"/><line x1="3.92" y1="16.20" x2="13.63" y2="16.20" stroke="rgb(246,224,190)" stroke-width="3.02" stroke-linecap="butt"/><line x1="3.92" y1="19.80" x2="13.63" y2="19.80" stroke="rgb(246,224,190)" stroke-width="3.02" stroke-linecap="butt"/></g><g transform="translate(46.44,45.40) skewY(26.565)"><rect x="0" y="0" width="38.40" height="21.60" fill="rgb(52,68,49)"/><line x1="6.11" y1="1.80" x2="32.29" y2="1.80" stroke="rgb(248,230,190)" stroke-width="2.08" stroke-linecap="butt" stroke-dasharray="4.59,2.01"/><line x1="6.11" y1="5.40" x2="32.29" y2="5.40" stroke="rgb(248,230,190)" stroke-width="2.08" stroke-linecap="butt" stroke-dasharray="4.59,2.01"/><line x1="6.11" y1="9.00" x2="32.29" y2="9.00" stroke="rgb(248,230,190)" stroke-width="2.08" stroke-linecap="butt" stroke-dasharray="4.59,2.01"/></g><rect x="12.80" y="12.80" width="38.40" height="17.56" fill="rgb(83,104,79)" transform="matrix(1,0.5000,-1,0.5000,64.00,23.82)"/><g transform="translate(84.84,43.27) skewY(-26.565)"><rect x="0" y="0" width="17.56" height="21.34" fill="rgb(29,37,27)"/><line x1="7.68" y1="2.99" x2="7.68" y2="18.35" stroke="rgb(248,208,133)" stroke-width="1.21" stroke-linecap="butt"/><line x1="9.88" y1="2.99" x2="9.88" y2="18.35" stroke="rgb(248,208,133)" stroke-width="1.21" stroke-linecap="butt"/><line x1="12.07" y1="2.99" x2="12.07" y2="18.35" stroke="rgb(248,208,133)" stroke-width="1.21" stroke-linecap="butt"/><line x1="14.27" y1="2.99" x2="14.27" y2="18.35" stroke="rgb(248,208,133)" stroke-width="1.21" stroke-linecap="butt"/><line x1="16.46" y1="2.99" x2="16.46" y2="18.35" stroke="rgb(248,208,133)" stroke-width="1.21" stroke-linecap="butt"/></g><g transform="translate(46.44,24.07) skewY(26.565)"><rect x="0" y="0" width="38.40" height="21.34" fill="rgb(53,68,49)"/><line x1="7.20" y1="4.75" x2="7.20" y2="16.58" stroke="rgb(252,233,185)" stroke-width="2.45" stroke-linecap="butt" stroke-dasharray="5.65,1.93"/><line x1="12.00" y1="4.75" x2="12.00" y2="16.58" stroke="rgb(252,233,185)" stroke-width="2.45" stroke-linecap="butt" stroke-dasharray="5.65,1.93"/><line x1="16.80" y1="4.75" x2="16.80" y2="16.58" stroke="rgb(252,233,185)" stroke-width="2.45" stroke-linecap="butt" stroke-dasharray="5.65,1.93"/><line x1="21.60" y1="4.75" x2="21.60" y2="16.58" stroke="rgb(252,233,185)" stroke-width="2.45" stroke-linecap="butt" stroke-dasharray="5.65,1.93"/></g><rect x="12.80" y="12.80" width="38.40" height="17.56" fill="rgb(85,104,79)" transform="matrix(1,0.5000,-1,0.5000,64.00,2.49)"/><rect x="9.92" y="30.75" width="44.16" height="23.33" fill="rgba(0,0,0,0.20)" transform="matrix(1,0.5000,-1,0.5000,66.50,47.92)"/><g transform="translate(64.00,72.24) skewY(-26.565)"><rect x="0" y="0" width="17.57" height="24.38" fill="rgb(28,37,27)"/><line x1="3.07" y1="1.52" x2="14.50" y2="1.52" stroke="rgb(252,222,173)" stroke-width="3.03" stroke-linecap="butt" stroke-dasharray="5.09,2.63"/><line x1="3.07" y1="4.57" x2="14.50" y2="4.57" stroke="rgb(252,222,173)" stroke-width="3.03" stroke-linecap="butt" stroke-dasharray="5.09,2.63"/><line x1="3.07" y1="7.62" x2="14.50" y2="7.62" stroke="rgb(252,222,173)" stroke-width="3.03" stroke-linecap="butt" stroke-dasharray="5.09,2.63"/><line x1="3.07" y1="10.66" x2="14.50" y2="10.66" stroke="rgb(252,222,173)" stroke-width="3.03" stroke-linecap="butt" stroke-dasharray="5.09,2.63"/><line x1="3.07" y1="13.71" x2="14.50" y2="13.71" stroke="rgb(252,222,173)" stroke-width="3.03" stroke-linecap="butt" stroke-dasharray="5.09,2.63"/></g><g transform="translate(25.60,53.04) skewY(26.565)"><rect x="0" y="0" width="38.40" height="24.38" fill="rgb(51,68,49)"/><line x1="19.20" y1="5.15" x2="19.20" y2="19.22" stroke="rgb(242,210,163)" stroke-width="1.7" stroke-linecap="butt" stroke-dasharray="7.48,2.47"/><line x1="24.69" y1="5.15" x2="24.69" y2="19.22" stroke="rgb(242,210,163)" stroke-width="1.7" stroke-linecap="butt" stroke-dasharray="7.48,2.47"/><line x1="30.17" y1="5.15" x2="30.17" y2="19.22" stroke="rgb(242,210,163)" stroke-width="1.7" stroke-linecap="butt" stroke-dasharray="7.48,2.47"/><line x1="35.66" y1="5.15" x2="35.66" y2="19.22" stroke="rgb(242,210,163)" stroke-width="1.7" stroke-linecap="butt" stroke-dasharray="7.48,2.47"/></g><rect x="12.80" y="33.63" width="38.40" height="17.57" fill="rgb(82,104,79)" transform="matrix(1,0.5000,-1,0.5000,64.00,21.04)"/></g></svg>