<svg xmlns="http://www.w3.org/2000/svg" version="1.1" width="128" height="112"><g><rect x="9.92" y="9.92" width="44.16" height="44.16" fill="rgba(0,0,0,0.20)" transform="matrix(1,0.5000,-1,0.5000,66.50,47.92)"/><g transform="translate(64.00,70.21) skewY(-26.565)"><rect x="0" y="0" width="38.40" height="26.41" fill="rgb(26,38,24)"/><line x1="16.00" y1="5.65" x2="16.00" y2="20.76" stroke="rgb(247,222,184)" stroke-width="2.69" stroke-linecap="butt" stroke-dasharray="6.84,2.81"/><line x1="22.40" y1="5.65" x2="22.40" y2="20.76" stroke="rgb(247,222,184)" stroke-width="2.69" stroke-linecap="butt" stroke-dasharray="6.84,2.81"/><line x1="28.80" y1="5.65" x2="28.80" y2="20.76" stroke="rgb(247,222,184)" stroke-width="2.69" stroke-linecap="butt" stroke-dasharray="6.84,2.81"/><line x1="35.20" y1="5.65" x2="35.20" y2="20.76" stroke="rgb(247,222,184)" stroke-width="2.69" stroke-linecap="butt" stroke-dasharray="6.84,2.81"/></g><g transform="translate(25.60,51.01) skewY(26.565)"><rect x="0" y="0" width="38.40" height="26.41" fill="rgb(48,70,44)"/><line x1="9.60" y1="4.25" x2="9.60" y2="22.17" stroke="rgb(240,224,144)" stroke-width="2.88" stroke-linecap="butt" stroke-dasharray="4.40,3.43"/><line x1="16.00" y1="4.25" x2="16.00" y2="22.17" stroke="rgb(240,224,144)" stroke-width="2.88" stroke-linecap="butt" stroke-dasharray="4.40,3.43"/><line x1="22.40" y1="4.25" x2="22.40" y2="22.17" stroke="rgb(240,224,144)" stroke-width="2.88" stroke-linecap="butt" stroke-dasharray="4.40,3.43"/><line x1="28.80" y1="4.25" x2="28.80" y2="22.17" stroke="rgb(240,224,144)" stroke-width="2.88" stroke-linecap="butt" stroke-dasharray="4.40,3.43"/><line x1="35.20" y1="4.25" x2="35.20" y2="22.17" stroke="rgb(240,224,144)" stroke-width="2.88" stroke-linecap="butt" stroke-dasharray="4.40,3.43"/></g><rect x="12.80" y="12.80" width="38.40" height="38.40" fill="rgb(78,107,72)" transform="matrix(1,0.5000,-1,0.5000,64.00,19.01)"/><g transform="translate(64.00,46.40) skewY(-26.565)"><rect x="0" y="0" width="38.40" height="23.81" fill="rgb(27,38,24)"/><line x1="22.40" y1="5.05" x2="22.40" y2="18.75" stroke="rgb(247,214,130)" stroke-width="2.31" stroke-linecap="butt"/></g><g transform="translate(25.60,27.20) skewY(26.565)"><rect x="0" y="0" width="38.40" height="23.81" fill="rgb(50,70,44)"/><line x1="3.20" y1="4.78" x2="3.20" y2="19.02" stroke="rgb(247,222,183)" stroke-width="1.47" stroke-linecap="butt" stroke-dasharray="7.50,2.92"/><line x1="9.60" y1="4.78" x2="9.60" y2="19.02" stroke="rgb(247,222,183)" stroke-width="1.47" stroke-linecap="butt" stroke-dasharray="7.50,2.92"/><line x1="16.00" y1="4.78" x2="16.00" y2="19.02" stroke="rgb(247,222,183)" stroke-width="1.47" stroke-linecap="butt" stroke-dasharray="7.50,2.92"/></g><rect x="12.80" y="12.80" width="38.40" height="38.40" fill="rgb(81,107,72)" transform="matrix(1,0.5000,-1,0.5000,64.00,-4.80)"/></g></svg>