<svg xmlns="http://www.w3.org/2000/svg" xmlns:xlink="http://www.w3.org/1999/xlink" version="1.1" width="128" height="224"><defs/><g><path d="M64.72,172.88 L108.24,194.64 L67.28,215.12 L23.76,193.36 Z" fill="rgb(0,0,0)" fill-opacity="0.2"/><path d="M106.24,192.64 L65.28,213.12 L65.28,111.12 L106.24,90.64 Z" fill="#2e362b"/><path d="M106.24,192.64 L65.28,213.12 L65.28,111.12 L106.24,90.64 Z" fill="none" stroke="rgb(0,12,4)" stroke-opacity="0.45" stroke-width="1"/><path d="M21.76,191.36 L65.28,213.12 L65.28,111.12 L21.76,89.36 Z" fill="#1b211a"/><path d="M21.76,191.36 L65.28,213.12 L65.28,111.12 L21.76,89.36 Z" fill="none" stroke="rgb(0,12,4)" stroke-opacity="0.45" stroke-width="1"/><path d="M62.72,68.88 L106.24,90.64 L65.28,111.12 L21.76,89.36 Z" fill="#3f4a3a"/><path d="M62.72,68.88 L106.24,90.64 L65.28,111.12 L21.76,89.36 Z" fill="none" stroke="rgb(0,12,4)" stroke-opacity="0.45" stroke-width="1"/><path d="M94.5,96.51 L94.5,198.51" fill="none" stroke="rgb(255,212,164)" stroke-width="1.89" stroke-dasharray="8.97,5.32"/><path d="M85.76,100.88 L85.76,202.88" fill="none" stroke="rgb(255,208,173)" stroke-width="2.16" stroke-dasharray="6.23,4.45"/><path d="M77.02,105.25 L77.02,207.25" fill="none" stroke="rgb(255,224,151)" stroke-width="2.65" stroke-dasharray="9.39,3.57"/><path d="M34.24,95.6 L34.24,197.6" fill="none" stroke="rgb(255,243,163)" stroke-width="3.38" stroke-dasharray="7.37,3.52"/><path d="M43.52,100.24 L43.52,202.24" fill="none" stroke="rgb(255,240,181)" stroke-width="4.74" stroke-dasharray="7.79,2.07"/><path d="M52.8,104.88 L52.8,206.88" fill="none" stroke="rgb(255,245,165)" stroke-width="4.08" stroke-dasharray="5.82,4.38"/><path d="M43.52,100.24 L43.52,202.24" fill="none" stroke="rgb(25,29,22)" stroke-width="1.89" stroke-dasharray="8.97,5.32"/></g></svg>