<svg xmlns="http://www.w3.org/2000/svg" version="1.1" width="128" height="190"><g><rect x="7.36" y="7.36" width="26.88" height="28.50" fill="rgba(0,0,0,0.20)" transform="matrix(1,0.5000,-1,0.5000,66.50,123.36)"/><g transform="translate(62.37,107.85) skewY(-26.565)"><rect x="0" y="0" width="22.74" height="45.18" fill="rgb(34,44,29)"/><line x1="1.42" y1="7.05" x2="1.42" y2="38.13" stroke="rgb(244,214,165)" stroke-width="2.35" stroke-linecap="butt" stroke-dasharray="5.96,3.47"/><line x1="4.26" y1="7.05" x2="4.26" y2="38.13" stroke="rgb(244,214,165)" stroke-width="2.35" stroke-linecap="butt" stroke-dasharray="5.96,3.47"/><line x1="7.11" y1="7.05" x2="7.11" y2="38.13" stroke="rgb(244,214,165)" stroke-width="2.35" stroke-linecap="butt" stroke-dasharray="5.96,3.47"/><line x1="9.95" y1="7.05" x2="9.95" y2="38.13" stroke="rgb(244,214,165)" stroke-width="2.35" stroke-linecap="butt" stroke-dasharray="5.96,3.47"/><line x1="12.79" y1="7.05" x2="12.79" y2="38.13" stroke="rgb(244,214,165)" stroke-width="2.35" stroke-linecap="butt" stroke-dasharray="5.96,3.47"/><line x1="15.64" y1="7.05" x2="15.64" y2="38.13" stroke="rgb(244,214,165)" stroke-width="2.35" stroke-linecap="butt" stroke-dasharray="5.96,3.47"/><line x1="18.48" y1="7.05" x2="18.48" y2="38.13" stroke="rgb(244,214,165)" stroke-width="2.35" stroke-linecap="butt" stroke-dasharray="5.96,3.47"/></g><g transform="translate(41.26,97.29) skewY(26.565)"><rect x="0" y="0" width="21.12" height="45.18" fill="rgb(62,79,54)"/><line x1="3.96" y1="9.80" x2="3.96" y2="35.38" stroke="rgb(253,211,168)" stroke-width="1.72" stroke-linecap="butt" stroke-dasharray="3.38,4.77"/><line x1="6.60" y1="9.80" x2="6.60" y2="35.38" stroke="rgb(253,211,168)" stroke-width="1.72" stroke-linecap="butt" stroke-dasharray="3.38,4.77"/><line x1="9.24" y1="9.80" x2="9.24" y2="35.38" stroke="rgb(253,211,168)" stroke-width="1.72" stroke-linecap="butt" stroke-dasharray="3.38,4.77"/><line x1="11.88" y1="9.80" x2="11.88" y2="35.38" stroke="rgb(253,211,168)" stroke-width="1.72" stroke-linecap="butt" stroke-dasharray="3.38,4.77"/><line x1="14.52" y1="9.80" x2="14.52" y2="35.38" stroke="rgb(253,211,168)" stroke-width="1.72" stroke-linecap="butt" stroke-dasharray="3.38,4.77"/></g><rect x="10.24" y="10.24" width="21.12" height="22.74" fill="rgb(94,116,83)" transform="matrix(1,0.5000,-1,0.5000,64.00,75.68)"/><g transform="translate(62.70,63.08) skewY(-26.565)"><rect x="0" y="0" width="13.65" height="40.38" fill="rgb(33,44,29)"/><line x1="3.41" y1="8.97" x2="3.41" y2="31.41" stroke="rgb(247,226,155)" stroke-width="1.67" stroke-linecap="butt" stroke-dasharray="5.51,4.74"/><line x1="5.69" y1="8.97" x2="5.69" y2="31.41" stroke="rgb(247,226,155)" stroke-width="1.67" stroke-linecap="butt" stroke-dasharray="5.51,4.74"/><line x1="7.96" y1="8.97" x2="7.96" y2="31.41" stroke="rgb(247,226,155)" stroke-width="1.67" stroke-linecap="butt" stroke-dasharray="5.51,4.74"/><line x1="10.23" y1="8.97" x2="10.23" y2="31.41" stroke="rgb(247,226,155)" stroke-width="1.67" stroke-linecap="butt" stroke-dasharray="5.51,4.74"/><line x1="12.51" y1="8.97" x2="12.51" y2="31.41" stroke="rgb(247,226,155)" stroke-width="1.67" stroke-linecap="butt" stroke-dasharray="5.51,4.74"/></g><g transform="translate(50.03,56.75) skewY(26.565)"><rect x="0" y="0" width="12.67" height="40.38" fill="rgb(61,79,54)"/><line x1="3.17" y1="5.84" x2="3.17" y2="34.54" stroke="rgb(245,212,155)" stroke-width="1.2" stroke-linecap="butt"/><line x1="5.28" y1="5.84" x2="5.28" y2="34.54" stroke="rgb(245,212,155)" stroke-width="1.2" stroke-linecap="butt"/><line x1="7.39" y1="5.84" x2="7.39" y2="34.54" stroke="rgb(245,212,155)" stroke-width="1.2" stroke-linecap="butt"/></g><rect x="14.46" y="14.79" width="12.67" height="13.65" fill="rgb(92,116,83)" transform="matrix(1,0.5000,-1,0.5000,64.00,35.30)"/><rect x="32.01" y="7.36" width="24.63" height="28.50" fill="rgba(0,0,0,0.20)" transform="matrix(1,0.5000,-1,0.5000,66.50,123.36)"/><g transform="translate(84.78,128.82) skewY(-26.565)"><rect x="0" y="0" width="22.74" height="35.41" fill="rgb(34,44,29)"/><line x1="1.62" y1="5.52" x2="1.62" y2="29.88" stroke="rgb(245,200,149)" stroke-width="3.07" stroke-linecap="butt"/><line x1="4.87" y1="5.52" x2="4.87" y2="29.88" stroke="rgb(245,200,149)" stroke-width="3.07" stroke-linecap="butt"/><line x1="8.12" y1="5.52" x2="8.12" y2="29.88" stroke="rgb(245,200,149)" stroke-width="3.07" stroke-linecap="butt"/><line x1="11.37" y1="5.52" x2="11.37" y2="29.88" stroke="rgb(245,200,149)" stroke-width="3.07" stroke-linecap="butt"/><line x1="14.62" y1="5.52" x2="14.62" y2="29.88" stroke="rgb(245,200,149)" stroke-width="3.07" stroke-linecap="butt"/></g><g transform="translate(65.91,119.39) skewY(26.565)"><rect x="0" y="0" width="18.87" height="35.41" fill="rgb(62,79,54)"/><line x1="8.25" y1="6.41" x2="8.25" y2="29.00" stroke="rgb(242,209,162)" stroke-width="2.95" stroke-linecap="butt" stroke-dasharray="4.31,3.43"/><line x1="10.61" y1="6.41" x2="10.61" y2="29.00" stroke="rgb(242,209,162)" stroke-width="2.95" stroke-linecap="butt" stroke-dasharray="4.31,3.43"/><line x1="12.97" y1="6.41" x2="12.97" y2="29.00" stroke="rgb(242,209,162)" stroke-width="2.95" stroke-linecap="butt" stroke-dasharray="4.31,3.43"/></g><rect x="34.89" y="10.24" width="18.87" height="22.74" fill="rgb(94,116,83)" transform="matrix(1,0.5000,-1,0.5000,64.00,85.45)"/><g transform="translate(84.78,82.39) skewY(-26.565)"><rect x="0" y="0" width="16.70" height="43.41" fill="rgb(34,44,29)"/><line x1="3.27" y1="15.50" x2="13.43" y2="15.50" stroke="rgb(248,222,162)" stroke-width="2.12" stroke-linecap="butt"/><line x1="3.27" y1="21.71" x2="13.43" y2="21.71" stroke="rgb(248,222,162)" stroke-width="2.12" stroke-linecap="butt"/></g><g transform="translate(71.95,75.98) skewY(26.565)"><rect x="0" y="0" width="12.83" height="43.41" fill="rgb(62,79,54)"/><line x1="7.48" y1="8.90" x2="7.48" y2="34.51" stroke="rgb(252,210,161)" stroke-width="1.82" stroke-linecap="butt" stroke-dasharray="8.05,3.31"/></g><rect x="37.91" y="13.26" width="12.83" height="16.70" fill="rgb(94,116,83)" transform="matrix(1,0.5000,-1,0.5000,64.00,42.04)"/><rect x="7.36" y="33.87" width="49.28" height="22.77" fill="rgba(0,0,0,0.20)" transform="matrix(1,0.5000,-1,0.5000,66.50,123.36)"/><g transform="translate(64.00,139.46) skewY(-26.565)"><rect x="0" y="0" width="17.01" height="35.16" fill="rgb(34,44,29)"/><line x1="6.07" y1="5.71" x2="6.07" y2="29.45" stroke="rgb(243,213,152)" stroke-width="2.81" stroke-linecap="butt" stroke-dasharray="8.11,4.80"/><line x1="8.50" y1="5.71" x2="8.50" y2="29.45" stroke="rgb(243,213,152)" stroke-width="2.81" stroke-linecap="butt" stroke-dasharray="8.11,4.80"/><line x1="10.93" y1="5.71" x2="10.93" y2="29.45" stroke="rgb(243,213,152)" stroke-width="2.81" stroke-linecap="butt" stroke-dasharray="8.11,4.80"/><line x1="13.36" y1="5.71" x2="13.36" y2="29.45" stroke="rgb(243,213,152)" stroke-width="2.81" stroke-linecap="butt" stroke-dasharray="8.11,4.80"/></g><g transform="translate(20.48,117.70) skewY(26.565)"><rect x="0" y="0" width="43.52" height="35.16" fill="rgb(61,79,54)"/><line x1="9.79" y1="14.65" x2="33.73" y2="14.65" stroke="rgb(247,200,156)" stroke-width="1.44" stroke-linecap="butt"/><line x1="9.79" y1="20.51" x2="33.73" y2="20.51" stroke="rgb(247,200,156)" stroke-width="1.44" stroke-linecap="butt"/></g><rect x="10.24" y="36.75" width="43.52" height="17.01" fill="rgb(93,116,83)" transform="matrix(1,0.5000,-1,0.5000,64.00,85.70)"/><g transform="translate(56.65,110.57) skewY(-26.565)"><rect x="0" y="0" width="8.01" height="22.45" fill="rgb(87,77,66)"/></g><g transform="translate(48.65,106.57) skewY(26.565)"><rect x="0" y="0" width="8.01" height="22.45" fill="rgb(122,108,92)"/></g><rect x="35.64" y="42.99" width="8.01" height="8.01" fill="rgb(140,128,115)" transform="matrix(1,0.5000,-1,0.5000,64.00,63.25)"/></g></svg>