<svg xmlns="http://www.w3.org/2000/svg" xmlns:xlink="http://www.w3.org/1999/xlink" version="1.1" width="128" height="224"><defs/><g><path d="M66,181.2 L92.88,194.64 L66,208.08 L39.12,194.64 Z" fill="rgb(0,0,0)" fill-opacity="0.2"/><path d="M90.88,192.64 L64,206.08 L64,86.08 L90.88,72.64 Z" fill="#2e362b"/><path d="M90.88,192.64 L64,206.08 L64,86.08 L90.88,72.64 Z" fill="none" stroke="rgb(0,12,4)" stroke-opacity="0.45" stroke-width="1"/><path d="M37.12,192.64 L64,206.08 L64,86.08 L37.12,72.64 Z" fill="#1b211a"/><path d="M37.12,192.64 L64,206.08 L64,86.08 L37.12,72.64 Z" fill="none" stroke="rgb(0,12,4)" stroke-opacity="0.45" stroke-width="1"/><path d="M64,59.2 L90.88,72.64 L64,86.08 L37.12,72.64 Z" fill="#3f4a3a"/><path d="M64,59.2 L90.88,72.64 L64,86.08 L37.12,72.64 Z" fill="none" stroke="rgb(0,12,4)" stroke-opacity="0.45" stroke-width="1"/><path d="M90.88,107.04 L64,120.48" fill="none" stroke="rgb(255,205,162)" stroke-width="4.48" stroke-dasharray="6.54,5.02"/><path d="M90.88,132.64 L64,146.08" fill="none" stroke="rgb(255,250,163)" stroke-width="2.75" stroke-dasharray="8.45,6.02"/><path d="M90.88,158.24 L64,171.68" fill="none" stroke="rgb(255,206,147)" stroke-width="2.97" stroke-dasharray="9.77,2.56"/><path d="M37.12,107.04 L64,120.48" fill="none" stroke="rgb(255,209,175)" stroke-width="4.4" stroke-dasharray="9.34,2.29"/><path d="M37.12,132.64 L64,146.08" fill="none" stroke="rgb(255,243,178)" stroke-width="2.98" stroke-dasharray="8.76,5.44"/><path d="M37.12,158.24 L64,171.68" fill="none" stroke="rgb(255,215,154)" stroke-width="4.37" stroke-dasharray="4.25,2.47"/></g></svg>