<svg xmlns="http://www.w3.org/2000/svg" version="1.1" width="128" height="190"><g><rect x="7.36" y="7.36" width="25.70" height="49.28" fill="rgba(0,0,0,0.20)" transform="matrix(1,0.5000,-1,0.5000,66.50,123.36)"/><g transform="translate(40.42,119.69) skewY(-26.565)"><rect x="0" y="0" width="43.52" height="43.14" fill="rgb(43,47,36)"/><line x1="3.63" y1="8.28" x2="3.63" y2="34.86" stroke="rgb(252,217,137)" stroke-width="1.62" stroke-linecap="butt" stroke-dasharray="7.77,2.56"/><line x1="10.88" y1="8.28" x2="10.88" y2="34.86" stroke="rgb(252,217,137)" stroke-width="1.62" stroke-linecap="butt" stroke-dasharray="7.77,2.56"/><line x1="18.13" y1="8.28" x2="18.13" y2="34.86" stroke="rgb(252,217,137)" stroke-width="1.62" stroke-linecap="butt" stroke-dasharray="7.77,2.56"/><line x1="25.39" y1="8.28" x2="25.39" y2="34.86" stroke="rgb(252,217,137)" stroke-width="1.62" stroke-linecap="butt" stroke-dasharray="7.77,2.56"/><line x1="32.64" y1="8.28" x2="32.64" y2="34.86" stroke="rgb(252,217,137)" stroke-width="1.62" stroke-linecap="butt" stroke-dasharray="7.77,2.56"/></g><g transform="translate(20.48,109.72) skewY(26.565)"><rect x="0" y="0" width="19.94" height="43.14" fill="rgb(79,86,66)"/><line x1="3.37" y1="17.97" x2="16.57" y2="17.97" stroke="rgb(249,233,158)" stroke-width="2.53" stroke-linecap="butt" stroke-dasharray="8.30,4.30"/></g><rect x="10.24" y="10.24" width="19.94" height="43.52" fill="rgb(113,121,97)" transform="matrix(1,0.5000,-1,0.5000,64.00,77.72)"/><g transform="translate(40.42,74.80) skewY(-26.565)"><rect x="0" y="0" width="43.52" height="44.90" fill="rgb(44,47,36)"/><line x1="7.94" y1="3.74" x2="35.58" y2="3.74" stroke="rgb(246,212,151)" stroke-width="3.09" stroke-linecap="butt"/><line x1="7.94" y1="11.22" x2="35.58" y2="11.22" stroke="rgb(246,212,151)" stroke-width="3.09" stroke-linecap="butt"/><line x1="7.94" y1="18.71" x2="35.58" y2="18.71" stroke="rgb(246,212,151)" stroke-width="3.09" stroke-linecap="butt"/><line x1="7.94" y1="26.19" x2="35.58" y2="26.19" stroke="rgb(246,212,151)" stroke-width="3.09" stroke-linecap="butt"/><line x1="7.94" y1="33.67" x2="35.58" y2="33.67" stroke="rgb(246,212,151)" stroke-width="3.09" stroke-linecap="butt"/><line x1="7.94" y1="41.16" x2="35.58" y2="41.16" stroke="rgb(246,212,151)" stroke-width="3.09" stroke-linecap="butt"/></g><g transform="translate(20.48,64.83) skewY(26.565)"><rect x="0" y="0" width="19.94" height="44.90" fill="rgb(80,86,66)"/><line x1="3.74" y1="7.77" x2="3.74" y2="37.13" stroke="rgb(242,226,148)" stroke-width="2.43" stroke-linecap="butt" stroke-dasharray="4.52,1.97"/><line x1="6.23" y1="7.77" x2="6.23" y2="37.13" stroke="rgb(242,226,148)" stroke-width="2.43" stroke-linecap="butt" stroke-dasharray="4.52,1.97"/><line x1="8.72" y1="7.77" x2="8.72" y2="37.13" stroke="rgb(242,226,148)" stroke-width="2.43" stroke-linecap="butt" stroke-dasharray="4.52,1.97"/><line x1="11.22" y1="7.77" x2="11.22" y2="37.13" stroke="rgb(242,226,148)" stroke-width="2.43" stroke-linecap="butt" stroke-dasharray="4.52,1.97"/><line x1="13.71" y1="7.77" x2="13.71" y2="37.13" stroke="rgb(242,226,148)" stroke-width="2.43" stroke-linecap="butt" stroke-dasharray="4.52,1.97"/><line x1="16.20" y1="7.77" x2="16.20" y2="37.13" stroke="rgb(242,226,148)" stroke-width="2.43" stroke-linecap="butt" stroke-dasharray="4.52,1.97"/><line x1="18.70" y1="7.77" x2="18.70" y2="37.13" stroke="rgb(242,226,148)" stroke-width="2.43" stroke-linecap="butt" stroke-dasharray="4.52,1.97"/></g><rect x="10.24" y="10.24" width="19.94" height="43.52" fill="rgb(114,121,97)" transform="matrix(1,0.5000,-1,0.5000,64.00,32.83)"/><rect x="30.23" y="7.36" width="26.41" height="49.28" fill="rgba(0,0,0,0.20)" transform="matrix(1,0.5000,-1,0.5000,66.50,123.36)"/><g transform="translate(64.00,129.74) skewY(-26.565)"><rect x="0" y="0" width="43.52" height="44.88" fill="rgb(43,47,36)"/><line x1="8.40" y1="14.02" x2="35.12" y2="14.02" stroke="rgb(252,233,158)" stroke-width="3.13" stroke-linecap="butt"/><line x1="8.40" y1="19.63" x2="35.12" y2="19.63" stroke="rgb(252,233,158)" stroke-width="3.13" stroke-linecap="butt"/><line x1="8.40" y1="25.24" x2="35.12" y2="25.24" stroke="rgb(252,233,158)" stroke-width="3.13" stroke-linecap="butt"/></g><g transform="translate(43.35,119.42) skewY(26.565)"><rect x="0" y="0" width="20.65" height="44.88" fill="rgb(78,86,66)"/><line x1="7.37" y1="6.31" x2="7.37" y2="38.57" stroke="rgb(253,228,169)" stroke-width="2.27" stroke-linecap="butt"/><line x1="10.32" y1="6.31" x2="10.32" y2="38.57" stroke="rgb(253,228,169)" stroke-width="2.27" stroke-linecap="butt"/><line x1="13.27" y1="6.31" x2="13.27" y2="38.57" stroke="rgb(253,228,169)" stroke-width="2.27" stroke-linecap="butt"/><line x1="16.22" y1="6.31" x2="16.22" y2="38.57" stroke="rgb(253,228,169)" stroke-width="2.27" stroke-linecap="butt"/></g><rect x="33.11" y="10.24" width="20.65" height="43.52" fill="rgb(112,121,97)" transform="matrix(1,0.5000,-1,0.5000,64.00,75.98)"/><g transform="translate(64.00,92.00) skewY(-26.565)"><rect x="0" y="0" width="43.52" height="37.74" fill="rgb(43,47,36)"/><line x1="2.72" y1="6.46" x2="2.72" y2="31.28" stroke="rgb(250,238,177)" stroke-width="1.13" stroke-linecap="butt" stroke-dasharray="6.21,4.18"/><line x1="8.16" y1="6.46" x2="8.16" y2="31.28" stroke="rgb(250,238,177)" stroke-width="1.13" stroke-linecap="butt" stroke-dasharray="6.21,4.18"/><line x1="13.60" y1="6.46" x2="13.60" y2="31.28" stroke="rgb(250,238,177)" stroke-width="1.13" stroke-linecap="butt" stroke-dasharray="6.21,4.18"/><line x1="19.04" y1="6.46" x2="19.04" y2="31.28" stroke="rgb(250,238,177)" stroke-width="1.13" stroke-linecap="butt" stroke-dasharray="6.21,4.18"/><line x1="24.48" y1="6.46" x2="24.48" y2="31.28" stroke="rgb(250,238,177)" stroke-width="1.13" stroke-linecap="butt" stroke-dasharray="6.21,4.18"/><line x1="29.92" y1="6.46" x2="29.92" y2="31.28" stroke="rgb(250,238,177)" stroke-width="1.13" stroke-linecap="butt" stroke-dasharray="6.21,4.18"/><line x1="35.36" y1="6.46" x2="35.36" y2="31.28" stroke="rgb(250,238,177)" stroke-width="1.13" stroke-linecap="butt" stroke-dasharray="6.21,4.18"/><line x1="40.80" y1="6.46" x2="40.80" y2="31.28" stroke="rgb(250,238,177)" stroke-width="1.13" stroke-linecap="butt" stroke-dasharray="6.21,4.18"/></g><g transform="translate(43.35,81.68) skewY(26.565)"><rect x="0" y="0" width="20.65" height="37.74" fill="rgb(78,86,66)"/><line x1="9.03" y1="6.33" x2="9.03" y2="31.41" stroke="rgb(246,228,181)" stroke-width="3.19" stroke-linecap="butt"/><line x1="11.61" y1="6.33" x2="11.61" y2="31.41" stroke="rgb(246,228,181)" stroke-width="3.19" stroke-linecap="butt"/><line x1="14.19" y1="6.33" x2="14.19" y2="31.41" stroke="rgb(246,228,181)" stroke-width="3.19" stroke-linecap="butt"/></g><rect x="33.11" y="10.24" width="20.65" height="43.52" fill="rgb(112,121,97)" transform="matrix(1,0.5000,-1,0.5000,64.00,38.24)"/></g></svg>