<svg xmlns:xlink="http://www.w3.org/1999/xlink" version="1.1" xmlns="http://www.w3.org/2000/svg" width="128" height="224"><defs/><g><g transform="translate(2,2)"><path fill="rgb(0,0,0)" stroke="none" paint-order="stroke fill markers" d=" M 61.44 171.52 L 104.96 193.28 L 66.56 212.48000000000002 L 23.04 190.72 Z" fill-opacity="0.20"/></g><path fill="#a85f3e" stroke="rgb(0,0,0)" paint-order="fill stroke markers" d=" M 83.2 182.4 L 44.8 201.6 L 44.8 117.6 L 83.2 98.4 Z" stroke-opacity="0.35" stroke-miterlimit="10"/><path fill="#76402a" stroke="rgb(0,0,0)" paint-order="fill stroke markers" d=" M 23.04 190.72 L 44.8 201.6 L 44.8 117.6 L 23.04 106.72 Z" stroke-opacity="0.35" stroke-miterlimit="10"/><path fill="#c47a52" stroke="rgb(0,0,0)" paint-order="fill stroke markers" d=" M 61.44 87.52000000000001 L 83.2 98.4 L 44.8 117.6 L 23.04 106.72 Z" stroke-opacity="0.35" stroke-miterlimit="10"/><path fill="#ffe6a8" stroke="none" paint-order="stroke fill markers" d=" M 75.52 110.64000000000001 L 52.48 122.16 L 52.48 147.35999999999999 L 75.52 135.84 Z"/><path fill="#ffe6a8" stroke="none" paint-order="stroke fill markers" d=" M 75.52 152.64000000000001 L 52.48 164.16 L 52.48 189.36 L 75.52 177.84000000000003 Z"/><path fill="#ffe6a8" stroke="none" paint-order="stroke fill markers" d=" M 27.392 117.29599999999999 L 40.44799999999999 123.824 L 40.44799999999999 149.024 L 27.392 142.49599999999998 Z"/><path fill="#ffe6a8" stroke="none" paint-order="stroke fill markers" d=" M 27.392 159.296 L 40.44799999999999 165.824 L 40.44799999999999 191.024 L 27.392 184.49599999999998 Z"/><path fill="#8f3b30" stroke="rgb(0,0,0)" paint-order="fill stroke markers" d=" M 23.04 106.72 L 44.8 117.6 L 64 84 L 42.24 73.12 Z" stroke-opacity="0.3" stroke-miterlimit="10"/><path fill="#a8534a" stroke="rgb(0,0,0)" paint-order="fill stroke markers" d=" M 83.2 98.4 L 44.8 117.6 L 64 84 Z" stroke-opacity="0.3" stroke-miterlimit="10"/><path fill="#a85f3e" stroke="rgb(0,0,0)" paint-order="fill stroke markers" d=" M 104.96 193.28 L 66.56 212.48000000000002 L 66.56 128.48000000000002 L 104.96 109.28 Z" stroke-opacity="0.35" stroke-miterlimit="10"/><path fill="#76402a" stroke="rgb(0,0,0)" paint-order="fill stroke markers" d=" M 44.8 201.6 L 66.56 212.48000000000002 L 66.56 128.48000000000002 L 44.8 117.6 Z" stroke-opacity="0.35" stroke-miterlimit="10"/><path fill="#c47a52" stroke="rgb(0,0,0)" paint-order="fill stroke markers" d=" M 83.2 98.4 L 104.96 109.28 L 66.56 128.48000000000002 L 44.8 117.6 Z" stroke-opacity="0.35" stroke-miterlimit="10"/><path fill="#ffe6a8" stroke="none" paint-order="stroke fill markers" d=" M 97.28 121.52000000000001 L 74.24 133.04000000000002 L 74.24 158.24 L 97.28 146.72 Z"/><path fill="#ffe6a8" stroke="none" paint-order="stroke fill markers" d=" M 97.28 163.52 L 74.24 175.04000000000002 L 74.24 200.24 L 97.28 188.72000000000003 Z"/><path fill="#ffe6a8" stroke="none" paint-order="stroke fill markers" d=" M 49.152 128.176 L 62.208 134.704 L 62.208 159.904 L 49.152 153.376 Z"/><path fill="#ffe6a8" stroke="none" paint-order="stroke fill markers" d=" M 49.152 170.176 L 62.208 176.704 L 62.208 201.904 L 49.152 195.376 Z"/><path fill="#8f3b30" stroke="rgb(0,0,0)" paint-order="fill stroke markers" d=" M 44.8 117.6 L 66.56 128.48000000000002 L 85.75999999999999 94.88 L 64 84 Z" stroke-opacity="0.3" stroke-miterlimit="10"/><path fill="#a8534a" stroke="rgb(0,0,0)" paint-order="fill stroke markers" d=" M 104.96 109.28 L 66.56 128.48000000000002 L 85.75999999999999 94.88 Z" stroke-opacity="0.3" stroke-miterlimit="10"/></g></svg>