<svg xmlns="http://www.w3.org/2000/svg" xmlns:xlink="http://www.w3.org/1999/xlink" version="1.1" width="128" height="288"><defs/><g><path d="M66,236.24 L112.08,259.28 L66,282.32 L19.92,259.28 Z" fill="rgb(0,0,0)" fill-opacity="0.2"/><path d="M110.08,257.28 L64,280.32 L64,179.12 L110.08,156.08 Z" fill="#7c8a78"/><path d="M110.08,257.28 L64,280.32 L64,179.12 L110.08,156.08 Z" fill="none" stroke="rgb(0,12,4)" stroke-opacity="0.35" stroke-width="1"/><path d="M17.92,257.28 L64,280.32 L64,179.12 L17.92,156.08 Z" fill="#4f5c4c"/><path d="M17.92,257.28 L64,280.32 L64,179.12 L17.92,156.08 Z" fill="none" stroke="rgb(0,12,4)" stroke-opacity="0.35" stroke-width="1"/><path d="M64,133.04 L110.08,156.08 L64,179.12 L17.92,156.08 Z" fill="#9aa893"/><path d="M64,133.04 L110.08,156.08 L64,179.12 L17.92,156.08 Z" fill="none" stroke="rgb(0,12,4)" stroke-opacity="0.35" stroke-width="1"/><path d="M107.01,164.36 L97.79,168.97 L97.79,189.21 L107.01,184.6 Z" fill="#ffdf9e"/><path d="M91.65,172.04 L82.43,176.65 L82.43,196.89 L91.65,192.28 Z" fill="#ffdf9e"/><path d="M76.29,179.72 L67.07,184.33 L67.07,204.57 L76.29,199.96 Z" fill="#ffdf9e"/><path d="M107.01,198.1 L97.79,202.7 L97.79,222.94 L107.01,218.34 Z" fill="#ffdf9e"/><path d="M91.65,205.78 L82.43,210.38 L82.43,230.62 L91.65,226.02 Z" fill="#ffdf9e"/><path d="M76.29,213.46 L67.07,218.06 L67.07,238.3 L76.29,233.7 Z" fill="#ffdf9e"/><path d="M107.01,231.83 L97.79,236.44 L97.79,256.68 L107.01,252.07 Z" fill="#ffdf9e"/><path d="M91.65,239.51 L82.43,244.12 L82.43,264.36 L91.65,259.75 Z" fill="#ffdf9e"/><path d="M76.29,247.19 L67.07,251.8 L67.07,272.04 L76.29,267.43 Z" fill="#ffdf9e"/><path d="M20.99,164.36 L30.21,168.97 L30.21,189.21 L20.99,184.6 Z" fill="#ffdf9e"/><path d="M36.35,172.04 L45.57,176.65 L45.57,196.89 L36.35,192.28 Z" fill="#ffdf9e"/><path d="M51.71,179.72 L60.93,184.33 L60.93,204.57 L51.71,199.96 Z" fill="#ffdf9e"/><path d="M20.99,198.1 L30.21,202.7 L30.21,222.94 L20.99,218.34 Z" fill="#ffdf9e"/><path d="M36.35,205.78 L45.57,210.38 L45.57,230.62 L36.35,226.02 Z" fill="#ffdf9e"/><path d="M51.71,213.46 L60.93,218.06 L60.93,238.3 L51.71,233.7 Z" fill="#ffdf9e"/><path d="M20.99,231.83 L30.21,236.44 L30.21,256.68 L20.99,252.07 Z" fill="#ffdf9e"/><path d="M36.35,239.51 L45.57,244.12 L45.57,264.36 L36.35,259.75 Z" fill="#ffdf9e"/><path d="M51.71,247.19 L60.93,251.8 L60.93,272.04 L51.71,267.43 Z" fill="#ffdf9e"/><path d="M97.28,156.08 L64,172.72 L64,89.92 L97.28,73.28 Z" fill="#7c8a78"/><path d="M97.28,156.08 L64,172.72 L64,89.92 L97.28,73.28 Z" fill="none" stroke="rgb(0,12,4)" stroke-opacity="0.35" stroke-width="1"/><path d="M30.72,156.08 L64,172.72 L64,89.92 L30.72,73.28 Z" fill="#4f5c4c"/><path d="M30.72,156.08 L64,172.72 L64,89.92 L30.72,73.28 Z" fill="none" stroke="rgb(0,12,4)" stroke-opacity="0.35" stroke-width="1"/><path d="M64,56.64 L97.28,73.28 L64,89.92 L30.72,73.28 Z" fill="#9aa893"/><path d="M64,56.64 L97.28,73.28 L64,89.92 L30.72,73.28 Z" fill="none" stroke="rgb(0,12,4)" stroke-opacity="0.35" stroke-width="1"/><path d="M93.95,83.22 L83.97,88.22 L83.97,113.06 L93.95,108.06 Z" fill="#ffdf9e"/><path d="M77.31,91.54 L67.33,96.54 L67.33,121.38 L77.31,116.38 Z" fill="#ffdf9e"/><path d="M93.95,124.62 L83.97,129.62 L83.97,154.46 L93.95,149.46 Z" fill="#ffdf9e"/><path d="M77.31,132.94 L67.33,137.94 L67.33,162.78 L77.31,157.78 Z" fill="#ffdf9e"/><path d="M34.05,83.22 L44.03,88.22 L44.03,113.06 L34.05,108.06 Z" fill="#ffdf9e"/><path d="M50.69,91.54 L60.67,96.54 L60.67,121.38 L50.69,116.38 Z" fill="#ffdf9e"/><path d="M34.05,124.62 L44.03,129.62 L44.03,154.46 L34.05,149.46 Z" fill="#ffdf9e"/><path d="M50.69,132.94 L60.67,137.94 L60.67,162.78 L50.69,157.78 Z" fill="#ffdf9e"/><path d="M64,72 L64,52" fill="none" stroke="#bbb" stroke-width="2"/><circle cx="64" cy="52" r="3.2" fill="#ff5b3b"/><path d="" fill="#ff5b3b"/></g></svg>