<svg xmlns:xlink="http://www.w3.org/1999/xlink" version="1.1" xmlns="http://www.w3.org/2000/svg" width="128" height="288"><defs/><g><g transform="translate(2,2)"><path fill="rgb(0,0,0)" stroke="none" paint-order="stroke fill markers" d=" M 64 230.4 L 116.48 256.64 L 64 282.88 L 11.519999999999996 256.64 Z" fill-opacity="0.20"/></g><path fill="#a85f3e" stroke="rgb(0,0,0)" paint-order="fill stroke markers" d=" M 116.48 256.64 L 64 282.88 L 64 230.88 L 116.48 204.64 Z" stroke-opacity="0.35" stroke-miterlimit="10"/><path fill="#76402a" stroke="rgb(0,0,0)" paint-order="fill stroke markers" d=" M 11.519999999999996 256.64 L 64 282.88 L 64 230.88 L 11.519999999999996 204.64 Z" stroke-opacity="0.35" stroke-miterlimit="10"/><path fill="#c47a52" stroke="rgb(0,0,0)" paint-order="fill stroke markers" d=" M 64 178.4 L 116.48 204.64 L 64 230.88 L 11.519999999999996 204.64 Z" stroke-opacity="0.35" stroke-miterlimit="10"/><path fill="#ffe6a8" stroke="none" paint-order="stroke fill markers" d=" M 113.85600000000001 216.352 L 105.98400000000001 220.28799999999998 L 105.98400000000001 251.48799999999997 L 113.85600000000001 247.552 Z"/><path fill="#ffe6a8" stroke="none" paint-order="stroke fill markers" d=" M 100.736 222.912 L 92.864 226.84799999999998 L 92.864 258.048 L 100.736 254.112 Z"/><path fill="#ffe6a8" stroke="none" paint-order="stroke fill markers" d=" M 87.616 229.472 L 79.744 233.408 L 79.744 264.608 L 87.616 260.672 Z"/><path fill="#ffe6a8" stroke="none" paint-order="stroke fill markers" d=" M 74.496 236.032 L 66.624 239.968 L 66.624 271.168 L 74.496 267.232 Z"/><path fill="#ffe6a8" stroke="none" paint-order="stroke fill markers" d=" M 14.143999999999997 216.352 L 22.016 220.28799999999998 L 22.016 251.48799999999997 L 14.143999999999997 247.552 Z"/><path fill="#ffe6a8" stroke="none" paint-order="stroke fill markers" d=" M 27.263999999999996 222.912 L 35.135999999999996 226.84799999999998 L 35.135999999999996 258.048 L 27.263999999999996 254.112 Z"/><path fill="#ffe6a8" stroke="none" paint-order="stroke fill markers" d=" M 40.384 229.472 L 48.25599999999999 233.408 L 48.25599999999999 264.608 L 40.384 260.672 Z"/><path fill="#ffe6a8" stroke="none" paint-order="stroke fill markers" d=" M 53.504000000000005 236.032 L 61.376 239.968 L 61.376 271.168 L 53.504000000000005 267.232 Z"/><path fill="#a85f3e" stroke="rgb(0,0,0)" paint-order="fill stroke markers" d=" M 101.12 204.64 L 64 223.2 L 64 91.19999999999999 L 101.12 72.63999999999999 Z" stroke-opacity="0.35" stroke-miterlimit="10"/><path fill="#76402a" stroke="rgb(0,0,0)" paint-order="fill stroke markers" d=" M 26.879999999999995 204.64 L 64 223.2 L 64 91.19999999999999 L 26.879999999999995 72.63999999999999 Z" stroke-opacity="0.35" stroke-miterlimit="10"/><path fill="#c47a52" stroke="rgb(0,0,0)" paint-order="fill stroke markers" d=" M 64 54.08000000000001 L 101.12 72.63999999999999 L 64 91.19999999999999 L 26.879999999999995 72.63999999999999 Z" stroke-opacity="0.35" stroke-miterlimit="10"/><path fill="#ffe6a8" stroke="none" paint-order="stroke fill markers" d=" M 98.64533333333334 80.47733333333332 L 91.22133333333333 84.18933333333331 L 91.22133333333333 103.98933333333332 L 98.64533333333334 100.27733333333333 Z"/><path fill="#ffe6a8" stroke="none" paint-order="stroke fill markers" d=" M 86.272 86.66399999999999 L 78.848 90.37599999999998 L 78.848 110.17599999999999 L 86.272 106.464 Z"/><path fill="#ffe6a8" stroke="none" paint-order="stroke fill markers" d=" M 73.89866666666667 92.85066666666665 L 66.47466666666668 96.56266666666664 L 66.47466666666668 116.36266666666666 L 73.89866666666667 112.65066666666667 Z"/><path fill="#ffe6a8" stroke="none" paint-order="stroke fill markers" d=" M 98.64533333333334 113.47733333333332 L 91.22133333333333 117.18933333333331 L 91.22133333333333 136.98933333333332 L 98.64533333333334 133.27733333333333 Z"/><path fill="#ffe6a8" stroke="none" paint-order="stroke fill markers" d=" M 86.272 119.66399999999999 L 78.848 123.37599999999998 L 78.848 143.176 L 86.272 139.464 Z"/><path fill="#ffe6a8" stroke="none" paint-order="stroke fill markers" d=" M 73.89866666666667 125.85066666666665 L 66.47466666666668 129.56266666666664 L 66.47466666666668 149.36266666666666 L 73.89866666666667 145.65066666666667 Z"/><path fill="#ffe6a8" stroke="none" paint-order="stroke fill markers" d=" M 98.64533333333334 146.47733333333332 L 91.22133333333333 150.1893333333333 L 91.22133333333333 169.98933333333332 L 98.64533333333334 166.27733333333333 Z"/><path fill="#ffe6a8" stroke="none" paint-order="stroke fill markers" d=" M 86.272 152.664 L 78.848 156.37599999999998 L 78.848 176.176 L 86.272 172.464 Z"/><path fill="#ffe6a8" stroke="none" paint-order="stroke fill markers" d=" M 73.89866666666667 158.85066666666665 L 66.47466666666668 162.56266666666664 L 66.47466666666668 182.36266666666666 L 73.89866666666667 178.65066666666667 Z"/><path fill="#ffe6a8" stroke="none" paint-order="stroke fill markers" d=" M 98.64533333333334 179.47733333333332 L 91.22133333333333 183.1893333333333 L 91.22133333333333 202.98933333333332 L 98.64533333333334 199.27733333333333 Z"/><path fill="#ffe6a8" stroke="none" paint-order="stroke fill markers" d=" M 86.272 185.664 L 78.848 189.37599999999998 L 78.848 209.176 L 86.272 205.464 Z"/><path fill="#ffe6a8" stroke="none" paint-order="stroke fill markers" d=" M 73.89866666666667 191.85066666666665 L 66.47466666666668 195.56266666666664 L 66.47466666666668 215.36266666666666 L 73.89866666666667 211.65066666666667 Z"/><path fill="#ffe6a8" stroke="none" paint-order="stroke fill markers" d=" M 29.354666666666663 80.47733333333332 L 36.778666666666666 84.18933333333331 L 36.778666666666666 103.98933333333332 L 29.354666666666663 100.27733333333333 Z"/><path fill="#ffe6a8" stroke="none" paint-order="stroke fill markers" d=" M 41.727999999999994 86.66399999999999 L 49.152 90.37599999999998 L 49.152 110.17599999999999 L 41.727999999999994 106.464 Z"/><path fill="#ffe6a8" stroke="none" paint-order="stroke fill markers" d=" M 54.10133333333333 92.85066666666665 L 61.52533333333333 96.56266666666664 L 61.52533333333333 116.36266666666666 L 54.10133333333333 112.65066666666667 Z"/><path fill="#ffe6a8" stroke="none" paint-order="stroke fill markers" d=" M 29.354666666666663 113.47733333333332 L 36.778666666666666 117.18933333333331 L 36.778666666666666 136.98933333333332 L 29.354666666666663 133.27733333333333 Z"/><path fill="#ffe6a8" stroke="none" paint-order="stroke fill markers" d=" M 41.727999999999994 119.66399999999999 L 49.152 123.37599999999998 L 49.152 143.176 L 41.727999999999994 139.464 Z"/><path fill="#ffe6a8" stroke="none" paint-order="stroke fill markers" d=" M 54.10133333333333 125.85066666666665 L 61.52533333333333 129.56266666666664 L 61.52533333333333 149.36266666666666 L 54.10133333333333 145.65066666666667 Z"/><path fill="#ffe6a8" stroke="none" paint-order="stroke fill markers" d=" M 29.354666666666663 146.47733333333332 L 36.778666666666666 150.1893333333333 L 36.778666666666666 169.98933333333332 L 29.354666666666663 166.27733333333333 Z"/><path fill="#ffe6a8" stroke="none" paint-order="stroke fill markers" d=" M 41.727999999999994 152.664 L 49.152 156.37599999999998 L 49.152 176.176 L 41.727999999999994 172.464 Z"/><path fill="#ffe6a8" stroke="none" paint-order="stroke fill markers" d=" M 54.10133333333333 158.85066666666665 L 61.52533333333333 162.56266666666664 L 61.52533333333333 182.36266666666666 L 54.10133333333333 178.65066666666667 Z"/><path fill="#ffe6a8" stroke="none" paint-order="stroke fill markers" d=" M 29.354666666666663 179.47733333333332 L 36.778666666666666 183.1893333333333 L 36.778666666666666 202.98933333333332 L 29.354666666666663 199.27733333333333 Z"/><path fill="#ffe6a8" stroke="none" paint-order="stroke fill markers" d=" M 41.727999999999994 185.664 L 49.152 189.37599999999998 L 49.152 209.176 L 41.727999999999994 205.464 Z"/><path fill="#ffe6a8" stroke="none" paint-order="stroke fill markers" d=" M 54.10133333333333 191.85066666666665 L 61.52533333333333 195.56266666666664 L 61.52533333333333 215.36266666666666 L 54.10133333333333 211.65066666666667 Z"/></g></svg>