<svg xmlns="http://www.w3.org/2000/svg" xmlns:xlink="http://www.w3.org/1999/xlink" version="1.1" width="128" height="128"><defs/><g><path d="M66,81.36 L101.84,99.28 L66,117.2 L30.16,99.28 Z" fill="rgb(0,0,0)" fill-opacity="0.2"/><path d="M99.84,97.28 L64,115.2 L64,77.2 L99.84,59.28 Z" fill="#7c8a78"/><path d="M99.84,97.28 L64,115.2 L64,77.2 L99.84,59.28 Z" fill="none" stroke="rgb(0,12,4)" stroke-opacity="0.35" stroke-width="1"/><path d="M28.16,97.28 L64,115.2 L64,77.2 L28.16,59.28 Z" fill="#4f5c4c"/><path d="M28.16,97.28 L64,115.2 L64,77.2 L28.16,59.28 Z" fill="none" stroke="rgb(0,12,4)" stroke-opacity="0.35" stroke-width="1"/><path d="M64,41.36 L99.84,59.28 L64,77.2 L28.16,59.28 Z" fill="#9aa893"/><path d="M64,41.36 L99.84,59.28 L64,77.2 L28.16,59.28 Z" fill="none" stroke="rgb(0,12,4)" stroke-opacity="0.35" stroke-width="1"/><path d="M96.26,68.67 L85.5,74.05 L85.5,96.85 L96.26,91.47 Z" fill="#ffdf9e"/><path d="M78.34,77.63 L67.58,83.01 L67.58,105.81 L78.34,100.43 Z" fill="#ffdf9e"/><path d="M31.74,68.67 L42.5,74.05 L42.5,96.85 L31.74,91.47 Z" fill="#ffdf9e"/><path d="M49.66,77.63 L60.42,83.01 L60.42,105.81 L49.66,100.43 Z" fill="#ffdf9e"/><path d="M99.84,59.28 L64,77.2 L64,27.28 Z" fill="#6f8068"/><path d="M99.84,59.28 L64,77.2 L64,27.28 Z" fill="none" stroke="rgb(0,0,0)" stroke-opacity="0.3" stroke-width="1"/><path d="M28.16,59.28 L64,77.2 L64,27.28 Z" fill="#5c6b58"/><path d="M28.16,59.28 L64,77.2 L64,27.28 Z" fill="none" stroke="rgb(0,0,0)" stroke-opacity="0.3" stroke-width="1"/><path d="M92.16,32 L84.48,35.84 L84.48,17.84 L92.16,14 Z" fill="rgb(64,77,61)"/><path d="M92.16,32 L84.48,35.84 L84.48,17.84 L92.16,14 Z" fill="none" stroke="rgb(0,0,0)" stroke-opacity="0.4" stroke-width="1"/><path d="M76.8,32 L84.48,35.84 L84.48,17.84 L76.8,14 Z" fill="rgb(44,57,41)"/><path d="M76.8,32 L84.48,35.84 L84.48,17.84 L76.8,14 Z" fill="none" stroke="rgb(0,0,0)" stroke-opacity="0.4" stroke-width="1"/><path d="M84.48,10.16 L92.16,14 L84.48,17.84 L76.8,14 Z" fill="#4f5c4c"/><path d="M84.48,10.16 L92.16,14 L84.48,17.84 L76.8,14 Z" fill="none" stroke="rgb(0,0,0)" stroke-opacity="0.4" stroke-width="1"/></g></svg>