<svg xmlns="http://www.w3.org/2000/svg" xmlns:xlink="http://www.w3.org/1999/xlink" version="1.1" width="128" height="288"><defs/><g><path d="M66,232.4 L118.48,258.64 L66,284.88 L13.52,258.64 Z" fill="rgb(0,0,0)" fill-opacity="0.2"/><path d="M116.48,256.64 L64,282.88 L64,230.88 L116.48,204.64 Z" fill="#2e362b"/><path d="M116.48,256.64 L64,282.88 L64,230.88 L116.48,204.64 Z" fill="none" stroke="rgb(0,12,4)" stroke-opacity="0.45" stroke-width="1"/><path d="M11.52,256.64 L64,282.88 L64,230.88 L11.52,204.64 Z" fill="#1b211a"/><path d="M11.52,256.64 L64,282.88 L64,230.88 L11.52,204.64 Z" fill="none" stroke="rgb(0,12,4)" stroke-opacity="0.45" stroke-width="1"/><path d="M64,178.4 L116.48,204.64 L64,230.88 L11.52,204.64 Z" fill="#3f4a3a"/><path d="M64,178.4 L116.48,204.64 L64,230.88 L11.52,204.64 Z" fill="none" stroke="rgb(0,12,4)" stroke-opacity="0.45" stroke-width="1"/><path d="M102.84,211.46 L102.84,263.46" fill="none" stroke="rgb(255,212,164)" stroke-width="1.89" stroke-dasharray="8.97,5.32"/><path d="M94.44,215.66 L94.44,267.66" fill="none" stroke="rgb(255,208,173)" stroke-width="2.16" stroke-dasharray="6.23,4.45"/><path d="M86.04,219.86 L86.04,271.86" fill="none" stroke="rgb(255,224,151)" stroke-width="2.65" stroke-dasharray="9.39,3.57"/><path d="M77.64,224.06 L77.64,276.06" fill="none" stroke="rgb(255,225,171)" stroke-width="1.83" stroke-dasharray="7.56,2.23"/><path d="M25.16,211.46 L25.16,263.46" fill="none" stroke="rgb(255,243,163)" stroke-width="3.38" stroke-dasharray="7.37,3.52"/><path d="M33.56,215.66 L33.56,267.66" fill="none" stroke="rgb(255,240,181)" stroke-width="4.74" stroke-dasharray="7.79,2.07"/><path d="M41.96,219.86 L41.96,271.86" fill="none" stroke="rgb(255,245,165)" stroke-width="4.08" stroke-dasharray="5.82,4.38"/><path d="M50.36,224.06 L50.36,276.06" fill="none" stroke="rgb(255,220,154)" stroke-width="4.1" stroke-dasharray="8.22,4.2"/><path d="M101.12,204.64 L64,223.2 L64,91.2 L101.12,72.64 Z" fill="#2e362b"/><path d="M101.12,204.64 L64,223.2 L64,91.2 L101.12,72.64 Z" fill="none" stroke="rgb(0,12,4)" stroke-opacity="0.45" stroke-width="1"/><path d="M26.88,204.64 L64,223.2 L64,91.2 L26.88,72.64 Z" fill="#1b211a"/><path d="M26.88,204.64 L64,223.2 L64,91.2 L26.88,72.64 Z" fill="none" stroke="rgb(0,12,4)" stroke-opacity="0.45" stroke-width="1"/><path d="M64,54.08 L101.12,72.64 L64,91.2 L26.88,72.64 Z" fill="#3f4a3a"/><path d="M64,54.08 L101.12,72.64 L64,91.2 L26.88,72.64 Z" fill="none" stroke="rgb(0,12,4)" stroke-opacity="0.45" stroke-width="1"/><path d="M90.48,77.96 L90.48,209.96" fill="none" stroke="rgb(255,212,164)" stroke-width="1.89" stroke-dasharray="8.97,5.32"/><path d="M82.56,81.92 L82.56,213.92" fill="none" stroke="rgb(255,208,173)" stroke-width="2.16" stroke-dasharray="6.23,4.45"/><path d="M74.64,85.88 L74.64,217.88" fill="none" stroke="rgb(255,224,151)" stroke-width="2.65" stroke-dasharray="9.39,3.57"/><path d="M37.52,77.96 L37.52,209.96" fill="none" stroke="rgb(255,243,163)" stroke-width="3.38" stroke-dasharray="7.37,3.52"/><path d="M45.44,81.92 L45.44,213.92" fill="none" stroke="rgb(255,240,181)" stroke-width="4.74" stroke-dasharray="7.79,2.07"/><path d="M53.36,85.88 L53.36,217.88" fill="none" stroke="rgb(255,245,165)" stroke-width="4.08" stroke-dasharray="5.82,4.38"/></g></svg>