<svg xmlns="http://www.w3.org/2000/svg" xmlns:xlink="http://www.w3.org/1999/xlink" version="1.1" width="128" height="224"><defs/><g><path d="M63.44,173.52 L106.96,195.28 L68.56,214.48 L25.04,192.72 Z" fill="rgb(0,0,0)" fill-opacity="0.2"/><path d="M83.2,182.4 L44.8,201.6 L44.8,117.6 L83.2,98.4 Z" fill="#2e362b"/><path d="M83.2,182.4 L44.8,201.6 L44.8,117.6 L83.2,98.4 Z" fill="none" stroke="rgb(0,12,4)" stroke-opacity="0.45" stroke-width="1"/><path d="M23.04,190.72 L44.8,201.6 L44.8,117.6 L23.04,106.72 Z" fill="#1b211a"/><path d="M23.04,190.72 L44.8,201.6 L44.8,117.6 L23.04,106.72 Z" fill="none" stroke="rgb(0,12,4)" stroke-opacity="0.45" stroke-width="1"/><path d="M61.44,87.52 L83.2,98.4 L44.8,117.6 L23.04,106.72 Z" fill="#3f4a3a"/><path d="M61.44,87.52 L83.2,98.4 L44.8,117.6 L23.04,106.72 Z" fill="none" stroke="rgb(0,12,4)" stroke-opacity="0.45" stroke-width="1"/><path d="M64,108 L64,192" fill="none" stroke="rgb(255,229,180)" stroke-width="2.06" stroke-dasharray="9.32,4.92"/><path d="M33.92,112.16 L33.92,196.16" fill="none" stroke="rgb(255,251,171)" stroke-width="3.03" stroke-dasharray="7.49,6.34"/><path d="M23.04,106.72 L44.8,117.6 L64,84 L42.24,73.12 Z" fill="#262d24"/><path d="M23.04,106.72 L44.8,117.6 L64,84 L42.24,73.12 Z" fill="none" stroke="rgb(0,0,0)" stroke-opacity="0.25" stroke-width="3.03"/><path d="M83.2,98.4 L44.8,117.6 L64,84 Z" fill="#2f382c"/><path d="M83.2,98.4 L44.8,117.6 L64,84 Z" fill="none" stroke="rgb(0,0,0)" stroke-opacity="0.25" stroke-width="3.03"/><path d="M104.96,193.28 L66.56,212.48 L66.56,128.48 L104.96,109.28 Z" fill="#2e362b"/><path d="M104.96,193.28 L66.56,212.48 L66.56,128.48 L104.96,109.28 Z" fill="none" stroke="rgb(0,12,4)" stroke-opacity="0.45" stroke-width="1"/><path d="M44.8,201.6 L66.56,212.48 L66.56,128.48 L44.8,117.6 Z" fill="#1b211a"/><path d="M44.8,201.6 L66.56,212.48 L66.56,128.48 L44.8,117.6 Z" fill="none" stroke="rgb(0,12,4)" stroke-opacity="0.45" stroke-width="1"/><path d="M83.2,98.4 L104.96,109.28 L66.56,128.48 L44.8,117.6 Z" fill="#3f4a3a"/><path d="M83.2,98.4 L104.96,109.28 L66.56,128.48 L44.8,117.6 Z" fill="none" stroke="rgb(0,12,4)" stroke-opacity="0.45" stroke-width="1"/><path d="M85.76,118.88 L85.76,202.88" fill="none" stroke="rgb(255,229,180)" stroke-width="2.06" stroke-dasharray="9.32,4.92"/><path d="M55.68,123.04 L55.68,207.04" fill="none" stroke="rgb(255,251,171)" stroke-width="3.03" stroke-dasharray="7.49,6.34"/><path d="M44.8,117.6 L66.56,128.48 L85.76,94.88 L64,84 Z" fill="#262d24"/><path d="M44.8,117.6 L66.56,128.48 L85.76,94.88 L64,84 Z" fill="none" stroke="rgb(0,0,0)" stroke-opacity="0.25" stroke-width="3.03"/><path d="M104.96,109.28 L66.56,128.48 L85.76,94.88 Z" fill="#2f382c"/><path d="M104.96,109.28 L66.56,128.48 L85.76,94.88 Z" fill="none" stroke="rgb(0,0,0)" stroke-opacity="0.25" stroke-width="3.03"/></g></svg>